<svg xmlns="http://www.w3.org/2000/svg" viewBox="0 0 200.4 66.5"><path d="M188.4 39.7V26.4h-4.5V22h4.5v-7.8h4.8V22h6.2v4.4h-6.2v13c0 2.9 1.2 4.1 3.4 4.1.9 0 1.5-.1 2.2-.4l1.7 4.1c-1.1.5-2.2.7-3.8.7-5.5 0-8.3-3-8.3-8.2zm-30.8-4.9c0-7.2 5-13.5 12.4-13.5 7.6 0 12.4 5.3 12.4 13.5 0 .4-.1.9-.1.9h-20.1c.3 5.4 4.1 8.3 8.1 8.3 2.8 0 5.6-1.1 6.9-4.4l4.2 1.8c-1.5 3.6-5.2 6.9-11.1 6.9-7.5 0-12.7-5.9-12.7-13.5zm12.4-9.2c-3.5 0-6.3 2.4-7.3 6.1h14.7c-.1-2.2-2-6.1-7.4-6.1zm-35.7 18.3h-.2v3.5h-4.6v-37h4.8v11.7l-.2 3.5h.2c1.5-2.3 4.6-4.4 8.7-4.4 6.4 0 12.1 5.8 12.1 13.5s-5.6 13.5-12.1 13.5c-4.1.1-7.3-1.9-8.7-4.3zm15.9-9.1c0-5.7-3.8-9.2-8.1-9.2-4.2 0-8.1 3.4-8.1 9.2s3.8 9.2 8.1 9.2c4.3-.1 8.1-3.5 8.1-9.2zm-48.1 5c0-5.8 5.2-8.9 11.1-8.9 3.4 0 5.9 1 6.9 1.6v-.7c0-3.8-3.1-6.2-6.6-6.2-2.6 0-5.2 1.3-6.1 3.7l-4.4-1.9c.9-2.3 3.9-6.2 10.3-6.2 6.2 0 11.3 3.7 11.3 10.9v15.3H120v-3.5h-.2c-1.4 2.1-4 4.4-8.3 4.4-5.1 0-9.4-3.2-9.4-8.5zm18-3.3s-2-1.7-6.1-1.7c-5 0-7 2.7-7 5 0 2.7 2.8 4 5.3 4 3.8.1 7.8-3.1 7.8-7.3zM80.4 22.1l-.2 3.5h.2c1.3-2.3 4.6-4.4 8-4.4 6.5 0 9.7 4.4 9.7 10.7v15.5h-4.8V32.6c0-5.3-2.6-7-6.3-7-4.1 0-6.7 3.9-6.7 7.8v14h-4.8v-37h4.8l.1 11.7zm-29 21.8h-.2l.2 3.5v11.2h-4.8V22.1h4.6v3.5h.2c1.5-2.3 4.6-4.4 8.7-4.4 6.4 0 12.1 5.8 12.1 13.5S66.5 48.3 60 48.3c-4 0-7.2-2-8.6-4.4zm15.9-9.1c0-5.7-3.8-9.2-8.1-9.2-4.2 0-8.1 3.4-8.1 9.2s3.8 9.2 8.1 9.2c4.3-.1 8.1-3.5 8.1-9.2zM36.8 47.5h4.8V10.4h-4.8v37.1zM14.7 10.4L.7 47.5H6l3.6-10.1h15.6l3.6 10.1H34L20 10.4h-5.3zm2.5 5.8h.2L23.5 33H11.2l6-16.8z" fill="#377dff"/></svg>