<svg xmlns="http://www.w3.org/2000/svg" viewBox="0 0 200.4 66.5"><path d="M188.3 38.4V25h-4.5v-4.4h4.5v-7.8h4.8v7.8h6.2V25h-6.2v13c0 2.9 1.2 4.2 3.4 4.2.9 0 1.5-.1 2.2-.4l1.7 4.1c-1.1.5-2.2.7-3.8.7-5.4 0-8.3-3-8.3-8.2zm-30.8-5c0-7.2 5-13.6 12.5-13.6 7.6 0 12.5 5.4 12.5 13.6 0 .4-.1.9-.1.9h-20.1c.3 5.4 4.2 8.3 8.1 8.3 2.8 0 5.6-1.1 7-4.4l4.3 1.8c-1.5 3.6-5.3 7-11.1 7-7.9 0-13.1-5.9-13.1-13.6zm12.4-9.2c-3.5 0-6.3 2.4-7.3 6.1h14.8c-.2-2.2-2-6.1-7.5-6.1zm-35.8 18.4h-.2v3.5h-4.6V8.9h4.8v11.7l-.2 3.5h.2c1.5-2.3 4.6-4.4 8.7-4.4 6.4 0 12.1 5.8 12.1 13.6S149.2 47 142.8 47c-4.1 0-7.3-2.1-8.7-4.4zm16-9.2c0-5.7-3.8-9.2-8.1-9.2s-8.1 3.4-8.1 9.2 3.8 9.2 8.1 9.2c4.2 0 8.1-3.5 8.1-9.2zm-48.4 5c0-5.8 5.2-8.9 11.2-8.9 3.4 0 5.9 1 6.9 1.6v-.7c0-3.8-3.1-6.2-6.7-6.2-2.7 0-5.2 1.3-6.1 3.7l-4.4-1.9c.9-2.3 4-6.2 10.3-6.2 6.2 0 11.3 3.7 11.3 10.9v15.4h-4.6v-3.5h-.2c-1.4 2.1-4 4.4-8.4 4.4-4.9 0-9.3-3.2-9.3-8.6zm18.1-3.2s-2-1.7-6.1-1.7c-5 0-7 2.7-7 5 0 2.7 2.8 4.1 5.3 4.1 3.8 0 7.8-3.3 7.8-7.4zM80.1 20.7l-.2 3.5h.2c1.4-2.3 4.6-4.4 8.1-4.4 6.5 0 9.7 4.4 9.7 10.7v15.6h-4.8V31.3c0-5.3-2.7-7.1-6.3-7.1-4.2 0-6.7 4-6.7 7.9v14.1h-4.8V8.9h4.8v11.8zM50.9 42.6h-.2l.2 3.5v11.2h-4.8V20.7h4.6v3.5h.2c1.5-2.3 4.6-4.4 8.7-4.4 6.4 0 12.1 5.8 12.1 13.6S66 47 59.6 47c-4.1 0-7.2-2.1-8.7-4.4zm16-9.2c0-5.7-3.8-9.2-8.1-9.2s-8.1 3.4-8.1 9.2 3.8 9.2 8.1 9.2 8.1-3.5 8.1-9.2zM36.2 46.1H41V8.9h-4.8v37.2zM14 8.9L0 46.1h5.3L8.9 36h15.6l3.6 10.1h5.3l-14-37.2H14zm2.6 5.9h.2l6.1 16.8H10.6l6-16.8z" fill="#ed1c24"/></svg>