<svg xmlns="http://www.w3.org/2000/svg" viewBox="0 0 200.4 66.5"><path d="M177.3 34c-.1.3-.1.6-.2.9-.3 3.3-1.5 6.3-4 8.6-1.7 1.6-3.8 2.6-6 3.1-2.8.7-5.6.7-8.4-.2-4.1-1.2-7-3.9-8.5-7.9-1.3-3.5-1.3-7.1-.2-10.7 1.2-3.8 3.7-6.4 7.4-7.9 2.7-1.1 5.6-1.3 8.5-.9 2.4.3 4.6 1.2 6.5 2.8 1.4 1.1 2.4 2.6 3.2 4.1.2.3 0 .4-.2.5-1.1.5-2.3 1-3.4 1.4-.8.3-1.5.6-2.3.9-.5.2-.5.2-.7-.3-.6-1.2-1.4-2.3-2.6-2.9-2.6-1.4-6.9-.9-8.8 2.8-.9 1.8-1.2 3.7-1 5.7.1 1.5.5 3 1.3 4.3 1.3 1.9 3.2 2.7 5.4 2.8 1.4 0 2.8-.2 4-1 1.1-.7 1.6-1.8 1.9-3 .1-.3-.2-.3-.4-.3h-4.7c-.6 0-.6 0-.6-.5V32c0-.5 0-.5.5-.5h13.3V34zM36 1c.1.2.1.3.1.5v4.3c0 .4.1.5.5.5h4.1c.3 0 .5-.1.5-.5V1.5c0-.3.1-.4.4-.4h2.7c.3 0 .4.1.4.4v12.4c0 .5 0 .5-.5.5h-2.5c-.3 0-.5-.1-.5-.5V9.4c0-.6 0-.6-.6-.6h-4c-.5 0-.5 0-.5.5v4.5c0 .5 0 .5-.5.5h-2.5c-.3 0-.5-.1-.4-.4V1.3c0-.3.1-.4.4-.4h2.6c.2.1.3.1.3.1zm19 0c0 .2.1.4.1.6v2c0 .3-.1.4-.4.4h-3.3c-.3-.1-.4 0-.4.4v1.4c0 .3.1.4.4.4h3.1c.3 0 .5.1.5.4v2.1c0 .3-.1.4-.4.4h-3c-.5 0-.5 0-.5.6V11c0 .3.1.5.5.5h3.2c.3 0 .4.1.4.4V14c0 .3-.1.4-.4.4h-6.7c-.3 0-.4-.1-.4-.4V1.5c-.2-.4 0-.5.3-.5h7zM31 1c0 .1.1.2.1.4v2.2c0 .3-.1.4-.4.4h-2c-.4 0-.5.1-.5.5v9.4c0 .6 0 .6-.6.6h-2.4c-.5 0-.6 0-.6-.5V4.7c0-.6 0-.6-.6-.6h-2.3V1.2h8.7c.4-.2.5-.2.6-.2zm29.7 46.2c-3.8-.1-7.2-1.1-10-3.6-2.4-2.1-3.9-4.7-4.5-7.8-.9-5.1.4-9.5 4.2-13.1 1.7-1.6 3.7-2.6 6-3.2 2.7-.7 5.5-.8 8.2-.1 5 1.2 8.5 4.1 10.2 9 2 5.7.3 12.1-4.8 15.8-1.9 1.4-4.1 2.3-6.4 2.7-1 .1-2 .2-2.9.3zm76.7-11.4V20.2c0-.5 0-.5.6-.5h5.9c.3 0 .4.1.4.4v25.8c0 .3-.1.4-.5.4h-6c-.3 0-.5-.1-.7-.4-3.4-4.3-6.7-8.6-10.1-12.9-.7-.9-1.4-1.7-2-2.6-.1-.1-.1-.3-.2-.4-.1 0-.1.1-.2.1v15.5c0 .5 0 .5-.5.5h-6c-.3 0-.5-.1-.5-.5V19.8c0-.5 0-.5.5-.5h6.1c.3 0 .5.1.7.3 4.1 5.2 8.2 10.4 12.2 15.6.1.1.1.2.2.3 0 .4 0 .3.1.3zm-99.6-3.7c.6.2 1.2.4 1.7.6 2 .8 3.2 2.3 3.5 4.5.2 1.6.2 3.3-.5 4.8-.9 2-2.5 3.2-4.5 3.9-1.3.4-2.7.5-4.1.5H23.3c-.3 0-.5-.1-.5-.5V20.1c0-.3.1-.4.4-.4h10.5c1.4 0 2.7.3 3.9 1 1.5.9 2.4 2.2 2.8 3.8.3 1.4.3 2.8 0 4.1-.4 1.4-1.2 2.4-2.3 3.2l-.3.3zm-8.2 6v2.5c0 .2 0 .4.3.4 1.2-.1 2.4-.1 3.6-.2.5-.1 1.1-.3 1.5-.6.9-.6 1.1-1.5 1-2.5-.1-1.1-.8-1.8-1.9-2.1-1.4-.4-2.8-.4-4.2-.4-.3 0-.3.1-.3.4v2.5zm0-10.6v2.2c0 .2.1.4.3.4.8 0 1.6 0 2.3-.2 1.1-.2 1.7-.9 1.9-2 .2-1.3-.3-2.4-1.5-2.8-.9-.4-1.9-.3-2.8-.2-.1 0-.2.2-.2.4v2.2zM102 46.3h-8.1c-.3 0-.5-.1-.7-.4l-6-9.3c-.1-.1-.2-.2-.4-.3v9.5c0 .5 0 .5-.5.5h-5.9c-.5 0-.5 0-.5-.5V20.1c0-.3 0-.5.4-.5h10.8c1.9 0 3.8.5 5.4 1.7 1.7 1.3 2.6 3.1 2.9 5.2.2 1.5.1 3-.4 4.4-.7 2.1-2.3 3.4-4.3 4.1-.2.1-.4.1-.6.2-.4.1-.4.2-.2.5.8 1.1 1.7 2.2 2.5 3.3 1.8 2.3 3.5 4.6 5.3 6.9.2.2.2.3.3.4zm-15.2-18v2.9c0 .2 0 .4.3.4 1-.1 1.9-.1 2.9-.3 1.4-.3 2.3-1.4 2.4-2.8.1-1.7-.7-2.8-2.2-3.3-1-.3-2-.3-3-.3-.3 0-.4.1-.4.4v3zM112 33v12.9c0 .3-.1.4-.4.4h-6.1c-.4 0-.4-.1-.4-.5V20c0-.5 0-.5.5-.5h6c.5 0 .5 0 .5.5-.1 4.4-.1 8.7-.1 13zm4.1 25.4c-.1.1-.1.2-.2.3-.9 2.2-1.8 4.4-2.7 6.7-.1.3-.3.4-.6.4-1.1 0-.9.1-1.2-.8-.8-2.1-1.6-4.2-2.5-6.3 0-.1-.1-.2-.2-.3h-.1c-.1.4-.1.8-.2 1.2-.3 2-.6 3.9-.9 5.9 0 .2-.1.3-.4.3h-2.8c-.3 0-.3-.2-.3-.4.1-.8.3-1.6.4-2.5.3-1.9.6-3.7.9-5.6.3-1.5.5-3 .8-4.5.1-.3.2-.4.5-.4h2.5c.3 0 .5.1.6.4l2.1 5.7.3.9h.1l.3-.9 2.1-5.7c.1-.3.2-.4.5-.4h2.7c.3 0 .4.1.4.4.5 2.9 1 5.9 1.5 8.8.2 1.3.4 2.5.6 3.8.1.3 0 .4-.3.4h-2.6c-.3 0-.4-.1-.5-.4-.2-1.3-.4-2.7-.6-4-.1-.9-.3-1.7-.4-2.6.4-.2.4-.3.2-.4.1 0 .1 0 0 0zm36-.7c0 .3-.1.4-.1.6v7c0 .5 0 .5-.5.5H149c-.3 0-.4-.1-.4-.4V52.9c0-.3.1-.4.4-.4h2.8c.2 0 .4.1.5.3 1.9 2.5 3.9 4.9 5.8 7.4l.4.4v-7.5c0-.5 0-.5.5-.5h2.5c.3 0 .4.1.4.4v12.5c0 .3-.1.4-.4.4h-2.6c-.3 0-.5-.1-.7-.3-1.9-2.5-3.9-4.9-5.8-7.4-.1-.2-.1-.3-.3-.5zm-56.9 8.5c-2.9-.1-5.2-1.2-6.6-3.7-2.1-3.7-.4-8.9 4.3-10.2 2.4-.6 4.8-.3 6.8 1.2 1.9 1.4 2.8 3.4 2.8 5.7-.1 3.5-2.4 6.2-5.8 6.8-.6.1-1.1.1-1.5.2zm-3.9-7.1c0 2.1 1.6 3.7 3.8 3.7 2.1 0 3.8-1.6 3.8-3.7s-1.6-3.7-3.8-3.7c-2.1 0-3.8 1.6-3.8 3.7zm53.8 6.7h-1.3c-.4 0-.5-.1-.6-.4-.2-.5-.4-1-.5-1.6-.1-.3-.2-.4-.5-.4h-4.3c-.3 0-.4.1-.5.4-.2.6-.4 1.1-.6 1.7-.1.2-.2.3-.4.3h-3c-.3 0-.3-.1-.2-.4 1.6-4.2 3.2-8.3 4.8-12.5.1-.3.3-.5.7-.5h2.9c.3 0 .4.1.5.4 1.4 3.7 2.8 7.4 4.3 11.2.2.5.4 1 .5 1.4.1.3.1.4-.3.4h-1.5zm-5-9.3c-.1.2-.2.3-.2.4-.4 1.2-.8 2.4-1.3 3.6-.1.3 0 .4.3.4h2.3c.3 0 .4-.1.3-.4l-.6-1.8c-.3-.7-.5-1.4-.8-2.2zm-17 2.6v-6.2c0-.5 0-.5.5-.5h5.3c.7 0 1.4.2 2.1.5 1.2.5 1.9 1.5 2.2 2.8.2 1.1.2 2.2-.2 3.3-.7 1.6-2 2.3-3.7 2.4-.7.1-1.5 0-2.2 0-.3 0-.4.1-.4.4v3.6c0 .3-.1.4-.4.4h-2.6c-.3 0-.4-.1-.4-.5-.2-2-.2-4.1-.2-6.2zm3.4-2.2v1.3c0 .2.1.3.3.3h1.2c1.2-.1 1.8-.9 1.6-2.1-.1-.6-.5-1.1-1.2-1.2-.5-.1-1-.1-1.6-.1-.2 0-.3.1-.3.4v1.4zm-40.7 4.7v3.5c0 .3-.1.5-.4.6-1 .3-2 .6-3.1.5-2.7-.2-4.8-1.5-6-4-1.9-3.8-.1-8.3 4-9.7 1.7-.6 3.5-.5 5.2.2.1.1.3.2.3.4v3.6c-2-1.7-4.1-1.9-5.8.3-1.1 1.3-.9 3.4.2 4.7.7.8 1.7 1.2 2.8 1.2 1.1 0 2-.5 2.8-1.3zm77.4-9.1h3.6c.3 0 .4.1.6.3.7 1 1.3 2 2 3 .2.4.3.4.5 0 .7-1 1.3-1.9 2-2.9.2-.3.4-.4.7-.4h3.6c-.1.2-.1.2-.2.3-1.5 2.1-3 4.2-4.4 6.3-.1.2-.2.5-.2.7v5.6c0 .4-.1.5-.5.5h-2.6c-.3 0-.4-.1-.4-.4v-5.6c0-.3-.1-.6-.2-.8-1.4-2.1-2.9-4.1-4.3-6.1-.1-.2-.1-.4-.2-.5z" fill="#97a4af"/></svg>