<svg version="1.1" id="Layer_1" xmlns="http://www.w3.org/2000/svg" x="0" y="0" viewBox="0 0 200.4 66.5" xml:space="preserve"><style>.st0{fill:#221f23}</style><path class="st0" d="M180.1 33.5c-.1.3-.1.6-.2.9-.3 3.4-1.5 6.4-4.1 8.8-1.7 1.7-3.8 2.7-6.2 3.2-2.9.7-5.7.7-8.6-.2-4.2-1.3-7.2-4-8.7-8.1-1.4-3.6-1.4-7.3-.2-11 1.3-3.9 3.8-6.6 7.6-8.1 2.8-1.1 5.7-1.3 8.7-.9 2.5.3 4.7 1.2 6.7 2.8 1.4 1.2 2.4 2.6 3.3 4.2.2.3 0 .4-.2.5-1.2.5-2.4 1-3.5 1.5-.8.3-1.6.6-2.3 1-.5.2-.5.2-.7-.3-.6-1.2-1.4-2.3-2.6-3-2.7-1.4-7.1-1-9.1 2.9-.9 1.8-1.2 3.8-1.1 5.8.1 1.6.5 3 1.4 4.4 1.3 1.9 3.2 2.8 5.5 2.8 1.4 0 2.8-.2 4.1-1 1.1-.7 1.7-1.8 2-3.1.1-.3-.2-.3-.4-.3h-4.8c-.6 0-.6 0-.6-.6v-4.4c0-.5 0-.5.5-.5h13.6c-.1.9-.1 1.8-.1 2.7zM35.4-.3c.1.2.1.3.1.5v4.4c0 .3.1.4.5.4h4.2c.4 0 .5-.1.5-.5V.1c0-.3.1-.4.4-.4h2.7c.3 0 .4.1.4.4v12.7c0 .5 0 .5-.5.5h-2.6c-.4 0-.5-.1-.5-.5V8.2c0-.6 0-.6-.6-.6h-4.1c-.5 0-.5 0-.5.5v4.6c0 .5 0 .5-.5.5h-2.6c-.3 0-.5-.1-.5-.4V-.1c0-.3.1-.4.4-.4H35c.2.2.3.2.4.2z"/><path d="M54.8-.3c0 .2.1.4.1.6v2c0 .3-.1.4-.4.4h-3.4c-.3 0-.5.1-.5.5v1.5c0 .3.1.4.4.4h3.1c.3 0 .5.1.5.5v2.1c0 .3-.1.4-.4.4h-3c-.5 0-.5 0-.6.6v1.4c0 .4.1.5.5.5h3.3c.3 0 .4.1.4.4v2.1c0 .3-.1.5-.4.5h-6.9c-.3 0-.4-.1-.4-.4V.4c0-.3.1-.4.5-.4h6.7c.1-.3.3-.3.5-.3z"/><path class="st0" d="M30.3-.3c0 .1.1.3.1.4v2.3c0 .3-.1.4-.4.4h-2.1c-.4 0-.5.1-.5.5v9.6c0 .6 0 .6-.6.6h-2.4c-.5 0-.6 0-.6-.5V3.4c0-.6 0-.6-.6-.6h-2.3v-3h8.9c.3-.1.4-.1.5-.1zM60.6 47c-3.9-.1-7.3-1.1-10.3-3.7-2.5-2.1-4-4.8-4.6-8-.9-5.2.5-9.7 4.3-13.4 1.7-1.6 3.8-2.7 6.1-3.3 2.8-.7 5.6-.8 8.4-.1 5.1 1.2 8.7 4.2 10.4 9.2 2 5.8.3 12.4-4.9 16.2-2 1.5-4.2 2.4-6.6 2.7-.8.2-1.8.3-2.8.4zm78.6-11.7V19.4c0-.6 0-.6.6-.6h6c.3 0 .4.1.4.4v26.5c0 .4-.1.5-.5.5h-6.2c-.3 0-.5-.1-.7-.4-3.5-4.4-6.9-8.8-10.4-13.2l-2.1-2.7c-.1-.1-.1-.3-.2-.4-.1 0-.1.1-.2.1v16c0 .5 0 .5-.5.5h-6.1c-.4 0-.5-.1-.5-.5V19.2c0-.5 0-.5.5-.5h6.2c.3 0 .5.1.7.3 4.2 5.3 8.4 10.7 12.5 16 .1.1.1.2.2.4.2 0 .3 0 .3-.1zM37.1 31.5c.6.2 1.2.4 1.7.6 2.1.8 3.3 2.4 3.6 4.6.2 1.7.2 3.3-.5 4.9-.9 2-2.5 3.3-4.6 4-1.4.4-2.8.6-4.2.6H22.2c-.4 0-.5-.1-.5-.5V19.3c0-.3.1-.5.4-.5h10.8c1.4 0 2.8.3 4 1 1.6.9 2.5 2.2 2.8 3.9.3 1.4.3 2.8 0 4.2-.3 1.4-1.1 2.4-2.3 3.2 0 .2-.1.3-.3.4zm-8.3 6.2v2.5c0 .2 0 .4.3.4 1.2-.1 2.5-.1 3.7-.2.5-.1 1.1-.3 1.6-.6.9-.6 1.1-1.5 1-2.5-.1-1.2-.9-1.8-1.9-2.1-1.4-.4-2.9-.4-4.3-.4-.3 0-.4.1-.3.4-.1.8-.1 1.7-.1 2.5zm0-10.8v2.3c0 .3.1.4.4.4.8-.1 1.6 0 2.4-.2 1.1-.2 1.7-.9 1.9-2 .2-1.3-.4-2.4-1.5-2.9-.9-.4-1.9-.3-2.9-.2-.1 0-.2.2-.2.4-.1.7-.1 1.4-.1 2.2zM103 46.1h-8.4c-.3 0-.5-.1-.7-.4-2-3.2-4.1-6.4-6.2-9.6-.1-.1-.2-.2-.4-.3v9.8c0 .5 0 .5-.5.5h-6.1c-.5 0-.5 0-.5-.5V19.3c0-.3 0-.5.4-.5h11.1c2 0 3.9.5 5.5 1.7 1.8 1.3 2.7 3.2 3 5.4.2 1.5.1 3.1-.4 4.5-.8 2.1-2.3 3.5-4.4 4.2-.2.1-.4.1-.6.2-.4.1-.4.2-.2.5.9 1.1 1.7 2.2 2.6 3.4 1.8 2.4 3.6 4.7 5.5 7.1.1.1.2.1.3.3zM87.4 27.6v3c0 .2 0 .4.3.4 1-.1 2-.1 3-.3 1.4-.3 2.4-1.5 2.4-2.9.1-1.7-.7-2.9-2.2-3.3-1-.3-2.1-.3-3.1-.3-.3 0-.4.1-.4.4v3zm25.8 4.9v13.2c0 .3-.1.4-.4.4h-6.3c-.4 0-.4-.2-.4-.5V19.2c0-.5 0-.5.5-.5h6.1c.5 0 .5 0 .5.5v13.3zm4.2 26c-.1.1-.1.2-.2.3-.9 2.3-1.9 4.5-2.8 6.8-.1.3-.3.5-.6.4-1.1 0-.9.1-1.3-.9-.8-2.1-1.7-4.3-2.5-6.4 0-.1-.1-.2-.2-.3h-.1c-.1.4-.1.8-.2 1.3l-.9 6c0 .2-.1.3-.4.3h-2.8c-.3 0-.3-.2-.3-.4.1-.8.3-1.7.4-2.5.3-1.9.6-3.8 1-5.7.3-1.5.5-3.1.8-4.6.1-.3.2-.5.5-.4h2.6c.3 0 .5.1.6.4.7 1.9 1.4 3.9 2.2 5.8.1.3.2.6.4.9h.1c.1-.3.2-.6.4-.9.7-1.9 1.5-3.9 2.2-5.8.1-.3.3-.4.6-.4h2.7c.3 0 .4.1.4.4l1.5 9c.2 1.3.4 2.6.7 3.8.1.3 0 .4-.3.4h-2.7c-.3 0-.4-.1-.5-.4-.2-1.4-.4-2.7-.6-4.1-.1-.9-.3-1.8-.4-2.7-.1-.1-.1-.2-.3-.3.1 0 .1 0 0 0zm36.9-.7c0 .3-.1.4-.1.6v7.2c0 .5 0 .5-.5.5h-2.6c-.3 0-.4-.1-.4-.4V52.8c0-.3.1-.4.4-.4h2.8c.2 0 .4.1.5.3 2 2.5 4 5 6 7.6l.4.4v-7.8c0-.5 0-.5.5-.5h2.6c.3 0 .5.1.5.4v12.9c0 .3-.1.4-.4.4h-2.7c-.3 0-.5-.1-.7-.3-2-2.5-4-5.1-6-7.6-.1-.2-.2-.2-.3-.4zM96 66.5c-3-.1-5.4-1.2-6.8-3.8-2.1-3.8-.4-9.1 4.4-10.4 2.5-.7 4.9-.4 7 1.2 2 1.4 2.9 3.4 2.8 5.8-.1 3.5-2.5 6.3-6 6.9-.5.2-1 .2-1.4.3zm-4-7.3c0 2.1 1.7 3.8 3.9 3.8s3.9-1.6 3.9-3.7-1.7-3.8-3.9-3.8c-2.2-.1-3.9 1.6-3.9 3.7zm55.1 6.8h-1.3c-.4 0-.5-.1-.6-.5-.2-.5-.4-1.1-.5-1.6-.1-.3-.2-.4-.5-.4h-4.4c-.3 0-.4.1-.5.4-.2.6-.4 1.1-.6 1.7-.1.2-.2.3-.4.3h-3.1c-.3 0-.4-.1-.2-.4 1.6-4.3 3.3-8.5 4.9-12.8.1-.3.3-.5.7-.5h3c.3 0 .4.1.5.4 1.4 3.8 2.9 7.6 4.4 11.4l.6 1.5c.1.3.1.4-.3.4-.7.1-1.2.1-1.7.1zm-5.1-9.5c-.1.2-.2.3-.2.4-.4 1.2-.9 2.4-1.3 3.7-.1.3 0 .4.3.4h2.4c.3 0 .4-.1.3-.4l-.6-1.8c-.4-.7-.6-1.5-.9-2.3zm-17.5 2.7v-6.3c0-.5 0-.5.5-.5h5.4c.7 0 1.5.2 2.1.5 1.3.5 1.9 1.5 2.2 2.8.2 1.1.2 2.3-.3 3.3-.7 1.7-2.1 2.3-3.8 2.4-.8.1-1.5 0-2.3 0-.3 0-.5.1-.4.4v3.7c0 .3-.1.4-.4.4h-2.7c-.4 0-.5-.1-.5-.5.2-2 .2-4.1.2-6.2zm3.6-2.3v1.4c0 .2.1.3.3.3h1.2c1.3-.1 1.9-.9 1.6-2.2-.1-.6-.6-1.1-1.2-1.2-.5-.1-1.1-.1-1.6-.1-.3 0-.3.1-.3.4v1.4zm-41.7 4.9v3.6c0 .3-.1.5-.4.6-1 .3-2.1.6-3.1.5-2.8-.2-4.9-1.6-6.1-4.1-1.9-3.9-.1-8.5 4.1-10 1.8-.6 3.6-.5 5.3.2.1.1.3.2.3.4v3.7c-2.1-1.7-4.2-2-6 .3-1.1 1.4-.9 3.5.2 4.8.8.8 1.7 1.3 2.9 1.2 1.1 0 2-.5 2.9-1.3-.2 0-.1 0-.1.1zm79.2-9.4h3.7c.3 0 .4.1.6.3l2.1 3c.2.4.3.4.6 0 .7-1 1.3-2 2-3 .2-.3.4-.4.7-.4h3.7c-.1.2-.1.3-.2.3-1.5 2.1-3 4.3-4.5 6.4-.1.2-.2.5-.2.7v5.7c0 .4-.1.5-.5.5H171c-.3 0-.4-.1-.4-.4v-5.7c0-.3-.1-.6-.2-.8-1.5-2.1-2.9-4.2-4.4-6.3-.2 0-.3-.1-.4-.3z"/></svg>