<svg xmlns="http://www.w3.org/2000/svg" viewBox="0 0 200.4 66.5"><path d="M64 37.1c.5-2.6.2-3.6-1.7-3.6-1.7 0-2.8 1-3.3 3.6l-4.3 20.4H44.3l6.6-30.9h10l-.9 3.8h.2c1.9-3.1 5-4.7 8.5-4.7 4.3 0 6 1.6 6.6 4.8 2.4-3.6 5.7-4.8 8.8-4.8 4.5 0 7.6 1.7 6.2 8.5l-5 23.3H75l4.3-20.4c.5-2.6.2-3.6-1.7-3.6s-2.8 1-3.3 3.6L70 57.5H59.7L64 37.1zm33.1-20.4h10.4L104.6 30h.2c1.7-3.1 4.5-4.3 7.3-4.3 6 0 8.8 3.6 6.2 15.7-2.4 11.4-5.9 16.9-12.8 16.9-3.6 0-5.5-1.7-6-5l-1 4.1h-9.8l8.4-40.7zm5.9 33.9c2.4 0 3.5-1.9 4.8-8.5 1.4-6.7 1.2-8.6-1.2-8.6-2.2 0-3.1 1.9-4.7 8.6-1.3 6.6-1.1 8.5 1.1 8.5zm30.1 6.9c-.2-1 0-2.2.2-3.5h-.2c-1.7 2.8-4.8 4.3-7.9 4.3-6.2 0-7.8-3.8-6.6-9.2 1.2-5.7 3.8-8.5 10.7-10l4.1-.9c2.4-.5 3.5-1.6 3.8-3.5.3-1.9-.2-2.8-2.1-2.8-1.9 0-2.9.9-3.8 4h-8.8c1.9-8.8 9.3-10.4 14-10.4 7.3 0 11.9 1.9 10.2 10l-3.3 15c-.5 2.9-.9 5.2-.3 6.7l-10 .3zm1.7-11.3l.9-3.6h-.2c-.7.7-2.1.7-3.8 1.4-1.7.7-2.6 1.9-2.9 4-.5 2.1.2 3.5 1.7 3.5 2.4-.1 3.6-1.8 4.3-5.3zm17.3-19.6h10l-1 4.8c1.9-3.6 5.2-5.7 8.1-5.7h1.7l-2.1 9.7c-.9-.2-1.7-.2-2.6-.2-3.6 0-6 1.4-6.9 5.4l-3.6 16.9h-10.2l6.6-30.9zm23.3-9.9h10.4l-4.3 20.5 8.1-10.7h10.9l-11.2 12.8 5.7 18.1h-11l-2.9-10.7-2.4 2.8-1.6 7.9h-10.4l8.7-40.7z"/><path d="M24.1 57.5H11l4.8-20.7H.1l2.4-10.4h15.7l4.5-19.2h13l-2.4 10.7-2.1 8.5h16.6l-2.4 10.4H28.9l-4.8 20.7z" fill="#cf4037"/><path d="M50.9 17.9L53.3 7h-15l-2.6 10.9h15.2zm-9 39.6l2.6-10.7H28.8l-2.6 10.7h15.7z"/></svg>