<svg version="1.1" id="Layer_1" xmlns="http://www.w3.org/2000/svg" x="0" y="0" viewBox="0 0 200.4 66.5" xml:space="preserve"><style>.st1{fill:#002a3a}</style><path d="M29 10.9c0 2.1-1.8 3.9-3.9 3.9s-3.9-1.8-3.9-3.9S23 7 25.1 7 29 8.8 29 10.9zM25.1 18c-2.3 0-4.1 1.8-4.1 4.1s1.8 4.1 4.1 4.1 4.1-1.8 4.1-4.1c0-2.4-1.8-4.1-4.1-4.1zm0 10.9c-2.3 0-4.2 1.9-4.2 4.2 0 2.3 1.9 4.2 4.2 4.2 2.3 0 4.2-1.9 4.2-4.2.1-2.2-1.9-4.2-4.2-4.2zm0 11.2c-2.3 0-4.1 1.8-4.1 4.1s1.8 4.1 4.1 4.1 4.1-1.8 4.1-4.1c0-2.2-1.8-4.1-4.1-4.1zm0 11.3c-2.1 0-3.9 1.8-3.9 3.9 0 2.1 1.8 3.9 3.9 3.9 2.1 0 3.9-1.8 3.9-3.9 0-2.1-1.8-3.9-3.9-3.9zm10.8-34c-2.5 0-4.6 2.1-4.6 4.6 0 2.5 2.1 4.6 4.6 4.6 2.5 0 4.6-2.1 4.6-4.6 0-2.5-2.1-4.6-4.6-4.6zm0 11c-2.7 0-4.8 2.1-4.8 4.8 0 2.7 2.1 4.8 4.8 4.8 2.7 0 4.8-2.1 4.8-4.8 0-2.7-2.1-4.8-4.8-4.8zm0 11.1c-2.5 0-4.6 2.1-4.6 4.6 0 2.5 2.1 4.6 4.6 4.6 2.5 0 4.6-2.1 4.6-4.6 0-2.4-2.1-4.6-4.6-4.6zm11.2-11.6c-2.8 0-5.3 2.3-5.3 5.3 0 2.8 2.3 5.3 5.3 5.3s5.3-2.3 5.3-5.3c-.2-3-2.5-5.3-5.3-5.3zm-32.9-9.4c-1.9 0-3.5 1.6-3.5 3.5s1.6 3.5 3.5 3.5 3.5-1.6 3.5-3.5-1.6-3.5-3.5-3.5zm0 11c-2.1 0-3.7 1.6-3.7 3.7s1.6 3.7 3.7 3.7 3.7-1.6 3.7-3.7-1.6-3.7-3.7-3.7zm0 11.1c-1.9 0-3.5 1.6-3.5 3.5s1.6 3.5 3.5 3.5 3.5-1.6 3.5-3.5-1.6-3.5-3.5-3.5zM3.2 30C1.4 30 0 31.4 0 33.2c0 1.8 1.4 3.2 3.2 3.2s3.2-1.4 3.2-3.2C6.4 31.4 5 30 3.2 30z" fill="#00b0b9" id="blue"/><g id="wordmark"><path class="st1" d="M92.3 26.3c-.4 0-.7.4-.7.7v27.8c0 .4.4.7.7.7h3.4c.4 0 .7-.4.7-.7V27c0-.4-.4-.7-.7-.7h-3.4zm1.8-11.7c-1.8 0-3.2 1.4-3.2 3.2s1.4 3.2 3.2 3.2c1.8 0 3.2-1.4 3.2-3.2s-1.4-3.2-3.2-3.2zm69.5 11.7c-.4 0-.7.4-.7.7v27.8c0 .4.4.7.7.7h3.4c.4 0 .7-.4.7-.7V27c0-.4-.4-.7-.7-.7h-3.4zm1.6-11.7c-1.8 0-3.2 1.4-3.2 3.2s1.4 3.2 3.2 3.2 3.2-1.4 3.2-3.2-1.4-3.2-3.2-3.2zm33.6 38.2c.2-.2.2-.4.2-.5v-.2s0-.2-.2-.2c0 0-.2-.2-.4-.2h-1.3v2.5h.4v-.9h.5l.7.9h.4l-.9-1.1c.4.1.6-.1.6-.3zm-1.2.2v-.9h.7c.2 0 .4 0 .5.2.2 0 .2.2.2.4s0 .4-.2.4-.4.2-.5.2h-.7V53z"/><path class="st1" d="M198.1 50.7c-1.2 0-2.3 1.1-2.3 2.3s1.1 2.3 2.3 2.3c1.2 0 2.3-1.1 2.3-2.3s-1.1-2.3-2.3-2.3zm0 4.4c-1.2 0-2.1-.9-2.1-2.1 0-1.2.9-2.1 2.1-2.1 1.2 0 2.1.9 2.1 2.1 0 1.2-1 2.1-2.1 2.1zm-78.2-24.2c.4 0 .7-.4.7-.7v-3.4c0-.4-.4-.7-.7-.7h-7.1V15.5c0-.4-.4-.7-.7-.7h-3.4c-.4 0-.7.4-.7.7v10.6h-3.5c-.4 0-.7.4-.7.7v3.4c0 .4.4.7.7.7h3.5V47c0 5 3.4 8.1 8.1 8.1h3.5c.4 0 .7-.4.7-.7V51c0-.4-.4-.7-.7-.7h-3c-2.3 0-3.9-1.6-3.9-4.1V30.7h7.1l.1.2zm70.4 0c.4 0 .7-.4.7-.7v-3.4c0-.4-.4-.7-.7-.7h-7.1V15.5c0-.4-.4-.7-.7-.7h-3.4c-.4 0-.7.4-.7.7v10.6h-3.5c-.4 0-.7.4-.7.7v3.4c0 .4.4.7.7.7h3.5V47c0 5 3.4 8.1 8.1 8.1h3.5c.4 0 .7-.4.7-.7V51c0-.4-.4-.7-.7-.7h-3c-2.3 0-3.9-1.6-3.9-4.1V30.7h7.3l-.1.2zm-119 0v23.7c0 .4.4.7.7.7h3.4c.4 0 .7-.4.7-.7V30.9h7.8c.4 0 .7-.4.7-.7v-3.4c0-.4-.4-.7-.7-.7h-7.8v-6.2c0-2.5 1.8-4.2 3.9-4.2h3.9c.4 0 .7-.4.7-.7v-3.4c0-.4-.4-.7-.7-.7h-3.7c-5 0-8.8 4.1-8.8 8.8v6.4h-3.5c-.4 0-.7.4-.7.7v3.4c0 .4.4.7.7.7h3.4zm81-1.3c-2.7-2.8-6.4-4.4-10.3-4.4-3.7 0-7.4 1.6-9.7 3.9V11.4c0-.4-.4-.7-.7-.7h-3.4c-.4 0-.7.4-.7.7v29.2c0 10.8 7.3 15.6 14.3 15.6 7.1 0 14.3-4.8 14.3-15.6.3-4.3-1.1-8.1-3.8-11zM142 51.7c-7.1 0-9.7-5.7-9.7-11 0-6.5 3.9-10.8 9.7-10.8 5.8 0 9.7 4.4 9.7 10.8-.1 5.4-2.6 11-9.7 11z"/></g></svg>