<svg version="1.1" id="Layer_1" xmlns="http://www.w3.org/2000/svg" x="0" y="0" viewBox="0 0 200.4 66.5" xml:space="preserve"><style>.st0{fill:#fff}</style><path class="st0" d="M29.2 10.9c0 2.1-1.8 3.9-3.9 3.9s-3.9-1.8-3.9-3.9S23.2 7 25.3 7s3.9 1.8 3.9 3.9zM25.3 18c-2.3 0-4.1 1.8-4.1 4.1s1.8 4.1 4.1 4.1 4.1-1.8 4.1-4.1c0-2.4-1.8-4.1-4.1-4.1zm0 10.9c-2.3 0-4.2 1.9-4.2 4.2 0 2.3 1.9 4.2 4.2 4.2 2.3 0 4.2-1.9 4.2-4.2.1-2.3-1.9-4.2-4.2-4.2zm0 11.1c-2.3 0-4.1 1.8-4.1 4.1s1.8 4.1 4.1 4.1 4.1-1.8 4.1-4.1c0-2.2-1.8-4.1-4.1-4.1zm0 11.3c-2.1 0-3.9 1.8-3.9 3.9 0 2.1 1.8 3.9 3.9 3.9 2.1 0 3.9-1.8 3.9-3.9 0-2.1-1.7-3.9-3.9-3.9zm10.8-33.8c-2.5 0-4.6 2.1-4.6 4.6 0 2.5 2.1 4.6 4.6 4.6 2.5 0 4.6-2.1 4.6-4.6 0-2.5-2.1-4.6-4.6-4.6zm0 10.9c-2.6 0-4.8 2.1-4.8 4.8 0 2.6 2.1 4.8 4.8 4.8 2.6 0 4.8-2.1 4.8-4.8 0-2.7-2.2-4.8-4.8-4.8zm0 11.1c-2.5 0-4.6 2.1-4.6 4.6 0 2.5 2.1 4.6 4.6 4.6 2.5 0 4.6-2.1 4.6-4.6 0-2.5-2.1-4.6-4.6-4.6zm11.1-11.7c-2.8 0-5.3 2.3-5.3 5.3 0 2.8 2.3 5.3 5.3 5.3s5.3-2.3 5.3-5.3c-.2-3-2.5-5.3-5.3-5.3zm-32.8-9.3c-1.9 0-3.5 1.6-3.5 3.5s1.6 3.5 3.5 3.5 3.5-1.6 3.5-3.5-1.5-3.5-3.5-3.5zm0 10.9c-2.1 0-3.7 1.6-3.7 3.7s1.6 3.7 3.7 3.7 3.7-1.6 3.7-3.7-1.6-3.7-3.7-3.7zm0 11.1c-1.9 0-3.5 1.6-3.5 3.5s1.6 3.5 3.5 3.5 3.5-1.6 3.5-3.5-1.5-3.5-3.5-3.5zM3.5 30C1.7 30 .3 31.4.3 33.2c0 1.8 1.4 3.2 3.2 3.2s3.2-1.4 3.2-3.2c0-1.8-1.4-3.2-3.2-3.2z" id="blue"/><g id="wordmark"><path class="st0" d="M92.3 26.3c-.4 0-.7.4-.7.7v27.7c0 .4.4.7.7.7h3.3c.4 0 .7-.4.7-.7V27c0-.4-.4-.7-.7-.7h-3.3zm1.8-11.7c-1.8 0-3.2 1.4-3.2 3.2s1.4 3.2 3.2 3.2c1.8 0 3.2-1.4 3.2-3.2s-1.5-3.2-3.2-3.2zm69.2 11.7c-.4 0-.7.4-.7.7v27.7c0 .4.4.7.7.7h3.3c.4 0 .7-.4.7-.7V27c0-.4-.4-.7-.7-.7h-3.3zm1.6-11.7c-1.8 0-3.2 1.4-3.2 3.2s1.4 3.2 3.2 3.2c1.8 0 3.2-1.4 3.2-3.2s-1.4-3.2-3.2-3.2zm33.5 38.1c.2-.2.2-.4.2-.5V52s0-.2-.2-.2c0 0-.2-.2-.4-.2h-1.3v2.5h.4v-.9h.5l.7.9h.4l-.9-1.1c.4.1.6-.1.6-.3zm-1.2.2V52h.7c.2 0 .4 0 .5.2.2 0 .2.2.2.4s0 .4-.2.4-.4.2-.5.2h-.7v-.3z"/><path class="st0" d="M197.7 50.6c-1.2 0-2.3 1.1-2.3 2.3 0 1.2 1.1 2.3 2.3 2.3 1.2 0 2.3-1.1 2.3-2.3 0-1.3-1-2.3-2.3-2.3zm0 4.4c-1.2 0-2.1-.9-2.1-2.1 0-1.2.9-2.1 2.1-2.1s2.1.9 2.1 2.1c0 1.2-1 2.1-2.1 2.1zm-77.9-24.2c.4 0 .7-.4.7-.7v-3.3c0-.4-.4-.7-.7-.7h-7.1V15.5c0-.4-.4-.7-.7-.7h-3.3c-.4 0-.7.4-.7.7v10.6h-3.5c-.4 0-.7.4-.7.7v3.3c0 .4.4.7.7.7h3.5v16c0 4.9 3.3 8.1 8.1 8.1h3.5c.4 0 .7-.4.7-.7v-3.3c0-.4-.4-.7-.7-.7h-3c-2.3 0-3.9-1.6-3.9-4.1V30.7h7.1v.1zm70.2 0c.4 0 .7-.4.7-.7v-3.3c0-.4-.4-.7-.7-.7h-7.1V15.5c0-.4-.4-.7-.7-.7h-3.3c-.4 0-.7.4-.7.7v10.6h-3.5c-.4 0-.7.4-.7.7v3.3c0 .4.4.7.7.7h3.5v16c0 4.9 3.3 8.1 8.1 8.1h3.5c.4 0 .7-.4.7-.7v-3.3c0-.4-.4-.7-.7-.7h-3.2c-2.3 0-3.9-1.6-3.9-4.1V30.7h7.2l.1.1zm-118.7 0v23.6c0 .4.4.7.7.7h3.3c.4 0 .7-.4.7-.7V30.8h7.8c.4 0 .7-.4.7-.7v-3.3c0-.4-.4-.7-.7-.7H76v-6.2c0-2.5 1.8-4.2 3.9-4.2h3.9c.4 0 .7-.4.7-.7v-3.3c0-.4-.4-.7-.7-.7h-3.7c-4.9 0-8.8 4.1-8.8 8.8v6.3h-3.5c-.4 0-.7.4-.7.7v3.3c0 .4.4.7.7.7h3.5zm80.8-1.2c-2.6-2.8-6.3-4.4-10.2-4.4-3.7 0-7.4 1.6-9.7 3.9V11.5c0-.4-.4-.7-.7-.7h-3.3c-.4 0-.7.4-.7.7v29.1c0 10.8 7.2 15.5 14.3 15.5 7 0 14.3-4.8 14.3-15.5 0-4.3-1.4-8.2-4-11zm-10.3 22c-7.1 0-9.7-5.6-9.7-10.9 0-6.5 3.9-10.8 9.7-10.8 5.8 0 9.7 4.4 9.7 10.8-.1 5.3-2.6 10.9-9.7 10.9z"/></g></svg>