<svg version="1.1" id="Layer_1" xmlns="http://www.w3.org/2000/svg" x="0" y="0" viewBox="0 0 200.4 66.5" xml:space="preserve"><style>.st0{fill:#4885ed}.st1{fill:#db3236}</style><path id="g_1_" class="st0" d="M49.5 23.2H26.1v6.9h16.6C41.9 39.8 33.8 44 26.1 44c-9.8 0-18.3-7.7-18.3-18.5C7.9 15 16 7 26.2 7c7.9 0 12.5 5 12.5 5l4.9-5S37.4.1 26 .1C11.4 0 .3 12.2.3 25.4c0 12.9 10.5 25.5 26 25.5 13.6 0 23.6-9.3 23.6-23.1 0-2.9-.4-4.6-.4-4.6z"/><path id="o_1_" class="st1" d="M68.6 18.2c-9.6 0-16.5 7.5-16.5 16.2 0 8.9 6.7 16.5 16.6 16.5 9 0 16.3-6.9 16.3-16.3 0-10.9-8.5-16.4-16.4-16.4zm.1 6.4c4.7 0 9.2 3.8 9.2 9.9 0 6-4.4 9.9-9.2 9.9-5.2 0-9.3-4.2-9.3-10-.1-5.6 4-9.8 9.3-9.8z"/><path id="o" d="M104.4 18.2c-9.6 0-16.5 7.5-16.5 16.2 0 8.9 6.7 16.5 16.6 16.5 9 0 16.3-6.9 16.3-16.3 0-10.9-8.5-16.4-16.4-16.4zm.1 6.4c4.7 0 9.2 3.8 9.2 9.9 0 6-4.4 9.9-9.2 9.9-5.2 0-9.3-4.2-9.3-10-.1-5.6 4-9.8 9.3-9.8z" fill="#f4c20d"/><path id="g" class="st0" d="M139.5 18.2c-8.8 0-15.7 7.7-15.7 16.4 0 9.8 8 16.4 15.6 16.4 4.7 0 7.1-1.9 9-4v3.2c0 5.6-3.4 9-8.6 9-5 0-7.5-3.7-8.4-5.8L125 56c2.2 4.7 6.7 9.6 14.7 9.6 8.7 0 15.4-5.5 15.4-17.1V19.2h-6.9V22c-2-2.3-4.9-3.8-8.7-3.8zm.6 6.4c4.3 0 8.7 3.7 8.7 10 0 6.4-4.4 9.9-8.8 9.9-4.7 0-9.1-3.8-9.1-9.9.1-6.3 4.6-10 9.2-10z"/><path id="e" class="st1" d="M185.7 18.1c-8.3 0-15.3 6.6-15.3 16.3 0 10.3 7.8 16.4 16.1 16.4 6.9 0 11.2-3.8 13.7-7.2l-5.7-3.8c-1.5 2.3-3.9 4.5-8 4.5-4.6 0-6.7-2.5-8-5l21.9-9.1-1.1-2.7c-2.2-5-7.1-9.4-13.6-9.4zm.2 6.3c3 0 5.1 1.6 6.1 3.5L177.3 34c-.6-4.7 3.9-9.6 8.6-9.6z"/><path id="l" d="M159.9 49.9h7.2V1.7h-7.2v48.2z" fill="#3cba54"/></svg>