<svg xmlns="http://www.w3.org/2000/svg" viewBox="0 0 200.4 66.5"><path d="M0 14.7h7v15.5h14.7V14.7h7v38.1h-7V36.9H7v15.9H0V14.7zm50.9 25.7c0 3.2-2.6 5.8-5.8 5.8-3.2 0-5.8-2.6-5.8-5.8V24h-6.6v16.4c0 6.8 5.6 12.4 12.4 12.4 6.8 0 12.4-5.6 12.4-12.4V24h-6.6v16.4M76 24.1c-3.3 0-5.6 1-7.8 3.1V14.7h-6.6V38c0 8.7 6.3 14.7 13.4 14.7 7.9 0 14.8-6.1 14.8-14.3 0-8-6.4-14.3-13.8-14.3zm.2 22.5c-4.5 0-8-3.8-8-8.2 0-4.4 3.4-8.2 8-8.2 3.8 0 7.3 3.8 7.3 8.2-.1 4.5-3.5 8.2-7.3 8.2zM101 25.8c0-3.3 2.2-4.4 4.7-4.4 2 0 4.6 1.5 6.3 3.3l4.3-5.1c-2.2-2.9-6.6-4.9-10.2-4.9-7.2 0-12.4 4.2-12.4 11.1 0 12.9 15.9 8.8 15.9 16 0 2.2-2.2 4.2-4.7 4.2-3.9 0-5.2-1.9-7-3.9l-4.8 5c3.1 3.8 6.9 5.7 11.5 5.7 6.8 0 12.4-4.2 12.4-10.9-.2-14.3-16-9.9-16-16.1m33.3-2c-7.1 0-13.4 6-13.4 14.7v23.4h6.6V49.3c2.2 2.2 4.5 3.1 7.8 3.1 7.4 0 13.8-6.2 13.8-14.3 0-8.2-6.9-14.3-14.8-14.3zm1.2 22.5c-4.5 0-8-3.8-8-8.2 0-4.4 3.4-8.2 8-8.2 3.8 0 7.3 3.8 7.3 8.2 0 4.4-3.5 8.2-7.3 8.2zm62.6.3c-3.9 0-5-1.7-5-4.3V30.8h6.1V25H193v-7.7l-6.7 3v23.4c0 6 4.1 9 9.8 9 .8 0 2-.1 2.7-.2l1.6-6c-.7.1-1.6.1-2.3.1" fill="#45535e"/><path d="M180.5 31.2c-1.3-2.2-3.1-4-5.3-5.3-1.7-1-3.4-1.6-5.4-1.9v-7c2-.8 3.2-2.7 3.2-4.8 0-2.9-2.3-5.3-5.3-5.3-2.9 0-5.3 2.4-5.3 5.3 0 2.1 1.1 4 3.1 4.8v7c-1.6.2-3.2.7-4.7 1.5-3-2.3-13-9.8-18.8-14.3.1-.5.2-1 .2-1.5 0-3.2-2.6-5.9-5.9-5.9s-5.9 2.6-5.9 5.9c0 3.2 2.6 5.9 5.9 5.9 1.1 0 2.1-.3 3-.9l1.2.9 16.8 12.1c-.9.8-1.7 1.7-2.4 2.8-1.3 2.1-2.2 4.5-2.2 7v.5c0 1.8.3 3.5.9 5.1.5 1.4 1.3 2.7 2.2 3.8l-5.6 5.6c-1.7-.6-3.5-.2-4.8 1-.9.8-1.3 2-1.3 3.2 0 1.2.5 2.3 1.3 3.2.8.9 2 1.3 3.2 1.3 1.2 0 2.4-.5 3.2-1.3.9-.8 1.3-2 1.3-3.2 0-.5-.1-.9-.2-1.4l5.8-5.8c.8.5 1.6 1 2.6 1.4 1.8.8 3.8 1.3 6 1.3h.4c2.4 0 4.7-.6 6.9-1.7 2.3-1.2 4-2.9 5.4-5.1 1.3-2.2 2.1-4.5 2.1-7.2v-.1c.3-2.4-.3-4.8-1.6-6.9zm-7 12.1c-1.6 1.7-3.4 2.8-5.4 2.8h-.3c-1.2 0-2.3-.3-3.4-.9-1.3-.6-2.2-1.6-3-2.7-.8-1.1-1.2-2.4-1.2-3.7v-.4c0-1.3.2-2.5.9-3.7.7-1.3 1.6-2.3 2.8-3 1.2-.8 2.5-1.2 3.9-1.2h.1c1.3 0 2.5.3 3.6.8 1.2.6 2.1 1.5 2.9 2.6.7 1.1 1.1 2.3 1.3 3.6v.8c-.2 1.8-.9 3.5-2.2 5z" fill="#f8761f"/></svg>