<svg version="1.1" id="Layer_1" xmlns="http://www.w3.org/2000/svg" x="0" y="0" viewBox="0 0 200.4 66.5" xml:space="preserve"><style>.st0{fill:#e2231b}</style><path id="n" class="st0" d="M80.4 21.5c-3.5 0-7.4 1.6-9.8 4.8V22h-8.3v30.1h8.3V35c0-3.1 2.4-6.4 6.8-6.4 3.4 0 7 2.4 7 6.4v17.1h8.3V33.5c-.1-6.9-5-12-12.3-12z"/><path id="v" class="st0" d="M151.3 22.1l-7.4 20.4-7.5-20.4H127l12.3 30h9.1l12.4-30z"/><path id="e" class="st0" d="M55.8 26.5c-2.8-3.2-6.9-4.9-11.9-4.9-9.1 0-15.9 6.7-15.9 15.6 0 9.1 6.9 15.6 16.8 15.6 5.6 0 11.3-2.6 14-5.7l-5.2-4c-3.5 2.6-5.5 3.2-8.6 3.2-2.9 0-5.1-.9-6.7-2.4l21.1-8.8c-.5-3.5-1.7-6.4-3.6-8.6zM36 38.3c-.4-3.1.4-5.5 1.7-7.2 1.4-1.9 3.6-3 6.4-3 3 0 5.2 1.7 6.4 4.2l-14.5 6z"/><path id="l" class="st0" d="M8.4 13.1H0v39h27.2v-7.6H8.4z"/><path id="o_1_" class="st0" d="M175.7 21.5c-9.1 0-16.2 6.8-16.2 15.6s7.1 15.5 16.1 15.5c9.1 0 16.2-6.8 16.2-15.5 0-8.8-7.1-15.6-16.1-15.6zm0 24.1c-4.5 0-8.1-3.7-8.1-8.5 0-5 3.3-8.5 8-8.5 4.5 0 8.1 3.7 8.1 8.5 0 4.9-3.4 8.5-8 8.5z"/><path id="o" class="st0" d="M112.1 21.5c-9.1 0-16.2 6.8-16.2 15.6S103 52.6 112 52.6c9.1 0 16.2-6.8 16.2-15.5 0-8.8-7.1-15.6-16.1-15.6zm0 24.1c-4.5 0-8.1-3.7-8.1-8.5 0-5 3.3-8.5 8-8.5 4.5 0 8.1 3.7 8.1 8.5 0 4.9-3.4 8.5-8 8.5z"/><path id="t" class="st0" d="M191.6 48.6h1.4v3.5h.8v-3.5h1.3v-.8h-3.5z"/><path id="m" class="st0" d="M199.5 47.8l-1.3 2.1-1.3-2.1h-.9v4.3h.8v-3l1.4 2h.1l1.3-2v3h.8v-4.3z"/></svg>