<svg version="1.1" id="Layer_1" xmlns="http://www.w3.org/2000/svg" x="0" y="0" viewBox="0 0 200.4 66.5" xml:space="preserve"><style>.st0{fill:#fff}</style><path class="st0" d="M149.5 22.9c-2.5 0-4.9 1-6.7 2.9v-9.6c0-.3-.3-.6-.6-.6h-3.4c-.3 0-.6.3-.6.6v26.1c0 .3.3.6.6.6h3.4c.3 0 .6-.3.6-.6v-1.8c1.7 1.8 4.1 2.9 6.7 2.9 5.3 0 9.6-4.6 9.6-10.2s-4.3-10.3-9.6-10.3zm-.8 16.3c-3.2 0-5.8-2.7-5.8-6V33c.1-3.3 2.6-6 5.8-6 3.2 0 5.8 2.7 5.8 6.1s-2.5 6.1-5.8 6.1zm22.9-16.3c-5.7 0-10.3 4.6-10.3 10.2s4.6 10.2 10.3 10.2c5.7 0 10.3-4.6 10.3-10.2s-4.6-10.2-10.3-10.2zm-.1 16.3c-3.2 0-5.8-2.7-5.8-6.1 0-3.4 2.6-6.1 5.8-6.1 3.2 0 5.8 2.7 5.8 6.1.1 3.4-2.5 6.1-5.8 6.1zm-63.2-15.7h-3.4c-.3 0-.6.3-.6.6v1.8c-1.7-1.8-4.1-2.9-6.7-2.9-5.3 0-9.6 4.6-9.6 10.2s4.3 10.2 9.6 10.2c2.5 0 4.9-1 6.7-2.9v1.8c0 .3.3.6.6.6h3.4c.3 0 .6-.3.6-.6V24c0-.3-.3-.5-.6-.5zm-9.8 15.7c-3.2 0-5.8-2.7-5.8-6.1 0-3.4 2.6-6.1 5.8-6.1s5.8 2.7 5.8 6v.2c0 3.3-2.6 6-5.8 6zm26.7-16.3c-2.5 0-4.9 1-6.7 2.9V24c0-.3-.3-.6-.6-.6h-3.4c-.3 0-.6.3-.6.6v26.1c0 .3.3.6.6.6h3.4c.3 0 .6-.3.6-.6v-9.6c1.7 1.8 4.1 2.9 6.7 2.9 5.3 0 9.6-4.6 9.6-10.2s-4.3-10.3-9.6-10.3zm-.8 16.3c-3.2 0-5.8-2.7-5.8-6V33c.1-3.3 2.6-6 5.8-6 3.2 0 5.8 2.7 5.8 6.1s-2.5 6.1-5.8 6.1zM78 22.9c-2.5 0-4.8 1.5-5.9 3.8-1.2-2.4-3.7-3.8-6.4-3.8-2.1 0-4 1-5.2 2.7V24c0-.3-.3-.6-.6-.6h-3.4c-.3 0-.6.3-.6.6v18.2c0 .3.3.6.6.6h3.4c.3 0 .6-.3.6-.6V31.3c.1-2.4 1.8-4.4 3.9-4.4 2.2 0 3.9 1.8 3.9 4.1v11.1c0 .3.3.6.6.6h3.4c.3 0 .6-.3.6-.6V30.8c.3-2.2 1.9-3.9 3.8-3.9 2.2 0 3.9 1.8 3.9 4.1v11.1c0 .3.3.6.6.6h3.4c.3 0 .6-.3.6-.6V29.6c-.1-3.6-3.3-6.7-7.2-6.7zM200.2 42l-5.9-8.9 5.8-8.9c.2-.2.1-.6-.2-.7-.1-.1-.2-.1-.3-.1h-3.9c-.3 0-.6.2-.7.4l-3.4 5.7-3.4-5.7c-.2-.3-.4-.4-.7-.4h-3.9c-.3 0-.5.2-.5.5 0 .1 0 .2.1.3l5.8 8.9-6 8.9c-.2.2-.1.6.2.7.1.1.2.1.3.1h3.9c.3 0 .6-.2.7-.4l3.5-5.8 3.5 5.8c.2.3.4.4.7.4h3.9c.3 0 .5-.2.5-.5V42zM22.9 10.6C10.5 10.6.4 20.7.4 33.1s10.1 22.5 22.5 22.5 22.5-10.1 22.5-22.5-10.1-22.5-22.5-22.5zm10.6 28c-7.7 7.7-21.4 5.2-21.4 5.2s-2.5-13.7 5.2-21.4c4.3-4.3 11.4-4.1 15.8.4s4.7 11.6.4 15.8z"/><path class="st0" d="M25.4 23.8l-2.2 4.5-4.5 2.2 4.5 2.2 2.2 4.6 2.2-4.6 4.6-2.2-4.6-2.2z"/></svg>