<svg version="1.1" id="Layer_1" xmlns="http://www.w3.org/2000/svg" x="0" y="0" viewBox="0 0 200.4 66.5" xml:space="preserve"><style>.st0{fill:#4264fb}</style><path class="st0" d="M149.6 24c-2.5 0-4.9 1-6.7 2.9v-9.7c0-.3-.3-.6-.6-.6h-3.4c-.3 0-.6.3-.6.6v26.1c0 .3.3.6.6.6h3.4c.3 0 .6-.3.6-.6v-1.8c1.8 1.8 4.1 2.9 6.7 2.9 5.3 0 9.6-4.6 9.6-10.2S154.9 24 149.6 24zm-.8 16.3c-3.2 0-5.8-2.7-5.9-6v-.2c.1-3.3 2.6-6 5.9-6 3.2 0 5.9 2.7 5.9 6.1s-2.7 6.1-5.9 6.1zM171.7 24c-5.7 0-10.4 4.6-10.4 10.2s4.6 10.2 10.4 10.2S182 39.9 182 34.2 177.4 24 171.7 24zm-.1 16.3c-3.2 0-5.9-2.7-5.9-6.1 0-3.4 2.6-6.1 5.9-6.1s5.9 2.7 5.9 6.1c0 3.4-2.6 6.1-5.9 6.1zm-63.4-15.8h-3.4c-.3 0-.6.3-.6.6v1.8c-1.8-1.8-4.1-2.9-6.7-2.9-5.3 0-9.6 4.6-9.6 10.2s4.3 10.2 9.6 10.2c2.5 0 4.9-1 6.7-2.9v1.8c0 .3.3.6.6.6h3.4c.3 0 .6-.3.6-.6V25.1c0-.3-.3-.6-.6-.6zm-9.8 15.8c-3.2 0-5.9-2.7-5.9-6.1 0-3.4 2.6-6.1 5.9-6.1s5.8 2.7 5.9 6v.2c-.1 3.4-2.7 6-5.9 6zM125.2 24c-2.5 0-4.9 1-6.7 2.9v-1.8c0-.3-.3-.6-.6-.6h-3.4c-.3 0-.6.3-.6.6v26.1c0 .3.3.6.6.6h3.4c.3 0 .6-.3.6-.6v-9.7c1.8 1.8 4.1 2.9 6.7 2.9 5.3 0 9.6-4.6 9.6-10.2S130.5 24 125.2 24zm-.8 16.3c-3.2 0-5.8-2.7-5.9-6v-.2c.1-3.3 2.6-6 5.9-6 3.2 0 5.9 2.7 5.9 6.1s-2.6 6.1-5.9 6.1zM77.8 24c-2.5 0-4.8 1.5-5.9 3.8-1.2-2.4-3.7-3.8-6.4-3.8-2.1 0-4 1-5.3 2.7v-1.6c0-.3-.3-.6-.6-.6h-3.4c-.3 0-.6.3-.6.6v18.3c0 .3.3.6.6.6h3.4c.3 0 .6-.3.6-.6v-11C60.3 30 62 28 64.1 28c2.2 0 4 1.8 4 4.2v11.2c0 .3.3.6.6.6h3.4c.3 0 .6-.3.6-.6V32c.3-2.2 1.9-4 3.9-4 2.2 0 4 1.8 4 4.2v11.2c0 .3.3.6.6.6h3.4c.3 0 .6-.3.6-.6V30.8C85 27 81.8 24 77.8 24zm122.5 19.1l-5.9-9 5.8-8.9c.2-.2.1-.6-.2-.7-.1-.1-.2-.1-.3-.1h-3.9c-.3 0-.6.2-.7.4l-3.4 5.8-3.4-5.7c-.2-.3-.4-.4-.7-.4h-3.9c-.3 0-.5.2-.5.5 0 .1 0 .2.1.3l5.8 8.9-5.9 9c-.2.2-.1.6.2.7.1.1.2.1.3.1h3.9c.3 0 .6-.2.7-.4l3.5-5.8 3.5 5.8c.2.3.4.4.7.4h3.9c.3 0 .5-.2.5-.5 0-.2 0-.3-.1-.4zM22.6 11.7C10.1 11.7 0 21.8 0 34.2s10.1 22.6 22.6 22.6 22.6-10.1 22.6-22.6S35 11.7 22.6 11.7zm10.7 28.1C25.5 47.5 11.8 45 11.8 45S9.3 31.3 17 23.5c4.3-4.3 11.4-4.1 15.9.4s4.6 11.6.4 15.9z"/><path class="st0" d="M25.1 24.9l-2.2 4.5-4.5 2.2 4.5 2.2 2.2 4.6 2.2-4.6 4.6-2.2-4.6-2.2z"/></svg>