<svg xmlns="http://www.w3.org/2000/svg" viewBox="0 0 200.4 66.5"><path d="M28.1 57.8c-3 .5-6 .7-9.2 1.1L9.3 30.7v29.4c-3 .3-5.7.7-8.6 1.2V7.4h8L19.6 38V7.4h8.5v50.4zm16.6-30.6C48 27.2 53 27 56 27v8.4c-3.7 0-8.1 0-11.3.2v12.5c4.9-.3 9.9-.7 14.9-.9v8.1l-23.3 1.8V7.4h23.3v8.4H44.7v11.4zm46.1-11.3h-8.7v38.7c-2.8 0-5.7 0-8.4.1V15.9H65V7.4h25.9c-.1 0-.1 8.5-.1 8.5zm13.7 10.7H116V35h-11.5v19.1h-8.3V7.4h23.5v8.4h-15.2v10.8zm28.9 20.1c4.8.1 9.6.5 14.3.7v8.3c-7.5-.5-15-.9-22.7-1.1V7.4h8.4v39.3zm21.4 9.6c2.7.2 5.5.3 8.3.6V7.4h-8.3v48.9zm45.1-48.9L189.2 33l10.7 28.2c-3.2-.4-6.3-1-9.5-1.5l-6-15.6-6.2 14.3c-3-.5-6-.7-9-1.1L180 32.7l-9.8-25.3h9l5.5 14.1 5.9-14.1h9.3z" fill="#377dff"/></svg>