<svg xmlns="http://www.w3.org/2000/svg" viewBox="0 0 200.4 66.5"><path d="M193 17.2C190.4 2.6 146.7-2 95.1 7.1 72.7 11 52.4 16.8 37 23.4c.8-.2 1.7-.3 2.7-.3 2.7 0 6.5.7 6.5 4.9v1.3h-4.8v-1.2c0-1-.7-1.8-1.8-1.8-1.2 0-1.6.7-1.8 1.3 0 .2-.1.7 0 1 .6 2.3 7.9 3.5 8.6 7.5.1.4.3 1.5 0 3.2-.5 3.2-3.3 4.4-6.9 4.4-3.7 0-7-1.3-7-5.6v-1.5h5.2v1.9c0 1 .8 1.8 2 1.8 1.3 0 1.7-.7 1.9-1.3.1-.4.2-.9 0-1.4-1-2.5-7.9-3.7-8.7-7.6-.2-.9-.2-1.8 0-2.6.2-1.3.8-2.3 1.8-3C16 32.5 5 41.8 6.4 49.7 9 64.3 52.7 68.9 104.3 59.8c23-4 43.7-10 59.2-16.7-.8.2-1.7.3-2.6.3-3.4 0-6.5-1.2-6.8-4.8-.1-.7-.1-.9-.1-1.3v-8.2c0-.4 0-.9.1-1.3.5-3.6 3.4-4.8 6.8-4.8s6.4 1.1 6.8 4.8c.1.7 0 1.3 0 1.3v.7h-4.9v-1s0-.5-.1-.8c-.1-.5-.5-1.4-1.9-1.4s-1.8.9-1.9 1.4c-.1.3-.1.6-.1.9v8.8c0 .3 0 .5.1.8.1.6.6 1.4 2 1.4s1.9-.8 2-1.4V35h-2v-2.8h6.9v5.2c0 .4 0 .7-.1 1.3-.2 1.6-.8 2.7-1.9 3.5 17.9-8.2 28.5-17.2 27.2-25zM60.3 43l-2.5-17.6h-.1L55 42.9h-5.2l3.6-19.3h8.5l3.6 19.3-5.2.1zM86 43l-.1-17.4h-.1L82.6 43h-4.9l-3.2-17.4h-.1L74.3 43h-4.8l.5-19.3h7.9l2.3 14.7h.1l2.3-14.7h7.9L91 43h-5zm23.2-3.7c-.5 3.2-3.3 4.3-6.8 4.3-3.6 0-6.9-1.3-6.9-5.5v-1.5h5.2v1.9c0 1 .8 1.7 1.9 1.7 1.3 0 1.7-.7 1.9-1.3.1-.4.2-.9 0-1.4-.9-2.4-7.8-3.6-8.6-7.5-.2-.9-.2-1.7 0-2.5.5-3.1 3.3-4.2 6.7-4.2 2.7 0 6.5.7 6.5 4.8v1.3h-4.8v-1.2c0-1-.7-1.7-1.8-1.7-1.2 0-1.6.7-1.8 1.3-.1.2-.1.7 0 1 .6 2.3 7.8 3.5 8.6 7.4 0 .3.2 1.5-.1 3.1zm18.1-.5c-.4 3.6-3.2 4.8-6.8 4.8s-6.4-1.1-6.8-4.8c0-.2-.1-.9 0-1.2V23.7h4.9v15.1c.1.5.5 1.4 1.9 1.4 1.3 0 1.8-.9 1.9-1.4 0-.2.1-.5 0-.8V23.7h4.9v13.8c.1.4 0 1.1 0 1.3zm21.7 4h-6.9l-4.8-15.7h-.1l.3 15.7h-4.8V23.7h7.1l4.4 15.1h.1l-.3-15.1h4.8l.2 19.1z" fill="#97a4af"/></svg>