<svg xmlns="http://www.w3.org/2000/svg" viewBox="0 0 200.4 66.5"><path d="M200.3 16.1C197.6.5 150.7-4.4 95.7 5.2 71.7 9.4 50 15.6 33.5 22.6c.9-.2 1.8-.3 2.9-.3 2.9 0 7 .7 7 5.2V29h-5.1v-1.3c0-1.1-.7-1.9-1.9-1.9-1.3 0-1.7.7-1.9 1.4 0 .2-.1.7 0 1.1.6 2.4 8.4 3.7 9.3 8 .1.4.3 1.6 0 3.4-.5 3.4-3.6 4.7-7.3 4.7-3.9 0-7.5-1.4-7.5-6v-1.6h5.5v2c0 1.1.8 1.9 2.1 1.9 1.4 0 1.8-.7 2-1.4.1-.4.2-1 0-1.5-1.1-2.7-8.4-3.9-9.3-8.1-.2-1-.2-1.9 0-2.8.2-1.4.9-2.5 1.9-3.2C11.2 32.5-.6 42.3.9 50.8c2.7 15.6 49.5 20.5 104.6 10.9 24.6-4.3 46.6-10.7 63.3-17.9-.9.2-1.8.3-2.8.3-3.7 0-6.9-1.3-7.3-5.1-.1-.7-.1-1-.1-1.4v-8.7c0-.4 0-1 .1-1.4.5-3.9 3.6-5.1 7.2-5.1 3.7 0 6.9 1.2 7.2 5.1.1.7 0 1.4 0 1.4v.7h-5.2v-1.2s0-.5-.1-.8c-.1-.5-.5-1.5-2.1-1.5-1.5 0-1.9 1-2.1 1.5-.1.3-.1.6-.1 1V38c0 .3 0 .5.1.8.1.6.6 1.5 2.1 1.5s2-.9 2.1-1.5V35H166v-3h7.3v5.5c0 .4 0 .7-.1 1.4-.2 1.7-.9 2.9-2 3.7 19.2-8.6 30.5-18.2 29.1-26.5zM58.5 43.6l-2.8-18.7h-.1l-2.8 18.7h-5.6L51 23h9.2L64 43.6h-5.5zm27.4 0L85.8 25h-.1l-3.5 18.6H77L73.5 25h-.1l-.1 18.6h-5.2l.5-20.6H77l2.5 15.8h.1L82.2 23h8.4l.4 20.6h-5.1zm24.9-3.9c-.5 3.4-3.5 4.7-7.2 4.7-3.8 0-7.4-1.4-7.4-5.9v-1.6h5.5v2c0 1.1.8 1.9 2.1 1.9 1.4 0 1.8-.7 2-1.4.1-.4.2-1 0-1.5-1.1-2.6-8.3-3.9-9.2-8-.2-1-.2-1.8 0-2.8.5-3.3 3.5-4.5 7.1-4.5 2.9 0 6.9.7 6.9 5.1V29h-5.1v-1.3c0-1.1-.7-1.8-1.9-1.8-1.3 0-1.7.7-1.9 1.4-.1.2-.1.7 0 1.1.6 2.4 8.3 3.7 9.2 7.9-.1.5.1 1.6-.1 3.4zm19.3-.5c-.4 3.9-3.4 5.1-7.2 5.1-3.8 0-6.8-1.3-7.2-5.1 0-.2-.1-1 0-1.4V23h5.2v16.1c.1.5.5 1.5 2 1.5 1.4 0 1.9-1 2-1.5 0-.2.1-.5 0-.8V23h5.2v14.8c.1.4.1 1.2 0 1.4zm23.2 4.2H146l-5.1-16.8h-.1l.3 16.8H136V23h7.7l4.7 16.2h.1l-.3-16.2h5.1v20.4z" fill="#034ea2"/></svg>