<svg xmlns="http://www.w3.org/2000/svg" viewBox="0 0 200.4 66.5"><path d="M43 15.5c0-.3-.3-.4-.5-.5-.2 0-4.5-.3-4.5-.3l-3.3-3.3c-.3-.3-1-.2-1.2-.2 0 0-.7.2-1.7.5-1-2.9-2.7-5.5-5.8-5.5h-.3c-.9-1.2-2-1.7-2.9-1.7-7.2 0-10.6 9-11.7 13.6-2.8.9-4.8 1.5-5 1.5-1.5.5-1.6.5-1.8 2-.2 1.3-4.3 33-4.3 33l31.9 6 17.3-3.7c-.1-.1-6.1-41.1-6.2-41.4zm-12.9-3.2c-.8.3-1.7.5-2.7.8v-.6c0-1.8-.3-3.2-.7-4.4 1.6.4 2.7 2.2 3.4 4.2zm-5.3-3.7c.4 1.1.7 2.7.7 4.8v.3c-1.7.5-3.7 1.1-5.6 1.7 1.1-4 3.1-6.1 4.9-6.8zm-2.2-2c.3 0 .6.1.9.3-2.3 1.1-4.8 3.8-5.8 9.3-1.5.5-3 .9-4.4 1.4 1.3-4.2 4.2-11 9.3-11z" fill="#95bf47"/><path d="M42.6 15.1c-.2 0-4.5-.3-4.5-.3l-3.3-3.3c-.1-.1-.3-.2-.5-.2l-2.4 49.3 17.3-3.7s-6.1-41-6.1-41.3c-.1-.4-.3-.5-.5-.5z" fill="#5e8e3e"/><path d="M26 24.6l-2.1 6.3s-1.9-1-4.2-1c-3.4 0-3.5 2.1-3.5 2.6 0 2.9 7.5 4 7.5 10.8 0 5.3-3.4 8.8-7.9 8.8-5.5 0-8.3-3.4-8.3-3.4L9 43.9s2.9 2.5 5.3 2.5c1.6 0 2.2-1.3 2.2-2.2 0-3.8-6.2-4-6.2-10.2 0-5.2 3.8-10.3 11.3-10.3 3 .1 4.4.9 4.4.9z" fill="#fff"/><path d="M69.3 36.5c-1.7-.9-2.6-1.7-2.6-2.8 0-1.4 1.2-2.3 3.2-2.3 2.2 0 4.2.9 4.2.9l1.6-4.8s-1.5-1.1-5.7-1.1c-5.9 0-10.1 3.4-10.1 8.2 0 2.7 1.9 4.8 4.5 6.3 2.1 1.2 2.8 2 2.8 3.3 0 1.3-1 2.3-3 2.3-2.9 0-5.6-1.5-5.6-1.5L57 49.7s2.5 1.7 6.7 1.7c6.1 0 10.5-3 10.5-8.4 0-2.9-2.2-5-4.9-6.5zm24.3-10.1c-3 0-5.4 1.4-7.2 3.6h-.1l2.6-13.6h-6.8L75.5 51h6.8l2.3-11.9c.9-4.5 3.2-7.3 5.4-7.3 1.5 0 2.1 1 2.1 2.5 0 .9-.1 2.1-.3 3l-2.6 13.6H96l2.7-14c.3-1.5.5-3.3.5-4.4-.1-3.8-2.1-6.1-5.6-6.1zm20.9 0c-8.2 0-13.6 7.4-13.6 15.6 0 5.3 3.3 9.5 9.4 9.5 8 0 13.4-7.2 13.4-15.6 0-4.9-2.8-9.5-9.2-9.5zm-3.3 19.8c-2.3 0-3.3-2-3.3-4.4 0-3.9 2-10.3 5.7-10.3 2.4 0 3.2 2.1 3.2 4.1 0 4.2-2 10.6-5.6 10.6zm29.9-19.8c-4.6 0-7.2 4-7.2 4h-.1l.4-3.6h-6c-.3 2.5-.8 6.2-1.4 9l-4.7 24.9h6.8l1.9-10.1h.1s1.4.9 4 .9c8 0 13.2-8.2 13.2-16.4 0-4.7-2-8.7-7-8.7zm-6.5 19.9c-1.8 0-2.8-1-2.8-1l1.1-6.4c.8-4.2 3-7.1 5.4-7.1 2.1 0 2.7 1.9 2.7 3.7 0 4.6-2.6 10.8-6.4 10.8zm23.2-29.7c-2.2 0-3.9 1.7-3.9 3.9 0 2 1.3 3.4 3.2 3.4h.1c2.1 0 3.9-1.4 4-3.9 0-2-1.3-3.4-3.4-3.4zm-9.5 34.3h6.8l4.6-24.1h-6.8m24.1.1h-4.7l.2-1.1c.4-2.3 1.8-4.4 4-4.4 1.2 0 2.2.3 2.2.3l1.3-5.3s-1.2-.6-3.7-.6c-2.4 0-4.8.7-6.7 2.3-2.3 2-3.4 4.8-3.9 7.7l-.2 1.1h-3.2l-1 5.1h3.2l-3.6 19h6.8l3.6-19h4.7l1-5.1zm16.3 0s-4.3 10.7-6.2 16.5h-.1c-.1-1.9-1.7-16.5-1.7-16.5h-7.2l4.1 22.1c.1.5 0 .8-.1 1.1-.8 1.5-2.1 3-3.7 4.1-1.3.9-2.7 1.5-3.8 1.9l1.9 5.8c1.4-.3 4.2-1.4 6.7-3.7 3.1-2.9 6-7.4 8.9-13.5l8.3-17.8h-7.1z"/></svg>