<svg version="1.1" id="Layer_1" xmlns="http://www.w3.org/2000/svg" x="0" y="0" viewBox="0 0 200.4 66.5" xml:space="preserve"><style>.st0{fill:#97a4af}</style><g id="Page-1"><g id="slack_cmyk"><g id="Group-4" transform="translate(14 4)"><path id="Fill-1" class="st0" d="M22 5.8c-.8-2.6-3.6-4-6.2-3.2s-4 3.6-3.2 6.2l12.8 39.4c.9 2.4 3.5 3.8 6 3.1 2.6-.8 4.2-3.5 3.4-6.1C34.8 45.1 22 5.8 22 5.8"/><path id="Fill-3" class="st0" d="M2.2 12.3c-.8-2.6-3.6-4-6.2-3.2s-4 3.6-3.2 6.2L5.6 54.7c.9 2.4 3.5 3.8 6 3.1 2.6-.8 4.2-3.5 3.4-6.1 0-.1-12.8-39.4-12.8-39.4"/></g><path id="Fill-5" class="st0" d="M52.2 42.5c2.6-.8 4-3.6 3.2-6.2-.8-2.6-3.6-4-6.2-3.2L9.7 45.8c-2.4.9-3.8 3.5-3.1 6 .8 2.6 3.5 4.2 6.1 3.4.2 0 39.5-12.7 39.5-12.7"/><path id="Fill-6" class="st0" d="M17.9 53.6c2.6-.8 5.9-1.9 9.4-3.1-.8-2.6-1.9-5.9-3.1-9.4l-9.4 3.1 3.1 9.4"/><g id="Group-10" transform="translate(0 18)"><path id="Fill-7" class="st0" d="M37.8 29.1c3.6-1.2 6.9-2.2 9.4-3.1-.8-2.6-1.9-5.9-3.1-9.4l-9.4 3.1 3.1 9.4"/><path id="Fill-9" class="st0" d="M45.7 4.6c2.6-.8 4-3.6 3.2-6.2s-3.6-4-6.2-3.2L3.3 8C.9 8.9-.5 11.5.2 14c.8 2.7 3.5 4.3 6.1 3.4.1 0 39.4-12.8 39.4-12.8"/></g><path id="Fill-11" class="st0" d="M11.5 33.7c2.6-.8 5.9-1.9 9.4-3.1-1.2-3.6-2.2-6.9-3.1-9.4l-9.4 3.1 3.1 9.4"/><path id="Fill-12" class="st0" d="M31.3 27.3c3.6-1.2 6.9-2.2 9.4-3.1-1.2-3.6-2.2-6.9-3.1-9.4l-9.4 3.1 3.1 9.4"/><path id="Fill-13" class="st0" d="M92.1 20.2c1.7.8 1.9 1.3.5 3.9-1.4 2.7-1.7 2.8-3.5 2.1-2.2-.9-4.9-1.6-6.7-1.6-2.9 0-4.8 1-4.8 2.6 0 5.2 16.7 2.4 16.7 13.6 0 5.6-4.8 9.3-12 9.3-3.8 0-8.5-1.3-11.7-2.9-1.6-.8-1.7-1.3-.3-4 1.2-2.3 1.6-2.6 3.3-1.9 2.8 1.2 6.2 2.1 8.6 2.1 2.7 0 4.4-1.1 4.4-2.7 0-5.1-17-2.7-17-13.5 0-5.7 4.8-9.6 11.9-9.6 3.4.3 7.7 1.3 10.6 2.6"/><path id="Fill-14" class="st0" d="M105.6 7v41.6c0 .6-.7 1.3-1.6 1.3h-4.4c-1 0-1.6-.7-1.6-1.3V7c0-2.1.6-2.2 3.8-2.2 3.6-.1 3.8.2 3.8 2.2"/><path id="Fill-15" class="st0" d="M116.5 40.7c0 2.1 1.8 3.5 4.5 3.5 3.3 0 6.3-1.6 8-4.3v-2.8c-1.7-.7-3.9-1-5.8-1-4 0-6.7 2-6.7 4.6zm20.1-10.4v17.9c0 1-.7 1.6-1.6 1.6h-4.3c-1 0-1.7-.7-1.6-1.7l.1-1.9c-2.3 2.6-5.7 4-9.1 4-6.5 0-10.9-3.8-10.9-9.4 0-6 4.9-10 12.4-10 2.8 0 5.4.5 7.5 1.4v-2.1c0-3.3-2.6-5.3-7-5.3-2.1 0-4.6.8-6.6 2-1.6.9-1.9.8-3.6-1.7-1.6-2.5-1.6-3 0-4 3-2 7.2-3.2 11-3.2 8.4 0 13.7 4.6 13.7 12.4z"/><g id="Group-19" transform="translate(307)"><path id="Fill-16" class="st0" d="M-140.7 20.3c1.6.9 1.6 1.4-.1 4.1-1.6 2.5-1.9 2.7-3.7 1.8-1.3-.7-3.5-1.3-5.2-1.3-5.5 0-9.1 3.6-9.1 9.1 0 5.7 3.6 9.5 9.1 9.5 1.9 0 4.3-.7 5.8-1.6 1.6-.9 1.9-.9 3.6 1.6 1.5 2.3 1.5 2.8.1 3.8-2.4 1.7-6.3 3-9.7 3-10.1 0-16.9-6.5-16.9-16.2s6.8-16.1 17-16.1c3.2-.1 6.8.9 9.1 2.3"/><path id="Fill-18" class="st0" d="M-107.6 45.9c1.3 1.6.8 2.2-2.4 3.3-3.2 1.2-3.7 1.1-4.8-.4l-9.1-12.1-4.1 3.9v7.9c0 .6-.7 1.3-1.6 1.3h-4.4c-1 0-1.6-.7-1.6-1.3V7c0-2.1.6-2.2 3.8-2.2 3.7 0 3.8.3 3.8 2.2v23.6l12.4-11.9c1.4-1.3 2.1-1.2 4.6.4 2.7 1.7 2.9 2.2 1.6 3.5l-9.2 9 11 14.3"/></g></g></g></svg>