<svg xmlns="http://www.w3.org/2000/svg" viewBox="0 0 200.4 66.5"><path d="M176.1 34.5c0-10.8-5.3-19.4-15.3-19.4s-16.1 8.6-16.1 19.3c0 12.7 7.2 19.2 17.4 19.2 5.1 0 8.9-1.2 11.7-2.7v-8.5c-2.9 1.5-6.1 2.3-10.3 2.3-4.1 0-7.7-1.5-8.2-6.4h20.6c.1-.6.2-2.9.2-3.8zm-20.9-4c0-4.8 2.9-6.7 5.5-6.7s5.4 1.9 5.4 6.7h-10.9zm-26.8-15.4c-4.1 0-6.8 1.9-8.3 3.3l-.6-2.6h-9.2V65l10.5-2.2v-12c1.6 1.1 3.8 2.6 7.5 2.6 7.5 0 14.4-6 14.4-19.5.1-12.1-6.9-18.8-14.3-18.8zm-2.5 29.1c-2.4 0-4-.9-5-2l-.1-15.7c1.1-1.2 2.6-2 5.1-2 3.9 0 6.5 4.3 6.5 9.8 0 5.6-2.6 9.9-6.5 9.9zm-30-31.6l10.5-2.3V1.8L95.9 4zm0 3.2h10.6v37H95.9zm-11.4 3.1l-.7-3.1h-9v37h10.5v-25c2.5-3.3 6.7-2.6 8.1-2.2v-9.7c-1.5-.6-6.5-1.5-8.9 3zM63.4 6.6L53.1 8.8v33.9c0 6.2 4.7 10.8 11 10.8 3.4 0 6-.6 7.4-1.4v-8.6c-1.4.6-8 2.4-8-3.7v-15h8v-8.9h-8l-.1-9.3zm-28.5 20c0-1.7 1.4-2.2 3.6-2.2 3.2 0 7.3 1 10.5 2.7V17c-3.5-1.4-7-1.9-10.5-1.9-8.6 0-14.3 4.5-14.3 12 0 11.7 16.1 9.7 16.1 14.8 0 1.9-1.7 2.5-4.1 2.5-3.5 0-8-1.5-11.6-3.4v10c3.9 1.7 7.9 2.4 11.5 2.4 8.8 0 14.8-4.4 14.8-11.9 0-12.5-16-10.3-16-14.9z" fill="#377dff"/></svg>