<svg xmlns="http://www.w3.org/2000/svg" viewBox="0 0 200.4 66.5"><path d="M179.6 34.2c0-11.3-5.5-20.3-16-20.3s-16.9 8.9-16.9 20.2c0 13.3 7.5 20 18.3 20 5.3 0 9.2-1.2 12.2-2.9v-8.8c-3 1.5-6.5 2.4-10.8 2.4-4.3 0-8.1-1.5-8.6-6.7h21.6c.1-.5.2-2.8.2-3.9zM157.7 30c0-5 3.1-7.1 5.8-7.1 2.7 0 5.6 2.1 5.6 7.1h-11.4zm-28.1-16c-4.3 0-7.1 2-8.7 3.4l-.6-2.7h-9.7v51.6l11.1-2.3V51.5c1.6 1.1 3.9 2.8 7.8 2.8 7.9 0 15.1-6.4 15.1-20.4.1-12.9-7.2-19.9-15-19.9zM127 44.4c-2.6 0-4.2-.9-5.2-2.1V25.9c1.1-1.3 2.7-2.2 5.3-2.2 4 0 6.8 4.5 6.8 10.3-.1 6-2.9 10.4-6.9 10.4zm-31.6-33L106.5 9V0L95.4 2.3zm0 3.3h11.1v38.7H95.4zM83.5 18l-.7-3.3h-9.6v38.7h11.1V27.2c2.6-3.4 7-2.8 8.4-2.3V14.7c-1.4-.5-6.5-1.5-9.2 3.3zM61.4 5.1L50.6 7.4v35.4c0 6.5 4.9 11.4 11.5 11.4 3.6 0 6.3-.7 7.7-1.5v-9c-1.4.6-8.4 2.6-8.4-3.9V24.1h8.4v-9.4h-8.4V5.1zM31.5 26c0-1.7 1.4-2.4 3.8-2.4 3.4 0 7.6 1 11 2.8V16c-3.7-1.5-7.3-2-11-2-9 0-14.9 4.7-14.9 12.5 0 12.2 16.8 10.3 16.8 15.5 0 2-1.8 2.7-4.2 2.7-3.7 0-8.4-1.5-12.1-3.5v10.5c4.1 1.8 8.3 2.5 12.1 2.5 9.2 0 15.5-4.6 15.5-12.5-.1-13.1-17-10.8-17-15.7z" fill="#6772e5"/></svg>