<svg xmlns="http://www.w3.org/2000/svg" xmlns:xlink="http://www.w3.org/1999/xlink" width="584" height="476" viewBox="0 0 584 476"><defs><path id="qxxra" d="M728 257.1c0-2.7 2.2-4.9 4.9-4.9h169.74c2.7 0 4.9 2.2 4.9 4.9v126.73c0 2.7-2.2 4.9-4.9 4.9H732.9a4.9 4.9 0 0 1-4.9-4.9z"/><path id="qxxrb" d="M896.86 237.53h-161.9a3.64 3.64 0 0 1-3.57-3.7v-28.9c0-2.05 1.6-3.71 3.57-3.71h161.9a3.64 3.64 0 0 1 3.57 3.7v28.9c0 2.05-1.6 3.7-3.57 3.7z"/><path id="qxxrc" d="M869.83 237.53h26.23a4.46 4.46 0 0 0 4.37-4.54v-27.23c0-2.5-1.95-4.54-4.37-4.54h-26.23a4.46 4.46 0 0 0-4.37 4.54v27.23c0 2.5 1.96 4.54 4.37 4.54z"/><path id="qxxrd" d="M880.03 219.38a2.98 2.98 0 0 1-2.91-3.02c0-1.67 1.3-3.03 2.91-3.03s2.92 1.36 2.92 3.03c0 1.67-1.31 3.02-2.92 3.02zm13.72 6.94l-5.83-6.05c.53-1.2.86-2.51.86-3.91 0-5-3.92-9.08-8.75-9.08-4.82 0-8.74 4.07-8.74 9.08 0 5 3.92 9.07 8.74 9.07 1.35 0 2.61-.34 3.76-.9l5.84 6.07a2.85 2.85 0 0 0 4.12 0 3.1 3.1 0 0 0 0-4.28z"/><path id="qxxre" d="M896.86 294.32h-161.9a3.6 3.6 0 0 1-3.57-3.64v-28.33c0-2 1.6-3.63 3.57-3.63h161.9a3.6 3.6 0 0 1 3.57 3.63v28.33c0 2-1.6 3.64-3.57 3.64z"/><path id="qxxrf" d="M757.62 288.38h-17.49a2.94 2.94 0 0 1-2.91-2.97v-17.8c0-1.63 1.3-2.96 2.91-2.96h17.5a2.94 2.94 0 0 1 2.9 2.97v17.8c0 1.63-1.3 2.96-2.9 2.96z"/><path id="qxxrg" d="M874.2 285.41H769.27a2.94 2.94 0 0 1-2.91-2.96c0-1.64 1.3-2.97 2.91-2.97H874.2a2.94 2.94 0 0 1 2.91 2.97c0 1.63-1.3 2.96-2.91 2.96z"/><path id="qxxrh" d="M827.57 273.55h-58.3a2.94 2.94 0 0 1-2.91-2.96c0-1.64 1.3-2.97 2.91-2.97h58.3a2.94 2.94 0 0 1 2.91 2.97c0 1.63-1.3 2.96-2.91 2.96z"/><path id="qxxri" d="M757.62 329.91h-17.49a2.94 2.94 0 0 1-2.91-2.97v-17.8c0-1.63 1.3-2.96 2.91-2.96h17.5a2.94 2.94 0 0 1 2.9 2.97v17.8c0 1.63-1.3 2.96-2.9 2.96z"/><path id="qxxrj" d="M874.2 326.94H769.27a2.94 2.94 0 0 1-2.91-2.96c0-1.64 1.3-2.97 2.91-2.97H874.2a2.94 2.94 0 0 1 2.91 2.97c0 1.63-1.3 2.96-2.91 2.96z"/><path id="qxxrk" d="M827.57 315.08h-58.3a2.94 2.94 0 0 1-2.91-2.96c0-1.64 1.3-2.97 2.91-2.97h58.3a2.94 2.94 0 0 1 2.91 2.97c0 1.63-1.3 2.96-2.91 2.96z"/><path id="qxxrl" d="M757.62 371.44h-17.49a2.94 2.94 0 0 1-2.91-2.97v-17.8c0-1.63 1.3-2.96 2.91-2.96h17.5a2.94 2.94 0 0 1 2.9 2.97v17.8c0 1.63-1.3 2.96-2.9 2.96z"/><path id="qxxrm" d="M874.2 368.47H769.27a2.94 2.94 0 0 1-2.91-2.96c0-1.64 1.3-2.97 2.91-2.97H874.2a2.94 2.94 0 0 1 2.91 2.97c0 1.63-1.3 2.96-2.91 2.96z"/><path id="qxxrn" d="M827.57 356.61h-58.3a2.94 2.94 0 0 1-2.91-2.96c0-1.64 1.3-2.97 2.91-2.97h58.3a2.94 2.94 0 0 1 2.91 2.97c0 1.63-1.3 2.96-2.91 2.96z"/><path id="qxxro" d="M910 371.15L950.29 349l36.8 43.62-36.1 25.61z"/><path id="qxxrp" d="M914.86 376.7l40.29-22.16 36.8 43.62-36.1 25.61z"/><path id="qxxrq" d="M935.7 376c0-4.59 4.5-8.31 10.07-8.31 5.56 0 10.07 3.72 10.07 8.31s-4.5 8.31-10.07 8.31c-5.56 0-10.07-3.72-10.07-8.31z"/><path id="qxxrr" d="M939.87 382.79l5.56-8.17 4.16 9.07s-2.44.8-4.86.62c-2.41-.17-4.86-1.52-4.86-1.52z"/><path id="qxxrs" d="M978.28 660s-.56 3.03 0 4.17c.57 1.14 1.64 2.57 4.83 4.18 3.2 1.6 2.1.16 9.67 2.78 7.56 2.62 11.1 4.84 14.49 5.57a15 15 0 0 0 8.28-.7c1.99-.7 3.45-3.48 3.45-3.48z"/><path id="qxxrt" d="M1027.24 641s-.48 2.68 0 3.68 1.4 2.26 4.13 3.69c2.72 1.42 1.78.14 8.24 2.45s9.48 4.27 12.37 4.91c2.9.64 5.38.01 7.07-.61 1.7-.63 2.95-3.07 2.95-3.07z"/><path id="qxxru" d="M1046.53 637.65h-8.61c-4.6 0-6.56-1.46-9.19 0-2.62 1.46-1.6 3.91-1.15 5.75.46 1.84 2.1 2.73 3.45 3.45 1.35.72 5.17 1.15 5.17 1.15s4.03.56 5.74 1.15c1.7.6 8.76 4.06 10.9 4.6a7.1 7.1 0 0 0 5.17-.57c1.52-.71 2.46-.98 3.45-3.45.99-2.48.4-3.5 0-5.18-.4-1.68-2.3-4.6-2.3-4.6z"/><path id="qxxrv" d="M1059 636.18v4.7s-1.57 4.12-6.19 4.12c-4.63 0-6.81-4.12-6.81-4.12V635z"/><path id="qxxrw" d="M1001.44 655.8H991.1c-5.51 0-7.87-1.8-11.02 0-3.15 1.8-1.93 4.84-1.38 7.1.55 2.27 2.51 3.38 4.13 4.27 1.63.9 6.2 1.42 6.2 1.42s4.84.7 6.9 1.42c2.05.73 10.5 5.02 13.09 5.68a8.3 8.3 0 0 0 6.2-.7c1.81-.88 2.94-1.2 4.13-4.27 1.19-3.06.47-4.32 0-6.4-.47-2.06-2.76-5.68-2.76-5.68z"/><path id="qxxrx" d="M1176.15 501.3l-13.15.7-26.3-4.96-9.7-5.67 9.7-.7 34.6-.71 2.78-4.96h6.92z"/><path id="qxxry" d="M1017 654.41v5.65s-1.8 4.94-7.14 4.94-7.86-4.94-7.86-4.94V653z"/><path id="qxxrz" d="M1060.89 505l2.11 127.43s-12.68 11.14-21.14 0c-3.27-4.32-5.08-17.57-7.04-35.51-.51-4.67-2.82-14.63-2.82-14.63l15.15-75.9z"/><path id="qxxrA" d="M993 501s4.2 53.4 2.8 84.6c-1.4 31.2-1.53 50.7 2.1 61.72 3.65 11.01 20.35 6.24 20.35 6.24L1047 506.55z"/><path id="qxxrB" d="M1061.6 556s-4.63 20.26-7.03 30.42c-2.4 10.15-.14 12.51-4.92 20.05-4.79 7.53-12.65 7.6-12.65 7.6s1.38 6.83 2.1 9.68c1.08 4.23 1.85 7.62 4.93 10.37 7.73 6.91 18.97-2.77 18.97-2.77z"/><path id="qxxrC" d="M1045.64 361s7.81 6.36 11.17 15.28c3.36 8.92 3.5 23.62 3.5 23.62l7.67 100.03s.85 8.01-38.74 6.95c-39.6-1.07-38.75-9.04-38.75-9.04s-3.49-16.67-3.49-25.7c0-9.03 4.19-37.5 4.19-37.5s3.85-20.03 6.98-29.88c3.13-9.84 10.47-25 10.47-25s12-12.17 18.15-15.29c6.16-3.12 18.85-3.47 18.85-3.47z"/><path id="qxxrD" d="M1040.93 396s2.07 13.72 2.07 20.23-2.07 17.44-2.07 17.44-10.65 11.51-14.52 18.14c-3.87 6.63-8.3 20.93-8.3 20.93l1.39 23.72s-1.17 12.88-18.67 8.37c-5.54-1.43-8.35-2.19-10.37-4.88-4.36-5.83-3.13-15.95-4.15-22.33-1.5-9.33 4.15-42.55 4.15-42.55s14.42 7.72 22.12 4.88c7.7-2.84 9.6-11.59 13.83-18.14 4.22-6.55 14.52-25.81 14.52-25.81z"/><path id="qxxrE" d="M1001 396.07s-12.56-8.25-15.7-8.97c-3.16-.72-4.56 2.71-6.15 4.14-1.6 1.42-6.15 6.9-6.15 6.9l5.46 9.65 17.08 6.21z"/><path id="qxxrF" d="M1012.51 391.73c2.8-8.38 2.23-13.2 5.59-16.07 3.36-2.86 8.51-4.93 16.75 2.1 8.24 7.03 6.98 18.17 6.98 18.17s-17.78 39.27-29.32 45.41c-11.54 6.15-36.3-10.48-36.3-10.48l-24.44-9.78-9.77-6.29 12.57-16.77s39.93 17.36 45.38 16.77c5.44-.59 9.77-14.67 12.56-23.06z"/><path id="qxxrG" d="M1009 379v-4.93s3.76-8.74 13.85-14.08c10.09-5.35 19.38-3.53 19.38-3.53l2.77 4.93s-13.13.8-18.7 3.53c-5.55 2.71-17.3 14.08-17.3 14.08z"/><path id="qxxrH" d="M1018.23 361.26v-2.79s-6.26 3.94-9.79 3.48c-3.52-.46-6.28-5.56-6.28-5.56s-.35-2.8-.7-4.18c-.35-1.39-1.31-2.32-1.4-4.17-.27-5.52.7-20.17.7-20.17l2.8-2.09 20.96-2.78 10.48 32.7z"/><path id="qxxrI" d="M1112.93 417L1065 368.84l54.88-55.84 36.12 36.3z"/><path id="qxxrJ" d="M1002.15 328.23s-7.37-6.89-4.2-12.65c3.19-5.75 14.67-6.32 14.67-6.32s9.22-1.05 14.66 2.11c5.45 3.16-.86 3.42 3.5 8.43 1.33 1.54 4.58.79 6.28 2.1 1.97 1.54 4.42 2.17 4.88 9.14.46 6.96-1.95 9.61-4.88 14.04-2.94 4.44-5.59 4.92-7.68 4.92-2.1 0-3.55-.67-4.9-1.4-1.33-.74-3.25.2-2.78-2.81.46-3.02 4.19-4.54 4.19-6.33 0-1.78-1.8-2.8-4.2-2.8-2.38 0-3.53 3.32-4.88 2.8-1.36-.5-.48-3.83-.7-4.91-.21-1.08-.9-.67-.7-2.1.2-1.44 3.33-.87 1.4-2.82-1.94-1.94-3.27-2.45-6.98-2.8-3.72-.36-7.68 1.4-7.68 1.4z"/><path id="qxxrK" d="M950 403.7s-1.02-4.29-3.47-6.9c-2.46-2.62-4.98-4.25-6.25-3.46-1.28.79 1.45 5.85.7 6.91-.77 1.06-3.06.15-4.18-2.07-1.11-2.23 1.59-3.08 0-6.22-1.58-3.15-3.67-5.52-5.55-4.84-1.89.68-1.8 4.9-2.08 7.6-.3 2.7-.4 2.46 1.38 6.91a12.81 12.81 0 0 0 7.64 7.6c2.85 1.1 5.56 2.77 5.56 2.77z"/><path id="qxxrL" d="M983 387.03l-4.23-3.48s-1.49-4.8-2.82-6.96c-1.34-2.16-1.5-3.97-4.94-5.58-3.44-1.6-6.27-.85-8.46-.7-3.85.29-5.74 1.75-6.34 2.1-1.43.81 4.95 2.23 6.34 3.48 1.4 1.25 2.94 3.05 1.41 3.48-1.53.43-5.7-3.98-6.34-2.09-.64 1.9 4.23 8.36 4.23 8.36s3.6 3.94 5.64 4.88c2.04.94 2.75-.9 4.93 0 2.19.9 3.53 3.48 3.53 3.48z"/><path id="qxxrM" d="M1143.26 650.07c2.5-.38 13.37 1.35 13.37 1.35s24.03 7.01 19.71 9.42-33.63.37-36.6 0c-2.97-.36-1.38-4.65-.7-6.73.68-2.08 1.71-3.66 4.22-4.04z"/><path id="qxxrN" d="M1144.68 642s3.77 1.44 5.82 1.44c2.05 0 6.5-1.44 6.5-1.44l-.68 10.81s-2.67 2.41-6.85 2.17c-4.18-.25-5.47-2.89-5.47-2.89z"/><path id="qxxrO" d="M1129.67 618.94c1.7 1.3 7.05 8.92 7.05 8.92s9.92 18.69 5.94 17.46c-3.99-1.24-19.99-20.26-21.52-22.28-1.53-2.02 1.98-3.54 3.63-4.33 1.64-.79 3.2-1.07 4.9.23z"/><path id="qxxrP" d="M1134.48 616.43l4.48 10.83-2.17 1s-3.14-.22-5.74-2.83c-2.6-2.62-2.1-6.48-2.1-6.48z"/><path id="qxxrQ" d="M1123.43 488s-1.46 8.92 2.08 22.98c1.6 6.31 5.95 15.18 10.44 28.55 2.18 6.5 5.28 13.56 6.26 22.99.99 9.42-.21 24.92 0 36.9.11 6.24.89 15.8 1.4 29.25.13 3.8 0 12.54 0 12.54s3.48 2.68 5.7 2.79c2.2.1 8.9-2.1 8.9-2.1s2.07-5.48 2.79-8.35c2.78-11.12 4.32-20.65 5.56-27.16 2.35-12.29 3.48-26.46 3.48-26.46l1.4-19.5s1.02-20.2 1.39-27.86c.37-7.65.25-10.26.7-15.32.43-5.06 3.47-16.71 3.47-16.71s-14.39.35-27.48-2.79c-13.1-3.15-26.1-9.75-26.1-9.75z"/><path id="qxxrR" d="M1143.29 605l.71 21s-1.64 3.76-3.57 2.8c-1.94-.94-1.95-2.58-3.57-6.3-1.63-3.7-2.86-8.4-2.86-8.4s1.69-.25 4.29-2.8 5-6.3 5-6.3z"/><path id="qxxrS" d="M1181.38 484l-6.2 22.22-6.18 46.51V593s5.2-11.84 8.94-25c3.74-13.15 4.44-17.2 6.87-30.54 2.43-13.34 2.84-18.75 4.13-29.85C1190.22 496.5 1191 484 1191 484z"/><path id="qxxrT" d="M1174 485h14l-8.4-89.66-7.7-8.34s-3.83.38-5.6.7c-1.77.3-6.3 1.39-6.3 1.39l4.2 24.32z"/><path id="qxxrU" d="M1119 491h53.71s3.6-7.94 4.19-22.18c.58-14.24-2.1-29.12-2.1-29.12s-4.17-22.55-6.97-33.27c-2.8-10.72-6.98-20.1-6.98-20.1s-1.51-5.65-4.18-9.01c-2.68-3.37-6.28-4.16-6.28-4.16l-16.05-4.16-11.16 5.55s-4.36 1.26-6.28 8.31c-1.92 7.06-1.68 14.58-2.79 24.96-1.1 10.37-1.93 12.16-2.1 20.8-.15 8.63.83 13.22 1.4 17.32.58 4.1-.97 4.8 2.1 7.63 3.06 2.83 7.67 1.38 7.67 1.38l18.14-4.85-.7-24.95-3.49 1.38s-.59-35.74 0-38.81c.6-3.08 2.64-1.78 5.58 9.7 2.95 11.48 3.5 25.65 3.5 25.65s1.5 20.38-.7 28.42c-2.21 8.04-18.84 15.25-18.84 15.25l-4.89.7z"/><path id="qxxrV" d="M1185.42 491h7.58s-.81-9.26-1.38-23.73c-.56-14.48 0-14.66-.69-29.32-.69-14.65-1.72-30-1.72-30s.17-8.45-1.03-9.78c-1.2-1.32-16.5-11.02-17.91-11.17-1.41-.14 3.12 4.31 4.13 9.77 1.02 5.47 4.75 35.12 5.51 42.23.76 7.12-.07 6.53.7 15.7.75 9.18.77 7.78 2.06 17.45a805.82 805.82 0 0 0 2.75 18.85z"/><path id="qxxrW" d="M1136.23 426.02s-2.7-39.86.7-40.99c1.65-.55 4.7 6.37 6.91 20.15.8 4.96 1.39 17.36 1.39 17.36s1.83 19.02-.7 29.18c-2.52 10.15-4.58 6.14-9 9.72-4.41 3.58-9 4.87-9 4.87l-5.53.69.7-12.5 18.68-4.87-.7-25z"/><path id="qxxrX" d="M1140 424.8l6.67-2.8 1.33 25.9-7.33 2.1z"/><path id="qxxrY" d="M1147 423.26s1.77.7 3.46 0c1.7-.69 11.47-5.2 15.23-7.63 3.77-2.44 4.61-4.47 6.24-6.24 2.82-3.1 4.28-5.25 6.23-6.25 4.6-2.37 9.83-.37 11.77 0 1.94.37 3.82 1.67 2.77 2.78-1.06 1.1-35.31 31.22-35.31 31.22l-9.28 4.86z"/><path id="qxxrZ" d="M1169.12 395l9.88 8.94-2.12 2.06-9.88-8.94z"/><path id="qxxraa" d="M1166 395.5a1.5 1.5 0 1 1 3 0 1.5 1.5 0 0 1-3 0z"/><path id="qxxrab" d="M1170 371.17l-.7 10.1-1.4.73-5.6-2.17-4.9-7.22-1.4-3.61h3.5l7.7 2.17z"/><path id="qxxrac" d="M1171.22 387.84s-1.78 1.82-4.18 2.1c-2.41.28-5.58-.7-5.58-.7s-3.39-7.97-5.58-11.19c-2.19-3.22-4.88-4.2-4.88-4.2l1.4-14.68s3.48-12.4 5.57-14.68c.12-.13 9.93-3.45 12.55-5.6 2.78-2.27 5.58-4.89 5.58-4.89s4.3 2.6 4.88 4.2c.59 1.6 1.52 3.62.7 9.78-.82 6.17.7 4.36-2.1 11.2-2.8 6.82-6.29 9.31-8.36 11.88-2.07 2.56-3.08 2.68-4.88 2.8-1.8.1-6.28-2.1-6.28-2.1s-2.09-1.5-2.09-.7 2.1 3.5 2.1 3.5 2.56 3.23 4.87 4.89a13.22 13.22 0 0 0 4.88 2.1z"/><path id="qxxrad" d="M1154.48 368.26c-1.32 2.08-8.8 9.21-15.31 12.55-6.52 3.34-10.22 3.06-14.62 2.79-4.4-.27-6.28-.72-8.35-4.18-2.07-3.46-1.04-7.05 0-9.76s2.46-5.12 6.96-8.37c4.5-3.24 5.88-.84 10.44-4.18s5.3-3.26 7.65-9.06c2.36-5.8-.75-6.8 1.4-13.24 2.14-6.44 1.41-7.41 6.95-11.85 5.55-4.44 10.14-4.4 13.92-4.88 3.79-.49 6.44 1.43 7.66 2.09 1.22.66-.17.7 3.48 2.79s3.52.52 7.66 5.57c4.13 5.06 4.5 4.48 4.87 9.76.37 5.28-2.34 15.37-2.79 20.22a60.9 60.9 0 0 0 0 9.75s1.69 3.27 3.48 10.46c1.8 7.2 2.48 11.53 2.79 14.64.3 3.1 3.22 5.12-.7 6.27-3.92 1.16-7.02-.57-11.13-2.79-4.11-2.21-6.96-6.97-6.96-6.97s-2.22-3.27-2.79-8.36c-.56-5.1-1.37-4.76.7-10.46 2.07-5.7 7.53-9.85 9.05-14.63 1.52-4.79 1.77-12.19.7-16.04-1.08-3.84-1.3-5.77-4.18-5.57-2.88.19-.87 2.94-6.27 6.27-5.4 3.33-8.18.89-11.83 4.88-3.65 4-3.48 11.85-3.48 11.85s2.01 8.38.7 10.45z"/><path id="qxxrae" d="M1250.32 635s2.2.23 2.76 2.13c.57 1.9 1.74 5.42 0 7.08-1.74 1.66-6.32 1.79-9.66 2.13-13.76 1.4-22.8.4-24.17-1.42-1.23-1.62 2.23-2.49 8.97-4.96 2.63-.96 8.98-4.25 8.98-4.25z"/><path id="qxxraf" d="M1255.59 563.48c-.17 1.96.65 2.94.7 4.86.06 1.93.73 10.87 0 21.56-.72 10.69-1.62 13.07-2.82 20.17-1.2 7.1-2.23 8.03-2.82 13.2-.58 5.19.7 12.53.7 12.53s-4.23 3.84-7.75 4.17c-3.51.33-7.05-2.78-7.05-2.78s2.76-3.16 3.53-5.57c.77-2.4.92-1.66.7-7.65-.21-5.98-.27-.8-1.4-11.82-1.15-11-1.08-11.45-2.12-22.25-1.05-10.8-1.84-17.56-2.12-21.56-.28-3.99 0-8.34 0-8.34H1257s-1.24 1.52-1.41 3.48z"/><path id="qxxrag" d="M1288.67 344l-8.45 6.16-4.22 5.47.7 4.1 4.23 3.43 1.4 2.05L1295 370s.04-9.09-1.4-15.05c-1.46-5.96-4.93-10.95-4.93-10.95z"/><path id="qxxrah" d="M1280 639s2.39.25 3 2.3c.62 2.06 1.9 5.88 0 7.68-1.89 1.8-6.86 1.93-10.5 2.3-14.93 1.53-24.74.43-26.23-1.53-1.34-1.76 2.42-2.7 9.74-5.38 2.85-1.04 9.75-4.6 9.75-4.6z"/><path id="qxxrai" d="M1283.53 561.74c-.18 2.1.68 3.16.73 5.23.06 2.07.76 11.68 0 23.17-.75 11.5-.8 13.37-2.05 21-1.25 7.63-1.48 10.07-2.09 15.63-.6 5.57-1.02 12.71-1.02 12.71s-4.43 4.13-8.1 4.49c-3.68.35-7.38-3-7.38-3s2.88-3.38 3.69-5.97c.8-2.6.96-1.79.74-8.23-.23-6.43-.29-.87-1.48-12.7-1.19-11.84-1.12-12.32-2.21-23.93-1.1-11.6-1.92-18.88-2.21-23.17-.3-4.3 0-8.97 0-8.97H1285s-1.3 1.63-1.47 3.74z"/><path id="qxxraj" d="M1234.36 452.85c1.92-2.97 25.9-4.85 35.42-4.85 9.52 0 15.62 1.46 18.75 4.85 3.14 3.4 6.25 22.19 6.25 22.19s20.3 66.9 16.67 75.56c-3.62 8.64-23.07 7.91-52.08 9-29.02 1.1-57.2.04-58.34-4.84-1.15-4.9 31.42-98.93 33.33-101.9z"/><path id="qxxrak" d="M1233.74 453s3.05-10.24 2.08-11.8c-.97-1.58-11.1-2.79-11.1-2.79l6.94-14.59h6.93l-.7-9.03-7.62 9.73-13.18.7-11.09-4.87 9.01-14.59s20.08-35.6 21.5-37.5c1.42-1.9 1.3-2.23 9.7-4.18a95.09 95.09 0 0 1 17.34-2.08l15.95 1.39s10.68 1.49 15.95 6.95c5.28 5.45 5.55 15.28 5.55 15.28s-.6 13.37-1.39 15.28c-.79 1.91-13.87 21.54-13.87 21.54l-6.93 11.11-6.93 8.34 8.32-1.4 5.54-4.16 3.47-6.25 5.55-12.5-5.55 16.66s-1.53 3.54-2.08 8.34 0 9.73 0 9.73-14.86-4.34-27.74-4.17c-12.87.16-25.65 4.86-25.65 4.86z"/><path id="qxxral" d="M1246 424s4.26-1.07 5.49-2.75C1252.7 419.57 1270 391 1270 391l-13.03 33z"/><path id="qxxram" d="M1257.42 367.32l-.7 8.99 2.8.69 20.32-15.9s-2.65-2.47-2.8-4.15c-.16-1.68 1.4-3.46 1.4-3.46s1.3-2.16 2.8-3.45c1.5-1.3 1.21.47 3.5-1.39 2.3-1.85 3.82-3.3 4.2-4.84.4-1.53-2.1-3.45-2.1-3.45L1264.43 321l-4.9.7-6.3 8.98-.7 2.76s-1.27 8.32-1.4 12.45c-.15 4.13-.34 4.72.7 8.3a17.3 17.3 0 0 0 3.5 6.22z"/><path id="qxxran" d="M1256 363.92s3.37.1 8.15-1.45c4.78-1.56 8.46-5.15 8.83-4.36.37.79-4.1 4.91-7.47 7.26-3.37 2.35-8.15 3.63-8.15 3.63z"/><path id="qxxrao" d="M1253.88 359.34c.5-1.42 3.9 1.97 4.15 2.78.24.8 0 11.08 0 11.08s.15 2.42 1.38 2.77c1.22.35 3.45-1.38 3.45-1.38l15.2-11.78s2.22-1.23 3.46-.7c1.24.54 1.7 2.22 1.38 2.78-.3.55-3.52 4.56-7.6 8.31-4.07 3.75-4.78 4.05-8.98 6.24-4.2 2.18-8.2 4.01-9.68 3.46-1.47-.55-2.91-2.34-3.45-6.93s.2-15.2.69-16.63z"/><path id="qxxrap" d="M1262.87 321.43c-1.5.24-11.86 11.74-11.86 11.74s-.14-6.98 2.79-12.43c2.92-5.44 5.12-6.9 9.07-9.66 3.95-2.75 17.32-3.02 22.33.7 5 3.7 5.26 5.86 6.98 10.34 1.72 4.5.36 16.78-.7 18.64-1.06 1.86-1.91 2.6-4.88 2.07-2.97-.53-5.95-1.74-10.47-4.83-4.52-3.1-4.34-3.42-7.68-7.6-3.34-4.17-4.08-9.2-5.58-8.97z"/><path id="qxxraq" d="M1233.52 454s-1.64 17.44-2.78 31.27c-1.14 13.82-2.09 19.55-2.09 27.79 0 8.23.52 9 2.09 15.98 1.57 6.99 3.71 6.54 4.17 11.81.46 5.27-1.4 20.15-1.4 20.15s-31.85-1.09-33.36-4.86c-1.5-3.78 8.27-30.74 13.21-45.86 4.94-15.12 20.16-56.28 20.16-56.28z"/><path id="qxxrar" d="M1300 401l-4.89 18.98s-7.11 15.6-10.47 18.98c-3.35 3.38-13.64 6.6-12.56 4.22 1.07-2.39 16.75-23.9 16.75-23.9z"/><path id="qxxras" d="M1180.4 406h60.57l-32.73 33h-57.78z"/><path id="qxxrat" d="M1225.84 423l6.16.68-6.16 14.32-6.84-2.73z"/><path id="qxxrau" d="M1225 425.35s-1.4-1.8-4.23-2.88c-2.83-1.08-4.22-1.6-7.04-1.44-2.82.17-4.57.86-4.94 2.16-.36 1.3 4.7 2.68 3.53 2.88-1.18.2-4.86-1.71-7.75-2.16-2.9-.44-6.35 0-6.35 0s-2.72 1.03-2.11 2.89c.6 1.85 1.9 2.49 4.23 3.6a45.95 45.95 0 0 0 6.34 2.16 538.32 538.32 0 0 0 13.39 1.44z"/><path id="qxxrav" d="M1113 390s-14.67-54.48-54.08-89.85S957 250 957 250"/><path id="qxxraw" d="M946.63 238.93l-13.94 19.55L909 211l53.65 3.5-11.15 18.14-39.71-19.55z"/><path id="qxxrax" d="M946.63 238.92l5.57 9.78-.7-16.06-39.71-19.55z"/><path id="qxxray" d="M946.62 238.93l5.58 9.77-9.06-4.88z"/><path id="qxxraz" d="M1195.34 303.33a22.33 22.33 0 1 1 44.66 0 22.33 22.33 0 0 1-44.66 0z"/><path id="qxxraB" d="M1199.44 303.88a8.79 8.79 0 0 1-4.09-2.66 23.27 23.27 0 0 0 23.23 24.5c9.6 0 16.13-5.82 19.68-14.14-5.16-.09-8.56-.63-13.32-2.86-4.9-2.31-11.07-7.3-15.07-6.25-3.75 1.44-7.31 2.33-10.43 1.41z"/><path id="qxxraD" d="M1195.48 300.88c-.02.41-.14 2.03-.14 2.45 0 12.57 9.22 22.33 22.33 22.33 4.08 0 7.98-1.28 11.33-3.1-5.92-.4-11.5-1.8-16.72-5.32-4.61-3.11-8.06-8.12-8.48-13.5-3.57.64-5.65.1-8.32-2.86z"/><path id="qxxraF" d="M1211.1 309.76a1.54 1.54 0 0 1-1.92 1.01l-2.95-.9a1.53 1.53 0 0 1-1.01-1.93l1.07-3.42a1.54 1.54 0 0 1 1.93-1.01l2.95.91a1.53 1.53 0 0 1 1 1.92z"/><path id="qxxraG" d="M1200.54 301.11h1.54v5.12h-1.54z"/><path id="qxxraH" d="M1220.58 295.48h1.54v16.37h-1.54z"/><path id="qxxraI" d="M1202.08 301.47v4.4l18.5 5.33v-15.06z"/><path id="qxxraJ" d="M1203.11 302.27v1.11l16.45-2.63v-3.22z"/><path id="qxxraK" d="M1223.5 293.78s5.14 3.86 5.14 9.9c0 6.02-5.14 9.54-5.14 9.54"/><path id="qxxraL" d="M1225.55 292.75s5.83 4.27 5.83 10.93c0 6.67-5.83 10.56-5.83 10.56"/><path id="qxxraM" d="M1227.95 291.73s6.51 4.68 6.51 11.98c0 7.3-6.51 11.56-6.51 11.56"/><linearGradient id="qxxraA" x1="1240" x2="1195.34" y1="303.33" y2="303.33" gradientUnits="userSpaceOnUse"><stop offset="0" stop-color="#3c285f"/><stop offset="1" stop-color="#2b1c44"/></linearGradient><linearGradient id="qxxraC" x1="1216.79" x2="1216.79" y1="325.73" y2="301.22" gradientUnits="userSpaceOnUse"><stop offset="0" stop-color="#3c285f"/><stop offset="1" stop-color="#2b1c44"/></linearGradient><linearGradient id="qxxraE" x1="1195.34" x2="1229" y1="313.27" y2="313.27" gradientUnits="userSpaceOnUse"><stop offset="0" stop-color="#4d3675"/><stop offset="1" stop-color="#34136a"/></linearGradient></defs><g><g transform="translate(-728 -201)"><g><g><use fill="#fff" xlink:href="#qxxra"/></g><g><g><g><use fill="#e4eaf6" xlink:href="#qxxrb"/></g><g><g fill="#1e2022" font-family="'Poppins','Poppins-Light'" font-size="20" font-style="none" font-weight="lighter"><text dominant-baseline="text-before-edge" font-family="Helvetica, Arial, sans-serif" transform="translate(738.03 201)"><tspan>|</tspan></text></g></g><g><g><use fill="#9c6ce9" xlink:href="#qxxrc"/></g><g><use fill="#fff" xlink:href="#qxxrd"/></g></g></g><g><use fill="#e4eaf6" xlink:href="#qxxre"/></g><g><use fill="#c3b4fa" xlink:href="#qxxrf"/></g><g><use fill="#c7cfe2" xlink:href="#qxxrg"/></g><g><use fill="#9c6ce9" xlink:href="#qxxrh"/></g><g><use fill="#5c6bc0" xlink:href="#qxxri"/></g><g><use fill="#c7cfe2" xlink:href="#qxxrj"/></g><g><use fill="#9c6ce9" xlink:href="#qxxrk"/></g><g><use fill="#ffe182" xlink:href="#qxxrl"/></g><g><use fill="#c7cfe2" xlink:href="#qxxrm"/></g><g><use fill="#9c6ce9" xlink:href="#qxxrn"/></g></g></g><g><g><use fill="#4aa5f5" xlink:href="#qxxro"/></g><g><use fill="#fcfcfe" xlink:href="#qxxrp"/></g><g><use fill="#c3b4fa" xlink:href="#qxxrq"/></g><g><use fill="#9c6ce9" xlink:href="#qxxrr"/></g></g><g><use fill="#ff5a49" xlink:href="#qxxrs"/></g><g><use fill="#ff5a49" xlink:href="#qxxrt"/></g><g><use fill="#504478" xlink:href="#qxxru"/></g><g><use fill="#ffa578" xlink:href="#qxxrv"/></g><g><use fill="#504478" xlink:href="#qxxrw"/></g><g><use fill="#279bef" xlink:href="#qxxrx"/></g><g><use fill="#ffa477" xlink:href="#qxxry"/></g><g><use fill="#047" xlink:href="#qxxrz"/></g><g><use fill="#06a" xlink:href="#qxxrA"/></g><g><use fill="#005b91" xlink:href="#qxxrB"/></g><g><use fill="#efb100" xlink:href="#qxxrC"/></g><g><use fill="#ed9800" xlink:href="#qxxrD"/></g><g><use fill="#f4ba01" xlink:href="#qxxrE"/></g><g><use fill="#f4ba00" xlink:href="#qxxrF"/></g><g><use fill="#eff0f4" xlink:href="#qxxrG"/></g><g><use fill="#f79e84" xlink:href="#qxxrH"/></g><g><use fill="#e7e7e7" xlink:href="#qxxrI"/></g><g><use fill="#904a3b" xlink:href="#qxxrJ"/></g><g><use fill="#f3a084" xlink:href="#qxxrK"/></g><g><use fill="#f3a084" xlink:href="#qxxrL"/></g><g><use fill="#5e3253" xlink:href="#qxxrM"/></g><g><use fill="#e7946e" xlink:href="#qxxrN"/></g><g><use fill="#5e3253" xlink:href="#qxxrO"/></g><g><use fill="#e7946e" xlink:href="#qxxrP"/></g><g><use fill="#3eaffe" xlink:href="#qxxrQ"/></g><g><use fill="#1b87e0" xlink:href="#qxxrR"/></g><g><use fill="#1b87e0" xlink:href="#qxxrS"/></g><g><use fill="#ffc900" xlink:href="#qxxrT"/></g><g><use fill="#0089ff" xlink:href="#qxxrU"/></g><g><use fill="#0089ff" xlink:href="#qxxrV"/></g><g><use fill="#06d" xlink:href="#qxxrW"/></g><g><use fill="#feffff" xlink:href="#qxxrX"/></g><g><use fill="#f99d6f" xlink:href="#qxxrY"/></g><g><use fill="#214ed6" xlink:href="#qxxrZ"/></g><g><use fill="#41aefe" xlink:href="#qxxraa"/></g><g><use fill="#ec6147" xlink:href="#qxxrab"/></g><g><use fill="#f99c71" xlink:href="#qxxrac"/></g><g><use fill="#5b3254" xlink:href="#qxxrad"/></g><g><use fill="#8f4f25" xlink:href="#qxxrae"/></g><g><use fill="#f99c71" xlink:href="#qxxraf"/></g><g><use fill="#884036" xlink:href="#qxxrag"/></g><g><use fill="#8f4f25" xlink:href="#qxxrah"/></g><g><use fill="#f99c71" xlink:href="#qxxrai"/></g><g><use fill="#68d0dd" xlink:href="#qxxraj"/></g><g><use fill="#efb100" xlink:href="#qxxrak"/></g><g><use fill="#e90" xlink:href="#qxxral"/></g><g><use fill="#f99d6f" xlink:href="#qxxram"/></g><g><use fill="#ec614a" xlink:href="#qxxran"/></g><g><use fill="#fff" xlink:href="#qxxrao"/></g><g><use fill="#884036" xlink:href="#qxxrap"/></g><g><use fill="#52cbd9" xlink:href="#qxxraq"/></g><g><use fill="#e90" xlink:href="#qxxrar"/></g><g><use fill="#d8d8d8" xlink:href="#qxxras"/></g><g><use fill="#feffff" xlink:href="#qxxrat"/></g><g><use fill="#f99d6f" xlink:href="#qxxrau"/></g><g><use fill="#fff" fill-opacity="0" stroke="#cacdd5" stroke-dasharray="9.36 9.36" stroke-linecap="round" stroke-miterlimit="50" stroke-width=".72" xlink:href="#qxxrav"/></g><g><g><use fill="#fed060" xlink:href="#qxxraw"/></g><g><use fill="#f6b90d" xlink:href="#qxxrax"/></g><g><use fill="#ec9700" xlink:href="#qxxray"/></g></g><g><g><g><use fill="url(#qxxraA)" xlink:href="#qxxraz"/></g><g><use fill="url(#qxxraC)" xlink:href="#qxxraB"/></g><g><use fill="url(#qxxraE)" xlink:href="#qxxraD"/></g></g><g><g><g><g><use fill="#fff" fill-opacity="0" stroke="#fff" stroke-miterlimit="50" stroke-width="1.08" xlink:href="#qxxraF"/></g><g><use fill="#fff" xlink:href="#qxxraG"/></g><g><use fill="#fbc02d" xlink:href="#qxxraH"/></g><g><use fill="#9c6ce9" xlink:href="#qxxraI"/></g><g><use fill="#bf98ff" xlink:href="#qxxraJ"/></g></g></g><g><use fill="#fff" fill-opacity="0" stroke="#fff" stroke-dasharray="1.44 1.44" stroke-linecap="round" stroke-miterlimit="50" stroke-width=".5" xlink:href="#qxxraK"/></g><g><use fill="#fff" fill-opacity="0" stroke="#fff" stroke-dasharray="1.44 1.44" stroke-linecap="round" stroke-miterlimit="50" stroke-width=".5" xlink:href="#qxxraL"/></g><g><use fill="#fff" fill-opacity="0" stroke="#fff" stroke-dasharray="1.44 1.44" stroke-linecap="round" stroke-miterlimit="50" stroke-width=".5" xlink:href="#qxxraM"/></g></g></g></g></g></svg>