<?xml version="1.0" encoding="UTF-8"?>
<svg width="444px" height="470px" viewBox="0 0 444 470" version="1.1" xmlns="http://www.w3.org/2000/svg" xmlns:xlink="http://www.w3.org/1999/xlink">
    <!-- Generator: Sketch 49 (51002) - http://www.bohemiancoding.com/sketch -->
    <title>illustration</title>
    <desc>Created with Sketch.</desc>
    <defs>
        <radialGradient cx="50%" cy="50%" fx="50%" fy="50%" r="43.9122235%" gradientTransform="translate(0.500000,0.500000),scale(1.000000,0.957547),rotate(180.000000),translate(-0.500000,-0.500000)" id="radialGradient-1">
            <stop stop-color="#3C285F" offset="0%"></stop>
            <stop stop-color="#2B1C44" offset="100%"></stop>
        </radialGradient>
        <path d="M39.2,154.018769 C44.5962587,159.430386 50.6629253,161.73216 57.4,160.924092 C64.0321281,160.128612 69.6321281,156.612888 74.2,150.376918 L74.2,19.6 C74.2,8.7752189 82.9752189,1.98848003e-15 93.8,0 C104.624781,-1.98848003e-15 113.4,8.7752189 113.4,19.6 L113.4,59.3880698 C117.25077,64.254155 122.85077,66.381124 130.2,65.7689769 C137.711238,65.1433355 143.777904,62.0246153 148.4,56.4128161 L148.4,33.5933993 C148.4,22.7686182 157.175219,13.9933993 168,13.9933993 C178.824781,13.9933993 187.6,22.7686182 187.6,33.5933993 L187.6,90.8780511 C191.055985,96.4883329 196.655985,98.8469143 204.4,97.9537954 C212.144015,97.0606765 217.744015,93.4103966 221.2,87.0029559 L221.2,44.7881188 C221.2,33.9633377 229.975219,25.1881188 240.8,25.1881188 C251.624781,25.1881188 260.4,33.9633377 260.4,44.7881188 L260.4,56.1211671 C265.61633,61.5169028 271.682997,63.7999461 278.6,62.970297 C285.239571,62.1739241 290.372904,58.827526 294,52.9311026 L294,20.9993399 C294,10.1745588 302.775219,1.39933993 313.6,1.39933993 C324.424781,1.39933993 333.2,10.1745588 333.2,20.9993399 L333.2,138.534653 C334.318489,139.279961 339.281221,148.330033 350,148.330033 C357.145853,148.330033 362.745853,145.064906 366.8,138.534653 L366.8,110.557096 C366.8,99.7323146 375.575219,90.9570957 386.4,90.9570957 C397.224781,90.9570957 406,99.7323146 406,110.557096 L406,316.241584 C406,327.066365 397.224781,335.841584 386.4,335.841584 C375.575219,335.841584 366.8,327.066365 366.8,316.241584 L366.8,286.875981 C361.767203,282.203985 355.700537,279.867987 348.6,279.867987 C341.807787,279.867987 336.674454,283.074285 333.2,289.486883 L333.2,366.617822 C333.2,377.442603 324.424781,386.217822 313.6,386.217822 C302.775219,386.217822 294,377.442603 294,366.617822 L294,324.633578 C289.891426,317.17929 284.291426,313.452145 277.2,313.452145 C270.643991,313.452145 265.043991,316.000607 260.4,321.097529 L260.4,404.4 C260.4,415.224781 251.624781,424 240.8,424 C229.975219,424 221.2,415.224781 221.2,404.4 L221.2,334.922416 C216.676748,328.072048 210.610082,324.646865 203,324.646865 C195.808091,324.646865 190.674758,326.686264 187.599999,330.765063 L187.6,379.211881 C187.6,390.036662 178.824781,398.811881 168,398.811881 C157.175219,398.811881 148.4,390.036662 148.4,379.211881 L148.4,367.972017 C143.594784,363.343808 137.528118,361.029703 130.2,361.029703 C122.141067,361.029703 116.541067,363.828383 113.4,369.425743 L113.4,393.205281 C113.4,404.030062 104.624781,412.805281 93.8,412.805281 C82.9752189,412.805281 74.2,404.030062 74.2,393.205281 L74.2,321.595969 C70.0361893,313.368073 64.4361893,309.254125 57.4,309.254125 C50.2307768,309.254125 44.1641101,312.360296 39.2,318.572637 L39.2,333.033663 C39.2,343.858444 30.4247811,352.633663 19.6,352.633663 C8.7752189,352.633663 4.04055038e-14,343.858444 3.90798505e-14,333.033663 L0,127.349175 C-1.32565335e-15,116.524394 8.7752189,107.749175 19.6,107.749175 C30.4247811,107.749175 39.2,116.524394 39.2,127.349175 L39.2,154.018769 Z M19.6,83.960396 C9.54841755,83.960396 1.4,75.8158203 1.4,65.7689769 C1.4,55.7221335 9.54841755,47.5775578 19.6,47.5775578 C29.6515824,47.5775578 37.8,55.7221335 37.8,65.7689769 C37.8,75.8158203 29.6515824,83.960396 19.6,83.960396 Z M387.8,382.019802 C377.748418,382.019802 369.6,373.875226 369.6,363.828383 C369.6,353.781539 377.748418,345.636964 387.8,345.636964 C397.851582,345.636964 406,353.781539 406,363.828383 C406,373.875226 397.851582,382.019802 387.8,382.019802 Z" id="path-2"></path>
    </defs>
    <g id="Page-1" stroke="none" stroke-width="1" fill="none" fill-rule="evenodd">
        <g id="Homepage" transform="translate(-822.000000, -4185.000000)">
            <g id="illustration" transform="translate(822.000000, 4185.000000)">
                <g id="Layer_6" opacity="0.15" fill="#377DFF" fill-rule="nonzero">
                    <ellipse id="Oval" opacity="0.5" cx="430.478182" cy="147.986842" rx="10.4945455" ry="10.4912281"></ellipse>
                    <path d="M290.315455,17.3508772 C290.315455,24.9166667 284.16,30.9692982 276.692727,30.9692982 C269.124545,30.9692982 263.07,24.8157895 263.07,17.3508772 C263.07,9.78508772 269.225455,3.73245614 276.692727,3.73245614 C284.16,3.63157895 290.315455,9.78508772 290.315455,17.3508772 Z M102.725455,34.7017544 C102.725455,38.5350877 99.5972727,41.6622807 95.7627273,41.6622807 C91.9281818,41.6622807 88.8,38.5350877 88.8,34.7017544 C88.8,30.8684211 91.9281818,27.7412281 95.7627273,27.7412281 C99.5972727,27.7412281 102.725455,30.8684211 102.725455,34.7017544 Z M347.228182,47.9166667 C347.228182,51.75 344.1,54.877193 340.265455,54.877193 C336.430909,54.877193 333.302727,51.75 333.302727,47.9166667 C333.302727,44.0833333 336.430909,40.9561404 340.265455,40.9561404 C344.1,40.9561404 347.228182,44.0833333 347.228182,47.9166667 Z" id="Shape" opacity="0.5"></path>
                    <ellipse id="Oval" opacity="0.5" cx="181.434545" cy="6.96052632" rx="6.96272727" ry="6.96052632"></ellipse>
                    <path d="M443.798182,178.451754 C443.798182,180.065789 442.486364,181.276316 440.972727,181.276316 C439.358182,181.276316 438.147273,179.964912 438.147273,178.451754 C438.147273,176.837719 439.459091,175.627193 440.972727,175.627193 C442.587273,175.526316 443.798182,176.837719 443.798182,178.451754 Z M332.899091,22.8991228 C332.899091,24.1096491 331.89,25.0175439 330.78,25.0175439 C329.569091,25.0175439 328.660909,24.0087719 328.660909,22.8991228 C328.660909,21.6885965 329.67,20.7807018 330.78,20.7807018 C331.89,20.7807018 332.899091,21.6885965 332.899091,22.8991228 Z" id="Shape" opacity="0.5"></path>
                    <ellipse id="Oval" opacity="0.5" cx="123.21" cy="6.96052632" rx="2.82545455" ry="2.8245614"></ellipse>
                    <path d="M26.1354545,67.5877193 C26.1354545,69.6052632 24.5209091,71.3201754 22.4018182,71.3201754 C20.3836364,71.3201754 18.6681818,69.7061404 18.6681818,67.5877193 C18.6681818,65.5701754 20.2827273,63.8552632 22.4018182,63.8552632 C24.42,63.9561404 26.1354545,65.5701754 26.1354545,67.5877193 Z M437.844545,102.79386 C437.844545,104.811404 436.23,106.526316 434.110909,106.526316 C432.092727,106.526316 430.377273,104.912281 430.377273,102.79386 C430.377273,100.776316 431.991818,99.0614035 434.110909,99.0614035 C436.23,99.0614035 437.844545,100.776316 437.844545,102.79386 Z" id="Shape" opacity="0.5"></path>
                    <ellipse id="Oval" opacity="0.5" cx="59.3345455" cy="55.9868421" rx="15.7418182" ry="15.7368421"></ellipse>
                    <path d="M12.1090909,184.907895 C12.1090909,186.925439 10.4945455,188.640351 8.37545455,188.640351 C6.35727273,188.640351 4.64181818,187.026316 4.64181818,184.907895 C4.64181818,182.789474 6.25636364,181.175439 8.37545455,181.175439 C10.3936364,181.175439 12.1090909,182.890351 12.1090909,184.907895 Z" id="Shape" opacity="0.5"></path>
                    <ellipse id="Oval" opacity="0.5" cx="410.397273" cy="47.9166667" rx="15.2372727" ry="15.2324561"></ellipse>
                    <ellipse id="Oval" opacity="0.5" cx="12.1090909" cy="116.210526" rx="12.1090909" ry="12.1052632"></ellipse>
                    <path d="M428.46,229.394737 C428.46,200.947368 422.405455,173.811404 411.507273,149.399123 C415.442727,141.22807 417.662727,132.149123 417.662727,122.464912 C417.662727,88.1666667 389.912727,60.4254386 355.603636,60.4254386 C349.145455,60.4254386 342.99,61.4342105 337.137273,63.25 C306.662727,43.8815789 270.436364,32.5833333 231.586364,32.5833333 C226.742727,32.5833333 221.899091,32.7850877 217.156364,33.0877193 C208.68,26.7324561 198.084545,22.8991228 186.681818,22.8991228 C165.087273,22.8991228 146.620909,36.4166667 139.355455,55.4824561 C124.420909,63.4517544 110.596364,73.2368421 98.2854545,84.5350877 C94.2490909,83.627193 90.1118182,83.122807 85.7727273,83.122807 C54.6927273,83.122807 29.5663636,108.241228 29.5663636,139.311404 C29.5663636,152.828947 34.3090909,165.236842 42.2809091,174.921053 C37.3363636,192.171053 34.6118182,210.429825 34.6118182,229.29386 L428.46,229.394737 Z" id="Shape" opacity="0.47"></path>
                    <path d="M373.464545,228.991228 C373.464545,150.004386 309.488182,86.0482456 230.476364,86.0482456 C151.464545,86.0482456 87.4881818,150.004386 87.4881818,228.991228 L373.464545,228.991228 Z" id="Shape" opacity="0.47"></path>
                </g>
                <g id="Layer_6-Copy" opacity="0.15" transform="translate(222.000000, 355.000000) scale(1, -1) translate(-222.000000, -355.000000) translate(0.000000, 240.000000)" fill="#377DFF" fill-rule="nonzero">
                    <ellipse id="Oval" opacity="0.5" cx="430.478182" cy="147.986842" rx="10.4945455" ry="10.4912281"></ellipse>
                    <path d="M290.315455,17.3508772 C290.315455,24.9166667 284.16,30.9692982 276.692727,30.9692982 C269.124545,30.9692982 263.07,24.8157895 263.07,17.3508772 C263.07,9.78508772 269.225455,3.73245614 276.692727,3.73245614 C284.16,3.63157895 290.315455,9.78508772 290.315455,17.3508772 Z M102.725455,34.7017544 C102.725455,38.5350877 99.5972727,41.6622807 95.7627273,41.6622807 C91.9281818,41.6622807 88.8,38.5350877 88.8,34.7017544 C88.8,30.8684211 91.9281818,27.7412281 95.7627273,27.7412281 C99.5972727,27.7412281 102.725455,30.8684211 102.725455,34.7017544 Z M347.228182,47.9166667 C347.228182,51.75 344.1,54.877193 340.265455,54.877193 C336.430909,54.877193 333.302727,51.75 333.302727,47.9166667 C333.302727,44.0833333 336.430909,40.9561404 340.265455,40.9561404 C344.1,40.9561404 347.228182,44.0833333 347.228182,47.9166667 Z" id="Shape" opacity="0.5"></path>
                    <ellipse id="Oval" opacity="0.5" cx="181.434545" cy="6.96052632" rx="6.96272727" ry="6.96052632"></ellipse>
                    <path d="M443.798182,178.451754 C443.798182,180.065789 442.486364,181.276316 440.972727,181.276316 C439.358182,181.276316 438.147273,179.964912 438.147273,178.451754 C438.147273,176.837719 439.459091,175.627193 440.972727,175.627193 C442.587273,175.526316 443.798182,176.837719 443.798182,178.451754 Z M332.899091,22.8991228 C332.899091,24.1096491 331.89,25.0175439 330.78,25.0175439 C329.569091,25.0175439 328.660909,24.0087719 328.660909,22.8991228 C328.660909,21.6885965 329.67,20.7807018 330.78,20.7807018 C331.89,20.7807018 332.899091,21.6885965 332.899091,22.8991228 Z" id="Shape" opacity="0.5"></path>
                    <ellipse id="Oval" opacity="0.5" cx="123.21" cy="6.96052632" rx="2.82545455" ry="2.8245614"></ellipse>
                    <path d="M26.1354545,67.5877193 C26.1354545,69.6052632 24.5209091,71.3201754 22.4018182,71.3201754 C20.3836364,71.3201754 18.6681818,69.7061404 18.6681818,67.5877193 C18.6681818,65.5701754 20.2827273,63.8552632 22.4018182,63.8552632 C24.42,63.9561404 26.1354545,65.5701754 26.1354545,67.5877193 Z M437.844545,102.79386 C437.844545,104.811404 436.23,106.526316 434.110909,106.526316 C432.092727,106.526316 430.377273,104.912281 430.377273,102.79386 C430.377273,100.776316 431.991818,99.0614035 434.110909,99.0614035 C436.23,99.0614035 437.844545,100.776316 437.844545,102.79386 Z" id="Shape" opacity="0.5"></path>
                    <ellipse id="Oval" opacity="0.5" cx="59.3345455" cy="55.9868421" rx="15.7418182" ry="15.7368421"></ellipse>
                    <path d="M12.1090909,184.907895 C12.1090909,186.925439 10.4945455,188.640351 8.37545455,188.640351 C6.35727273,188.640351 4.64181818,187.026316 4.64181818,184.907895 C4.64181818,182.789474 6.25636364,181.175439 8.37545455,181.175439 C10.3936364,181.175439 12.1090909,182.890351 12.1090909,184.907895 Z" id="Shape" opacity="0.5"></path>
                    <ellipse id="Oval" opacity="0.5" cx="410.397273" cy="47.9166667" rx="15.2372727" ry="15.2324561"></ellipse>
                    <ellipse id="Oval" opacity="0.5" cx="12.1090909" cy="116.210526" rx="12.1090909" ry="12.1052632"></ellipse>
                    <path d="M428.46,229.394737 C428.46,200.947368 422.405455,173.811404 411.507273,149.399123 C415.442727,141.22807 417.662727,132.149123 417.662727,122.464912 C417.662727,88.1666667 389.912727,60.4254386 355.603636,60.4254386 C349.145455,60.4254386 342.99,61.4342105 337.137273,63.25 C306.662727,43.8815789 270.436364,32.5833333 231.586364,32.5833333 C226.742727,32.5833333 221.899091,32.7850877 217.156364,33.0877193 C208.68,26.7324561 198.084545,22.8991228 186.681818,22.8991228 C165.087273,22.8991228 146.620909,36.4166667 139.355455,55.4824561 C124.420909,63.4517544 110.596364,73.2368421 98.2854545,84.5350877 C94.2490909,83.627193 90.1118182,83.122807 85.7727273,83.122807 C54.6927273,83.122807 29.5663636,108.241228 29.5663636,139.311404 C29.5663636,152.828947 34.3090909,165.236842 42.2809091,174.921053 C37.3363636,192.171053 34.6118182,210.429825 34.6118182,229.29386 L428.46,229.394737 Z" id="Shape" opacity="0.47"></path>
                    <path d="M373.464545,228.991228 C373.464545,150.004386 309.488182,86.0482456 230.476364,86.0482456 C151.464545,86.0482456 87.4881818,150.004386 87.4881818,228.991228 L373.464545,228.991228 Z" id="Shape" opacity="0.47"></path>
                </g>
                <g id="smartphone" transform="translate(35.000000, 10.000000)">
                    <mask id="mask-3" fill="white">
                        <use xlink:href="#path-2"></use>
                    </mask>
                    <use id="Mask" fill="url(#radialGradient-1)" xlink:href="#path-2"></use>
                    <g id="Group-11" mask="url(#mask-3)" fill="#FFFFFF">
                        <g transform="translate(30.800000, 39.181518)">
                            <path d="M274.4,124.540594 L277.89736,124.540594 C278.283959,124.540594 278.59736,124.853995 278.59736,125.240594 L278.59736,126.640594 C278.59736,127.027193 278.283959,127.340594 277.89736,127.340594 L274.4,127.340594 L274.4,130.837954 C274.4,131.224553 274.086599,131.537954 273.7,131.537954 L272.3,131.537954 C271.913401,131.537954 271.6,131.224553 271.6,130.837954 L271.6,127.340594 L268.10264,127.340594 C267.716041,127.340594 267.40264,127.027193 267.40264,126.640594 L267.40264,125.240594 C267.40264,124.853995 267.716041,124.540594 268.10264,124.540594 L271.6,124.540594 L271.6,121.043234 C271.6,120.656635 271.913401,120.343234 272.3,120.343234 L273.7,120.343234 C274.086599,120.343234 274.4,120.656635 274.4,121.043234 L274.4,124.540594 Z" id="Combined-Shape"></path>
                            <path d="M351.4,216.89703 L354.89736,216.89703 C355.283959,216.89703 355.59736,217.21043 355.59736,217.59703 L355.59736,218.99703 C355.59736,219.383629 355.283959,219.69703 354.89736,219.69703 L351.4,219.69703 L351.4,223.194389 C351.4,223.580989 351.086599,223.894389 350.7,223.894389 L349.3,223.894389 C348.913401,223.894389 348.6,223.580989 348.6,223.194389 L348.6,219.69703 L345.10264,219.69703 C344.716041,219.69703 344.40264,219.383629 344.40264,218.99703 L344.40264,217.59703 C344.40264,217.21043 344.716041,216.89703 345.10264,216.89703 L348.6,216.89703 L348.6,213.39967 C348.6,213.013071 348.913401,212.69967 349.3,212.69967 L350.7,212.69967 C351.086599,212.69967 351.4,213.013071 351.4,213.39967 L351.4,216.89703 Z" id="Combined-Shape-Copy-2"></path>
                            <path d="M133,247.682508 L136.49736,247.682508 C136.883959,247.682508 137.19736,247.995909 137.19736,248.382508 L137.19736,249.782508 C137.19736,250.169108 136.883959,250.482508 136.49736,250.482508 L133,250.482508 L133,253.979868 C133,254.366467 132.686599,254.679868 132.3,254.679868 L130.9,254.679868 C130.513401,254.679868 130.2,254.366467 130.2,253.979868 L130.2,250.482508 L126.70264,250.482508 C126.316041,250.482508 126.00264,250.169108 126.00264,249.782508 L126.00264,248.382508 C126.00264,247.995909 126.316041,247.682508 126.70264,247.682508 L130.2,247.682508 L130.2,244.185149 C130.2,243.798549 130.513401,243.485149 130.9,243.485149 L132.3,243.485149 C132.686599,243.485149 133,243.798549 133,244.185149 L133,247.682508 Z" id="Combined-Shape-Copy-3"></path>
                            <path d="M7,233.689109 L10.4973597,233.689109 C10.8839591,233.689109 11.1973597,234.00251 11.1973597,234.389109 L11.1973597,235.789109 C11.1973597,236.175708 10.8839591,236.489109 10.4973597,236.489109 L7,236.489109 L7,239.986469 C7,240.373068 6.68659933,240.686469 6.30000001,240.686469 L4.89999999,240.686469 C4.51340067,240.686469 4.2,240.373068 4.2,239.986469 L4.2,236.489109 L0.702640252,236.489109 C0.316040934,236.489109 0.00264026403,236.175708 0.00264026403,235.789109 L0.00264026403,234.389109 C0.00264026403,234.00251 0.316040934,233.689109 0.702640252,233.689109 L4.2,233.689109 L4.2,230.191749 C4.2,229.80515 4.51340067,229.491749 4.89999999,229.491749 L6.30000001,229.491749 C6.68659933,229.491749 7,229.80515 7,230.191749 L7,233.689109 Z" id="Combined-Shape-Copy-4"></path>
                            <path d="M148.4,93.7551155 L151.89736,93.7551155 C152.283959,93.7551155 152.59736,94.0685162 152.59736,94.4551155 L152.59736,95.8551155 C152.59736,96.2417148 152.283959,96.5551155 151.89736,96.5551155 L148.4,96.5551155 L148.4,100.052475 C148.4,100.439075 148.086599,100.752475 147.7,100.752475 L146.3,100.752475 C145.913401,100.752475 145.6,100.439075 145.6,100.052475 L145.6,96.5551155 L142.10264,96.5551155 C141.716041,96.5551155 141.40264,96.2417148 141.40264,95.8551155 L141.40264,94.4551155 C141.40264,94.0685162 141.716041,93.7551155 142.10264,93.7551155 L145.6,93.7551155 L145.6,90.2577558 C145.6,89.8711564 145.913401,89.5577558 146.3,89.5577558 L147.7,89.5577558 C148.086599,89.5577558 148.4,89.8711564 148.4,90.2577558 L148.4,93.7551155 Z" id="Combined-Shape-Copy-5"></path>
                            <path d="M138.6,4.19735974 L142.09736,4.19735974 C142.483959,4.19735974 142.79736,4.51076041 142.79736,4.89735972 L142.79736,6.29735975 C142.79736,6.68395907 142.483959,6.99735974 142.09736,6.99735974 L138.6,6.99735974 L138.6,10.4947195 C138.6,10.8813188 138.286599,11.1947195 137.9,11.1947195 L136.5,11.1947195 C136.113401,11.1947195 135.8,10.8813188 135.8,10.4947195 L135.8,6.99735974 L132.30264,6.99735974 C131.916041,6.99735974 131.60264,6.68395907 131.60264,6.29735975 L131.60264,4.89735972 C131.60264,4.51076041 131.916041,4.19735974 132.30264,4.19735974 L135.8,4.19735974 L135.8,0.699999988 C135.8,0.31340067 136.113401,7.10171427e-17 136.5,0 L137.9,0 C138.286599,-7.10171427e-17 138.6,0.31340067 138.6,0.699999988 L138.6,4.19735974 Z" id="Combined-Shape-Copy-6"></path>
                            <path d="M58.45,204.65297 L60.8980198,204.65297 C61.2846191,204.65297 61.5980198,204.966371 61.5980198,205.35297 L61.5980198,206.05297 C61.5980198,206.43957 61.2846191,206.75297 60.8980198,206.75297 L58.45,206.75297 L58.45,209.20099 C58.45,209.587589 58.1365993,209.90099 57.75,209.90099 L57.05,209.90099 C56.6634007,209.90099 56.35,209.587589 56.35,209.20099 L56.35,206.75297 L53.9019802,206.75297 C53.5153809,206.75297 53.2019802,206.43957 53.2019802,206.05297 L53.2019802,205.35297 C53.2019802,204.966371 53.5153809,204.65297 53.9019802,204.65297 L56.35,204.65297 L56.35,202.20495 C56.35,201.818351 56.6634007,201.50495 57.05,201.50495 L57.75,201.50495 C58.1365993,201.50495 58.45,201.818351 58.45,202.20495 L58.45,204.65297 Z" id="Combined-Shape-Copy-7"></path>
                            <path d="M226.45,40.930198 L228.89802,40.930198 C229.284619,40.930198 229.59802,41.2435987 229.59802,41.630198 L229.59802,42.330198 C229.59802,42.7167974 229.284619,43.030198 228.89802,43.030198 L226.45,43.030198 L226.45,45.4782178 C226.45,45.8648172 226.136599,46.1782178 225.75,46.1782178 L225.05,46.1782178 C224.663401,46.1782178 224.35,45.8648172 224.35,45.4782178 L224.35,43.030198 L221.90198,43.030198 C221.515381,43.030198 221.20198,42.7167974 221.20198,42.330198 L221.20198,41.630198 C221.20198,41.2435987 221.515381,40.930198 221.90198,40.930198 L224.35,40.930198 L224.35,38.4821782 C224.35,38.0955789 224.663401,37.7821782 225.05,37.7821782 L225.75,37.7821782 C226.136599,37.7821782 226.45,38.0955789 226.45,38.4821782 L226.45,40.930198 Z" id="Combined-Shape-Copy-8"></path>
                            <path d="M229.25,243.834488 L231.69802,243.834488 C232.084619,243.834488 232.39802,244.147889 232.39802,244.534488 L232.39802,245.234488 C232.39802,245.621088 232.084619,245.934488 231.69802,245.934488 L229.25,245.934488 L229.25,248.382508 C229.25,248.769108 228.936599,249.082508 228.55,249.082508 L227.85,249.082508 C227.463401,249.082508 227.15,248.769108 227.15,248.382508 L227.15,245.934488 L224.70198,245.934488 C224.315381,245.934488 224.00198,245.621088 224.00198,245.234488 L224.00198,244.534488 C224.00198,244.147889 224.315381,243.834488 224.70198,243.834488 L227.15,243.834488 L227.15,241.386469 C227.15,240.999869 227.463401,240.686469 227.85,240.686469 L228.55,240.686469 C228.936599,240.686469 229.25,240.999869 229.25,241.386469 L229.25,243.834488 Z" id="Combined-Shape-Copy-9"></path>
                            <path d="M201.25,316.600165 L203.69802,316.600165 C204.084619,316.600165 204.39802,316.913566 204.39802,317.300165 L204.39802,318.000165 C204.39802,318.386764 204.084619,318.700165 203.69802,318.700165 L201.25,318.700165 L201.25,321.148185 C201.25,321.534784 200.936599,321.848185 200.55,321.848185 L199.85,321.848185 C199.463401,321.848185 199.15,321.534784 199.15,321.148185 L199.15,318.700165 L196.70198,318.700165 C196.315381,318.700165 196.00198,318.386764 196.00198,318.000165 L196.00198,317.300165 C196.00198,316.913566 196.315381,316.600165 196.70198,316.600165 L199.15,316.600165 L199.15,314.152145 C199.15,313.765546 199.463401,313.452145 199.85,313.452145 L200.55,313.452145 C200.936599,313.452145 201.25,313.765546 201.25,314.152145 L201.25,316.600165 Z" id="Combined-Shape-Copy-10"></path>
                            <path d="M78.05,299.808086 L80.4980198,299.808086 C80.8846191,299.808086 81.1980198,300.121486 81.1980198,300.508086 L81.1980198,301.208086 C81.1980198,301.594685 80.8846191,301.908086 80.4980198,301.908086 L78.05,301.908086 L78.05,304.356106 C78.05,304.742705 77.7365993,305.056106 77.35,305.056106 L76.65,305.056106 C76.2634007,305.056106 75.95,304.742705 75.95,304.356106 L75.95,301.908086 L73.5019802,301.908086 C73.1153809,301.908086 72.8019802,301.594685 72.8019802,301.208086 L72.8019802,300.508086 C72.8019802,300.121486 73.1153809,299.808086 73.5019802,299.808086 L75.95,299.808086 L75.95,297.360066 C75.95,296.973467 76.2634007,296.660066 76.65,296.660066 L77.35,296.660066 C77.7365993,296.660066 78.05,296.973467 78.05,297.360066 L78.05,299.808086 Z" id="Combined-Shape-Copy-11"></path>
                            <path d="M353.85,134.685974 L356.29802,134.685974 C356.684619,134.685974 356.99802,134.999374 356.99802,135.385974 L356.99802,136.085974 C356.99802,136.472573 356.684619,136.785974 356.29802,136.785974 L353.85,136.785974 L353.85,139.233993 C353.85,139.620593 353.536599,139.933993 353.15,139.933993 L352.45,139.933993 C352.063401,139.933993 351.75,139.620593 351.75,139.233993 L351.75,136.785974 L349.30198,136.785974 C348.915381,136.785974 348.60198,136.472573 348.60198,136.085974 L348.60198,135.385974 C348.60198,134.999374 348.915381,134.685974 349.30198,134.685974 L351.75,134.685974 L351.75,132.237954 C351.75,131.851354 352.063401,131.537954 352.45,131.537954 L353.15,131.537954 C353.536599,131.537954 353.85,131.851354 353.85,132.237954 L353.85,134.685974 Z" id="Combined-Shape-Copy"></path>
                        </g>
                    </g>
                    <g mask="url(#mask-3)">
                        <g transform="translate(308.000000, 201.504950)">
                            <polygon id="Rectangle-path" fill="#C8D2D6" fill-rule="nonzero" points="25.5535318 64.2742274 58.3898955 64.2742274 58.3898955 93.3105311 25.5535318 93.3105311"></polygon>
                            <path d="M47.4444409,89.1125113 L25.5535318,89.1125113 L25.5535318,64.2742274 L38.4500136,64.2742274 C43.4178818,64.2742274 47.4444409,68.2988881 47.4444409,73.264414 L47.4444409,89.1125113 Z" id="Shape" fill="#E7ECED" fill-rule="nonzero"></path>
                            <ellipse id="Oval" fill="#7383BF" fill-rule="nonzero" cx="38.5512591" cy="71.7956796" rx="3.42045455" ry="3.41884188"></ellipse>
                            <path d="M36.3676409,14.6353783 C38.0546091,13.8941734 39.23535,12.2148383 39.23535,10.2565257 C39.23535,7.61307711 37.0914091,5.47014701 34.4467136,5.47014701 C32.4861091,5.47014701 30.8059818,6.65033123 30.0657955,8.33650405 L36.3676409,14.6353783 Z" id="Shape" fill="#FBCE9D" fill-rule="nonzero"></path>
                            <path d="M43.20855,21.4730621 C44.8955182,20.7318572 46.0762591,19.0525221 46.0762591,17.0942094 C46.0762591,14.4507609 43.9323182,12.3078308 41.2876227,12.3078308 C39.3270182,12.3078308 37.6468909,13.488015 36.9067045,15.1741878 L43.20855,21.4730621 Z" id="Shape" fill="#FBCE9D" fill-rule="nonzero"></path>
                            <path d="M50.0494591,28.3107459 C51.7364273,27.569541 52.9171682,25.8902058 52.9171682,23.9318932 C52.9171682,21.2884446 50.7732273,19.1455146 48.1285318,19.1455146 C46.1679273,19.1455146 44.4878,20.3256988 43.7476136,22.0118716 L50.0494591,28.3107459 Z" id="Shape" fill="#FBCE9D" fill-rule="nonzero"></path>
                            <path d="M56.8903682,35.1484296 C58.5773364,34.4072247 59.7580773,32.7278896 59.7580773,30.769577 C59.7580773,28.1261284 57.6141364,25.9831983 54.9694409,25.9831983 C53.0088364,25.9831983 51.3287091,27.1633825 50.5885227,28.8495554 L56.8903682,35.1484296 Z" id="Shape" fill="#FBCE9D" fill-rule="nonzero"></path>
                            <path d="M57.2077864,43.1635626 L41.9936045,58.3705713 C40.7677136,59.5958842 38.7797455,59.5958842 37.5552227,58.3705713 L24.3084864,45.1287129 L15.2935364,45.1287129 C14.5027273,45.5157258 12.3451045,44.1194707 13.1728545,44.8292223 L27.9656364,59.5575932 C28.0668818,59.6587909 28.1845455,59.7312703 28.2912636,59.8228953 L28.2912636,64.2742274 L55.6549,64.2742274 L55.6549,58.1066367 C58.1436227,56.2344788 59.7594455,53.2682916 59.7594455,49.9150915 C59.7580773,47.3263444 58.7907727,44.9687111 57.2077864,43.1635626 Z" id="Shape" fill="#F7B563" fill-rule="nonzero"></path>
                            <path d="M25.6794045,3.95081368 L4.3946,25.225583 L14.7818364,35.607922 C14.9528591,35.590144 15.1184091,35.5559556 15.2921682,35.5559556 L28.9739864,35.5559556 C31.6077364,35.5559556 33.7626227,37.709826 33.7626227,40.3423342 C33.7626227,42.9748425 31.6077364,45.1287129 28.9739864,45.1287129 L24.3071182,45.1287129 L33.0019136,53.8194089 L54.28535,32.5446397 L25.6794045,3.95081368 Z" id="Shape" fill="#4D3478" fill-rule="nonzero"></path>
                            <g id="logo" stroke-width="1" fill="none" fill-rule="evenodd" transform="translate(28.047727, 27.350735) rotate(-45.000000) translate(-28.047727, -27.350735) translate(16.418182, 19.145515)">
                                <path d="M5.37701151,16.2123421 L5.37701151,14.6106026 C7.48070634,14.6106026 9.18640486,12.8308921 9.18640486,10.6359157 L10.7215335,10.6359157 C10.7215335,13.7122725 8.32543322,16.2123421 5.37701151,16.2123421 Z" id="Shape" fill="#1273B6" fill-rule="nonzero"></path>
                                <polygon id="Shape" fill="#8CC540" fill-rule="nonzero" points="9.18640486 10.6359157 10.7215335 10.6359157 10.7215335 16.2123421 9.18640486 16.2123421"></polygon>
                                <path d="M13.5968539,10.6359157 L12.0617252,10.6359157 C12.0617252,13.7122725 14.4578255,16.2123421 17.4062472,16.2123421 L17.4062472,14.6106026 C15.3025524,14.6106026 13.5968539,12.8224172 13.5968539,10.6359157 Z" id="Shape" fill="#FDBB25" fill-rule="nonzero"></path>
                                <polyline id="Shape" fill="#FEDD10" fill-rule="nonzero" points="12.0536028 10.6359157 12.0536028 0.245796183 13.5968539 0.245796183 13.5968539 10.6359157"></polyline>
                                <path d="M1.56761816,10.6359157 L0.032489495,10.6359157 C0.032489495,7.55955897 2.42858979,5.05948942 5.37701151,5.05948942 L5.37701151,6.66122889 C3.27331667,6.66122889 1.56761816,8.44093942 1.56761816,10.6359157 Z" id="Shape" fill="#2AB1D6" fill-rule="nonzero"></path>
                                <path d="M5.37701151,16.2123421 C2.42858979,16.2123421 0.032489495,13.7122725 0.032489495,10.6359157 L1.56761816,10.6359157 C1.56761816,12.8308921 3.27331667,14.6106026 5.37701151,14.6106026 L5.37701151,16.2123421 Z" id="Shape" fill="#1D8BC0" fill-rule="nonzero"></path>
                                <path d="M10.7215335,10.6359157 L9.18640486,10.6359157 C9.18640486,8.44093942 7.48070634,6.66122889 5.37701151,6.66122889 L5.37701151,5.05948942 C8.32543322,5.05948942 10.7215335,7.55955897 10.7215335,10.6359157 Z" id="Shape" fill="#D7DE27" fill-rule="nonzero"></path>
                                <path d="M17.4062472,16.2123421 L17.4062472,14.6106026 C19.5099421,14.6106026 21.2156406,12.8308921 21.2156406,10.6359157 L22.7507692,10.6359157 C22.7507692,13.7122725 20.3546689,16.2123421 17.4062472,16.2123421 Z" id="Shape" fill="#F69320" fill-rule="nonzero"></path>
                                <path d="M22.7507692,10.6359157 L21.2156406,10.6359157 C21.2156406,8.44093942 19.5099421,6.66122889 17.4062472,6.66122889 L17.4062472,5.05948942 C20.3546689,5.05948942 22.7507692,7.55955897 22.7507692,10.6359157 Z" id="Shape" fill="#D7DE27" fill-rule="nonzero"></path>
                                <path d="M14.7339862,5.80527288 L14.7339862,7.80532852 C15.424388,7.0934443 16.3665834,6.66122889 17.4062472,6.66122889 L17.4062472,5.05948942 C16.4315624,5.05948942 15.5218565,5.3306834 14.7339862,5.80527288 Z" id="Shape" fill="#8CC540" fill-rule="nonzero"></path>
                            </g>
                            <path d="M28.9739864,45.1287129 L15.2921682,45.1287129 C12.6584182,45.1287129 10.5035318,42.9748425 10.5035318,40.3423342 C10.5035318,37.709826 12.6584182,35.5559556 15.2921682,35.5559556 L28.9739864,35.5559556 C31.6077364,35.5559556 33.7626227,37.709826 33.7626227,40.3423342 C33.7626227,42.9748425 31.6077364,45.1287129 28.9739864,45.1287129 Z" id="Shape" fill="#FBCE9D" fill-rule="nonzero"></path>
                            <g id="Group" stroke-width="1" fill="none" fill-rule="evenodd">
                                <path d="M25.6794045,3.95081368 L22.6461455,0.918984698 C21.4202545,-0.306328233 19.4322864,-0.306328233 18.2077636,0.918984698 L1.36134091,17.7560972 C0.13545,18.9814101 0.13545,20.968441 1.36134091,22.193754 L4.3946,25.225583 L25.6794045,3.95081368 Z" id="Shape" fill="#E7ECED" fill-rule="nonzero"></path>
                                <path d="M58.8386591,37.095802 L54.28535,32.5446397 L33.0019136,53.8194089 L37.5538545,58.3692037 C38.7797455,59.5945167 40.7677136,59.5945167 41.9922364,58.3692037 L58.8372909,41.5320912 C60.06455,40.3081458 60.06455,38.3211149 58.8386591,37.095802 Z" id="Shape" fill="#E7ECED" fill-rule="nonzero"></path>
                            </g>
                            <ellipse id="Oval" fill="#FFFFFF" fill-rule="nonzero" cx="46.76035" cy="45.8124812" rx="2.73636364" ry="2.73507351"></ellipse>
                            <path d="M11.8717136,15.0429043 C11.5214591,15.0429043 11.1712045,14.9088857 10.9044091,14.642216 C10.36945,14.1075092 10.36945,13.2432259 10.9044091,12.7085191 L13.6407727,9.97344554 C14.1757318,9.43873867 15.0404227,9.43873867 15.5753818,9.97344554 C16.1103409,10.5081524 16.1103409,11.3724356 15.5753818,11.9071425 L12.8390182,14.642216 C12.5722227,14.9088857 12.2219682,15.0429043 11.8717136,15.0429043 Z" id="Shape" fill="#424A60" fill-rule="nonzero"></path>
                        </g>
                    </g>
                    <g id="chatting" transform="translate(11.200000, 68.567657)" fill-rule="nonzero">
                        <path d="M62.4236218,25.1881188 L9.05921841,25.1881188 C4.16740167,25.1881188 0.165235146,29.1757739 0.165235146,34.0492957 L0.165235146,65.0636659 C0.165235146,69.9374387 4.16765356,73.9248429 9.05921841,73.9248429 L37.9650418,73.9248429 L37.9650418,82.3272763 C37.9650418,83.3142774 39.1627448,83.8081544 39.8627272,83.110503 L49.0826469,73.9250938 L62.4238736,73.9250938 C67.3156904,73.9250938 71.3178569,69.9374387 71.3178569,65.0639169 L71.3178569,34.0492957 C71.317605,29.1757739 67.3154385,25.1881188 62.4236218,25.1881188 Z" id="Shape" fill="#E4EAF6"></path>
                        <path d="M17.9532017,38.4801352 L11.2828402,38.4801352 C10.0539038,38.4801352 9.05921841,37.488115 9.05921841,36.2647154 C9.05921841,35.0413159 10.0536519,34.0492957 11.2828402,34.0492957 L17.9534536,34.0492957 C19.18239,34.0492957 20.1770753,35.0413159 20.1770753,36.2647154 C20.1770753,37.488115 19.18239,38.4801352 17.9532017,38.4801352 Z" id="Shape" fill="#AFB9D2"></path>
                        <g id="Group" transform="translate(8.815900, 33.971500)" fill="#C7CFE2">
                            <path d="M51.3843523,4.50863508 L18.0315372,4.50863508 C16.8026008,4.50863508 15.8079155,3.5166149 15.8079155,2.29321537 C15.8079155,1.06981584 16.802349,0.0777956626 18.0315372,0.0777956626 L51.3843523,0.0777956626 C52.6132887,0.0777956626 53.6079741,1.06981584 53.6079741,2.29321537 C53.6079741,3.5166149 52.6132887,4.50863508 51.3843523,4.50863508 Z" id="Shape"></path>
                            <path d="M51.3843523,13.369812 L2.46694059,13.369812 C1.23800418,13.369812 0.243318828,12.3777918 0.243318828,11.1543923 C0.243318828,9.93099276 1.2377523,8.93897259 2.46694059,8.93897259 L51.3843523,8.93897259 C52.6132887,8.93897259 53.6079741,9.93099276 53.6079741,11.1543923 C53.6077222,12.3777918 52.6132887,13.369812 51.3843523,13.369812 Z" id="Shape"></path>
                        </g>
                        <path d="M60.2002519,56.202489 L53.5296385,56.202489 C52.3007021,56.202489 51.3060167,55.2104688 51.3060167,53.9870693 C51.3060167,52.7636698 52.3004502,51.7716496 53.5296385,51.7716496 L60.2002519,51.7716496 C61.4291883,51.7716496 62.4238736,52.7636698 62.4238736,53.9870693 C62.4236218,55.2107198 61.4291883,56.202489 60.2002519,56.202489 Z" id="Shape" fill="#AFB9D2"></path>
                        <g id="Group" transform="translate(8.815900, 51.538263)" fill="#C7CFE2">
                            <path d="M35.8195038,4.6642264 L2.46694059,4.6642264 C1.23800418,4.6642264 0.243318828,3.67220623 0.243318828,2.4488067 C0.243318828,1.22540716 1.2377523,0.233386988 2.46694059,0.233386988 L35.8197556,0.233386988 C37.0486921,0.233386988 38.0433774,1.22540716 38.0433774,2.4488067 C38.0431255,3.67245718 37.0486921,4.6642264 35.8195038,4.6642264 Z" id="Shape"></path>
                            <path d="M51.3843523,13.5256543 L2.46694059,13.5256543 C1.23800418,13.5256543 0.243318828,12.5336341 0.243318828,11.3102346 C0.243318828,10.086835 1.2377523,9.09481487 2.46694059,9.09481487 L51.3843523,9.09481487 C52.6132887,9.09481487 53.6079741,10.086835 53.6079741,11.3102346 C53.6077222,12.5336341 52.6132887,13.5256543 51.3843523,13.5256543 Z" id="Shape"></path>
                        </g>
                        <polygon id="Shape" fill="#E6AF78" points="38.3070987 136.29488 38.3070987 129.137679 19.8347665 129.137679 19.8347665 136.29488 29.0708067 144.474216"></polygon>
                        <path d="M52.5881004,139.642603 L39.8894268,136.66579 C39.6977439,136.620869 39.5211741,136.544579 39.3564427,136.451977 L29.0710586,142.429194 L19.1864201,136.162377 C18.9305071,136.402539 18.6131347,136.580717 18.2521866,136.665288 L5.55351297,139.642101 C3.69915146,140.077255 2.38860502,141.72577 2.38860502,143.623483 L2.38860502,151.631417 C2.38860502,152.760709 3.30747364,153.676439 4.44119833,153.676439 L53.7006669,153.676439 C54.8341397,153.676439 55.7532603,152.76096 55.7532603,151.631417 L55.7532603,143.623483 C55.7530084,141.726021 54.4427138,140.077255 52.5881004,139.642603 Z" id="Shape" fill="#9C6CE9"></path>
                        <path d="M19.8347665,129.137679 L19.8347665,136.689129 C31.4699908,140.865501 38.3070987,130.412775 38.3070987,130.412775 L38.3070987,129.137679 L19.8347665,129.137679 Z" id="Shape" fill="#D29B6E"></path>
                        <path d="M15.7298318,105.620803 L16.6242678,125.222801 C16.7078929,127.05401 17.6091297,128.751963 19.0808812,129.851894 L23.3240996,133.022443 C24.3900678,133.818971 25.6862569,134.249356 27.0184653,134.249356 L31.1234,134.249356 C32.4556084,134.249356 33.7520494,133.81872 34.8177657,133.022443 L39.0609841,129.851894 C40.5329874,128.751963 41.4339724,127.05401 41.5175975,125.222801 L42.4117816,105.620803 L15.7298318,105.620803 Z" id="Shape" fill="#F0C087"></path>
                        <path d="M25.9920427,109.711099 C30.0969774,109.711099 36.2545054,108.688713 37.7149222,105.621305 L15.7298318,105.621305 L16.6240159,125.223303 C16.707641,127.054512 17.6088778,128.752465 19.0806293,129.852396 L23.3238477,133.023196 C24.3898159,133.819723 25.686005,134.250109 27.0182134,134.250109 L29.0708067,134.250109 C27.0182134,134.250109 22.9132787,130.160316 22.9132787,125.047886 C22.9132787,122.547634 22.9132787,115.845663 22.9132787,112.778255 C22.9135305,111.755619 23.9394494,109.711099 25.9920427,109.711099 Z" id="Shape" fill="#E6AF78"></path>
                        <g id="Group" transform="translate(2.266946, 140.877798)" fill="#59447F">
                            <path d="M45.9522469,6.1629222 L52.6022059,0.211303058 C53.1593707,0.914475466 53.4863146,1.79883648 53.4863146,2.74593594 L53.4863146,10.7538701 C53.4863146,11.883162 52.567446,12.7988922 51.4337213,12.7988922 L44.2500226,12.7988922 L44.2500226,9.96637724 C44.2500226,8.5151117 44.8688987,7.13235654 45.9522469,6.1629222 Z" id="Shape"></path>
                            <path d="M7.65547531,6.1629222 L1.00551632,0.211303058 C0.448351464,0.914475466 0.121407531,1.79883648 0.121407531,2.74593594 L0.121407531,10.7538701 C0.121407531,11.883162 1.04027615,12.7988922 2.17400084,12.7988922 L9.35769966,12.7988922 L9.35769958,9.96637724 C9.35795146,8.5151117 8.73907531,7.13235654 7.65547531,6.1629222 Z" id="Shape"></path>
                        </g>
                        <polygon id="Shape" fill="#5B5D6E" points="31.6364854 153.676439 26.505128 153.676439 27.1466736 144.474216 30.9951916 144.474216"></polygon>
                        <path d="M31.6364854,142.429194 L26.505128,142.429194 L26.505128,143.019939 C26.505128,144.387888 27.6179464,145.496601 28.9909598,145.496601 L29.1501498,145.496601 C30.5231632,145.496601 31.6359816,144.387888 31.6359816,143.019939 L31.6359816,142.429194 L31.6364854,142.429194 Z" id="Shape" fill="#515262"></path>
                        <g id="Group" transform="translate(16.624268, 133.600139)" fill="#59447F">
                            <path d="M3.06642176,0.418088948 L12.4465389,8.82905484 C12.4465389,8.82905484 9.81940084,10.1503263 6.57766862,12.8131966 C5.90891967,13.3625343 4.89735816,13.1399384 4.53867699,12.3537003 L0.131734728,2.69398851 L1.52590628,0.610570475 C1.87300084,0.0921000264 2.60119414,0.001003815 3.06642176,0.418088948 Z" id="Shape"></path>
                            <path d="M21.8269079,0.418088948 L12.4467908,8.82905484 C12.4467908,8.82905484 15.0739289,10.1503263 18.3156611,12.8131966 C18.98441,13.3625343 19.9959715,13.1399384 20.3546527,12.3537003 L24.761595,2.69398851 L23.3674234,0.610570475 C23.0203289,0.0921000264 22.2921356,0.001003815 21.8269079,0.418088948 Z" id="Shape"></path>
                        </g>
                        <path d="M35.2925649,98.8473108 L36.2547573,105.621305 C40.6465866,106.496381 41.2793163,113.362978 41.3704979,115.324432 C41.3871222,115.680285 41.5012251,116.024091 41.694923,116.323479 L43.3706996,118.913071 C43.3706996,118.913071 42.7969105,114.631298 45.4232929,111.75587 C45.423041,111.755619 46.3245297,94.7575175 35.2925649,98.8473108 Z" id="Shape" fill="#785550"></path>
                        <path d="M44.4001448,118.475407 L43.2412318,123.09396 C43.1039556,123.641039 42.6102653,124.024999 42.0440326,124.024999 C41.4216301,124.024999 40.8969582,123.563495 40.8196301,122.948407 L40.2269498,118.224454 C40.0685155,116.961152 41.0571556,115.845412 42.3349573,115.845412 L42.3392393,115.845412 C43.7210686,115.845663 44.7354008,117.139581 44.4001448,118.475407 Z" id="Shape" fill="#F0C087"></path>
                        <path d="M16.7131824,97.0155993 L18.2312803,98.048525 C11.3684803,103.096962 12.6510678,111.75587 12.6510678,111.75587 C14.7036611,113.800892 14.7036611,118.913071 14.7036611,118.913071 L16.7562544,116.868049 C16.7562544,116.868049 15.9640828,110.960848 19.8350184,108.688462 C23.4268678,106.579698 26.5698619,107.666076 29.7765824,107.666076 C38.3713289,107.666076 40.7765582,104.438811 40.3596921,100.508876 C40.1440803,98.4751463 37.0232519,94.2395489 29.0710586,94.3740602 C25.8615674,94.4282662 19.8347665,95.3964457 16.7131824,97.0155993 Z" id="Shape" fill="#694B4B"></path>
                        <path d="M16.1147088,106.771175 C16.1147088,106.771175 15.0243079,102.489403 18.2312803,98.048274 C11.3684803,103.096711 12.6510678,111.755619 12.6510678,111.755619 C14.7036611,113.800641 14.7036611,118.91282 14.7036611,118.91282 L16.7562544,116.867798 C16.7562544,116.867798 15.9640828,110.960597 19.8350184,108.688211 C23.4268678,106.579447 26.5698619,107.665826 29.7765824,107.665826 C31.1742803,107.665826 32.3926377,107.572471 33.4772452,107.412613 C26.8580159,107.634205 22.9560987,102.638971 16.1147088,106.771175 Z" id="Shape" fill="#5A4146"></path>
                        <path d="M13.7417205,118.475407 L14.9006335,123.09396 C15.0379096,123.641039 15.5316,124.024999 16.0978326,124.024999 C16.7202351,124.024999 17.2449071,123.563495 17.3222351,122.948407 L17.9149155,118.224454 C18.0733498,116.961152 17.0847096,115.845412 15.8069079,115.845412 L15.8026259,115.845412 C14.4207967,115.845663 13.4064644,117.139581 13.7417205,118.475407 Z" id="Shape" fill="#E6AF78"></path>
                        <path d="M41.3858628,151.631417 L36.2545054,151.631417 C35.1210326,151.631417 34.2019121,152.546896 34.2019121,153.676439 L43.4382042,153.676439 C43.4382042,152.546896 42.5193356,151.631417 41.3858628,151.631417 Z" id="Shape" fill="#59447F"></path>
                        <g id="Group-10" transform="translate(243.600000, 0.000000)">
                            <path d="M22.4824536,1.27979866 C1.77995063,1.27979866 4.075359,26.362626 4.16981506,44.5397081 C4.17334142,45.2260666 4.53428954,45.8451695 5.12445105,46.1995162 C7.4186,47.5775032 13.7189456,50.7987455 22.4824536,50.7987455 C31.2459615,50.7987455 37.5463071,47.5775032 39.8404561,46.1995162 C40.4306176,45.8451695 40.7915657,45.2260666 40.7950921,44.5397081 C40.8895481,26.3631279 43.1849565,1.27979866 22.4824536,1.27979866 Z" id="Shape" fill="#694B4B"></path>
                            <path d="M21.148482,1.33174609 C1.89430544,2.40733386 4.07737406,26.7674144 4.16981506,44.5397081 C4.17334142,45.2260666 4.53428954,45.8451695 5.12445105,46.1995162 C7.4186,47.5775032 13.7189456,50.7987455 22.4824536,50.7987455 L27.7143121,14.3110741" id="Shape" fill="#5A4146"></path>
                            <path d="M22.4824536,1.27979866 C10.7109607,1.27979866 9.89334895,15.4511569 9.89334895,15.4511569 C16.6783172,14.3108231 20.847482,17.1614068 27.7143121,14.3108231 L22.4824536,50.7987455 C31.2462134,50.7987455 37.5463071,47.5775032 39.8404561,46.1995162 C40.4306176,45.8451695 40.7915657,45.2260666 40.7950921,44.5397081 C40.8895481,26.3631279 43.1849565,1.27979866 22.4824536,1.27979866 Z" id="Shape" fill="#694B4B"></path>
                            <path d="M40.7948402,44.5397081 C40.8759464,28.9205976 42.5683473,8.21716414 29.9112343,2.69567972 C29.6905849,3.83827215 29.290595,7.02789431 30.3298636,9.09851371 C32.9459188,14.3110741 35.5617222,14.3110741 38.1775255,18.2204316 C40.7935808,32.5549098 33.1794142,47.7692319 30.6502586,49.8403532 C35.1310025,48.7785678 38.3427607,47.0986834 39.8399523,46.1995162 C40.4303657,45.8451695 40.7913138,45.2263175 40.7948402,44.5397081 Z" id="Shape" fill="#785550"></path>
                            <path d="M42.3028628,48.4932334 L30.6318711,43.6483203 C29.6570845,43.2437829 29.0220879,42.2946758 29.0220879,41.2424267 L29.0220879,38.0934591 L15.9425674,38.0934591 L15.9425674,41.2424267 C15.9425674,42.2946758 15.3075707,43.2437829 14.3327841,43.6483203 L2.66179247,48.4932334 C1.19961255,49.1002906 0.246991632,50.5234493 0.246991632,52.1019484 L0.246991632,57.3145087 C0.246991632,58.7539794 1.41824686,59.9209144 2.86304686,59.9209144 L42.1013565,59.9209144 C43.5461565,59.9209144 44.7174117,58.7539794 44.7174117,57.3145087 L44.7174117,52.1019484 C44.7174117,50.5234493 43.7650427,49.1002906 42.3028628,48.4932334 Z" id="Shape" fill="#E6AF78"></path>
                            <path d="M42.3028628,48.4932334 L31.0185113,43.8086798 L22.4824536,47.4791293 L13.9463958,43.8086798 L2.66204435,48.4932334 C1.19986444,49.1002906 0.247243515,50.5234493 0.247243515,52.1019484 L0.247243515,57.3145087 C0.247243515,58.7539794 1.41849874,59.9209144 2.86329874,59.9209144 L42.1016084,59.9209144 C43.5464084,59.9209144 44.7176636,58.7539794 44.7176636,57.3145087 L44.7176636,52.1019484 C44.7174117,50.5234493 43.7650427,49.1002906 42.3028628,48.4932334 Z" id="Shape" fill="#9C6CE9"></path>
                            <path d="M29.0220879,38.0932081 L15.9425674,38.0932081 L15.9425674,41.2421758 C15.9425674,42.2944248 15.3075707,43.2435319 14.3327841,43.6480694 L12.5101598,44.4049459 C26.4591799,47.9486638 29.0220879,38.0932081 29.0220879,38.0932081 Z" id="Shape" fill="#D29B6E"></path>
                            <g id="Group" transform="translate(0.082008, 41.601040)" fill="#59447F">
                                <path d="M6.54038996,11.9333527 L1.29039582,7.77279051 C0.586887029,8.48951442 0.165235146,9.4586978 0.165235146,10.5009087 L0.165235146,15.7134691 C0.165235146,17.1529398 1.33649038,18.3198747 2.78129038,18.3198747 L8.01314895,18.3198747 L8.01314895,14.9864561 C8.01289707,13.798441 7.47109707,12.675172 6.54038996,11.9333527 Z" id="Shape"></path>
                                <path d="M44.6354033,15.7132181 L44.6354033,10.5006578 C44.6354033,9.46647737 44.2208042,8.50381878 43.5273707,7.78885155 L38.2605004,11.9331018 C37.3297933,12.6749211 36.7879933,13.7981901 36.7879933,14.9857032 L36.7879933,18.3196238 L42.0198519,18.3196238 C43.4644,18.3196238 44.6354033,17.1526888 44.6354033,15.7132181 Z" id="Shape"></path>
                                <path d="M22.5966619,15.7132181 L22.2042285,15.7132181 C21.5901381,15.7132181 21.0924176,15.2173335 21.0924176,14.6055083 L21.0924176,5.88110114 L23.7084728,5.88110114 L23.7084728,14.6055083 C23.7082209,15.2173335 23.2105004,15.7132181 22.5966619,15.7132181 Z" id="Shape"></path>
                                <path d="M22.4004452,5.87808969 L14.914487,0.284330599 C14.4338946,-0.0747842176 13.749277,0.0419092763 13.416036,0.539801517 L11.936728,2.7504531 L16.5262854,9.15228328 C16.8751431,9.6388826 17.5627833,9.73399407 18.0312854,9.36057489 L22.4004452,5.87808969 Z" id="Shape"></path>
                                <path d="M22.4004452,5.87808969 L29.8864033,0.284330599 C30.3669958,-0.0747842176 31.0516134,0.0419092763 31.3848544,0.539801517 L32.8641623,2.7504531 L28.274605,9.15228328 C27.9257473,9.6388826 27.2381071,9.73399407 26.769605,9.36057489 L22.4004452,5.87808969 Z" id="Shape"></path>
                            </g>
                            <path d="M29.0220879,13.0081222 C22.4824536,19.5236344 9.64801506,14.311325 9.64801506,24.7361948 L10.4600854,32.4153795 C10.6167565,34.1331579 11.6162276,35.6624701 13.1295397,36.5001537 L20.5767079,40.6220691 C21.7618167,41.2780622 23.2025866,41.2780622 24.3876954,40.6220691 L31.8348636,36.5001537 C33.3481757,35.6624701 34.3476469,34.1331579 34.504318,32.4153795 L35.4418259,23.2952183 C35.5085749,22.6470048 35.5226803,21.994776 35.5007665,21.3443039 C35.01161,18.0271972 30.3298636,15.6142769 29.0220879,13.0081222 Z" id="Shape" fill="#F0C087"></path>
                            <path d="M9.64801506,24.7361948 L10.4600854,32.4153795 C10.6167565,34.1331579 11.6162276,35.6624701 13.1295397,36.5001537 L20.5767079,40.6220691 C21.3991054,41.0772992 22.3421548,41.1949965 23.2398653,41.018576 C23.2398653,41.018576 19.4852996,39.8847669 17.250595,33.8581126 C16.5659774,32.0118459 15.6158753,22.2384521 16.4332351,21.0439122 C18.0490636,18.6829393 27.0601724,18.4375066 29.7228259,14.0576108 C29.5913431,13.8949927 29.4699356,13.7321238 29.3591071,13.5690038 C29.3502912,13.5559542 29.3394603,13.5426537 29.3303925,13.5293531 C29.2147782,13.3559441 29.109995,13.1822841 29.0220879,13.0078712 C22.4824536,19.5238854 9.64801506,14.3110741 9.64801506,24.7361948 Z" id="Shape" fill="#E6AF78"></path>
                            <path d="M32.0303247,57.3142578 L28.6296544,57.3142578 C27.4017255,57.3142578 26.4060326,58.3062779 26.4060326,59.5296775 L26.4060326,59.9206634 L34.2536946,59.9206634 L34.2536946,59.5296775 C34.2539464,58.3062779 33.2582536,57.3142578 32.0303247,57.3142578 Z" id="Shape" fill="#59447F"></path>
                        </g>
                    </g>
                    <g id="email" transform="translate(144.200000, 169.320132)">
                        <rect id="Rectangle-13" fill="#9C6CE9" x="0" y="0" width="112" height="83.960396" rx="11.1999998"></rect>
                        <path d="M0,9.79537954 C32.7006343,33.1177118 51.367301,44.7788779 56,44.7788779 C60.632699,44.7788779 79.2993657,33.1177118 112,9.79537954 C81.2729792,36.8492849 62.6063125,50.3762376 56,50.3762376 C49.3936875,50.3762376 30.7270208,36.8492849 0,9.79537954 Z" id="Path-4" fill="#59447F"></path>
                    </g>
                </g>
            </g>
        </g>
    </g>
</svg>