<svg width="444" height="470" xmlns="http://www.w3.org/2000/svg" xmlns:xlink="http://www.w3.org/1999/xlink"><defs><radialGradient cx="50%" cy="50%" fx="50%" fy="50%" r="43.912%" gradientTransform="matrix(-1 0 0 -.95755 1 .979)" id="b"><stop stop-color="#3C285F" offset="0%"/><stop stop-color="#2B1C44" offset="100%"/></radialGradient><path d="M39.2 154.019c5.396 5.411 11.463 7.713 18.2 6.905 6.632-.795 12.232-4.311 16.8-10.547V19.6C74.2 8.775 82.975 0 93.8 0c10.825 0 19.6 8.775 19.6 19.6v39.788c3.85 4.866 9.45 6.993 16.8 6.381 7.511-.626 13.578-3.744 18.2-9.356v-22.82c0-10.824 8.775-19.6 19.6-19.6 10.825 0 19.6 8.776 19.6 19.6v57.285c3.456 5.61 9.056 7.969 16.8 7.076 7.744-.893 13.344-4.544 16.8-10.951V44.788c0-10.825 8.775-19.6 19.6-19.6 10.825 0 19.6 8.775 19.6 19.6v11.333c5.216 5.396 11.283 7.679 18.2 6.85 6.64-.797 11.773-4.143 15.4-10.04V21c0-10.824 8.775-19.6 19.6-19.6 10.825 0 19.6 8.776 19.6 19.6v117.536c1.118.745 6.081 9.795 16.8 9.795 7.146 0 12.746-3.265 16.8-9.795v-27.978c0-10.825 8.775-19.6 19.6-19.6 10.825 0 19.6 8.775 19.6 19.6v205.685c0 10.824-8.775 19.6-19.6 19.6-10.825 0-19.6-8.776-19.6-19.6v-29.366c-5.033-4.672-11.1-7.008-18.2-7.008-6.792 0-11.926 3.206-15.4 9.619v77.13c0 10.826-8.775 19.6-19.6 19.6-10.825 0-19.6-8.774-19.6-19.6v-41.983c-4.109-7.455-9.709-11.182-16.8-11.182-6.556 0-12.156 2.549-16.8 7.646V404.4c0 10.825-8.775 19.6-19.6 19.6-10.825 0-19.6-8.775-19.6-19.6v-69.478c-4.523-6.85-10.59-10.275-18.2-10.275-7.192 0-12.325 2.04-15.4 6.118v48.447c0 10.825-8.775 19.6-19.6 19.6-10.825 0-19.6-8.775-19.6-19.6v-11.24c-4.805-4.628-10.872-6.942-18.2-6.942-8.059 0-13.659 2.798-16.8 8.396v23.78c0 10.824-8.775 19.6-19.6 19.6-10.825 0-19.6-8.776-19.6-19.6v-71.61c-4.164-8.228-9.764-12.342-16.8-12.342-7.17 0-13.236 3.106-18.2 9.319v14.46c0 10.825-8.775 19.6-19.6 19.6-10.825 0-19.6-8.775-19.6-19.6V127.35c0-10.825 8.775-19.6 19.6-19.6 10.825 0 19.6 8.775 19.6 19.6v26.67zM19.6 83.96c-10.052 0-18.2-8.144-18.2-18.191 0-10.047 8.148-18.191 18.2-18.191s18.2 8.144 18.2 18.191c0 10.047-8.148 18.191-18.2 18.191zm368.2 298.06c-10.052 0-18.2-8.145-18.2-18.192 0-10.046 8.148-18.191 18.2-18.191s18.2 8.145 18.2 18.191c0 10.047-8.148 18.192-18.2 18.192z" id="a"/></defs><g fill="none" fill-rule="evenodd"><g opacity=".15" fill="#377DFF" fill-rule="nonzero"><ellipse opacity=".5" cx="430.478" cy="147.987" rx="10.495" ry="10.491"/><path d="M290.315 17.35c0 7.567-6.155 13.62-13.622 13.62-7.568 0-13.623-6.154-13.623-13.62 0-7.565 6.155-13.618 13.623-13.618 7.467-.1 13.622 6.053 13.622 13.619zm-187.59 17.352c0 3.833-3.128 6.96-6.962 6.96-3.835 0-6.963-3.127-6.963-6.96 0-3.834 3.128-6.96 6.963-6.96 3.834 0 6.962 3.126 6.962 6.96zm244.503 13.215c0 3.833-3.128 6.96-6.963 6.96-3.834 0-6.962-3.127-6.962-6.96 0-3.834 3.128-6.96 6.962-6.96 3.835 0 6.963 3.126 6.963 6.96z" opacity=".5"/><ellipse opacity=".5" cx="181.435" cy="6.961" rx="6.963" ry="6.961"/><path d="M443.798 178.452a2.82 2.82 0 0 1-2.825 2.824 2.82 2.82 0 0 1-2.826-2.824 2.82 2.82 0 0 1 2.826-2.825c1.614-.1 2.825 1.21 2.825 2.825zM332.9 22.899c0 1.21-1.009 2.119-2.119 2.119-1.21 0-2.12-1.01-2.12-2.119 0-1.21 1.01-2.118 2.12-2.118s2.12.908 2.12 2.118z" opacity=".5"/><ellipse opacity=".5" cx="123.21" cy="6.961" rx="2.825" ry="2.825"/><path d="M26.135 67.588a3.724 3.724 0 0 1-3.733 3.732 3.724 3.724 0 0 1-3.734-3.732 3.724 3.724 0 0 1 3.734-3.733c2.018.101 3.733 1.715 3.733 3.733zm411.71 35.206a3.724 3.724 0 0 1-3.734 3.732 3.724 3.724 0 0 1-3.734-3.732 3.724 3.724 0 0 1 3.734-3.733 3.724 3.724 0 0 1 3.734 3.733z" opacity=".5"/><ellipse opacity=".5" cx="59.335" cy="55.987" rx="15.742" ry="15.737"/><path d="M12.11 184.908a3.724 3.724 0 0 1-3.735 3.732 3.724 3.724 0 0 1-3.733-3.732c0-2.119 1.614-3.733 3.733-3.733 2.019 0 3.734 1.715 3.734 3.733z" opacity=".5"/><ellipse opacity=".5" cx="410.397" cy="47.917" rx="15.237" ry="15.232"/><ellipse opacity=".5" cx="12.109" cy="116.211" rx="12.109" ry="12.105"/><path d="M428.46 229.395c0-28.448-6.055-55.584-16.953-79.996a61.72 61.72 0 0 0 6.156-26.934c0-34.298-27.75-62.04-62.06-62.04-6.458 0-12.613 1.01-18.466 2.825-30.474-19.368-66.7-30.667-105.55-30.667-4.844 0-9.688.202-14.43.505-8.477-6.356-19.072-10.189-30.475-10.189-21.595 0-40.061 13.518-47.327 32.583-14.934 7.97-28.759 17.755-41.07 29.053-4.036-.908-8.173-1.412-12.512-1.412-31.08 0-56.207 25.118-56.207 56.188 0 13.518 4.743 25.926 12.715 35.61-4.945 17.25-7.67 35.509-7.67 54.373l393.849.1z" opacity=".47"/><path d="M373.465 228.991c0-78.987-63.977-142.943-142.989-142.943-79.011 0-142.988 63.956-142.988 142.943h285.977z" opacity=".47"/></g><g opacity=".15" transform="matrix(1 0 0 -1 0 470)" fill="#377DFF" fill-rule="nonzero"><ellipse opacity=".5" cx="430.478" cy="147.987" rx="10.495" ry="10.491"/><path d="M290.315 17.35c0 7.567-6.155 13.62-13.622 13.62-7.568 0-13.623-6.154-13.623-13.62 0-7.565 6.155-13.618 13.623-13.618 7.467-.1 13.622 6.053 13.622 13.619zm-187.59 17.352c0 3.833-3.128 6.96-6.962 6.96-3.835 0-6.963-3.127-6.963-6.96 0-3.834 3.128-6.96 6.963-6.96 3.834 0 6.962 3.126 6.962 6.96zm244.503 13.215c0 3.833-3.128 6.96-6.963 6.96-3.834 0-6.962-3.127-6.962-6.96 0-3.834 3.128-6.96 6.962-6.96 3.835 0 6.963 3.126 6.963 6.96z" opacity=".5"/><ellipse opacity=".5" cx="181.435" cy="6.961" rx="6.963" ry="6.961"/><path d="M443.798 178.452a2.82 2.82 0 0 1-2.825 2.824 2.82 2.82 0 0 1-2.826-2.824 2.82 2.82 0 0 1 2.826-2.825c1.614-.1 2.825 1.21 2.825 2.825zM332.9 22.899c0 1.21-1.009 2.119-2.119 2.119-1.21 0-2.12-1.01-2.12-2.119 0-1.21 1.01-2.118 2.12-2.118s2.12.908 2.12 2.118z" opacity=".5"/><ellipse opacity=".5" cx="123.21" cy="6.961" rx="2.825" ry="2.825"/><path d="M26.135 67.588a3.724 3.724 0 0 1-3.733 3.732 3.724 3.724 0 0 1-3.734-3.732 3.724 3.724 0 0 1 3.734-3.733c2.018.101 3.733 1.715 3.733 3.733zm411.71 35.206a3.724 3.724 0 0 1-3.734 3.732 3.724 3.724 0 0 1-3.734-3.732 3.724 3.724 0 0 1 3.734-3.733 3.724 3.724 0 0 1 3.734 3.733z" opacity=".5"/><ellipse opacity=".5" cx="59.335" cy="55.987" rx="15.742" ry="15.737"/><path d="M12.11 184.908a3.724 3.724 0 0 1-3.735 3.732 3.724 3.724 0 0 1-3.733-3.732c0-2.119 1.614-3.733 3.733-3.733 2.019 0 3.734 1.715 3.734 3.733z" opacity=".5"/><ellipse opacity=".5" cx="410.397" cy="47.917" rx="15.237" ry="15.232"/><ellipse opacity=".5" cx="12.109" cy="116.211" rx="12.109" ry="12.105"/><path d="M428.46 229.395c0-28.448-6.055-55.584-16.953-79.996a61.72 61.72 0 0 0 6.156-26.934c0-34.298-27.75-62.04-62.06-62.04-6.458 0-12.613 1.01-18.466 2.825-30.474-19.368-66.7-30.667-105.55-30.667-4.844 0-9.688.202-14.43.505-8.477-6.356-19.072-10.189-30.475-10.189-21.595 0-40.061 13.518-47.327 32.583-14.934 7.97-28.759 17.755-41.07 29.053-4.036-.908-8.173-1.412-12.512-1.412-31.08 0-56.207 25.118-56.207 56.188 0 13.518 4.743 25.926 12.715 35.61-4.945 17.25-7.67 35.509-7.67 54.373l393.849.1z" opacity=".47"/><path d="M373.465 228.991c0-78.987-63.977-142.943-142.989-142.943-79.011 0-142.988 63.956-142.988 142.943h285.977z" opacity=".47"/></g><g transform="translate(35 10)"><mask id="c" fill="#fff"><use xlink:href="#a"/></mask><use fill="url(#b)" xlink:href="#a"/><g mask="url(#c)" fill="#FFF"><path d="M305.2 163.722h3.497a.7.7 0 0 1 .7.7v1.4a.7.7 0 0 1-.7.7H305.2v3.497a.7.7 0 0 1-.7.7h-1.4a.7.7 0 0 1-.7-.7v-3.497h-3.497a.7.7 0 0 1-.7-.7v-1.4a.7.7 0 0 1 .7-.7h3.497v-3.497a.7.7 0 0 1 .7-.7h1.4a.7.7 0 0 1 .7.7v3.497zm77 92.357h3.497a.7.7 0 0 1 .7.7v1.4a.7.7 0 0 1-.7.7H382.2v3.497a.7.7 0 0 1-.7.7h-1.4a.7.7 0 0 1-.7-.7v-3.497h-3.497a.7.7 0 0 1-.7-.7v-1.4a.7.7 0 0 1 .7-.7h3.497v-3.498a.7.7 0 0 1 .7-.7h1.4a.7.7 0 0 1 .7.7v3.498zm-218.4 30.785h3.497a.7.7 0 0 1 .7.7v1.4a.7.7 0 0 1-.7.7H163.8v3.497a.7.7 0 0 1-.7.7h-1.4a.7.7 0 0 1-.7-.7v-3.497h-3.497a.7.7 0 0 1-.7-.7v-1.4a.7.7 0 0 1 .7-.7H161v-3.497a.7.7 0 0 1 .7-.7h1.4a.7.7 0 0 1 .7.7v3.497zm-126-13.994h3.497a.7.7 0 0 1 .7.7v1.4a.7.7 0 0 1-.7.7H37.8v3.498a.7.7 0 0 1-.7.7h-1.4a.7.7 0 0 1-.7-.7v-3.497h-3.497a.7.7 0 0 1-.7-.7v-1.4a.7.7 0 0 1 .7-.7H35v-3.498a.7.7 0 0 1 .7-.7h1.4a.7.7 0 0 1 .7.7v3.498zm141.4-139.933h3.497a.7.7 0 0 1 .7.7v1.4a.7.7 0 0 1-.7.7H179.2v3.497a.7.7 0 0 1-.7.7h-1.4a.7.7 0 0 1-.7-.7v-3.497h-3.497a.7.7 0 0 1-.7-.7v-1.4a.7.7 0 0 1 .7-.7h3.497v-3.498a.7.7 0 0 1 .7-.7h1.4a.7.7 0 0 1 .7.7v3.498zm-9.8-89.558h3.497a.7.7 0 0 1 .7.7v1.4a.7.7 0 0 1-.7.7H169.4v3.497a.7.7 0 0 1-.7.7h-1.4a.7.7 0 0 1-.7-.7V46.18h-3.497a.7.7 0 0 1-.7-.7v-1.4a.7.7 0 0 1 .7-.7h3.497v-3.497a.7.7 0 0 1 .7-.7h1.4a.7.7 0 0 1 .7.7v3.497zM89.25 243.834h2.448a.7.7 0 0 1 .7.7v.7a.7.7 0 0 1-.7.7H89.25v2.449a.7.7 0 0 1-.7.7h-.7a.7.7 0 0 1-.7-.7v-2.449h-2.448a.7.7 0 0 1-.7-.7v-.7a.7.7 0 0 1 .7-.7h2.448v-2.448a.7.7 0 0 1 .7-.7h.7a.7.7 0 0 1 .7.7v2.448zm168-163.722h2.448a.7.7 0 0 1 .7.7v.7a.7.7 0 0 1-.7.7h-2.448v2.448a.7.7 0 0 1-.7.7h-.7a.7.7 0 0 1-.7-.7v-2.448h-2.448a.7.7 0 0 1-.7-.7v-.7a.7.7 0 0 1 .7-.7h2.448v-2.448a.7.7 0 0 1 .7-.7h.7a.7.7 0 0 1 .7.7v2.448zm2.8 202.904h2.448a.7.7 0 0 1 .7.7v.7a.7.7 0 0 1-.7.7h-2.448v2.448a.7.7 0 0 1-.7.7h-.7a.7.7 0 0 1-.7-.7v-2.448h-2.448a.7.7 0 0 1-.7-.7v-.7a.7.7 0 0 1 .7-.7h2.448v-2.448a.7.7 0 0 1 .7-.7h.7a.7.7 0 0 1 .7.7v2.448zm-28 72.766h2.448a.7.7 0 0 1 .7.7v.7a.7.7 0 0 1-.7.7h-2.448v2.448a.7.7 0 0 1-.7.7h-.7a.7.7 0 0 1-.7-.7v-2.448h-2.448a.7.7 0 0 1-.7-.7v-.7a.7.7 0 0 1 .7-.7h2.448v-2.448a.7.7 0 0 1 .7-.7h.7a.7.7 0 0 1 .7.7v2.448zm-123.2-16.792h2.448a.7.7 0 0 1 .7.7v.7a.7.7 0 0 1-.7.7h-2.448v2.448a.7.7 0 0 1-.7.7h-.7a.7.7 0 0 1-.7-.7v-2.448h-2.448a.7.7 0 0 1-.7-.7v-.7a.7.7 0 0 1 .7-.7h2.448v-2.448a.7.7 0 0 1 .7-.7h.7a.7.7 0 0 1 .7.7v2.448zm275.8-165.123h2.448a.7.7 0 0 1 .7.7v.7a.7.7 0 0 1-.7.7h-2.448v2.449a.7.7 0 0 1-.7.7h-.7a.7.7 0 0 1-.7-.7v-2.449h-2.448a.7.7 0 0 1-.7-.7v-.7a.7.7 0 0 1 .7-.7h2.448v-2.448a.7.7 0 0 1 .7-.7h.7a.7.7 0 0 1 .7.7v2.448z"/></g><g mask="url(#c)"><g transform="translate(308 201.505)" fill-rule="nonzero"><path fill="#C8D2D6" d="M25.554 64.274H58.39v29.037H25.554z"/><path d="M47.444 89.113h-21.89V64.274H38.45c4.968 0 8.994 4.025 8.994 8.99v15.849z" fill="#E7ECED"/><ellipse fill="#7383BF" cx="38.551" cy="71.796" rx="3.42" ry="3.419"/><path d="M36.368 14.635a4.784 4.784 0 0 0 2.867-4.378 4.788 4.788 0 0 0-4.788-4.787 4.783 4.783 0 0 0-4.381 2.867l6.302 6.298z" fill="#FBCE9D"/><path d="M43.209 21.473a4.784 4.784 0 0 0 2.867-4.379 4.788 4.788 0 0 0-4.788-4.786 4.783 4.783 0 0 0-4.381 2.866l6.302 6.3z" fill="#FBCE9D"/><path d="M50.05 28.31a4.784 4.784 0 0 0 2.867-4.378 4.788 4.788 0 0 0-4.788-4.786 4.783 4.783 0 0 0-4.381 2.866l6.301 6.299z" fill="#FBCE9D"/><path d="M56.89 35.148a4.784 4.784 0 0 0 2.868-4.378 4.788 4.788 0 0 0-4.789-4.787c-1.96 0-3.64 1.18-4.38 2.867l6.301 6.298z" fill="#FBCE9D"/><path d="M57.208 43.164L41.994 58.37a3.139 3.139 0 0 1-4.439 0L24.308 45.129h-9.014c-.791.387-2.949-1.01-2.121-.3l14.793 14.729c.1.1.219.173.325.265v4.451h27.364v-6.167c2.489-1.873 4.104-4.839 4.104-8.192a10.212 10.212 0 0 0-2.551-6.751z" fill="#F7B563"/><path d="M25.68 3.95L4.394 25.227l10.387 10.382c.17-.018.336-.052.51-.052h13.682c2.634 0 4.789 2.154 4.789 4.786 0 2.633-2.155 4.787-4.789 4.787h-4.667l8.695 8.69 21.283-21.274L25.68 3.95z" fill="#4D3478"/><path d="M29.288 37.434L28.156 36.3c1.487-1.487 1.435-3.952-.117-5.504l1.085-1.085c2.176 2.175 2.25 5.637.164 7.722z" fill="#1273B6"/><path fill="#8CC540" d="M28.039 30.797l1.085-1.085 3.944 3.943-1.086 1.085z"/><path d="M31.158 27.678l-1.086 1.086c2.175 2.175 5.638 2.249 7.722.164l-1.132-1.133c-1.488 1.488-3.958 1.43-5.504-.117z" fill="#FDBB25"/><path fill="#FEDD10" d="M30.066 28.77l-7.347-7.347 1.092-1.092 7.347 7.347"/><path d="M22.652 36.184l-1.086 1.086c-2.175-2.175-2.249-5.638-.164-7.722l1.133 1.132c-1.488 1.488-1.435 3.952.117 5.504z" fill="#2AB1D6"/><path d="M29.288 37.434c-2.084 2.085-5.547 2.011-7.722-.164l1.086-1.086c1.552 1.552 4.016 1.605 5.504.117l1.132 1.133z" fill="#1D8BC0"/><path d="M29.124 29.712l-1.085 1.085c-1.552-1.552-4.017-1.604-5.504-.117l-1.133-1.132c2.085-2.085 5.547-2.012 7.722.164z" fill="#D7DE27"/><path d="M37.794 28.928l-1.132-1.133c1.487-1.487 1.435-3.952-.117-5.504l1.085-1.085c2.176 2.175 2.25 5.637.164 7.722z" fill="#F69320"/><path d="M37.63 21.206l-1.085 1.085c-1.552-1.552-4.017-1.604-5.504-.117l-1.133-1.132c2.085-2.085 5.547-2.012 7.722.164z" fill="#D7DE27"/><path d="M28.546 23.459l1.414 1.414a3.705 3.705 0 0 1 1.08-2.699l-1.132-1.132a5.151 5.151 0 0 0-1.362 2.417z" fill="#8CC540"/><path d="M28.974 45.129H15.292a4.801 4.801 0 0 1-4.788-4.787c0-2.632 2.154-4.786 4.788-4.786h13.682c2.634 0 4.789 2.154 4.789 4.786 0 2.633-2.155 4.787-4.789 4.787z" fill="#FBCE9D"/><path d="M25.68 3.95L22.645.92a3.139 3.139 0 0 0-4.438 0L1.36 17.756a3.137 3.137 0 0 0 0 4.438l3.034 3.032L25.679 3.95zm33.159 33.146l-4.554-4.551-21.283 21.274 4.552 4.55a3.139 3.139 0 0 0 4.438 0l16.845-16.837a3.134 3.134 0 0 0 .002-4.436z" fill="#E7ECED"/><ellipse fill="#FFF" cx="46.76" cy="45.812" rx="2.736" ry="2.735"/><path d="M11.872 15.043a1.366 1.366 0 0 1-.967-2.334l2.736-2.736a1.367 1.367 0 1 1 1.934 1.934l-2.736 2.735c-.267.267-.617.4-.967.4z" fill="#424A60"/></g></g><g fill-rule="nonzero"><path d="M73.624 93.756H20.259c-4.892 0-8.894 3.987-8.894 8.861v31.014c0 4.874 4.003 8.861 8.894 8.861h28.906v8.403c0 .987 1.198 1.48 1.898.783l9.22-9.185h13.34c4.893 0 8.895-3.988 8.895-8.861v-31.015c0-4.874-4.003-8.861-8.894-8.861z" fill="#E4EAF6"/><path d="M29.153 107.048h-6.67a2.22 2.22 0 0 1-2.224-2.216 2.22 2.22 0 0 1 2.224-2.215h6.67a2.22 2.22 0 0 1 2.224 2.215 2.22 2.22 0 0 1-2.224 2.216z" fill="#AFB9D2"/><path d="M71.4 107.048H38.047a2.22 2.22 0 0 1-2.223-2.216c0-1.223.994-2.215 2.223-2.215H71.4a2.22 2.22 0 0 1 2.224 2.215 2.22 2.22 0 0 1-2.224 2.216zm0 8.861H22.483a2.22 2.22 0 0 1-2.224-2.215 2.22 2.22 0 0 1 2.224-2.216H71.4a2.22 2.22 0 0 1 2.224 2.216 2.22 2.22 0 0 1-2.224 2.215z" fill="#C7CFE2"/><path d="M71.4 124.77h-6.67a2.22 2.22 0 0 1-2.224-2.215c0-1.224.994-2.216 2.224-2.216h6.67a2.22 2.22 0 0 1 2.224 2.216 2.22 2.22 0 0 1-2.224 2.215z" fill="#AFB9D2"/><path d="M55.835 124.77H22.483a2.22 2.22 0 0 1-2.224-2.215 2.22 2.22 0 0 1 2.224-2.216h33.353a2.22 2.22 0 0 1 2.223 2.216 2.22 2.22 0 0 1-2.224 2.215zm15.565 8.862H22.483a2.22 2.22 0 0 1-2.224-2.216 2.22 2.22 0 0 1 2.224-2.215H71.4a2.22 2.22 0 0 1 2.224 2.215 2.22 2.22 0 0 1-2.224 2.216z" fill="#C7CFE2"/><path fill="#E6AF78" d="M49.507 204.863v-7.158H31.035v7.158l9.236 8.179z"/><path d="M63.788 208.21l-12.699-2.977a2.035 2.035 0 0 1-.533-.213l-10.285 5.977-9.885-6.267c-.255.24-.573.418-.934.503l-12.698 2.977a4.094 4.094 0 0 0-3.165 3.981v8.008c0 1.13.918 2.045 2.052 2.045h49.26a2.049 2.049 0 0 0 2.052-2.045v-8.008a4.093 4.093 0 0 0-3.165-3.98z" fill="#9C6CE9"/><path d="M31.035 197.705v7.552c11.635 4.176 18.472-6.277 18.472-6.277v-1.275H31.035z" fill="#D29B6E"/><path d="M26.93 174.188l.894 19.602a6.129 6.129 0 0 0 2.457 4.63l4.243 3.17a6.172 6.172 0 0 0 3.694 1.227h4.105a6.17 6.17 0 0 0 3.695-1.227l4.243-3.17a6.128 6.128 0 0 0 2.457-4.63l.894-19.602H26.93z" fill="#F0C087"/><path d="M37.192 178.279c4.105 0 10.263-1.023 11.723-4.09H26.93l.894 19.602a6.129 6.129 0 0 0 2.457 4.63l4.243 3.17a6.172 6.172 0 0 0 3.694 1.227h2.053c-2.053 0-6.158-4.09-6.158-9.202v-12.27c0-1.023 1.026-3.067 3.079-3.067z" fill="#E6AF78"/><path d="M59.42 215.608l6.65-5.951c.556.703.883 1.587.883 2.534v8.008c0 1.13-.919 2.045-2.052 2.045h-7.184v-2.832c0-1.451.619-2.834 1.702-3.804zm-38.298 0l-6.65-5.951a4.074 4.074 0 0 0-.884 2.534v8.008c0 1.13.92 2.045 2.053 2.045h7.184v-2.832a5.102 5.102 0 0 0-1.703-3.804z" fill="#59447F"/><path fill="#5B5D6E" d="M42.836 222.244h-5.13l.64-9.202h3.85z"/><path d="M42.836 210.997h-5.13v.59a2.481 2.481 0 0 0 2.485 2.477h.16a2.481 2.481 0 0 0 2.485-2.476v-.591z" fill="#515262"/><path d="M30.89 202.586l9.38 8.41s-2.626 1.322-5.868 3.985a1.32 1.32 0 0 1-2.04-.46l-4.406-9.66 1.394-2.083a1.029 1.029 0 0 1 1.54-.192zm18.761 0l-9.38 8.41s2.627 1.322 5.869 3.985c.669.55 1.68.327 2.039-.46l4.407-9.66-1.394-2.083a1.029 1.029 0 0 0-1.54-.192z" fill="#59447F"/><path d="M46.493 167.415l.962 6.774c4.392.875 5.024 7.742 5.115 9.703.017.356.131.7.325 1l1.676 2.589s-.574-4.282 2.052-7.157c0 0 .902-16.999-10.13-12.909z" fill="#785550"/><path d="M55.6 187.043l-1.159 4.619a1.233 1.233 0 0 1-1.197.93 1.232 1.232 0 0 1-1.224-1.076l-.593-4.724a2.12 2.12 0 0 1 2.108-2.379h.004a2.119 2.119 0 0 1 2.061 2.63z" fill="#F0C087"/><path d="M27.913 165.583l1.518 1.033c-6.863 5.049-5.58 13.708-5.58 13.708 2.053 2.045 2.053 7.157 2.053 7.157l2.052-2.045s-.792-5.907 3.079-8.18c3.592-2.109 6.735-1.022 9.942-1.022 8.594 0 11-3.228 10.583-7.157-.216-2.034-3.337-6.27-11.289-6.135-3.21.054-9.236 1.022-12.358 2.641z" fill="#694B4B"/><path d="M27.315 175.339s-1.09-4.282 2.116-8.723c-6.863 5.048-5.58 13.707-5.58 13.707 2.053 2.045 2.053 7.157 2.053 7.157l2.052-2.045s-.792-5.907 3.079-8.18c3.592-2.108 6.735-1.022 9.942-1.022 1.397 0 2.616-.093 3.7-.253-6.619.222-10.52-4.773-17.362-.641z" fill="#5A4146"/><path d="M24.942 187.043l1.159 4.619c.137.547.63.93 1.197.93a1.23 1.23 0 0 0 1.224-1.076l.593-4.724a2.12 2.12 0 0 0-2.108-2.379h-.004a2.119 2.119 0 0 0-2.061 2.63z" fill="#E6AF78"/><path d="M52.586 220.2h-5.131a2.049 2.049 0 0 0-2.053 2.044h9.236c0-1.13-.919-2.045-2.052-2.045z" fill="#59447F"/><path d="M277.282 69.847c-20.702 0-18.407 25.083-18.312 43.26a1.94 1.94 0 0 0 .954 1.66c2.295 1.378 8.595 4.6 17.358 4.6 8.764 0 15.064-3.222 17.358-4.6a1.94 1.94 0 0 0 .955-1.66c.095-18.176 2.39-43.26-18.313-43.26z" fill="#694B4B"/><path d="M275.948 69.9c-19.254 1.075-17.07 25.435-16.978 43.207a1.94 1.94 0 0 0 .954 1.66c2.295 1.378 8.595 4.6 17.358 4.6l5.232-36.488" fill="#5A4146"/><path d="M277.282 69.847c-11.771 0-12.589 14.172-12.589 14.172 6.785-1.14 10.954 1.71 17.821-1.14l-5.232 36.487c8.764 0 15.064-3.22 17.358-4.599a1.94 1.94 0 0 0 .955-1.66c.095-18.176 2.39-43.26-18.313-43.26z" fill="#694B4B"/><path d="M295.595 113.107c.08-15.619 1.773-36.322-10.884-41.844-.22 1.143-.62 4.333.419 6.403 2.616 5.213 5.232 5.213 7.848 9.122 2.616 14.335-4.999 29.549-7.528 31.62 4.481-1.062 7.693-2.742 9.19-3.64.59-.355.951-.974.955-1.66z" fill="#785550"/><path d="M297.103 117.06l-11.671-4.844a2.606 2.606 0 0 1-1.61-2.406v-3.149h-13.08v3.15a2.606 2.606 0 0 1-1.61 2.405l-11.67 4.845a3.91 3.91 0 0 0-2.415 3.609v5.212a2.611 2.611 0 0 0 2.616 2.607h39.238a2.611 2.611 0 0 0 2.616-2.607v-5.212a3.909 3.909 0 0 0-2.414-3.61z" fill="#E6AF78"/><path d="M297.103 117.06l-11.284-4.684-8.537 3.67-8.536-3.67-11.284 4.685a3.91 3.91 0 0 0-2.415 3.609v5.212a2.611 2.611 0 0 0 2.616 2.607h39.239a2.611 2.611 0 0 0 2.616-2.607v-5.212a3.91 3.91 0 0 0-2.415-3.61z" fill="#9C6CE9"/><path d="M283.822 106.66h-13.08v3.15a2.606 2.606 0 0 1-1.61 2.406l-1.822.757c13.95 3.543 16.512-6.312 16.512-6.312z" fill="#D29B6E"/><g fill="#59447F"><path d="M261.422 122.102l-5.25-4.16a3.893 3.893 0 0 0-1.125 2.728v5.212a2.611 2.611 0 0 0 2.616 2.607h5.232v-3.334a3.905 3.905 0 0 0-1.473-3.053zm38.095 3.78v-5.213a3.894 3.894 0 0 0-1.108-2.711l-5.266 4.144a3.904 3.904 0 0 0-1.473 3.052v3.334h5.232a2.611 2.611 0 0 0 2.615-2.606zm-22.038 0h-.393a1.11 1.11 0 0 1-1.112-1.108v-8.724h2.616v8.724a1.11 1.11 0 0 1-1.111 1.108z"/><path d="M277.282 116.047l-7.486-5.594a1.049 1.049 0 0 0-1.498.255l-1.48 2.211 4.59 6.402a1.049 1.049 0 0 0 1.505.208l4.37-3.482z"/><path d="M277.282 116.047l7.486-5.594a1.049 1.049 0 0 1 1.499.255l1.48 2.211-4.59 6.402a1.049 1.049 0 0 1-1.505.208l-4.37-3.482z"/></g><path d="M283.822 81.576c-6.54 6.515-19.374 1.303-19.374 11.728l.812 7.679a5.211 5.211 0 0 0 2.67 4.085l7.447 4.122a3.936 3.936 0 0 0 3.81 0l7.448-4.122a5.211 5.211 0 0 0 2.67-4.085l.937-9.12c.067-.648.08-1.3.059-1.951-.49-3.317-5.171-5.73-6.479-8.336z" fill="#F0C087"/><path d="M264.448 93.304l.812 7.679a5.211 5.211 0 0 0 2.67 4.085l7.447 4.122a3.92 3.92 0 0 0 2.663.396s-3.755-1.134-5.99-7.16c-.684-1.846-1.634-11.62-.817-12.814 1.616-2.361 10.627-2.607 13.29-6.987a7.334 7.334 0 0 1-.364-.488l-.029-.04a5.025 5.025 0 0 1-.308-.521c-6.54 6.516-19.374 1.303-19.374 11.728z" fill="#E6AF78"/><path d="M286.83 125.882h-3.4a2.22 2.22 0 0 0-2.224 2.215v.391h7.848v-.39a2.22 2.22 0 0 0-2.224-2.216z" fill="#59447F"/></g><g transform="translate(144.2 169.32)"><rect fill="#9C6CE9" width="112" height="83.96" rx="11.2"/><path d="M0 9.795C32.7 33.118 51.367 44.78 56 44.78c4.633 0 23.3-11.661 56-34.984-30.727 27.054-49.394 40.58-56 40.58-6.606 0-25.273-13.527-56-40.58z" fill="#59447F"/></g></g></g></svg>