<svg xmlns="http://www.w3.org/2000/svg" xmlns:xlink="http://www.w3.org/1999/xlink" width="383" height="254"
     viewBox="0 0 383 254">
  <defs>
    <path id="qvksa"
          d="M974.18 481.26H733.71c-1.5 0-2.71-1.27-2.71-2.83a2.77 2.77 0 0 1 2.7-2.82h240.48c1.5 0 2.7 1.26 2.7 2.82a2.77 2.77 0 0 1-2.7 2.83"/>
    <path id="qvksb"
          d="M1110.47 481.26H991.2c-1.49 0-2.7-1.27-2.7-2.83a2.77 2.77 0 0 1 2.7-2.82h119.27c1.5 0 2.7 1.26 2.7 2.82a2.77 2.77 0 0 1-2.7 2.83"/>
    <path id="qvksc"
          d="M1002.87 230h-18.14c-12.5 0-22.62 10.05-22.62 22.37 0 9.8 6.4 18.18 15.3 21.18v6.23l5.7-5.03c.54.03 1.07.12 1.62.12h18.14a22.57 22.57 0 0 0 22.62-22.43 22.57 22.57 0 0 0-22.62-22.44"/>
    <path id="qvksd"
          d="M958.27 317.75l6.9-11.81 9.1 4.04v28.43c0 2.22-1.16 4.29-3.09 5.47-4.38 2.68-12.91-.4-12.91-5.47z"/>
    <path id="qvkse" d="M918.13 470.6l-2.75 5.74h17.29a4.2 4.2 0 0 0-4.7-3.2l-2.08.33a2.07 2.07 0 0 1-1.87-2.87z"/>
    <path id="qvksf" d="M938.6 470.6l-2.74 5.74h17.29a4.2 4.2 0 0 0-4.7-3.2l-2.08.33a2.07 2.07 0 0 1-1.87-2.87z"/>
    <path id="qvksg"
          d="M980.74 310.34c1.66-4.22-.29-10.6-5.23-14.1a13.3 13.3 0 0 0-15.8.36l-.76.6c-3 2.32-4.86 5.82-5.09 9.6l-.28 12.2-4.91 2.65 4.15 14.3 4.15-5.27 6.63-8.17 5.43 1.61a6.58 6.58 0 0 0 8.35-3.9l.02-.05 1.04-2.8z"/>
    <path id="qvksh"
          d="M982.05 306.23l.53-.18c.42-7.75-5.45-14.48-13.38-15.33-8.96-.96-16.79 5.91-16.69 14.7.03 2.9.84 10.74.84 10.74l8.42-10.21.93.3a30.54 30.54 0 0 0 19.35-.02"/>
    <path id="qvksi"
          d="M918.57 471.24l-2.2-18.9c-.9-6.98-.67-20.3.69-27.2l1.56-7.96-2.94-19.71a27.73 27.73 0 0 1 2.23-15.67l2.64-7.57h29.93l-.25 1.45c-1.17 6.54-1 15.1.49 21.58l4.53 17.06c.59 2.24.62 4.6.08 6.84l-10.45 50.08H939l-.44-18.45c-.4-12.1 4.49-34.16 4.49-34.16l-9.13-22.57-9.47 75.18z"/>
    <path id="qvksj"
          d="M936.35 374.23h13.98l-.26 1.45a57.23 57.23 0 0 0 .5 21.58l4.66 17.06c.6 2.24.64 4.6.08 6.84l-10.74 50.08h-6.05l-.45-18.45c-.41-12.1 4.61-34.16 4.61-34.16l-9.38-22.57z"/>
    <path id="qvksk"
          d="M978.98 332.54l-9.66 20.25-2.24-20.16-7.49-5.5-2.96 3.78-8.28-8.87h-12.16v-.14c-11.31 13.23-16.71 30.18-16.28 47.6l-.05 4.5h21.08l15.52 13 5.74-5.1-9.92-14.82 4.35-11.51 4.31-5.49 6.36 17.96 10.45-2.2 8.7-31.43z"/>
    <path id="qvksl"
          d="M986.68 334.03a9.2 9.2 0 0 0 2.67-3.6l.84-2a3.45 3.45 0 0 0-1.4-3.68l-3.61-2.38 1.5-5.16c.23-.76-.24-1.55-1-1.67a1.23 1.23 0 0 0-1.29.68l-2.97 5.94-.29.49a12.05 12.05 0 0 0-1.68 7.4l.2 2.12z"/>
    <path id="qvksm"
          d="M1083.36 467.3h-19.16v-36.53h18.06l5.77-52.24a19.9 19.9 0 0 0-9.72-20.1 20.5 20.5 0 0 0-20.45.04l-10.28 5.88v51.54l-14.4 14.88h24.02v36.54h-19.14a4.68 4.68 0 0 0-4.75 4.65c0 2.6 2.13 4.87 4.75 4.87 2.53 0 4.6-2.56 4.73-4.3h13.19c.14 1.74 2.2 4.45 4.73 4.45 2.53 0 4.6-2.71 4.73-4.45h13.18c.15 1.74 2.2 4.26 4.74 4.26a4.75 4.75 0 0 0 0-9.48"/>
    <path id="qvksn" d="M1029.15 470.6l2.75 5.74h-17.29a4.2 4.2 0 0 1 4.7-3.2l2.07.33c1.45 0 2.43-1.5 1.87-2.87z"/>
    <path id="qvkso" d="M1013.14 470.6l2.75 5.74H998.6a4.2 4.2 0 0 1 4.7-3.2l2.07.33c1.45 0 2.43-1.5 1.87-2.87z"/>
    <path id="qvksp"
          d="M1015.33 471.88l9.75-41.64 18.8-9.42h11.41l9.26-14.04-23.25 2.55-24.59 9.39a7.73 7.73 0 0 0-4.88 5.91l-7.46 47.25z"/>
    <path id="qvksq"
          d="M1048.25 409.53l-19.64 10.19a7.71 7.71 0 0 0-4.14 6.1l-4.1 46.06h10.24l8.99-45.31 25.03-5.74a12 12 0 0 0 12.08-11.92v-2.13z"/>
    <path id="qvksr"
          d="M1047.34 359.14h19.3c5.04 0 9.68 2.72 12.17 7.11l12.63 18.82v29.37h-8.97v-25.72l-6.4-6.86v27.44h-34.57l2.92-34.98-13.86 12.95a6.32 6.32 0 0 1-10.15-1.53l-12.2-23.7 6.08-3.76 10.78 17.58 12.33-12.55a13.95 13.95 0 0 1 9.94-4.17"/>
    <path id="qvkss"
          d="M1042.31 335.24c-.07-4.6 3.93-10.01 9.72-11.6a12.97 12.97 0 0 1 14.53 5.89l.5.83a13.7 13.7 0 0 1 1.4 10.95l-3.82 11.56-.26 6.85-6.57 2.39-4.45-2.4.25-7.37-5.06-.02a6.58 6.58 0 0 1-6.4-6.65v-.06l-.01-4.9z"/>
    <path id="qvkst"
          d="M1060.86 332.74s-16.11.24-20-8c0 0 9.65-6.6 19.93-4.26a14.96 14.96 0 0 1 10.44 19.86c-1.07 2.79-2.91 7.46-4.97 10.91v-10.28l-5.27-.98-.83 2.26h-2.47z"/>
    <path id="qvksu" d="M1082.47 427.84c-.7 0-1.28-.62-1.28-1.4v-6.13l2.56-2.04v8.17c0 .78-.57 1.4-1.28 1.4"/>
    <path id="qvksv" d="M1085.07 428.48c-.68 0-1.23-.58-1.24-1.3l-.08-8.91h2.48l.08 8.88c0 .73-.55 1.33-1.24 1.33"/>
    <path id="qvksw" d="M1088.87 427.84c-.7 0-1.28-.62-1.28-1.4v-8.17h2.56v8.17c0 .78-.57 1.4-1.28 1.4"/>
    <path id="qvksx" d="M1091.2 424.01h-.82c-.48 0-.87-.42-.87-.95v-4.79h2.56v4.79c0 .53-.39.95-.87.95"/>
    <path id="qvksy" d="M1092.07 419.1v-2.73l-1.02-2.4-7.09-.17-.11.1a8.45 8.45 0 0 0-2.46 6.26l-.2.02z"/>
    <path id="qvksz"
          d="M1110.64 402.95H943.55v7.84h7.87L945.25 484h2.99l16.06-73.2h6.88l-5.46 65.36h2.6l14.18-65.37h62.93l16.06 73.21h2.99l-6.17-73.2h30.97l14.17 65.36h2.6l-5.46-65.37h10.05z"/>
    <path id="qvksA"
          d="M805.5 467.3h-19.16v-36.52h24.05l-14.41-14.87v-51.53l-10.3-5.9a20.35 20.35 0 0 0-20.36-.05 19.99 19.99 0 0 0-9.78 20.12l5.71 52.23h18.09v36.53h-19.18a4.68 4.68 0 0 0-4.75 4.65c0 2.6 2.13 4.87 4.75 4.87 2.53 0 4.6-2.56 4.74-4.3h13.2c.13 1.74 2.2 4.45 4.73 4.45 2.53 0 4.6-2.71 4.74-4.45h13.2c.14 1.74 2.2 4.26 4.73 4.26a4.75 4.75 0 0 0 4.75-4.74c0-2.6-2.12-4.74-4.75-4.74"/>
    <path id="qvksB" d="M814.42 470.6l-2.75 5.74h17.29a4.2 4.2 0 0 0-4.7-3.2l-2.08.33a2.07 2.07 0 0 1-1.87-2.87z"/>
    <path id="qvksC" d="M830.42 470.6l-2.75 5.74h17.29a4.2 4.2 0 0 0-4.7-3.2l-2.08.33a2.07 2.07 0 0 1-1.87-2.87z"/>
    <path id="qvksD"
          d="M828.24 471.88l-9.75-41.64-18.8-9.42h-11.41l-9.26-14.04 23.25 2.55 24.58 9.39a7.73 7.73 0 0 1 4.89 5.91l7.46 47.25z"/>
    <path id="qvksE"
          d="M794.67 409.53l19.63 10.19a7.7 7.7 0 0 1 4.15 6.1l4.1 46.06H812.3l-8.98-45.31-25.04-5.74a12 12 0 0 1-12.07-11.92v-2.13z"/>
    <path id="qvksF"
          d="M795.73 359.13H776.2c-5.1 0-9.8 2.68-12.32 7.03l-14.53 21.44a6.1 6.1 0 0 0 2.64 9.02l20.23 9 3.87-8.7-13.32-5.72a2.19 2.19 0 0 1-.9-3.34l4.78-6.28v27.12h35l-2.95-34.57 14.04 12.8a6.48 6.48 0 0 0 10.28-1.51L835.36 362l-6.16-3.72-10.91 17.37-12.49-12.4a14.3 14.3 0 0 0-10.07-4.12"/>
    <path id="qvksG"
          d="M799.96 335.24c.08-4.6-3.92-10.01-9.71-11.6a12.97 12.97 0 0 0-14.53 5.89l-.5.83a13.7 13.7 0 0 0-1.4 10.95l3.81 11.56.27 6.85 6.57 2.39 4.45-2.4-.26-7.37 5.07-.02a6.58 6.58 0 0 0 6.4-6.65v-4.96z"/>
    <path id="qvksH"
          d="M802.7 322.36s-10.14-4.7-20.21-2.36a14.63 14.63 0 0 0-4.93 2.3l-2.07-2.36v4.14a14.95 14.95 0 0 0-3.18 15.68c1.05 2.78 3.18 7.43 4.92 10.86V340.4l5.1-.98.11-7.21s9.6.51 15.59-3.66l1.97 4.04s-1.33-7.7 2.7-10.22"/>
    <path id="qvksI" d="M779.65 393.38c0-.7-.63-1.28-1.4-1.28h-6.15l-2.05 2.55h8.2c.77 0 1.4-.57 1.4-1.27"/>
    <path id="qvksJ" d="M780.3 396.6c0-.67-.59-1.22-1.31-1.23l-8.94-.08v2.47l8.91.08c.73 0 1.33-.55 1.33-1.23"/>
    <path id="qvksK" d="M779.65 399.76c0-.7-.63-1.28-1.4-1.28h-8.2v2.55h8.2c.77 0 1.4-.57 1.4-1.27"/>
    <path id="qvksL" d="M785.42 404.64v-.83c0-.47-.43-.86-.96-.86h-4.8v2.55h4.8c.53 0 .96-.38.96-.86"/>
    <path id="qvksM" d="M771.53 402.95h-2.74l-2.4-1.02-.18-7.07.1-.11a8.5 8.5 0 0 1 6.28-2.45l.02-.2z"/>
    <path id="qvksN"
          d="M899.37 402.95H732.28v7.84h10.05l-5.46 65.37h2.6l14.18-65.37h30.96L778.45 484h2.98l16.06-73.2h62.94l14.17 65.36h2.6l-5.46-65.37h6.88L894.7 484h2.98l-6.17-73.2h7.87z"/>
    <path id="qvksO"
          d="M818.44 393.38h66.78c2.3 0 4.3-1.61 4.75-3.86L898 350a4.82 4.82 0 0 0-4.75-5.76h-66.79c-2.3 0-4.29 1.61-4.75 3.86l-8.02 39.52a4.82 4.82 0 0 0 4.75 5.76"/>
    <path id="qvksP"
          d="M867.25 372.95h-20.37l8.34 21.66c.89 2.31-.8 4.8-3.27 4.8H839.2v3.53h29c5.3 0 8.93-5.4 6.94-10.37z"/>
    <path id="qvksQ"
          d="M1037.75 256.8h-21.32c-13.74 0-24.87 10.8-24.87 24.35v-.07c0 13.56 11.13 24.49 24.87 24.49h21.32c.47 0 .94-.05 1.4-.07l6.22 5.55v-6.72a24.6 24.6 0 0 0 17.25-23.38v.2c0-13.56-11.13-24.35-24.87-24.35"/>
    <path id="qvksR"
          d="M1023.85 393.38h-66.78c-2.31 0-4.3-1.61-4.76-3.86L944.3 350a4.82 4.82 0 0 1 4.75-5.76h66.78c2.3 0 4.3 1.61 4.75 3.86l8.03 39.52a4.82 4.82 0 0 1-4.75 5.76"/>
    <path id="qvksS"
          d="M975.56 372.95h20.14l-8.24 21.66c-.88 2.31.8 4.8 3.23 4.8h11.75v3.53h-27.8c-5.25 0-8.83-5.4-6.86-10.37z"/>
  </defs>
  <g>
    <g transform="translate(-731 -230)">
      <g>
        <g>
          <use fill="#5d5075" xlink:href="#qvksa"/>
        </g>
      </g>
      <g>
        <g>
          <use fill="#372457" xlink:href="#qvksb"/>
        </g>
      </g>
      <g>
        <use fill="#ebe1fc" xlink:href="#qvksc"/>
      </g>
      <g>
        <use fill="#f69320" xlink:href="#qvksd"/>
      </g>
      <g>
        <use fill="#fff" xlink:href="#qvkse"/>
      </g>
      <g>
        <use fill="#fff" xlink:href="#qvksf"/>
      </g>
      <g>
        <use fill="#fbefe1" xlink:href="#qvksg"/>
      </g>
      <g>
        <use fill="#f69320" xlink:href="#qvksh"/>
      </g>
      <g>
        <use fill="#1d8bc0" xlink:href="#qvksi"/>
      </g>
      <g>
        <use fill="#1d8bc0" xlink:href="#qvksj"/>
      </g>
      <g>
        <use fill="#1e389d" xlink:href="#qvksk"/>
      </g>
      <g>
        <use fill="#fbefe1" xlink:href="#qvksl"/>
      </g>
      <g>
        <use xlink:href="#qvksm"/>
      </g>
      <g>
        <use fill="#fff" xlink:href="#qvksn"/>
      </g>
      <g>
        <use fill="#fff" xlink:href="#qvkso"/>
      </g>
      <g>
        <use fill="#1e389d" xlink:href="#qvksp"/>
      </g>
      <g>
        <use fill="#212293" xlink:href="#qvksq"/>
      </g>
      <g>
        <use fill="#fdbb25" xlink:href="#qvksr"/>
      </g>
      <g>
        <use fill="#fbefe1" xlink:href="#qvkss"/>
      </g>
      <g>
        <use fill="#a39ab2" xlink:href="#qvkst"/>
      </g>
      <g>
        <use fill="#fbefe1" xlink:href="#qvksu"/>
      </g>
      <g>
        <use fill="#fbefe1" xlink:href="#qvksv"/>
      </g>
      <g>
        <use fill="#fbefe1" xlink:href="#qvksw"/>
      </g>
      <g>
        <use fill="#fbefe1" xlink:href="#qvksx"/>
      </g>
      <g>
        <use fill="#fbefe1" xlink:href="#qvksy"/>
      </g>
      <g>
        <use fill="#fff" xlink:href="#qvksz"/>
      </g>
      <g>
        <use xlink:href="#qvksA"/>
      </g>
      <g>
        <use xlink:href="#qvksB"/>
      </g>
      <g>
        <use xlink:href="#qvksC"/>
      </g>
      <g>
        <use fill="#1e389d" xlink:href="#qvksD"/>
      </g>
      <g>
        <use fill="#212293" xlink:href="#qvksE"/>
      </g>
      <g>
        <use fill="#fdbb25" xlink:href="#qvksF"/>
      </g>
      <g>
        <use fill="#fbefe1" xlink:href="#qvksG"/>
      </g>
      <g>
        <use fill="#7d7091" xlink:href="#qvksH"/>
      </g>
      <g>
        <use fill="#fbefe1" xlink:href="#qvksI"/>
      </g>
      <g>
        <use fill="#fbefe1" xlink:href="#qvksJ"/>
      </g>
      <g>
        <use fill="#fbefe1" xlink:href="#qvksK"/>
      </g>
      <g>
        <use fill="#ff63be" xlink:href="#qvksL"/>
      </g>
      <g>
        <use fill="#fbefe1" xlink:href="#qvksM"/>
      </g>
      <g>
        <use fill="#fff" xlink:href="#qvksN"/>
      </g>
      <g>
        <use fill="#fff" xlink:href="#qvksO"/>
      </g>
      <g>
        <use fill="#b3d2ec" xlink:href="#qvksP"/>
      </g>
      <g>
        <use fill="#9b80ca" xlink:href="#qvksQ"/>
      </g>
      <g>
        <use fill="#fff" xlink:href="#qvksR"/>
      </g>
      <g>
        <use fill="#b3d2ec" xlink:href="#qvksS"/>
      </g>
    </g>
  </g>
</svg>
