<svg xmlns="http://www.w3.org/2000/svg" xmlns:xlink="http://www.w3.org/1999/xlink" width="585" height="331" viewBox="0 0 585 331"><defs><path id="dv02b" d="M827 255a28 28 0 1 1 56 0 28 28 0 0 1-56 0z"/><path id="dv02c" d="M854.81 239.1l-.05 32.42v.39c-.06 0-.16-.39-.22-.39-2.86 0-5.57-.2-7.98-.58l.05-31.26a52.86 52.86 0 0 1 8.2-.58"/><path id="dv02d" d="M870.9 247.82l-.15 21.05c-.26.17-.54.55-.85.7-3.19 1.64-8.97 1.96-15.47 1.98v-31.79c1.72-.13 16.46 8.06 16.46 8.06"/><path id="dv02e" d="M872.88 244.9v22.41c-.2.91-1.17 1.76-2.72 2.5v-27.95c1.72.89 2.72 1.93 2.72 3.05"/><path id="dv02f" d="M872.88 244.9c0 1.12-1 2.16-2.72 3.05l-.02.01h-.01l-15.3-2.98h-.05l-.04-.01-2.95-1.92-1.2-.78-3.97-2.59a52.9 52.9 0 0 1 8.2-.58 56 56 0 0 1 4.79.22l.26.02a40.47 40.47 0 0 1 3.81.53c2.63.47 4.85 1.15 6.45 1.97 0 0 .02 0 .03.02 1.73.88 2.72 1.92 2.72 3.04"/><path id="dv02g" d="M836.13 266.77h18.08v-16.45h-18.08z"/><path id="dv02h" d="M854.34 250.33h-18.2c-.05-.18 4.19-4.8 10.2-5.75z"/><path id="dv02i" d="M842.94 257.74V271.62l11.53.32v-14.35z"/><path id="dv02j" d="M854.47 257.6l-11.53 4.53-2.8.65-3.77-2.93-.23-1.29-.01-.73z"/><path id="dv02a" d="M836.13 257.83h6.82v13.8h-6.82z"/><path id="dv02l" d="M842.95 262.13v9.5c-3.91-1-6.5-2.5-6.82-4.18v-9.62c.2 1.61 2.46 3.05 5.98 4.07l.84.23"/><path id="dv02m" d="M870.22 264.4l-1.06 3.6-14.65 1.77-11.35-2.92 11.14-4.6z"/><path id="dv02n" d="M870.22 264.39v5.32l-.62.34c-3.18 1.63-8.85 2.73-15.34 2.75h-.22c-2.86 0-5.57-.2-7.98-.58-1.02-.16-2-.34-2.9-.56v-4.81c.74.16 1.52.3 2.33.43 2.41.37 5.12.58 7.98.58h.22c6.49-.03 12.16-1.12 15.34-2.76a9.8 9.8 0 0 0 1.19-.71"/><path id="dv02o" d="M847.46 241.67l.35-2.58z"/><path id="dv02p" d="M845.49 267.28c.96.15 1.98.28 3.03.37l7.32-5.19-1.37-4.86v4.65h-.17l-11.14 4.6c.74.17 1.52.31 2.33.43"/><path id="dv02q" d="M1224 336V230h88v106z"/><path id="dv02r" d="M1232.8 300.67c0-2.6 2.1-4.71 4.71-4.71h54.53a4.71 4.71 0 0 1 0 9.42h-54.53c-2.6 0-4.71-2.1-4.71-4.71z"/><path id="dv02s" d="M1243.36 314.21a2.94 2.94 0 0 1 2.94-2.94h41.04a2.94 2.94 0 1 1 0 5.89h-41.04a2.94 2.94 0 0 1-2.94-2.95z"/><path id="dv02t" d="M1247.49 267.24c0-11.13 9-20.16 20.09-20.16s20.08 9.03 20.08 20.16-9 20.16-20.09 20.16a20.12 20.12 0 0 1-20.08-20.16z"/><path id="dv02v" d="M1251.18 267.74a7.9 7.9 0 0 1-3.68-2.4 20.97 20.97 0 0 0 20.9 22.13c8.63 0 14.5-5.26 17.7-12.77-4.65-.08-7.7-.58-11.98-2.58-4.41-2.1-9.96-6.6-13.56-5.65-3.37 1.3-6.58 2.1-9.38 1.27z"/><path id="dv02x" d="M1247.62 265.03c-.02.37-.13 1.84-.13 2.21 0 11.35 8.3 20.17 20.09 20.17 3.67 0 7.18-1.16 10.2-2.8-5.34-.36-10.35-1.63-15.05-4.81-4.15-2.8-7.26-7.33-7.63-12.19-3.21.58-5.09.1-7.48-2.58z"/><path id="dv02z" d="M1260.12 261.92c0-.77.63-1.4 1.4-1.4h12.58c.77 0 1.4.63 1.4 1.4v13.53h-15.38z"/><path id="dv02A" d="M1258.48 263.68c0-.77.63-1.4 1.4-1.4h12.58c.77 0 1.4.63 1.4 1.4v13.53h-15.38z"/><path id="dv02B" d="M1260.46 259.54v-.68h.67v.68z"/><path id="dv02C" d="M1261.8 259.54v-.68h.67v.68z"/><path id="dv02D" d="M1263.13 259.54v-.68h.67v.68z"/><path id="dv02E" d="M1264.47 259.54v-.68h.67v.68z"/><path id="dv02F" d="M1265.8 259.54v-.68h.67v.68z"/><path id="dv02G" d="M1267.13 259.54v-.68h.67v.68z"/><path id="dv02H" d="M1268.47 259.54v-.68h.67v.68z"/><path id="dv02I" d="M1269.8 259.54v-.68h.67v.68z"/><path id="dv02J" d="M1271.14 259.54v-.68h.67v.68z"/><path id="dv02K" d="M1272.47 259.54v-.68h.67v.68z"/><path id="dv02L" d="M1273.81 259.54v-.68h.67v.68z"/><path id="dv02M" d="M1275.14 259.54v-.68h.67v.68z"/><path id="dv02N" d="M1276.47 259.54v-.68h.67v.68z"/><path id="dv02O" d="M1277.34 258.65v-.68h.67v.68z"/><path id="dv02P" d="M1278.21 257.77v-.68h.67v.68z"/><path id="dv02Q" d="M1279.08 256.89v-.68h.67v.68z"/><path id="dv02R" d="M1279.95 256v-.68h.67v.68z"/><path id="dv02S" d="M1279.95 256.89v-.68h.67v.68z"/><path id="dv02T" d="M1279.95 257.77v-.68h.67v.68z"/><path id="dv02U" d="M1279.08 256v-.68h.67v.68z"/><path id="dv02V" d="M1278.21 256v-.68h.67v.68z"/><path id="dv02W" d="M1276.47 260.89v-.68h.67v.68z"/><path id="dv02X" d="M1276.47 262.25v-.68h.67v.68z"/><path id="dv02Y" d="M1276.47 263.61v-.68h.67v.68z"/><path id="dv02Z" d="M1276.47 264.97v-.68h.67v.68z"/><path id="dv02aa" d="M1276.47 266.33v-.68h.67v.68z"/><path id="dv02ab" d="M1276.47 271.77v-4.76h.67v4.76z"/><path id="dv02ac" d="M1276.47 273.13v-.68h.67v.68z"/><path id="dv02ad" d="M1276.47 274.49v-.68h.67v.68z"/><path id="dv02ae" d="M1257.44 278.88h13.35c.74 0 1.34-.61 1.34-1.36v-10.85h-14.69z"/><path id="dv02af" d="M1257.44 265.31c0-.75.6-1.36 1.36-1.36h11.97c.75 0 1.36.6 1.36 1.36v1.36h-14.69z"/><path id="dv02ag" d="M1258.48 265.7v-.7h.67v.7z"/><path id="dv02ah" d="M1259.82 265.7v-.7h.67v.7z"/><path id="dv02ai" d="M1261.17 265.7v-.7h.67v.7z"/><path id="dv02aj" d="M1258.74 272.77a3.35 3.35 0 0 1 3.33-3.38 3.35 3.35 0 0 1 3.32 3.38 3.35 3.35 0 0 1-3.33 3.38 3.35 3.35 0 0 1-3.32-3.38z"/><path id="dv02ak" d="M1261.16 274.13v-2.72l2.68 1.36z"/><path id="dv02al" d="M1266.43 269.72v-.68h4.32v.68z"/><path id="dv02am" d="M1266.43 271.08v-.68h4.32v.68z"/><path id="dv02an" d="M1266.43 272.44v-.68h4.32v.68z"/><path id="dv02ao" d="M1266.43 273.79v-.68h4.32v.68z"/><path id="dv02ap" d="M1266.43 275.15v-.68h4.32v.68z"/><path id="dv02aq" d="M1266.43 276.51v-.68h4.32v.68z"/><path id="dv02ar" d="M1189 235a28 28 0 1 1 56 0 28 28 0 0 1-56 0z"/><path id="dv02as" d="M1215.9 217.1l-7.56 7.51c-.45.46-.45 1.2 0 1.65.46.46 1.2.46 1.67 0l5.8-5.76c.36-.37 1-.11 1 .4v28.93c0 .65.53 1.17 1.18 1.17.65 0 1.17-.52 1.17-1.17v-28.92c0-.52.63-.78 1-.41l5.83 5.8c.46.45 1.2.45 1.67 0 .45-.46.45-1.2 0-1.65l-8.02-7.97a2.36 2.36 0 0 0-3.32 0z"/><path id="dv02at" d="M727 520v-18h540v18z"/><path id="dv02au" d="M745 538v-18h504v18z"/><path id="dv02av" d="M990.45 428L974 485.56l2.35 16.44h60.5l15.86-64.6 20.56 64.6H1085l9.99-74z"/><path id="dv02aw" d="M928.53 340s-22.55 11.44-29.53 15.96c-6.97 4.53-12.99 11.24-12.99 11.24l-5.9 10.64-5.32 14.19-12.99 34.3-11.8 28.96-11.23 26.6L837 502h137s-6.31-26.33-10.04-39.61A47774.05 47774.05 0 0 0 928.53 340z"/><path id="dv02ax" d="M957.84 356.06l-8.84 8.82 18.85 71.18 4.12 2.94 4.13-2.94 15.9-56.47v-13.53L990.23 349z"/><path id="dv02ay" d="M928 339.9l7.63-5.9 2.35 41.33 11.16-11.22s16.87 59.23 18.2 63.17c1.33 3.95 2.93 4.73 4.7 4.73s3-.98 3.52-2.36c.51-1.39 16.44-51.37 16.44-51.37l-1.17 51.37-18.2 64.35"/><path id="dv02az" d="M969 406a3 3 0 1 1 6 0 3 3 0 0 1-6 0z"/><path id="dv02aA" d="M969 386a3 3 0 1 1 6 0 3 3 0 0 1-6 0z"/><path id="dv02aB" d="M941.95 320L935 334.74l2.32 41.26L957 355.96z"/><path id="dv02aC" d="M947 328l7.73 19.44s2.38 7.34 4.76 11.78a44.49 44.49 0 0 0 5.94 8.25s4.16 3.53 8.33 3.53c4.16 0 5.21-.71 8.92-4.71 3.7-4 4.03-6.53 5.94-11.2 1.91-4.66 2.38-15.3 2.38-15.3z"/><path id="dv02aD" d="M944.17 290.57l-1.17 28.8s3.5 9.68 9.4 16.46c5.88 6.78 6.2 7.9 14.09 10.58 7.87 2.67 11.99 1.49 17.02 0 5.04-1.5 4.64-4.08 11.75-12.93 7.1-8.85 9.98-14.11 9.98-14.11l1.76-44.08-14.68-5.29-32.88 1.18-12.92-1.18z"/><path id="dv02aE" d="M944 291s-9.75 1.67-10 10.5c-.24 8.83 9.41 10.5 9.41 10.5z"/><path id="dv02aF" d="M935.28 296s-3.87-7.24-1.18-16.61c2.7-9.37 11.23-18.39 11.23-18.39s5.32 6.1 8.87 7.71c3.56 1.6 2.46 2.24 14.78 2.97 12.31.72 22.7-.49 25.42-.6 2.72-.1 2.42-1.5 5.32-.59 2.9.91 3.4 2.25 4.14 3.56.73 1.31 3.54 10.09 3.54 10.09s.66 7.88.6 8.3c-.07.42-1.78-.6-1.78-.6s-2.02-9.42-4.73-12.45c-2.7-3.03-5.68-4.5-10.64-4.75-4.96-.24-17.61 3.09-25.42 2.97-7.8-.11-14.36-4.51-15.37-4.15-1 .36-.28 7.05-1.18 10.08-.9 3.04-1.79 4.4-3.55 5.93-1.75 1.55-3.1.56-5.9 2.38a13.7 13.7 0 0 0-4.15 4.15z"/><path id="dv02aG" d="M945.15 261.19s-2.3-4.69 0-11.16c.98-2.75 5.23-8.73 13.62-11.15 4.77-1.38 18.35-.6 18.35-.6s8.9 1.31 13.02 2.36a92.86 92.86 0 0 1 10.06 3.52s3.33 2.32 4.74 3.52c1.4 1.2 4.14 4.11 4.14 4.11s1.7 2.63 2.37 4.11c.66 1.49 2.14 3.83 2.37 6.46.22 2.63 1.18 34.64 1.18 34.64l-7.1-4.7-.6-8.22s-1.25-3.79-1.77-5.28c-1.16-3.34-2.15-5.42-3.55-6.46-3.05-2.26-11.25-.59-11.25-.59s-15.97.69-21.3.6c-5.34-.1-7.63-.14-11.26-1.18-3.62-1.05-7.7-4.7-7.7-4.7z"/><path id="dv02aH" d="M1006.2 292s10.54 2.3 10.8 11.3c.25 9-12 10.7-12 10.7z"/><path id="dv02aI" d="M957.82 356l1.18 2.86-8.82 9.14-1.18-3.43z"/><path id="dv02aJ" d="M987.18 358l-1.18 2.86 8.82 9.14 1.18-3.43z"/><path id="dv02aK" d="M923.95 392L894 463.23l32.89 1.77s-1.18-.97-1.18-2.94 1.18-4.12 1.18-4.12 4.11-8.08 4.11-14.13c0-6.06-4.11-11.78-4.11-11.78s-4.06-2.96-5.87-6.47c-1.82-3.51-2.67-5.8-2.35-9.42.31-3.62 5.28-24.14 5.28-24.14z"/><path id="dv02aL" d="M943.17 465H956v37h-14z"/><path id="dv02aM" d="M950 469.5a2.5 2.5 0 1 1 5 0 2.5 2.5 0 0 1-5 0z"/><path id="dv02aN" d="M971.17 492.87l2.34 9.13H1015s-1.6-5.57-4.68-8.52c-3.07-2.95-9.93-5.48-9.93-5.48H970z"/><path id="dv02aO" d="M956 471.63s6.92.7 11.12 0c4.2-.69 4.72-2.21 10.53-3.58 5.8-1.37 5.4-2.6 12.28-1.79 6.88.82 12.87 4.78 12.87 4.78s8.07 8.6 8.2 14.33c.12 5.73-2.34 8.23-6.44 10.74-4.1 2.51-7.31 1.8-14.63 1.8-7.31 0-8.72-1.59-14.62-1.8-5.9-.2-19.31.6-19.31.6z"/><path id="dv02aP" d="M1044.48 471l-7.48 31h19v-31z"/><path id="dv02aQ" d="M949 303.5c0-5.8 4.61-10.5 10.3-10.5 5.7 0 10.31 4.7 10.31 10.5S965 314 959.31 314c-5.7 0-10.31-4.7-10.31-10.5z"/><path id="dv02aR" d="M981.39 303.5c0-5.8 4.61-10.5 10.3-10.5 5.7 0 10.31 4.7 10.31 10.5s-4.61 10.5-10.3 10.5c-5.7 0-10.31-4.7-10.31-10.5z"/><path id="dv02aS" d="M969.02 300.2s1.97-2.4 6.48-2.4c4.5 0 6.48 2.4 6.48 2.4"/><path id="dv02aT" d="M990 300.6c0-3.1 2.5-5.6 5.6-5.6h242.8c3.1 0 5.6 2.5 5.6 5.6v164.8c0 3.1-2.5 5.6-5.6 5.6H995.6a5.6 5.6 0 0 1-5.6-5.6z"/><path id="dv02aU" d="M1100 371a17 17 0 1 1 34 0 17 17 0 0 1-34 0z"/><path id="dv02aV" d="M1109.82 377.68v-1.75a4.23 4.23 0 0 0 4.12-4.33h1.66c0 3.35-2.59 6.08-5.78 6.08z"/><path id="dv02aW" d="M1113.94 371.6h1.66v6.08h-1.66z"/><path id="dv02aX" d="M1118.72 371.6h-1.66c0 3.35 2.6 6.08 5.78 6.08v-1.75a4.24 4.24 0 0 1-4.12-4.33z"/><path id="dv02aY" d="M1117.05 371.6v-11.33h1.67v11.33"/><path id="dv02aZ" d="M1105.7 371.6h-1.66c0-3.35 2.6-6.08 5.78-6.08v1.75a4.23 4.23 0 0 0-4.12 4.33z"/><path id="dv02ba" d="M1109.82 377.68c-3.19 0-5.78-2.73-5.78-6.08h1.66c0 2.4 1.85 4.33 4.12 4.33z"/><path id="dv02bb" d="M1115.6 371.6h-1.66c0-2.4-1.84-4.33-4.12-4.33v-1.75c3.2 0 5.78 2.73 5.78 6.08z"/><path id="dv02bc" d="M1122.84 377.68v-1.75a4.23 4.23 0 0 0 4.12-4.33h1.66c0 3.35-2.59 6.08-5.78 6.08z"/><path id="dv02bd" d="M1128.62 371.6h-1.66c0-2.4-1.84-4.33-4.12-4.33v-1.75c3.2 0 5.78 2.73 5.78 6.08z"/><path id="dv02be" d="M1119.95 366.33v2.18a4 4 0 0 1 2.9-1.24v-1.75c-1.06 0-2.05.3-2.9.81z"/><path id="dv02bf" d="M1086 501l9.42-66.3s2.25-21.7 21.79-21.7c19.53 0 23.55 21.7 23.55 21.7L1149 501z"/><path id="dv02bg" d="M1057 471h7.03l9.97 31h-17z"/><path id="dv02bh" d="M783 443h65l-7.1 59h-51.4z"/><path id="dv02bi" d="M783 444l6.56 58 20.28-.59s2.8-6.22 3.58-8.78c.78-2.57 2.02-9.72 2.38-11.72.36-2 .26-6.58-.6-9.37-.85-2.8-1.64-5.34-4.76-8.2-3.13-2.87-4.85-2.35-8.95-4.7-4.1-2.33-5.82-5.14-5.96-7.02-.15-1.88 1.19-4.1 1.19-4.1z"/><path id="dv02bj" d="M783 443c0-1.66 14.55-3 32.5-3s32.5 1.34 32.5 3-14.55 3-32.5 3-32.5-1.34-32.5-3z"/><path id="dv02bk" d="M814 446s9.17-12.7 26.55-28.26c17.38-15.56 36.57-28.26 36.57-28.26s18.27-15.76 10.62-28.26c-7.65-12.5-18.29-8.24-30.09-3.53-11.8 4.7-13.32 6.51-23.6 15.9-10.26 9.38-18.28 22.37-18.28 22.37v32.97z"/><path id="dv02bl" d="M821 413s32.94-46.37 60-54"/><path id="dv02bm" d="M814.19 447s15.48-20.64 14.22-37.09c-1.26-16.44-.22-19.05-5.93-32.37-4.37-10.22-15.1-22.61-16-31.2-2.06-19.82 19.11-35.47 8.9-42.98-10.23-7.52-29.53 10.27-38.53 21.2-8.99 10.92-10.43 31.55-11.26 42.97-.82 11.41 6.52 22.37 6.52 22.37z"/><path id="dv02bn" d="M809.44 303.94s-23.7 23.49-23.7 37.68c0 14.19 23.7 57.7 23.7 57.7s3.96 14.78 4.74 20.6c.78 5.81 0 14.71 0 14.71"/><path id="dv02bo" d="M808.67 446s-7.33-7.33-10.67-9.99c-6.12-4.88-11.44-7.61-14.82-9.99-7.82-5.5-11.88-7.33-16-10.57-4.12-3.25-13.94-26.82 5.34-26.45 19.27.38 25.48 9.4 29.03 15.28 3.56 5.88 2.97 4.7 5.93 12.34 2.96 7.64 3.82 12.7 4.74 16.45.93 3.76 1.78 12.93 1.78 12.93z"/><path id="dv02bp" d="M809 438s-1.45-11.18-8.75-18.85c-3.5-3.67-9.92-9.96-20.42-17.67C775.7 398.45 767 395 767 395"/><linearGradient id="dv02u" x1="1287.66" x2="1247.49" y1="267.24" y2="267.24" gradientUnits="userSpaceOnUse"><stop offset="0" stop-color="#3c285f"/><stop offset="1" stop-color="#2b1c44"/></linearGradient><linearGradient id="dv02w" x1="1266.79" x2="1266.79" y1="287.47" y2="265.34" gradientUnits="userSpaceOnUse"><stop offset="0" stop-color="#3c285f"/><stop offset="1" stop-color="#2b1c44"/></linearGradient><linearGradient id="dv02y" x1="1247.49" x2="1277.77" y1="276.22" y2="276.22" gradientUnits="userSpaceOnUse"><stop offset="0" stop-color="#4d3675"/><stop offset="1" stop-color="#34136a"/></linearGradient><clipPath id="dv02k"><use xlink:href="#dv02a"/></clipPath></defs><g><g transform="translate(-727 -207)"><g><use fill="#9c6ce9" fill-opacity=".6" xlink:href="#dv02b"/></g><g><g><g><g><use fill="#1273b6" xlink:href="#dv02c"/></g><g><use fill="#1d8bc0" xlink:href="#dv02d"/></g><g><use fill="#1d8bc0" xlink:href="#dv02e"/></g><g><use fill="#2ab1d6" xlink:href="#dv02f"/></g></g><g><g><use fill="#fdbb25" xlink:href="#dv02g"/></g></g><g><g><use fill="#f69320" xlink:href="#dv02h"/></g><g><use fill="#edd106" xlink:href="#dv02i"/></g><g><use fill="#fedd10" xlink:href="#dv02j"/></g><g><g/><g clip-path="url(#dv02k)"><use fill="#f7e21c" xlink:href="#dv02l"/></g></g><g><use fill="#94b700" xlink:href="#dv02m"/></g><g><use fill="#677f00" xlink:href="#dv02n"/></g><g><use fill="#7e3d31" xlink:href="#dv02o"/></g><g><use fill="#677f00" xlink:href="#dv02p"/></g></g></g></g><g><g><use fill="#af77ff" xlink:href="#dv02q"/></g><g><use fill="#fff" xlink:href="#dv02r"/></g><g><use fill="#fff" xlink:href="#dv02s"/></g><g><g><g><use fill="url(#dv02u)" xlink:href="#dv02t"/></g><g><use fill="url(#dv02w)" xlink:href="#dv02v"/></g><g><use fill="url(#dv02y)" xlink:href="#dv02x"/></g></g><g><g><use fill="#fff" xlink:href="#dv02z"/></g><g><use fill="#5c6bc0" xlink:href="#dv02A"/></g><g><g><use fill="#f6bf58" xlink:href="#dv02B"/></g><g><use fill="#f6bf58" xlink:href="#dv02C"/></g><g><use fill="#f6bf58" xlink:href="#dv02D"/></g><g><use fill="#f6bf58" xlink:href="#dv02E"/></g><g><use fill="#f6bf58" xlink:href="#dv02F"/></g><g><use fill="#f6bf58" xlink:href="#dv02G"/></g><g><use fill="#f6bf58" xlink:href="#dv02H"/></g><g><use fill="#f6bf58" xlink:href="#dv02I"/></g><g><use fill="#f6bf58" xlink:href="#dv02J"/></g><g><use fill="#f6bf58" xlink:href="#dv02K"/></g><g><use fill="#f6bf58" xlink:href="#dv02L"/></g><g><use fill="#f6bf58" xlink:href="#dv02M"/></g><g><use fill="#fdef8d" xlink:href="#dv02N"/></g><g><use fill="#fdef8d" xlink:href="#dv02O"/></g><g><use fill="#fdef8d" xlink:href="#dv02P"/></g><g><use fill="#fdef8d" xlink:href="#dv02Q"/></g><g><use fill="#fdef8d" xlink:href="#dv02R"/></g><g><use fill="#fdef8d" xlink:href="#dv02S"/></g><g><use fill="#fdef8d" xlink:href="#dv02T"/></g><g><use fill="#fdef8d" xlink:href="#dv02U"/></g><g><use fill="#fdef8d" xlink:href="#dv02V"/></g><g><use fill="#f6bf58" xlink:href="#dv02W"/></g><g><use fill="#f6bf58" xlink:href="#dv02X"/></g><g><use fill="#f6bf58" xlink:href="#dv02Y"/></g><g><use fill="#f6bf58" xlink:href="#dv02Z"/></g><g><use fill="#f6bf58" xlink:href="#dv02aa"/></g><g><use fill="#f6bf58" xlink:href="#dv02ab"/></g><g><use fill="#f6bf58" xlink:href="#dv02ac"/></g><g><use fill="#f6bf58" xlink:href="#dv02ad"/></g></g><g><use fill="#bf98ff" xlink:href="#dv02ae"/></g><g><use fill="#9c6ce9" xlink:href="#dv02af"/></g><g><g><use fill="#fff" xlink:href="#dv02ag"/></g><g><use fill="#fff" xlink:href="#dv02ah"/></g><g><use fill="#fff" xlink:href="#dv02ai"/></g></g><g><use fill="#fbc02d" xlink:href="#dv02aj"/></g><g><use fill="#fff" xlink:href="#dv02ak"/></g><g><g><use fill="#34495e" xlink:href="#dv02al"/></g><g><use fill="#34495e" xlink:href="#dv02am"/></g><g><use fill="#34495e" xlink:href="#dv02an"/></g><g><use fill="#34495e" xlink:href="#dv02ao"/></g><g><use fill="#34495e" xlink:href="#dv02ap"/></g><g><use fill="#34495e" xlink:href="#dv02aq"/></g></g></g></g></g><g><use fill="#9c6ce9" xlink:href="#dv02ar"/></g><g><use fill="#fff" xlink:href="#dv02as"/></g><g><use fill="#d7a07c" xlink:href="#dv02at"/></g><g><use fill="#bc8cb7" xlink:href="#dv02au"/></g><g><use fill="#32a0f9" xlink:href="#dv02av"/></g><g><use fill="#32a0f9" xlink:href="#dv02aw"/></g><g><use fill="#f5f5f3" xlink:href="#dv02ax"/></g><g><use fill="#03136c" xlink:href="#dv02ay"/></g><g><use fill="#03146a" xlink:href="#dv02az"/></g><g><use fill="#03146a" xlink:href="#dv02aA"/></g><g><use fill="#f6f4f5" xlink:href="#dv02aB"/></g><g><use fill="#e59c7e" xlink:href="#dv02aC"/></g><g><use fill="#f1b496" xlink:href="#dv02aD"/></g><g><use fill="#e89b7e" xlink:href="#dv02aE"/></g><g><use fill="#3d304e" xlink:href="#dv02aF"/></g><g><use fill="#514369" xlink:href="#dv02aG"/></g><g><use fill="#e89b7e" xlink:href="#dv02aH"/></g><g><use fill="#e5e6e8" xlink:href="#dv02aI"/></g><g><use fill="#e5e6e8" xlink:href="#dv02aJ"/></g><g><use fill="#0065da" xlink:href="#dv02aK"/></g><g><use fill="#f4f4f4" xlink:href="#dv02aL"/></g><g><use fill="#544269" xlink:href="#dv02aM"/></g><g><use fill="#fffeff" xlink:href="#dv02aN"/></g><g><use fill="#e89b7e" xlink:href="#dv02aO"/></g><g><use fill="#dddee2" xlink:href="#dv02aP"/></g><g><g><use fill="#fff" fill-opacity="0" stroke="#53446a" stroke-miterlimit="50" stroke-width=".7" xlink:href="#dv02aQ"/></g><g><use fill="#fff" fill-opacity="0" stroke="#53446a" stroke-miterlimit="50" stroke-width=".7" xlink:href="#dv02aR"/></g><g><use fill="#fff" fill-opacity="0" stroke="#53446a" stroke-miterlimit="50" stroke-width=".7" xlink:href="#dv02aS"/></g></g><g><use fill="#dbe7f1" xlink:href="#dv02aT"/></g><g><use fill="#59447f" xlink:href="#dv02aU"/></g><g><g><use fill="#1273b6" xlink:href="#dv02aV"/></g><g><use fill="#8cc540" xlink:href="#dv02aW"/></g><g><use fill="#fdbb25" xlink:href="#dv02aX"/></g><g><use fill="#fedd10" xlink:href="#dv02aY"/></g><g><use fill="#2ab1d6" xlink:href="#dv02aZ"/></g><g><use fill="#1d8bc0" xlink:href="#dv02ba"/></g><g><use fill="#d7de27" xlink:href="#dv02bb"/></g><g><use fill="#f69320" xlink:href="#dv02bc"/></g><g><use fill="#d7de27" xlink:href="#dv02bd"/></g><g><use fill="#8cc540" xlink:href="#dv02be"/></g></g><g><use fill="#c3d8e0" xlink:href="#dv02bf"/></g><g><use fill="#af77ff" xlink:href="#dv02bg"/></g><g><use fill="#ecedf2" xlink:href="#dv02bh"/></g><g><use fill="#dddee3" xlink:href="#dv02bi"/></g><g><use fill="#315270" xlink:href="#dv02bj"/></g><g><use fill="#253489" xlink:href="#dv02bk"/></g><g><use fill="#fff" fill-opacity="0" stroke="#4c65d2" stroke-linecap="round" stroke-miterlimit="50" stroke-width="1.4" xlink:href="#dv02bl"/></g><g><g><use fill="#73d4e1" xlink:href="#dv02bm"/></g><g><use fill="#fff" fill-opacity="0" stroke="#00b4c4" stroke-linecap="round" stroke-miterlimit="50" stroke-width="1.4" xlink:href="#dv02bn"/></g></g><g><use fill="#fcd35f" xlink:href="#dv02bo"/></g><g><use fill="#fff" fill-opacity="0" stroke="#f7b100" stroke-linecap="round" stroke-miterlimit="50" stroke-width="1.4" xlink:href="#dv02bp"/></g></g></g></svg>