<svg version="1.1" id="Layer_1" xmlns="http://www.w3.org/2000/svg" x="0" y="0" viewBox="0 0 994 288" xml:space="preserve"><style>.st4{fill:#8cc540}.st9{fill:#d7de27}</style><path d="M351.1 37.5h2.7v213.1h-2.7zm97.8 103.4h17.2v72.5h-16.9l-.9-10.6c-4.1 8.5-15.4 12.6-23.5 12.8-21.5.1-37.3-13.1-37.3-38.5 0-25 16.6-38.1 37.8-37.9 9.7 0 19 4.6 23.1 11.8l.5-10.1zm-43.5 36.2c0 13.8 9.6 22 21.5 22 28.2 0 28.2-44 0-44-12 .1-21.5 8.2-21.5 22zm147.4-66.4v102.7H536l-1.2-10c-5.6 8.7-14.6 11.6-23.4 11.6-21.3 0-37.3-14.1-37.3-37.9 0-25 15.7-37.9 36.9-37.9 7.6 0 19.5 4.1 23.8 11.6v-40.1h18zm-60.7 66.4c0 12.6 9.1 21.3 20.6 21.3 11.3 0 21-8.2 21-21.3 0-12.6-9.7-21.2-21-21.2-11.5 0-20.6 8.1-20.6 21.2zm90.5-66.4v40.1c4.3-7.5 16.2-11.6 23.8-11.6 21.2 0 36.9 12.9 36.9 37.9 0 23.8-16 37.9-37.3 37.9-8.8 0-17.8-2.9-23.4-11.6l-1.2 10h-16.8V110.7h18zm1.2 66.4c0 13.1 9.7 21.3 21 21.3 11.5 0 20.6-8.7 20.6-21.3 0-13.1-9.1-21.2-20.6-21.2-11.3 0-21 8.6-21 21.2zm86.9-66.4v102.7h-17.8V110.7h17.8zm84.1 66.6c0 20.9-14.3 37.8-37.8 37.8s-37.6-16.9-37.6-37.8c0-20.7 14.4-37.8 37.5-37.8 23 0 37.9 17 37.9 37.8zm-57.5 0c0 11 6.6 21.3 19.7 21.3s19.7-10.3 19.7-21.3c0-10.9-7.6-21.5-19.7-21.5-13 0-19.7 10.6-19.7 21.5zm138.2 0c0 20.9-14.3 37.8-37.8 37.8s-37.6-16.9-37.6-37.8c0-20.7 14.4-37.8 37.5-37.8 23 0 37.9 17 37.9 37.8zm-57.5 0c0 11 6.6 21.3 19.7 21.3s19.7-10.3 19.7-21.3c0-10.9-7.6-21.5-19.7-21.5-13 0-19.7 10.6-19.7 21.5zm114.3 36.1v-38.8c0-9.6-5-18.2-14.8-18.2-9.7 0-15.4 8.7-15.4 18.2v38.8h-17.9v-72.6h16.6l1.3 8.8c3.8-7.3 12.2-10 19.1-10 8.7 0 17.3 3.5 21.5 13.5 6.5-10.3 14.8-13.2 24.3-13.2 20.6 0 30.7 12.6 30.7 34.4v39.1h-17.9v-39.1c0-9.6-4-17.6-13.7-17.6s-15.7 8.4-15.7 17.9v38.8h-18.1z" fill="#595a5c"/><path d="M102.2 238.2v-18.9c25.9 0 46.9-21 46.9-46.9H168c0 36.3-29.5 65.8-65.8 65.8z" fill="#1273b6"/><path class="st4" d="M149.1 172.4H168v65.8h-18.9z"/><path d="M203.4 172.4h-18.9c0 36.3 29.5 65.8 65.8 65.8v-18.9c-25.9 0-46.9-21.1-46.9-46.9z" fill="#fdbb25"/><path fill="#fedd10" d="M184.4 172.4V49.8h19v122.6"/><path d="M55.3 172.4H36.4c0-36.3 29.5-65.8 65.8-65.8v18.9c-25.9 0-46.9 21-46.9 46.9z" fill="#2ab1d6"/><path d="M102.2 238.2c-36.3 0-65.8-29.5-65.8-65.8h18.9c0 25.9 21 46.9 46.9 46.9v18.9z" fill="#1d8bc0"/><path class="st9" d="M168 172.4h-18.9c0-25.9-21-46.9-46.9-46.9v-18.9c36.3 0 65.8 29.5 65.8 65.8z"/><path d="M250.3 238.2v-18.9c25.9 0 46.9-21 46.9-46.9h18.9c0 36.3-29.5 65.8-65.8 65.8z" fill="#f69320"/><path class="st9" d="M316.1 172.4h-18.9c0-25.9-21-46.9-46.9-46.9v-18.9c36.3 0 65.8 29.5 65.8 65.8z"/><path class="st4" d="M217.4 115.4V139c8.5-8.4 20.1-13.5 32.9-13.5v-18.9c-12 0-23.2 3.2-32.9 8.8z"/></svg>