<svg xmlns="http://www.w3.org/2000/svg" viewBox="0 0 155.6 59.2"><path d="M58.9 44.1V15.9h17.9v5.2H65.6v6.1H74v5.2h-8.4v11.7h-6.7zm27.3-22.4v4.2c1.6-2.9 3.7-4.4 6.3-4.4v7h-1.6c-1.5 0-2.7.4-3.5 1.1-.8.8-1.2 2.1-1.2 3.9v10.6h-6.7V21.7h6.7zm9.7 19.5c-2.2-2.1-3.3-4.9-3.3-8.4s1.1-6.2 3.3-8.3c2.2-2.1 4.9-3.1 8.1-3.1s5.9 1 8.1 3.1 3.3 4.8 3.3 8.3-1.1 6.2-3.3 8.4-4.9 3.2-8.1 3.2-5.9-1.1-8.1-3.2zm11.4-4.1c.9-1 1.3-2.4 1.3-4.2s-.5-3.2-1.4-4.2-2-1.4-3.3-1.4-2.3.5-3.2 1.4c-.9 1-1.4 2.3-1.4 4.2s.5 3.2 1.4 4.2 2 1.4 3.3 1.4 2.4-.5 3.3-1.4zm17.2-15.4V25c1.4-2.4 3.6-3.5 6.6-3.5 2.5 0 4.5.9 6.1 2.6s2.3 4 2.3 7v13.1h-6.7V31.9c0-1.4-.4-2.6-1.1-3.4-.7-.8-1.8-1.2-3.1-1.2s-2.3.4-3.1 1.2c-.7.8-1.1 1.9-1.1 3.4v12.2h-6.7V21.7h6.8zm28 16.6h2.4v5.8h-3.4c-2.5 0-4.4-.6-5.7-1.7-1.3-1.1-2-3-2-5.7v-9.3h-2v-5.7h2v-5.5h6.7v5.5h4.4v5.7h-4.4v9.3c0 1 .7 1.6 2 1.6z" fill="#fff"/><path d="M23 47c-9.9 0-18-8-18-18 0-9.9 8-18 18-18h11.3c3.7 0 6.6 3 6.6 6.6V29c.1 9.9-8 18-17.9 18z" opacity=".65" fill="#e1e4ea"/><path d="M28 41.9c-9.9 0-18-8-18-18 0-9.9 8-18 18-18h11.3C43 6 46 9 46 12.6V24c0 9.9-8 17.9-18 17.9z" opacity=".5" fill="#fff"/><path d="M18 52C8 52 0 44 0 34c0-9.9 8-18 18-18h11.3c3.7 0 6.6 3 6.6 6.6V34c0 10-8 18-17.9 18z" opacity=".7" fill="#fff"/><path d="M17.4 40V24.3h10.2v2.9h-6.4v3.4H26v2.9h-4.8V40h-3.8z" fill="#377dff"/></svg>