<?xml version="1.0" encoding="utf-8"?>
<!-- Generator: Adobe Illustrator 22.0.2, SVG Export Plug-In . SVG Version: 6.00 Build 0)  -->
<svg version="1.1" id="Layer_1" xmlns="http://www.w3.org/2000/svg" xmlns:xlink="http://www.w3.org/1999/xlink" x="0px" y="0px"
	 viewBox="0 0 994 288" style="enable-background:new 0 0 994 288;" xml:space="preserve">
<style type="text/css">
	.st0{fill:#2B1C44;}
	.st1{fill:#231F20;}
	.st2{fill:#FFFFFF;}
	.st3{fill:#1273B6;}
	.st4{fill:#8CC540;}
	.st5{fill:#FDBB25;}
	.st6{fill:#FEDD10;}
	.st7{fill:#2AB1D6;}
	.st8{fill:#1D8BC0;}
	.st9{fill:#D7DE27;}
	.st10{fill:#F69320;}
	.st11{fill:#595A5C;}
</style>
<rect class="st0" width="994" height="288"/>
<g>
	<g>
		<rect x="351.1" y="37.5" class="st2" width="2.7" height="213.1"/>
	</g>
	<g>
		<path class="st2" d="M448.9,140.9h17.2v72.5h-16.9l-0.9-10.6c-4.1,8.5-15.4,12.6-23.5,12.8c-21.5,0.1-37.3-13.1-37.3-38.5
			c0-25,16.6-38.1,37.8-37.9c9.7,0,19,4.6,23.1,11.8L448.9,140.9z M405.4,177.1c0,13.8,9.6,22,21.5,22c28.2,0,28.2-44,0-44
			C414.9,155.2,405.4,163.3,405.4,177.1z"/>
		<path class="st2" d="M552.8,110.7v102.7H536l-1.2-10c-5.6,8.7-14.6,11.6-23.4,11.6c-21.3,0-37.3-14.1-37.3-37.9
			c0-25,15.7-37.9,36.9-37.9c7.6,0,19.5,4.1,23.8,11.6v-40.1H552.8z M492.1,177.1c0,12.6,9.1,21.3,20.6,21.3c11.3,0,21-8.2,21-21.3
			c0-12.6-9.7-21.2-21-21.2C501.2,155.9,492.1,164,492.1,177.1z"/>
		<path class="st2" d="M582.6,110.7v40.1c4.3-7.5,16.2-11.6,23.8-11.6c21.2,0,36.9,12.9,36.9,37.9c0,23.8-16,37.9-37.3,37.9
			c-8.8,0-17.8-2.9-23.4-11.6l-1.2,10h-16.8V110.7H582.6z M583.8,177.1c0,13.1,9.7,21.3,21,21.3c11.5,0,20.6-8.7,20.6-21.3
			c0-13.1-9.1-21.2-20.6-21.2C593.5,155.9,583.8,164.5,583.8,177.1z"/>
		<path class="st2" d="M670.7,110.7v102.7h-17.8V110.7H670.7z"/>
		<path class="st2" d="M754.8,177.3c0,20.9-14.3,37.8-37.8,37.8s-37.6-16.9-37.6-37.8c0-20.7,14.4-37.8,37.5-37.8
			C739.9,139.5,754.8,156.5,754.8,177.3z M697.3,177.3c0,11,6.6,21.3,19.7,21.3c13.1,0,19.7-10.3,19.7-21.3
			c0-10.9-7.6-21.5-19.7-21.5C704,155.8,697.3,166.4,697.3,177.3z"/>
		<path class="st2" d="M835.5,177.3c0,20.9-14.3,37.8-37.8,37.8s-37.6-16.9-37.6-37.8c0-20.7,14.4-37.8,37.5-37.8
			C820.6,139.5,835.5,156.5,835.5,177.3z M778,177.3c0,11,6.6,21.3,19.7,21.3c13.1,0,19.7-10.3,19.7-21.3c0-10.9-7.6-21.5-19.7-21.5
			C784.7,155.8,778,166.4,778,177.3z"/>
		<path class="st2" d="M892.3,213.4v-38.8c0-9.6-5-18.2-14.8-18.2c-9.7,0-15.4,8.7-15.4,18.2v38.8h-17.9v-72.6h16.6l1.3,8.8
			c3.8-7.3,12.2-10,19.1-10c8.7,0,17.3,3.5,21.5,13.5c6.5-10.3,14.8-13.2,24.3-13.2c20.6,0,30.7,12.6,30.7,34.4v39.1h-17.9v-39.1
			c0-9.6-4-17.6-13.7-17.6c-9.7,0-15.7,8.4-15.7,17.9v38.8H892.3z"/>
	</g>
	<g>
		<g>
			<path class="st3" d="M102.2,238.2v-18.9c25.9,0,46.9-21,46.9-46.9H168C168,208.7,138.5,238.2,102.2,238.2z"/>
		</g>
		<rect x="149.1" y="172.4" class="st4" width="18.9" height="65.8"/>
		<path class="st5" d="M203.4,172.4h-18.9c0,36.3,29.5,65.8,65.8,65.8v-18.9C224.4,219.3,203.4,198.2,203.4,172.4z"/>
		<polyline class="st6" points="184.4,172.4 184.4,49.8 203.4,49.8 203.4,172.4 		"/>
		<g>
			<path class="st7" d="M55.3,172.4H36.4c0-36.3,29.5-65.8,65.8-65.8v18.9C76.3,125.5,55.3,146.5,55.3,172.4z"/>
		</g>
		<g>
			<path class="st8" d="M102.2,238.2c-36.3,0-65.8-29.5-65.8-65.8h18.9c0,25.9,21,46.9,46.9,46.9V238.2z"/>
		</g>
		<g>
			<path class="st9" d="M168,172.4h-18.9c0-25.9-21-46.9-46.9-46.9v-18.9C138.5,106.6,168,136.1,168,172.4z"/>
		</g>
		<g>
			<path class="st10" d="M250.3,238.2v-18.9c25.9,0,46.9-21,46.9-46.9h18.9C316.1,208.7,286.6,238.2,250.3,238.2z"/>
		</g>
		<g>
			<path class="st9" d="M316.1,172.4h-18.9c0-25.9-21-46.9-46.9-46.9v-18.9C286.6,106.6,316.1,136.1,316.1,172.4z"/>
		</g>
		<path class="st4" d="M217.4,115.4V139c8.5-8.4,20.1-13.5,32.9-13.5v-18.9C238.3,106.6,227.1,109.8,217.4,115.4z"/>
	</g>
</g>
</svg>
