<svg xmlns="http://www.w3.org/2000/svg" viewBox="0 0 98.9 103.2"><path d="M1 87.1V58.9h18.3v5.2H7.8v6.1h8.6v5.2H7.8v11.7H1zm27.8-22.4v4.2c1.6-2.9 3.7-4.4 6.4-4.4v7h-1.7c-1.6 0-2.8.4-3.5 1.1-.8.8-1.2 2.1-1.2 3.9v10.6H22V64.7h6.8zm9.9 19.5c-2.3-2.1-3.4-4.9-3.4-8.4s1.1-6.2 3.4-8.3c2.2-2.1 5-3.1 8.3-3.1s6.1 1 8.3 3.1c2.2 2.1 3.3 4.8 3.3 8.3 0 3.5-1.1 6.2-3.3 8.4s-5 3.2-8.3 3.2-6-1.1-8.3-3.2zm11.6-4.1c.9-1 1.4-2.4 1.4-4.2s-.5-3.2-1.4-4.2-2-1.4-3.3-1.4c-1.3 0-2.4.5-3.3 1.4-.9 1-1.4 2.3-1.4 4.2s.5 3.2 1.4 4.2c.9 1 2.1 1.4 3.3 1.4s2.4-.5 3.3-1.4zm17.6-15.4V68c1.4-2.4 3.7-3.5 6.8-3.5 2.6 0 4.6.9 6.2 2.6 1.6 1.7 2.4 4 2.4 7v13.1h-6.8V74.9c0-1.4-.4-2.6-1.1-3.4-.8-.8-1.8-1.2-3.1-1.2s-2.4.4-3.1 1.2c-.8.8-1.1 1.9-1.1 3.4v12.2H61V64.7h6.9zm28.6 16.6h2.4v5.8h-3.5c-2.5 0-4.4-.6-5.8-1.7-1.4-1.1-2.1-3-2.1-5.7v-9.3h-2.1v-5.7h2.1v-5.5h6.8v5.5h4.5v5.7h-4.5v9.3c.1 1 .8 1.6 2.2 1.6z" fill="#377dff"/><path d="M50 41c-9.9 0-18-8-18-18 0-9.9 8-18 18-18h11.3C65 5 68 8 68 11.7V23c0 9.9-8.1 18-18 18z" opacity=".65" fill="#3f7de0"/><path d="M55 35.9c-9.9 0-18-8-18-18 0-9.9 8-18 18-18h11.3C70 0 73 3 73 6.6V18c0 9.9-8 17.9-18 17.9z" opacity=".5" fill="#00dffc"/><path d="M45 46c-9.9 0-18-8-18-18 0-9.9 8-18 18-18h11.3c3.7 0 6.6 3 6.6 6.6V28c0 10-8 18-17.9 18z" opacity=".7" fill="#377dff"/><path d="M44.4 34V18.3h10.2v2.9h-6.4v3.4H53v2.9h-4.8V34h-3.8z" fill="#fff"/></svg>