<svg xmlns="http://www.w3.org/2000/svg" xmlns:xlink="http://www.w3.org/1999/xlink" width="151" height="130"
     viewBox="0 0 151 130">
  <defs>
    <path id="zwfoa" d="M650.71 1288v-16h2.57v16z"/>
    <path id="zwfob" d="M644 1278.72h16v2.56h-16z"/>
    <path id="zwfoc" d="M745.29 1328v-10h1.43v10z"/>
    <path id="zwfod" d="M740.72 1322.58h10v1.43h-10z"/>
    <path id="zwfoe" d="M785 1293a5 5 0 1 1 10 0 5 5 0 0 1-10 0z"/>
    <path id="zwfof" d="M657 1216a4 4 0 1 1 8 0 4 4 0 0 1-8 0z"/>
    <path id="zwfog" d="M771 1202a4 4 0 1 1 8 0 4 4 0 0 1-8 0z"/>
    <path id="zwfoh"
          d="M706.45 1276.74h35.1v3.1a3.1 3.1 0 0 1-3.1 3.1h-28.9a3.1 3.1 0 0 1-3.1-3.1zm-2.06 3.1a5.17 5.17 0 0 0 5.16 5.16h28.9a5.17 5.17 0 0 0 5.17-5.16v-5.16h-39.23z"/>
    <path id="zwfoi" d="M718.84 1280.87v-2.06h10.32v2.06z"/>
    <path id="zwfoj"
          d="M706.45 1226.16a3.1 3.1 0 0 1 3.1-3.1h28.9a3.1 3.1 0 0 1 3.1 3.1v1.03h-35.1zm0 3.1h37.17v-3.1a5.17 5.17 0 0 0-5.17-5.16h-28.9a5.17 5.17 0 0 0-5.16 5.16v21.68h2.06z"/>
    <path id="zwfok" d="M741.55 1272.62v-16.52h2.06v16.52z"/>
    <path id="zwfol"
          d="M744.65 1251.98a9.3 9.3 0 0 1 0-18.6 9.3 9.3 0 0 1 0 18.6zm-14.46 9.28a2.07 2.07 0 1 1 0-4.14 2.07 2.07 0 0 1 0 4.14zm-13.42-16.52a2.07 2.07 0 1 1 0-4.13 2.07 2.07 0 0 1 0 4.13zm-4.11 16.52a9.3 9.3 0 0 1-18.6 0 9.3 9.3 0 0 1 18.6 0zm31.99-29.94c-6.27 0-11.36 5.1-11.36 11.35 0 3.04 1.2 5.79 3.14 7.82l-4.4 5.03a4.09 4.09 0 0 0-3.55-.08l-8.4-10.32a4.13 4.13 0 1 0-7.44-2.44c0 1 .38 1.9.97 2.61l-4.48 6.2a11.37 11.37 0 0 0-17.13 9.76c0 6.27 5.1 11.36 11.35 11.36a11.32 11.32 0 1 0 7.45-19.9l4.48-6.2a4.12 4.12 0 0 0 3.2-.09l8.4 10.33a4.13 4.13 0 1 0 6.72.11l4.39-5a11.27 11.27 0 0 0 6.66 2.17 11.37 11.37 0 0 0 0-22.71z"/>
    <path id="zwfom"
          d="M742.58 1239.58h4.13c.57 0 1.03.46 1.03 1.03h2.06a3.1 3.1 0 0 0-3.1-3.1h-1.03v-2.06h-2.06v2.06h-1.03a3.1 3.1 0 0 0 0 6.2h4.13a1.03 1.03 0 0 1 0 2.06h-4.13c-.57 0-1.04-.46-1.04-1.03h-2.06a3.1 3.1 0 0 0 3.1 3.1h1.03v2.06h2.06v-2.06h1.04a3.1 3.1 0 0 0 0-6.2h-4.13a1.03 1.03 0 0 1 0-2.06z"/>
    <path id="zwfon"
          d="M701.29 1258.16h4.13c.57 0 1.03.46 1.03 1.03h2.06a3.1 3.1 0 0 0-3.1-3.1h-1.03v-2.06h-2.06v2.06h-1.03a3.1 3.1 0 0 0 0 6.2h4.13a1.03 1.03 0 0 1 0 2.06h-4.13c-.57 0-1.04-.46-1.04-1.03h-2.06a3.1 3.1 0 0 0 3.1 3.1h1.03v2.06h2.06v-2.06h1.04a3.1 3.1 0 0 0 0-6.2h-4.13a1.03 1.03 0 0 1 0-2.06z"/>
    <path id="zwfoo"
          d="M716.77 1249.9v20.65h-5.16v2.06h27.87v-2.06h-2.06v-13.42h-2.07v13.42h-4.13v-5.17h-2.06v5.17h-4.13v-13.42h-2.07v13.42h-4.12v-20.65z"/>
  </defs>
  <g>
    <g transform="translate(-644 -1198)">
      <g>
        <g>
          <use fill="#9013fe" xlink:href="#zwfoa"/>
        </g>
        <g>
          <use fill="#9013fe" xlink:href="#zwfob"/>
        </g>
      </g>
      <g>
        <g>
          <use fill="#9013fe" xlink:href="#zwfoc"/>
        </g>
        <g>
          <use fill="#9013fe" xlink:href="#zwfod"/>
        </g>
      </g>
      <g>
        <use fill="#9013fe" xlink:href="#zwfoe"/>
      </g>
      <g>
        <use fill="#fff" fill-opacity="0" stroke="#9013fe" stroke-miterlimit="50" stroke-width="4" xlink:href="#zwfof"/>
      </g>
      <g>
        <use fill="#9013fe" xlink:href="#zwfog"/>
      </g>
      <g>
        <g>
          <use fill="#9013fe" xlink:href="#zwfoh"/>
        </g>
        <g>
          <use fill="#9013fe" xlink:href="#zwfoi"/>
        </g>
        <g>
          <use fill="#9013fe" xlink:href="#zwfoj"/>
        </g>
        <g>
          <use fill="#9013fe" xlink:href="#zwfok"/>
        </g>
        <g>
          <use fill="#9013fe" xlink:href="#zwfol"/>
        </g>
        <g>
          <use fill="#9013fe" xlink:href="#zwfom"/>
        </g>
        <g>
          <use fill="#9013fe" xlink:href="#zwfon"/>
        </g>
        <g>
          <use fill="#9013fe" xlink:href="#zwfoo"/>
        </g>
      </g>
    </g>
  </g>
</svg>
