<svg xmlns="http://www.w3.org/2000/svg" xmlns:xlink="http://www.w3.org/1999/xlink" width="151" height="130"><defs><path id="a" d="M251.71 1288v-16h2.57v16z"/><path id="b" d="M245 1278.72h16v2.56h-16z"/><path id="c" d="M346.29 1328v-10h1.43v10z"/><path id="d" d="M341.71 1322.58h10v1.43h-10z"/><path id="e" d="M386 1293a5 5 0 1 1 10 0 5 5 0 0 1-10 0z"/><path id="f" d="M258 1216a4 4 0 1 1 8 0 4 4 0 0 1-8 0z"/><path id="g" d="M372 1202a4 4 0 1 1 8 0 4 4 0 0 1-8 0z"/><path id="h" d="M308.51 1277.85v-1.98h1.73v1.98z"/><path id="i" d="M354.27 1282.27h-3.82v-7.2h-1.73v7.2h-12.2v-3.55h4.44v-10.38l-.01-.64.8.93v5.56h1.74v-5.56l3.97-4.55a11.66 11.66 0 0 1 6.8 10.6zm-23.3 0v-3.55h3.82v3.56zm-11.95-5.29v-8.2h-1.73v8.2h-4.52v-8.65c0-5.36 3.21-10 7.81-12.06l4.55 5.21v6.3h1.74v-6.3l4.55-5.21c4.6 2.07 7.8 6.7 7.8 12.06v8.65h-4.5v-8.2h-1.74v8.2zm2 5.3h-3.81v-3.56h3.82zm-17.74-.01v-7.2h-1.73v7.2h-3.82v-7.6c0-4.69 2.8-8.75 6.81-10.59l3.97 4.55v5.56h1.73v-5.56l.81-.93v11.03h4.43v3.54zm8.63-18.96c-.14.4-.27.8-.38 1.2l-2.15 2.48-3.1-3.54a11.62 11.62 0 0 1 5.63-.14zm-9.46-7.75c2.04-.7 3.5-1.67 4.5-2.55 1.27.91 4.3 2.6 9.3 2.8a7 7 0 0 1-.68 1.81c-.68.67-1.3 1.4-1.85 2.18a7.07 7.07 0 0 1-11.28-4.23zm6.93-8.37a7.06 7.06 0 0 1 7.05 6.9c-4.38-.16-7.08-1.56-8.28-2.36.45-.57.65-.97.67-1.02l-1.55-.75c-.02.02-1.2 2.37-4.93 3.8a7.06 7.06 0 0 1 7.04-6.57zm1.93-4.57l3.98 4.55v.57a8.77 8.77 0 0 0-8.06-2.01c1.11-1.32 2.5-2.38 4.08-3.1zm4.9 2.83l-.07.08-3.09-3.54a11.62 11.62 0 0 1 3.9-.39 9.73 9.73 0 0 0-.74 3.72v.13zm-7-11.35c2.05-.7 3.5-1.66 4.5-2.55 1.28.91 4.3 2.6 9.3 2.8a7 7 0 0 1-.74 1.92 9.84 9.84 0 0 0-4.18 3.3 7.03 7.03 0 0 1-8.88-5.47zm6.93-8.37a7.06 7.06 0 0 1 7.05 6.9c-4.38-.16-7.08-1.56-8.28-2.36.45-.57.65-.97.68-1.02l-1.56-.76c-.05.1-1.24 2.4-4.93 3.81a7.06 7.06 0 0 1 7.04-6.57zm9.86 11.53a8.07 8.07 0 0 1 8.05 8c-5.14-.16-8.27-1.84-9.6-2.74.56-.68.8-1.17.83-1.22l-1.56-.76c-.02.03-1.4 2.79-5.77 4.4a8.07 8.07 0 0 1 8.05-7.68zm9.86-11.53a7.06 7.06 0 0 1 7.05 6.9c-4.38-.16-7.08-1.56-8.28-2.36.45-.57.65-.97.67-1.02l-1.55-.76c-.05.1-1.24 2.4-4.93 3.81a7.06 7.06 0 0 1 7.04-6.57zM317 1249.9v-.72a9.84 9.84 0 0 0 4.55 4.86c-1.25.4-2.43.94-3.52 1.63a8.82 8.82 0 0 0-1.03-5.77zm12.68 5.73l-3.68 4.2-3.69-4.2a13.25 13.25 0 0 1 7.37 0zm-3.69-2.25a8.07 8.07 0 0 1-7.93-6.65c2.38-.8 4.05-1.92 5.18-2.94 1.4 1.01 4.84 2.99 10.63 3.2a8.07 8.07 0 0 1-7.88 6.39zm7.95 2.3a14.85 14.85 0 0 0-3.52-1.64 9.84 9.84 0 0 0 4.55-4.86v.72a8.74 8.74 0 0 0-1.03 5.77zm1.9-15.84c-.67 0-1.32-.1-1.94-.27a9.84 9.84 0 0 0-4.18-3.3 7 7 0 0 1-.8-2.17c2.04-.7 3.5-1.66 4.5-2.55 1.27.91 4.3 2.6 9.3 2.8a7.07 7.07 0 0 1-6.87 5.5zm4.85 2.78c1.58.73 2.97 1.8 4.08 3.1a8.8 8.8 0 0 0-8.06 2.02v-.57zm-5.65-1.02a11.74 11.74 0 0 1 3.9.39l-3.1 3.54-.07-.08v-.13c0-1.32-.26-2.57-.73-3.72zm14.61 12.49c-4.37-.16-7.07-1.56-8.27-2.36.45-.57.65-.97.67-1.02l-1.55-.75c-.02.02-1.2 2.37-4.92 3.8a7.06 7.06 0 0 1 14.07.33zm-3.95 9.36l-3.09 3.54-2.15-2.47c-.11-.41-.24-.81-.38-1.21a11.64 11.64 0 0 1 5.62.14zm-3.09-2.15a7.02 7.02 0 0 1-4.34-1.5 15.07 15.07 0 0 0-1.85-2.18 7 7 0 0 1-.74-2.06c2.05-.7 3.5-1.67 4.5-2.55 1.28.91 4.3 2.6 9.3 2.8a7.07 7.07 0 0 1-6.87 5.5zm4.18.67a8.8 8.8 0 0 0 .97-14.84 13.45 13.45 0 0 0-7.73-6.62 8.8 8.8 0 1 0-12.48-4.85 9.81 9.81 0 0 0-3.12 0 8.8 8.8 0 1 0-17.09-2.87 8.8 8.8 0 0 0 4.61 7.72 13.45 13.45 0 0 0-7.73 6.62 8.78 8.78 0 0 0-1.47 12.89v.13h.12a8.84 8.84 0 0 0 2.32 1.82 13.4 13.4 0 0 0-9.2 12.7v9.33h26.76v-5.28h6.48v5.28H356v-9.32a13.4 13.4 0 0 0-9.2-12.7z"/><path id="j" d="M341.76 1277.85v-1.98h1.73v1.98z"/><path id="k" d="M325.13 1271.92v-2.24h1.73v2.24z"/><path id="l" d="M351.54 1244.48v-1.92h1.73v1.92z"/><path id="m" d="M347.51 1237.9v-1.92h1.73v1.92z"/><path id="n" d="M354.27 1230.8v-1.92H356v1.92z"/><path id="o" d="M347.51 1227.1v-1.92h1.73v1.92z"/><path id="p" d="M298.73 1244.48v-1.92h1.73v1.92z"/><path id="q" d="M302.76 1237.9v-1.92h1.73v1.92z"/><path id="r" d="M296 1230.8v-1.92h1.73v1.92z"/><path id="s" d="M302.76 1227.1v-1.92h1.73v1.92z"/></defs><use fill="#9013fe" xlink:href="#a" transform="translate(-245 -1198)"/><use fill="#9013fe" xlink:href="#b" transform="translate(-245 -1198)"/><use fill="#9013fe" xlink:href="#c" transform="translate(-245 -1198)"/><use fill="#9013fe" xlink:href="#d" transform="translate(-245 -1198)"/><use fill="#9013fe" xlink:href="#e" transform="translate(-245 -1198)"/><use fill="#fff" fill-opacity="0" stroke="#9013fe" stroke-miterlimit="50" stroke-width="4" xlink:href="#f" transform="translate(-245 -1198)"/><use fill="#9013fe" xlink:href="#g" transform="translate(-245 -1198)"/><g fill="#9013fe" transform="translate(-245 -1198)"><use xlink:href="#h"/><use xlink:href="#i"/><use xlink:href="#j"/><use xlink:href="#k"/><use xlink:href="#l"/><use xlink:href="#m"/><use xlink:href="#n"/><use xlink:href="#o"/><use xlink:href="#p"/><use xlink:href="#q"/><use xlink:href="#r"/><use xlink:href="#s"/></g></svg>