<svg xmlns="http://www.w3.org/2000/svg" xmlns:xlink="http://www.w3.org/1999/xlink" width="378" height="325"
     viewBox="0 0 378 325">
  <defs>
    <path id="buq5a" d="M146.29 2674v-40h6.43v40z"/>
    <path id="buq5b" d="M129.5 2650.79h40v6.42h-40z"/>
    <path id="buq5c" d="M382.71 2774v-25h3.57v25z"/>
    <path id="buq5d" d="M371.29 2760.43h25v3.57h-25z"/>
    <path id="buq5e" d="M482 2686.5a12.5 12.5 0 1 1 25 0 12.5 12.5 0 0 1-25 0z"/>
    <path id="buq5f" d="M162 2494a10 10 0 1 1 20 0 10 10 0 0 1-20 0z"/>
    <path id="buq5g" d="M447 2459a10 10 0 1 1 20 0 10 10 0 0 1-20 0z"/>
    <path id="buq5h"
          d="M407.62 2541.13H266.39V2526h141.23zm0 110.86H266.39v-106.42h141.23zM262 2521.57v134.86h150v-134.86z"/>
    <path id="buq5i"
          d="M275.45 2532.27c.8 0 1.45.66 1.45 1.47 0 .8-.65 1.46-1.45 1.46-.8 0-1.45-.66-1.45-1.46 0-.81.65-1.47 1.45-1.47zm0 7.37a5.88 5.88 0 0 0 5.85-5.9c0-3.26-2.62-5.91-5.85-5.91a5.88 5.88 0 0 0-5.84 5.9c0 3.26 2.62 5.91 5.84 5.91z"/>
    <path id="buq5j"
          d="M292.3 2532.27c.8 0 1.44.66 1.44 1.47 0 .8-.65 1.46-1.45 1.46-.8 0-1.45-.66-1.45-1.46 0-.81.65-1.47 1.45-1.47zm0 7.37a5.88 5.88 0 0 0 5.84-5.9c0-3.26-2.62-5.91-5.85-5.91a5.88 5.88 0 0 0-5.84 5.9c0 3.26 2.62 5.91 5.84 5.91z"/>
    <path id="buq5k"
          d="M309.14 2532.27c.8 0 1.45.66 1.45 1.47 0 .8-.65 1.46-1.45 1.46-.8 0-1.45-.66-1.45-1.46 0-.81.65-1.47 1.45-1.47zm0 7.37a5.88 5.88 0 0 0 5.85-5.9c0-3.26-2.62-5.91-5.85-5.91a5.88 5.88 0 0 0-5.84 5.9c0 3.26 2.62 5.91 5.84 5.91z"/>
    <path id="buq5l"
          d="M357.75 2532.27h37.69a1.44 1.44 0 0 1 1.45 1.47c0 .8-.65 1.46-1.45 1.46h-37.69c-.8 0-1.44-.66-1.44-1.46 0-.81.65-1.47 1.44-1.47zm0 7.37h37.68a5.88 5.88 0 0 0 5.26-8.47 5.87 5.87 0 0 0-5.26-3.34h-37.68a5.88 5.88 0 0 0-5.84 5.9c0 3.26 2.62 5.91 5.84 5.91z"/>
    <path id="buq5m"
          d="M384.03 2631.87h9.7v1.46a4.9 4.9 0 0 1-4.85 4.9 4.88 4.88 0 0 1-4.85-4.9zm2.66-55.24v28.69h4.4v-28.7l2.64 1.27v49.52h-9.7v-49.52zm-2.66-3.8l4.85-10.16 4.85 10.16v.14l-4.85-2.3-4.85 2.3zm4.85 69.84a9.21 9.21 0 0 0 7.67-4.11 9.37 9.37 0 0 0 1.58-5.23v-61.5l-9.25-19.4-9.24 19.4v61.5a9.3 9.3 0 0 0 9.24 9.34z"/>
    <path id="buq5n" d="M386.69 2615.96v-4.84h4.39v4.84z"/>
    <path id="buq5o" d="M323.37 2602.13h-45.73v-46.2h45.73zm4.4-50.65h-54.52v55.09h54.52z"/>
    <path id="buq5p" d="M323.37 2639.21h-45.73v-19.15h45.73zm4.4-23.59h-54.52v28.03h54.52z"/>
    <path id="buq5q" d="M338.27 2555.92v-4.44h28.82v4.44z"/>
    <path id="buq5r" d="M338.27 2572.2v-4.44h28.82v4.44z"/>
    <path id="buq5s" d="M338.27 2588.48v-4.44h28.82v4.44z"/>
    <path id="buq5t" d="M338.27 2620.06v-4.44h28.82v4.44z"/>
    <path id="buq5u" d="M338.27 2636.34v-4.44h28.82v4.44z"/>
  </defs>
  <g>
    <g transform="translate(-129 -2449)">
      <g>
        <g>
          <use fill="#9013fe" xlink:href="#buq5a"/>
        </g>
        <g>
          <use fill="#9013fe" xlink:href="#buq5b"/>
        </g>
      </g>
      <g>
        <g>
          <use fill="#9013fe" xlink:href="#buq5c"/>
        </g>
        <g>
          <use fill="#9013fe" xlink:href="#buq5d"/>
        </g>
      </g>
      <g>
        <use fill="#9013fe" xlink:href="#buq5e"/>
      </g>
      <g>
        <use fill="#fff" fill-opacity="0" stroke="#9013fe" stroke-miterlimit="50" stroke-width="10"
             xlink:href="#buq5f"/>
      </g>
      <g>
        <use fill="#9013fe" xlink:href="#buq5g"/>
      </g>
      <g>
        <g>
          <use fill="#9013fe" xlink:href="#buq5h"/>
        </g>
        <g>
          <use fill="#9013fe" xlink:href="#buq5i"/>
        </g>
        <g>
          <use fill="#9013fe" xlink:href="#buq5j"/>
        </g>
        <g>
          <use fill="#9013fe" xlink:href="#buq5k"/>
        </g>
        <g>
          <use fill="#9013fe" xlink:href="#buq5l"/>
        </g>
        <g>
          <use fill="#9013fe" xlink:href="#buq5m"/>
        </g>
        <g>
          <use fill="#9013fe" xlink:href="#buq5n"/>
        </g>
        <g>
          <use fill="#9013fe" xlink:href="#buq5o"/>
        </g>
        <g>
          <use fill="#9013fe" xlink:href="#buq5p"/>
        </g>
        <g>
          <use fill="#9013fe" xlink:href="#buq5q"/>
        </g>
        <g>
          <use fill="#9013fe" xlink:href="#buq5r"/>
        </g>
        <g>
          <use fill="#9013fe" xlink:href="#buq5s"/>
        </g>
        <g>
          <use fill="#9013fe" xlink:href="#buq5t"/>
        </g>
        <g>
          <use fill="#9013fe" xlink:href="#buq5u"/>
        </g>
      </g>
    </g>
  </g>
</svg>
