<svg xmlns="http://www.w3.org/2000/svg" xmlns:xlink="http://www.w3.org/1999/xlink" width="378" height="325"><defs><path id="a" d="M951.29 3109v-40h6.43v40z"/><path id="b" d="M934.5 3085.79h40v6.42h-40z"/><path id="c" d="M1187.71 3209v-25h3.57v25z"/><path id="d" d="M1176.29 3195.43h25v3.57h-25z"/><path id="e" d="M1287 3121.5a12.5 12.5 0 1 1 25 0 12.5 12.5 0 0 1-25 0z"/><path id="f" d="M967 2929a10 10 0 1 1 20 0 10 10 0 0 1-20 0z"/><path id="g" d="M1252 2894a10 10 0 1 1 20 0 10 10 0 0 1-20 0z"/><path id="h" d="M1206.27 3088.79h-140v-115h7.5l7.5-10h40l7.5 10h77.5z"/><path id="i" d="M1076.28 3078.79h120v-95h-120z"/><path id="j" d="M1188.77 2993.79h-105"/><path id="k" d="M1083.77 2973.79h35"/><path id="l" d="M1163.78 3066.29h12.5v-57.5h-12.5z"/><path id="m" d="M1141.28 3066.29h12.5v-45h-12.5z"/><path id="n" d="M1118.78 3066.29h12.5v-30h-12.5z"/><path id="o" d="M1096.28 3066.29h12.5v-20h-12.5z"/><path id="p" d="M1188.77 3066.29h-105"/></defs><use fill="#9013fe" xlink:href="#a" transform="translate(-934 -2884)"/><use fill="#9013fe" xlink:href="#b" transform="translate(-934 -2884)"/><use fill="#9013fe" xlink:href="#c" transform="translate(-934 -2884)"/><use fill="#9013fe" xlink:href="#d" transform="translate(-934 -2884)"/><use fill="#9013fe" xlink:href="#e" transform="translate(-934 -2884)"/><use fill="#fff" fill-opacity="0" stroke="#9013fe" stroke-miterlimit="50" stroke-width="10" xlink:href="#f" transform="translate(-934 -2884)"/><use fill="#9013fe" xlink:href="#g" transform="translate(-934 -2884)"/><g transform="translate(-934 -2884)"><use fill="#e9eaeb" xlink:href="#h"/><use fill="#fff" fill-opacity="0" stroke="#9013fe" stroke-miterlimit="50" stroke-width="5" xlink:href="#h"/><use fill="#fff" xlink:href="#i"/><use fill="#fff" fill-opacity="0" stroke="#9013fe" stroke-miterlimit="50" stroke-width="5" xlink:href="#i"/><use fill="#fff" fill-opacity="0" stroke="#9013fe" stroke-miterlimit="50" stroke-width="5" xlink:href="#j"/><use fill="#fff" fill-opacity="0" stroke="#9013fe" stroke-miterlimit="50" stroke-width="5" xlink:href="#k"/><use fill="#dbb4fe" xlink:href="#l"/><use fill="#fff" fill-opacity="0" stroke="#9013fe" stroke-miterlimit="50" stroke-width="5" xlink:href="#l"/><use fill="#dbb4fe" xlink:href="#m"/><use fill="#fff" fill-opacity="0" stroke="#9013fe" stroke-miterlimit="50" stroke-width="5" xlink:href="#m"/><use fill="#dbb4fe" xlink:href="#n"/><use fill="#fff" fill-opacity="0" stroke="#9013fe" stroke-miterlimit="50" stroke-width="5" xlink:href="#n"/><use fill="#dbb4fe" xlink:href="#o"/><use fill="#fff" fill-opacity="0" stroke="#9013fe" stroke-miterlimit="50" stroke-width="5" xlink:href="#o"/><use fill="#fff" fill-opacity="0" stroke="#9013fe" stroke-miterlimit="50" stroke-width="5" xlink:href="#p"/></g></svg>