<svg xmlns="http://www.w3.org/2000/svg" xmlns:xlink="http://www.w3.org/1999/xlink" width="151" height="130"><defs><path id="a" d="M1050.71 1288v-16h2.57v16z"/><path id="b" d="M1044 1278.72h16v2.56h-16z"/><path id="c" d="M1145.29 1328v-10h1.43v10z"/><path id="d" d="M1140.71 1322.58h10v1.43h-10z"/><path id="e" d="M1185 1293a5 5 0 1 1 10 0 5 5 0 0 1-10 0z"/><path id="f" d="M1057 1216a4 4 0 1 1 8 0 4 4 0 0 1-8 0z"/><path id="g" d="M1171 1202a4 4 0 1 1 8 0 4 4 0 0 1-8 0z"/><path id="h" d="M1116.33 1261.4h26.13v-28.06h-26.13z"/><path id="i" d="M1132.33 1254.09c.23.27.53.41.92.41s.7-.14.94-.41c.24-.27.36-.64.36-1.11 0-.45-.12-.82-.36-1.1a1.18 1.18 0 0 0-.94-.42c-.39 0-.7.14-.92.41-.23.27-.34.64-.34 1.11 0 .47.11.84.34 1.11zm3.22-3.46c.59.57.88 1.35.88 2.35s-.3 1.78-.88 2.35c-.59.57-1.35.85-2.28.85-.93 0-1.7-.28-2.29-.85a3.1 3.1 0 0 1-.89-2.35c0-1 .3-1.78.89-2.35.6-.57 1.36-.85 2.29-.85.93 0 1.7.28 2.28.85zm-10.74-4.68c.23.27.53.41.92.41s.7-.14.94-.41c.24-.27.36-.64.36-1.09 0-.45-.12-.82-.36-1.09a1.2 1.2 0 0 0-.94-.41c-.39 0-.7.14-.92.41-.23.27-.34.64-.34 1.09 0 .45.11.82.34 1.09zm9.98-4.11l-7.86 14.16h-2.72l7.86-14.16zm-6.75.67c.6.57.89 1.35.89 2.35s-.3 1.78-.89 2.35c-.6.57-1.36.85-2.29.85-.93 0-1.7-.28-2.29-.85a3.1 3.1 0 0 1-.89-2.35c0-1 .3-1.78.89-2.35.6-.57 1.36-.85 2.29-.85.93 0 1.7.28 2.29.85z"/><path id="j" d="M1135.93 1238.02v-6.78c0-3.04-3.49-5.38-6.54-5.38s-6.53 2.34-6.53 5.38v6.78"/><path id="k" d="M1124.73 1238.02H1121"/><path id="l" d="M1134.06 1238.02h3.73"/><path id="m" d="M1147.7 1253.13c-2.26.52-4.23 1.88-5.75 4.86l-5.08 2.47-.18.1a3.5 3.5 0 0 0-2.62-1.03h-5.44c-1.06 0-4.2-1.87-5.9-1.87h-6.92c-1.73 0-3.94.57-5.18 1.73-1.92 1.92-6.8 6.54-7.34 6.98 3.05 2.64 9.4 8.7 10.8 9.94 1.89-1.9 2.63-3.68 4.2-3.68h17.05c1.42 0 9.19-7.1 10.18-8.22.96-1.07 6.03-7.65 7.21-10.42-.74-1-2.66-1.42-5.03-.86"/><path id="n" d="M1123.8 1266.08h10.27a3.28 3.28 0 0 0 0-6.55h-5.44c-1.06 0-4.2-1.87-5.9-1.87h-6.92c-1.73 0-3.94.57-5.18 1.73a268.9 268.9 0 0 1-7.34 6.98c3.05 2.65 9.4 8.7 10.8 9.94 1.89-1.9 2.63-3.68 4.2-3.68h17.05c1.42 0 9.19-7.1 10.18-8.22.96-1.07 6.03-7.65 7.21-10.42-.74-1-2.66-1.42-5.03-.86-2.26.52-4.23 1.88-5.75 4.86l-5.08 2.47"/><path id="o" d="M1111.74 1282.92l6.33-6.35-14.07-14.1-6.33 6.35z"/><path id="p" d="M1102.88 1267.94l2.45 2.46"/><path id="q" d="M1149.93 1238.95v1.87"/><path id="r" d="M1149.93 1242.69v1.87"/><path id="s" d="M1149 1241.76h-1.87"/><path id="t" d="M1152.73 1241.76h-1.87"/><path id="u" d="M1144.33 1275.44h-2.8"/><path id="v" d="M1150.86 1275.44h-2.8"/><path id="w" d="M1146.2 1277.31v2.8"/><path id="x" d="M1146.2 1270.76v2.8"/><path id="y" d="M1104.2 1240.82l-1.87 1.87"/><path id="z" d="M1108.87 1236.15l-1.87 1.87"/><path id="A" d="M1107 1240.82l1.87 1.87"/><path id="B" d="M1102.33 1236.15l1.87 1.87"/></defs><use fill="#9013fe" xlink:href="#a" transform="translate(-1044 -1198)"/><use fill="#9013fe" xlink:href="#b" transform="translate(-1044 -1198)"/><use fill="#9013fe" xlink:href="#c" transform="translate(-1044 -1198)"/><use fill="#9013fe" xlink:href="#d" transform="translate(-1044 -1198)"/><use fill="#9013fe" xlink:href="#e" transform="translate(-1044 -1198)"/><use fill="#fff" fill-opacity="0" stroke="#9013fe" stroke-miterlimit="50" stroke-width="4" xlink:href="#f" transform="translate(-1044 -1198)"/><use fill="#9013fe" xlink:href="#g" transform="translate(-1044 -1198)"/><g transform="translate(-1044 -1198)"><use fill="#fff" xlink:href="#h"/><use fill="#fff" fill-opacity="0" stroke="#9013fe" stroke-miterlimit="50" stroke-width="1.88" xlink:href="#h"/><use fill="#9013fe" xlink:href="#i"/><use fill="#fff" fill-opacity="0" stroke="#9013fe" stroke-miterlimit="50" stroke-width="1.88" xlink:href="#j"/><use fill="#fff" fill-opacity="0" stroke="#9013fe" stroke-miterlimit="50" stroke-width="1.88" xlink:href="#k"/><use fill="#fff" fill-opacity="0" stroke="#9013fe" stroke-miterlimit="50" stroke-width="1.88" xlink:href="#l"/><use fill="#fff" xlink:href="#m"/><use fill="#fff" fill-opacity="0" stroke="#9013fe" stroke-miterlimit="50" stroke-width="1.88" xlink:href="#n"/><use fill="#dbb4fe" xlink:href="#o"/><use fill="#fff" fill-opacity="0" stroke="#9013fe" stroke-miterlimit="50" stroke-width="1.88" xlink:href="#o"/><use fill="#fff" fill-opacity="0" stroke="#9013fe" stroke-miterlimit="50" stroke-width="1.88" xlink:href="#p"/><use fill="#fff" fill-opacity="0" stroke="#9013fe" stroke-miterlimit="50" stroke-width="1.88" xlink:href="#q"/><use fill="#fff" fill-opacity="0" stroke="#9013fe" stroke-miterlimit="50" stroke-width="1.88" xlink:href="#r"/><use fill="#fff" fill-opacity="0" stroke="#9013fe" stroke-miterlimit="50" stroke-width="1.88" xlink:href="#s"/><use fill="#fff" fill-opacity="0" stroke="#9013fe" stroke-miterlimit="50" stroke-width="1.88" xlink:href="#t"/><use fill="#fff" fill-opacity="0" stroke="#9013fe" stroke-miterlimit="50" stroke-width="1.88" xlink:href="#u"/><use fill="#fff" fill-opacity="0" stroke="#9013fe" stroke-miterlimit="50" stroke-width="1.88" xlink:href="#v"/><use fill="#fff" fill-opacity="0" stroke="#9013fe" stroke-miterlimit="50" stroke-width="1.88" xlink:href="#w"/><use fill="#fff" fill-opacity="0" stroke="#9013fe" stroke-miterlimit="50" stroke-width="1.88" xlink:href="#x"/><use fill="#fff" fill-opacity="0" stroke="#9013fe" stroke-miterlimit="50" stroke-width="1.88" xlink:href="#y"/><use fill="#fff" fill-opacity="0" stroke="#9013fe" stroke-miterlimit="50" stroke-width="1.88" xlink:href="#z"/><use fill="#fff" fill-opacity="0" stroke="#9013fe" stroke-miterlimit="50" stroke-width="1.88" xlink:href="#A"/><use fill="#fff" fill-opacity="0" stroke="#9013fe" stroke-miterlimit="50" stroke-width="1.88" xlink:href="#B"/></g></svg>