<svg width="151px" height="130px" viewBox="0 0 151 130" version="1.1" xmlns="http://www.w3.org/2000/svg">
    <g id="Page-1" stroke="none" stroke-width="1" fill="none" fill-rule="evenodd">
        <g id="Homepage" transform="translate(-644.000000, -1198.000000)">
            <g id="section-2" transform="translate(0.000000, 719.000000)">
                <g id="Cards-Copy" transform="translate(527.000000, 442.000000)">
                    <g id="Group-6">
                        <g id="Group-5" transform="translate(116.000000, 37.000000)">
                            <g id="ic_fintech">
                                <g id="Group-2" transform="translate(0.000000, 74.000000)" fill="#9013FE">
                                    <rect id="Rectangle" x="7.71428571" y="0" width="2.57142857" height="16"></rect>
                                    <rect id="Rectangle" transform="translate(9.000000, 8.000000) rotate(90.000000) translate(-9.000000, -8.000000) " x="7.71428571" y="0" width="2.57142857" height="16"></rect>
                                </g>
                                <g id="Group-2" transform="translate(98.000000, 120.000000)" fill="#9013FE">
                                    <rect id="Rectangle" x="4.28571429" y="0" width="1.42857143" height="10"></rect>
                                    <rect id="Rectangle" transform="translate(5.000000, 5.285714) rotate(90.000000) translate(-5.000000, -5.285714) " x="4" y="0.285714286" width="1.42857143" height="10"></rect>
                                </g>
                                <circle id="Oval" fill="#9013FE" cx="147" cy="95" r="5"></circle>
                                <circle id="Oval" stroke="#9013FE" stroke-width="4" cx="18" cy="18" r="4"></circle>
                                <circle id="Oval" fill="#9013FE" cx="132" cy="4" r="4"></circle>
                                <g id="analytics" transform="translate(49.000000, 23.000000)" fill="#9013FE" fill-rule="nonzero">
                                    <path d="M12.3870968,58.8387097 C12.3870968,61.6846452 14.7024516,64 17.5483871,64 L46.4516129,64 C49.2975484,64 51.6129032,61.6846452 51.6129032,58.8387097 L51.6129032,53.6774194 L12.3870968,53.6774194 L12.3870968,58.8387097 Z M14.4516129,55.7419355 L49.5483871,55.7419355 L49.5483871,58.8387097 C49.5483871,60.5460645 48.1589677,61.9354839 46.4516129,61.9354839 L17.5483871,61.9354839 C15.8410323,61.9354839 14.4516129,60.5460645 14.4516129,58.8387097 L14.4516129,55.7419355 Z" id="Shape"></path>
                                    <rect id="Rectangle-path" x="26.8387097" y="57.8064516" width="10.3225806" height="2.06451613"></rect>
                                    <path d="M14.4516129,8.25806452 L49.5483871,8.25806452 L50.5806452,8.25806452 L51.6129032,8.25806452 L51.6129032,5.16129032 C51.6129032,2.31535484 49.2975484,0 46.4516129,0 L17.5483871,0 C14.7024516,0 12.3870968,2.31535484 12.3870968,5.16129032 L12.3870968,26.8387097 L14.4516129,26.8387097 L14.4516129,8.25806452 Z M14.4516129,5.16129032 C14.4516129,3.45393548 15.8410323,2.06451613 17.5483871,2.06451613 L46.4516129,2.06451613 C48.1589677,2.06451613 49.5483871,3.45393548 49.5483871,5.16129032 L49.5483871,6.19354839 L14.4516129,6.19354839 L14.4516129,5.16129032 Z" id="Shape"></path>
                                    <rect id="Rectangle-path" x="49.5483871" y="35.0967742" width="2.06451613" height="16.516129"></rect>
                                    <path d="M52.6451613,10.3225806 C46.3845161,10.3225806 41.2903226,15.4167742 41.2903226,21.6774194 C41.2903226,24.708129 42.4908387,27.4580645 44.4325161,29.4957419 L40.0381935,34.5187097 C39.4797419,34.2379355 38.8593548,34.0645161 38.1935484,34.0645161 C37.5803871,34.0645161 37.0043871,34.2069677 36.4810323,34.4474839 L28.0877419,24.1176774 C28.5935484,23.4322581 28.9032258,22.5930323 28.9032258,21.6774194 C28.9032258,19.4002581 27.0513548,17.5483871 24.7741935,17.5483871 C22.4970323,17.5483871 20.6451613,19.4002581 20.6451613,21.6774194 C20.6451613,22.6766452 21.0157419,23.5819355 21.6092903,24.2972903 L17.1303226,30.4990968 C15.4353548,29.4916129 13.4647742,28.9032258 11.3548387,28.9032258 C5.09419355,28.9032258 0,33.9974194 0,40.2580645 C0,46.5187097 5.09419355,51.6129032 11.3548387,51.6129032 C17.6154839,51.6129032 22.7096774,46.5187097 22.7096774,40.2580645 C22.7096774,36.8474839 21.1912258,33.7909677 18.8025806,31.707871 L23.2753548,25.5153548 C23.7419355,25.6970323 24.2446452,25.8064516 24.7741935,25.8064516 C25.3873548,25.8064516 25.9633548,25.664 26.4867097,25.4234839 L34.88,35.7532903 C34.3741935,36.4387097 34.0645161,37.2779355 34.0645161,38.1935484 C34.0645161,40.4707097 35.9163871,42.3225806 38.1935484,42.3225806 C40.4707097,42.3225806 42.3225806,40.4707097 42.3225806,38.1935484 C42.3225806,37.3305806 42.0552258,36.5305806 41.6010323,35.8668387 L45.9870968,30.8541935 C47.8596129,32.2178065 50.1563871,33.0322581 52.6451613,33.0322581 C58.9058065,33.0322581 64,27.9380645 64,21.6774194 C64,15.4167742 58.9058065,10.3225806 52.6451613,10.3225806 Z M20.6451613,40.2580645 C20.6451613,45.3811613 16.4779355,49.5483871 11.3548387,49.5483871 C6.23174194,49.5483871 2.06451613,45.3811613 2.06451613,40.2580645 C2.06451613,35.1349677 6.23174194,30.9677419 11.3548387,30.9677419 C16.4779355,30.9677419 20.6451613,35.1349677 20.6451613,40.2580645 Z M24.7741935,23.7419355 C23.6356129,23.7419355 22.7096774,22.816 22.7096774,21.6774194 C22.7096774,20.5388387 23.6356129,19.6129032 24.7741935,19.6129032 C25.9127742,19.6129032 26.8387097,20.5388387 26.8387097,21.6774194 C26.8387097,22.816 25.9127742,23.7419355 24.7741935,23.7419355 Z M38.1935484,40.2580645 C37.0549677,40.2580645 36.1290323,39.332129 36.1290323,38.1935484 C36.1290323,37.0549677 37.0549677,36.1290323 38.1935484,36.1290323 C39.332129,36.1290323 40.2580645,37.0549677 40.2580645,38.1935484 C40.2580645,39.332129 39.332129,40.2580645 38.1935484,40.2580645 Z M52.6451613,30.9677419 C47.5220645,30.9677419 43.3548387,26.8005161 43.3548387,21.6774194 C43.3548387,16.5543226 47.5220645,12.3870968 52.6451613,12.3870968 C57.7682581,12.3870968 61.9354839,16.5543226 61.9354839,21.6774194 C61.9354839,26.8005161 57.7682581,30.9677419 52.6451613,30.9677419 Z" id="Shape"></path>
                                    <path d="M50.5806452,18.5806452 L54.7096774,18.5806452 C55.2794839,18.5806452 55.7419355,19.0430968 55.7419355,19.6129032 L57.8064516,19.6129032 C57.8064516,17.9055484 56.4170323,16.516129 54.7096774,16.516129 L53.6774194,16.516129 L53.6774194,14.4516129 L51.6129032,14.4516129 L51.6129032,16.516129 L50.5806452,16.516129 C48.8732903,16.516129 47.483871,17.9055484 47.483871,19.6129032 C47.483871,21.3202581 48.8732903,22.7096774 50.5806452,22.7096774 L54.7096774,22.7096774 C55.2794839,22.7096774 55.7419355,23.172129 55.7419355,23.7419355 C55.7419355,24.3117419 55.2794839,24.7741935 54.7096774,24.7741935 L50.5806452,24.7741935 C50.0108387,24.7741935 49.5483871,24.3117419 49.5483871,23.7419355 L47.483871,23.7419355 C47.483871,25.4492903 48.8732903,26.8387097 50.5806452,26.8387097 L51.6129032,26.8387097 L51.6129032,28.9032258 L53.6774194,28.9032258 L53.6774194,26.8387097 L54.7096774,26.8387097 C56.4170323,26.8387097 57.8064516,25.4492903 57.8064516,23.7419355 C57.8064516,22.0345806 56.4170323,20.6451613 54.7096774,20.6451613 L50.5806452,20.6451613 C50.0108387,20.6451613 49.5483871,20.1827097 49.5483871,19.6129032 C49.5483871,19.0430968 50.0108387,18.5806452 50.5806452,18.5806452 Z" id="Shape"></path>
                                    <path d="M9.29032258,37.1612903 L13.4193548,37.1612903 C13.9891613,37.1612903 14.4516129,37.6237419 14.4516129,38.1935484 L16.516129,38.1935484 C16.516129,36.4861935 15.1267097,35.0967742 13.4193548,35.0967742 L12.3870968,35.0967742 L12.3870968,33.0322581 L10.3225806,33.0322581 L10.3225806,35.0967742 L9.29032258,35.0967742 C7.58296774,35.0967742 6.19354839,36.4861935 6.19354839,38.1935484 C6.19354839,39.9009032 7.58296774,41.2903226 9.29032258,41.2903226 L13.4193548,41.2903226 C13.9891613,41.2903226 14.4516129,41.7527742 14.4516129,42.3225806 C14.4516129,42.8923871 13.9891613,43.3548387 13.4193548,43.3548387 L9.29032258,43.3548387 C8.72051613,43.3548387 8.25806452,42.8923871 8.25806452,42.3225806 L6.19354839,42.3225806 C6.19354839,44.0299355 7.58296774,45.4193548 9.29032258,45.4193548 L10.3225806,45.4193548 L10.3225806,47.483871 L12.3870968,47.483871 L12.3870968,45.4193548 L13.4193548,45.4193548 C15.1267097,45.4193548 16.516129,44.0299355 16.516129,42.3225806 C16.516129,40.6152258 15.1267097,39.2258065 13.4193548,39.2258065 L9.29032258,39.2258065 C8.72051613,39.2258065 8.25806452,38.7633548 8.25806452,38.1935484 C8.25806452,37.6237419 8.72051613,37.1612903 9.29032258,37.1612903 Z" id="Shape"></path>
                                    <polygon id="Shape" points="24.7741935 28.9032258 24.7741935 49.5483871 19.6129032 49.5483871 19.6129032 51.6129032 47.483871 51.6129032 47.483871 49.5483871 45.4193548 49.5483871 45.4193548 36.1290323 43.3548387 36.1290323 43.3548387 49.5483871 39.2258065 49.5483871 39.2258065 44.3870968 37.1612903 44.3870968 37.1612903 49.5483871 33.0322581 49.5483871 33.0322581 36.1290323 30.9677419 36.1290323 30.9677419 49.5483871 26.8387097 49.5483871 26.8387097 28.9032258"></polygon>
                                </g>
                            </g>
                        </g>
                    </g>
                </g>
            </g>
        </g>
    </g>
</svg>
