<svg width="151" height="130" xmlns="http://www.w3.org/2000/svg"><g transform="translate(-1)" fill="none" fill-rule="evenodd"><g fill="#9013FE"><path d="M7.714 74h2.571v16H7.714z"/><path d="M17 80.714v2.571H1v-2.571z"/></g><g fill="#9013FE"><path d="M102.286 120h1.429v10h-1.429z"/><path d="M108 124.286v1.429H98v-1.43z"/></g><circle fill="#9013FE" cx="147" cy="95" r="5"/><circle stroke="#9013FE" stroke-width="4" cx="18" cy="18" r="4"/><circle fill="#9013FE" cx="132" cy="4" r="4"/><g fill="#9013FE" fill-rule="nonzero"><path d="M61.387 81.839A5.167 5.167 0 0 0 66.548 87h28.904a5.167 5.167 0 0 0 5.16-5.161v-5.162H61.388v5.162zm2.065-3.097h35.096v3.097a3.1 3.1 0 0 1-3.096 3.096H66.548a3.1 3.1 0 0 1-3.096-3.096v-3.097z"/><path d="M75.839 80.806h10.323v2.065H75.839zM63.452 31.258h37.161v-3.097A5.167 5.167 0 0 0 95.452 23H66.548a5.167 5.167 0 0 0-5.16 5.161V49.84h2.064V31.26zm0-3.097a3.1 3.1 0 0 1 3.096-3.096h28.904a3.1 3.1 0 0 1 3.096 3.096v1.033H63.452V28.16zm35.096 29.936h2.065v16.516h-2.065z"/><path d="M101.645 33.323c-6.26 0-11.355 5.094-11.355 11.354 0 3.031 1.2 5.781 3.143 7.819l-4.395 5.023a4.088 4.088 0 0 0-1.844-.454c-.614 0-1.19.142-1.713.382l-8.393-10.33a4.095 4.095 0 0 0 .815-2.44 4.133 4.133 0 0 0-4.129-4.129 4.133 4.133 0 0 0-4.129 4.13c0 .999.37 1.904.964 2.62l-4.479 6.201a11.265 11.265 0 0 0-5.775-1.596C54.095 51.903 49 56.997 49 63.258c0 6.26 5.094 11.355 11.355 11.355 6.26 0 11.355-5.094 11.355-11.355 0-3.41-1.519-6.467-3.907-8.55l4.472-6.193c.467.182.97.291 1.5.291a4.08 4.08 0 0 0 1.712-.383l8.393 10.33a4.095 4.095 0 0 0-.815 2.44 4.133 4.133 0 0 0 4.129 4.13 4.133 4.133 0 0 0 4.129-4.13c0-.862-.268-1.662-.722-2.326l4.386-5.013a11.272 11.272 0 0 0 6.658 2.178c6.26 0 11.355-5.094 11.355-11.355 0-6.26-5.094-11.354-11.355-11.354zm-32 29.935c0 5.123-4.167 9.29-9.29 9.29-5.123 0-9.29-4.167-9.29-9.29 0-5.123 4.167-9.29 9.29-9.29 5.123 0 9.29 4.167 9.29 9.29zm4.13-16.516a2.067 2.067 0 0 1-2.065-2.065c0-1.138.926-2.064 2.064-2.064 1.139 0 2.065.926 2.065 2.064a2.067 2.067 0 0 1-2.065 2.065zm13.419 16.516a2.067 2.067 0 0 1-2.065-2.064c0-1.139.926-2.065 2.065-2.065 1.138 0 2.064.926 2.064 2.065a2.067 2.067 0 0 1-2.064 2.064zm14.451-9.29c-5.123 0-9.29-4.167-9.29-9.29 0-5.124 4.167-9.29 9.29-9.29 5.123 0 9.29 4.166 9.29 9.29 0 5.123-4.167 9.29-9.29 9.29z"/><path d="M99.58 41.58h4.13c.57 0 1.032.463 1.032 1.033h2.064a3.1 3.1 0 0 0-3.096-3.097h-1.033v-2.064h-2.064v2.064H99.58a3.1 3.1 0 0 0-3.097 3.097 3.1 3.1 0 0 0 3.097 3.097h4.129a1.033 1.033 0 0 1 0 2.064h-4.13c-.57 0-1.032-.462-1.032-1.032h-2.064a3.1 3.1 0 0 0 3.097 3.097h1.032v2.064h2.064V49.84h1.033a3.1 3.1 0 0 0 3.096-3.097 3.1 3.1 0 0 0-3.096-3.097h-4.13a1.033 1.033 0 0 1 0-2.064zM58.29 60.161h4.13c.57 0 1.032.463 1.032 1.033h2.064a3.1 3.1 0 0 0-3.097-3.097h-1.032v-2.065h-2.064v2.065H58.29a3.1 3.1 0 0 0-3.096 3.097 3.1 3.1 0 0 0 3.096 3.096h4.13a1.033 1.033 0 0 1 0 2.065h-4.13c-.57 0-1.032-.463-1.032-1.032h-2.064a3.1 3.1 0 0 0 3.096 3.096h1.033v2.065h2.064v-2.065h1.032a3.1 3.1 0 0 0 3.097-3.096 3.1 3.1 0 0 0-3.097-3.097H58.29a1.033 1.033 0 0 1 0-2.065zm15.484-8.258v20.645h-5.161v2.065h27.87v-2.065H94.42V59.13h-2.064v13.42h-4.13v-5.162h-2.064v5.161h-4.129V59.13h-2.064v13.42h-4.13V51.902z"/></g></g></svg>