<svg width="132" height="113" xmlns="http://www.w3.org/2000/svg"><g transform="translate(-1)" fill="none" fill-rule="evenodd"><g fill="#9013FE"><path d="M9.679 52.733h3.226v20.09H9.679z"/><path d="M21.337 61.164v3.226H1.247v-3.226z"/></g><g fill="#9013FE"><path d="M95.717 100.444h1.792V113h-1.792z"/><path d="M102.89 105.826v1.792H90.336v-1.792z"/></g><ellipse fill="#9013FE" cx="126.726" cy="79.1" rx="6.274" ry="6.278"/><ellipse stroke="#9013FE" stroke-width="5" cx="15.057" cy="7.533" rx="5.019" ry="5.022"/><ellipse fill="#9013FE" cx="117.943" cy="5.022" rx="5.019" ry="5.022"/><g fill-rule="nonzero"><path d="M103.723 21.953H77.536a7.998 7.998 0 0 0-12.735-3.45l-7.189-7.193a4.058 4.058 0 0 0-5.594-.006 3.91 3.91 0 0 0-.27 5.288 9.874 9.874 0 0 1 .203 5.361H36.805a6.702 6.702 0 0 0-6.692 6.696v44.196a6.702 6.702 0 0 0 6.692 6.696H58.22v2.679h-9.37c-.739 0-1.338.6-1.338 1.34v5.356c0 .74.6 1.34 1.338 1.34h42.828c.74 0 1.338-.6 1.338-1.34V83.56c0-.74-.599-1.34-1.338-1.34H82.31v-2.678h21.414a6.702 6.702 0 0 0 6.692-6.696V28.649a6.702 6.702 0 0 0-6.692-6.696zM71.847 19.61a5.354 5.354 0 0 1 3.386 3.97c.072.346.107.699.104 1.053a5.323 5.323 0 0 1-1.13 3.29l-7.514-7.513a5.349 5.349 0 0 1 5.154-.8zm-17.942-6.405a1.29 1.29 0 0 1 .901-.384c.344.002.672.14.914.384l8.02 8.025c.032.041.067.08.105.118L81.657 39.16a1.274 1.274 0 0 1 .007 1.808l-.013.013a1.25 1.25 0 0 1-.892.375h-.004a1.28 1.28 0 0 1-.912-.381L53.905 15.019a1.288 1.288 0 0 1-.38-.916c0-.339.137-.663.38-.899zm1 6.604l1.838 1.839 18.31 18.324c-8.206.23-18.03 7.8-21.097 10.334l-9.378-9.385c2.532-3.069 10.097-12.9 10.328-21.112zm-18.57 31.407a1.343 1.343 0 0 1 0-1.895l6.427-6.43 9.226 9.232-6.167 6.17-.26.26a1.34 1.34 0 0 1-1.893 0l-7.333-7.337zm4.534 8.325l-1.774 1.775a2.68 2.68 0 0 1-3.785 0l-1.735-1.736a2.68 2.68 0 0 1 0-3.788l1.774-1.776 5.52 5.525zm10.73-3.24l2.282-2.285 9.226 9.233-2.576 2.578-11.862-6.595 2.93-2.932zM32.79 28.648a4.02 4.02 0 0 1 4.015-4.017h14.418c-2.097 6.091-6.95 12.616-9.447 15.456l-7.335 7.34a4.015 4.015 0 0 0-.8 4.508l-.851.853v-24.14zm0 33.934l.626.627a5.358 5.358 0 0 0 7.57 0l1.962-1.962a3.883 3.883 0 0 0 3.59-.136l9.06 5.037H32.79v-3.566zm57.55 22.315v2.679H50.189v-2.679h40.15zM60.896 82.22v-2.68h18.737v2.679H60.896zm46.842-9.375a4.02 4.02 0 0 1-4.015 4.018H36.805a4.02 4.02 0 0 1-4.015-4.018v-4.018h74.948v4.018zm0-6.696H63.994l1.951-1.953a1.339 1.339 0 0 0 0-1.894l-10.09-10.097c4.93-4.058 15.943-11.508 22.41-9.077.7.582 1.58.903 2.49.907h.013a3.965 3.965 0 0 0 2.782-6.77l-7.448-7.448a7.979 7.979 0 0 0 1.911-5.185h25.71a4.02 4.02 0 0 1 4.015 4.017v37.5z" fill="#9013FE"/><path d="M80.971 52.756h12.045a1.339 1.339 0 0 0 0-2.678H80.971a1.339 1.339 0 0 0 0 2.678zM90.34 47.4h4.015a1.339 1.339 0 0 0 0-2.68H90.34a1.339 1.339 0 0 0 0 2.68zm13.383-2.68h-4.015a1.339 1.339 0 0 0 0 2.679h4.015a1.339 1.339 0 0 0 0-2.678zm0 5.358H98.37a1.339 1.339 0 0 0 0 2.678h5.353a1.339 1.339 0 0 0 0-2.678zm-2.676 5.357h-17.4a4.016 4.016 0 0 0-4.014 4.017 4.016 4.016 0 0 0 4.015 4.018h17.398a4.017 4.017 0 0 0 4.016-4.018 4.016 4.016 0 0 0-4.015-4.017zm0 5.357h-17.4a1.339 1.339 0 0 1 0-2.679h17.4a1.339 1.339 0 0 1 0 2.679z" fill="#C27DFF"/></g></g></svg>