<svg xmlns="http://www.w3.org/2000/svg" xmlns:xlink="http://www.w3.org/1999/xlink" width="141" height="141" viewBox="0 0 141 141"><defs><path id="o62ea" d="M374.99 580.5a64.5 64.5 0 1 1 129.01 0 64.5 64.5 0 0 1-129.01 0z"/><path id="o62ec" d="M386.83 582.1A25.38 25.38 0 0 1 375 574.4a67.23 67.23 0 0 0 67.1 70.8c27.75 0 46.6-16.84 56.86-40.87-14.91-.25-24.73-1.83-38.48-8.25-14.15-6.69-31.97-21.1-43.53-18.07-10.83 4.17-21.14 6.74-30.13 4.08z"/><path id="o62ee" d="M375.4 573.42c-.06 1.2-.41 5.87-.41 7.08 0 36.3 26.64 64.5 64.5 64.5 11.8 0 23.06-3.68 32.75-8.93-17.12-1.16-33.2-5.22-48.32-15.4-13.31-8.98-23.29-23.43-24.5-38.98-10.3 1.83-16.32.29-24.01-8.27z"/><path id="o62eg" d="M427.52 601.08h22.97v11.52h-22.97z"/><path id="o62eh" d="M405.83 546.03h66.34a3.83 3.83 0 0 1 3.83 3.84v48.64a3.83 3.83 0 0 1-3.83 3.84h-66.34a3.83 3.83 0 0 1-3.83-3.84v-48.64a3.83 3.83 0 0 1 3.83-3.84z"/><path id="o62ei" d="M421.14 611.32h35.73a2.56 2.56 0 0 1 0 5.12h-35.73a2.56 2.56 0 0 1 0-5.12z"/><path id="o62ej" d="M402 594.68h74v3.84a3.83 3.83 0 0 1-3.83 3.84h-66.34a3.83 3.83 0 0 1-3.83-3.84z"/><path id="o62ek" d="M428.79 578.04h-6.38v-2.56h5.1v-3.84h2.56v5.12c0 .7-.58 1.28-1.28 1.28z"/><path id="o62el" d="M413.48 558.84h1.28v10.24h-1.28a5.11 5.11 0 0 1 0-10.24z"/><path id="o62em" d="M416.04 556.28h7.65v15.36h-7.65c-.7 0-1.28-.57-1.28-1.28v-12.8c0-.7.57-1.28 1.28-1.28z"/><path id="o62en" d="M444.1 552.44v23.04l-20.41-3.84v-15.36z"/><path id="o62eo" d="M417.31 571.64h6.38v13.44a3.2 3.2 0 1 1-6.38 0v-13.44z"/><path id="o62ep" d="M417.31 581.88h6.38v3.2a3.2 3.2 0 1 1-6.38 0v-3.2z"/><path id="o62eq" d="M449.21 560.12h21.69v2.56h-21.69z"/><path id="o62er" d="M449.21 565.24h16.59v2.56H449.2z"/><path id="o62es" d="M458.14 555h12.76v2.56h-12.76z"/><path id="o62et" d="M449.21 580.6h21.69v2.56h-21.69z"/><path id="o62eu" d="M449.21 585.72h16.59v2.56H449.2z"/><path id="o62ev" d="M458.14 575.48h12.76v2.56h-12.76z"/><path id="o62ew" d="M453.03 575.48h2.55v2.56h-2.55v-2.56z"/><path id="o62ex" d="M453.03 555h2.55v2.56h-2.55V555z"/><linearGradient id="o62eb" x1="504" x2="374.99" y1="580.5" y2="580.5" gradientUnits="userSpaceOnUse"><stop offset="0" stop-color="#3c285f"/><stop offset="1" stop-color="#2b1c44"/></linearGradient><linearGradient id="o62ed" x1="436.94" x2="436.94" y1="645.21" y2="574.41" gradientUnits="userSpaceOnUse"><stop offset="0" stop-color="#3c285f"/><stop offset="1" stop-color="#2b1c44"/></linearGradient><linearGradient id="o62ef" x1="374.99" x2="472.24" y1="609.21" y2="609.21" gradientUnits="userSpaceOnUse"><stop offset="0" stop-color="#4d3675"/><stop offset="1" stop-color="#34136a"/></linearGradient></defs><g><g transform="translate(-369 -514)"><g><g><use fill="url(#o62eb)" xlink:href="#o62ea"/></g><g><use fill="url(#o62ed)" xlink:href="#o62ec"/></g><g><use fill="url(#o62ef)" xlink:href="#o62ee"/></g></g><g><g><use fill="#999" xlink:href="#o62eg"/></g><g><use fill="#9c6ce9" xlink:href="#o62eh"/></g><g><g><use fill="#ccc" xlink:href="#o62ei"/></g><g><use fill="#ccc" xlink:href="#o62ej"/></g></g><g><use fill="#fbc02d" xlink:href="#o62ek"/></g><g><use fill="#fff" xlink:href="#o62el"/></g><g><use fill="#fbc02d" xlink:href="#o62em"/></g><g><g><use fill="#fff" xlink:href="#o62en"/></g><g><use fill="#fff" xlink:href="#o62eo"/></g></g><g><use fill="#fbc02d" xlink:href="#o62ep"/></g><g><g><use fill="#fff" xlink:href="#o62eq"/></g><g><use fill="#fff" xlink:href="#o62er"/></g><g><use fill="#fff" xlink:href="#o62es"/></g><g><use fill="#fff" xlink:href="#o62et"/></g><g><use fill="#fff" xlink:href="#o62eu"/></g><g><use fill="#fff" xlink:href="#o62ev"/></g><g><use fill="#fff" xlink:href="#o62ew"/></g><g><use fill="#fff" xlink:href="#o62ex"/></g></g></g></g></g></svg>