<svg width="132px" height="113px" viewBox="0 0 132 113" version="1.1" xmlns="http://www.w3.org/2000/svg">
  <g id="Page-1" stroke="none" stroke-width="1" fill="none" fill-rule="evenodd">
    <g id="Services" transform="translate(-157.000000, -3740.000000)">
      <g id="section-7" transform="translate(156.000000, 3726.000000)">
        <g id="brand-awareness">
          <g id="ic_brand_awareness" transform="translate(0.000000, 14.000000)">
            <g id="Group-2" transform="translate(0.000000, 52.733333)" fill="#d6e122">
              <rect id="Rectangle" x="9.67924528" y="0" width="3.22641509" height="20.0888889"></rect>
              <rect id="Rectangle" transform="translate(11.292453, 10.044444) rotate(90.000000) translate(-11.292453, -10.044444) " x="9.67924528" y="0" width="3.22641509" height="20.0888889"></rect>
            </g>
            <g id="Group-2" transform="translate(90.339623, 100.444444)" fill="#d6e122">
              <rect id="Rectangle" x="5.37735849" y="0" width="1.79245283" height="12.5555556"></rect>
              <rect id="Rectangle" transform="translate(6.273585, 6.636508) rotate(90.000000) translate(-6.273585, -6.636508) " x="5.01886792" y="0.358730159" width="1.79245283" height="12.5555556"></rect>
            </g>
            <ellipse id="Oval" fill="#d6e122" cx="126.726415" cy="79.1" rx="6.27358491" ry="6.27777778"></ellipse>
            <ellipse id="Oval" stroke="#d6e122" stroke-width="5" cx="15.0566038" cy="7.53333333" rx="5.01886792" ry="5.02222222"></ellipse>
            <ellipse id="Oval" fill="#d6e122" cx="117.943396" cy="5.02222222" rx="5.01886792" ry="5.02222222"></ellipse>
            <g id="computer" transform="translate(30.113208, 10.044444)" fill-rule="nonzero">
              <path d="M73.6100106,11.9087875 L47.4224988,11.9087875 C46.5498432,9.41902083 44.5076344,7.51936528 41.9625979,6.82990833 C39.4175613,6.14045139 36.6965507,6.74986667 34.6879057,8.45899167 L27.4991616,1.26528611 C25.9334316,-0.226627778 23.4740295,-0.229295833 21.9051627,1.25947917 C20.4542394,2.68343611 20.3367665,4.98282917 21.6350849,6.54740833 C22.1962571,8.2814875 22.2665212,10.1371986 21.8380354,11.9087875 L6.69187618,11.9087875 C2.99783255,11.913025 0.00439150943,14.9086236 0,18.6049792 L0,62.8005347 C0.00439150943,66.4970472 2.99783255,69.4924889 6.69187618,69.4968833 L28.1056604,69.4968833 L28.1056604,72.1754542 L18.7371592,72.1754542 C17.9979741,72.1754542 17.3988467,72.7749819 17.3988467,73.5146611 L17.3988467,78.8716458 C17.3988467,79.611325 17.9979741,80.2108528 18.7371592,80.2108528 L61.5648844,80.2108528 C62.3040696,80.2108528 62.9031969,79.611325 62.9031969,78.8716458 L62.9031969,73.5146611 C62.9031969,72.7749819 62.3039127,72.1754542 61.5648844,72.1754542 L52.1962264,72.1754542 L52.1962264,69.4968833 L73.6100106,69.4968833 C77.3040542,69.4924889 80.2974953,66.4970472 80.3018868,62.8005347 L80.3018868,18.6049792 C80.2974953,14.9086236 77.3040542,11.913025 73.6100106,11.9087875 Z M41.7334552,9.56435139 C43.4737476,10.2101778 44.755441,11.71245 45.1199363,13.5336333 L45.1200932,13.5336333 C45.1919257,13.8801667 45.2265873,14.2332917 45.2232936,14.5872014 C45.2256462,15.7796653 44.8275873,16.9383861 44.0929505,17.8773847 L36.5793915,10.3641403 C38.0425483,9.22111389 39.9931627,8.918525 41.7334552,9.56435139 Z M23.791316,3.1597625 C24.0297123,2.91791111 24.3537429,2.77964306 24.6931439,2.77524861 C25.036309,2.77791667 25.3645743,2.91587083 25.6067347,3.15913472 L33.6264151,11.184175 C33.6590377,11.2257653 33.6941698,11.2653153 33.7316545,11.3025111 L51.5440873,29.1150778 C51.7890708,29.3567722 51.9263054,29.6869833 51.9250507,30.0313194 C51.9252075,30.3671806 51.7901686,30.6889167 51.5505177,30.9238625 L51.5375,30.9368889 C51.3027111,31.1763861 50.9815035,31.3115153 50.6461804,31.3116722 L50.6416321,31.3116722 C50.2990943,31.3115153 49.970829,31.1743458 49.7299233,30.9304542 L23.7919434,4.97498194 C23.5475873,4.73265972 23.4103526,4.40244861 23.41098,4.0581125 C23.411921,3.71974028 23.5489988,3.39596389 23.791316,3.1597625 Z M24.7924233,9.76398472 L26.6296427,11.6024319 L44.9398844,29.9261667 C36.7340354,30.1560903 26.9097583,37.7264625 23.8426026,40.2604875 L14.4643774,30.8759944 C16.9967099,27.8067889 24.5620259,17.9757889 24.7924233,9.76398472 Z M6.22072995,41.1710792 C5.69923821,40.6473556 5.69923821,39.8003264 6.22072995,39.2766028 L12.6478608,32.8458042 L21.8739517,42.0780611 L15.7071745,48.2494306 L15.4474481,48.5094875 C14.9240743,49.0313278 14.0776108,49.0313278 13.554237,48.5094875 L6.22072995,41.1710792 Z M10.7552771,49.4963542 L8.98110731,51.2717097 C7.93467335,52.3153903 6.24174646,52.3153903 5.19546934,51.2717097 L3.46113679,49.5354333 C2.95909316,49.0330542 2.67693868,48.3517583 2.67693868,47.6412708 C2.67693868,46.9307833 2.95909316,46.2494875 3.46113679,45.7471083 L5.23467925,43.9717528 L10.7552771,49.4963542 Z M21.4845189,46.2556083 L23.7665354,43.9719097 L32.9932535,53.2047944 L30.4171627,55.7826069 L18.5549116,49.1876444 L21.4845189,46.2556083 Z M2.67678184,18.6049792 C2.67913443,16.3870403 4.47541863,14.5895556 6.69187618,14.5872014 L21.1093585,14.5872014 C19.0128833,20.679 14.160579,27.2034944 11.6632217,30.0434042 L4.32814623,37.3827542 C3.14698703,38.5711375 2.82813208,40.3689361 3.52873467,41.8914542 L2.67678184,42.7441333 L2.67678184,18.6049792 Z M2.67678184,52.5387222 L3.30288561,53.1654014 C5.39512618,55.2537042 8.78145047,55.2537042 10.873691,53.1654014 L12.8346568,51.203125 C13.981625,51.7475653 15.3221333,51.6968722 16.4248726,51.067525 L25.4848703,56.1041861 L2.67678184,56.1041861 L2.67678184,52.5387222 Z M60.2264151,74.8538681 L60.2264151,77.5324389 L20.0754717,77.5324389 L20.0754717,74.8538681 L60.2264151,74.8538681 Z M30.7824422,72.1754542 L30.7824422,69.4968833 L49.5196014,69.4968833 L49.5196014,72.1754542 L30.7824422,72.1754542 Z M77.625105,62.8005347 C77.6227524,65.0184736 75.8264682,66.8159583 73.6100106,66.8183125 L6.69187618,66.8183125 C4.47541863,66.8159583 2.67913443,65.0184736 2.67678184,62.8005347 L2.67678184,58.7827569 L77.6252618,58.7827569 L77.6252618,62.8005347 L77.625105,62.8005347 Z M77.625105,56.1043431 L33.8806521,56.1043431 L35.8320507,54.1516403 C36.0831509,53.9005292 36.2241498,53.5599597 36.2241498,53.2047944 C36.2241498,52.8496292 36.0831509,52.5090597 35.8320507,52.2579486 L25.7411462,42.1603 C30.6726545,38.1021875 41.6845212,30.6528194 48.1521167,33.0838889 C48.8517783,33.6659958 49.7318054,33.9863194 50.6416321,33.9902431 L50.6546498,33.9902431 C52.255355,33.9852208 53.6954564,33.0162458 54.3043078,31.5348472 C54.9130024,30.0534486 54.5706215,28.3510722 53.436671,27.2206014 L45.9883573,19.7726458 C47.222842,18.3275014 47.9008597,16.4884264 47.9000755,14.5872014 L73.6100106,14.5872014 C75.8264682,14.5895556 77.6227524,16.3870403 77.625105,18.6049792 L77.625105,56.1043431 Z" id="Shape" fill="#8bc73d"></path>
              <path d="M50.8579139,42.7116458 L62.9031969,42.7116458 C63.6423821,42.7116458 64.2415094,42.1121181 64.2415094,41.3724389 C64.2415094,40.6327597 63.6423821,40.0332319 62.9031969,40.0332319 L50.8579139,40.0332319 C50.1187288,40.0332319 49.5196014,40.6329167 49.5196014,41.3724389 C49.5196014,42.1119611 50.1187288,42.7116458 50.8579139,42.7116458 Z" id="Shape" fill="#d6e122"></path>
              <path d="M60.2264151,37.3546611 L64.2415094,37.3546611 C64.9806946,37.3546611 65.5798219,36.7551333 65.5798219,36.0154542 C65.5798219,35.275775 64.9806946,34.6762472 64.2415094,34.6762472 L60.2264151,34.6762472 C59.48723,34.6762472 58.8881026,35.275775 58.8881026,36.0154542 C58.8881026,36.7551333 59.48723,37.3546611 60.2264151,37.3546611 Z" id="Shape" fill="#d6e122"></path>
              <path d="M73.6100106,34.6760903 L69.5949163,34.6760903 C68.8557311,34.6760903 68.2566038,35.2756181 68.2566038,36.0152972 C68.2566038,36.7549764 68.8557311,37.3545042 69.5949163,37.3545042 L73.6100106,37.3545042 C74.3491958,37.3545042 74.9483231,36.7549764 74.9483231,36.0152972 C74.9483231,35.2756181 74.3491958,34.6760903 73.6100106,34.6760903 Z" id="Shape" fill="#d6e122"></path>
              <path d="M73.6100106,40.0332319 L68.2566038,40.0332319 C67.5174186,40.0332319 66.9182913,40.6329167 66.9182913,41.3724389 C66.9182913,42.1119611 67.5174186,42.7116458 68.2566038,42.7116458 L73.6100106,42.7116458 C74.3491958,42.7116458 74.9483231,42.1121181 74.9483231,41.3724389 C74.9483231,40.6327597 74.3491958,40.0332319 73.6100106,40.0332319 Z" id="Shape" fill="#d6e122"></path>
              <path d="M70.9333856,45.3902167 L53.5345389,45.3902167 C51.3171403,45.3902167 49.5194446,47.1889569 49.5194446,49.4079944 C49.5194446,51.6270319 51.3171403,53.4257722 53.5345389,53.4257722 L70.9332288,53.4257722 C73.1506274,53.4257722 74.9483231,51.626875 74.9483231,49.4079944 C74.9483231,47.1891139 73.1507842,45.3902167 70.9333856,45.3902167 Z M70.9333856,50.7472014 L53.5345389,50.7472014 C52.7953538,50.7472014 52.1962264,50.1476736 52.1962264,49.4079944 C52.1962264,48.6683153 52.7955106,48.0687875 53.5345389,48.0687875 L70.9332288,48.0687875 C71.6724139,48.0687875 72.2715413,48.6683153 72.2715413,49.4079944 C72.2715413,50.1476736 71.6724139,50.7472014 70.9333856,50.7472014 Z" id="Shape" fill="#d6e122"></path>
            </g>
          </g>
        </g>
      </g>
    </g>
  </g>
</svg>
