<svg xmlns="http://www.w3.org/2000/svg" xmlns:xlink="http://www.w3.org/1999/xlink" width="141" height="141"
     viewBox="0 0 141 141">
  <defs>
    <path id="alvea" d="M224 412.5a64.5 64.5 0 1 1 129.01 0 64.5 64.5 0 0 1-129.01 0z"/>
    <path id="alvec"
          d="M235.83 414.1A25.38 25.38 0 0 1 224 406.4a67.23 67.23 0 0 0 67.1 70.8c27.75 0 46.6-16.84 56.86-40.87-14.91-.25-24.73-1.83-38.48-8.25-14.15-6.69-31.97-21.1-43.53-18.07-10.83 4.17-21.14 6.74-30.13 4.08z"/>
    <path id="alvee"
          d="M224.4 405.42c-.06 1.2-.41 5.87-.41 7.08 0 36.3 26.64 64.5 64.5 64.5 11.8 0 23.06-3.68 32.75-8.93-17.12-1.16-33.2-5.22-48.32-15.4-13.31-8.98-23.29-23.43-24.5-38.98-10.3 1.83-16.32.29-24.01-8.27z"/>
    <path id="alveg" d="M257.13 392.67c0-1.1.9-2 2-2h48.43a2 2 0 0 1 2 2v48.7h-52.43z"/>
    <path id="alveh" d="M251.53 398.63c0-1.1.9-2 2-2h48.43a2 2 0 0 1 2 2v48.7h-52.43z"/>
    <path id="alvei" d="M258.31 387.31V385h2.27v2.31z"/>
    <path id="alvej" d="M262.86 387.31V385h2.27v2.31z"/>
    <path id="alvek" d="M267.41 387.31V385h2.27v2.31z"/>
    <path id="alvel" d="M271.95 387.31V385h2.27v2.31z"/>
    <path id="alvem" d="M276.5 387.31V385h2.27v2.31z"/>
    <path id="alven" d="M281.05 387.31V385h2.27v2.31z"/>
    <path id="alveo" d="M285.6 387.31V385h2.27v2.31z"/>
    <path id="alvep" d="M290.15 387.31V385h2.27v2.31z"/>
    <path id="alveq" d="M294.69 387.31V385h2.27v2.31z"/>
    <path id="alver" d="M299.24 387.31V385h2.27v2.31z"/>
    <path id="alves" d="M303.79 387.31V385h2.27v2.31z"/>
    <path id="alvet" d="M308.34 387.31V385h2.27v2.31z"/>
    <path id="alveu" d="M312.89 387.31V385h2.27v2.31z"/>
    <path id="alvev" d="M315.85 384.31V382h2.27v2.31z"/>
    <path id="alvew" d="M318.81 381.31V379h2.27v2.31z"/>
    <path id="alvex" d="M321.78 378.31V376h2.27v2.31z"/>
    <path id="alvey" d="M324.74 375.31V373h2.27v2.31z"/>
    <path id="alvez" d="M324.74 378.31V376h2.27v2.31z"/>
    <path id="alveA" d="M324.74 381.31V379h2.27v2.31z"/>
    <path id="alveB" d="M321.78 375.31V373h2.27v2.31z"/>
    <path id="alveC" d="M318.81 375.31V373h2.27v2.31z"/>
    <path id="alveD" d="M312.89 391.93v-2.31h2.27v2.31z"/>
    <path id="alveE" d="M312.89 396.54v-2.31h2.27v2.31z"/>
    <path id="alveF" d="M312.89 401.16v-2.31h2.27v2.31z"/>
    <path id="alveG" d="M312.89 405.78v-2.31h2.27v2.31z"/>
    <path id="alveH" d="M312.89 410.39v-2.31h2.27v2.31z"/>
    <path id="alveI" d="M312.89 428.86V412.7h2.27v16.16z"/>
    <path id="alveJ" d="M312.89 433.47v-2.31h2.27v2.31z"/>
    <path id="alveK" d="M312.89 438.09v-2.31h2.27v2.31z"/>
    <path id="alveL" d="M248 453h45.52a4.58 4.58 0 0 0 4.56-4.61v-36.85H248z"/>
    <path id="alveM" d="M248 404.3c0-1.1.9-2 2-2h46.08a2 2 0 0 1 2 2v7.25H248z"/>
    <path id="alveN" d="M251.53 408.27v-2.39h2.3v2.39z"/>
    <path id="alveO" d="M256.13 408.27v-2.39h2.3v2.39z"/>
    <path id="alveP" d="M260.73 408.27v-2.39h2.3v2.39z"/>
    <path id="alveQ"
          d="M252.42 432.27c0-6.34 5.08-11.48 11.34-11.48s11.34 5.14 11.34 11.48c0 6.34-5.08 11.48-11.34 11.48a11.41 11.41 0 0 1-11.34-11.48z"/>
    <path id="alveR" d="M260.67 436.9v-9.25l9.13 4.62z"/>
    <path id="alveS" d="M278.63 421.9v-2.3h14.73v2.3z"/>
    <path id="alveT" d="M278.63 426.51v-2.3h14.73v2.3z"/>
    <path id="alveU" d="M278.63 431.11v-2.3h14.73v2.3z"/>
    <path id="alveV" d="M278.63 435.72v-2.3h14.73v2.3z"/>
    <path id="alveW" d="M278.63 440.33v-2.3h14.73v2.3z"/>
    <path id="alveX" d="M278.63 444.94v-2.3h14.73v2.3z"/>
    <linearGradient id="alveb" x1="353.01" x2="224" y1="412.5" y2="412.5" gradientUnits="userSpaceOnUse">
      <stop offset="0" stop-color="#3c285f"/>
      <stop offset="1" stop-color="#2b1c44"/>
    </linearGradient>
    <linearGradient id="alved" x1="285.94" x2="285.94" y1="477.21" y2="406.41" gradientUnits="userSpaceOnUse">
      <stop offset="0" stop-color="#3c285f"/>
      <stop offset="1" stop-color="#2b1c44"/>
    </linearGradient>
    <linearGradient id="alvef" x1="223.99" x2="321.24" y1="441.22" y2="441.22" gradientUnits="userSpaceOnUse">
      <stop offset="0" stop-color="#4d3675"/>
      <stop offset="1" stop-color="#34136a"/>
    </linearGradient>
  </defs>
  <g>
    <g transform="translate(-218 -346)">
      <g>
        <use fill="url(#alveb)" xlink:href="#alvea"/>
      </g>
      <g>
        <use fill="url(#alved)" xlink:href="#alvec"/>
      </g>
      <g>
        <use fill="url(#alvef)" xlink:href="#alvee"/>
      </g>
      <g>
        <g>
          <use fill="#fff" xlink:href="#alveg"/>
        </g>
        <g>
          <use fill="#5c6bc0" xlink:href="#alveh"/>
        </g>
        <g>
          <g>
            <use fill="#f6bf58" xlink:href="#alvei"/>
          </g>
          <g>
            <use fill="#f6bf58" xlink:href="#alvej"/>
          </g>
          <g>
            <use fill="#f6bf58" xlink:href="#alvek"/>
          </g>
          <g>
            <use fill="#f6bf58" xlink:href="#alvel"/>
          </g>
          <g>
            <use fill="#f6bf58" xlink:href="#alvem"/>
          </g>
          <g>
            <use fill="#f6bf58" xlink:href="#alven"/>
          </g>
          <g>
            <use fill="#f6bf58" xlink:href="#alveo"/>
          </g>
          <g>
            <use fill="#f6bf58" xlink:href="#alvep"/>
          </g>
          <g>
            <use fill="#f6bf58" xlink:href="#alveq"/>
          </g>
          <g>
            <use fill="#f6bf58" xlink:href="#alver"/>
          </g>
          <g>
            <use fill="#f6bf58" xlink:href="#alves"/>
          </g>
          <g>
            <use fill="#f6bf58" xlink:href="#alvet"/>
          </g>
          <g>
            <use fill="#fdef8d" xlink:href="#alveu"/>
          </g>
          <g>
            <use fill="#fdef8d" xlink:href="#alvev"/>
          </g>
          <g>
            <use fill="#fdef8d" xlink:href="#alvew"/>
          </g>
          <g>
            <use fill="#fdef8d" xlink:href="#alvex"/>
          </g>
          <g>
            <use fill="#fdef8d" xlink:href="#alvey"/>
          </g>
          <g>
            <use fill="#fdef8d" xlink:href="#alvez"/>
          </g>
          <g>
            <use fill="#fdef8d" xlink:href="#alveA"/>
          </g>
          <g>
            <use fill="#fdef8d" xlink:href="#alveB"/>
          </g>
          <g>
            <use fill="#fdef8d" xlink:href="#alveC"/>
          </g>
          <g>
            <use fill="#f6bf58" xlink:href="#alveD"/>
          </g>
          <g>
            <use fill="#f6bf58" xlink:href="#alveE"/>
          </g>
          <g>
            <use fill="#f6bf58" xlink:href="#alveF"/>
          </g>
          <g>
            <use fill="#f6bf58" xlink:href="#alveG"/>
          </g>
          <g>
            <use fill="#f6bf58" xlink:href="#alveH"/>
          </g>
          <g>
            <use fill="#f6bf58" xlink:href="#alveI"/>
          </g>
          <g>
            <use fill="#f6bf58" xlink:href="#alveJ"/>
          </g>
          <g>
            <use fill="#f6bf58" xlink:href="#alveK"/>
          </g>
        </g>
        <g>
          <use fill="#bf98ff" xlink:href="#alveL"/>
        </g>
        <g>
          <use fill="#9c6ce9" xlink:href="#alveM"/>
        </g>
        <g>
          <g>
            <use fill="#fff" xlink:href="#alveN"/>
          </g>
          <g>
            <use fill="#fff" xlink:href="#alveO"/>
          </g>
          <g>
            <use fill="#fff" xlink:href="#alveP"/>
          </g>
        </g>
        <g>
          <use fill="#fbc02d" xlink:href="#alveQ"/>
        </g>
        <g>
          <use fill="#fff" xlink:href="#alveR"/>
        </g>
        <g>
          <g>
            <use fill="#34495e" xlink:href="#alveS"/>
          </g>
          <g>
            <use fill="#34495e" xlink:href="#alveT"/>
          </g>
          <g>
            <use fill="#34495e" xlink:href="#alveU"/>
          </g>
          <g>
            <use fill="#34495e" xlink:href="#alveV"/>
          </g>
          <g>
            <use fill="#34495e" xlink:href="#alveW"/>
          </g>
          <g>
            <use fill="#34495e" xlink:href="#alveX"/>
          </g>
        </g>
      </g>
    </g>
  </g>
</svg>
