<svg xmlns="http://www.w3.org/2000/svg" xmlns:xlink="http://www.w3.org/1999/xlink" width="141" height="141" viewBox="0 0 141 141"><defs><path id="m36ya" d="M383.99 244.5a64.5 64.5 0 1 1 129.01 0 64.5 64.5 0 0 1-129.01 0z"/><path id="m36yc" d="M395.83 246.1A25.38 25.38 0 0 1 384 238.4a67.23 67.23 0 0 0 67.1 70.8c27.75 0 46.6-16.84 56.86-40.87-14.91-.25-24.73-1.83-38.48-8.25-14.15-6.69-31.97-21.1-43.53-18.07-10.83 4.17-21.14 6.74-30.13 4.08z"/><path id="m36ye" d="M384.4 237.42c-.06 1.2-.41 5.87-.41 7.08 0 36.3 26.64 64.5 64.5 64.5 11.8 0 23.06-3.68 32.75-8.93-17.12-1.16-33.2-5.22-48.32-15.4-13.31-8.98-23.29-23.43-24.5-38.98-10.3 1.83-16.32.29-24.01-8.27z"/><path id="m36yg" d="M408.21 226.76v47.39c0 .37.3.66.65.66h78.27c.37 0 .64-.3.64-.66v-47.39z"/><path id="m36yh" d="M433.59 232.26c0-.3.25-.55.55-.55h44.32c.3 0 .55.25.55.55v.08c0 .3-.25.55-.55.55h-44.32a.55.55 0 0 1-.55-.55z"/><path id="m36yi" d="M433.59 236.96c0-.3.25-.55.55-.55h44.32c.3 0 .55.25.55.55v.08c0 .3-.25.55-.55.55h-44.32a.55.55 0 0 1-.55-.55z"/><path id="m36yj" d="M433.59 241.67c0-.3.25-.55.55-.55h44.32c.3 0 .55.25.55.55v.08c0 .3-.25.55-.55.55h-44.32a.55.55 0 0 1-.55-.55z"/><path id="m36yk" d="M433.59 246.37c0-.3.25-.55.55-.55h44.32c.3 0 .55.25.55.55v.08c0 .3-.25.55-.55.55h-44.32a.55.55 0 0 1-.55-.55z"/><path id="m36yl" d="M433.59 251.08c0-.3.25-.55.55-.55h44.32c.3 0 .55.25.55.55v.08c0 .3-.25.55-.55.55h-44.32a.55.55 0 0 1-.55-.55z"/><path id="m36ym" d="M433.59 255.79c0-.3.25-.55.55-.55h44.32c.3 0 .55.25.55.55v.08c0 .3-.25.55-.55.55h-44.32a.55.55 0 0 1-.55-.55z"/><path id="m36yn" d="M487.8 227.4v-8.05a4.1 4.1 0 0 0-4.06-4.14h-71.47a4.1 4.1 0 0 0-4.06 4.14v8.05z"/><path id="m36yo" d="M455.42 224.24H416.4a2.91 2.91 0 0 1-2.88-2.94c0-1.62 1.3-2.94 2.88-2.94h39.03c1.6 0 2.89 1.32 2.89 2.94 0 1.62-1.3 2.94-2.89 2.94z"/><path id="m36yp" d="M478.47 223v-2.56h2.45V223z"/><path id="m36yq" d="M474.32 222.92v-2.56h2.45v2.56z"/><path id="m36yr" d="M416.6 222.39h-.58l-.69-2.05h.58l.39 1.25.39-1.25h.55l.4 1.25.39-1.25h.57l-.69 2.05h-.57l-.37-1.13z"/><path id="m36ys" d="M419.99 222.39h-.58l-.69-2.05h.58l.39 1.25.39-1.25h.55l.4 1.25.39-1.25h.57l-.69 2.05h-.57l-.37-1.13z"/><path id="m36yt" d="M423.36 222.39h-.58l-.69-2.05h.58l.39 1.25.39-1.25h.55l.4 1.25.39-1.25h.57l-.69 2.05h-.57l-.37-1.13z"/><path id="m36yu" d="M413.53 232.04c0-1.1.89-1.98 1.98-1.98h13.79c1.1 0 1.98.89 1.98 1.98v23.33c0 1.1-.89 1.98-1.98 1.98h-13.79c-1.1 0-1.98-.89-1.98-1.98z"/><path id="m36yv" d="M413.53 263.8c0-1.1.89-1.98 1.98-1.98h63.36c1.1 0 1.98.89 1.98 1.98v7.1c0 1.1-.89 1.98-1.98 1.98h-63.36c-1.1 0-1.98-.89-1.98-1.98z"/><linearGradient id="m36yb" x1="513" x2="383.99" y1="244.5" y2="244.5" gradientUnits="userSpaceOnUse"><stop offset="0" stop-color="#3c285f"/><stop offset="1" stop-color="#2b1c44"/></linearGradient><linearGradient id="m36yd" x1="445.94" x2="445.94" y1="309.21" y2="238.41" gradientUnits="userSpaceOnUse"><stop offset="0" stop-color="#3c285f"/><stop offset="1" stop-color="#2b1c44"/></linearGradient><linearGradient id="m36yf" x1="383.99" x2="481.24" y1="273.21" y2="273.21" gradientUnits="userSpaceOnUse"><stop offset="0" stop-color="#4d3675"/><stop offset="1" stop-color="#34136a"/></linearGradient></defs><g><g transform="translate(-378 -178)"><g><use fill="url(#m36yb)" xlink:href="#m36ya"/></g><g><use fill="url(#m36yd)" xlink:href="#m36yc"/></g><g><use fill="url(#m36yf)" xlink:href="#m36ye"/></g><g><g><g><use fill="#fff" xlink:href="#m36yg"/></g><g><use fill="#d8d8d8" xlink:href="#m36yh"/></g><g><use fill="#d8d8d8" xlink:href="#m36yi"/></g><g><use fill="#d8d8d8" xlink:href="#m36yj"/></g><g><use fill="#d8d8d8" xlink:href="#m36yk"/></g><g><use fill="#d8d8d8" xlink:href="#m36yl"/></g><g><use fill="#d8d8d8" xlink:href="#m36ym"/></g><g><use fill="#9c6ce9" xlink:href="#m36yn"/></g><g><use fill="#fff" xlink:href="#m36yo"/></g><g><g><use fill="#fff" xlink:href="#m36yp"/></g><g><use fill="#fff" xlink:href="#m36yq"/></g></g><g><g><use fill="#324a5e" xlink:href="#m36yr"/></g><g><use fill="#324a5e" xlink:href="#m36ys"/></g><g><use fill="#324a5e" xlink:href="#m36yt"/></g></g></g><g><use fill="#fbc02d" xlink:href="#m36yu"/></g><g><use fill="#5c6bc0" xlink:href="#m36yv"/></g></g></g></g></svg>