<svg xmlns="http://www.w3.org/2000/svg" xmlns:xlink="http://www.w3.org/1999/xlink" width="141" height="141"><defs><path id="b" d="M223.99 910.5a64.5 64.5 0 1 1 129.01 0 64.5 64.5 0 0 1-129.01 0z"/><path id="d" d="M235.83 912.1a25.38 25.38 0 0 1-11.83-7.7 67.23 67.23 0 0 0 67.1 70.8c27.75 0 46.6-16.84 56.86-40.87-14.91-.25-24.73-1.83-38.48-8.25-14.15-6.69-31.97-21.1-43.53-18.07-10.83 4.17-21.14 6.74-30.13 4.08z"/><path id="f" d="M224.4 903.42c-.06 1.2-.41 5.87-.41 7.08 0 36.3 26.64 64.5 64.5 64.5 11.8 0 23.06-3.68 32.75-8.93-17.12-1.16-33.2-5.22-48.32-15.4-13.31-8.98-23.29-23.43-24.5-38.98-10.3 1.83-16.32.29-24.01-8.27z"/><path id="g" d="M319.72 930.31v16.55a4.14 4.14 0 1 0 8.28 0v-16.55z"/><path id="h" d="M315.59 871a4.14 4.14 0 0 1 4.14 4.14v71.72a4.14 4.14 0 0 0 4.14 4.14h-63.45a4.14 4.14 0 0 1-4.14-4.14v-71.72a4.14 4.14 0 0 1 4.14-4.14z"/><path id="i" d="M260.42 871h55.17a4.14 4.14 0 0 1 4.14 4.14v6.9h-63.45v-6.9a4.14 4.14 0 0 1 4.14-4.14z"/><path id="j" d="M263.17 888.93h16.55v16.55h-16.55z"/><path id="k" d="M263.17 912.38h49.66v11.03h-49.66z"/><path id="l" d="M301.8 942.72l11.03-5.51-11.04-5.52H248v11.03h53.8z"/><path id="m" d="M254.9 931.69h5.52v11.03h-5.52z"/><path id="n" d="M248 931.69h6.9v11.03H248z"/><path id="o" d="M301.79 931.69l11.03 5.52-11.03 5.51z"/><path id="p" d="M260.41 937.21h41.38v5.52H260.4z"/><path id="q" d="M285.24 893.07h28.97v2.76h-28.97z"/><path id="r" d="M285.24 898.59h28.97v2.76h-28.97z"/><path id="s" d="M285.24 904.1h23.45v2.76h-23.45z"/><path id="t" d="M296.28 887.55h17.93v2.76h-17.93z"/><path id="u" d="M290.76 887.55h2.76v2.76h-2.76z"/><path id="v" d="M260.41 875.14h2.76v2.76h-2.76z"/><path id="w" d="M265.93 875.14h2.76v2.76h-2.76v-2.76z"/><path id="x" d="M271.45 875.14h2.76v2.76h-2.76z"/><linearGradient id="a" x1="353" x2="223.99" y1="910.5" y2="910.5" gradientUnits="userSpaceOnUse"><stop offset="0" stop-color="#3c285f"/><stop offset="1" stop-color="#2b1c44"/></linearGradient><linearGradient id="c" x1="285.94" x2="285.94" y1="975.21" y2="904.41" gradientUnits="userSpaceOnUse"><stop offset="0" stop-color="#3c285f"/><stop offset="1" stop-color="#2b1c44"/></linearGradient><linearGradient id="e" x1="223.99" x2="321.24" y1="939.21" y2="939.21" gradientUnits="userSpaceOnUse"><stop offset="0" stop-color="#4d3675"/><stop offset="1" stop-color="#34136a"/></linearGradient></defs><use fill="url(#a)" xlink:href="#b" transform="translate(-218 -844)"/><use fill="url(#c)" xlink:href="#d" transform="translate(-218 -844)"/><use fill="url(#e)" xlink:href="#f" transform="translate(-218 -844)"/><g transform="translate(-218 -844)"><use fill="#9c6ce9" xlink:href="#g"/><use fill="#e6e6e6" xlink:href="#h"/><use fill="#9c6ce9" xlink:href="#i"/><use fill="#fbc02d" xlink:href="#j"/><use fill="#fbc02d" xlink:href="#k"/><use fill="#bf98ff" xlink:href="#l"/><use fill="#f8cf26" xlink:href="#m"/><use fill="#fbb03b" xlink:href="#n"/><use fill="#c69c6d" xlink:href="#o"/><use fill="#5c6bc0" xlink:href="#p"/><use fill="#5c6bc0" xlink:href="#q"/><use fill="#5c6bc0" xlink:href="#r"/><use fill="#5c6bc0" xlink:href="#s"/><use fill="#5c6bc0" xlink:href="#t"/><use fill="#5c6bc0" xlink:href="#u"/><use fill="#da4836" xlink:href="#v"/><use fill="#f8cf26" xlink:href="#w"/><use fill="#3dbf50" xlink:href="#x"/></g></svg>