<svg xmlns="http://www.w3.org/2000/svg" xmlns:xlink="http://www.w3.org/1999/xlink" width="141" height="141"
     viewBox="0 0 141 141">
  <defs>
    <path id="hwkta" d="M223.99 1080.5a64.5 64.5 0 1 1 129.01 0 64.5 64.5 0 0 1-129.01 0z"/>
    <path id="hwktc"
          d="M235.83 1082.1a25.38 25.38 0 0 1-11.82-7.69 67.23 67.23 0 0 0 67.1 70.8c27.75 0 46.6-16.84 56.86-40.87-14.91-.25-24.73-1.83-38.48-8.25-14.15-6.69-31.97-21.1-43.53-18.07-10.83 4.17-21.14 6.74-30.13 4.08z"/>
    <path id="hwkte"
          d="M224.4 1073.42c-.06 1.2-.41 5.87-.41 7.08 0 36.3 26.64 64.5 64.5 64.5 11.8 0 23.06-3.68 32.75-8.93-17.12-1.16-33.2-5.22-48.32-15.4-13.31-8.98-23.29-23.43-24.5-38.98-10.3 1.83-16.32.29-24.01-8.27z"/>
    <path id="hwktg" d="M250 1064.68c0-1.1.9-2 2-2h72a2 2 0 0 1 2 2v53.83a2 2 0 0 1-2 2h-72a2 2 0 0 1-2-2z"/>
    <path id="hwkth"
          d="M321.48 1056.48h-68.54c-.83 0-1.51-.7-1.51-1.57v-12.24c0-.87.68-1.57 1.51-1.57h68.54c.83 0 1.5.7 1.5 1.57v12.24c0 .87-.67 1.57-1.5 1.57z"/>
    <path id="hwkti"
          d="M310.04 1056.48h11.1c1.03 0 1.86-.86 1.86-1.92v-11.54c0-1.06-.83-1.92-1.86-1.92h-11.1c-1.02 0-1.85.86-1.85 1.92v11.54c0 1.06.83 1.92 1.85 1.92z"/>
    <path id="hwktj"
          d="M314.35 1048.79c-.68 0-1.23-.58-1.23-1.29 0-.7.55-1.28 1.23-1.28.68 0 1.24.58 1.24 1.28 0 .71-.56 1.29-1.24 1.29zm5.8 2.93l-2.46-2.56h-.01c.23-.5.37-1.06.37-1.66a3.78 3.78 0 0 0-3.7-3.84 3.78 3.78 0 0 0-3.7 3.84 3.78 3.78 0 0 0 3.7 3.85c.57 0 1.1-.15 1.59-.39v.01l2.47 2.57a1.2 1.2 0 0 0 1.75 0c.48-.5.48-1.31 0-1.82z"/>
    <path id="hwktk"
          d="M321.48 1080.53h-68.54c-.83 0-1.51-.7-1.51-1.54v-12c0-.85.68-1.54 1.51-1.54h68.54c.83 0 1.5.69 1.5 1.54v12c0 .85-.67 1.54-1.5 1.54z"/>
    <path id="hwktl"
          d="M262.54 1078.01h-7.4c-.69 0-1.24-.56-1.24-1.26v-7.53c0-.7.55-1.26 1.23-1.26h7.4c.69 0 1.24.56 1.24 1.26v7.53c0 .7-.55 1.26-1.23 1.26z"/>
    <path id="hwktm"
          d="M311.89 1076.75h-44.42c-.68 0-1.23-.56-1.23-1.25 0-.7.55-1.26 1.23-1.26h44.42c.68 0 1.23.56 1.23 1.26 0 .69-.55 1.25-1.23 1.25z"/>
    <path id="hwktn"
          d="M292.15 1071.73h-24.68c-.68 0-1.23-.56-1.23-1.25 0-.7.55-1.26 1.23-1.26h24.68c.68 0 1.23.56 1.23 1.26 0 .69-.55 1.25-1.23 1.25z"/>
    <path id="hwkto"
          d="M262.54 1095.6h-7.4c-.69 0-1.24-.56-1.24-1.26v-7.53c0-.7.55-1.26 1.23-1.26h7.4c.69 0 1.24.56 1.24 1.26v7.53c0 .7-.55 1.26-1.23 1.26z"/>
    <path id="hwktp"
          d="M311.89 1094.34h-44.42c-.68 0-1.23-.56-1.23-1.25 0-.7.55-1.26 1.23-1.26h44.42c.68 0 1.23.56 1.23 1.26 0 .69-.55 1.25-1.23 1.25z"/>
    <path id="hwktq"
          d="M292.15 1089.32h-24.68c-.68 0-1.23-.56-1.23-1.25 0-.7.55-1.26 1.23-1.26h24.68c.68 0 1.23.56 1.23 1.26 0 .69-.55 1.25-1.23 1.25z"/>
    <path id="hwktr"
          d="M262.54 1113.2h-7.4c-.69 0-1.24-.57-1.24-1.27v-7.53c0-.7.55-1.26 1.23-1.26h7.4c.69 0 1.24.56 1.24 1.26v7.53c0 .7-.55 1.26-1.23 1.26z"/>
    <path id="hwkts"
          d="M311.89 1111.93h-44.42c-.68 0-1.23-.56-1.23-1.25 0-.7.55-1.26 1.23-1.26h44.42c.68 0 1.23.56 1.23 1.26 0 .69-.55 1.25-1.23 1.25z"/>
    <path id="hwktt"
          d="M292.15 1106.9h-24.68c-.68 0-1.23-.56-1.23-1.25 0-.7.55-1.26 1.23-1.26h24.68c.68 0 1.23.56 1.23 1.26 0 .69-.55 1.25-1.23 1.25z"/>
    <linearGradient id="hwktb" x1="353" x2="223.99" y1="1080.51" y2="1080.51" gradientUnits="userSpaceOnUse">
      <stop offset="0" stop-color="#3c285f"/>
      <stop offset="1" stop-color="#2b1c44"/>
    </linearGradient>
    <linearGradient id="hwktd" x1="285.94" x2="285.94" y1="1145.21" y2="1074.41" gradientUnits="userSpaceOnUse">
      <stop offset="0" stop-color="#3c285f"/>
      <stop offset="1" stop-color="#2b1c44"/>
    </linearGradient>
    <linearGradient id="hwktf" x1="223.99" x2="321.24" y1="1109.22" y2="1109.22" gradientUnits="userSpaceOnUse">
      <stop offset="0" stop-color="#4d3675"/>
      <stop offset="1" stop-color="#34136a"/>
    </linearGradient>
  </defs>
  <g>
    <g transform="translate(-218 -1014)">
      <g>
        <g>
          <use fill="url(#hwktb)" xlink:href="#hwkta"/>
        </g>
        <g>
          <use fill="url(#hwktd)" xlink:href="#hwktc"/>
        </g>
        <g>
          <use fill="url(#hwktf)" xlink:href="#hwkte"/>
        </g>
      </g>
      <g>
        <g>
          <use fill="#fff" xlink:href="#hwktg"/>
        </g>
        <g>
          <g>
            <g>
              <use fill="#e4eaf6" xlink:href="#hwkth"/>
            </g>
            <g>
              <g fill="#1e2022" font-family="'Poppins','Poppins-Light'" font-size="8" font-style="none"
                 font-weight="lighter">
                <text dominant-baseline="text-before-edge" font-family="Helvetica, Arial, sans-serif"
                      transform="translate(254.25 1041)">
                  <tspan>|</tspan>
                </text>
              </g>
            </g>
            <g>
              <g>
                <use fill="#9c6ce9" xlink:href="#hwkti"/>
              </g>
              <g>
                <use fill="#fff" xlink:href="#hwktj"/>
              </g>
            </g>
          </g>
          <g>
            <use fill="#e4eaf6" xlink:href="#hwktk"/>
          </g>
          <g>
            <use fill="#c3b4fa" xlink:href="#hwktl"/>
          </g>
          <g>
            <use fill="#c7cfe2" xlink:href="#hwktm"/>
          </g>
          <g>
            <use fill="#9c6ce9" xlink:href="#hwktn"/>
          </g>
          <g>
            <use fill="#5c6bc0" xlink:href="#hwkto"/>
          </g>
          <g>
            <use fill="#c7cfe2" xlink:href="#hwktp"/>
          </g>
          <g>
            <use fill="#9c6ce9" xlink:href="#hwktq"/>
          </g>
          <g>
            <use fill="#ffe182" xlink:href="#hwktr"/>
          </g>
          <g>
            <use fill="#c7cfe2" xlink:href="#hwkts"/>
          </g>
          <g>
            <use fill="#9c6ce9" xlink:href="#hwktt"/>
          </g>
        </g>
      </g>
    </g>
  </g>
</svg>
