<svg width="152px" height="130px" viewBox="0 0 152 130" version="1.1" xmlns="http://www.w3.org/2000/svg">
    <g id="Page-1" stroke="none" stroke-width="1" fill="none" fill-rule="evenodd">
        <g id="Services" transform="translate(-245.000000, -1293.000000)">
            <g id="section-3" transform="translate(190.000000, 1177.000000)">
                <g id="1" transform="translate(0.000000, 116.000000)">
                    <g id="ic_popular_blogs" transform="translate(54.000000, 0.000000)">
                        <g id="Group-2" transform="translate(0.000000, 60.666667)" fill="#9013FE">
                            <rect id="Rectangle" x="11.1347709" y="0" width="3.7115903" height="23.1111111"></rect>
                            <rect id="Rectangle" transform="translate(12.990566, 11.555556) rotate(90.000000) translate(-12.990566, -11.555556) " x="11.1347709" y="0" width="3.7115903" height="23.1111111"></rect>
                        </g>
                        <g id="Group-2" transform="translate(103.924528, 115.555556)" fill="#9013FE">
                            <rect id="Rectangle" x="6.18598383" y="0" width="2.06199461" height="14.4444444"></rect>
                            <rect id="Rectangle" transform="translate(7.216981, 7.634921) rotate(90.000000) translate(-7.216981, -7.634921) " x="5.77358491" y="0.412698413" width="2.06199461" height="14.4444444"></rect>
                        </g>
                        <ellipse id="Oval" fill="#9013FE" cx="145.783019" cy="91" rx="7.21698113" ry="7.22222222"></ellipse>
                        <ellipse id="Oval" stroke="#9013FE" stroke-width="5.77777786" cx="17.3207547" cy="8.66666667" rx="5.77358491" ry="5.77777778"></ellipse>
                        <ellipse id="Oval" fill="#9013FE" cx="135.679245" cy="5.77777778" rx="5.77358491" ry="5.77777778"></ellipse>
                        <g id="digital-marketing" transform="translate(34.641509, 20.222222)" fill-rule="nonzero">
                            <path d="M45.2650857,77.9903141 C44.9301503,77.6551354 44.4655624,77.4621373 43.9919709,77.4621373 C43.5183793,77.4621373 43.0537915,77.6549552 42.718856,77.9903141 C42.3839206,78.3253125 42.1912426,78.7902378 42.1912426,79.2641733 C42.1912426,79.740091 42.3839206,80.203034 42.718856,80.5382127 C43.0537915,80.8751934 43.5183793,81.0662092 43.9919709,81.0662092 C44.4655624,81.0662092 44.9301503,80.8751934 45.2650857,80.5382127 C45.6000212,80.203034 45.7926991,79.7382889 45.7926991,79.2641733 C45.7926991,78.7902378 45.5998411,78.3253125 45.2650857,77.9903141 Z" id="Shape" fill="#C27DFF"></path>
                            <path d="M53.838713,61.3663522 L53.838713,48.1066112 C53.838713,47.5079749 53.5415929,46.9482625 53.0458524,46.613264 C52.5501119,46.2782655 51.9203972,46.2115902 51.3652327,46.4350427 L20.3363443,58.9406316 L10.3423025,58.9406316 C4.63975637,58.9406316 0.000180072813,63.5835772 0.000180072813,69.2906251 C0.000180072813,74.9976729 4.63975637,79.6406186 10.3426627,79.6406186 L11.532764,79.6406186 L11.532764,90.4622049 C11.532764,91.4572891 12.33895,92.2642408 13.3334922,92.2642408 L20.6847852,92.2642408 C21.6793274,92.2642408 22.4855134,91.4572891 22.4855134,90.4622049 L22.4855134,80.5099207 L51.3661331,92.1341339 C51.5827607,92.2213524 51.8109129,92.2644211 52.0378047,92.2644211 C52.392188,92.2644211 52.7440503,92.1597228 53.0462125,91.9555521 C53.5417729,91.6205536 53.838713,91.0608412 53.838713,90.4623851 L53.838713,77.2028243 C57.4498934,76.3805553 60.1542271,73.1437384 60.1542271,69.2846784 C60.1542271,65.4256184 57.4498934,62.1886212 53.838713,61.3663522 Z M18.8838769,88.6601689 L15.1342205,88.6601689 L15.1342205,79.6404384 L18.8840569,79.6404384 L18.8840569,88.6601689 L18.8838769,88.6601689 Z M18.884237,76.0363665 L10.3426627,76.0363665 C6.62559947,76.0363665 3.60163654,73.0102075 3.60163654,69.2906251 C3.60163654,65.5708625 6.62559947,62.5447035 10.3426627,62.5447035 L18.8849573,62.5447035 L18.884237,76.0363665 Z M50.2374366,87.7950115 L22.4864138,76.625452 L22.4864138,61.9594022 L42.1912426,54.0178298 L42.1912426,71.9012346 C42.1912426,72.8963188 42.9974287,73.7032705 43.9919709,73.7032705 C44.9865131,73.7032705 45.7926991,72.8963188 45.7926991,71.9012346 L45.7926991,52.5662898 L50.2374366,50.7748859 L50.2374366,87.7950115 Z M53.838713,73.4264778 L53.838713,65.1425185 C55.4343383,65.8399064 56.5527706,67.433627 56.5527706,69.2844982 C56.5527706,71.1353693 55.4345184,72.7290899 53.838713,73.4264778 Z" id="Shape" fill="#9013FE"></path>
                            <path d="M77.3328143,67.5358025 L67.1374512,67.5358025 C66.142909,67.5358025 65.3367229,68.3427542 65.3367229,69.3378384 C65.3367229,70.3329227 66.142909,71.1398744 67.1374512,71.1398744 L77.3328143,71.1398744 C78.3273565,71.1398744 79.1335425,70.3329227 79.1335425,69.3378384 C79.1335425,68.3427542 78.3273565,67.5358025 77.3328143,67.5358025 Z" id="Shape" fill="#C27DFF"></path>
                            <path d="M68.9714929,54.3310236 C68.2683085,53.6275088 67.1280874,53.6275088 66.4247229,54.3310236 L62.9079007,57.8503998 C62.2047163,58.5540949 62.2047163,59.695144 62.9079007,60.3990193 C63.259763,60.7507767 63.7205693,60.9268356 64.1813757,60.9268356 C64.6421821,60.9268356 65.1031685,60.7507767 65.4546706,60.3990193 L68.9714929,56.8796431 C69.6746773,56.175948 69.6746773,55.0348989 68.9714929,54.3310236 Z" id="Shape" fill="#C27DFF"></path>
                            <path d="M69.1036663,81.6279038 L65.4692565,77.9906745 C64.7660722,77.2871596 63.625851,77.2871596 62.9224866,77.9906745 C62.2193022,78.6943695 62.2193022,79.8354187 62.9224866,80.5392939 L66.5570765,84.1765233 C66.9087587,84.5282807 67.369565,84.7043396 67.8303714,84.7043396 C68.2911778,84.7043396 68.7521642,84.5282807 69.1036663,84.1765233 C69.8068507,83.4728282 69.8068507,82.3317791 69.1036663,81.6279038 Z" id="Shape" fill="#C27DFF"></path>
                            <path d="M84.9945528,0 L51.5010076,0 C47.5293214,0 44.2980947,3.23357332 44.2980947,7.20814382 L44.2980947,7.9289582 L14.0458603,7.9289582 C11.6627766,7.9289582 9.72411255,9.86921031 9.72411255,12.2538445 L9.72411255,40.7260126 C9.72411255,43.1106467 11.6627766,45.0508989 14.0458603,45.0508989 L15.9065528,45.0508989 L15.9065528,50.5772025 C15.9065528,51.3061261 16.3453903,51.9631484 17.0181423,52.2421035 C17.2408924,52.3343678 17.474807,52.3792385 17.7069209,52.3792385 C18.1754704,52.3792385 18.6360967,52.1961516 18.980576,51.8514221 L25.7761642,45.0508989 L61.5454697,45.0508989 C63.9285535,45.0508989 65.8672175,43.1106467 65.8672175,40.7260126 L65.8672175,35.3199047 L84.9945528,35.3199047 C88.966239,35.3199047 92.1974657,32.0863314 92.1974657,28.1117609 L92.1974657,7.20814382 C92.1972857,3.23357332 88.966239,0 84.9945528,0 Z M62.265761,40.7260126 C62.265761,41.1235417 61.9427104,41.4468269 61.5454697,41.4468269 L25.0303025,41.4468269 C24.5527494,41.4468269 24.0946442,41.6367615 23.7570076,41.9746433 L19.5081893,46.2267273 L19.5081893,43.2488629 C19.5081893,42.2537786 18.7020033,41.4468269 17.7074611,41.4468269 L14.0458603,41.4468269 C13.6486197,41.4468269 13.325569,41.1235417 13.325569,40.7260126 L13.325569,12.2538445 C13.325569,11.8563154 13.6486197,11.5330301 14.0458603,11.5330301 L44.2980947,11.5330301 L44.2980947,28.1117609 C44.2980947,32.0863314 47.5293214,35.3199047 51.5010076,35.3199047 L62.265761,35.3199047 L62.265761,40.7260126 Z M88.5960093,28.1117609 C88.5960093,30.0990461 86.9803959,31.7158328 84.9945528,31.7158328 L51.5010076,31.7158328 C49.5151645,31.7158328 47.8995511,30.0990461 47.8995511,28.1117609 L47.8995511,7.20814382 C47.8995511,5.22085857 49.5151645,3.60407191 51.5010076,3.60407191 L84.9945528,3.60407191 C86.9803959,3.60407191 88.5960093,5.22085857 88.5960093,7.20814382 L88.5960093,28.1117609 Z" id="Shape" fill="#9013FE"></path>
                            <path d="M75.4822059,16.0993892 L63.1580218,8.97882434 C62.6008765,8.65680052 61.9144389,8.65680052 61.3572936,8.97882434 C60.8001483,9.30066797 60.4569295,9.89570024 60.4569295,10.5393875 L60.4569295,24.780337 C60.4569295,25.4240243 60.8001483,26.0190565 61.3572936,26.3409002 C61.6358663,26.5020022 61.946672,26.582373 62.2576577,26.582373 C62.5686435,26.582373 62.8794492,26.5020022 63.1580218,26.3409002 L75.4822059,19.2203353 C76.0393512,18.8984917 76.38257,18.3034594 76.38257,17.6597721 C76.38257,17.0160849 76.0395313,16.4212328 75.4822059,16.0993892 Z M64.058386,21.6592107 L64.058386,13.660694 L70.9803853,17.6599524 L64.058386,21.6592107 Z" id="Shape" fill="#C27DFF"></path>
                            <path d="M38.6277815,18.9213775 L20.6204992,18.9213775 C19.625957,18.9213775 18.8197709,19.7283292 18.8197709,20.7234135 C18.8197709,21.7184977 19.625957,22.5254494 20.6204992,22.5254494 L38.6277815,22.5254494 C39.6223237,22.5254494 40.4285098,21.7184977 40.4285098,20.7234135 C40.4285098,19.7283292 39.6223237,18.9213775 38.6277815,18.9213775 Z" id="Shape" fill="#9013FE"></path>
                            <path d="M39.9007163,29.5407754 C39.5657809,29.2054165 39.101193,29.0127789 38.6276015,29.0127789 C38.1540099,29.0127789 37.689422,29.2054165 37.3544866,29.5407754 C37.0195511,29.8759541 36.8268732,30.3408794 36.8268732,30.8148148 C36.8268732,31.2887503 37.0195511,31.7536755 37.3544866,32.088674 C37.689422,32.4238527 38.1540099,32.6168508 38.6276015,32.6168508 C39.1029937,32.6168508 39.5657809,32.4240329 39.9007163,32.088674 C40.2356518,31.7536755 40.4283297,31.2887503 40.4283297,30.8148148 C40.4283297,30.3408794 40.2356518,29.8759541 39.9007163,29.5407754 Z" id="Shape" fill="#C27DFF"></path>
                            <path d="M31.8730698,29.0127789 L20.6204992,29.0127789 C19.625957,29.0127789 18.8197709,29.8197306 18.8197709,30.8148148 C18.8197709,31.8098991 19.625957,32.6168508 20.6204992,32.6168508 L31.8730698,32.6168508 C32.867612,32.6168508 33.6737981,31.8098991 33.6737981,30.8148148 C33.6737981,29.8197306 32.867612,29.0127789 31.8730698,29.0127789 Z" id="Shape" fill="#9013FE"></path>
                        </g>
                    </g>
                </g>
            </g>
        </g>
    </g>
</svg>
