<svg width="152" height="130" xmlns="http://www.w3.org/2000/svg"><g transform="translate(-1)" fill="none" fill-rule="evenodd"><g fill="#9013FE"><path d="M11.135 60.667h3.712v23.11h-3.712z"/><path d="M24.546 70.367v3.712H1.436v-3.712z"/></g><g fill="#9013FE"><path d="M110.11 115.556h2.063V130h-2.062z"/><path d="M118.363 121.747v2.062H103.92v-2.062z"/></g><ellipse fill="#9013FE" cx="145.783" cy="91" rx="7.217" ry="7.222"/><ellipse stroke="#9013FE" stroke-width="5.778" cx="17.321" cy="8.667" rx="5.774" ry="5.778"/><ellipse fill="#9013FE" cx="135.679" cy="5.778" rx="5.774" ry="5.778"/><g fill-rule="nonzero"><path d="M79.907 98.213a1.814 1.814 0 0 0-1.274-.529c-.473 0-.938.193-1.273.529-.335.335-.527.8-.527 1.273 0 .476.192.94.527 1.274.335.337.8.528 1.273.528a1.806 1.806 0 0 0 1.801-1.802c0-.474-.193-.938-.527-1.273z" fill="#C27DFF"/><path d="M88.48 81.589v-13.26a1.802 1.802 0 0 0-2.473-1.672l-31.03 12.506h-9.993c-5.703 0-10.342 4.643-10.342 10.35s4.64 10.35 10.342 10.35h1.19v10.821a1.8 1.8 0 0 0 1.801 1.802h7.351a1.8 1.8 0 0 0 1.801-1.802v-9.952l28.88 11.624a1.798 1.798 0 0 0 1.68-.178c.496-.335.793-.895.793-1.493v-13.26c3.611-.822 6.316-4.059 6.316-7.918 0-3.86-2.705-7.096-6.316-7.918zm-34.955 27.293h-3.75v-9.02h3.75v9.02zm0-12.623h-8.54c-3.718 0-6.742-3.027-6.742-6.746 0-3.72 3.024-6.746 6.741-6.746h8.542v13.492zm31.354 11.758l-27.751-11.17V82.183l19.705-7.942v17.883a1.801 1.801 0 1 0 3.601 0V72.79l4.445-1.792v37.02zM88.48 93.65v-8.284a4.524 4.524 0 0 1 2.714 4.142 4.524 4.524 0 0 1-2.714 4.142z" fill="#9013FE"/><path d="M111.974 87.758H101.78a1.801 1.801 0 0 0 0 3.604h10.195a1.801 1.801 0 0 0 0-3.604zm-8.361-13.205a1.8 1.8 0 0 0-2.547 0l-3.517 3.52a1.803 1.803 0 0 0 1.274 3.076c.46 0 .922-.176 1.273-.528l3.517-3.52a1.803 1.803 0 0 0 0-2.548zm.132 27.297l-3.634-3.637a1.8 1.8 0 1 0-2.547 2.549l3.635 3.637c.351.352.812.528 1.273.528a1.803 1.803 0 0 0 1.273-3.076z" fill="#C27DFF"/><path d="M119.636 20.222H86.143c-3.972 0-7.203 3.234-7.203 7.208v.721H48.687a4.328 4.328 0 0 0-4.321 4.325v28.472a4.328 4.328 0 0 0 4.321 4.325h1.861V70.8a1.802 1.802 0 0 0 3.074 1.275l6.796-6.8h35.769a4.328 4.328 0 0 0 4.322-4.326v-5.406h19.127c3.972 0 7.203-3.233 7.203-7.208V27.43c0-3.974-3.231-7.208-7.203-7.208zM96.907 60.948a.721.721 0 0 1-.72.721H59.672a1.8 1.8 0 0 0-1.273.528l-4.25 4.252V63.47a1.8 1.8 0 0 0-1.8-1.802h-3.662a.721.721 0 0 1-.72-.72V32.475a.72.72 0 0 1 .72-.72H78.94v16.578c0 3.975 3.23 7.208 7.203 7.208h10.764v5.406zm26.33-12.614a3.607 3.607 0 0 1-3.6 3.604H86.142a3.607 3.607 0 0 1-3.602-3.604V27.43a3.607 3.607 0 0 1 3.602-3.604h33.493a3.607 3.607 0 0 1 3.602 3.604v20.904z" fill="#9013FE"/><path d="M110.124 36.322L97.8 29.2a1.799 1.799 0 0 0-2.702 1.56v14.242a1.802 1.802 0 0 0 2.702 1.56l12.324-7.12a1.802 1.802 0 0 0 0-3.121zM98.7 41.882v-8l6.922 4-6.922 4z" fill="#C27DFF"/><path d="M73.27 39.144H55.261a1.801 1.801 0 0 0 0 3.604h18.007a1.801 1.801 0 0 0 0-3.604z" fill="#9013FE"/><path d="M74.542 49.763a1.813 1.813 0 0 0-1.273-.528c-.473 0-.938.193-1.273.528-.335.335-.528.8-.528 1.274s.193.939.528 1.274c.335.335.8.528 1.273.528a1.81 1.81 0 0 0 1.273-.528c.335-.335.528-.8.528-1.274s-.193-.939-.528-1.274z" fill="#C27DFF"/><path d="M66.515 49.235H55.262a1.801 1.801 0 0 0 0 3.604h11.253a1.801 1.801 0 0 0 0-3.604z" fill="#9013FE"/></g></g></svg>