<svg width="132px" height="113px" viewBox="0 0 132 113" version="1.1" xmlns="http://www.w3.org/2000/svg">
  <g id="Page-1" stroke="none" stroke-width="1" fill="none" fill-rule="evenodd">
    <g id="Services" transform="translate(-746.000000, -3740.000000)">
      <g id="section-7" transform="translate(156.000000, 3726.000000)">
        <g id="brand-awareness-copy" transform="translate(589.000000, 0.000000)">
          <g id="ic_quality" transform="translate(0.000000, 14.000000)">
            <g id="Group-2" transform="translate(0.000000, 52.733333)" fill="#36b0d6">
              <rect id="Rectangle" x="9.67924528" y="0" width="3.22641509" height="20.0888889"></rect>
              <rect id="Rectangle" transform="translate(11.292453, 10.044444) rotate(90.000000) translate(-11.292453, -10.044444) " x="9.67924528" y="0" width="3.22641509" height="20.0888889"></rect>
            </g>
            <g id="Group-2" transform="translate(90.339623, 100.444444)" fill="#36b0d6">
              <rect id="Rectangle" x="5.37735849" y="0" width="1.79245283" height="12.5555556"></rect>
              <rect id="Rectangle" transform="translate(6.273585, 6.636508) rotate(90.000000) translate(-6.273585, -6.636508) " x="5.01886792" y="0.358730159" width="1.79245283" height="12.5555556"></rect>
            </g>
            <ellipse id="Oval" fill="#36b0d6" cx="126.726415" cy="79.1" rx="6.27358491" ry="6.27777778"></ellipse>
            <ellipse id="Oval" stroke="#36b0d6" stroke-width="5" cx="15.0566038" cy="7.53333333" rx="5.01886792" ry="5.02222222"></ellipse>
            <ellipse id="Oval" fill="#36b0d6" cx="117.943396" cy="5.02222222" rx="5.01886792" ry="5.02222222"></ellipse>
            <g id="rating" transform="translate(30.113208, 10.044444)" fill-rule="nonzero">
              <path d="M78.7334906,0 L1.56839623,0 C0.70232783,0 0,0.702640278 0,1.56944444 L0,70.3111111 C0,71.1777583 0.70232783,71.8805556 1.56839623,71.8805556 L34.1126179,71.8805556 C34.9786863,71.8805556 35.6810142,71.1777583 35.6810142,70.3111111 C35.6810142,69.4444639 34.9786863,68.7416667 34.1126179,68.7416667 L3.13679245,68.7416667 L3.13679245,14.4308847 C3.18854953,14.4360639 3.2410908,14.4388889 3.29425943,14.4388889 L77.1650943,14.4388889 L77.1650943,68.7416667 L74.1117406,68.7416667 C73.2456722,68.7416667 72.5433443,69.4444639 72.5433443,70.3111111 C72.5433443,71.1777583 73.2456722,71.8805556 74.1117406,71.8805556 L78.7334906,71.8805556 C79.599559,71.8805556 80.3018868,71.1777583 80.3018868,70.3111111 L80.3018868,1.56944444 C80.3018868,0.702640278 79.599559,0 78.7334906,0 Z M77.1650943,11.3 L3.29425943,11.3 C3.2410908,11.3 3.18854953,11.302825 3.13679245,11.3080042 L3.13679245,3.13888889 L77.1650943,3.13888889 L77.1650943,11.3 Z" id="Shape" fill="#2989c0"></path>
              <path d="M41.8870012,69.2015139 C41.5954363,68.9094403 41.1907901,68.7416667 40.7783019,68.7416667 C40.3658137,68.7416667 39.9611675,68.9094403 39.6694458,69.2015139 C39.3777241,69.4935875 39.2099057,69.8983472 39.2099057,70.3111111 C39.2099057,70.723875 39.3775672,71.1287917 39.6694458,71.4205514 C39.9611675,71.7124681 40.3658137,71.8805556 40.7783019,71.8805556 C41.1907901,71.8805556 41.5954363,71.712625 41.8870012,71.4205514 C42.1788797,71.1287917 42.3466981,70.723875 42.3466981,70.3111111 C42.3466981,69.8983472 42.1788797,69.4934306 41.8870012,69.2015139 Z" id="Shape" fill="#2989c0"></path>
              <path d="M70.2641509,5.65 L34.8285908,5.65 C33.9625224,5.65 33.2601946,6.35264028 33.2601946,7.21944444 C33.2601946,8.08624861 33.9625224,8.78888889 34.8285908,8.78888889 L70.2641509,8.78888889 C71.1302193,8.78888889 71.8325472,8.08624861 71.8325472,7.21944444 C71.8325472,6.35264028 71.1302193,5.65 70.2641509,5.65 Z" id="Shape" fill="#36b0d6"></path>
              <path d="M17.42002,6.10984722 C17.1284552,5.81793056 16.723809,5.65 16.3113208,5.65 C15.8988325,5.65 15.4941863,5.81793056 15.2024646,6.10984722 C14.9105861,6.40176389 14.7429245,6.80668056 14.7429245,7.21944444 C14.7429245,7.63220833 14.9105861,8.037125 15.2024646,8.32904167 C15.4943432,8.62095833 15.8988325,8.78888889 16.3113208,8.78888889 C16.723809,8.78888889 17.1284552,8.62095833 17.42002,8.32904167 C17.7118986,8.037125 17.879717,7.63220833 17.879717,7.21944444 C17.879717,6.80668056 17.7118986,6.40176389 17.42002,6.10984722 Z" id="Shape" fill="#2989c0"></path>
              <path d="M11.1464351,6.10984722 C10.8548703,5.81793056 10.4502241,5.65 10.0377358,5.65 C9.62524764,5.65 9.22060142,5.81793056 8.92887972,6.10984722 C8.63700118,6.40176389 8.46933962,6.80668056 8.46933962,7.21944444 C8.46933962,7.63220833 8.63700118,8.037125 8.92887972,8.32904167 C9.22075825,8.62095833 9.62524764,8.78888889 10.0377358,8.78888889 C10.4502241,8.78888889 10.8548703,8.62095833 11.1464351,8.32904167 C11.4383137,8.037125 11.6061321,7.63220833 11.6061321,7.21944444 C11.6061321,6.80668056 11.4383137,6.40176389 11.1464351,6.10984722 Z" id="Shape" fill="#2989c0"></path>
              <path d="M23.693605,6.10984722 C23.4020401,5.81793056 22.9973939,5.65 22.5849057,5.65 C22.1724175,5.65 21.7677712,5.81793056 21.4760495,6.10984722 C21.1843278,6.40176389 21.0165094,6.80668056 21.0165094,7.21944444 C21.0165094,7.63220833 21.184171,8.037125 21.4760495,8.32904167 C21.7679281,8.62095833 22.1724175,8.78888889 22.5849057,8.78888889 C22.9973939,8.78888889 23.4020401,8.62095833 23.693605,8.32904167 C23.9854835,8.037125 24.1533019,7.63220833 24.1533019,7.21944444 C24.1533019,6.80668056 23.9854835,6.40176389 23.693605,6.10984722 Z" id="Shape" fill="#2989c0"></path>
              <path d="M49.1817689,48.3618028 C48.9585861,47.6750139 48.3763974,47.1839347 47.6621498,47.0801944 L43.6378019,46.4960472 L41.837283,42.8475597 C41.837283,42.8472458 41.8371262,42.8470889 41.8369693,42.8469319 C41.5173302,42.2000069 40.8709941,41.7980722 40.1496887,41.7980722 C40.1495318,41.7980722 40.1492182,41.7980722 40.1489045,41.7980722 C39.4274422,41.7983861 38.7809493,42.2006347 38.4616238,42.8483444 L36.662987,46.4977736 L32.6383255,47.0839611 C31.9243915,47.1881722 31.3425165,47.6795653 31.1198042,48.3663542 C30.897092,49.0531431 31.0798101,49.7926653 31.5965967,50.2967708 L34.5092653,53.1362097 L33.8227783,57.1477097 C33.7013844,57.8591389 33.9884009,58.5647611 34.5720012,58.988825 C34.9019917,59.2284792 35.2876604,59.3502681 35.6761521,59.3502681 C35.9752453,59.3502681 36.2762205,59.2780736 36.554454,59.1316444 L40.1531392,57.2371681 L43.753079,59.1299181 C44.39173,59.4659361 45.1511474,59.4108486 45.7349045,58.986 C46.3186616,58.5617792 46.6053644,57.856 46.4833432,57.1439431 L45.7948172,53.1333847 L48.7060743,50.2923764 C49.2225472,49.7881139 49.4049517,49.0484347 49.1817689,48.3618028 Z M43.1326215,51.3472 C42.6882948,51.7806806 42.4862854,52.4046917 42.5918384,53.0144208 L42.9615094,55.1681694 L41.0270495,54.1511694 C40.4782677,53.8631764 39.8237759,53.8638042 39.2765625,54.152425 L37.3439847,55.1697389 L37.7125578,53.0159903 C37.8171698,52.4050056 37.6148467,51.7820931 37.1709906,51.3487694 L35.6066722,49.8238972 L37.7674517,49.5090667 C38.3810083,49.4199222 38.9108125,49.0343097 39.1844976,48.4784125 L40.150316,46.5186472 L41.1170755,48.4774708 C41.3912311,49.0333681 41.9208785,49.4185097 42.534592,49.5078111 L44.6956851,49.8213861 L43.1326215,51.3472 Z" id="Shape" fill="#36b0d6"></path>
              <path d="M26.9836297,48.3618028 C26.7604469,47.6750139 26.1782583,47.1839347 25.4640106,47.0801944 L21.4396627,46.4960472 L19.6391439,42.8475597 C19.6391439,42.8472458 19.638987,42.8470889 19.6388302,42.8469319 C19.319191,42.2000069 18.672855,41.7980722 17.9515495,41.7980722 C17.9513927,41.7980722 17.951079,41.7980722 17.9507653,41.7980722 C17.2293031,41.7983861 16.5828101,42.2006347 16.2634847,42.8483444 L14.4648479,46.4977736 L10.4401863,47.0839611 C9.72625236,47.1881722 9.14437736,47.6795653 8.92166509,48.3663542 C8.69895283,49.0531431 8.88167099,49.7926653 9.39845755,50.2967708 L12.3111262,53.1362097 L11.6246392,57.1477097 C11.5032453,57.8591389 11.7902618,58.5647611 12.373862,58.988825 C12.7038526,59.2284792 13.0895212,59.3502681 13.478013,59.3502681 C13.7771061,59.3502681 14.0780814,59.2780736 14.3563149,59.1316444 L17.955,57.2371681 L21.5549399,59.1299181 C22.1935908,59.4659361 22.9530083,59.4108486 23.5367653,58.986 C24.1205224,58.5616222 24.4072252,57.8558431 24.2850472,57.1437861 L23.5965212,53.1333847 L26.5077783,50.2922194 C27.024408,49.7881139 27.2068125,49.0484347 26.9836297,48.3618028 Z M20.9344823,51.3472 C20.4909399,51.7800528 20.2886167,52.4032792 20.3935425,53.0144208 L20.7632134,55.1680125 L18.8289104,54.1511694 C18.2799717,53.8631764 17.62548,53.8638042 17.0784233,54.152425 L15.1458455,55.1697389 L15.5144186,53.0159903 C15.6190307,52.4050056 15.4167075,51.7820931 14.9728514,51.3487694 L13.408533,49.8238972 L15.5693125,49.5090667 C16.1828691,49.4199222 16.7126733,49.0343097 16.9863585,48.4784125 L17.9521769,46.5186472 L18.9189363,48.4774708 C19.193092,49.0333681 19.7227394,49.4185097 20.3364528,49.5078111 L22.497546,49.8213861 L20.9344823,51.3472 Z" id="Shape" fill="#36b0d6"></path>
              <path d="M71.3802217,48.3666681 C71.1575094,47.6798792 70.5756344,47.1884861 69.8610731,47.084275 L65.8370389,46.4980875 L64.0382453,42.8483444 C63.7190767,42.2009486 63.0725837,41.7987 62.3511215,41.7983861 C62.3508078,41.7983861 62.3506509,41.7983861 62.3503373,41.7983861 C61.6290318,41.7983861 60.9825389,42.2003208 60.6630566,42.8472458 C60.6628998,42.8474028 60.6627429,42.8475597 60.6627429,42.8478736 L58.8622241,46.4963611 L54.8375625,47.0805083 C54.1234717,47.1842486 53.541283,47.6753278 53.3181002,48.3621167 C53.0949175,49.0487486 53.2773219,49.7884278 53.7937948,50.2926903 L56.7052087,53.1338556 L56.0163691,57.1447278 C55.8945047,57.8563139 56.1812075,58.5620931 56.7648078,58.9864708 C57.3485649,59.4111625 58.1078255,59.4660931 58.7467901,59.1303889 L62.3465731,57.2376389 L65.9458856,59.1324292 C66.2236486,59.2787014 66.5243101,59.3507389 66.8234033,59.3507389 C67.2120519,59.3507389 67.5978774,59.2291069 67.9277111,58.9892958 C68.5114682,58.5652319 68.7984847,57.8596097 68.6767771,57.1477097 L67.9904469,53.1366806 L70.9032724,50.2970847 C71.4202158,49.7929792 71.602934,49.0534569 71.3802217,48.3666681 Z M65.3287217,51.3493972 C64.8853361,51.7820931 64.683013,52.4051625 64.787625,53.0156764 L65.1561981,55.1697389 L63.2244045,54.1527389 C62.950092,54.0081931 62.6489599,53.9358417 62.347671,53.9358417 C62.0471663,53.9358417 61.7465047,54.0077222 61.4718785,54.1517972 L59.5388302,55.1681694 L59.9085012,53.0144208 C60.0134269,52.4032792 59.8111038,51.7802097 59.3677182,51.3473569 L57.8043408,49.8215431 L59.9660613,49.5078111 C60.5791474,49.4186667 61.1087948,49.033525 61.3826368,48.4779417 L62.3497099,46.5186472 L63.3152146,48.4777847 C63.5892134,49.0343097 64.1190177,49.4199222 64.7324175,49.5090667 L66.8933538,49.8238972 L65.3287217,51.3493972 Z" id="Shape" fill="#36b0d6"></path>
              <path d="M70.2641509,18.5194444 L10.0377358,18.5194444 C9.17166745,18.5194444 8.46933962,19.2220847 8.46933962,20.0888889 L8.46933962,37.0348083 C8.46933962,37.9016125 9.17166745,38.6042528 10.0377358,38.6042528 L70.2641509,38.6042528 C71.1302193,38.6042528 71.8325472,37.9016125 71.8325472,37.0348083 L71.8325472,20.0888889 C71.8325472,19.2220847 71.1302193,18.5194444 70.2641509,18.5194444 Z M68.6957547,35.4653639 L11.6061321,35.4653639 L11.6061321,28.5638889 L34.8285908,28.5638889 C35.6946592,28.5638889 36.396987,27.8612486 36.396987,26.9944444 C36.396987,26.1276403 35.6946592,25.425 34.8285908,25.425 L11.6061321,25.425 L11.6061321,21.6583333 L68.6957547,21.6583333 L68.6957547,35.4653639 Z" id="Shape" fill="#2989c0"></path>
              <path d="M74.1117406,73.1157083 C73.18623,73.1157083 72.3149858,73.3528514 71.5554116,73.769225 C70.7857995,71.7631611 68.8417724,70.3348097 66.5693231,70.3348097 C65.0984811,70.3348097 63.764717,70.9330819 62.7981144,71.8989181 C61.8315118,70.932925 60.4977476,70.3348097 59.0269057,70.3348097 C58.2416097,70.3348097 57.4961509,70.5066639 56.8240932,70.8125486 L56.8240932,61.5532972 C56.8240932,58.6071361 54.4288384,56.2101236 51.4843314,56.2101236 C48.540138,56.2101236 46.1447264,58.6069792 46.1447264,61.5532972 L46.1447264,78.7861111 C46.1447264,79.6527583 46.8470542,80.3555556 47.7131226,80.3555556 C48.579191,80.3555556 49.2815189,79.6527583 49.2815189,78.7861111 L49.2815189,61.5534542 C49.2815189,60.3380764 50.2697653,59.3491694 51.4843314,59.3491694 C52.6990542,59.3491694 53.6873007,60.3380764 53.6873007,61.5534542 L53.6873007,78.7861111 C53.6873007,79.6527583 54.3896285,80.3555556 55.2556969,80.3555556 C56.1217653,80.3555556 56.8240932,79.6527583 56.8240932,78.7861111 L56.8240932,75.6779833 C56.8240932,74.4626056 57.8123396,73.4736986 59.0269057,73.4736986 C60.2414717,73.4736986 61.2297182,74.4626056 61.2297182,75.6779833 L61.2297182,78.7861111 C61.2297182,79.6527583 61.932046,80.3555556 62.7981144,80.3555556 C63.6641828,80.3555556 64.3665106,79.6527583 64.3665106,78.7861111 L64.3665106,75.6779833 C64.3665106,74.4626056 65.3547571,73.4736986 66.5693231,73.4736986 C67.7838892,73.4736986 68.7721356,74.4626056 68.7721356,75.6779833 L68.7721356,78.7861111 C68.7721356,79.6527583 69.4744634,80.3555556 70.3405318,80.3555556 C71.2066002,80.3555556 71.9089281,79.6527583 71.9089281,78.7861111 L71.9089281,78.4588819 C71.9089281,77.2435042 72.8971745,76.2545972 74.1117406,76.2545972 C75.3264634,76.2545972 76.3147099,77.2435042 76.3147099,78.4588819 C76.3147099,79.3255292 77.0170377,80.0283264 77.8831061,80.0283264 C78.7491745,80.0283264 79.4515024,79.3255292 79.4515024,78.4588819 C79.4515024,75.5127208 77.0562476,73.1157083 74.1117406,73.1157083 Z" id="Shape" fill="#36b0d6"></path>
              <path d="M42.9848785,25.8848472 C42.6933137,25.5929306 42.2886675,25.425 41.8761792,25.425 C41.463691,25.425 41.0590448,25.5929306 40.7673231,25.8848472 C40.4756014,26.1767639 40.307783,26.5816806 40.307783,26.9944444 C40.307783,27.4072083 40.4754446,27.812125 40.7673231,28.1040417 C41.0592017,28.3959583 41.463691,28.5638889 41.8761792,28.5638889 C42.2886675,28.5638889 42.6933137,28.3959583 42.9848785,28.1040417 C43.2766002,27.812125 43.4445755,27.4072083 43.4445755,26.9944444 C43.4445755,26.5816806 43.2767571,26.1767639 42.9848785,25.8848472 Z" id="Shape" fill="#36b0d6"></path>
            </g>
          </g>
        </g>
      </g>
    </g>
  </g>
</svg>
