<svg width="132" height="113" xmlns="http://www.w3.org/2000/svg"><g transform="translate(-1)" fill="none" fill-rule="evenodd"><g fill="#9013FE"><path d="M9.679 52.733h3.226v20.09H9.679z"/><path d="M21.337 61.164v3.226H1.247v-3.226z"/></g><g fill="#9013FE"><path d="M95.717 100.444h1.792V113h-1.792z"/><path d="M102.89 105.826v1.792H90.336v-1.792z"/></g><ellipse fill="#9013FE" cx="126.726" cy="79.1" rx="6.274" ry="6.278"/><ellipse stroke="#9013FE" stroke-width="5" cx="15.057" cy="7.533" rx="5.019" ry="5.022"/><ellipse fill="#9013FE" cx="117.943" cy="5.022" rx="5.019" ry="5.022"/><g fill-rule="nonzero"><path d="M108.847 10.044H31.682a1.57 1.57 0 0 0-1.569 1.57v68.742a1.57 1.57 0 0 0 1.569 1.569h32.544a1.57 1.57 0 0 0 0-3.139H33.25v-54.31c.052.005.104.007.157.007h73.871v54.303h-3.053a1.57 1.57 0 0 0 0 3.139h4.622a1.57 1.57 0 0 0 1.568-1.57v-68.74c0-.867-.702-1.57-1.568-1.57zm-1.569 11.3h-73.87c-.054 0-.106.003-.158.008v-8.169h74.028v8.161z" fill="#9013FE"/><path d="M72 79.246a1.578 1.578 0 0 0-1.108-.46 1.58 1.58 0 0 0-1.11.46 1.585 1.585 0 0 0-.459 1.11c0 .412.168.817.46 1.109.291.292.696.46 1.109.46.412 0 .817-.168 1.108-.46a1.58 1.58 0 0 0 .46-1.11c0-.412-.168-.817-.46-1.109z" fill="#C482FF"/><path d="M100.377 15.694H64.942a1.569 1.569 0 0 0 0 3.14h35.435a1.569 1.569 0 0 0 0-3.14zm-52.844.46a1.58 1.58 0 0 0-1.108-.46 1.58 1.58 0 0 0-1.11.46 1.585 1.585 0 0 0-.459 1.11c0 .413.168.818.46 1.11.292.291.696.46 1.109.46a1.58 1.58 0 0 0 1.108-.46c.292-.292.46-.697.46-1.11 0-.413-.168-.818-.46-1.11zm-6.273 0a1.58 1.58 0 0 0-1.11-.46 1.58 1.58 0 0 0-1.108.46c-.292.292-.46.697-.46 1.11 0 .413.168.818.46 1.11.292.291.696.46 1.109.46a1.58 1.58 0 0 0 1.109-.46c.292-.292.46-.697.46-1.11 0-.413-.168-.818-.46-1.11zm12.547 0a1.58 1.58 0 0 0-1.109-.46 1.58 1.58 0 0 0-1.109.46c-.291.292-.46.697-.46 1.11 0 .413.168.818.46 1.11.292.291.697.46 1.11.46a1.58 1.58 0 0 0 1.108-.46c.292-.292.46-.697.46-1.11 0-.413-.168-.818-.46-1.11z" fill="#C27DFF"/><path d="M79.295 58.406a1.87 1.87 0 0 0-1.52-1.281l-4.024-.585-1.8-3.648a1.87 1.87 0 0 0-1.688-1.05 1.87 1.87 0 0 0-1.688 1.05l-1.799 3.65-4.024.586a1.87 1.87 0 0 0-1.519 1.283 1.873 1.873 0 0 0 .477 1.93l2.912 2.84-.686 4.011a1.873 1.873 0 0 0 .75 1.841 1.875 1.875 0 0 0 1.982.143l3.598-1.894 3.6 1.892a1.868 1.868 0 0 0 1.982-.144c.584-.424.87-1.13.749-1.842l-.689-4.01 2.911-2.841a1.873 1.873 0 0 0 .476-1.93zm-6.05 2.986a1.882 1.882 0 0 0-.54 1.667l.37 2.154-1.935-1.017a1.88 1.88 0 0 0-1.75 0l-1.933 1.018.369-2.154a1.885 1.885 0 0 0-.542-1.667l-1.564-1.525 2.16-.314a1.88 1.88 0 0 0 1.418-1.031l.966-1.96.966 1.959a1.88 1.88 0 0 0 1.418 1.03l2.16.314-1.562 1.526zm-16.148-2.986a1.87 1.87 0 0 0-1.52-1.281l-4.024-.585-1.8-3.648h-.001a1.87 1.87 0 0 0-1.687-1.05h-.001a1.87 1.87 0 0 0-1.687 1.05l-1.799 3.65-4.025.586a1.87 1.87 0 0 0-1.518 1.283 1.873 1.873 0 0 0 .477 1.93l2.912 2.84-.686 4.011a1.873 1.873 0 0 0 .75 1.841 1.875 1.875 0 0 0 1.982.143l3.598-1.894 3.6 1.892a1.868 1.868 0 0 0 1.982-.144 1.87 1.87 0 0 0 .748-1.842l-.688-4.01 2.911-2.841a1.872 1.872 0 0 0 .476-1.93zm-6.05 2.986a1.884 1.884 0 0 0-.54 1.667l.37 2.153-1.935-1.016a1.88 1.88 0 0 0-1.75 0l-1.933 1.018.369-2.154a1.885 1.885 0 0 0-.542-1.667l-1.564-1.525 2.16-.314a1.88 1.88 0 0 0 1.418-1.031l.965-1.96.967 1.959a1.88 1.88 0 0 0 1.418 1.03l2.16.314-1.562 1.526zm50.446-2.981a1.87 1.87 0 0 0-1.519-1.282l-4.024-.586-1.799-3.65a1.87 1.87 0 0 0-1.687-1.05 1.87 1.87 0 0 0-1.688 1.049l-1.8 3.649-4.025.584a1.87 1.87 0 0 0-1.52 1.282 1.873 1.873 0 0 0 .476 1.93l2.911 2.841-.688 4.011a1.872 1.872 0 0 0 .748 1.842 1.87 1.87 0 0 0 1.982.144l3.6-1.893 3.6 1.895a1.874 1.874 0 0 0 1.982-.143c.583-.424.87-1.13.748-1.842l-.686-4.01 2.912-2.84c.517-.505.7-1.244.477-1.93zm-6.051 2.983a1.884 1.884 0 0 0-.541 1.666l.368 2.154-1.931-1.017a1.88 1.88 0 0 0-1.753 0l-1.933 1.016.37-2.154a1.884 1.884 0 0 0-.541-1.667l-1.563-1.526 2.161-.314a1.88 1.88 0 0 0 1.417-1.03l.967-1.959.965 1.96a1.88 1.88 0 0 0 1.418 1.03l2.16.315-1.564 1.526z" fill="#9013FE"/><path d="M100.377 28.564H40.151c-.866 0-1.568.703-1.568 1.57v16.945c0 .867.702 1.57 1.568 1.57h60.226a1.57 1.57 0 0 0 1.569-1.57V30.133a1.57 1.57 0 0 0-1.569-1.57zM98.81 45.51H41.72v-6.902h23.223a1.569 1.569 0 0 0 0-3.139H41.719v-3.766h57.09V45.51zm5.415 37.65c-.926 0-1.797.237-2.556.654a5.348 5.348 0 0 0-4.986-3.435 5.327 5.327 0 0 0-3.772 1.564 5.32 5.32 0 0 0-5.974-1.086v-9.26a5.347 5.347 0 0 0-5.34-5.342 5.347 5.347 0 0 0-5.34 5.343V88.83a1.57 1.57 0 1 0 3.138 0V71.598c0-1.215.988-2.204 2.203-2.204 1.214 0 2.203.989 2.203 2.204V88.83a1.57 1.57 0 1 0 3.136 0v-3.109c0-1.215.989-2.204 2.203-2.204 1.215 0 2.203.989 2.203 2.204v3.109a1.57 1.57 0 1 0 3.137 0v-3.109c0-1.215.988-2.204 2.203-2.204 1.214 0 2.202.989 2.202 2.204v3.109a1.57 1.57 0 1 0 3.137 0v-.328c0-1.215.988-2.204 2.203-2.204 1.215 0 2.203.989 2.203 2.204a1.57 1.57 0 1 0 3.137 0 5.347 5.347 0 0 0-5.34-5.343z" fill="#C27DFF"/><path d="M73.098 35.93a1.58 1.58 0 0 0-1.109-.46 1.58 1.58 0 0 0-1.108.46c-.292.291-.46.696-.46 1.109 0 .413.168.818.46 1.11.291.291.696.46 1.108.46a1.58 1.58 0 0 0 1.11-.46 1.59 1.59 0 0 0 .459-1.11c0-.413-.168-.818-.46-1.11z" fill="#C27DFF"/></g></g></svg>