<svg width="152px" height="130px" viewBox="0 0 152 130" version="1.1" xmlns="http://www.w3.org/2000/svg">
  <g id="Page-1" stroke="none" stroke-width="1" fill="none" fill-rule="evenodd">
    <g id="Services" transform="translate(-1043.000000, -1293.000000)">
      <g id="section-3" transform="translate(190.000000, 1177.000000)">
        <g id="3" transform="translate(798.000000, 116.000000)">
          <g id="ic_strategic_partners" transform="translate(54.000000, 0.000000)">
            <g id="Group-2" transform="translate(0.000000, 60.666667)" fill="#8bc73d">
              <rect id="Rectangle" x="11.1347709" y="0" width="3.7115903" height="23.1111111"></rect>
              <rect id="Rectangle" transform="translate(12.990566, 11.555556) rotate(90.000000) translate(-12.990566, -11.555556) " x="11.1347709" y="0" width="3.7115903" height="23.1111111"></rect>
            </g>
            <g id="Group-2" transform="translate(103.924528, 115.555556)" fill="#d6e122">
              <rect id="Rectangle" x="6.18598383" y="0" width="2.06199461" height="14.4444444"></rect>
              <rect id="Rectangle" transform="translate(7.216981, 7.634921) rotate(90.000000) translate(-7.216981, -7.634921) " x="5.77358491" y="0.412698413" width="2.06199461" height="14.4444444"></rect>
            </g>
            <ellipse id="Oval" fill="#36b0d6" cx="145.783019" cy="91" rx="7.21698113" ry="7.22222222"></ellipse>
            <ellipse id="Oval" stroke="#36b0d6" stroke-width="5.77777778" cx="17.3207547" cy="8.66666667" rx="5.77358491" ry="5.77777778"></ellipse>
            <ellipse id="Oval" fill="#2989c0" cx="135.679245" cy="5.77777778" rx="5.77358491" ry="5.77777778"></ellipse>
            <g id="handshake" transform="translate(34.641509, 23.111111)" fill-rule="nonzero">
              <path d="M92.2390805,12.2875479 L92.2390805,9.22241379 L78.4112847,9.22241379 C77.5627957,9.22241379 76.8748629,9.90862069 76.8748629,10.7549808 L76.8748629,13.3971264 L63.3543514,13.3971264 C63.6754635,12.5831418 63.8425494,11.7170498 63.8475428,10.8423372 L63.8475428,8.30287356 C63.8475428,7.45651341 63.1596099,6.77030651 62.311121,6.77030651 L40.5415611,6.77030651 C40.1340252,6.77030651 39.74339,6.93199234 39.4553109,7.21934866 L33.2635312,13.3955939 L15.3642176,13.3955939 L15.3642176,10.7549808 C15.3642176,9.90862069 14.6762848,9.22241379 13.8277959,9.22241379 L0,9.22241379 L0,12.2875479 L12.2913741,12.2875479 L12.2913741,39.8737548 L0,39.8737548 L0,42.9388889 L13.8277959,42.9388889 C14.6762848,42.9388889 15.3642176,42.252682 15.3642176,41.4063218 L15.3642176,37.9151341 L21.2548587,37.9151341 L21.4085008,38.0683908 L19.0792855,40.393295 C18.4795048,40.9917625 18.4795048,41.9618774 19.0792855,42.5603448 L40.3541176,63.7818008 C40.9540903,64.3800766 41.9266453,64.3800766 42.526618,63.7818008 L45.0171577,61.2944444 C47.3046976,62.6275862 50.2064222,62.2494253 52.0739428,60.3749042 L67.221525,45.2653257 C69.1839197,43.3032567 69.5011908,40.2386973 67.9820537,37.9181992 L76.8210881,37.9181992 L76.8210881,41.4063218 C76.8210881,42.252682 77.509021,42.9388889 78.3575099,42.9388889 L92.1853058,42.9388889 L92.1853058,39.8737548 L79.8939317,39.8737548 L79.9477064,12.2875479 L92.2390805,12.2875479 Z M41.4403678,60.5312261 L38.224637,57.3235632 L41.6047649,53.9519157 L39.4322645,51.7848659 L36.0521367,55.1565134 L32.9792931,52.0913793 L36.3686395,48.7105364 L34.1961392,46.5434866 L30.8067928,49.9151341 L27.7339492,46.85 L31.1325142,43.4599617 L28.9600138,41.2929119 L25.5660581,44.6967433 L22.3318903,41.4783525 L28.7848617,35.0415709 C29.8797543,33.9530651 31.6508645,33.9530651 32.745757,35.0415709 L47.8933392,50.152682 C48.9866953,51.2431034 48.9868874,53.0111111 47.8937233,54.1017241 C47.8935312,54.1019157 47.8933392,54.1021073 47.8933392,54.1021073 L41.4403678,60.5312261 Z M65.050561,43.0967433 L49.9014424,58.2063218 C49.2352115,58.8699234 48.2789811,59.1544061 47.357128,58.96341 L50.0596939,56.2722222 C52.3528034,53.9871648 52.3547239,50.2802682 50.063919,47.9929119 C50.0625747,47.9915709 50.0612303,47.9902299 50.0596939,47.9886973 L34.9121117,32.8775862 C32.6166976,30.5942529 28.9016298,30.5942529 26.6062157,32.8775862 L23.576392,35.8890805 L22.9771875,35.2929119 C22.6891084,35.0055556 22.2984731,34.8438697 21.8909373,34.8438697 L15.3642176,34.8438697 L15.3642176,16.4530651 L33.8996098,16.4591954 C34.3071456,16.4591954 34.6977809,16.2975096 34.98586,16.0101533 L41.1761032,9.83544061 L60.7793085,9.83544061 L60.7793085,10.8408046 C60.7768118,13.0965517 58.9446289,14.9247126 56.6832081,14.9281609 L48.9934172,14.9281609 C48.8555233,14.8657088 48.7026494,14.8434866 48.5524641,14.8637931 C48.1449283,14.8637931 47.754293,15.0254789 47.4662139,15.3128352 L35.2347603,27.512069 C34.6349796,28.1105364 34.6349796,29.0806513 35.2347603,29.6791188 L40.0883166,34.5204981 C41.8882347,36.3153257 44.8058997,36.3153257 46.6058178,34.5204981 L53.5089607,27.6346743 L65.050561,39.147318 C66.1416125,40.2388889 66.1416125,42.0051724 65.050561,43.0967433 Z M76.8333795,34.85 L65.0889716,34.85 L54.5952109,24.382567 C53.9952382,23.7842912 53.0226832,23.7842912 52.4227105,24.382567 L44.4333174,32.3519157 C43.8333447,32.9501916 42.8607897,32.9501916 42.260817,32.3519157 L38.4935108,28.5940613 L49.124013,17.9917625 L56.6832081,17.9917625 C58.2743649,17.9850575 59.8169323,17.4454023 61.0635465,16.4591954 L76.8687172,16.4591954 L76.8333795,34.85 Z" id="Shape" fill="#e4a800"></path>
              <path d="M45.0064027,64.8438697 L41.4833876,68.358046 L37.9603725,64.8438697 L35.7878721,67.0109195 L40.3971374,71.6086207 C40.9971101,72.2068966 41.9696651,72.2068966 42.5696378,71.6086207 L47.1789031,67.0109195 L45.0064027,64.8438697 Z" id="Shape" fill="#ffc129"></path>
              <rect id="Rectangle-path" fill="#ffc129" transform="translate(57.613540, 60.565967) rotate(-45.000000) translate(-57.613540, -60.565967) " x="52.1823416" y="59.0334151" width="10.8623977" height="3.0651047"></rect>
              <path d="M38.4105441,0.0270114943 C38.0030082,0.0270114943 37.612373,0.188697318 37.3242939,0.47605364 L31.1786068,6.60632184 L33.3511072,8.77337165 L39.0466227,3.09214559 L44.5562311,3.09214559 L44.5562311,0.0270114943 L38.4105441,0.0270114943 Z" id="Shape" fill="#ffc129"></path>
            </g>
          </g>
        </g>
      </g>
    </g>
  </g>
</svg>
