<svg width="152px" height="130px" viewBox="0 0 152 130" version="1.1" xmlns="http://www.w3.org/2000/svg">
  <g id="Page-1" stroke="none" stroke-width="1" fill="none" fill-rule="evenodd">
    <g id="Services" transform="translate(-645.000000, -1293.000000)">
      <g id="section-3" transform="translate(190.000000, 1177.000000)">
        <g id="2" transform="translate(400.000000, 116.000000)">
          <g id="ic_social_influencers" transform="translate(54.000000, 0.000000)">
            <g id="Group-2" transform="translate(0.000000, 60.666667)" fill="#2989c0">
              <rect id="Rectangle" x="11.1347709" y="0" width="3.7115903" height="23.1111111"></rect>
              <rect id="Rectangle" transform="translate(12.990566, 11.555556) rotate(90.000000) translate(-12.990566, -11.555556) " x="11.1347709" y="0" width="3.7115903" height="23.1111111"></rect>
            </g>
            <g id="Group-2" transform="translate(103.924528, 115.555556)" fill="#36b0d6">
              <rect id="Rectangle" x="6.18598383" y="0" width="2.06199461" height="14.4444444"></rect>
              <rect id="Rectangle" transform="translate(7.216981, 7.634921) rotate(90.000000) translate(-7.216981, -7.634921) " x="5.77358491" y="0.412698413" width="2.06199461" height="14.4444444"></rect>
            </g>
            <ellipse id="Oval" fill="#d6e122" cx="145.783019" cy="91" rx="7.21698113" ry="7.22222222"></ellipse>
            <ellipse id="Oval" stroke="#8bc73d" stroke-width="5.77777778" cx="17.3207547" cy="8.66666667" rx="5.77358491" ry="5.77777778"></ellipse>
            <ellipse id="Oval" fill="#e4a800" cx="135.679245" cy="5.77777778" rx="5.77358491" ry="5.77777778"></ellipse>
            <g id="social-media" transform="translate(34.641509, 14.444444)">
              <rect id="Rectangle-path" fill="#e4a800" fill-rule="nonzero" x="30.7924528" y="7.7037037" width="30.7924528" height="3.08148148"></rect>
              <path d="M76.2113208,57.7777778 C76.2113208,54.8045333 73.7935358,52.3851852 70.8226415,52.3851852 L67.7433962,52.3851852 L67.7433962,30.8148148 L64.6641509,30.8148148 L64.6641509,52.3851852 L60.8150943,52.3851852 C57.8440075,52.3851852 55.4264151,54.8047259 55.4264151,57.7777778 C55.4264151,59.2873185 56.0534264,60.6497185 57.0557208,61.6296296 C56.0534264,62.6095407 55.4264151,63.9719407 55.4264151,65.4814815 C55.4264151,66.5201333 55.7353019,67.4825185 56.2460717,68.3064296 C54.4042981,69.1648148 53.1169811,71.0219852 53.1169811,73.1851852 C53.1169811,74.0154519 53.3211736,74.7931407 53.6575811,75.4962963 L41.5698113,75.4962963 C41.5698113,70.7852889 39.2107245,66.6160444 35.6128189,64.1092593 C39.0919811,62.7821037 41.5698113,59.4088444 41.5698113,55.4666667 C41.5698113,54.6157926 40.8812151,53.9259259 40.0301887,53.9259259 L27.7132075,53.9259259 L27.7132075,38.5185185 L24.6339623,38.5185185 L24.6339623,53.9259259 C22.0870415,53.9259259 20.0150943,55.9993778 20.0150943,58.5481481 L20.0150943,92.4444444 L23.0943396,92.4444444 L23.0943396,58.5481481 C23.0943396,57.6988148 23.7844755,57.0074074 24.6339623,57.0074074 L38.295034,57.0074074 C37.6108642,59.6622963 35.1961585,61.6296296 32.3320755,61.6296296 L27.7132075,61.6296296 C26.8621811,61.6296296 26.1735849,62.3194963 26.1735849,63.1703704 C26.1735849,64.0212444 26.8621811,64.7111111 27.7132075,64.7111111 C33.6551887,64.7111111 38.490566,69.5492296 38.490566,75.4962963 L38.490566,77.037037 C38.490566,77.8879111 39.1791623,78.5777778 40.0301887,78.5777778 L49.0387132,78.5777778 C48.7023057,79.2809333 48.4981132,80.0586222 48.4981132,80.8888889 C48.4981132,83.8621333 50.9158981,86.2814815 53.8867925,86.2814815 L53.8867925,92.4444444 L56.9660377,92.4444444 L56.9660377,86.2814815 L63.1245283,86.2814815 L63.8943396,86.2814815 C66.8654264,86.2814815 69.2830189,83.8619407 69.2830189,80.8888889 C69.2830189,80.049763 69.0738226,79.2647556 68.7304868,78.5558222 C71.5989962,78.4387259 73.9018868,76.0838963 73.9018868,73.1851852 C73.9018868,72.1465333 73.593,71.1841481 73.0822302,70.360237 C74.9240038,69.5018519 76.2113208,67.6446815 76.2113208,65.4814815 C76.2113208,63.9719407 75.5843094,62.6095407 74.5820151,61.6296296 C75.5843094,60.6497185 76.2113208,59.2873185 76.2113208,57.7777778 Z M63.8943396,83.2 L63.1245283,83.2 L55.4264151,83.2 L53.8867925,83.2 C52.6133321,83.2 51.5773585,82.1632741 51.5773585,80.8888889 C51.5773585,79.6145037 52.6133321,78.5777778 53.8867925,78.5777778 L58.5056604,78.5777778 L63.8943396,78.5777778 C65.1678,78.5777778 66.2037736,79.6145037 66.2037736,80.8888889 C66.2037736,82.1632741 65.1678,83.2 63.8943396,83.2 Z M68.5132075,75.4962963 L63.8943396,75.4962963 L58.5056604,75.4962963 C57.2322,75.4962963 56.1962264,74.4595704 56.1962264,73.1851852 C56.1962264,71.9108 57.2322,70.8740741 58.5056604,70.8740741 L60.8150943,70.8740741 L68.5132075,70.8740741 C69.7866679,70.8740741 70.8226415,71.9108 70.8226415,73.1851852 C70.8226415,74.4595704 69.7866679,75.4962963 68.5132075,75.4962963 Z M70.8226415,67.7925926 L68.5132075,67.7925926 L60.8150943,67.7925926 C59.541634,67.7925926 58.5056604,66.7558667 58.5056604,65.4814815 C58.5056604,64.2070963 59.541634,63.1703704 60.8150943,63.1703704 L70.8226415,63.1703704 C72.0961019,63.1703704 73.1320755,64.2070963 73.1320755,65.4814815 C73.1320755,66.7558667 72.0961019,67.7925926 70.8226415,67.7925926 Z M70.8226415,60.0888889 L60.8150943,60.0888889 C59.541634,60.0888889 58.5056604,59.052163 58.5056604,57.7777778 C58.5056604,56.5033926 59.541634,55.4666667 60.8150943,55.4666667 L70.8226415,55.4666667 C72.0961019,55.4666667 73.1320755,56.5033926 73.1320755,57.7777778 C73.1320755,59.052163 72.0961019,60.0888889 70.8226415,60.0888889 Z" id="Shape" fill="#e4a800" fill-rule="nonzero"></path>
              <path d="M50.8075472,26.1925926 L50.8075472,23.1111111 L46.1886792,23.1111111 C45.3376528,23.1111111 44.6490566,23.8009778 44.6490566,24.6518519 L44.6490566,29.2740741 L41.5698113,29.2740741 L41.5698113,32.3555556 L44.6490566,32.3555556 L44.6490566,38.5185185 L47.7283019,38.5185185 L47.7283019,32.3555556 L50.8075472,32.3555556 L50.8075472,29.2740741 L47.7283019,29.2740741 L47.7283019,26.1925926 L50.8075472,26.1925926 Z" id="Shape" fill="#36b0d6" fill-rule="nonzero"></path>
              <path d="M55.4264151,16.9481481 L36.9509434,16.9481481 C34.4040226,16.9481481 32.3320755,19.0216 32.3320755,21.5703704 L32.3320755,40.0592593 C32.3320755,42.6080296 34.4040226,44.6814815 36.9509434,44.6814815 L55.4264151,44.6814815 C57.9733358,44.6814815 60.045283,42.6080296 60.045283,40.0592593 L60.045283,21.5703704 C60.045283,19.0216 57.9733358,16.9481481 55.4264151,16.9481481 Z M56.9660377,40.0592593 C56.9660377,40.9085926 56.2759019,41.6 55.4264151,41.6 L36.9509434,41.6 C36.1014566,41.6 35.4113208,40.9085926 35.4113208,40.0592593 L35.4113208,21.5703704 C35.4113208,20.721037 36.1014566,20.0296296 36.9509434,20.0296296 L55.4264151,20.0296296 C56.2759019,20.0296296 56.9660377,20.721037 56.9660377,21.5703704 L56.9660377,40.0592593 Z" id="Shape" fill="#36b0d6" fill-rule="nonzero"></path>
              <path d="M23.0943396,7.7037037 L4.61886792,7.7037037 C2.07194717,7.7037037 0,9.77715556 0,12.3259259 L0,30.8148148 C0,33.3635852 2.07194717,35.437037 4.61886792,35.437037 L23.0943396,35.437037 C25.6412604,35.437037 27.7132075,33.3635852 27.7132075,30.8148148 L27.7132075,12.3259259 C27.7132075,9.77715556 25.6412604,7.7037037 23.0943396,7.7037037 Z M24.6339623,30.8148148 C24.6339623,31.6641481 23.9438264,32.3555556 23.0943396,32.3555556 L4.61886792,32.3555556 C3.76938113,32.3555556 3.07924528,31.6641481 3.07924528,30.8148148 L3.07924528,12.3259259 C3.07924528,11.4765926 3.76938113,10.7851852 4.61886792,10.7851852 L23.0943396,10.7851852 C23.9438264,10.7851852 24.6339623,11.4765926 24.6339623,12.3259259 L24.6339623,30.8148148 Z" id="Shape" fill="#8bc73d" fill-rule="nonzero"></path>
              <path d="M18.0608555,22.2593105 L10.9301849,25.827235 C10.5496938,26.0176187 10.0869083,25.8635062 9.8965246,25.4830151 C9.84297465,25.3759929 9.81509434,25.2579667 9.81509434,25.1382949 L9.81509434,18.0024459 C9.81509434,17.5769821 10.1600009,17.2320755 10.5854647,17.2320755 C10.7051365,17.2320755 10.8231627,17.2599558 10.9301849,17.3135057 L18.0608555,20.8814303 C18.4413467,21.071814 18.5954592,21.5345995 18.4050754,21.9150906 C18.3305567,22.0640198 18.2097847,22.1847918 18.0608555,22.2593105 Z" id="Triangle" stroke="#8bc73d" stroke-width="2.11851852"></path>
              <path d="M87.7584906,0 L69.2830189,0 C66.7360981,0 64.6641509,2.07345185 64.6641509,4.62222222 L64.6641509,23.1111111 C64.6641509,25.6598815 66.7360981,27.7333333 69.2830189,27.7333333 L87.7584906,27.7333333 C90.3054113,27.7333333 92.3773585,25.6598815 92.3773585,23.1111111 L92.3773585,4.62222222 C92.3773585,2.07345185 90.3054113,0 87.7584906,0 Z M89.2981132,23.1111111 C89.2981132,23.9604444 88.6079774,24.6518519 87.7584906,24.6518519 L69.2830189,24.6518519 C68.4335321,24.6518519 67.7433962,23.9604444 67.7433962,23.1111111 L67.7433962,15.4074074 L70.9783358,15.4074074 C71.693683,18.9191407 74.8035283,21.5703704 78.5207547,21.5703704 C82.2379811,21.5703704 85.3478264,18.9191407 86.0631736,15.4074074 L89.2981132,15.4074074 L89.2981132,23.1111111 Z M73.9018868,13.8666667 C73.9018868,11.3178963 75.973834,9.24444444 78.5207547,9.24444444 C81.0676755,9.24444444 83.1396226,11.3178963 83.1396226,13.8666667 C83.1396226,16.415437 81.0676755,18.4888889 78.5207547,18.4888889 C75.973834,18.4888889 73.9018868,16.415437 73.9018868,13.8666667 Z M89.2981132,12.3259259 L86.0631736,12.3259259 C85.3478264,8.81419259 82.2379811,6.16296296 78.5207547,6.16296296 C74.8035283,6.16296296 71.693683,8.81419259 70.9783358,12.3259259 L67.7433962,12.3259259 L67.7433962,4.62222222 C67.7433962,3.77288889 68.4335321,3.08148148 69.2830189,3.08148148 L87.7584906,3.08148148 C88.6079774,3.08148148 89.2981132,3.77288889 89.2981132,4.62222222 L89.2981132,12.3259259 Z" id="Shape" fill="#8bc73d" fill-rule="nonzero"></path>
              <rect id="Rectangle-path" fill="#8bc73d" fill-rule="nonzero" x="44.6490566" y="63.1703704" width="3.07924528" height="3.08148148"></rect>
            </g>
          </g>
        </g>
      </g>
    </g>
  </g>
</svg>
