<svg width="152" height="130" xmlns="http://www.w3.org/2000/svg"><g transform="translate(-1)" fill="none" fill-rule="evenodd"><g fill="#9013FE"><path d="M11.135 60.667h3.712v23.11h-3.712z"/><path d="M24.546 70.367v3.712H1.436v-3.712z"/></g><g fill="#9013FE"><path d="M110.11 115.556h2.063V130h-2.062z"/><path d="M118.363 121.747v2.062H103.92v-2.062z"/></g><ellipse fill="#9013FE" cx="145.783" cy="91" rx="7.217" ry="7.222"/><ellipse stroke="#9013FE" stroke-width="5.778" cx="17.321" cy="8.667" rx="5.774" ry="5.778"/><ellipse fill="#9013FE" cx="135.679" cy="5.778" rx="5.774" ry="5.778"/><g fill-rule="nonzero"><path d="M126.88 35.399v-3.065h-13.827c-.849 0-1.537.686-1.537 1.532v2.642h-13.52c.321-.814.488-1.68.493-2.555v-2.539c0-.846-.688-1.533-1.536-1.533h-21.77c-.407 0-.798.162-1.086.45l-6.192 6.176h-17.9v-2.64c0-.847-.687-1.533-1.536-1.533H34.642v3.065h12.29v27.586h-12.29v3.065h13.827c.849 0 1.537-.686 1.537-1.533v-3.49h5.89l.154.153-2.33 2.324a1.53 1.53 0 0 0 0 2.167l21.276 21.222a1.54 1.54 0 0 0 2.172 0l2.49-2.487a5.825 5.825 0 0 0 7.057-.92l15.148-15.11a5.852 5.852 0 0 0 .76-7.347h8.84v3.488c0 .847.688 1.533 1.536 1.533h13.828v-3.065h-12.292l.054-27.586h12.292zM76.083 83.642l-3.216-3.207 3.38-3.372-2.172-2.167-3.38 3.372-3.073-3.066 3.39-3.38-2.173-2.167-3.39 3.371-3.073-3.065 3.399-3.39-2.172-2.167-3.394 3.404-3.235-3.219 6.453-6.436a2.81 2.81 0 0 1 3.961 0l15.148 15.11a2.787 2.787 0 0 1 0 3.95l-6.453 6.43zm23.61-17.434l-15.149 15.11a2.8 2.8 0 0 1-2.544.757l2.702-2.692a5.844 5.844 0 0 0 .004-8.279l-.004-.004-15.147-15.111a5.892 5.892 0 0 0-8.306 0L58.218 59l-.6-.596a1.538 1.538 0 0 0-1.086-.449h-6.526v-18.39l18.535.005c.408 0 .798-.161 1.086-.449l6.19-6.174h19.604v1.005a4.097 4.097 0 0 1-4.096 4.087h-7.69a.807.807 0 0 0-.441-.064c-.408 0-.798.162-1.086.449l-12.232 12.2a1.53 1.53 0 0 0 0 2.166l4.854 4.842a4.618 4.618 0 0 0 6.517 0l6.903-6.886 11.542 11.512a2.792 2.792 0 0 1 0 3.95zm11.783-8.247H99.73L89.237 47.494a1.54 1.54 0 0 0-2.173 0l-7.99 7.969a1.54 1.54 0 0 1-2.172 0l-3.767-3.758 10.63-10.602h7.56a7.108 7.108 0 0 0 4.38-1.533h15.805l-.035 18.391z" fill="#9013FE"/><path d="M79.648 87.955l-3.523 3.514-3.523-3.514-2.173 2.167 4.61 4.598a1.54 1.54 0 0 0 2.172 0l4.61-4.598-2.173-2.167zm7.682-1.521l7.681-7.68 2.167 2.166-7.68 7.681zM73.052 23.138c-.407 0-.798.162-1.086.45l-6.146 6.13 2.173 2.166 5.695-5.68h5.51v-3.066h-6.146z" fill="#C27DFF"/></g></g></svg>