<svg width="152" height="130" xmlns="http://www.w3.org/2000/svg"><g transform="translate(-1)" fill="none" fill-rule="evenodd"><g fill="#9013FE"><path d="M11.135 60.667h3.712v23.11h-3.712z"/><path d="M24.546 70.367v3.712H1.436v-3.712z"/></g><g fill="#9013FE"><path d="M110.11 115.556h2.063V130h-2.062z"/><path d="M118.363 121.747v2.062H103.92v-2.062z"/></g><ellipse fill="#9013FE" cx="145.783" cy="91" rx="7.217" ry="7.222"/><ellipse stroke="#9013FE" stroke-width="5.778" cx="17.321" cy="8.667" rx="5.774" ry="5.778"/><ellipse fill="#9013FE" cx="135.679" cy="5.778" rx="5.774" ry="5.778"/><path fill="#9013FE" fill-rule="nonzero" d="M65.434 22.148h30.792v3.081H65.434zm45.419 50.074a5.397 5.397 0 0 0-5.389-5.392h-3.08V45.26h-3.078v21.57h-3.85a5.397 5.397 0 0 0-5.388 5.392 5.37 5.37 0 0 0 1.63 3.852 5.373 5.373 0 0 0-1.63 3.852 5.34 5.34 0 0 0 .82 2.825c-1.842.858-3.13 2.715-3.13 4.879 0 .83.205 1.608.541 2.31H76.211c0-4.71-2.359-8.88-5.957-11.386 3.48-1.327 5.957-4.7 5.957-8.643 0-.85-.688-1.54-1.54-1.54H62.356V52.962h-3.08V68.37a4.626 4.626 0 0 0-4.618 4.623v33.896h3.079V72.993c0-.85.69-1.541 1.54-1.541h13.66c-.684 2.655-3.098 4.622-5.962 4.622h-4.62a1.54 1.54 0 0 0 0 3.082c5.943 0 10.778 4.838 10.778 10.785v1.54a1.54 1.54 0 0 0 1.54 1.541h9.008a5.333 5.333 0 0 0-.54 2.311 5.397 5.397 0 0 0 5.388 5.393v6.163h3.08v-6.163h6.927a5.397 5.397 0 0 0 5.389-5.393c0-.839-.21-1.624-.553-2.333 2.869-.117 5.171-2.472 5.171-5.37a5.342 5.342 0 0 0-.82-2.825c1.843-.859 3.13-2.716 3.13-4.88a5.365 5.365 0 0 0-1.63-3.85 5.373 5.373 0 0 0 1.63-3.853zM98.536 97.644H88.528a2.313 2.313 0 0 1-2.31-2.31 2.313 2.313 0 0 1 2.31-2.312h10.008a2.313 2.313 0 0 1 2.31 2.311 2.313 2.313 0 0 1-2.31 2.311zm4.619-7.703H93.147a2.313 2.313 0 0 1-2.31-2.311 2.313 2.313 0 0 1 2.31-2.311h10.008a2.313 2.313 0 0 1 2.31 2.31 2.313 2.313 0 0 1-2.31 2.312zm2.31-7.704H95.456a2.313 2.313 0 0 1-2.31-2.311 2.313 2.313 0 0 1 2.31-2.311h10.007a2.313 2.313 0 0 1 2.31 2.31 2.313 2.313 0 0 1-2.31 2.312zm0-7.704H95.456a2.313 2.313 0 0 1-2.31-2.31 2.313 2.313 0 0 1 2.31-2.312h10.007a2.313 2.313 0 0 1 2.31 2.311 2.313 2.313 0 0 1-2.31 2.311z"/><path d="M85.45 40.637v-3.081h-4.62c-.85 0-1.54.69-1.54 1.54v4.623h-3.079V46.8h3.08v6.163h3.079V46.8h3.08v-3.081h-3.08v-3.082h3.08z" fill="#C27DFF" fill-rule="nonzero"/><path d="M90.068 31.393H71.592a4.626 4.626 0 0 0-4.618 4.622v18.489a4.626 4.626 0 0 0 4.618 4.622h18.476a4.626 4.626 0 0 0 4.619-4.622v-18.49a4.626 4.626 0 0 0-4.62-4.621zm1.54 23.11c0 .85-.69 1.541-1.54 1.541H71.592c-.849 0-1.54-.691-1.54-1.54v-18.49c0-.849.691-1.54 1.54-1.54h18.476c.85 0 1.54.691 1.54 1.54v18.49zM57.736 22.148H39.26a4.626 4.626 0 0 0-4.618 4.622v18.49a4.626 4.626 0 0 0 4.618 4.621h18.476a4.626 4.626 0 0 0 4.619-4.622V26.77a4.626 4.626 0 0 0-4.62-4.622zm1.54 23.111c0 .85-.69 1.541-1.54 1.541H39.26c-.85 0-1.54-.691-1.54-1.54V26.77c0-.849.69-1.54 1.54-1.54h18.476c.85 0 1.54.691 1.54 1.54v18.49z" fill="#C27DFF" fill-rule="nonzero"/><path d="M52.702 36.704l-7.13 3.568a.77.77 0 0 1-1.115-.69v-7.135a.77.77 0 0 1 1.115-.69l7.13 3.569a.77.77 0 0 1 0 1.378z" stroke="#C27DFF" stroke-width="2.119"/><path d="M122.4 14.444h-18.475a4.626 4.626 0 0 0-4.62 4.623v18.489a4.626 4.626 0 0 0 4.62 4.622H122.4a4.626 4.626 0 0 0 4.619-4.622v-18.49a4.626 4.626 0 0 0-4.619-4.622zm1.54 23.112c0 .849-.69 1.54-1.54 1.54h-18.475c-.85 0-1.54-.691-1.54-1.54v-7.704h3.235c.715 3.512 3.825 6.163 7.542 6.163 3.717 0 6.827-2.651 7.543-6.163h3.235v7.704zm-15.397-9.245a4.626 4.626 0 0 1 4.62-4.622 4.626 4.626 0 0 1 4.618 4.622 4.626 4.626 0 0 1-4.619 4.622 4.626 4.626 0 0 1-4.619-4.622zm15.397-1.54h-3.235c-.716-3.512-3.826-6.164-7.543-6.164s-6.827 2.652-7.542 6.163h-3.235v-7.703c0-.85.69-1.541 1.54-1.541H122.4c.85 0 1.54.691 1.54 1.54v7.704zM79.29 77.614h3.08v3.081h-3.08z" fill="#C27DFF" fill-rule="nonzero"/></g></svg>