<svg xmlns="http://www.w3.org/2000/svg" xmlns:xlink="http://www.w3.org/1999/xlink" width="141" height="141"><defs><path id="a" d="M314.26 69.72c0-14-11.67-25.45-25.92-25.45-14.26 0-25.93 11.46-25.93 25.45 0 9.1 4.82 16.92 12.04 21.46 1.66 2 2.77 4.55 2.77 7.09v.55h22.23v-.19c0-2.73.92-5.27 2.59-7.27a25.32 25.32 0 0 0 12.22-21.64z"/><path id="c" d="M224 76.5a64.5 64.5 0 1 1 129.01 0 64.5 64.5 0 0 1-129.01 0z"/><path id="e" d="M235.83 78.1A25.38 25.38 0 0 1 224 70.4a67.23 67.23 0 0 0 67.1 70.8c27.75 0 46.6-16.84 56.86-40.87-14.91-.25-24.73-1.83-38.48-8.25-14.15-6.69-31.97-21.1-43.53-18.07-10.83 4.17-21.14 6.74-30.13 4.08z"/><path id="g" d="M224.4 69.42c-.06 1.2-.41 5.87-.41 7.08 0 36.3 26.64 64.5 64.5 64.5 11.8 0 23.06-3.68 32.75-8.93-17.12-1.16-33.2-5.22-48.32-15.4-13.31-8.98-23.29-23.43-24.5-38.98-10.3 1.83-16.32.29-24.01-8.27z"/><path id="j" d="M292.03 113.36h-7.4a7.36 7.36 0 0 1-7.41-7.27V97h22.22v9.1c0 3.99-3.33 7.26-7.4 7.26"/><path id="k" d="M299.44 98.82v3.64l-22.22 3.09v-3.64zm0 7.27c0 1.46-.37 2.73-1.11 3.82l-17.4 2.36c-1.3-.72-2.42-2-2.97-3.27zm-5.92 7.1a5.37 5.37 0 0 1-5.19 3.81 5.37 5.37 0 0 1-5.19-3.82c.37.19.93.19 1.49.19h7.4c.56 0 1.12 0 1.49-.19z"/><path id="l" d="M300.56 66.46L295 62.82a2.05 2.05 0 0 0-2.04 0l-4.63 2.91-4.44-2.9a2.05 2.05 0 0 0-2.04 0l-5.55 3.63c-.37.36-.74.73-.74 1.27 0 .55 0 1.1.37 1.46l7.04 8.54V97h3.7V77c0-.36-.19-.72-.38-1.09l-6.1-7.45 2.78-1.82 4.44 2.9c.56.38 1.48.38 2.04 0l4.44-2.9 2.78 1.82-6.11 7.45c-.19.37-.37.73-.37 1.1v20h3.7V77.72l7.04-8.54c.37-.37.56-.91.37-1.46-.19-.54-.37-1.09-.74-1.27z"/><linearGradient id="b" x1="353.01" x2="224" y1="76.5" y2="76.51" gradientUnits="userSpaceOnUse"><stop offset="0" stop-color="#3c285f"/><stop offset="1" stop-color="#2b1c44"/></linearGradient><linearGradient id="d" x1="285.94" x2="285.94" y1="141.21" y2="70.41" gradientUnits="userSpaceOnUse"><stop offset="0" stop-color="#3c285f"/><stop offset="1" stop-color="#2b1c44"/></linearGradient><linearGradient id="f" x1="223.99" x2="321.24" y1="105.22" y2="105.22" gradientUnits="userSpaceOnUse"><stop offset="0" stop-color="#4d3675"/><stop offset="1" stop-color="#34136a"/></linearGradient><mask id="i" width="2.11" height="2.11" x="-1.06" y="-1.05"><path fill="#fff" d="M259 41h59v61h-59z"/><use xlink:href="#a"/></mask><filter id="h" width="87" height="89" x="245" y="27" filterUnits="userSpaceOnUse"><feOffset in="SourceGraphic" result="FeOffset1053Out"/><feGaussianBlur in="FeOffset1053Out" result="FeGaussianBlur1054Out" stdDeviation="1.6 1.6"/></filter></defs><use fill="url(#b)" xlink:href="#c" transform="translate(-218 -10)"/><use fill="url(#d)" xlink:href="#e" transform="translate(-218 -10)"/><use fill="url(#f)" xlink:href="#g" transform="translate(-218 -10)"/><g transform="translate(-218 -10)"><g filter="url(#h)"><use fill="none" stroke="#ba8d1b" stroke-width="6" mask="url(&quot;#i&quot;)" xlink:href="#a"/><use fill="#ba8d1b" xlink:href="#a"/></g><use fill="#fbc02d" xlink:href="#a"/></g><use fill="#9fa8da" xlink:href="#j" transform="translate(-218 -10)"/><use fill="#5c6bc0" xlink:href="#k" transform="translate(-218 -10)"/><use fill="#fff59d" xlink:href="#l" transform="translate(-218 -10)"/></svg>