<svg version="1.1" id="Graphics" xmlns="http://www.w3.org/2000/svg" x="0" y="0" viewBox="0 0 364.8 216.6" xml:space="preserve"><style>.st0{fill:#00c9a7}.st1{opacity:.2}.st2{fill:#191c3c}.st3{opacity:8.000000e-02;fill:#f5f7f9;enable-background:new}.st4{fill:#ffc107}.st5{fill:none;stroke:#191c3c;stroke-miterlimit:10}.st7{fill:#fec55e}.st9{opacity:.3;fill:#191c3c;enable-background:new}.st10{fill:#377dff}.st11{fill:#474963}.st12{fill:#d9e7ed}.st13{opacity:.2;fill:#3a3c4e;enable-background:new}.st18{fill:#dd9c3e}.st21{display:none}.st22{display:inline}.st22,.st23{fill:#2d1582}.st24,.st25{display:inline;fill:#ffc107}.st25{fill:#de4437}.st28,.st30{display:none;fill:#ffc107}.st30{fill:#377dff}</style><g id="Layer_9"><path class="st0" d="M305.1 194.9s-.4-.8 0 0zm6.7 7c7.5-7.1 13.9-15.7 16.8-25.6 3-9.9 2.2-21.2-3.6-29.8-13.2 12.2-20.7 30.4-19.9 48.3-.2 2.6-.4 10.2.8 12.4.3.6 2.3-1.1 3.9-2.6.5-.5 1.5-2.2 2-2.7z"/><g class="st1"><path class="st2" d="M309.8 204.6c.5-.5 1.5-2.2 2-2.7 7.5-7.1 13.9-15.7 16.8-25.6 1.4-4.8 2-9.8 1.5-14.8-.2 5.7-1.8 11.4-4.5 16.4-4.7 8.9-12.3 16-20.7 21.5 0 3 .2 6.4 1 7.7.4.7 2.3-1 3.9-2.5z"/></g><path class="st0" d="M327.3 210.6c-4.2 1.4-10.3 3.3-14.3 1.5-3.2-1.4-7.7-3.9-7-7.1 3.5-2.6 10.6-8 13.4-11.4 2.3-2.8 4.8-7.3 7.3-10 6.3-6.9 14.7-9.5 23.3-13.2-.8 7-2.1 13.9-4.2 20.7-1.3 4.4-3 8.9-6.1 12.3-3.2 3.6-7.8 5.7-12.4 7.2z"/><path class="st3" d="M319.1 195.5c2.8-2.4 6-6.3 8.9-8.5 6.2-4.7 13.3-6.2 20.7-7.9.5-2.9 1-5.7 1.3-8.6-8.6 3.7-17 6.3-23.3 13.2-2.5 2.7-5 7.1-7.3 10-1.3 1.6-3.7 3.7-6.1 5.7 2.3-1.3 4.4-2.7 5.8-3.9z"/><path class="st0" d="M349.4 214.4c-6.4 2.3-13.5 2.2-20.3 2-2.6-.1-6.9.6-9.4-.1-2.1-.5-4.1-2-5.9-3.2-1.5-1.1.3-2.4 1.8-3.4 1.4-.9 3.9-2.5 3.3-1.7 4-1.1 6.5-1.7 10.5-2.8 3.1-1 6.2-2 9.4-2.5 7.9-1.3 15.9.4 23.7 2-3.3 4.4-7.9 7.8-13.1 9.7z"/><path class="st2" d="M323.6 151.6c.2 9-.1 17.7-2.7 26.3-2.4 8.1-6.4 15.6-11.5 22.2-.3.4.3.7.6.4a68.1 68.1 0 0 0 11.5-22.4c2.6-8.7 2.8-17.5 2.4-26.5-.1-.1-.3-.1-.3 0zm23.7 21.8c-3.5 7.2-8 13.7-13.7 19.4-6.1 6.1-13.3 10.1-20.5 14.7-.2.1 0 .5.2.3 14.8-7.7 27.4-18.7 34.1-34.3.1-.1 0-.2-.1-.1zm12.2 31.7c-14 4.5-27.4 9.9-42.4 6.5-.3-.1-.4.4-.1.5 14.2 3.1 29.6-1 42.6-6.9l-.1-.1z"/><path class="st2" d="M318.6 158c1 1 2 1.9 2.8 3s1.4 2.3 2.1 3.5c.1.1.2 0 .2-.1-.9-2.5-2.9-5-5.1-6.4 0-.1-.1-.1 0 0zm-3.6 7.1c4.5 2.6 5.8 6.2 6.3 11.1 0 .4.6.3.5-.1-.6-4.6-2-9.3-6.8-11-.1-.1-.1 0 0 0zm-.7 9c2.2 2.9 5.6 5.9 4.5 9.9-.1.2.3.3.3.1 1.1-4-2.2-7.3-4.7-10.1-.1-.1-.2 0-.1.1zm-4.8 8.7c3.3 2.7 6.4 6.6 4 11-.1.3.2.5.4.2 2.4-4.4-.5-9-4.3-11.3-.1 0-.2 0-.1.1zm19.7-20.3c-2.9.6-4.6 3-6.2 5.3-.1.2.2.3.3.2 1.5-2.3 3.1-4.5 5.9-5.3.1 0 .1-.2 0-.2zm-.7 9.5c-2.8 1-5.2 2.8-7.2 4.9-.2.2.1.4.3.3 1.9-2.3 4.3-3.8 6.9-5.2 0 0 0-.1 0 0z"/><path class="st2" d="M325.2 179.9c-1.4.5-2.5 1.1-3.7 2-.8.6-2.4 1.6-2.8 2.6 0 .1 0 .2.1.2l.1.1c.1.1.3.1.4 0l.1-.1c.1-.1 0-.2 0-.3l-.1-.1c-.1-.1-.2-.1-.3.1-.1.3 1.5-1 1.5-1 .4-.4.9-.8 1.3-1.2 1.1-.9 2.2-1.6 3.4-2.2.1 0 .1-.1 0-.1zm-3.4 6.6c-3 1.7-5.7 4.4-7.9 7.1-.3.3.2.8.5.5 2.3-2.8 4.8-5 7.5-7.4.1 0 0-.2-.1-.2zm16.1-9c.3 5 0 9.3-2.8 13.6-.2.3.3.6.5.3 2.6-3.8 4.1-9.4 2.6-13.9-.1-.2-.3-.2-.3 0zm-8.4 7.7c0 2.4 0 4.7-.6 7-.5 2.1-1.3 4.2-2.1 6.2-.1.3.3.4.4.1 1.6-4.2 3.4-8.9 2.3-13.3.1-.1 0-.1 0 0zm-7.4 9.1c-.1 1.7-.3 3.3-.6 5-.4 1.9-1.3 3.1-2.8 4.4-.2.2.1.5.3.3 1.4-1.2 2.4-2.3 2.8-4.1s.6-3.8.5-5.6c0-.1-.2-.1-.2 0z"/><path class="st2" d="M343.5 187.8c-1.8.1-3.6 1-5.3 1.7-1 .4-2.9.9-3.1 2.1 0 .1.1.2.2.1 2-2.3 5.7-2.4 8.2-3.8.1 0 .1-.2 0-.1zm-2.3 7.4c-5 .4-9.9 1.9-14.5 3.6-.2.1-.1.5.1.4 4.8-1.7 9.5-2.7 14.5-3.8 0 0 0-.2-.1-.2zm-10.5 7.9c-4.2-.1-8.5 1-12.7 1.6-.3 0-.2.5.1.5 4.2-.7 8.4-1.3 12.6-1.8.1-.1.1-.3 0-.3zm20.9.4c-3.4 2.9-7 5.3-11.1 7.2-.3.2-.1.7.3.5 4.1-1.9 7.9-4.3 11.1-7.5.1-.1-.1-.3-.3-.2z"/><path class="st2" d="M350.8 213.2c-3.2-1.5-7.2-1.8-10.7-2-.3 0-.3.5 0 .5 2 .1 4 .4 5.9.7 1.6.3 3.1.8 4.7 1 .1 0 .2-.2.1-.2zm-12.1-5.6c-3.5 2.2-7 3.5-10.8 5-.1 0 0 .2.1.2 3.8-.5 7.9-2.6 10.8-5.1.1 0 0-.2-.1-.1zm-10.9 5.5c2.4 1 4.8 1.8 7.1 3.2.2.1.4-.2.2-.3-2.2-1.4-4.8-2.7-7.3-2.9-.1-.2-.1-.1 0 0z"/><path class="st4" d="M355.1 194.7c-.1 0-.2.1-.2.1-2.4 1.1-3.6.9-5.9-.1-2.1-1-4.2-2.1-5.9-3.7-2.2-2-3.9-4.6-4.3-7.5-.1-.7-.1-1.4.3-1.9.5-.7 1.6-.8 2.5-.5.8.3 1.5 1 2.2 1.6.3.3.6.5 1 .6s.8 0 1-.3c.3-.5-.2-1.2-.7-1.6-1.1-.9-2.1-1.4-3.3-2.3-1.4-1-2.8-2.3-3.6-3.8-.8-1.6-1-3.5-.1-5.1.3-.5.6-.9 1.1-1.2.8-.5 1.8-.5 2.8-.3.9.2 1.8.6 2.8.7 2.2.2 3.1-1.3 3.1-3.4 0-1.4-.5-2.7-.6-4.1-.1-2.4 1.1-5 3.3-6.1 2.2-1 5.3 0 6.1 2.3.9 2.5-1.1 5.3.2 7.7.4.8 1.4 1.9 2.1 2.3 1.2.8 3-.1 4.4-.1.3 0 .7.1.9.3.2.2.2.4.3.6.3 1.7-.3 3.6-1.6 4.8-1.5 1.4-4.1 2-4.7 4.2-.4 1.3-.2 4.6 1.9 4.3.8-.1 1.3-.9 2.1-1.2.9-.3 2 .3 2.4 1.2s.3 2-.1 2.9c-.6 1.4-1.7 2.6-2.8 3.7-2.3 2.3-3.8 4.5-6.7 5.9z"/><path class="st5" d="M352 164.2v51m5.9-42.2l-5.9 5.9-6-5.9m11.9 11.9l-5.9 5.9-6-5.9"/><path class="st4" d="M39 144.2c-.1 0-.2.1-.2.1-2.5 1.2-3.8 1-6.2-.1-2.2-1-4.4-2.2-6.2-3.9-2.3-2.1-4.1-4.8-4.5-7.9-.1-.7-.1-1.4.3-2 .6-.8 1.7-.9 2.6-.5.9.3 1.6 1 2.3 1.7.3.3.6.5 1 .7.4.1.9 0 1.1-.4.3-.6-.2-1.2-.7-1.6-1.2-1-2.2-1.5-3.4-2.4-1.5-1.1-2.9-2.4-3.8-4-.8-1.7-1-3.7-.2-5.4.3-.5.6-1 1.1-1.3.8-.5 1.9-.5 2.9-.3s1.9.6 2.9.7c2.4.2 3.3-1.4 3.2-3.6 0-1.5-.5-2.9-.6-4.3-.1-2.6 1.1-5.3 3.4-6.4s5.6 0 6.4 2.4c.9 2.6-1.2 5.6.2 8.1.4.8 1.4 1.9 2.2 2.4 1.3.8 3.2-.1 4.7-.1.3 0 .7.1.9.3.2.2.2.4.3.7.4 1.8-.3 3.8-1.7 5.1-1.6 1.4-4.3 2.1-4.9 4.4-.4 1.4-.2 4.8 2 4.5.8-.1 1.4-.9 2.2-1.2 1-.3 2.1.3 2.5 1.3.4.9.3 2-.1 3-.6 1.5-1.8 2.7-2.9 3.9-2.2 2.2-3.7 4.5-6.8 6.1z"/><path class="st5" d="M35.8 112.1v89.6m6.2-80.3l-6.2 6.2-6.3-6.2M42 133.9l-6.2 6.2-6.3-6.2"/><path d="M14.8 170.1c-.1 0-.1.1-.2.1-2 .9-3 .8-5-.1-1.8-.8-3.5-1.8-5-3.1-1.9-1.6-3.3-3.9-3.6-6.3 0-.6 0-1.3.3-1.7.5-.6 1.4-.7 2.1-.4s1.3.8 1.8 1.3c.2.2.5.4.8.5s.7 0 .9-.3c.3-.5-.2-1-.6-1.3-.9-.8-1.8-1.2-2.8-1.9-1.2-.9-2.3-1.9-3-3.2s-.8-3-.1-4.3c.2-.4.5-.8.9-1 .7-.4 1.6-.4 2.3-.2.8.2 1.5.5 2.3.6 1.9.2 2.6-1.1 2.6-2.9 0-1.2-.4-2.3-.5-3.5-.1-2 .9-4.2 2.7-5.1 1.9-.9 4.5 0 5.1 1.9.7 2.1-.9 4.5.2 6.5.4.7 1.2 1.6 1.8 2 1 .6 2.5-.1 3.7-.1.3 0 .6 0 .7.2.1.1.2.3.2.5.3 1.5-.2 3.1-1.4 4.1-1.2 1.1-3.4 1.7-3.9 3.5-.3 1.1-.2 3.9 1.6 3.6.7-.1 1.1-.8 1.7-1 .8-.3 1.7.3 2 1 .4.7.2 1.6-.1 2.4-.5 1.2-1.4 2.2-2.3 3.1-1.5 2-2.7 3.8-5.2 5.1z" fill="#63c98c"/><path class="st5" d="M12.2 144.4v71.8m5-64.4l-5 5-5-5m10 10l-5 5-5-5"/><path class="st0" d="M53 215.6c.1 0-.8.4 0 0zm7.2-7.1c-7.5-7.7-16.5-14.3-26.8-17.2-10.3-3-22.1-2-31 4.1C15.3 209 34.3 216.6 53 215.6c2.7.2 10.6.3 12.9-1 .6-.4-1.2-2.4-2.8-4-.5-.5-2.4-1.6-2.9-2.1z"/><g class="st1"><path class="st2" d="M63.1 210.6c-.5-.5-2.3-1.6-2.8-2.1-7.5-7.7-16.5-14.3-26.8-17.2-5-1.4-10.3-1.9-15.4-1.4 5.9.2 11.9 1.8 17.2 4.5 9.4 4.8 16.8 12.6 22.7 21.4 3.1 0 6.7-.3 8-1.1.5-.5-1.4-2.5-2.9-4.1z"/></g><path class="st0" d="M69.2 192.2c1.5 4.3 3.5 10.7 1.7 14.9-1.4 3.3-4 8.1-7.3 7.4-2.8-3.6-8.4-11-12-13.9-3-2.4-7.6-4.9-10.5-7.5-7.2-6.5-10-15.3-14-24.1 7.3.7 14.5 2.1 21.6 4.1 4.6 1.3 9.3 3 12.8 6.2 3.8 3.4 6 8.2 7.7 12.9z"/><path class="st3" d="M53.5 201c-2.5-2.9-6.7-6.2-9-9.2-4.9-6.4-6.6-13.7-8.4-21.5-3-.5-6-.9-9-1.2 4 8.9 6.8 17.6 14 24.1 2.8 2.6 7.5 5.1 10.5 7.5 1.7 1.4 3.9 3.8 6 6.3-1.4-2.4-2.8-4.6-4.1-6z"/><path class="st0" d="M72.8 169.2c2.5 6.7 2.4 14 2.4 21.1 0 2.7.7 7.2 0 9.8-.5 2.2-2 4.3-3.3 6.1-1.2 1.6-2.5-.3-3.6-1.9-.9-1.5-2.6-4.1-1.8-3.5-1.2-4.1-1.9-6.7-3-10.9-1.1-3.2-2.1-6.4-2.7-9.7-1.4-8.2.2-16.5 1.8-24.7 4.6 3.5 8.2 8.3 10.2 13.7z"/><path class="st2" d="M7.7 196.8c9.3-.3 18.4 0 27.4 2.5 8.5 2.4 16.3 6.5 23.3 11.8.4.3.7-.3.4-.6-7-5.3-15-9.3-23.5-11.7-9.1-2.6-18.2-2.7-27.6-2.2-.1-.1-.2.2 0 .2zm22.5-25c7.5 3.6 14.4 8.2 20.3 14 6.4 6.3 10.7 13.8 15.5 21.2.1.2.5 0 .3-.2-8.2-15.4-19.8-28.3-36.1-35.2-.1 0-.2.2 0 .2zm32.9-13c4.9 14.5 10.6 28.5 7.3 44.1-.1.3.4.5.5.1 3.1-14.9-1.4-30.8-7.7-44.3 0 0-.2.1-.1.1z"/><path class="st2" d="M14.4 202c1-1 2-2.1 3.1-2.9 1.2-.9 2.4-1.5 3.7-2.2.1-.1 0-.2-.1-.2-2.6.8-5.3 2.9-6.7 5.3-.1 0 0 0 0 0zm7.5 3.7c2.6-4.7 6.4-6.1 11.5-6.7.4 0 .3-.6-.1-.5-4.8.6-9.7 2-11.4 7.2-.1 0 0 0 0 0zm9.3.6c3-2.3 6-5.9 10.2-4.8.2.1.3-.3.1-.3-4.2-1.1-7.6 2.4-10.4 5-.1 0 0 .1.1.1zm9.2 4.9c2.8-3.5 6.8-6.7 11.4-4.3.3.1.5-.3.2-.4-4.6-2.4-9.3.6-11.8 4.6 0 .1.1.1.2.1zM19 190.8c.6 3 3.2 4.8 5.6 6.4.2.1.3-.2.2-.3-2.4-1.6-4.8-3.2-5.6-6.1 0-.1-.2-.1-.2 0zm9.9.7c1.1 2.9 3 5.4 5.2 7.5.2.2.5-.1.3-.3-2.4-2.1-4-4.5-5.5-7.2 0-.1-.1 0 0 0z"/><path class="st2" d="M37.2 194.8c.5 1.4 1.2 2.6 2.1 3.8.7.9 1.7 2.5 2.7 2.9.1 0 .2 0 .3-.1l.1-.1c.1-.1.1-.3-.1-.4l-.1-.1c-.1-.1-.2 0-.3 0l-.1.1c-.1.1-.1.2.1.3.4.1-1.1-1.6-1.1-1.6-.4-.5-.8-.9-1.2-1.4-.9-1.1-1.7-2.3-2.3-3.6 0 .1-.1.1-.1.2zm6.9 3.5c1.8 3.1 4.7 5.9 7.5 8.1.3.3.8-.2.5-.5-3-2.3-5.3-5-7.8-7.8-.1-.1-.2.1-.2.2zm-9.6-16.7c5.2-.3 9.7-.1 14.2 2.8.3.2.6-.3.3-.5-4-2.6-9.8-4.2-14.6-2.6-.1.1-.1.3.1.3zm8.1 8.7c2.5 0 4.9-.1 7.3.5 2.2.5 4.3 1.3 6.5 2.1.3.1.4-.3.1-.5-4.4-1.6-9.3-3.5-14-2.3 0 .1 0 .2.1.2zm9.6 7.6c1.7.1 3.5.3 5.2.6 2 .4 3.3 1.4 4.6 2.9.2.2.6-.1.4-.4-1.2-1.4-2.4-2.4-4.3-2.9-1.9-.4-3.9-.5-5.9-.4-.1 0-.1.2 0 .2z"/><path class="st2" d="M45.1 175.6c.1 1.9 1.1 3.8 1.8 5.5.5 1.1.9 3 2.3 3.2.1 0 .2-.1.1-.2-2.4-2-2.5-5.9-4.2-8.5.2-.1 0-.1 0 0zm7.8 2.4c.5 5.2 2.1 10.3 3.9 15.1.1.2.5.1.4-.1-1.9-4.9-2.9-9.9-4.1-15 0-.1-.2-.1-.2 0zm8.4 10.8c0 4.4 1.1 8.9 1.8 13.2.1.3.6.2.5-.1-.8-4.4-1.4-8.7-2.1-13.1 0-.1-.2-.1-.2 0zm.2-21.7c3.1 3.5 5.6 7.3 7.6 11.5.2.3.7.1.5-.3-2-4.3-4.6-8.1-7.9-11.5-.1-.2-.4.1-.2.3z"/><path class="st2" d="M71.6 167.8c-1.5 3.3-1.8 7.6-2 11.2 0 .3.5.3.5 0 .1-2.1.3-4.1.7-6.2.3-1.7.8-3.3 1-5 0 0-.2-.1-.2 0zm-5.7 12.6c2.3 3.6 3.8 7.2 5.4 11.2 0 .1.2 0 .2-.1-.6-4-2.8-8.2-5.4-11.2-.1-.1-.3 0-.2.1zm5.8 11.4c1-2.6 1.8-5.1 3.3-7.4.1-.2-.2-.4-.3-.2-1.4 2.2-2.8 4.9-3 7.6-.1 0 0 0 0 0z"/><path class="st0" d="M92.8 215.6c.1 0 .1 0 0 0 .9.4 0 0 0 0zm-9.6-4.8c-1.5 1.6-3.3 3.5-2.7 3.8 2.1 1.2 9.7 1.1 12.3 1 18 .9 36.2-6.4 48.5-19.4-8.5-5.8-19.8-6.7-29.7-3.9s-18.6 9.1-25.8 16.5c-.3.5-2.1 1.5-2.6 2z"/><g class="st1"><path class="st2" d="M83.2 210.8c.5-.5 2.2-1.5 2.7-2 7.2-7.4 15.8-13.7 25.8-16.5 4.8-1.4 9.8-1.9 14.8-1.4-5.7.2-11.4 1.7-16.5 4.3-9 4.6-16.2 12.1-21.8 20.5-3 0-6.4-.3-7.7-1-.6-.4 1.2-2.3 2.7-3.9z"/></g><path class="st0" d="M84.7 180.8c3.4-3.1 7.9-4.7 12.3-5.9 6.8-1.9 13.7-3.3 20.7-3.9-3.8 8.5-6.5 16.9-13.4 23.2-2.7 2.5-7.2 4.9-10.1 7.2-3.4 2.7-8.8 9.8-11.5 13.3-3.2.6-5.6-3.9-7-7.1-1.8-4 .2-10.2 1.6-14.3 1.6-4.7 3.8-9.2 7.4-12.5z"/><path class="st3" d="M92.4 201.6c2.4-2.8 6.4-5.9 8.6-8.8 4.8-6.1 6.4-13.2 8.1-20.6 2.9-.5 5.7-.9 8.6-1.2-3.8 8.5-6.5 16.9-13.4 23.2-2.7 2.5-7.2 4.9-10.1 7.2-1.6 1.3-3.7 3.6-5.8 6.1 1.4-2.4 2.8-4.6 4-5.9z"/><path class="st0" d="M83.6 158c1.5 7.8 3.1 15.8 1.7 23.7-.5 3.2-1.6 6.3-2.6 9.3-1.1 4-1.8 6.5-2.9 10.5.8-.6-.8 1.9-1.7 3.3-1 1.5-2.3 3.4-3.4 1.8-1.3-1.8-2.6-3.8-3.2-5.9-.6-2.5 0-6.8 0-9.4-.1-6.8-.1-13.9 2.3-20.3 2-5.1 5.4-9.7 9.8-13z"/><path class="st2" d="M136.4 197.5c-8.9-.3-17.7 0-26.3 2.4-8.1 2.3-15.6 6.2-22.4 11.3-.4.3-.7-.3-.3-.6 6.7-5.1 14.4-9 22.5-11.3 8.8-2.5 17.5-2.6 26.5-2.1.1.1.1.3 0 .3zm-21.6-23.9c-7.2 3.4-13.8 7.9-19.5 13.5-6.1 6-10.2 13.2-14.9 20.4-.1.2-.5 0-.3-.2 7.9-14.8 19-27.2 34.6-33.8.1-.1.2 0 .1.1zm-31.6-12.5c-4.7 14-10.2 27.3-7 42.3.1.3-.4.4-.5.1-3-14.3 1.3-29.6 7.5-42.4-.1-.1 0-.1 0 0z"/><path class="st2" d="M129.9 202.5c-1-1-1.9-2-3-2.8s-2.3-1.4-3.5-2.1c-.1-.1 0-.2.1-.2 2.5.8 5.1 2.9 6.4 5.1.1 0 .1.1 0 0zm-7.2 3.6c-2.5-4.5-6.1-5.9-11.1-6.4-.4 0-.3-.6.1-.5 4.7.5 9.4 1.9 11 6.9.1 0 .1 0 0 0zm-8.9.6c-2.8-2.2-5.8-5.6-9.8-4.6-.2.1-.3-.3-.1-.3 4-1.1 7.3 2.3 10 4.8.1 0 0 .1-.1.1zm-8.8 4.7c-2.7-3.4-6.5-6.5-11-4.1-.3.1-.5-.3-.2-.4 4.4-2.3 9 .6 11.3 4.4.1 0 0 .1-.1.1zm20.5-19.6c-.6 2.9-3.1 4.6-5.4 6.1-.2.1-.3-.2-.2-.3 2.3-1.5 4.6-3.1 5.3-5.9.2 0 .3 0 .3.1z"/><path class="st2" d="M116.1 192.5c-1 2.8-2.9 5.2-5 7.2-.2.2-.4-.1-.3-.3 2.2-2 3.8-4.3 5.3-6.9-.1-.1 0-.1 0 0zm-8 3.1c-.5 1.4-1.2 2.5-2 3.7-.7.8-1.7 2.4-2.6 2.8-.1 0-.2 0-.2-.1l-.1-.1c-.1-.1-.1-.3.1-.4l.1-.1c.1-.1.2 0 .3 0l.1.1c.1.1.1.2-.1.3-.3.1 1.1-1.5 1-1.5.4-.4.8-.9 1.2-1.3.9-1 1.6-2.2 2.2-3.4-.1-.1 0 0 0 0zm-6.7 3.4c-1.8 3-4.5 5.7-7.2 7.8-.3.3-.8-.2-.5-.5 2.8-2.2 5.1-4.8 7.5-7.5.1-.1.3.1.2.2zm9.3-16c-5-.3-9.3-.1-13.7 2.7-.3.2-.6-.3-.3-.5 3.9-2.5 9.4-4 14-2.5.1.1.1.3 0 .3zm-7.8 8.3c-2.4 0-4.7-.1-7.1.5-2.1.5-4.2 1.3-6.2 2.1-.3.1-.4-.3-.1-.4 4.2-1.6 8.9-3.3 13.4-2.2 0-.1 0 0 0 0zm-9.3 7.3c-1.7.1-3.3.2-5 .6-1.9.4-3.1 1.3-4.4 2.7-.2.2-.5-.1-.3-.3 1.2-1.4 2.3-2.3 4.1-2.7 1.8-.4 3.8-.5 5.6-.3.1-.2.1 0 0 0z"/><path class="st2" d="M100.4 177.2c-.1 1.8-1 3.6-1.8 5.2-.4 1-.9 2.9-2.2 3.1-.1 0-.2-.1-.1-.2 2.3-2 2.4-5.7 3.9-8.1.1-.1.2-.1.2 0zm-7.5 2.3c-.5 4.9-2 9.9-3.7 14.5-.1.2-.5.1-.4-.1 1.8-4.7 2.8-9.5 3.9-14.4.1-.1.3-.1.2 0zm-8 10.4c0 4.2-1.1 8.5-1.7 12.6 0 .3-.5.2-.5-.1.7-4.2 1.4-8.3 2-12.5 0-.1.2-.1.2 0zm-.2-20.9c-2.9 3.4-5.4 7-7.3 11-.2.3-.7 0-.5-.3 1.9-4.1 4.4-7.8 7.6-11 .1-.1.4.1.2.3z"/><path class="st2" d="M75.1 169.7c1.4 3.2 1.7 7.3 1.9 10.7 0 .3-.5.3-.5 0-.1-2-.3-4-.7-5.9-.3-1.6-.8-3.2-.9-4.8 0 0 .1-.1.2 0zm5.4 12.1c-2.2 3.5-3.6 6.9-5.2 10.7 0 .1-.2 0-.2-.1.5-3.8 2.7-7.9 5.2-10.8.1 0 .3.1.2.2zM75 192.7c-1-2.4-1.8-4.9-3.1-7.1-.1-.2.2-.3.3-.2 1.2 2.2 2.5 4.8 2.8 7.3.1.1 0 .1 0 0z"/><path class="st0" d="M303.5 205.9c.1 0 .1-.1 0 0 .8-.5 0 0 0 0zm-9.3 5.3c.5 2.1 1.1 4.7 1.7 4.4 2.2-1.1 6.3-7.5 7.6-9.7 10.7-14.4 14.7-33.6 10.8-51.2-9.6 3.9-16.6 12.7-19.7 22.6-3.1 9.8-2.7 20.5-.5 30.6.1.6 0 2.6.1 3.3z"/><g class="st1"><path class="st2" d="M294.2 211.2c-.1-.7 0-2.7-.2-3.4-2.2-10.1-2.6-20.8.5-30.6 1.5-4.7 3.9-9.2 7.1-13.1-3 4.8-4.9 10.4-5.6 16.1-1.2 10 1.1 20.2 5 29.5-1.7 2.5-3.8 5.2-5.2 5.8-.5.4-1.1-2.2-1.6-4.3z"/></g><path class="st0" d="M270.1 193.4c-.7-4.6.5-9.2 1.9-13.5 2.1-6.7 4.9-13.2 8.2-19.4 5 7.9 10.4 14.8 11.8 24 .5 3.6.1 8.7.4 12.3.4 4.4 3.3 12.8 4.7 16.9-1.2 3-6.4 2.5-9.8 1.9-4.3-.8-8.4-5.8-11-9.3-2.9-3.8-5.5-8.1-6.2-12.9z"/><path class="st3" d="M291.7 198.5c-1-3.6-1.4-8.6-2.6-12.1-2.5-7.4-7.4-12.6-12.7-18.1 1.2-2.7 2.4-5.3 3.8-7.8 5 7.9 10.4 14.8 11.8 24 .5 3.6.1 8.7.4 12.3.2 2.1.9 5.1 1.8 8.2-1.1-2.4-2.1-4.8-2.5-6.5z"/><path class="st0" d="M250.6 181.6c7.4 3 14.9 6.2 20.7 11.7 2.3 2.2 4.4 4.8 6.3 7.3 2.7 3.1 4.4 5.1 7.1 8.2 0-1 1.1 1.7 1.8 3.3.7 1.6 1.5 3.8-.4 3.8-2.2.1-4.6.1-6.7-.6-2.4-.9-5.7-3.8-7.8-5.2-5.7-3.7-11.6-7.6-15.6-13.1-3.2-4.5-5.1-9.9-5.4-15.4z"/><path class="st2" d="M312.7 159.6c-5.2 7.3-9.8 14.7-12.6 23.3-2.6 8.1-3.5 16.4-3 24.9 0 .4-.7.4-.7 0-.5-8.4.5-16.9 3.1-25 2.8-8.7 7.5-16 13-23.2.1-.2.3-.1.2 0zm-31.9 4.7c-1.1 7.9-1.1 15.9.4 23.7 1.6 8.4 5.3 15.9 8.7 23.7.1.2-.2.4-.3.2-7.9-14.7-12.1-30.9-8.8-47.6-.1-.1 0-.1 0 0zm-27.9 19.4c9 11.6 17.1 23.6 31.4 29.3.3.1.1.6-.2.5-13.5-5.5-23.9-17.5-31.3-29.7 0-.1.1-.2.1-.1z"/><path class="st2" d="M313.3 167.8c-1.4.3-2.7.5-4 .9-1.3.5-2.5 1.1-3.7 1.7-.1 0-.2-.1-.1-.2 2-1.6 5.2-2.5 7.8-2.4 0-.1 0-.1 0 0zm-1.1 7.9c-5.2-.4-8.3 1.8-11.5 5.7-.2.3-.7-.1-.4-.3 3.2-3.6 6.9-6.7 11.9-5.4.1-.1.1 0 0 0zm-4.4 7.8c-3.4 1.1-7.9 1.7-9.3 5.6-.1.2-.4.1-.3-.1 1.3-4 5.9-4.8 9.5-5.7.1 0 .2.1.1.2zm-1 9.9c-4.3.4-9 1.9-9.5 6.8 0 .3-.5.3-.4 0 .5-5 5.5-7.1 10-6.9 0 0 0 .1-.1.1zm-4.9-27.9c2.1 2.1 2.1 5.1 2.1 7.8 0 .2-.3.2-.3 0 .1-2.8 0-5.5-1.9-7.7-.1 0 .1-.1.1-.1z"/><path class="st2" d="M297.2 173.7c1.7 2.4 2.7 5.3 3.2 8.1 0 .2-.3.3-.4.1-.4-2.9-1.5-5.5-2.8-8.2-.1 0 0 0 0 0zm-1.8 8.4c.9 1.2 1.5 2.4 1.9 3.7.3 1 1.1 2.7.9 3.7 0 .1-.1.2-.2.2h-.1c-.2 0-.3-.1-.3-.3v-.1c0-.1.1-.2.2-.2h.1c.1 0 .2.1.2.2-.1.3-.7-1.7-.7-1.7-.1-.6-.3-1.2-.5-1.7-.4-1.3-.9-2.6-1.6-3.7 0-.1.1-.1.1-.1zm-.9 7.5c1.5 3.1 2.2 6.9 2.5 10.3 0 .4-.6.5-.6.1-.3-3.6-1.1-6.9-2.1-10.4-.1-.1.2-.2.2 0zm-8.2-16.6c-3.1 4-5.2 7.7-5.3 12.9 0 .3-.5.3-.5 0 0-4.6 1.9-10.1 5.7-13 .1-.2.2-.1.1.1zm2.6 11.1c-1.4 2-2.7 3.8-3.5 6.1-.8 2-1.3 4.2-1.7 6.3-.1.3-.5.1-.4-.1 1-4.3 2.1-9.3 5.6-12.3 0-.1.1-.1 0 0zm1 11.7c-.8 1.5-1.7 2.9-2.3 4.5-.8 1.8-.7 3.3-.2 5.2.1.3-.4.4-.5.1-.5-1.7-.7-3.2 0-4.9s1.7-3.4 2.8-4.9c.1-.2.2-.1.2 0z"/><path class="st2" d="M275.9 178.3c1.4 1.1 2.4 2.9 3.4 4.4.6.9 1.9 2.3 1.3 3.5 0 .1-.2.1-.2 0-.4-3-3.4-5.1-4.6-7.8-.1-.1 0-.2.1-.1zm-2.3 7.5c3.9 3.1 7.1 7.1 10 11.2.1.2-.1.5-.3.3-2.9-4.1-6.4-7.6-9.8-11.3-.1-.2 0-.3.1-.2zm4.2 12.4c3.5 2.3 6.5 5.6 9.6 8.4.2.2-.1.6-.4.3-3.1-2.9-6.2-5.8-9.2-8.7-.2.1-.1 0 0 0zm-17.5-11.4c1.2 4.3 2.8 8.4 5.1 12.2.2.3-.3.6-.5.3-2.3-3.8-4.1-8-4.9-12.4-.1-.3.3-.3.3-.1z"/><path class="st2" d="M255.6 195.2c3.5.6 7 2.6 10 4.4.3.2 0 .6-.3.4-1.7-1-3.5-1.9-5.3-2.7-1.5-.7-3-1.1-4.5-1.9-.1 0 0-.2.1-.2zm13 2.2c1.7 3.8 3.8 6.8 6.1 10.2.1.1-.1.2-.2.1-2.9-2.5-5-6.6-6.1-10.3 0-.1.2-.1.2 0zm6 10.7c-2.6-.6-5-1.2-7.7-1.3-.2 0-.2-.3 0-.3 2.6 0 5.5.4 7.7 1.6.1-.1.1 0 0 0z"/><path class="st4" d="M131.4 214.5c-.1 0-.2.1-.2.1-2.5 1.2-3.8 1-6.2-.1-2.2-1-4.4-2.2-6.2-3.9-2.3-2.1-4.1-4.8-4.5-7.9-.1-.7-.1-1.4.3-2 .6-.8 1.7-.9 2.6-.5.9.3 1.6 1 2.3 1.7.3.3.6.5 1 .7.4.1.9 0 1.1-.4.3-.6-.2-1.2-.7-1.6-1.2-1-2.2-1.5-3.4-2.4-1.5-1.1-2.9-2.4-3.8-4-.8-1.7-1-3.7-.2-5.4.3-.5.6-1 1.1-1.3.8-.5 1.9-.5 2.9-.3s1.9.6 2.9.7c2.4.2 3.3-1.4 3.2-3.6 0-1.5-.5-2.9-.6-4.3-.1-2.6 1.1-5.3 3.4-6.4 2.3-1.1 5.6 0 6.4 2.4.9 2.6-1.2 5.6.2 8.1.4.8 1.4 1.9 2.2 2.4 1.3.8 3.2-.1 4.7-.1.3 0 .7.1.9.3s.2.4.3.7c.4 1.8-.3 3.8-1.7 5.1-1.6 1.4-4.3 2.1-4.9 4.4-.4 1.4-.2 4.8 2 4.5.8-.1 1.4-.9 2.2-1.2 1-.3 2.1.3 2.5 1.3.4.9.3 2-.1 3-.6 1.5-1.8 2.7-2.9 3.9-2.2 2.3-3.8 4.6-6.8 6.1z"/><path class="st5" d="M128.1 182.4v32.2m6.2-22.9l-6.2 6.2-6.2-6.2m12.4 12.5l-6.2 6.2-6.2-6.2"/></g><g id="Layer_14"><path class="st7" d="M67.7 205.4h7v7.3h-7zm16.4 0h7v7.3h-7z"/><path fill="#196eff" d="M85 130.6l-.6 44.6-1.1 33H92l1.8-33.2 6.2-33.5v-10.9z"/><path class="st9" d="M84.2 179.1l1-4.1 7.7-31.2 7.1-4.5v-8.7H85l-.6 44.6z"/><path class="st10" d="M74.1 130.6l-1.6 46.1-5.7 31.5h8.6l7.9-33.2 7.7-31.2 9-5.7v-7.5zm8.8 79l-.5 1v5.2h24.3l1.4-.7-1-3.5c-.1-.2-.3-.4-.6-.3l-1.7.6-3.8-.9-6.5-3.7c-.5-.5-1.4-.5-1.9.1l-2.5 2.9h-5.4l-.7-.7c-.3-.5-.9-.4-1.1 0z"/><path class="st2" d="M106.7 214.8H82.4v.9h24.3l1.4-.7-.3-.8z"/><path transform="rotate(-57.425 95.674 208.625)" class="st2" d="M95 207.6h1.4v2.1H95z"/><path transform="rotate(-57.425 98.22 210.233)" class="st2" d="M97.5 209.2h1.4v2.1h-1.4z"/><path class="st2" d="M89 211.5c0 1.2-1.2 2.2-2.4 1.8l-4.2-1.2v-.6H89z"/><path class="st9" d="M90.9 215.6l1.5-.8-1.1-3.7c-.1-.3-.4-.4-.6-.3l-1.8.6-4.1-1-1.7-1-.2.2-.5 1v5h8.5z"/><path class="st10" d="M66.3 209.6l-.5 1v5.2h24.3l1.4-.7-1-3.5c-.1-.2-.3-.4-.6-.3l-1.7.6-3.8-.9-6.5-3.7c-.5-.5-1.4-.5-1.9.1l-2.5 2.9h-5.4l-.7-.7c-.3-.5-.9-.4-1.1 0z"/><path class="st2" d="M90.1 214.8H65.8v.9h24.3l1.4-.7-.3-.8z"/><path transform="rotate(-57.425 79.083 208.641)" class="st2" d="M78.4 207.6h1.4v2.1h-1.4z"/><path transform="rotate(-57.425 81.628 210.249)" class="st2" d="M80.9 209.2h1.4v2.1h-1.4z"/><path class="st2" d="M72.4 211.5c0 1.2-1.2 2.2-2.4 1.8l-4.2-1.2v-.6h6.6z"/><path class="st9" d="M84 133.6l-1.2 2.9c-.6 1.6-2.1 2.6-3.8 2.6h-5.1v.5H80c1.7 0 3.2-1 3.8-2.6l1.7-4.3-1.5.9z"/><path class="st7" d="M106.8 84.3h6.9l-8.4-13.6-4.6-2.3c-1.3-.6-2.1-2-2.1-3.4v-8.1c0-.2.1-.3.3-.3 1.1 0 2.2.5 2.9 1.4l4.5 5.7 1.5 3.7 14.7 17.1c.6.7.5 1.7-.2 2.3-1.7 1.3-3.6 2.2-5.7 2.8L106 92.2l.8-7.9zM79 70.2h11.2v17.3H79z"/><path class="st2" d="M91.8 57.9c-.6-.8-1.6-.7-2.3-1.1-.9-.5-1.1-1-2.2-1.2-1-.2-2.1-.3-3.1 0-1.5.4-2.8 1.4-4.3 1.5-.5 0-1-.1-1.5 0s-1 .3-1.1.8.1 1.1-.3 1.4c-.2.1-.4.1-.6.2-1.2.1-2.4 1.9-2.2 3.1l.3.9c.7 1.5 1.4 3.1 1.8 4.8.3 1.5 1.1 2.9 1.1 4.5.1 1.6.6 2.9 1.4 4.3.1.1.2.3.4.2 0 0 .1-.1.1-.2.1-.6.1-1.2.2-1.8.1-.6.2-1.2.6-1.7.1-.2.3-.3.4-.5.4-.6.2-1.4.5-2 .3-.8.8-1.6 1.2-2.4.1-.3.2-.5.4-.7.2-.2.4-.2.6-.3.9-.4 1.8-.7 2.7-1.1.6-.2 1.2-.5 1.8-.6.3-.1.7-.1 1-.2.7-.3 1-1.2 1.2-2 .2-.8.3-1.7 1-2.2.3-.2.7-.4.9-.7.2-.3 0-.8.2-1.1.1-.2.2-.4.3-.5-.2-.7-.3-1.1-.5-1.4z"/><path class="st9" d="M79 72.7c.4.2.7.3 1.2.4l1.7.1.4.6c.7 1.2 1.9 2 3.3 2.2l4.6-.9v-4.9H79v2.5z"/><path class="st7" d="M93.5 65.5l.6 1.5c.2.6.3 1.2.3 1.8l-.4 4c-.2 1.6-1.7 2.7-3.3 2.4l-5.1-1.1c-1.3-.3-2.5-1.1-3.3-2.2l-.4-.6-1.7-.1c-.7 0-1.4-.4-1.9-1-.3-.4-.5-.9-.5-1.4v-.4c0-.4.1-.8.4-1.1.3-.4.9-.6 1.4-.5l.7.2v-3.5c0-2 1.4-3.7 3.3-4.2l4.3-1 4 .7 1.6 6.5z"/><path class="st11" d="M79 66.8c-.1.1-.3 0-.3-.2v-2.5l-.9.5v2.5c0 .1.1.2.3.2l.9-.5z"/><path class="st9" d="M108.2 84.3h-1.4l-.8 7.9 1.5-.4z"/><path class="st12" d="M90.2 80.7l9.4 1.9h7.4l-1.1 10.8-6.3 3.7-9.4-14.5z"/><path class="st12" d="M79 78.2l-7.4 9.3 1.4 45.6h27.7l-1.1-36-9.4-16.5-3.6 6.9z"/><path class="st2" d="M80.3 63.4c.6-.8 1.6-1 2.2-1.7.2-.2.4-.8.6-.9.3-.2 1 0 1.3 0 .7 0 1.2-.3 1.8-.7 1-.8.9-1.1 2.2-1.1 1.6 0 1.6-2.5 0-2.5-1.1 0-1.9-.1-2.8.6-.3.2-.6.7-.9.9-.6.4-1.4.1-2.1.3-1.2.3-1.3 1.1-2.2 1.8-.9.7-1.5 1.1-2.2 2-1 1.4 1.2 2.6 2.1 1.3z"/><path class="st11" d="M101.2 65.8l-7.3.7-.7-.6-2.7.3s-3.3 1-6.6-1.7l-.7-2.4 8.5-4.3 9.5 8z"/><path class="st11" d="M99.8 64.4l-10.4-2.9c-.3-.1-.6-.4-.6-.7v-4.3c0-.5.5-.9 1-.7l10.4 2.9c.3.1.6.4.6.7v4.3c-.1.5-.6.9-1 .7z"/><path class="st2" d="M89.5 61.8l-13.3 6.5c-.1.1-.3 0-.3-.2v-2.5L89.5 59v2.8z"/><path class="st11" d="M77.1 67.8c-.1.1-.3 0-.3-.2v-2.5l-.9.5v2.5c0 .1.1.2.3.2l.9-.5zm1.9-1c-.1.1-.3 0-.3-.2v-2.5l-.9.5v2.5c0 .1.1.2.3.2l.9-.5zm1.9-.8c-.1.1-.3 0-.3-.2v-2.5l-.9.5v2.5c0 .1.1.2.3.2l.9-.5zm1.9-.9c-.1.1-.3 0-.3-.2v-2.5l-.9.5v2.5c0 .1.1.2.3.2l.9-.5zm1.9-1c-.1.1-.3 0-.3-.2v-2.5l-.9.5v2.5c0 .1.1.2.3.2l.9-.5zm1.9-.9c-.1.1-.3 0-.3-.2v-2.5l-.9.5v2.5c0 .1.1.2.3.2l.9-.5zm1.9-1c-.1.1-.3 0-.3-.2v-2.5l-.9.5v2.5c0 .1.1.2.3.2l.9-.5z"/><path class="st2" d="M101.2 65.8L90.8 63c-.3-.1-.6-.4-.6-.7v-5.7c0-.5.5-.9 1-.7l10.4 2.9c.3.1.6.4.6.7v5.7c-.1.4-.5.8-1 .6z"/><ellipse class="st11" cx="96.7" cy="60.8" rx=".6" ry="1.1"/><path class="st13" d="M75.3 121.5c0 1.2-1.2 3.2-1 4.5.1.9.2 1.4.4 2.3.4 1.5 2.6.8 2.3-.6-.5-2.2 0-5.2-1.5-7.1.1-.3.1-.6.2-.9.1-.4 0-.9-.3-1.1-.7-.7-3.9-4.7-2.3-6.2.4-.3.5-1 .2-1.4s-.6-.9-.9-1.4l2.1-.9c.5-.3.8-1.1.4-1.6-1-1.5-1.8-3.2-1.7-5.1 0-.8.5-1.3.5-2.1 0-1.3-.8-2.4-.7-3.7.1-.8-.5-1.1-1.1-1.1l.8 24.5c.2.5.3 1 .3 1.5 0 .2-.1.3 0 .5 0 .1 0 .1.1.2.2 1.3 2 1 2.2-.3z"/><path class="st7" d="M75.3 139.1h-.7l-1.2-3.1v-9.2L65 114.3c-.4-.6-.6-1.2-.6-1.9v-11.3l7.2 1.9-.6 10.8 6.5 12 3.4 4.2 1.4 6.7c-.7 0-1.3-.5-1.5-1.2l-.4-1.2-.4 4.6h-4.7v.2z"/><path class="st9" d="M64.4 103l7.1 1.8.1-1.8-7.2-1.9z"/><path class="st12" d="M79 78.2l-10 4.9c-3 1.5-5 4.4-5.2 7.8l-.8 10.3 9.2 2.4 2-9.3L79 82.6v-4.4z"/></g><g id="Layer_17"><path d="M309.9 202.5l-.5 3.6-9.5 4.7-7.3 1.6s.6 3.2 6.3 3.4c5.7.2 17-.4 17-.4.7-.8 1-1.8 1-2.8v-1.4c0-.9-.5-1.6-1.3-1.9l-.1-5.9-5.6-.9z" fill="#e0a546"/><path d="M316.9 211.1c0-.3-.1-.6-.2-.8-.6.3-1.5 1.8-2.1 1.8-3.7.1-7.7.4-10.8.2-3.1-.1-4.9-.3-5.7-1.1l-5.5 1.2s.6 3.2 6.3 3.4c5.7.2 17-.4 17-.4.7-.8 1-1.8 1-2.8v-1.5z" fill="#19a0ff"/><path class="st7" d="M303.6 203.8v1.8l-14.2 6s-.8 4.6 8.1 3.7l15.7-3s.6-1.8.9-3.3c.2-1-.2-2-1-2.7l-3.2-3-6.3.5z"/><path class="st10" d="M313.8 207.3c-.8 1.2-1.9 2.2-3.4 2.6l-6.1 1.7c-7.5.7-8.2-1.9-8.2-2.9l-6.7 2.8s-.8 4.6 8.1 3.7l15.7-3s.6-1.8.9-3.3c.1-.5 0-1.1-.3-1.6z"/><path d="M317.8 141.8l-2.5 25.4c4.6 11 .3 36.1.3 36.1h-5.8l-3.4-32.5-3.5-9 14.9-20z" fill="#3a3c4e"/><path class="st9" d="M306 170.1l9-22.2 2.2-1.8.2-.2.4-4.2-15 20.1 3.2 8.3zm3.7 33.3l1.6-.1s1.2-16.2-4.3-25.5l2.7 25.6z"/><path d="M299.7 133l-8.9 40.6 12.9 30.3 6.2-.5s1.5-21.1-7-29l10.6-26.4 2.2-1.8c1.9-1.5 3-3.8 3-6.2v-9.2l-19 2.2z" fill="#4d5068"/><path class="st18" d="M328.1 82.5c-1-1.5-1.3-3.3-1.6-5-.2-2.1-.3-4.2-.1-6.3.1-.9.2-1.8.1-2.7-.1-.6-.3-1.3-.4-1.9-.6-2.7-.2-5.6-.7-8.3-.1-.6-.3-1.3-.8-1.8-.7-.7-1.9-.9-2.7-.4-.9.5-1.4 1.4-1.5 2.4l.1-.2c-1.2 3.4-.6 7.1-1.2 10.6-.4 2-1.1 4-1.5 6-.3 2-.2 4.3 1.1 5.9.5.6 1.1 1 1.7 1.5 1.7 1.2 3.6 2.1 5.6 2.8-.6-.5-1-1.3-1.1-2.1 1.1.8 2.2 1.6 3.5 2.1s2.7.6 3.9 0c-1.7 0-3.4-1.2-4.4-2.6z"/><path d="M322.4 82.8c-.6-.4-1.2-.9-1.7-1.5-1.3-1.6-1.5-3.8-1.1-5.9.3-2 1.1-4 1.5-6 .6-3.5-.1-9.9-.1-9.9.1-1-.4-1.3-.4-1.3-1.2 3.4-.6 7.1-1.2 10.6-.4 2-1.1 4-1.5 6-.3 2-.2 4.3 1.1 5.9.5.6 1.1 1 1.7 1.5 1.7 1.2 3.6 2.1 5.6 2.8l-.2-.2c-1.3-.6-2.6-1.2-3.7-2zm9.8 2.3c.1 0 .2-.1.3-.1h-.7c.2 0 .3.1.4.1zm-5.3-1.6c0 .2.1.5.2.7.5.3 1 .6 1.6.8.4.1.7.2 1.1.3-1.1-.5-2-1.1-2.9-1.8z" fill="#bf9447"/><path class="st18" d="M320.2 58.8c-.4.3-1 .2-1.5 0s-.9-.5-1.3-.8c-.9-.5-2-.6-3-.7-3.3-.4-6.9-.7-9.6 1.1h-.2c2.7 6.3 5.7 12.5 8.8 18.7.6-.5 1.2-1.1 1.9-1.6 2.7-2.3 5.5-4.9 5.9-8.4.2-2.8-1.1-5.5-1-8.3z"/><path class="st7" d="M305 72.7h9.2V91H305z"/><path class="st9" d="M308.5 78.1l-3.5-.7v-4.8h9.2v.7c0 3.1-2.8 5.4-5.7 4.8z"/><path class="st7" d="M298.8 67.2v8c0 1.2 1 2.2 2.2 2.2h5.5c3.4 0 6.1-2.7 6.1-6.1v-7c0-1-.5-2-1.3-2.7l-3.6-2.9c-1-.8-2.3-.9-3.4-.3-1.7 1.1-3.8 3.4-5.5 8.8z"/><path class="st11" d="M303.8 57.9l3.4 1.7c1.5.8 2.5 2.2 2.6 3.9l.1 1.4-8.4-1.9 2.3-5.1z"/><path class="st11" d="M289.6 68.4l8.8.8.9-.8 3.3.4s4 1.2 8-2l.9-2.9-10.3-5.3-11.6 9.8z"/><path class="st11" d="M291.3 66.7l12.6-3.5c.4-.1.7-.5.7-.9v-5.2c0-.6-.6-1-1.2-.9l-12.6 3.5c-.4.1-.7.5-.7.9v5.2c.1.6.6 1 1.2.9z"/><path class="st2" d="M303.8 63.5l16.1 7.9c.1.1.3 0 .3-.2v-3l-16.5-8v3.3h.1z"/><path class="st11" d="M318.8 70.8c.1.1.3 0 .3-.2v-3l1.1.6v3c0 .2-.2.3-.3.2l-1.1-.6zm-2.3-1.2c.1.1.3 0 .3-.2v-3l1.1.6v3c0 .2-.2.3-.3.2l-1.1-.6zm-2.3-1.1c.1.1.3 0 .3-.2v-3l1.1.6v3c0 .2-.2.3-.3.2l-1.1-.6zm-2.3-1.1c.1.1.3 0 .3-.2v-3l1.1.6v3c0 .2-.2.3-.3.2l-1.1-.6zm-2.3-1.1c.1.1.3 0 .3-.2v-3l1.1.6v3c0 .2-.2.3-.3.2l-1.1-.6zm-2.3-1.1c.1.1.3 0 .3-.2v-3l1.1.6v3c0 .2-.2.3-.3.2l-1.1-.6zM305 64c.1.1.3 0 .3-.2v-3l1.1.6v3c0 .2-.2.3-.3.2L305 64z"/><path class="st2" d="M289.6 68.4l12.6-3.5c.4-.1.7-.5.7-.9v-6.9c0-.6-.6-1-1.2-.9l-12.6 3.5c-.4.1-.7.5-.7.9v6.9c0 .6.6 1.1 1.2.9z"/><ellipse class="st11" cx="295" cy="62.3" rx=".7" ry="1.4"/><path class="st7" d="M312.6 68.2s2.2-1.7 3-.1V71c0 1.1-.6 2.2-1.6 2.6-.5.2-1.1.3-1.8.1l.4-5.5z"/><path class="st2" d="M320.3 61l-1.8-1.9c-.4-.4-.3-1 0-1.4l.2-.2c.4-.4 1-.3 1.4 0l1.8 1.9c.4.4.3 1 0 1.4l-.2.2c-.4.4-1 .4-1.4 0z"/><path class="st9" d="M316.7 145.2c1.3-1.4 2-3.3 2-5.2v-9.2l-19 2.2-2.3 10.4v1c9 2.2 16.1-7 16.1-7l3.2 7.8z"/><path class="st10" d="M295 84.5v18.3c0 2.4.5 4.8 1.4 7.1l1 2.6v29.3c9 2.2 16.1-7 16.1-7l4.8 11.9c1.8-2.5 2.8-5.6 2.6-8.7l-1.4-26.8.4-26.7-5.8 1.4-.7.7c-2.4 2.6-6.6 2.3-8.5-.7l-9.9-1.4z"/><path class="st7" d="M251.6 62.5l-5.4-1 .4.8c.1.2.3.3.5.4l4.4 1.4 2.7 4 2.4 2.1L269 90.4l17.8 2.5v-8.8l-12.9-.7-15.1-17.6-.6-3.7-2.4-3.7-.7-3.6-2.5-3.5c-.4.9-.4 1.9.2 2.7l.5.8.7 3.5-.1.1s-.4-.3-.6-.3l-.6-1-4.9-3.1v.8c0 .5.2.9.6 1.2l3.6 2.8.3.7-.2.4-1.5-1.2-4.8-1.1v1.3l3.3.9 2.4 1.6"/><path class="st9" d="M258.2 62.2l-.1-.2-1.6-.4c-.4-.1-.8 0-1.1.2l-1.6 1.2.1.2 1.5-1.1c.3-.2.7-.3 1.1-.2l1.7.3zm26.7 30.4l2 .3v-8.8h-.6z"/><path class="st10" d="M305 81.1l-7.6 1.4-10.5 1v10l8.1 2.6 10-10.2z"/><path d="M319.5 111.2v-1.1c-.3-.4-.6-.7-.9-1.1l.9-.6.1-4.4c-.2-.1-.4-.1-.6-.2.3-.5.3-1.1-.2-1.5l-.1-.1c.3-.2.6-.4 1-.6v-2.1c-.3-.3-.8-.3-1.3 0-.9.5-1.8 1.1-2.6 1.6-.7.4-.8 1.6-.1 2-.9.6-.7 1.9.3 2.2l2.7.9c-.8.6-2 1.1-2.5 1.6-.4.4-.4 1-.2 1.5.1.2.6.8.7 1 1.1 2.9 0 2.3.2 4.3.1.8.3 1.6.6 2.3-1.3-.7 2.2.7 1.2-.7-.9-1.2.8-5 .8-5z" opacity=".1" fill="#3a3c4e"/><path class="st13" d="M318.8 103.6l-1.1 9-7.8-4.2-.5-5.2-2.2-2-.8-3.2-3.1-3.6c-.4.8-.3 1.8.2 2.5l1.1 1.7-.1 4.3-.8.3-2.7-3.6c-.8.7-.9 1.9-.4 2.8l5.8 9.2 13.5 9.8-.5-10.1.1-7.7h-.7z"/><path class="st7" d="M324.7 102.1l-1.6 14.6-1.5 2.2c-.7 1-2.1 1.3-3.1.5l-12-9.4-5.8-9.2c-.6-.9-.4-2.1.4-2.8l2.7 3.6.8-.3.1-4.3-1.5-2.3c-.4-.7-.4-1.5-.1-2.2l.2-.3 3.2 4.2.8 3.2 2.2 2 .5 5.2 7.8 4.2 1.1-9h5.8v.1z"/><path class="st9" d="M324.7 102.1h-5.9l-.2 1.5h5.9z"/><path class="st10" d="M314.2 81.1l10.1 4.2c.9.4 1.5 1.2 1.5 2.2v14.6h-8.1v-6.4l-3.5-9.8v-4.8z"/></g><g id="Layer_13"><g class="st21"><path class="st22" d="M178.2 26.1c-2.2 0-3.9-1.8-3.9-3.9 0-2.2 1.8-3.9 3.9-3.9 2.2 0 3.9 1.8 3.9 3.9 0 2.1-1.8 3.9-3.9 3.9zm0-5.8c-1 0-1.8.8-1.8 1.8s.8 1.8 1.8 1.8 1.8-.8 1.8-1.8-.8-1.8-1.8-1.8z"/></g><path class="st23" d="M101.3 28.1c-1.7 0-3-1.4-3-3 0-1.7 1.4-3 3-3 1.7 0 3 1.4 3 3 .1 1.6-1.3 3-3 3zm0-4.5c-.8 0-1.4.6-1.4 1.4s.6 1.4 1.4 1.4 1.4-.6 1.4-1.4c0-.8-.6-1.4-1.4-1.4zm45.1 140.5c-1.7 0-3-1.4-3-3 0-1.7 1.4-3 3-3 1.7 0 3 1.4 3 3s-1.4 3-3 3zm0-4.5c-.8 0-1.4.6-1.4 1.4 0 .8.6 1.4 1.4 1.4.8 0 1.4-.6 1.4-1.4 0-.8-.6-1.4-1.4-1.4z"/><g class="st21"><path class="st22" d="M90.2 46.6c-1.1 0-2.1-.9-2.1-2.1 0-1.1.9-2.1 2.1-2.1 1.1 0 2.1.9 2.1 2.1 0 1.2-.9 2.1-2.1 2.1zm0-3c-.5 0-1 .4-1 1 0 .5.4 1 1 1 .5 0 1-.4 1-1s-.5-1-1-1z"/></g><path class="st23" d="M191.5 179.4c-1.1 0-2.1-.9-2.1-2.1 0-1.1.9-2.1 2.1-2.1 1.1 0 2.1.9 2.1 2.1s-.9 2.1-2.1 2.1zm0-3c-.5 0-1 .4-1 1 0 .5.4 1 1 1 .5 0 1-.4 1-1s-.4-1-1-1z"/><g class="st21"><path class="st22" d="M142.3 45.3c-1.1 0-2.1-.9-2.1-2.1 0-1.1.9-2.1 2.1-2.1 1.1 0 2.1.9 2.1 2.1 0 1.2-.9 2.1-2.1 2.1zm0-3c-.5 0-1 .4-1 1 0 .5.4 1 1 1 .5 0 1-.4 1-1s-.5-1-1-1z"/></g><g class="st21"><path class="st24" d="M57.3 66.6c-1.1 0-2.1-.9-2.1-2.1 0-1.1.9-2.1 2.1-2.1 1.1 0 2.1.9 2.1 2.1 0 1.2-1 2.1-2.1 2.1zm0-3c-.5 0-1 .4-1 1 0 .5.4 1 1 1 .5 0 1-.4 1-1s-.5-1-1-1z"/></g><g class="st21"><path class="st24" d="M139.5 140.3c-1.1 0-2.1-.9-2.1-2.1 0-1.1.9-2.1 2.1-2.1 1.1 0 2.1.9 2.1 2.1 0 1.1-1 2.1-2.1 2.1zm0-3.1c-.5 0-1 .4-1 1 0 .5.4 1 1 1 .5 0 1-.4 1-1s-.5-1-1-1z"/></g><g class="st21"><path class="st24" d="M234.1 132.6c-1.8 0-3.3-1.5-3.3-3.3s1.5-3.3 3.3-3.3 3.3 1.5 3.3 3.3c0 1.8-1.5 3.3-3.3 3.3zm0-4.9c-.8 0-1.5.7-1.5 1.5s.7 1.5 1.5 1.5 1.5-.7 1.5-1.5-.7-1.5-1.5-1.5z"/></g><g class="st21"><path class="st25" d="M278.7 57.9c-1.1 0-2.1-.9-2.1-2.1 0-1.1.9-2.1 2.1-2.1 1.1 0 2.1.9 2.1 2.1 0 1.1-1 2.1-2.1 2.1zm0-3.1c-.5 0-1 .4-1 1 0 .5.4 1 1 1 .5 0 1-.4 1-1 0-.5-.5-1-1-1z"/></g><path d="M264.5 119.9c-1.6 0-2.9-1.3-2.9-2.9s1.3-2.9 2.9-2.9 2.9 1.3 2.9 2.9-1.3 2.9-2.9 2.9zm0-4.2c-.7 0-1.4.6-1.4 1.4 0 .7.6 1.4 1.4 1.4.7 0 1.4-.6 1.4-1.4 0-.8-.6-1.4-1.4-1.4z" fill="#de4437"/><g class="st21"><path class="st25" d="M240.7 32.8c-1.1 0-2.1-.9-2.1-2.1 0-1.1.9-2.1 2.1-2.1 1.1 0 2.1.9 2.1 2.1-.1 1.2-1 2.1-2.1 2.1zm0-3c-.5 0-1 .4-1 1 0 .5.4 1 1 1 .5 0 1-.4 1-1-.1-.6-.5-1-1-1z"/></g><path class="st28" d="M352.3 60.5h-1.4v-1.4c0-.4-.4-.8-.8-.8s-.8.4-.8.8v1.4h-1.4c-.4 0-.8.4-.8.8s.4.8.8.8h1.4v1.4c0 .4.4.8.8.8s.8-.4.8-.8v-1.4h1.4c.4 0 .8-.4.8-.8s-.3-.8-.8-.8z"/><path class="st0" d="M105.7 122.4h-1.4V121c0-.4-.4-.8-.8-.8s-.8.4-.8.8v1.4h-1.4c-.4 0-.8.4-.8.8s.4.8.8.8h1.4v1.4c0 .4.4.8.8.8s.8-.4.8-.8V124h1.4c.4 0 .8-.4.8-.8s-.4-.8-.8-.8z"/><path class="st28" d="M121.4 47.5l-.6.6-.6-.6c-.2-.2-.5-.2-.7 0s-.2.5 0 .7l.6.6-.6.6c-.2.2-.2.5 0 .7s.5.2.7 0l.6-.6.6.6c.2.2.5.2.7 0s.2-.5 0-.7l-.6-.6.6-.6c.2-.2.2-.5 0-.7s-.5-.2-.7 0zm146.5-13l-.6.6-.6-.6c-.2-.2-.5-.2-.7 0s-.2.5 0 .7l.6.6-.6.6c-.2.2-.2.5 0 .7s.5.2.7 0l.6-.6.6.6c.2.2.5.2.7 0s.2-.5 0-.7l-.6-.6.6-.6c.2-.2.2-.5 0-.7s-.5-.2-.7 0zM247 157.8l-1.1 1.1-1.1-1.1c-.3-.3-.9-.3-1.2 0s-.3.9 0 1.2l1.1 1.1-1.1 1.1c-.3.3-.3.9 0 1.2s.9.3 1.2 0l1.1-1.1 1.1 1.1c.3.3.9.3 1.2 0s.3-.9 0-1.2l-1.1-1.1 1.1-1.1c.3-.3.3-.9 0-1.2-.4-.3-.9-.3-1.2 0zm39.5-37.9l-.6.6-.6-.6c-.2-.2-.5-.2-.7 0s-.2.5 0 .7l.6.6-.6.6c-.2.2-.2.5 0 .7s.5.2.7 0l.6-.6.6.6c.2.2.5.2.7 0s.2-.5 0-.7l-.6-.6.6-.6c.2-.2.2-.5 0-.7-.2-.2-.5-.2-.7 0z"/><path class="st0" d="M196.1.1l-.6.6-.6-.6c-.2-.2-.5-.2-.7 0s-.2.5 0 .7l.6.6-.6.6c-.2.2-.2.5 0 .7s.5.2.7 0l.6-.6.6.6c.2.2.5.2.7 0s.2-.5 0-.7l-.6-.6.6-.6c.2-.2.2-.5 0-.7-.2-.1-.5-.1-.7 0zm145.4 33.8l-.6.6-.6-.6c-.2-.2-.5-.2-.7 0s-.2.5 0 .7l.6.6-.6.6c-.2.2-.2.5 0 .7s.5.2.7 0l.6-.6.6.6c.2.2.5.2.7 0s.2-.5 0-.7l-.6-.6.6-.6c.2-.2.2-.5 0-.7s-.5-.2-.7 0z"/><path class="st28" d="M240.1 111.5h-1v-1c0-.3-.2-.6-.6-.6-.3 0-.6.2-.6.6v1h-1c-.3 0-.6.2-.6.6s.2.6.6.6h1v1c0 .3.2.6.6.6.3 0 .6-.2.6-.6v-1h1c.3 0 .6-.2.6-.6s-.3-.6-.6-.6zM135.9 72.6h-1v-1c0-.3-.2-.6-.6-.6s-.6.2-.6.6v1h-1c-.3 0-.6.2-.6.6s.2.6.6.6h1v1c0 .3.2.6.6.6s.6-.2.6-.6v-1h1c.3 0 .6-.2.6-.6s-.3-.6-.6-.6zm199.9 35h-1v-1c0-.3-.2-.6-.6-.6-.3 0-.6.2-.6.6v1h-1c-.3 0-.6.2-.6.6s.2.6.6.6h1v1c0 .3.2.6.6.6.3 0 .6-.2.6-.6v-1h1c.3 0 .6-.2.6-.6s-.3-.6-.6-.6z"/><path class="st10" d="M164.4 6.4h-1v-1c0-.3-.2-.6-.6-.6-.3 0-.6.2-.6.6v1h-1c-.3 0-.6.2-.6.6s.2.6.6.6h1v1c0 .3.2.6.6.6.3 0 .6-.2.6-.6v-1h1c.3 0 .6-.2.6-.6s-.3-.6-.6-.6z"/><path class="st30" d="M129.6 90.4h-1v-1c0-.3-.2-.6-.6-.6-.3 0-.6.2-.6.6v1h-1c-.3 0-.6.2-.6.6s.2.6.6.6h1v1c0 .3.2.6.6.6.3 0 .6-.2.6-.6v-1h1c.3 0 .6-.2.6-.6s-.3-.6-.6-.6z"/><path class="st7" d="M129.6 17.8h-1v-1c0-.3-.2-.6-.6-.6-.3 0-.6.2-.6.6v1h-1c-.3 0-.6.2-.6.6 0 .3.2.6.6.6h1v1c0 .3.2.6.6.6.3 0 .6-.2.6-.6v-1h1c.3 0 .6-.2.6-.6 0-.3-.3-.6-.6-.6z"/><path class="st10" d="M202.4 135.6h-1v-1c0-.3-.2-.6-.6-.6-.3 0-.6.2-.6.6v1h-1c-.3 0-.6.2-.6.6 0 .3.2.6.6.6h1v1c0 .3.2.6.6.6.3 0 .6-.2.6-.6v-1h1c.3 0 .6-.2.6-.6s-.2-.6-.6-.6z"/><circle class="st30" cx="151" cy="13.5" r=".9"/><circle class="st10" cx="33.3" cy="84.1" r=".9"/><path class="st30" d="M339.8 83.5c0 .5-.4.9-.9.9s-.9-.4-.9-.9.4-.9.9-.9.9.4.9.9zm-6.1 48.7c0 1-.8 1.8-1.8 1.8s-1.8-.8-1.8-1.8.8-1.8 1.8-1.8 1.8.8 1.8 1.8z"/><circle class="st30" cx="184" cy="146.8" r=".9"/><circle class="st28" cx="274.5" cy="22" r="1.6"/><circle class="st4" cx="46.4" cy="97.7" r="1.6"/></g><g id="Layer_16"><path class="st10" d="M238.3 75.5c0 12.8-5.5 25.2-15 33.8-4.7 4.3-10.3 7.6-16.3 9.6-5.8 1.9-13.4.4-16.3 7.1-.6 1.4-1 3-2.3 3.8-1.7 1-4.1-.3-4.9-2.1-.8-1.8-.6-3.9-.4-5.9.2-2 .2-4.2-1-5.8-2.5.7-4.2 3-4.9 5.4s-.6 5-.4 7.6c0 .4 0 .8-.2 1.1s-.4.5-.7.6c-1.5.8-3.3.6-4.6-.4s-2-2.8-1.6-4.4c.2-1 .8-1.9 1.1-2.8 1.6-4.1-.4-9.2-4.3-11.1-13-6.2-19.8-22.7-19.8-36.6 0-7 1.6-13.9 4.7-20.1 4.1-8.2 10.7-15 18.7-19.5 4-2.3 8.4-4 12.9-5 2.3-.5 4.6-.9 7-1.1 2.7-.2 4.9.8 7.6.9 1.1.1 2.4 0 3.1-.9.2-.3.4-.6.5-.9.7-1.3 1.5-2.4 2.5-3.5.7-.7 1.4-1.4 2.4-1.5 1.2-.2 2.4.5 2.8 1.6 1 2.5-2.6 3.5-1.6 6.1.6 1.4 2.3 2.2 3.8 1.7 1.6-.6 2.4-2.3 3.2-3.8s2.1-3.1 3.8-2.9c1.5.2 2.5 1.8 2.7 3.3s-.3 3.1-.4 4.6c-.4 8.6 7.2 11.2 11.2 17.2 4.6 6.9 6.7 15.7 6.7 23.9z"/><path class="st23" d="M216.4 75.5c0 13.2-10.7 23.9-23.9 23.9-4.4 0-8.8-1.2-12.6-3.6-1.8-1.1-3.3-2.4-4.5-4-1.3-1.7-2.6-3.4-4.7-4.1-1.1-.4-2.7-.7-2.8-1.9 0-.5.3-.9.5-1.3.5-.8 1.1-1.6 1.6-2.4.9-1.4 1.9-3.3.9-4.7-.9-1.3-2.8-1.2-4.2-.6s-2.6 1.7-4.1 2c-1.5.4-3.4-.4-3.5-1.9-.1-1.6 1.7-2.5 3.3-2.6 1.6 0 3.2.5 4.7 0 2.6-.9 2.3-3.4 2.9-5.5.8-2.7 2-5.2 3.4-7.6 1.1-1.8 3-3.5 4.6-4.7 4.2-3.2 9.3-5 14.6-5 4.2 0 8.7 1.1 12.2 3.5 1.3.9 2.1 1.5 3.7 1.8.8.1 5.3.1 4 2.1-.8.4-1.6 1-1.9 1.8-.5 1.5 1 3 2.5 3.5s3.2.6 4.5 1.5c.4.2.7.6.8 1s0 .9-.4 1.1c-.3.1-.6.1-.9 0-.9-.1-1.8.1-2.6.5-.2.1-.4.2-.5.4-.1.4.1.7.4 1 1.4 1.8 2 3.6 2 5.8zM215 56.1c0-.1 0-.1 0 0 0-.1 0-.1 0 0zm5.3-4.1c-.4-.7-1.2-1.2-2-1-.9.2-1.6 1.1-2.1 1.9-.6.9-1.2 2-1.1 3.1 1.1-.4 2.3-.7 3.4-1.1.5-.2 1-.3 1.4-.7.5-.5.7-1.5.4-2.2zm-56.7 36.4c-1-.9-2.7-1.2-3.8-.4-1.1.8-1.2 2.8-.1 3.5.3-.7.9-1.3 1.7-1.5.5-.1 1-.1 1.5-.3.4-.2.7-.9.4-1.2l.3-.1zm62.3-19c-.7-.3-1.5-.7-2.2-.6-.8.1-1.5.8-1.4 1.5l-.2-.2c.2.5.4.9.7 1.3.7 1.1 1.6 2.1 2.9 2.3 1.2.3 2.7-.6 2.7-1.9-.1-1.1-1.4-1.9-2.5-2.4z"/><path d="M199.5 84.2c-5.2 3.5-12.2 2.2-15.7-3-1.2-1.7-1.9-3.8-1.9-5.9 0-1 .1-1.9.3-2.8.3-1 .6-1.9.3-2.9-.2-.5-.5-1.3 0-1.6.2-.1.4-.1.6-.1h1.3c.8 0 1.8-.1 2.1-.9.3-.7-.3-1.4-.9-1.8-.6-.4-1.3-.6-1.9-1.1-.5-.5-.8-1.4-.2-1.9s1.5 0 1.9.6.7 1.4 1.3 1.8c1 .8 1.9 0 2.9-.3 1.3-.4 2.6-.6 3.9-.7 1-.1 2.1.2 3.1.6 2.4.8 4.4 2.3 5.8 4.4 1.1 1.7 1.9 3.7 1.9 5.7 0 .7 0 1.2.3 1.9.2.4 1.4 2.1.2 2.1-.4-.2-.8-.4-1.2-.3-.7.2-.9 1.2-.7 1.9.2.7.6 1.4.6 2.1 0 .2 0 .4-.2.6-.1.2-.4.2-.5.1s-.2-.2-.2-.3c-.2-.4-.5-.7-.9-.9-.1-.1-.2-.1-.3-.1-.2 0-.3.3-.3.4-.2 1-.7 1.8-1.6 2.4zm7.3-5.7c0-.1 0-.1 0 0 0-.1 0-.1 0 0zm2.9.9c.2-.3.1-.8-.2-1.1-.3-.3-.8-.3-1.3-.3s-1.1.1-1.5.4c.4.3.9.7 1.3 1 .2.1.4.3.6.4.5.1.9-.1 1.1-.4zm-29.3-12.5c.1-.6-.3-1.4-.9-1.6-.6-.2-1.4.3-1.4.9.4-.1.8 0 1 .3.2.2.3.4.5.5s.5 0 .6-.2l.2.1zm24 19.3c-.1-.4-.1-.7-.4-1-.2-.3-.7-.4-1-.1V85l-.3.6c-.2.5-.4 1.2-.1 1.7.2.5 1 .9 1.4.6.6-.4.5-1.1.4-1.7z" fill="#fff"/><path class="st10" d="M170.9 136.2c-2.2.6-4.3 1.6-6.2 3.1l-.6.6c-.2.2-.3.5-.3.8-.4 1.7.3 3.6 1.7 4.5 1.5.9 3.7.5 4.5-1 .4-.7.5-1.6.5-2.4.2-1.8.4-3.7.4-5.6zm7.4-.6c-.4-.9-1.7-.9-2.7-.7v-.1c-.1.9-.1 1.9.5 2.6.6.7 1.9.8 2.2 0 .1-.2.1-.5.1-.8 0-.4 0-.7-.1-1zm36.2-122.9c-1-.2-2-.4-2.9.1-.6.4-1 1.1-1.1 1.9-.1.7 0 1.5.1 2.2l.3 1.8-.1.3c.1-.5.6-.9 1.1-1.2.6-.3 1.2-.7 1.8-1 .5-.3 1.1-.6 1.5-1.1.4-.9.2-2.4-.7-3z"/></g></svg>