<svg version="1.1" id="Graphics" xmlns="http://www.w3.org/2000/svg" x="0" y="0" viewBox="0 0 500 278.7" xml:space="preserve"><style>.st1{fill:#00c671}.st2{opacity:.2}.st3{fill:#191c3c}.st4{opacity:8.000000e-02;fill:#f5f7f9;enable-background:new}.st5{fill:#1e2022}.st7{fill:#00c9a7}.st9{fill:#7783a0}.st10{fill:#3a3c4e}.st11{fill:#fec55e}.st13{opacity:.3;fill:#191c3c;enable-background:new}.st18{fill:#fff}.st21{opacity:.1;fill:#191c3c;enable-background:new}.st22{fill:#d8ed96}.st25{fill:#d1d3db}.st26{fill:#377dff}.st27{fill:#2d1582}.st28{fill:#474963}.st29{fill:#4d5068}.st31{opacity:.11}.st32{fill:#dae1e9}.st33,.st34{fill:none;stroke:#dae1e9;stroke-width:.5;stroke-miterlimit:10}.st34{stroke-width:1.5}.st35{fill:#e4edf7}.st37{fill:none;stroke:#dae1e9;stroke-width:.4899;stroke-miterlimit:10}.st39{fill:#fed17e}.st42{fill:#dd9c3e}</style><path fill="#f0f1f3" d="M0 0h500v278.7H0z"/><g id="Layer_13_3_"><path class="st1" d="M410.1 122.7s-.1.1 0 0zm1.3-1.2c-1.3-1.3-2.9-2.5-4.7-3-1.8-.5-3.9-.3-5.4.7 2.3 2.4 5.6 3.7 8.8 3.5.5 0 1.9.1 2.3-.2.1-.1-.2-.4-.5-.7-.1 0-.4-.2-.5-.3z"/><g class="st2"><path class="st3" d="M411.9 121.9c-.1-.1-.4-.3-.5-.4-1.3-1.3-2.9-2.5-4.7-3-.9-.2-1.8-.3-2.7-.2 1 0 2.1.3 3 .8 1.6.8 2.9 2.2 4 3.7.5 0 1.2-.1 1.4-.2.1-.1-.2-.5-.5-.7z"/></g><path class="st1" d="M412.9 118.7c.3.8.6 1.9.3 2.6-.2.6-.7 1.4-1.3 1.3-.5-.6-1.5-1.9-2.1-2.4-.5-.4-1.3-.9-1.8-1.3-1.3-1.1-1.7-2.7-2.4-4.2 1.3.1 2.5.4 3.8.7.8.2 1.6.5 2.2 1.1.7.5 1.1 1.3 1.3 2.2z"/><path class="st4" d="M410.2 120.2c-.4-.5-1.2-1.1-1.6-1.6-.9-1.1-1.2-2.4-1.5-3.8-.5-.1-1-.2-1.6-.2.7 1.6 1.2 3.1 2.4 4.2.5.5 1.3.9 1.8 1.3.3.2.7.7 1 1.1 0-.4-.3-.8-.5-1z"/><path class="st1" d="M413.6 114.6c.4 1.2.4 2.4.4 3.7 0 .5.1 1.3 0 1.7-.1.4-.3.8-.6 1.1-.2.3-.4-.1-.6-.3-.2-.3-.5-.7-.3-.6-.2-.7-.3-1.2-.5-1.9-.2-.6-.4-1.1-.5-1.7-.2-1.4 0-2.9.3-4.3.8.6 1.4 1.4 1.8 2.3z"/><path class="st5" d="M402.2 119.4c1.6-.1 3.2 0 4.8.4 1.5.4 2.8 1.1 4.1 2.1.1.1.1-.1.1-.1-1.2-.9-2.6-1.6-4.1-2-1.7-.5-3.3-.5-4.9-.4zm3.9-4.3c1.3.6 2.5 1.4 3.5 2.4 1.1 1.1 1.9 2.4 2.7 3.7h.1c-1.4-2.7-3.4-4.9-6.3-6.1zm5.8-2.3c.9 2.5 1.9 5 1.3 7.7 0 .1.1.1.1 0 .5-2.6-.3-5.3-1.4-7.7z"/><path class="st5" d="M403.4 120.4c.2-.2.3-.4.5-.5.2-.2.4-.3.6-.4-.4.1-.9.4-1.1.9zm1.3.6c.5-.8 1.1-1.1 2-1.2.1 0 .1-.1 0-.1-.8.1-1.7.4-2 1.3zm1.6.1c.5-.4 1-1 1.8-.8 0 0 .1-.1 0-.1-.7-.2-1.3.4-1.8.9zm1.6.9c.5-.6 1.2-1.2 2-.8.1 0 .1-.1 0-.1-.7-.4-1.6.1-2 .9zm-3.7-3.6c.1.5.6.8 1 1.1 0 0 .1 0 0-.1-.4-.2-.8-.5-1-1z"/><path class="st5" d="M405.9 118.5c.2.5.5.9.9 1.3 0 0 .1 0 .1-.1-.4-.3-.7-.7-1-1.2zm1.5.6c.1.2.2.5.4.7.1.2.3.4.5.5h.1v-.1h-.1v.1c.1 0-.2-.3-.2-.3-.1-.1-.1-.2-.2-.2-.2-.3-.4-.5-.5-.7zm1.2.6c.3.5.8 1 1.3 1.4.1.1.1 0 .1-.1-.5-.4-.9-.9-1.4-1.3zm-1.7-2.9c.9-.1 1.7 0 2.5.5.1 0 .1-.1.1-.1-.8-.5-1.8-.7-2.6-.4zm1.4 1.5c.4 0 .9 0 1.3.1s.8.2 1.1.4c.1 0 .1-.1 0-.1-.7-.3-1.6-.6-2.4-.4zm1.7 1.3c.3 0 .6.1.9.1.3.1.6.2.8.5 0 0 .1 0 .1-.1-.2-.2-.4-.4-.8-.5h-1z"/><path class="st5" d="M408.8 115.8c0 .3.2.7.3 1 .1.2.2.5.4.6-.4-.5-.4-1.2-.7-1.6 0-.1 0-.1 0 0zm1.3.4c.1.9.4 1.8.7 2.6h.1c-.4-.9-.5-1.8-.8-2.6 0-.1 0-.1 0 0zm1.5 1.9c0 .8.2 1.6.3 2.3 0 .1.1 0 .1 0-.2-.8-.3-1.6-.4-2.3 0-.1 0-.1 0 0zm0-3.8c.5.6 1 1.3 1.3 2 0 .1.1 0 .1-.1-.3-.7-.8-1.4-1.4-1.9 0-.1 0-.1 0 0zm1.8.1c-.3.6-.3 1.3-.3 2 0 .1.1.1.1 0 0-.4.1-.7.1-1.1 0-.3.1-.6.1-.9zm-1 2.2c.4.6.7 1.3.9 2 0-.8-.4-1.5-.9-2 0-.1 0 0 0 0zm1 2c.2-.5.3-.9.6-1.3 0 0 0-.1-.1 0-.2.3-.5.8-.5 1.3z"/></g><path d="M0 228.8s64.5-37.3 147.5-17.3S275 191 305 173.5s128.5-93.2 195-45.6v150.7H0v-49.8z" fill="#d4dbe3"/><path class="st7" d="M118.1 179.5c.2.1 0 0 0 0zm-1.3-.7c-.2.2-.5.5-.4.5.3.2 1.3.2 1.7.1 2.5.1 5-.9 6.7-2.7-1.2-.8-2.7-.9-4.1-.5-1.4.4-2.6 1.3-3.6 2.3 0 .1-.2.3-.3.3z"/><g class="st2"><path class="st3" d="M116.8 178.8c.1-.1.3-.2.4-.3 1-1 2.2-1.9 3.6-2.3.7-.2 1.4-.3 2-.2-.8 0-1.6.2-2.3.6-1.2.6-2.2 1.7-3 2.8-.4 0-.9 0-1.1-.1-.1 0 .2-.2.4-.5z"/></g><path class="st7" d="M117 174.7c.5-.4 1.1-.6 1.7-.8.9-.3 1.9-.5 2.9-.5-.5 1.2-.9 2.3-1.8 3.2-.4.3-1 .7-1.4 1-.5.4-1.2 1.4-1.6 1.8-.4.1-.8-.5-1-1-.2-.6 0-1.4.2-2 .2-.6.5-1.2 1-1.7z"/><path class="st4" d="M118.1 177.6c.3-.4.9-.8 1.2-1.2.7-.8.9-1.8 1.1-2.8.4-.1.8-.1 1.2-.2-.5 1.2-.9 2.3-1.8 3.2-.4.3-1 .7-1.4 1l-.8.8c.1-.3.3-.7.5-.8z"/><path class="st7" d="M116.9 171.5c.2 1.1.4 2.2.2 3.3-.1.4-.2.9-.4 1.3-.2.6-.2.9-.4 1.4.1-.1-.1.3-.2.5s-.3.5-.5.2c-.2-.2-.4-.5-.4-.8-.1-.3 0-.9 0-1.3 0-.9 0-1.9.3-2.8.3-.7.8-1.3 1.4-1.8z"/><path class="st3" d="M124.1 177c-1.2 0-2.4 0-3.6.3-1.1.3-2.2.9-3.1 1.6-.1 0-.1 0 0-.1.9-.7 2-1.2 3.1-1.6 1.2-.3 2.4-.3 3.6-.2.1 0 .1 0 0 0zm-2.9-3.3c-1 .5-1.9 1.1-2.7 1.9-.8.8-1.4 1.8-2.1 2.8 0 0-.1 0 0 0 1.1-2.1 2.6-3.8 4.8-4.7zm-4.4-1.7c-.6 1.9-1.4 3.8-1 5.8 0 0-.1.1-.1 0-.3-1.9.2-4.1 1.1-5.8z"/><path class="st3" d="M123.3 177.7l-.4-.4c-.2-.1-.3-.2-.5-.3.3.1.7.4.9.7zm-1 .5c-.3-.6-.8-.8-1.5-.9-.1 0 0-.1 0-.1.6.1 1.2.3 1.5 1zm-1.3.1c-.4-.3-.8-.8-1.4-.6.6-.3 1.1.2 1.4.6.1 0 0 0 0 0zm-1.2.6c-.4-.5-.9-.9-1.5-.6 0 0-.1 0 0-.1.6-.2 1.2.2 1.5.7zm2.8-2.7c-.1.4-.4.6-.7.8.3-.2.6-.4.7-.8zm-1.3.1c-.1.4-.4.7-.7 1 0 0-.1 0 0 0 .3-.3.5-.6.7-1zm-1.1.4c-.1.2-.2.3-.3.5-.1.1-.2.3-.4.4v-.1s.2-.2.1-.2l.2-.2c.3 0 .4-.2.4-.4z"/><path class="st3" d="M119.3 177.2c-.2.4-.6.8-1 1.1 0 0-.1 0-.1-.1.4-.3.8-.6 1.1-1zm1.3-2.2c-.7 0-1.3 0-1.9.4 0 0-.1 0 0-.1.5-.3 1.3-.5 1.9-.3zm-1.1 1.1c-.3 0-.6 0-1 .1l-.9.3s-.1 0 0-.1c.7-.2 1.3-.4 1.9-.3zm-1.3 1.1c-.2 0-.5 0-.7.1-.3.1-.4.2-.6.4 0 0-.1 0 0 0 .2-.2.3-.3.6-.4s.5-.2.7-.1c.1-.1.1 0 0 0z"/><path class="st3" d="M119.2 174.2c0 .2-.1.5-.2.7-.1.1-.1.4-.3.4.2-.3.2-.8.5-1.1zm-1.1.3c-.1.7-.3 1.4-.5 2h-.1c.3-.6.5-1.3.6-2 0 0 .1 0 0 0zM117 176c0 .6-.2 1.2-.2 1.7h-.1c.1-.6.2-1.2.3-1.7 0-.1 0-.1 0 0zm0-2.9c-.4.5-.7 1-1 1.5h-.1c.3-.6.6-1.1 1.1-1.5 0-.1 0-.1 0 0zm-1.3.1c.2.4.2 1 .3 1.5h-.1c0-.3 0-.6-.1-.8-.1-.3-.1-.5-.1-.7zm.7 1.6c-.3.5-.5 1-.7 1.5.1-.5.4-1.1.7-1.5zm-.7 1.5c-.1-.3-.2-.7-.4-1 .2.3.3.7.4 1 0 .1 0 .1 0 0z"/><path class="st7" d="M112.6 179.5s-.1.1 0 0zm1-1c-1-1.1-2.3-2-3.7-2.4-1.4-.4-3.1-.3-4.3.6 1.8 1.9 4.4 2.9 7 2.8.4 0 1.5 0 1.8-.1.1-.1-.2-.3-.4-.6 0-.1-.3-.2-.4-.3z"/><g class="st2"><path class="st3" d="M114 178.8c-.1-.1-.3-.2-.4-.3-1-1.1-2.3-2-3.7-2.4-.7-.2-1.4-.3-2.1-.2.8 0 1.6.2 2.4.6 1.3.7 2.3 1.7 3.1 3 .4 0 .9 0 1.1-.2.1 0-.2-.3-.4-.5z"/></g><path class="st7" d="M114.9 176.3c.2.6.5 1.5.2 2.1-.2.5-.6 1.1-1 1-.4-.5-1.2-1.5-1.7-1.9-.4-.3-1-.7-1.4-1-1-.9-1.4-2.1-1.9-3.3 1 .1 2 .3 3 .6.6.2 1.3.4 1.8.9.4.3.7.9 1 1.6z"/><path class="st4" d="M112.7 177.5c-.3-.4-.9-.9-1.2-1.3-.7-.9-.9-1.9-1.2-3-.4-.1-.8-.1-1.2-.2.6 1.2.9 2.4 1.9 3.3.4.4 1 .7 1.4 1 .2.2.5.5.8.9-.1-.2-.3-.5-.5-.7z"/><path class="st7" d="M115.4 173.1c.3.9.3 1.9.3 2.9 0 .4.1 1 0 1.4-.1.3-.3.6-.5.8-.2.2-.3 0-.5-.3-.1-.2-.4-.6-.2-.5-.2-.6-.3-.9-.4-1.5-.2-.4-.3-.9-.4-1.3-.2-1.1 0-2.3.2-3.4.7.5 1.2 1.1 1.5 1.9z"/><path class="st3" d="M106.4 176.9c1.3 0 2.5 0 3.8.3 1.2.3 2.3.9 3.2 1.6.1 0 .1 0 .1-.1-1-.7-2.1-1.3-3.2-1.6-1.4-.3-2.6-.3-3.9-.2zm3.1-3.4c1 .5 2 1.1 2.8 1.9.9.9 1.5 1.9 2.1 2.9 0 0 .1 0 0 0-1.1-2.1-2.7-3.9-4.9-4.8 0-.1 0 0 0 0zm4.5-1.8c.7 2 1.5 3.9 1 6.1 0 0 .1.1.1 0 .4-2.1-.2-4.3-1.1-6.1 0-.1 0 0 0 0z"/><path class="st3" d="M107.3 177.6l.4-.4c.2-.1.3-.2.5-.3-.3.1-.7.4-.9.7zm1 .5c.4-.6.9-.8 1.6-.9.1 0 0-.1 0-.1-.6.1-1.3.3-1.6 1zm1.3.1c.4-.3.8-.8 1.4-.7-.5-.1-1 .3-1.4.7zm1.3.7c.4-.5.9-.9 1.6-.6 0 0 .1 0 0-.1-.6-.3-1.3.1-1.6.7zm-3-2.8c.1.4.4.7.8.9-.3-.3-.6-.5-.8-.9.1 0 0 0 0 0zm1.4.1c.2.4.4.7.7 1 0 0 .1 0 0 0-.3-.3-.5-.7-.7-1zm1.2.4c.1.2.2.4.3.5.1.1.2.3.4.4v-.1c.1 0-.2-.2-.2-.2l-.2-.2c-.1-.1-.2-.2-.3-.4z"/><path class="st3" d="M111.4 177.1c.2.4.6.8 1 1.1 0 0 .1 0 .1-.1-.4-.3-.7-.6-1.1-1zm-1.3-2.3c.7 0 1.3 0 2 .4 0 0 .1 0 0-.1-.6-.3-1.4-.6-2-.3zm1.1 1.2c.3 0 .7 0 1 .1l.9.3s.1 0 0-.1c-.6-.2-1.3-.5-1.9-.3zm1.3 1.1c.2 0 .5 0 .7.1.3.1.5.2.6.4 0 0 .1 0 .1-.1-.2-.2-.3-.3-.6-.4-.2-.1-.5-.1-.8 0 0-.1 0 0 0 0z"/><path class="st3" d="M111.5 174c0 .3.2.5.2.8.1.2.1.4.3.4-.2-.3-.2-.9-.5-1.2.1 0 0 0 0 0zm1.1.3c.1.7.3 1.4.5 2.1h.1l-.6-2.1zm1.2 1.5c0 .6.2 1.2.2 1.8h.1l-.3-1.8zm0-3c.4.5.8 1 1 1.6h.1c-.2-.6-.6-1.2-1.1-1.6 0-.1 0 0 0 0zm1.4.1c-.2.5-.2 1-.3 1.5h.1c0-.3 0-.6.1-.9 0-.1.1-.4.1-.6zm-.8 1.7c.3.5.5 1 .7 1.5 0-.5-.3-1.1-.7-1.5zm.8 1.6c.1-.4.2-.7.5-1 0 0 0-.1 0 0-.3.3-.5.6-.5 1z"/><path d="M463.2 157.1l2.3-2.3c.2-.2.4-.2.6 0l1.2 1.2c1 1 1.4 2.5 1.1 3.9l-.6 2.2" fill="none" stroke="#191c3c" stroke-width=".414" stroke-miterlimit="10"/><path class="st9" d="M453.7 165.2l-.2 1.8-1.7.3.4-3z"/><path class="st9" d="M464.9 166.3l-.4 2.5-11.1-1.8.3-1.8z"/><path class="st10" d="M453.5 166.4l-.1.6 11.1 1.8.1-.5z"/><path transform="rotate(-44.724 463.477 163.1)" class="st9" d="M459.1 157.5h8.7v11.2h-8.7z"/><path transform="rotate(-44.724 461.034 160.637)" class="st3" d="M456.7 160.5h8.7v.3h-8.7z"/><path transform="rotate(-44.724 461.787 161.336)" class="st3" d="M457.4 161.2h8.7v.3h-8.7z"/><path transform="rotate(-29.05 487.4 180.933)" class="st11" d="M485.9 178.4h3v5.1h-3z"/><path fill="#db3f32" d="M479.1 154.2V171l6.5 10 2.9-1.4-5.2-11.5 1.4-11.9z"/><path class="st11" d="M477.1 179.8h3.3v5.1h-3.3z"/><path class="st13" d="M482.5 167.7l1.3-3.7.9-7.8-5-1.8-.6 4.4V171l2.7 4.1z"/><path d="M486.5 149.5l.3.5c.2.5.3 1 .3 1.5l-.1 3.3c-.1 1.4-.5 2.9-1.3 4.1l-1.9 3-2 5.8-1.2 12.7h-3.8l.8-12.3-.2-.6c-.2-.6-.2-1.2-.1-1.8l1.7-11.5-1.2-3.2 8.7-1.5z" fill="#de4437"/><path class="st11" d="M468.8 135.3c0-.5 0-1-.2-1.5-.3-.5-.8-.9-1.3-1.2-1.2-.7-2.7-1.1-4.1-1.2v.1c-.1.8.3 1.5.6 2.3.7 1.5 1.3 3.2 1.2 4.9-.1 1.6-.9 3-1.7 4.3.4-.5.9-1 1.5-1.5-.3 1-.7 1.9-1.2 2.8 1.1-.6 1.7-1.8 2.3-2.9-.1 1-.3 1.9-.8 2.8.8-.9 1.4-1.9 1.9-3 .1.8-.1 1.7-.5 2.4.8-1.1 1.6-2.2 2-3.5.3-1.6.3-3.2.3-4.8z"/><path class="st13" d="M468.8 135.3c0-.5 0-1-.2-1.5-.3-.5-.8-.9-1.3-1.2-1.2-.7-2.7-1.1-4.1-1.2v.1c-.1.8.3 1.5.6 2.3.5 1.2 1.1 2.5 1.2 3.8.6.5 1.6.4 2.1-.3l.3-.4 1.4.6v-2.2z"/><path transform="rotate(-66.989 468.756 135.173)" class="st11" d="M467.3 133.6h2.9v3.2h-2.9z"/><path class="st13" d="M468.9 133.5l-.9 2.9-1.4-.5 1.2-2.7z"/><path class="st11" d="M461.3 131.8l1.3 2.2.3.3v1.5h.8l1.1 1c.6.6 1.7.5 2.2-.2l2.4-3.5-1.7-4s-5.2-1.7-6.4 2.7z"/><linearGradient id="SVGID_1_" gradientUnits="userSpaceOnUse" x1="461.089" y1="931.85" x2="461.208" y2="931.85" gradientTransform="translate(0 -800)"><stop offset="0" stop-color="#ffc107"/><stop offset="1" stop-color="#de4437"/></linearGradient><path d="M461.2 131.9l-.1-.1.1.1z" fill="url(#SVGID_1_)"/><linearGradient id="SVGID_2_" gradientUnits="userSpaceOnUse" x1="461.208" y1="932.05" x2="461.489" y2="932.05" gradientTransform="translate(0 -800)"><stop offset="0" stop-color="#ffc107"/><stop offset="1" stop-color="#de4437"/></linearGradient><path d="M461.5 132.2l-.3-.3.3.3z" fill="url(#SVGID_2_)"/><linearGradient id="SVGID_3_" gradientUnits="userSpaceOnUse" x1="460.977" y1="930.787" x2="476.397" y2="930.787" gradientTransform="translate(0 -800)"><stop offset="0" stop-color="#ffc107"/><stop offset="1" stop-color="#de4437"/></linearGradient><path d="M475.5 133.3c-.9-.7-2.3-.7-2.9-1.7-.1-.2-.2-.5-.4-.7-.5-.5-1.4-.4-1.9-1-.2-.3-.2-.6-.3-.9-.2-.5-.5-.9-.9-1.2-.3-.2-.7-.4-1.1-.5-.4-.2-.8-.3-1.2-.5-.4-.2-.8-.3-1.2-.4-.6-.1-1.2.1-1.7.3-.3.1-.6.2-.8.3-.8.5-1.2 1.4-1.5 2.2-.3.6-.6 1.3-.5 2 0 .2.1.4.2.5.5.4 1.2.3 1.8.2.6-.1 1.3-.3 1.9-.2.5.1 1 .2 1.5.2s.9.4 1.2.8c.3.4.6.8 1.1 1.1.3.2.6.3.9.3.3.1.6.1.9.1.5 0 .9-.3 1.4-.4.5-.2.9-.3 1.4-.4h.7c.3.1.6.3.8.5.3.2.6.5.9.7.2.2.6.3.7.6 0-.6-.4-1.5-1-1.9z" fill="url(#SVGID_3_)"/><path class="st13" d="M487.1 151.5c0-.3 0-.6-.1-.9l-.3-.8-.2-.4-8.6 1.5.8 2.2 8.4-.5v-1.1z"/><path class="st18" d="M470 134.2l2.5-.7h1.3c1 0 2 .3 2.8 1l3.9 3.2c1.4 1.2 2.5 2.6 3.3 4.3l3.8 9.9-9.5 1.4L474 141l-3.5-1.9-1-1.9.5-3z"/><path class="st11" d="M471.2 187.4l.1-.3c.3-.6.8-1.2 1.4-1.5l2.6-.9 1.7-1.1v.9h2l.8-.5h.6v3.4h-9.2z"/><path class="st3" d="M471 187.4h9.9v.5H471z"/><path class="st11" d="M483.4 187.9v-.5c.1-.7.1-.7.5-1.2l1.7-1.8 1-1.6.4.8 1.6-.9.5-.7.5-.2 1.4 2.8-6.6 3.3h-1z"/><path transform="rotate(-26.925 488.411 186.041)" class="st3" d="M484.9 185.8h7v.5h-7z"/><path class="st3" d="M483.4 187.9h2l.7-.5h-2.7z"/><path class="st18" d="M472.1 186h6.5v-.3h-6.2c0 .1-.1.2-.3.3zm1.5-.8h6.8v-.3h-6zm16.2-2.9l-4.5 2.4-.5.6 5.1-2.8zm-1.1 1.4l-4.9 2.6c-.1.2-.2.3-.3.4l5.2-2.8v-.2z"/><path d="M486.3 156.9c-.4 1.4-1.2 2.4-2.6 3-.3.1-.5.6-.3.9l-.6.3c-.4.2.2.4.6.5.8.1-.4.8-.5 1.3-.1.6-.4 1.2-.5 1.8s-.1 1.1 0 1.6l1.5-4.4 1.9-3c.5-.7.8-1.5 1-2.4-.2 0-.4.2-.5.4zm-4.4 10.6c-.4 0-.8-.1-1.1-.2-.7-.2-.1.5.6.8.2.1-.6.4-.4.5 0 0-.6.3-.6.4-.5.3.2.6.7.7-.1.1-.1.2-.2.4-.3.9.1 2.4.2 3.3 0 .2.1.3.2.4l.6-6v-.3z" fill="#41446b" opacity=".3"/><path class="st21" d="M477.8 147.8c-.2 0-.8-.2-1-.2.1-.1.6-.5.5-.6-.9-.2-1.5-.8-1.6-1.8 0-.2-.2-.3-.4-.2l.7 2c.1.1.3.2.4.2 0 0-.1 0-.1.1-.1 0-.1.1-.1.1l.1.4h.2c-.1 0-.1.1-.1.2l.1.3s.5 1.2.6 1.8l.8 2.3c0-1-.1-2.1-.3-3.1-.1-.4-.1-.8-.3-1 .3-.1.6-.1.9-.2.2-.2-.1-.3-.4-.3z"/><path class="st11" d="M472.6 144.5l.5 3.8-4.9 6.3-1.6-.2-1.5.8-.4.7.2 1.8 2.9.3 1.6-1.9 6.6-6.1c.2-.2.3-.5.3-.8l-.5-5.1-3.2.4z"/><path class="st13" d="M475.9 144l-3.3.5.1.4 3.2-.4z"/><path class="st18" d="M476.2 138.9l-.6 1.6.6 3.5-4.1.5-1.6-5.5.7-1.8z"/><path class="st21" d="M475.8 143.4c-.2-1-.1-1.7-.4-2.7-.1-.5-.2-.6-.4-.7.2-.1.2-.3.1-.4.3-.2.3-.6.6-.8.3-.2.2-.3-.1-.2-.4.2-.8.4-1.1.7-.1.1-.2.3-.1.4-.1 0 0 .3-.1.3-.2.1-.3.2-.1.3.6.3.7.9.8 1.5.2.7.3 1.4.5 2.1.2.4.4-.2.3-.5z"/><g id="Layer_13_2_"><path class="st22" d="M441 175.3s-.2.2 0 0zm2.2-2.1c-2.3-2.4-5-4.4-8.2-5.2-3.1-.9-6.7-.6-9.5 1.2 3.9 4.2 9.7 6.5 15.5 6.2.8.1 3.2.1 3.9-.3.2-.1-.4-.7-.8-1.2-.1-.2-.7-.6-.9-.7z"/><g class="st2"><path class="st3" d="M444.1 173.8c-.2-.2-.7-.5-.8-.6-2.3-2.4-5-4.4-8.2-5.2-1.5-.4-3.1-.6-4.7-.4 1.8.1 3.6.6 5.2 1.4 2.9 1.5 5.1 3.8 6.9 6.5 1 0 2-.1 2.4-.3.2-.3-.3-.9-.8-1.4z"/></g><path class="st22" d="M445.9 168.2c.5 1.3 1.1 3.3.5 4.6-.4 1-1.2 2.5-2.2 2.3-.8-1.1-2.6-3.4-3.7-4.2-.9-.7-2.3-1.5-3.2-2.3-2.2-2-3-4.7-4.3-7.4 2.2.2 4.4.6 6.6 1.2 1.4.4 2.8.9 3.9 1.9 1.3 1 1.9 2.5 2.4 3.9z"/><path class="st4" d="M441.2 170.9c-.8-.9-2-1.9-2.8-2.8-1.5-2-2-4.2-2.6-6.6-.9-.2-1.8-.3-2.8-.4 1.2 2.7 2.1 5.4 4.3 7.4.8.8 2.3 1.6 3.2 2.3.5.4 1.2 1.2 1.8 1.9-.3-.7-.7-1.4-1.1-1.8z"/><path class="st22" d="M447.1 161.2c.8 2 .7 4.3.7 6.4 0 .8.2 2.2 0 3-.2.7-.6 1.3-1 1.9-.4.5-.8-.1-1.1-.6-.3-.5-.8-1.2-.6-1.1-.4-1.2-.6-2-.9-3.3-.3-1-.6-2-.8-3-.4-2.5.1-5 .6-7.5 1.4 1.1 2.4 2.6 3.1 4.2z"/><path class="st5" d="M427.2 169.6c2.8-.1 5.6 0 8.4.8 2.6.7 5 2 7.1 3.6.1.1.2-.1.1-.2-2.1-1.6-4.6-2.8-7.2-3.6-2.8-.8-5.6-.8-8.4-.6-.1-.1-.1 0 0 0zm6.8-7.6c2.3 1.1 4.4 2.5 6.2 4.3 2 1.9 3.3 4.2 4.7 6.5 0 .1.2 0 .1-.1-2.4-4.7-6-8.7-11-10.7 0-.1 0 0 0 0zm10.1-4c1.5 4.4 3.2 8.7 2.2 13.5 0 .1.1.2.2 0 .9-4.5-.4-9.4-2.4-13.5z"/><path class="st5" d="M429.2 171.2c.3-.3.6-.6 1-.9.4-.3.7-.5 1.1-.7v-.1c-.8.3-1.6 1-2.1 1.7zm2.3 1.1c.8-1.4 2-1.9 3.5-2 .1 0 .1-.2 0-.2-1.5.2-3 .7-3.5 2.2zm2.9.2c.9-.7 1.8-1.8 3.1-1.5.1 0 .1-.1 0-.1-1.3-.3-2.3.8-3.1 1.6-.1 0-.1 0 0 0zm2.8 1.5c.8-1.1 2.1-2 3.5-1.3.1 0 .2-.1.1-.1-1.5-.8-2.9.1-3.6 1.4-.1 0 0 0 0 0zm-6.6-6.2c.2.9 1 1.5 1.7 2 .1 0 .1-.1.1-.1-.7-.5-1.5-1-1.8-1.9.1-.1 0 0 0 0zm3.1.2c.3.9.9 1.6 1.6 2.3.1.1.2 0 .1-.1-.8-.7-1.3-1.4-1.7-2.2 0 0-.1 0 0 0z"/><path class="st5" d="M436.2 169l.6 1.2c.2.3.5.8.8.9h.1v-.1h-.1v.1c.1 0-.3-.5-.3-.5-.1-.2-.2-.3-.4-.4-.2-.5-.5-.9-.7-1.2zm2.1 1c.6 1 1.4 1.8 2.3 2.5.1.1.2-.1.2-.2-1-.6-1.7-1.5-2.5-2.3zm-2.9-5c1.6-.1 3 0 4.3.8.1.1.2-.1.1-.2-1.2-.8-3-1.3-4.4-.8-.1.1-.1.2 0 .2zm2.4 2.6c.8 0 1.5 0 2.2.2s1.3.4 2 .6c.1 0 .1-.1 0-.2-1.3-.4-2.8-1-4.2-.6zm3 2.3c.5 0 1.1.1 1.6.2.6.1 1 .4 1.4.9.1.1.2 0 .1-.1-.4-.4-.7-.7-1.3-.9-.6-.1-1.2-.2-1.8-.1z"/><path class="st5" d="M438.6 163.2c0 .6.3 1.2.6 1.7.2.3.3.9.7 1 0 0 .1 0 0-.1-.7-.6-.7-1.8-1.3-2.6.1-.1 0-.1 0 0zm2.4.6c.2 1.6.6 3.1 1.2 4.6 0 .1.2 0 .1 0-.6-1.5-.9-3-1.3-4.6zm2.6 3.4c0 1.3.3 2.7.6 4 0 .1.2.1.2 0-.4-1.4-.6-2.7-.8-4 0-.1 0-.1 0 0zm0-6.7c1 1.1 1.7 2.2 2.3 3.5.1.1.2 0 .2-.1-.6-1.3-1.4-2.4-2.5-3.4 0-.1 0 0 0 0z"/><path class="st5" d="M446.7 160.8c-.5 1-.6 2.3-.6 3.4 0 .1.2.1.2 0 0-.6.1-1.2.2-1.9 0-.5.2-1 .2-1.5.1-.1 0-.1 0 0zm-1.7 3.8c.7 1.1 1.2 2.2 1.6 3.4h.1c-.2-1.2-.9-2.5-1.7-3.4 0-.1-.1 0 0 0zm1.7 3.5c.3-.8.6-1.6 1-2.3 0-.1-.1-.1-.1-.1-.4.7-.8 1.5-.9 2.4z"/></g><path d="M0 218.9s104.3-64.7 176.8-36.9 170.4 15.7 170.4 15.7v81H0v-59.8z" fill="#d4dee8"/><linearGradient id="SVGID_4_" gradientUnits="userSpaceOnUse" x1="0" y1="1006.331" x2="500" y2="1006.331" gradientTransform="translate(0 -800)"><stop offset="0" stop-color="#dae1e9"/><stop offset="1" stop-color="#f0f1f3"/></linearGradient><path d="M0 170.5s66.6 50.7 193.5 5c28.2-10.2 56.1-21.2 84.4-31.2 17.5-6.2 36.2-10.7 54.9-10.2 18.4.6 36.4 5.7 53.3 12.9 9.6 4.2 18.9 9.1 27.9 14.4 8.6 5.1 16.7 11.2 26 15.1 8.3 3.4 17 5.5 25.9 6.6 6.5.8 13.1 1.2 19.6 1.4 4.8.1 9.7.1 14.5.1v94H0V170.5z" fill="url(#SVGID_4_)"/><path class="st25" d="M371.3 208.3l-4.6-.1-.4-.3h-.1l23-13 1.2-.5h-.2c.4-.1.7-.2.9-.3l4.2-2.2 1.3-.7 5.7-1.8-4.5 3.1c-.1.2.2.3.7.4.7.1 2.2 0 3.2-.3l11.3-2.8h-.4l.7-.2 11.3-1.4c-.2-.1-.9-.1-1.7-.1l-2.2.3h-.5c-.4 0-1 0-1.5.1l-1.1.1-3.2.2c-.9.1-1.8.2-2.5.4l-1.5.4h.2-.5l-5.1 1.1 4.4-2.3c.8-.4.7-.8-.2-1l-5.1-1.1c1.3-.3 2.6-.7 3.3-.9.4-.1.5-.2.7-.4l.8-.1s1.8-.4 1.9-.6v-.1c.7-.3 1.2-.5 1.9-.8.2-.1.5-.2.6-.3s.1-.1.1-.2.1-.3.1-.4c.1-.2-.5-.2-1.1-.3s-1-.2-1.7-.2c-.5 0-1.1 0-1.6.1-.2 0-.5.1-.7.1h-1c-.8 0-1.9.2-2.6.4-.1 0-.2.1-.3.1-.1 0-.3 0-.4.1-1.6.3-2 .7-2.5 1-.2.1-.5.2-.6.4-.4 0-.8.1-.8.1-1 .3-.9.6-.9.6l.6.1c-.1 0-.1.1-.2.1s-.2.1-.3.1c-.5.2-.7.4-.8.5l-.9.4-10.7 1.2c-1.9.2-3.7.6-4.8 1l-5.8 2.3-.1-1.1h-.5l.3-.4c.1-.2-.1-.3-.7-.4l-2.3-.2-.5-.1c-.3-.1-.7-.1-1.2-.1h-.7l-1.1-.3c-.4-.1-1.2-.1-1.9.1l5.2 1.4-.2.2h-.6l-1.4 2.8c-.1.3.8.4 2.1.3.8-.1 1.7-.2 2.5-.4l6.9-2.3-1.3.6-1.1.5-.6.2-3.9 1.6-2.2.9c-.2.1-.4.2-.3.3l-.9.4-20 7.2-13.3 5.9h-.6l-1.5.3-5.3.1c-1.4.1-1.7.2-2.7.5l-.3.1h10.2l1.3-.2-.5.2h3.4l2.1-.9h-.2l6.1-2.5 6.6-2.7 17.5-5.3-.1.1-.1.1-6.7 5.3-8.1 5h-.1l-2.1.9h3.4l.5-.2.2.2h10.2l.1-.1c.4-.2.3-.2-.6-.3z"/><path class="st26" d="M340 147.3l-4.5 31.8-.1 25.9h6.8l1.4-22.6 6.4-22.9 5.8 23.4 3.5 22.1h7.2l-7-57.7z"/><path id="XMLID_16_" class="st27" d="M335 204.7l-1.1 1.1-5.5.6c-1.3.4-1.5.7-1.9 2l-.1.3h11.4l.8-1v1h3.8v-4.1h-3l-4.4.1z"/><path id="XMLID_15_" class="st27" d="M366.6 204.7l1.1 1.1 5.5.6c1.3.4 1.5.7 1.9 2l.1.3h-11.4l-.8-1v1h-3.8v-4.1h3l4.4.1z"/><path class="st28" d="M347.2 110.7l-7.7 4.3.7 18.2-.6 11.9c-.1 1.2.9 2.2 2.1 2.2h15.9c1.3 0 2.2-1.1 2.1-2.3l-1-12.3 3.9-17.2-8.6-4.8h-6.8z"/><path class="st11" d="M354 111l-3.4 6.2-3.4-6.2v-4.5h6.8z"/><path class="st29" d="M357 97.3c-.1-.3-.2-.6-.3-.8-.3-.5-.6-1.1-.8-1.6-.5-1-1-.8-1.9-1.1-.8-.3-1.6-.8-2.5-.9-.6 0-1.1.2-1.6.4l-.6.3c-.4.1-.8 0-1.2 0-.9 0-1.8.7-2 1.6 0 .1-.1.3-.1.4l-.3.3c-1.2 1.1-.5 3-.3 4.4.1.8 0 1.6.7 2.2l-.3-.1c.8.8 1.8 1.2 2.9 1.4 1.1.2 2.2.2 3.3.2h3.9c.2 0 .5 0 .7-.2s.3-.5.3-.8c.2-1.5.1-3 .2-4.5-.1-.5 0-.9-.1-1.2z"/><path class="st13" d="M347.2 109.1l1 1.7c.6 1.1 1.8 1.8 3.1 1.8 1.1 0 2.2-.5 2.8-1.4v-4.6h-6.9v2.5z"/><path class="st11" d="M346.6 99.6v5.2c0 1.2.3 2.3.9 3.4l1 1.7c.6 1.1 1.8 1.8 3.1 1.8 1.2 0 2.4-.6 3-1.7l.2-.3c.6-1 1-2.3 1-3.5v-9.6h-9l-.2 3z"/><path class="st11" d="M346.7 105.6l-1-.6s-1.1-1.6-.6-2.7c0 0 .4-.9 1.1-.5l1 1-.5 2.8zm8.8 0l1-.6s1.1-1.6.6-2.7c0 0-.4-.9-1.1-.5l-1 1 .5 2.8z"/><path class="st29" d="M346.3 100.5c.1.8.2 1.6.2 2.5 0 .3-.1 1.3.5 1 .2-.1.3-.3.3-.5.1-.8-.6-1.5-.2-2.2.3-.5.9-.9 1-1.5.1-.4-.1-.9-.2-1.3 0-.3 0-.7.2-1s.6-.4.9-.3.5.4.8.6c.6.5 1.4.7 2.1.4.4-.2.8-.5 1.2-.7.4-.3.9-.4 1.3-.3.7.2.9.9 1.1 1.6.1.7.3 1.5.2 2.2-.1.6-.4 1.1-.5 1.7 0 .1-.1.3-.1.4 0 .3.2.5.3.7 0 0 0 .1.1.1s.1 0 .2-.1c.4-.3.5-.9.6-1.4.1-.7.4-1.1.2-1.8-.3-1.4.1-2.8-.2-4.2 0-.1-.1-.3-.1-.4-.1-.1-.3-.2-.4-.3-2-.7-4.1-.6-6.2-.5-.7 0-1.5.1-2.1.5-.7.5-1.1 1.3-1.3 2.2-.1.8 0 1.7.1 2.6z"/><path class="st11" d="M328.3 126.2l-.3-.9-9.2-5.9c.5-.5 1.4-.6 2-.2l1.8 1.1.7-.1c.5-.1 1.1 0 1.6.3l.9.6 3.1.9c.8.2 1.5.9 1.8 1.7l.7 1.7-3.1.8zm44.6 0l.3-.9 9.2-5.9c-.5-.5-1.4-.6-2-.2l-1.8 1.1-.7-.1c-.5-.1-1.1 0-1.6.3l-.9.6-3.1.9c-.8.2-1.5.9-1.8 1.7l-.7 1.7 3.1.8z"/><path class="st28" d="M347.2 110.7l-9.1 5.1c-1.6.9-2.7 2.5-2.8 4.4l-.8 9.9-2.9-4.8-3.9 1.2 5.5 12.3c.5 1.1 1.9 1.6 3 1.1.7-.4 1.4-.9 1.8-1.8l2.9-14.6 6.3-9.3v-3.5zm6.8 0l9.1 5.1c1.6.9 2.7 2.5 2.8 4.4l.8 9.9 2.9-4.8 3.9 1.2-5.5 12.3c-.5 1.1-1.9 1.6-3 1.1-.7-.4-1.4-.9-1.8-1.8l-2.9-14.6-6.3-9.3v-3.5z"/><path class="st27" d="M339.9 146.3h19.8v3h-19.8z"/><path class="st11" d="M347.9 146.3h3.4v3h-3.4z"/><path d="M358.8 132.7l1.8-8c-.6.9-1.1 1.9-1.6 2.9-.2.4 0 .8.3 1-.4.9-1.9 2.4-2.5 3-.5.5.9.6 1.5.4h.1c-.4.7-.8 1.4-1.3 2-.3.4-1.1 1-.6.9.4-.1 1.7.2 2.1.1-.2.5-.3.9-.5 1.4s.1 1 .5 1.1c-.3 0 .1 2.8.2 3.1.2.9.4 1.5.8 2.1l-.4-6.9v-.1l-.4-3zm-16.9 1.8c-1.6-.8-2-1.6-1.4-2.4.6.2 1.5 0 2.1.2.4.1.2-.4-1.1-.5.2 0-1.4-2-.8-2 .3 0 .5-.4.4-.7-.7-1.2-.8-2.9-1.2-4.3l.2 6.1c.1.1.3.2.4.4-.1 0-.3-.1-.4-.1l.1 2.1v.7c.1.1.1.2.2.3h-.2l-.4 9.2c.1-.1.2-.2.2-.3 0-1.9.6-3.5.8-5.3.1-.6-.4-2.8.9-2.5.3 0 .6-.7.2-.9z" opacity=".17" fill="#191c3c"/><path class="st18" d="M347.2 110.7l-2 1.2 2.3 8.4 3.1-3.1zm6.8 0l2.1 1.2-2.4 8.4-3.1-3.1z"/><circle class="st3" cx="350.6" cy="120.2" r=".4"/><path class="st3" d="M350.8 124.8c0 .2-.2.4-.4.4s-.4-.2-.4-.4.2-.4.4-.4.4.2.4.4zm-.2 4.5c0 .2-.2.4-.4.4s-.4-.2-.4-.4.2-.4.4-.4c.3.1.4.2.4.4z"/><circle class="st3" cx="350.1" cy="133.9" r=".4"/><circle class="st3" cx="349.9" cy="138.5" r=".4"/><path class="st3" d="M350.1 143c0 .2-.2.4-.4.4s-.4-.2-.4-.4.2-.4.4-.4c.3.1.4.2.4.4z"/><g class="st31"><path class="st3" d="M343.6 182.4l-.7 11.6c-.1.1-.2.1-.3.2-.1-3.6-.7-7.2-1.7-10.6.6-.2 1.2-.6 1.6-1.1-.4 0-.8-.1-1.2-.1.3-.2.6-.5.7-.8h-2.7c2.5-.6 4.4-3 4.3-5.5-.3.1-.7 0-1-.2.9-1.4 1.8-2.8 2.7-4.3.2-.2.3-.5.2-.8-.5.4-1 .7-1.6.8.7-.8 1.4-1.7 1.7-2.7.4-1.2.3-2.5.5-3.7.4-2.3 1.8-4.3 3.8-5.4l-6.3 22.6zm6.5-22.2v-.5l-.1-.1.1.6z"/></g><g class="st31"><path class="st3" d="M366.3 203.3l-6.6-54.9h-.2l-.1.3c-.3 3.6-.3 7.2.3 10.7.3 2.1.8 4.2.3 6.3-.1.7-.4 1.2-.7 1.9-.3.8-.4 1.8-.5 2.6-.2.9-.3 1.7-.4 2.6-.1.9-.3 1.8-.3 2.8 0 .1 3.5-.7 3.9-1.1-.3 1.6-.9 3.3-1.5 4.8.4-.8.9-1.6 1.6-2.2-.6 1.1-.9 2.3-1.1 3.6.7-.1 1.4-.2 2.2-.2-.6 1.4-1.2 2.7-1.9 4.1.8-.4 1.5-.8 2.3-1.2-.2 3.4-.4 6.8-.6 10.1-.1 1.3-.1 2.6.4 3.8.4.9 1 1.6 1.5 2.4.8 1.4 1.2 3.1 1 4.7.1-.3.2-.7.4-1.1z"/></g><path class="st29" d="M349.2 107c-.1.3-.2.5-.3.8-.1.2-.4.5-.7.4-.3-.1-.4-.5-.4-.8-.1-.9.1-1.7-.2-2.6-.1-.2-.2-.4-.2-.7v-.7c0-.2-.2-.4-.4-.4s-.4.2-.4.4v.6c.2 1 .3 1.9.2 2.8-.1 1 .3 1.9.6 2.8.1.3.2.6.4.9.4.7 1.2 1.2 2 1.4.8.2 1.7.2 2.5.2.5 0 1.1 0 1.6-.2 1.5-.6 1.9-3.4 2.1-4.8.1-.6-.1-1.1-.1-1.7-.1-.7.2-1.5.3-2.2 0-.1 0-.2-.1-.3-.1-.1-.3-.1-.3-.2-.2.2-.5.5-.6.8v.4c0 .6 0 1.2-.1 1.7-.2.7-.4 1.3-.5 2 0 .3-.1.7-.5.8-.2.1-.5-.1-.6-.4-.1-.2-.1-.5-.1-.8s0-.5-.2-.7c-.2-.3-.6-.3-1-.3-.9 0-2.4-.5-3 .8z"/><g id="Clouds"><path id="XMLID_198_" class="st18" d="M113.3 71.4c-.6-1.7-2.2-3-4.1-3-.8 0-1.6.2-2.2.7-.4-2.7-2.7-4.8-5.6-4.8-2.5 0-4.7 1.7-5.4 4-.3-.1-.7-.1-1-.1-1.9 0-3.5 1.4-3.8 3.3h-.6c-1.6 0-2.9 1.3-2.9 2.9v.2c0 1.6 1.3 2.9 2.9 2.9h22.7c1.6 0 2.9-1.3 2.9-2.9v-.2c0-1.7-1.3-3-2.9-3z"/><path id="XMLID_181_" class="st18" d="M59.5 56c-.4-1.2-1.6-2.1-2.9-2.1-.6 0-1.1.2-1.6.5-.3-1.9-2-3.4-4-3.4-1.8 0-3.3 1.2-3.8 2.8-.2-.1-.5-.1-.7-.1-1.4 0-2.5 1-2.7 2.3h-.5c-1.1 0-2.1.9-2.1 2.1v.2c0 1.1.9 2.1 2.1 2.1h16.2c1.1 0 2.1-.9 2.1-2.1v-.2c-.1-1.2-1-2.1-2.1-2.1z"/><path id="XMLID_190_" class="st18" d="M143.1 49c-.5-1.5-1.9-2.6-3.5-2.6-.7 0-1.4.2-1.9.6-.4-2.4-2.4-4.2-4.8-4.2-2.2 0-4.1 1.5-4.7 3.5-.3-.1-.6-.1-.9-.1-1.7 0-3.1 1.2-3.3 2.8h-.5c-1.4 0-2.5 1.1-2.5 2.5v.2c0 1.4 1.1 2.5 2.5 2.5h19.8c1.4 0 2.5-1.1 2.5-2.5v-.2c-.2-1.4-1.3-2.5-2.7-2.5z"/><path id="XMLID_178_" class="st18" d="M143.4 84.5c-.3-.8-1-1.3-1.8-1.3-.4 0-.7.1-1 .3-.2-1.2-1.2-2.2-2.5-2.2-1.1 0-2.1.8-2.4 1.8-.1 0-.3-.1-.5-.1-.9 0-1.6.6-1.7 1.5h-.3c-.7 0-1.3.6-1.3 1.3v.1c0 .7.6 1.3 1.3 1.3h10.3c.7 0 1.3-.6 1.3-1.3v-.1c-.1-.7-.7-1.3-1.4-1.3z"/><g id="XMLID_141_"><path id="XMLID_151_" class="st32" d="M366.1 37.8h-.2c-.8-2.7-3.2-4.6-6.1-4.6-1.3 0-2.4.4-3.4 1-.6-4.2-4.3-7.4-8.6-7.4-3.9 0-7.2 2.6-8.3 6.1-.5-.1-1-.2-1.6-.2-3 0-5.5 2.2-5.9 5.1h-1c-2.5 0-4.5 2-4.5 4.5v.3c0 2.5 2 4.5 4.5 4.5h35.2c2.5 0 4.5-2 4.5-4.5v-.3c-.1-2.5-2.2-4.5-4.6-4.5z"/><path id="XMLID_150_" class="st18" d="M362 38.9h-.2c-.7-2.3-2.8-4.1-5.4-4.1-1.1 0-2.2.3-3 .9-.6-3.7-3.8-6.5-7.6-6.5-3.5 0-6.4 2.3-7.4 5.4-.4-.1-.9-.2-1.4-.2-2.6 0-4.8 1.9-5.2 4.5h-.8c-2.2 0-3.9 1.8-3.9 3.9v.3c0 2.2 1.8 3.9 3.9 3.9h31c2.2 0 3.9-1.8 3.9-3.9v-.3c0-2.1-1.8-3.9-3.9-3.9z"/></g></g><g id="Plane"><path id="XMLID_196_" class="st18" d="M113.2 53.1h-8.6l-4-7.8c-.3-.6.1-1.3.8-1.3h3c.3 0 .5.1.7.3l8.1 8.8z"/><path id="XMLID_195_" class="st18" d="M113.2 53.1h-8.6l-4-7.8c-.3-.6.1-1.3.8-1.3h3c.3 0 .5.1.7.3l8.1 8.8z"/><path id="XMLID_194_" class="st32" d="M102.3 43.9h-.9c-.7 0-1.1.7-.8 1.3l4 7.8h3.3l-5.5-8.8s0-.1-.1-.3z"/><path id="XMLID_193_" class="st33" d="M113.2 53.1h-8.6l-4-7.8c-.3-.6.1-1.3.8-1.3h3c.3 0 .5.1.7.3l8.1 8.8z"/><path id="XMLID_175_" class="st18" d="M143 56.1h-.8c-.7-2-2.6-3.4-4.9-3.4h-35c0 4.8 3.9 8.7 8.7 8.7h32c1.3 0 2.4-1.1 2.4-2.4v-.5c0-1.3-1-2.4-2.4-2.4z"/><path id="XMLID_174_" class="st32" d="M143 59.4h-32c-4.1 0-7.6-2.9-8.5-6.7h-.3c0 4.8 3.9 8.7 8.7 8.7h32c1.3 0 2.4-1.1 2.4-2.4v-.5c0-.3-.1-.5-.1-.8-.2 1-1.1 1.7-2.2 1.7z"/><path id="XMLID_173_" class="st33" d="M143 56.1h-.8c-.7-2-2.6-3.4-4.9-3.4h-35c0 4.8 3.9 8.7 8.7 8.7h32c1.3 0 2.4-1.1 2.4-2.4v-.5c0-1.3-1-2.4-2.4-2.4z"/><path id="XMLID_172_" class="st18" d="M112.4 55.5h-10.1c-.6 0-1.2-.5-1.2-1.2v-.4c0-.6.5-1.2 1.2-1.2h10.1c.6 0 1.2.5 1.2 1.2v.4c-.1.7-.6 1.2-1.2 1.2z"/><path id="XMLID_171_" class="st18" d="M132 62.5h-12.4c-.6 0-1.2-.5-1.2-1.2v-.9c0-.6.5-1.2 1.2-1.2H132c.6 0 1.2.5 1.2 1.2v.9c0 .6-.5 1.2-1.2 1.2z"/><path id="XMLID_170_" class="st33" d="M112.4 55.5h-10.1c-.6 0-1.2-.5-1.2-1.2v-.4c0-.6.5-1.2 1.2-1.2h10.1c.6 0 1.2.5 1.2 1.2v.4c-.1.7-.6 1.2-1.2 1.2z"/><path id="XMLID_169_" class="st33" d="M132 62.5h-12.4c-.6 0-1.2-.5-1.2-1.2v-.9c0-.6.5-1.2 1.2-1.2H132c.6 0 1.2.5 1.2 1.2v.9c0 .6-.5 1.2-1.2 1.2z"/><path id="XMLID_167_" class="st34" d="M135.1 55.5h4.4"/><path id="XMLID_166_" class="st34" d="M130 55.5h2.2"/><path id="XMLID_4_" class="st34" d="M126.5 55.5h2.2"/><path id="XMLID_3_" class="st34" d="M123 55.5h2.1"/><path id="XMLID_2_" class="st34" d="M119.4 55.5h2.2"/><path id="XMLID_1_" class="st34" d="M115.9 55.5h2.2"/></g><g id="Paarachute"><g id="XMLID_893_"><path id="XMLID_906_" class="st32" d="M457.3 54.8h2v-.1c0-.7 1-1.9 1.6-2.5.7-.8 1.2-2 1.2-3.2 0-2.7-2.2-4.8-4.8-4.8v10.6z"/><path id="XMLID_903_" class="st18" d="M457.3 54.8h-2v-.1c0-.7-1-1.9-1.6-2.5-.7-.8-1.2-2-1.2-3.2 0-2.7 2.2-4.8 4.8-4.8v10.6z"/><path id="XMLID_902_" class="st18" d="M457.3 54.8h1.2v-.1c0-.7.6-1.9.9-2.5.4-.8.7-2 .7-3.2 0-2.7-1.2-4.8-2.8-4.8v10.6z"/><path id="XMLID_898_" class="st32" d="M457.3 54.8h-1.2v-.1c0-.7-.6-1.9-.9-2.5-.4-.8-.7-2-.7-3.2 0-2.7 1.2-4.8 2.8-4.8v10.6z"/></g><g id="XMLID_884_"><path id="XMLID_892_" class="st18" d="M457.9 61.2h-.9c-.7 0-1.3-.6-1.3-1.3v-1.7h3.5v1.7c0 .7-.6 1.3-1.3 1.3z"/><path id="XMLID_891_" class="st35" d="M456.1 59.9v-1.7h-.5v1.7c0 .7.6 1.3 1.3 1.3h.5c-.7 0-1.3-.6-1.3-1.3z"/><path id="XMLID_890_" class="st35" d="M458.4 58.2v1.7c0 .7-.6 1.3-1.3 1.3h.8c.7 0 1.3-.6 1.3-1.3v-1.7h-.8z"/><path id="XMLID_889_" opacity=".3" fill="#dae1e9" d="M455.6 59l3.6-.5v-.3h-3.6z"/><path id="XMLID_888_" class="st37" d="M457.9 61.2h-.9c-.7 0-1.3-.6-1.3-1.3v-1.7h3.5v1.7c0 .7-.6 1.3-1.3 1.3z"/><path id="XMLID_887_" class="st18" d="M459.3 58.2h-3.8c-.2 0-.3-.1-.3-.3 0-.2.1-.3.3-.3h3.8c.2 0 .3.1.3.3 0 .2-.1.3-.3.3z"/><path id="XMLID_885_" class="st37" d="M459.3 58.2h-3.8c-.2 0-.3-.1-.3-.3 0-.2.1-.3.3-.3h3.8c.2 0 .3.1.3.3 0 .2-.1.3-.3.3z"/></g><path id="XMLID_883_" class="st37" d="M456.7 54.7v2.9"/><path id="XMLID_882_" class="st37" d="M458 54.7v2.9"/><path id="XMLID_881_" class="st37" d="M455.3 54.7l.9 2.9"/><path id="XMLID_880_" class="st37" d="M459.4 54.8l-.8 2.8"/></g><g id="Layer_13_1_"><path class="st1" d="M65.9 203.7s-.5.2 0 0zm4.2-4.2c-4.4-4.6-9.8-8.4-15.8-10.1-6.1-1.8-13-1.2-18.3 2.4 7.6 8 18.8 12.5 29.9 11.9 1.6.1 6.3.2 7.6-.6.3-.2-.7-1.4-1.6-2.4-.4-.3-1.5-.9-1.8-1.2z"/><g class="st2"><path class="st3" d="M71.8 200.7c-.3-.3-1.4-.9-1.6-1.2-4.4-4.6-9.8-8.4-15.8-10.1-3-.8-6.1-1.1-9.1-.8 3.5.1 7 1.1 10.1 2.7 5.5 2.8 9.9 7.4 13.4 12.6 1.8 0 4-.2 4.7-.6.3-.5-.8-1.6-1.7-2.6z"/></g><path class="st1" d="M75.4 189.9c.9 2.5 2.1 6.3 1 8.8-.8 1.9-2.4 4.8-4.3 4.4-1.6-2.1-4.9-6.5-7.1-8.2-1.8-1.4-4.5-2.9-6.2-4.4-4.3-3.8-5.9-9-8.3-14.2 4.3.4 8.6 1.2 12.8 2.4 2.7.8 5.5 1.8 7.6 3.7 2.2 1.9 3.5 4.7 4.5 7.5z"/><path class="st4" d="M66.2 195c-1.5-1.7-4-3.7-5.3-5.4-2.9-3.8-3.9-8.1-4.9-12.7-1.8-.3-3.5-.5-5.3-.7 2.4 5.2 4 10.4 8.3 14.2 1.6 1.5 4.4 3 6.2 4.4 1 .8 2.3 2.2 3.5 3.7-.9-1.3-1.8-2.7-2.5-3.5z"/><path class="st1" d="M77.6 176.2c1.5 4 1.4 8.3 1.4 12.5 0 1.6.4 4.3 0 5.8-.3 1.3-1.2 2.5-1.9 3.6-.7.9-1.5-.2-2.1-1.1-.5-.9-1.5-2.4-1.1-2.1-.7-2.4-1.1-4-1.8-6.4-.6-1.9-1.2-3.8-1.6-5.7-.8-4.9.1-9.8 1.1-14.6 2.7 2.1 4.8 4.9 6 8z"/><path class="st5" d="M39.1 192.5c5.5-.2 10.9 0 16.2 1.5 5 1.4 9.6 3.8 13.8 7 .2.2.4-.2.2-.3-4.1-3.1-8.9-5.5-13.9-6.9-5.4-1.5-10.7-1.6-16.3-1.3-.1-.1-.1 0 0 0zm13.3-14.6c4.4 2.1 8.5 4.9 12 8.3 3.8 3.7 6.3 8.1 9.2 12.5 0 .1.3 0 .2-.1-4.9-9.1-11.7-16.7-21.3-20.8-.1-.1-.2 0-.1.1zm19.4-7.7c2.9 8.6 6.3 16.8 4.3 26 0 .2.2.3.3 0 1.9-8.7-.8-18.1-4.6-26 0-.1 0-.1 0 0z"/><path class="st5" d="M43.1 195.6c.6-.6 1.2-1.2 1.8-1.7.7-.5 1.4-.9 2.2-1.3v-.1c-1.6.5-3.2 1.7-4 3.1-.1 0-.1 0 0 0zm4.4 2.2c1.5-2.8 3.8-3.6 6.8-4 .2 0 .2-.3 0-.3-2.9.4-5.8 1.3-6.8 4.3zm5.5.4c1.8-1.4 3.5-3.5 6-2.8.1 0 .2-.2 0-.2-2.4-.7-4.4 1.4-6 3-.1 0-.1 0 0 0zm5.4 2.8c1.6-2.1 4-4 6.7-2.5.2 0 .3-.2.1-.2-2.6-1.4-5.4.3-6.8 2.7-.1 0 0 .1 0 0zm-12.6-12c.3 1.8 1.9 2.8 3.3 3.8.1 0 .2-.1.1-.2-1.4-.9-2.8-1.9-3.4-3.6.1 0 0 0 0 0z"/><path class="st5" d="M51.6 189.4c.6 1.7 1.8 3.2 3.1 4.4.1.1.3 0 .2-.2-1.4-1.2-2.4-2.6-3.3-4.2zm4.9 2c.3.8.7 1.5 1.2 2.2.4.5 1 1.5 1.6 1.7h.2v-.2h-.2v.2c.2 0-.6-.9-.6-.9-.2-.3-.5-.5-.7-.8-.5-.8-1-1.5-1.5-2.2.1-.1 0-.1 0 0zm4.1 2c1.1 1.8 2.8 3.5 4.4 4.8.2.2.5-.1.3-.3-1.8-1.4-3.1-3-4.6-4.6 0 0-.2.1-.1.1zm-5.6-9.8c3.1-.2 5.7 0 8.4 1.6.2.1.3-.2.2-.3-2.4-1.5-5.8-2.5-8.6-1.5-.2.1-.2.2 0 .2zm4.7 5.1c1.5 0 2.9 0 4.3.3 1.3.3 2.5.8 3.8 1.2.2 0 .2-.2 0-.3-2.6-.9-5.5-2.1-8.3-1.4l.2.2zm5.7 4.5c1 0 2.1.2 3.1.3 1.2.2 1.9.8 2.7 1.7.1.1.3 0 .2-.2-.7-.8-1.4-1.4-2.5-1.7-1.2-.2-2.4-.3-3.5-.1 0-.1 0 0 0 0z"/><path class="st5" d="M61.2 180.1c0 1.1.6 2.2 1.1 3.3.3.6.5 1.8 1.4 1.9 0 0 .1 0 0-.1-1.4-1.2-1.4-3.5-2.5-5.1.1-.1 0-.1 0 0zm4.6 1.3c.3 3.1 1.2 6.1 2.3 8.9 0 .1.3 0 .2 0-1.1-2.9-1.7-5.8-2.5-8.9zm5 6.5c0 2.6.6 5.2 1.1 7.8 0 .2.3.1.3 0-.5-2.6-.8-5.1-1.2-7.7-.1-.2-.2-.2-.2-.1zm.1-12.9c1.8 2.1 3.3 4.3 4.5 6.8.1.2.4 0 .3-.2-1.2-2.5-2.7-4.8-4.6-6.8-.2 0-.3.1-.2.2z"/><path class="st5" d="M76.8 175.5c-.9 1.9-1.1 4.5-1.2 6.6 0 .2.3.2.3 0 0-1.2.2-2.4.4-3.7.2-1 .5-1.9.6-3 .1 0-.1 0-.1.1zm-3.3 7.4c1.4 2.1 2.2 4.3 3.2 6.6h.1c-.3-2.4-1.6-4.9-3.3-6.6 0-.1-.1-.1 0 0zm3.4 6.7c.6-1.5 1.1-3 1.9-4.4 0-.1-.1-.2-.2-.1-.7 1.4-1.6 2.9-1.7 4.5-.1.1-.1.1 0 0z"/></g><g id="XMLID_320_"><path opacity=".2" fill="#aab2ba" d="M69.1 202.3l.8 4.2h12.3l-.1-2.1-11.5-2.8z"/><path id="XMLID_327_" class="st11" d="M77.5 198l-4.4-.3 3.5-4z"/><path id="XMLID_326_" class="st11" d="M74 201.9l-4.3-.3 3.4-3.9z"/><path id="XMLID_6_" class="st11" d="M82.5 205.8h-12L80.9 194z"/><path id="XMLID_324_" class="st39" d="M82.5 205.8l-8.5-3.9 3.5-4z"/><path id="XMLID_323_" class="st39" d="M69.7 201.6l.8 4.2 3.4-3.9z"/><path id="XMLID_5_" class="st39" d="M73.1 197.7l.9 4.2 3.5-3.9z"/><path id="XMLID_321_" class="st39" d="M76.6 193.7l.9 4.2 3.4-3.9z"/></g><path class="st25" d="M290.3 163.3h-.2c-.4 0-.6-.2-.7-.4 0-.2.2-.5.4-.8l1-1c.2-.1.3-.3.5-.4.1-.1.1-.2.2-.3.3-.4.9-.8 1.2-1.3.1-.1.1-.2.1-.3-.1-.1-.4-.1-.7-.1-.3.1-.5.2-.7.3v-.1c-.1 0-.2-.1-.4 0h-.1c-.1 0-.2.1-.2.1-.1 0-.1-.1-.2-.1-.2-.1-.5-.1-.7-.1-.8-.1-1.7-.1-2.7.1h-.3l.2-.2c.1-.1 0-.2-.2-.1h-.5l-4.1.5c-.1 0-.3.1-.3.1l-1.1 1c-.1.1 0 .2.2.1l2.4.1.2-.1-1 1c-.2.2-.1.3.3.3h1.1l-.6.6-2.4.2-3.1.2-.1.1-3.5-.1-1.4-2.7.4-.6-.1-.6.4-.5-.1-.5c-.3.1-.4.3-.4.4v.1l-.4.5h-.1v-.2l-.9-.5-.1.1c-.1.1-.1.1 0 .2l.6.4v.1l-.1.1-.2-.2-1.2-.2-.2.2.8.1.4.2-.2.2-1.4-.2v.1l.1.1 1 .2.1.6.3.3.2 3 4.6.4-.1.1 1.9.4-1.1 1c-.4.4-.6.7-.8 1.1l-.1.4-4.8 4.4h.1l-.3.2-6.8 4.5-1.3 4.6-.3.3-2.6.5-2.3.4h-.1c-.1.1-.6.6 1.3.5.2 0 .4.1.7.1 1.6 0 4.9-.1 4.9-.1.3-.1.6-.3.7-.4l.2-.2s0-.1.1-.1c0-.1 0-.1-.1-.2l.9-.9h-.2.2s5.3-3.8 5.8-5.4l4.1-3.2.2-.2-.1.3c.9-.4 1.7-.8 2.2-1.3l2.7-2.7c.2 0 .4-.1.6-.1l.8-.3 2.8-2.2h.3l2.4-2.2c.2-.2.1-.3-.1-.3l-2.2-.6.8-.7c.1 0 .3-.1.5-.1.4-.1.9-.3 1.3-.4-.2.1-.4.2-.5.3-.4.3-.8.6-.7.9 0 .1.1.2.2.2.3.2.7.3 1.1.4h.1c0-.1 0-.2.1-.3l.6.3c0 .7.3.7.8.6 0 .1-.1 0 0 0-.1 0 0 0 0 0zm-7.9.2zM269 175.9l-.1.3v.1l-1 1.1-.5.6c.2-.4.2-.8-.1-1.1l1.7-1z"/><g id="Layer_17"><path d="M262.9 178l-.2 1.4-3.7 1.8-2.8.6s.2 1.2 2.4 1.3c2.2.1 6.5-.2 6.5-.2.3-.3.4-.7.4-1.1v-.5c0-.3-.2-.6-.5-.7v-2.3l-2.1-.3z" fill="#e0a546"/><path d="M265.6 181.3c0-.1 0-.2-.1-.3-.2.1-.6.7-.8.7-1.4 0-3 .2-4.2.1-1.2 0-1.9-.1-2.2-.4l-2.1.5s.2 1.2 2.4 1.3c2.2.1 6.5-.2 6.5-.2.3-.3.4-.7.4-1.1l.1-.6z" fill="#19a0ff"/><path class="st11" d="M260.5 178.5v.7l-5.5 2.3s-.3 1.8 3.1 1.4l6-1.2s.2-.7.3-1.3c.1-.4-.1-.8-.4-1l-1.2-1.2-2.3.3z"/><path class="st26" d="M264.4 179.8c-.3.5-.7.8-1.3 1l-2.3.7c-2.9.3-3.2-.7-3.2-1.1l-2.6 1.1s-.3 1.8 3.1 1.4l6-1.2s.2-.7.3-1.3c.2-.2.1-.4 0-.6z"/><path class="st10" d="M266 154.6l-1 9.8c1.8 4.2.1 13.9.1 13.9h-2.2l-1.3-12.5-1.3-3.5 5.7-7.7z"/><path class="st13" d="M261.4 165.5l3.5-8.5.8-.7.1-.1.2-1.6-5.8 7.7 1.2 3.2zm1.4 12.8h.6s.5-6.2-1.7-9.8l1.1 9.8z"/><path class="st29" d="M259 151.2l-3.4 15.6 5 11.6 2.4-.2s.6-8.1-2.7-11.1l4.1-10.1.8-.7c.7-.6 1.2-1.5 1.2-2.4v-3.5l-7.4.8z"/><path class="st42" d="M269.9 131.8c-.4-.6-.5-1.3-.6-1.9-.1-.8-.1-1.6 0-2.4 0-.3.1-.7 0-1 0-.2-.1-.5-.2-.7-.2-1-.1-2.2-.3-3.2 0-.2-.1-.5-.3-.7-.3-.3-.7-.3-1-.2-.3.2-.5.5-.6.9v-.1c-.5 1.3-.2 2.7-.5 4.1-.2.8-.4 1.5-.6 2.3-.1.8-.1 1.7.4 2.3.2.2.4.4.7.6.7.5 1.4.8 2.2 1.1-.2-.2-.4-.5-.4-.8.4.3.8.6 1.3.8s1 .2 1.5 0c-.5-.1-1.2-.5-1.6-1.1z"/><path d="M267.7 132c-.2-.2-.5-.3-.7-.6-.5-.6-.6-1.5-.4-2.3.1-.8.4-1.5.6-2.3.2-1.3 0-3.8 0-3.8 0-.4-.2-.5-.2-.5-.5 1.3-.2 2.7-.5 4.1-.2.8-.4 1.5-.6 2.3-.1.8-.1 1.7.4 2.3.2.2.4.4.7.6.7.5 1.4.8 2.2 1.1l-.1-.1c-.5-.3-1-.5-1.4-.8zm3.8.8h.1-.3.2zm-2-.6c0 .1 0 .2.1.3l.6.3c.2 0 .3.1.4.1-.5-.2-.8-.4-1.1-.7z" fill="#bf9447"/><path class="st42" d="M266.9 122.7c-.2.1-.4.1-.6 0s-.3-.2-.5-.3c-.3-.2-.8-.2-1.2-.3-1.3-.2-2.7-.3-3.7.4h-.1c1 2.4 2.2 4.8 3.4 7.2.2-.2.5-.4.7-.6 1-.9 2.1-1.9 2.3-3.2.1-1.1-.4-2.1-.3-3.2z"/><path class="st11" d="M261 128.1h3.5v7H261z"/><path class="st13" d="M262.4 130.1l-1.3-.3V128h3.5v.3c0 1.2-1.1 2.1-2.2 1.8z"/><path class="st11" d="M258.7 126v3.1c0 .5.4.8.8.8h2.1c1.3 0 2.3-1 2.3-2.3v-2.7c0-.4-.2-.8-.5-1l-1.4-1.1c-.4-.3-.9-.3-1.3-.1-.6.3-1.4 1.2-2 3.3z"/><path class="st28" d="M260.6 122.4l1.3.7c.6.3 1 .8 1 1.5v.5l-3.2-.7.9-2z"/><path class="st28" d="M255.1 126.4l3.4.3.3-.3 1.3.2s1.5.5 3.1-.8l.3-1.1-4-2-4.4 3.7z"/><path class="st28" d="M255.8 125.8l4.8-1.3c.2 0 .3-.2.3-.3v-2c0-.2-.2-.4-.5-.3l-4.8 1.3c-.2 0-.3.2-.3.3v2c0 .1.2.3.5.3z"/><path class="st3" d="M260.6 124.5l6.2 3s.1 0 .1-.1v-1.2l-6.3-3.1v1.4z"/><path class="st28" d="M266.3 127.3s.1 0 .1-.1V126l.4.2v1.2c0 .1-.1.1-.1.1l-.4-.2zm-.8-.4s.1 0 .1-.1v-1.2l.4.2v1.2c0 .1-.1.1-.1.1l-.4-.2zm-.9-.4s.1 0 .1-.1v-1.2l.4.2v1.2c0 .1-.1.1-.1.1l-.4-.2zm-.9-.5s.1 0 .1-.1v-1.2l.4.2v1.2c0 .1-.1.1-.1.1l-.4-.2zm-.9-.4s.1 0 .1-.1v-1.2l.4.2v1.2c0 .1-.1.1-.1.1l-.4-.2zm-.9-.4s.1 0 .1-.1V124l.4.2v1.2c0 .1-.1.1-.1.1l-.4-.3zm-.9-.5s.1 0 .1-.1v-1.2l.4.2v1.2c0 .1-.1.1-.1.1l-.4-.2z"/><path class="st3" d="M255.1 126.4l4.8-1.3c.2 0 .3-.2.3-.3v-2.7c0-.2-.2-.4-.5-.3l-4.8 1.3c-.2 0-.3.2-.3.3v2.7c.1.2.3.4.5.3z"/><ellipse class="st28" cx="257.2" cy="124.1" rx=".3" ry=".5"/><path class="st11" d="M264 126.3s.8-.7 1.2 0v1.1c0 .4-.2.8-.6 1-.2.1-.4.1-.7 0l.1-2.1z"/><path class="st3" d="M266.9 123.6l-.7-.7c-.2-.2-.1-.4 0-.5l.1-.1c.2-.2.4-.1.5 0l.7.7c.2.2.1.4 0 .5l-.1.1c-.1.1-.3.1-.5 0z"/><path class="st13" d="M265.5 155.9c.5-.5.8-1.3.8-2v-3.5l-7.3.8-.9 4v.4c3.5.8 6.2-2.7 6.2-2.7l1.2 3z"/><path class="st26" d="M257.2 132.6v7c0 .9.2 1.8.5 2.7l.4 1v11.3c3.5.8 6.2-2.7 6.2-2.7l1.8 4.6c.7-1 1.1-2.2 1-3.3l-.5-10.3.2-10.3-2.2.5-.3.3c-.9 1-2.5.9-3.3-.3l-3.8-.5z"/><path class="st11" d="M240.5 124.2l-2.1-.4.2.3c0 .1.1.1.2.2l1.7.5 1 1.5.9.8 4.8 7.8 6.8 1v-3.4l-5-.3-5.8-6.8-.2-1.4-.9-1.4-.3-1.4-1-1.3c-.2.3-.2.7.1 1l.2.3.3 1.3-.2-.1-.2-.4-1.9-1.2v.3c0 .2.1.3.2.5l1.4 1.1.1.3-.1.2-.6-.5-1.8-.4v.5l1.3.3.9.6"/><path class="st13" d="M243 124l-.7-.2c-.2 0-.3 0-.4.1l-.6.5v.1l.6-.4c.1-.1.3-.1.4-.1h.7zm10.3 11.7l.8.1v-3.3h-.3z"/><path class="st26" d="M261 131.3l-2.9.5-4 .4v3.9l3.1 1 3.8-4z"/><path d="M266.6 142.9v-.4c-.1-.2-.2-.3-.3-.4.1-.1.2-.2.3-.2v-1.7c-.1 0-.2 0-.2-.1.1-.2.1-.4-.1-.6.1-.1.2-.2.4-.2v-.8c-.1-.1-.3-.1-.5 0-.3.2-.7.4-1 .6-.3.2-.3.6 0 .8-.3.2-.3.7.1.8.3.1.7.2 1 .3-.3.2-.8.4-1 .6-.2.2-.2.4-.1.6 0 .1.2.3.3.4.4 1.1 0 .9.1 1.7 0 .3.1.6.2.9-.5-.3.8.3.5-.3s.3-2 .3-2z" opacity=".1" fill="#3a3c4e"/><path d="M266.3 139.9l-.4 3.5-3-1.6-.2-2-.8-.8-.3-1.2-1.2-1.4c-.2.3-.1.7.1 1l.4.7v1.7l-.3.1-1-1.4c-.3.3-.3.7-.2 1.1l2.2 3.5 5.2 3.8-.2-3.9v-3h-.3v-.1z" opacity=".2" fill="#3a3c4e"/><path class="st11" d="M268.6 139.4l-.6 5.6-.6.8c-.3.4-.8.5-1.2.2l-4.6-3.6-2.2-3.5c-.2-.3-.2-.8.2-1.1l1 1.4.3-.1v-1.7l-.6-.9c-.2-.3-.2-.6 0-.8l.1-.1 1.2 1.6.3 1.2.8.8.2 2 3 1.6.4-3.5 2.3.1z"/><path class="st13" d="M268.6 139.4h-2.3v.5h2.2z"/><path class="st26" d="M264.6 131.3l3.9 1.6c.3.2.6.5.6.8v5.6H266v-2.5l-1.3-3.8v-1.7h-.1z"/></g></svg>