<svg version="1.1" id="Graphics" xmlns="http://www.w3.org/2000/svg" x="0" y="0" viewBox="0 0 387.9 207.3" xml:space="preserve"><style>.st0{fill:#00c9a7}.st1{fill:#fff}.st2{opacity:.2;fill:#1e2022}.st7{fill:#e2c076}.st8{fill:#3659ba}.st9{fill:#bf8b08}.st10,.st11{fill:#191c3c}.st11{opacity:.3}.st12{fill:#1e2022}.st15{fill:#bfbfbf}.st16{fill:#edce98}.st17{fill:#0b1142}.st18{fill:#9539d1}.st19{opacity:.22;fill:#191c3c}.st20{fill:#d14780}.st21{fill:#4d5068}.st25{fill:#191c3c;enable-background:new;opacity:.3}.st27{fill:#f8fafd}.st28{fill:#efdcb4}.st29{fill:none}.st30{fill:#fec55e}.st31{fill:#377dff}.st33{fill:#231f20;enable-background:new}.st33,.st34{opacity:.1}.st35{fill:#231f20}.st38{fill:#441a19}.st39{opacity:.3}.st40{fill:#717386}.st41{opacity:.18}.st42{fill:#dfe2ec}.st43{fill:#30110f}.st48{fill:#2d1582}.st51{opacity:.2;fill:#191c3c;enable-background:new}.st53{fill:#ffc107}</style><g id="Layer_16"><path id="XMLID_1117_" class="st0" d="M82.9 6.6V24c0 2.2-1.8 4-4 4h-1.8v9.5c0 .4-.5.6-.8.3L66.2 28H45.4c-2.2 0-4-1.8-4-4V6.6c0-2.2 1.8-4 4-4H79c2.1 0 3.9 1.8 3.9 4z"/><path id="XMLID_36_" class="st1" d="M75.5 13.1H53.7c-.5 0-.9-.4-.9-.9s.4-.9.9-.9h21.9c.5 0 .9.4.9.9-.1.5-.5.9-1 .9z"/><path id="XMLID_35_" class="st1" d="M75.5 17.2H53.7c-.5 0-.9-.4-.9-.9s.4-.9.9-.9h21.9c.5 0 .9.4.9.9-.1.5-.5.9-1 .9z"/><path id="XMLID_34_" class="st1" d="M67.8 21.2H53.7c-.5 0-.9-.4-.9-.9s.4-.9.9-.9h14.2c.5 0 .9.4.9.9-.1.5-.5.9-1 .9z"/><path id="XMLID_1113_" class="st2" d="M58.5 7.6H37.7V24c0 2.2 1.8 4 4 4h20.8V11.6c0-2.2-1.8-4-4-4z"/><linearGradient id="XMLID_2_" gradientUnits="userSpaceOnUse" x1="28.728" y1="25.29" x2="61.371" y2="25.29"><stop offset="0" stop-color="#377dff"/><stop offset="1" stop-color="#00dffc"/></linearGradient><path id="XMLID_1112_" d="M28.7 11.6V29c0 2.2 1.8 4 4 4h1.8v9.5c0 .4.5.6.8.3L45.5 33h11.9c2.2 0 4-1.8 4-4V11.6c0-2.2-1.8-4-4-4H32.7c-2.2 0-4 1.8-4 4z" fill="url(#XMLID_2_)"/><path id="XMLID_1523_" class="st1" d="M55.9 16.3H34c-.5 0-.9-.4-.9-.9s.4-.9.9-.9h21.9c.5 0 .9.4.9.9s-.4.9-.9.9z"/><path id="XMLID_1477_" class="st1" d="M55.9 20.3H34c-.5 0-.9-.4-.9-.9s.4-.9.9-.9h21.9c.5 0 .9.4.9.9 0 .6-.4.9-.9.9z"/><path id="XMLID_1522_" class="st1" d="M48.2 24.4H34c-.5 0-.9-.4-.9-.9s.4-.9.9-.9h14.2c.5 0 .9.4.9.9s-.4.9-.9.9z"/><path id="XMLID_84_" class="st0" d="M209.3 4.9v21.5c0 2.7-2.2 4.9-4.9 4.9h-2.3V43c0 .5-.6.8-1 .4l-12.5-12.1h-25.7c-2.7 0-4.9-2.2-4.9-4.9V4.9c0-2.7 2.2-4.9 4.9-4.9h41.5c2.7 0 4.9 2.2 4.9 4.9z"/><path id="XMLID_83_" class="st1" d="M200.2 13h-27c-.6 0-1.1-.5-1.1-1.1 0-.6.5-1.1 1.1-1.1h27c.6 0 1.1.5 1.1 1.1-.1.6-.6 1.1-1.1 1.1z"/><path id="XMLID_82_" class="st1" d="M200.2 18h-27c-.6 0-1.1-.5-1.1-1.1 0-.6.5-1.1 1.1-1.1h27c.6 0 1.1.5 1.1 1.1-.1.6-.6 1.1-1.1 1.1z"/><path id="XMLID_81_" class="st1" d="M190.6 23h-17.5c-.6 0-1.1-.5-1.1-1.1 0-.6.5-1.1 1.1-1.1h17.5c.6 0 1.1.5 1.1 1.1 0 .6-.5 1.1-1.1 1.1z"/><path id="XMLID_80_" class="st2" d="M179.1 6.2h-25.7v20.3c0 2.7 2.2 4.9 4.9 4.9H184V11.1c.1-2.7-2.1-4.9-4.9-4.9z"/><linearGradient id="XMLID_3_" gradientUnits="userSpaceOnUse" x1="142.324" y1="28.022" x2="182.643" y2="28.022"><stop offset="0" stop-color="#ffc107"/><stop offset="1" stop-color="#de4437"/></linearGradient><path id="XMLID_79_" d="M142.3 11.1v21.5c0 2.7 2.2 4.9 4.9 4.9h2.3v11.7c0 .5.6.8 1 .4l12.5-12h14.7c2.7 0 4.9-2.2 4.9-4.9V11.1c0-2.7-2.2-4.9-4.9-4.9h-30.5c-2.7 0-4.9 2.2-4.9 4.9z" fill="url(#XMLID_3_)"/><path id="XMLID_39_" class="st1" d="M175.9 16.9h-27c-.6 0-1.1-.5-1.1-1.1 0-.6.5-1.1 1.1-1.1h27c.6 0 1.1.5 1.1 1.1 0 .6-.5 1.1-1.1 1.1z"/><path id="XMLID_38_" class="st1" d="M175.9 21.9h-27c-.6 0-1.1-.5-1.1-1.1 0-.6.5-1.1 1.1-1.1h27c.6 0 1.1.5 1.1 1.1 0 .6-.5 1.1-1.1 1.1z"/><path id="XMLID_37_" class="st1" d="M166.4 26.9h-17.5c-.6 0-1.1-.5-1.1-1.1 0-.6.5-1.1 1.1-1.1h17.5c.6 0 1.1.5 1.1 1.1 0 .6-.5 1.1-1.1 1.1z"/><linearGradient id="XMLID_4_" gradientUnits="userSpaceOnUse" x1="296.122" y1="19.885" x2="342.257" y2="19.885"><stop offset="0" stop-color="#377dff"/><stop offset="1" stop-color="#00dffc"/></linearGradient><path id="XMLID_93_" d="M342.3 4.7v19.4c0 2.4-2 4.4-4.4 4.4h-2V39c0 .5-.6.7-.9.3l-11.2-10.8h-23.1c-2.4 0-4.4-2-4.4-4.4V4.7c0-2.4 2-4.4 4.4-4.4H338c2.3 0 4.3 1.9 4.3 4.4z" fill="url(#XMLID_4_)"/><path id="XMLID_92_" class="st1" d="M334.1 11.9h-24.3c-.5 0-1-.4-1-1 0-.5.4-1 1-1h24.3c.5 0 1 .4 1 1-.1.6-.5 1-1 1z"/><path id="XMLID_91_" class="st1" d="M334.1 16.4h-24.3c-.5 0-1-.4-1-1 0-.5.4-1 1-1h24.3c.5 0 1 .4 1 1-.1.6-.5 1-1 1z"/><path id="XMLID_90_" class="st1" d="M325.5 20.9h-15.8c-.5 0-1-.4-1-1 0-.5.4-1 1-1h15.8c.5 0 1 .4 1 1s-.5 1-1 1z"/><path id="XMLID_89_" class="st2" d="M315.2 5.8h-23.1V24c0 2.4 2 4.4 4.4 4.4h23.1V10.3c0-2.5-2-4.5-4.4-4.5z"/><linearGradient id="XMLID_5_" gradientUnits="userSpaceOnUse" x1="282.07" y1="25.452" x2="318.319" y2="25.452"><stop offset="0" stop-color="#ffc107"/><stop offset="1" stop-color="#de4437"/></linearGradient><path id="XMLID_88_" d="M282.1 10.3v19.4c0 2.4 2 4.4 4.4 4.4h2v10.5c0 .5.6.7.9.3l11.2-10.8h13.2c2.4 0 4.4-2 4.4-4.4V10.3c0-2.4-2-4.4-4.4-4.4h-27.4c-2.3-.1-4.3 1.9-4.3 4.4z" fill="url(#XMLID_5_)"/><path id="XMLID_87_" class="st1" d="M312.2 15.5h-24.3c-.5 0-1-.4-1-1 0-.5.4-1 1-1h24.3c.5 0 1 .4 1 1 0 .5-.4 1-1 1z"/><path id="XMLID_86_" class="st1" d="M312.2 20h-24.3c-.5 0-1-.4-1-1 0-.5.4-1 1-1h24.3c.5 0 1 .4 1 1 0 .5-.4 1-1 1z"/><path id="XMLID_85_" class="st1" d="M303.7 24.5h-15.8c-.5 0-1-.4-1-1 0-.5.4-1 1-1h15.8c.5 0 1 .4 1 1 0 .5-.5 1-1 1z"/></g><path transform="rotate(-180 201.483 197.791)" class="st7" d="M197.7 194.8h7.6v5.9h-7.6z"/><path class="st8" d="M208.2 115.2l-10.5 46.4v34.8h7.6s6.3-24.2 3.1-34.2l12.5-29-12.7-18z"/><path class="st9" d="M207.2 196.5v8.8h-24.7v-3l7.1-1.5 5.3-6h1.1l1.7 2.8 7.6.2 1.1-1.3z"/><path transform="rotate(-46.346 194.528 196.74)" class="st10" d="M194.1 195.7h.9v2.1h-.9z"/><path transform="rotate(-39.942 193.267 198.03)" class="st10" d="M192.8 197.3h.9v1.5h-.9z"/><path class="st10" d="M192.2 199.9l.7-.7-1-.9-.7.7z"/><path transform="rotate(-180 225.6 199.457)" class="st7" d="M222.8 196.5h5.6v5.9h-5.6z"/><path class="st11" d="M207.4 118.9l3.5.3 9.9 14.1-5.2 12.2-2.9-13.7-6.3-8.8z"/><path class="st8" d="M231.7 120.3l-.5 40c4.3 8.7-2.8 36.1-2.8 36.1h-6.1l-.8-32.3-6.8-32.4-9.3-13.1 26.3 1.7z"/><path class="st9" d="M214.2 205.2h9.7l5.7-2.6-.4-4.8-.8 1.2-1.4.1-1.7-2.6h-4.8z"/><path class="st10" d="M229.6 202.6v1.8l-5.2 2.9h-10.2v-2.1h9.7zm-10-4.4h3.2v.9h-3.2zm-.7 1.6h3.2v.9h-3.2zm-1 1.7h3.2v.9h-3.2z"/><path transform="rotate(-180 194.87 206.24)" class="st10" d="M182.5 205.2h24.7v2.1h-24.7z"/><path class="st7" d="M198.5 84.7l-4.3 1.7L183 73.7l.2-3.5c0-.7-.4-1.3-1.1-1.5l-1.7-.4-.2 2.1-.8-5.3c-.2-1.1-1-2.1-2.2-2.3-.1 0-.3.1-.3.2l.7 5.3-1.4 1.8c-.5.6-.6 1.3-.4 2.1l.8 3 2.3 2 10.8 19.3 10.3-3.2-1.5-8.6zm17.6-5.4l16.8-4.2-11-23.6-8.1 7.1 3.8 10.9z"/><path class="st11" d="M196 85.6l2.5-.9 1.5 8.5-2.7.8z"/><path class="st1" d="M217.6 69.5l-11.1 6.4c-.2.1-.4.3-.6.4l-8.2 7.4 1.7 10.6L220.2 82l-2.6-12.5z"/><path class="st1" d="M237.3 81l-4.4 40.5h-29.8l7.9-47.3 6.6-4.7 5.2 6.2 6.7-8.1z"/><path class="st12" d="M222.9 55.4c.7 1.7 1.5 3.3 2.4 4.8.3.5.7 1.7 1.4 1.8.8.2.8-.7.8-1.3 0-.9.4-1.7.5-2.6.1-.4 0-.8.1-1.2.1-1 .4-1.9.7-2.8.4-1.9-.3-3.5-1.3-5.1-.5-.8-.9-1.7-1.4-2.5-.7-1-1.7-1-2.6-1.5-.7-.5-1.2-1.3-2-1.5-1-.2-2.1.9-3.1.5s-1.9-1-3.1-.4c-.4.2-.7.5-1.2.6-.3 0-.6-.1-.9-.1-.6-.1-1.2.1-1.7.3-.5.2-1.1.4-1.3.9-.1.3 0 .7-.2 1-.2.4-.6.5-1 .6-.4 0-.9 0-1.2.2-.6.3-.7 2-.5 2.6.3.6 1.1.9 1.8.8.7 0 1.4-.3 2-.3.7 0 1.5.2 1.8.8.1.2.2.4.2.6.3 1.1.6 2.3.8 3.4.3 1.1.6 2.2 1.3 2.9.8.8 2.1 1 3.1.7 1.1-.3 1.9-1.2 2.4-2.3.2-.4.3-.9.6-1.2.3-.4.9-.5 1.2-.2.3.1.4.3.4.5z"/><path class="st7" d="M209.3 50.7v5.4l.7.7s-1.5 2.1-1.4 4.4h1.4v2.7c0 2.3 1.9 4.2 4.2 4.2h.5c3.2 0 5.8-2.6 5.8-5.8V60s2.2-1.1 2.2-3.1c0 0 .4-3.1-1.5-3 0 0-2.5-.1-2.6 1.9l-2.7.2v-1.5c0-1.1-.8-2-1.9-2l-.1-3.2s-3.2-.6-4.6 1.4z"/><path class="st12" d="M210.2 65.1c.4-.2.6.4.6.7 0 .3.1.6.4.7h.4c.2 0 .4-.1.5-.2.1-.1.3-.2.4-.3.5-.3.9-.7.8-1.3 0-.6-.2-1.2-.8-1.4-.5-.2-1-.2-1.6-.2-.4 0-1 .2-1.3-.2-.1-.2-.1-.5 0-.7 0-.1.1-.3.2-.4.3-.3 1.5-.2 1.9-.2.5 0 1-.1 1.5 0s.9.2 1.2.6c.2.3.4.8.8.9.2.1.3.1.5 0 .4-.1.7-.2.9-.5.3-.5.1-1.1 0-1.6-.3-1.2-.2-2.4-.5-3.5-.2-.6-.5-2.1 0-2.7h2.8c-.3 1.3-.6 3.6-.1 4.8.9 2.1 2.6 5.1.6 7.1-.6.5-1.3.9-2 1.2-.4.2-.9.4-1.4.5-.6.1-1.1 0-1.7 0-.7 0-1.4.3-2.1.2-.5-.1-.9-.3-1.3-.6-.1-.1-.2-.1-.2-.2-.1-.1-.1-.3-.1-.4 0-.1-.1-.2-.2-.3-.3-.4-.4-.8-.3-1.3-.1-.4 0-.6.1-.7z"/><path class="st10" d="M207.5 173.5c.3-.5.6-.9.6-1.4 0-.3-.9-1.8-.8-1.9.2-.2.4-.3.7-.3-.1-.3-.4-.5-.7-.7-.3-.2-.5-.7-.2-.9.4-.3.8-.2 1.2-.2-.1-1-.3-1.9-.5-2.9-.2-.8-.4-1.7-.9-2.4-.5-.6-1.3-.7-1.6-1.4 0-.1-.1-.1 0-.2 0-.2.2-.2.4-.2.7 0 1.4 0 2.1-.1.4-.1 1.4-.6 1.6-.3.2.3-.7 1.7-.8 2 1 3.2 1 6.8.8 10.1-.1 2-.3 4-.5 6-.2 1.8-.3 3.9-.8 5.6 0-.8-.1-1.6-.4-2.4-.4-.8-.9-1.4-1.4-2.1-.1-.1-.2-.2-.2-.4 0-.1-.1-.3-.1-.4 0-.3 0-.7.1-1 .8.4 1.6.8 2.4 1.1-.1-1.1-.2-2.5-1-3.4-.2-.2-.4-.5-.4-.8 0-.1.1-.2.1-.4-.2-.4 0-.7.3-1zm7.9-27.6c.3-.6-1.3-.1-1.3 0-.5.4-.9.9-1.1 1.5-.3.9-.4 1.9-.6 2.8-.3 1.3-1 2.6-2 3.6.4 0 .7.5.6 1-.1.4-.4.7-.7 1.1-.5.6-.7 1.7-1.2 2.2-.3.2-.6.2-.9.4.1.2 1.4 1.3 1.3 1.4-.1-.1 5.9-14 5.9-14z" opacity=".14"/><g opacity=".27"><path class="st15" d="M233.7 114.1l-.2 1.5c-.1-.1-.2-.3-.1-.5.2-.4.2-.7.3-1z"/><path class="st15" d="M233.8 96.6c.9-.2-.9-1-1.5-1.7-.1-.2 2-.3 2.2-.4-.1-.9 0-1.7-.1-2.6-.5-.2-2.2-.4-1.8-.6 2.2-.8.4-10.5-.3-12-.3-.7 2.3 3.5 2.6 4.2.8 1.8 1 3.6 1.5 5.4l-.3 2.5c-.1 0-.2 0-.3.1l.3.3-.6 5.8c-.2 0 0 .5-.2.6.2.2 0 0 .1.3l-1.5 13.7c-1 5.8-1.1-3.7-1-5.4.3-3.3 2-7.2-.3-7.8-.5-.2.7-2.3 1.2-2.4z"/></g><path class="st7" d="M245.1 94.3l.5 6.8-6 28.3.7 3.7-.7 4.8-1.7 1.6-2.4.7-2.6.9h-1.1l-2.3-.9 1.5-1.9.6-3-1 1.6-1.7.4 2.2-5.5 3.7-3.9 2.5-24.5-1-9.1z"/><path class="st11" d="M245.2 96.2h-8.7l-.2-1.9h8.8z"/><path class="st1" d="M229.5 67.6l13.5 7.7c1.5.8 2.4 2.4 2.5 4.1l.7 14.9h-10.7l-.7-10.2-5.3-16.5z"/><g id="Layer_13"><path transform="rotate(-180 278.525 199.184)" class="st16" d="M275.1 195.7h6.9v6.9h-6.9z"/><path transform="rotate(-180 270.144 199.184)" class="st16" d="M266.7 195.7h6.9v6.9h-6.9z"/><path class="st17" d="M284.2 125v38.7l-1.9 36.6h-7.5v-72.8z"/><path class="st11" d="M284.2 125v.6l-5.3 8.3-1.5 37.5-2.3 28.9h-.3v-72.8z"/><path class="st17" d="M260.7 123.1v8.7c0 3.7.8 5 2.4 8.3l.4.9 1.2 30.4.9 28.9h7.9l2.3-28.9 2.5-38.5 5.8-7.9v-4.2l-23.4 2.3z"/><path class="st1" d="M303.6 84.6l-3.3-4.9-18 20.4 7.4-.3z"/><path class="st10" d="M259.2 68c1.2-2.9 1.4-6.2.4-9.2v-.2c.4 1.4.8 2.8 1.2 4.1.2.7.4 1.4.8 2 .3.6.8 1.1 1.2 1.7.8 1.3 1.2 2.9.9 4.4-.1.5-.2 1-.5 1.5-.5.7-1.3 1.2-2.1 1.5-2 .9-4 1.6-6.1 2.1.9-2.8 3-5.2 4.2-7.9z"/><path class="st16" d="M295.5 94.3l1.9-1c.7-.3 1-1.2.6-1.8l-.1-.2-3.2 1.6.8 1.4z"/><path class="st18" d="M282.3 100.1L274 72.5l5.3 1.8c.7.4 1.2.9 1.4 1.6l6.7 18.4-5.1 5.8z"/><path class="st19" d="M282.3 100.1L274 72.5l5.3 1.8c.7.4 1.2.9 1.4 1.6l6.7 18.4-5.1 5.8z"/><path class="st16" d="M293.4 92.2l2 .9 1.2 1.5c.3.4.3.8.1 1.2l-.4.7-.8 1.5-.9 1-1 .8-2.3.7-2.8-2.9 2.1-2 2-3.1c0-.3.5-.4.8-.3z"/><path class="st18" d="M274 73.3l8.7 14.4c1.6 2.4 2.2 5.3 1.7 8.1l-1.4 9.1 2.8 20.2h-27.3l2.2-21.7-1.3-31.2 12.4 1.5 2.2-.4z"/><path class="st20" d="M290.3 207.3h-18.6v-3.1l1.7-2.1h8.7l6.2 1.3c1.2.2 2 1.3 2 2.5v1.4z"/><path class="st21" d="M271 205.9h19.8v1.4H271z"/><path class="st11" d="M266.5 205.9v-1.7l1.7-2.1h8.7l6.2 1.3c1.2.2 2 1.3 2 2.5v.1h.5v1.4h-19.7V206h.6z"/><path class="st20" d="M283.5 207.3H265v-3.1l1.7-2.1h8.7l6.2 1.3c1.2.2 2 1.3 2 2.5v1.4z"/><path class="st21" d="M264.3 205.9h19.8v1.4h-19.8z"/><path class="st19" d="M274 98.6c.2 0 .1 0 0 0zm-9.7 10c.8-.7.7-2 1.6-2.8.3-.3.2-.7-.1-.9 1-.6 1.2-2.2 2.6-2.4 1.2-.2 0-.7-.3-.9 2.1.3 5.5-2.7 6-3-.7.2-4.7 1.3-5.3 1.3-1.1-.1-2.2 0-2.9-1.1-.5-.6 1.5-3.7 1.3-3.6.4-.2-.5-1.5-1-1.6-2.8-1.3-3.6-5.5-4.4-8.2-.2-.8-1.4-.4-1.2.3.8 2.8 2.6 5.3 3.4 8 .3.9.6.3.7.4.1.2-.6.8-.5 1.1.5 4.5-2.1 5.3.7 5.7-.1.1-.4.3-.7.5-.4.2-.4 1 .1 1.1-.8.6.4 1.3-.5 1.9-.6.2-.6 1 0 1.2 1.2.3-.4 3.8.5 3zm18.7-3.8c-.4-1.4-.5-3 0-4.3.2 0 .3-.1.5-.2.1-.1.2-.2.3-.4l.1-.6v-.2h.1l.5-3.2c-.2 0-.3.2-.4.4-.1.3-.2.6-.4.9-1.7.7-3.4 1-5.3 1-.8 0 1 1 1.7 1.1 2.1.3.5.7 1.6 1 0 .1-.1.2-.1.3-.2 1.5-1.1 1.7-.6 3.1.1.7 2 1.1 2 1.1z"/><path d="M264.6 97.6l1.1 4.6 15.7-.6 2.4-1.3-.7 4.5.1 1.1-.1-.1-17.9 3.8c-1.8.4-3.6-.1-5-1.1l.5-5.2-.2-4.4 4.1-1.3z" opacity=".1" fill="#191c3c"/><path class="st16" d="M264.6 96.6l1.1 4.6 15.7-.6 5.3-2.8 3.1-2.2v.6c0 .9-.4 1.7-1.1 2.2l-.3.2 1.4 1.1.8.5c.7.5.9 1.5.6 2.3l-.5 1.1c-.6 1.2-1.7 1.9-3 1.9h-2.8l-1.6-.7-17.9 3.8c-2.9.6-5.9-1-7-3.8l-2.1-5.4 8.3-2.8z"/><path class="st11" d="M264.9 98l-8.4 2.7-.5-1.3 8.6-2.8z"/><path class="st18" d="M260.3 71.2l-6.4 5.9c-2.2 2-3.2 5.1-2.5 8.1l3.4 14.6 10.8-3.5-2.6-10.7.7-10.6-3.4-3.8z"/><path class="st10" d="M270.6 64.5c0-1.3.1-2.6.2-3.9 0-1.3-.3-2.7-.2-4.1.1-2.6.6-5.2 1.6-7.6.1-.2.2-.4.3-.5.2-.1.4-.1.6-.1 1 0 2.1 0 2.8.6.7.5 1 1.4 1.3 2.3.6 1.7 1.7 3.9 1.7 5.7 0 1.7-.9 3.5-1.2 5.1-.6 2.6-.2 5.3-.6 7.9-.2 1.3-.4 2.7-.2 4 .2 1.2 1.2 2.2 2 3l.2.2c.1.1.2.1.3.1.7.1 1.4.5 1.7 1.2-.3.4-.9.4-1.4.2-.5-.2-1-.4-1.5-.2 0 .4.5.6.4 1-.1.2-.3.3-.6.3-1.5.1-1.7-.5-2.2-1.6-.8-1.6-.5 1.2-.4 1.6-.4-.1-.7-.4-1-.7-.2-.3-.4-.7-.6-1.1-.5-.9-1.2-1.5-1.7-2.4-1.1-2.1-1.7-4-1.7-6.4.3-1.6.2-3.1.2-4.6z"/><path class="st16" d="M267.9 78c2.1 0 3.9-1.7 3.9-3.9V63.8h-7.7v10.3c0 2.1 1.7 3.9 3.8 3.9z"/><path class="st11" d="M264.1 69.5l7.7 2.5v-8.2h-7.7z"/><path class="st16" d="M277 57.1v4.5c0 .6-.1 1.1-.4 1.6l-3.5 6.2c-.3.6-.9.9-1.5.9h-1.8c-.4 0-.9-.2-1.2-.5l-4-3.7c-.6-.6-1-1.4-1-2.3V54s3.7-3.9 9-2.6c2.6.6 4.4 3 4.4 5.7z"/><path class="st1" d="M274 65.6h-5.3s2.4 4.8 5.3 0z"/><path class="st10" d="M274 47.7c-.7-.4-1.6-.3-2.4-.5-.9-.2-1.8-.6-2.7-.8-2.2-.5-4.5.6-6 2.2s-2.4 3.7-3 5.9c-1.1 3.9-1.3 8-.7 12 .3 1.8 1 3.5 1.1 5.3.1 1.6.6 2.5 1.7 3.8.7.8 1.3 1.6 2 2.4.5.6 1 1.2 1.7 1.7.5.3 1.2.5 1.6.8.4-.4.4-1.1.2-1.6-.1-.5-.4-1.1-.4-1.6.3.6 1 1 1.7 1.1.2 0 .8.1.9-.2.1-.4-.4-.3-.5-.5v-.9c.6.3 1.3.3 2 .2-1.2-.9-2.4-1.8-3.5-2.7-1.6-1.3-2.5-3.9-3-5.8s-.7-3.8-.9-5.8c-.1-.9 0-1.8.2-2.7.2-.9.1-1.9.3-2.8.1-.3.2-.6.3-.8.3-.4.9-.6 1.4-.8 1.7-.6 3.4-1.2 5.1-1.4.8-.1 1.7-.1 2.5-.3.8-.2 1.6-.6 2.1-1.3 1-1.8-.2-4.2-1.7-4.9z"/></g><g id="Layer_7"><path d="M33.9 80.6v73.2l2.2-30.2c.2 0 .4-.2.4-.5v-5c0-.3-.2-.5-.5-.5l.3-3.6h.2v-.8c1.8.3 3.7-.1 4.7-1.6.6-.9.9-2.3 1.2-3.8.4 0 .8.1 1.1 0 .4-.1.8-.3 1-.6.2-.4-.1-.9-.5-.9.2-.2.5-.3.7-.3.1-.6-.2-1.3-.8-1.6.6-.1 1.1-.7 1-1.3-.1-.6-.6-1.2-1.2-1.2 0-.5.7-.5.9-.9.3-.5-.3-1.1-.9-1.3-.3-.1-.6-.1-.9-.1 0-.7-.1-1.2-.1-1.2.2-1.7.1-3.4-.1-5-.1-1.4-.4-2.8-.8-4.2-.1-.5-.2-1-.4-1.6 0-.2-.1-.4-.2-.5 0-.1 0-.2-.1-.3-.6-2.7-2.1-4.9-3.9-6.9l-.1-.1h-2.3c-.3-.4-.9.1-.9.8zM46.8 207l-.1-.4c-.5-1.7-1.8-3.1-3.6-3.7l-7-2.4-5.2-4.4.3-3.7h-3.4l.1 3.7-1.1 1.8v3.1c5.2 3.9 11.6 6 18.2 6h1.8z" opacity=".4" fill="#191c3c"/><path id="XMLID_1451_" fill="#093a66" d="M24.4 122.7l10.7-.3-4.3 73.6h-3.9l-1.8-62.1h-2L19.4 196h-3.9l-1.8-73.6z"/><path id="XMLID_1457_" class="st25" d="M19 130.7c2.5 4.1 4.1 3.2 4.1 3.2L19.4 196h-1.9c.1-2.9.1-5.7.2-8.6.1-3.6.2-7.1.7-10.6.5-3.8.6-7.6.7-11.5 0-1.6.1-3.3-.1-4.9-.3-2.9-1-5.7-.9-8.6.1-1.2.4-2.4.5-3.6.1-1.5.1-3.2.1-4.7.1-3.1.1-6.3.2-9.3.1-.6.5-2.8.1-3.5z"/><path id="XMLID_1458_" class="st25" d="M29.5 122.9c.1-.1.3-.3.4-.3 1.2-.5 3.7-.1 5-.1l-4.3 73.6h-2.5s.5-7 .4-7.5c-.3-1.2-.7-2.5-.8-3.7-.1-1 0-2.2.1-3.2.3-3 .2-5.8.6-8.8.3-2.3-.2-4.7.3-6.9.3-1.4.7-3 .4-4.4-.2-.7-.5-1.4-.7-2.2-.3-1.1-.2-2.4-.2-3.5.3-5.7.4-11.5.5-17.2 0-2.8.1-5.5-.3-8.2.1-1.7 0-6.2 1.1-7.6z"/><path id="XMLID_1389_" class="st7" d="M22.2 60.8h5.2v17.7h-5.2z"/><path id="XMLID_1454_" fill="#ddab52" d="M27.5 74.2l-5.3-3.4v-1.5l5.3 1.6z"/><path id="XMLID_1410_" class="st27" d="M41.5 97.6v-.3c.1.1.1.2 0 .3zM8.8 108.3c.5 1.5 1.3 3.2 2.9 3.8.6.2 1.2.2 1.9.2h.2v6.2h20.9l.5-6.3c1.5.7 3 .9 4.4-1.3 2.2-3.4 1.9-9.3 1.7-13.3 0 .1.3-1.1.1-1.1.3-3.7-.5-6.5-1.4-10-.8-3.4-2.9-6.2-5.4-8.4-2.6-2.4-5.6-1.4-7.3-4.7L25 75.8l-2.9-2.6c-1.4 1.9-4.5 1.8-6.6 2.6-2.6.9-3.9 3.1-4.9 5.5-3.1 8-4.4 18.7-1.8 27z"/><path id="XMLID_1382_" class="st28" d="M36.9 52.7c.2 2.2-.5 4.4-.3 6.6.1 1.2 1.6 4.2.1 4.8-.7.3-1.5.1-2.1-.4.5 2.7-1 6.9-4.3 7.8-2.5.7-3.5-.2-5.8-.7-.9-.2-1.6-.5-2.6-.7-1.4-.4-1.4-.6-1.6-2.1-.3-2.4-.6-4.8-1-7.2-.2-1.2-.3-2.7.2-3.8.5-1.2 1.6-2.1 2.7-2.8 2.1-1.4 4.1-2.9 6-4.3.4-.3.8-.6 1.3-.6.6-.1 1.2.1 1.8.4 1.9.9 3.8 2.2 5.4 3.7"/><path id="XMLID_1368_" class="st29" d="M37.3 47.1c0 .3.2.5.5.5"/><path id="XMLID_1375_" class="st10" d="M39.8 52.3c.4-1.3.7-2.7.5-3.9-.3-1.2-.6-2.6-1.8-3.2-1-.5-2.1-.1-3-.5-1.2-.6-1.9-1.5-3.5-1.1-.7.1-1.3.5-2.1.7-2.3.6-4.4-2.2-6.7-.2-.9.8-1.2 2.2-2.4 2.7-1.7.9-1.8 1.1-2.5 2.9-.5 1.4-1.5 2.1-1.8 3.7-.2 1.3-.9 2.5-1.1 3.8-.2 1.3.3 2.6.4 3.9 0 1.6-.2 3.3-.1 4.9 0 .6.1 1.1.1 1.7.1 1.1.1 1.9 1.2 2.5 1 .4 2.7.2 3.8 0 .5-.1 1-.3 1.2-.7.1-.2.1-.4.1-.6 0-2.2-.6-4.3-.8-6.5 0-.4-.1-.9.1-1.3.1-.4.4-.8.8-.9 1.2-.3 3.3 1.2 3.4-.5.1-1.6-.2-3.4.2-4.5.1-.2-.2-.3-.1-.5.1-.1.1-.1.3-.1.7-.2 1.5-.3 1.8-.9.2-.3.1-.7.3-1 .3-.6 1-.8 1.6-.7.9.2 1.6 1.5 2.7 1.4.6-.1.9-.9 1.5-1.1.5-.2 1 .1 1.4.4.4.3.7.7 1.1.9.3.2 2.5-.1 2.7-.4.4-.4.5-.7.7-.9"/><path id="XMLID_1403_" class="st29" d="M28.3 73.8c5 1.3 8.8 5.6 10.8 10.5 1.9 4.8 2.4 10 2.4 15.3"/><path id="XMLID_1437_" class="st10" d="M14 123.5c7 .9 13.9.9 20.9 0 .2 0 .4-.2.4-.5v-5c0-.3-.3-.5-.5-.5-6.9.8-13.8.8-20.7 0-.3 0-.5.2-.5.5v5c0 .3.1.5.4.5z"/><path id="XMLID_1449_" class="st30" d="M27.7 124.1c-2.1.1-4.1.1-6.2 0v-5.9c2.1.1 4.1.1 6.2 0v5.9z"/><path id="XMLID_1444_" class="st10" d="M30.8 196l5.2 4.4 7 2.4c1.7.6 3.1 1.9 3.6 3.7l.1.4H32.8l-1.1-2.4v2.4h-5v-9.1l1.1-1.8h3z"/><path id="XMLID_1448_" class="st10" d="M15.9 196l-5.2 4.4-7 2.4c-1.7.6-3.1 1.9-3.6 3.7l-.1.4h13.8l1.1-2.4v2.4h5v-9.1l-1.1-1.8h-2.9z"/><path id="XMLID_1438_" class="st10" d="M25.9 66.2V53.9h-2.4v9.7c.1 1.5 1.2 2.6 2.4 2.6z"/><path class="st31" d="M21.9 113.6l3.3 3 3.3-3-2-32.5H24z"/><path fill="#679df4" d="M24.4 115.9l-2.5-2.3L24 81.1h1.2v35.5z"/><g id="XMLID_1426_"><path id="XMLID_1431_" class="st7" d="M19.8 100.3c0 .1 0 .1 0 0z"/><path id="XMLID_1430_" class="st7" d="M20.3 102.4c-.3-.5-.4-1.1-.6-1.6.1-.1.1-.2.1-.4-.2.3-.7.3-.9 0-.3-.3-.3-.7-.4-1.1-.2-1.6-.2-3.4-.2-5-.6-.2-1.1.3-1.4.8-.5.9-.7 2.2-.4 3.2-.9-.7-2.2-.9-3.3-.6-.6.2-1.2.8-.9 1.3.2.4.9.5.9.9-.6 0-1.2.5-1.2 1.2-.1.6.4 1.2 1 1.3-.6.3-.9 1-.8 1.6.3 0 .6.1.7.3-.4 0-.6.5-.5.9.2.4.6.6 1 .6.4.1.8 0 1.2 0 .7 0 1.3.1 2.1 0 .7-.1 1.3.2 2.2.2h.5c.5-.1.8-.6 1-1.1.2-.5.3-1.1.7-1.5-.3-.2-.7-.7-.8-1z"/></g><path id="XMLID_1440_" class="st33" d="M41.5 97.7v-.3c.1.1.1.3 0 .3zm-1.3 12.4l.3-.6c1.4-3.4-3.8-4.4-3.8-4.4-.8.4-1.7-.3-2.5-.9-1-.9-1.7-1.8-3.1-2.3-3.8-1-8.2-1.8-12-3.2 0 1.7-.5 3.3-.9 5 1.6.3 3.1 1.1 4.5 1.8 2.6 1.3 4.4 2.1 6.8 3.6 1.2.8 2.9.4 4.2 1 2.5 1.4 4.4 3.1 6.5 0z"/><g id="XMLID_1445_" class="st34"><path id="XMLID_1446_" class="st35" d="M41.5 97.6v-.3c.1.1.1.2 0 .3z"/><path id="XMLID_1447_" class="st35" d="M35.4 114c-1.2-.2-2.4-.6-3.3-1-3.2-1.6-6.4-3.5-9.5-5.1-1.4-.7-3-1.5-4.5-1.8.4-1.7 1-3.3.9-5 3.8 1.3 8.2 2.2 12.1 3.3 1.3.4 2.2 1.3 3.2 2.3.7.6 1.6 1.3 2.5.9 0 0 5.2.2 3.1 3.6-1.4 2.3-2.9 2.1-4.4 1.3v1.5z"/></g><g id="XMLID_1427_" class="st34"><path id="XMLID_1435_" class="st35" d="M32.5 105.2c.7.6 2.1-20.1 2.1-20.1s4.3-1.1 5.1 2.3c.9 3.6 1.5 7.3 1.1 11.1.1 0 .2-.1.3-.2.2 4 .4 9.8-1.7 13.3-1.7 2.4-7.9-7.4-6.9-6.4z"/><path id="XMLID_1434_" class="st35" d="M41.1 98.1v-.3c.1.1.1.2 0 .3z"/></g><g id="XMLID_1417_"><path id="XMLID_1432_" class="st27" d="M19 99.9c3.8 1.3 8.2 2.2 12.1 3.3 1.3.4 2.5-.8 3.5.1l.2-20.5s-2.2-6.6.4-4.3c2.6 2.4 4.5 5.3 5.3 8.7.9 3.6 1.6 7.1 1.3 10.8.1 0 .5 9.9-1.6 13.3-1.6 2.7-5.7 1.7-8 .6-3.2-1.6-6.4-3.5-9.5-5.1-1.4-.7-3.1-1.2-4.7-1.5.4-1.8.8-3.9 1-5.4z"/></g><path id="XMLID_1396_" d="M16.4 75.8c-2.6.9-3.9 3.1-4.9 5.5-3.3 7.9-4.6 18.8-1.9 27 .5 1.5 1.3 3.2 2.9 3.8.6.2 1.2.2 1.9.2l2.3-7-.7-20.2s2.6-10.1.4-9.3z" opacity=".2" fill="#231f20"/><g id="XMLID_1418_"><path id="XMLID_1424_" class="st7" d="M36.1 102s0 .1 0 0c0 .1 0 .1 0 0z"/><path id="XMLID_1425_" class="st7" d="M35.6 104.1c.3-.5.4-1.1.6-1.6-.1-.1-.1-.2-.1-.4.2.3.7.3.9 0 .3-.3.3-.7.4-1.1.2-1.6.2-3.4.2-5 .6-.2 1.1.3 1.4.8.5.9.7 2.2.4 3.2.9-.7 2.2-.9 3.3-.6.6.2 1.2.8.9 1.3-.2.4-.9.5-.9.9.6 0 1.2.5 1.2 1.2.1.6-.4 1.2-1 1.3.6.3.9 1 .8 1.6-.3 0-.6.1-.7.3.4 0 .6.5.5.9-.2.4-.6.6-1 .6-.4.1-.8 0-1.2 0-.7 0-1.3.1-2.1 0s-1.3.2-2.2.2h-.5c-.5-.1-.8-.6-1-1.1-.2-.5-.3-1.1-.7-1.5.2-.3.7-.7.8-1z"/></g><path id="XMLID_1436_" class="st33" d="M14.9 107.8l19.5-3.9c.7-.1 1.4-.2 2.1.1.4.2.6.7.8 1.1.6 1.4-.3 3.2-.7 4.6-1.6.4-3.4.9-5 1.3-5.7 1.5-11.5 3.1-17.4 3.2v-2.1H14c-.6 0-1.3 0-1.9-.2-1.8-.4 2.8-4.1 2.8-4.1z"/><path id="XMLID_1411_" class="st27" d="M20.9 75.7c-1.4 1.9-3.3-.6-5.4.1-2.6.9-3.9 3.1-4.9 5.5-3.3 7.9-4.6 18.8-1.9 27 .5 1.5 1.3 3.2 2.9 3.8.6.2 1.2.2 1.9.2 6 0 12-1.6 17.8-3.2 1.8-.5 3.9-1.1 5.8-1 .2-.7-.7-6.3-.7-6.3-1.6.5-8.6 1.6-10.5 1.9-1 .2-11.5 2.1-11.5 2.1L15.7 85l5.2-9.3z"/><path id="XMLID_1439_" class="st30" d="M22.2 80.8L19.1 75c1.3-.3 2.5-.8 3.3-1.8l2.9 2.6-3.1 5z"/><path class="st31" d="M23.1 79.2l.8 1.9h2.6l.7-1.8-2.1-3.6z"/><path id="XMLID_1443_" class="st30" d="M30.4 75.8l-2.4 5-2.9-5 2.4-2.6c.7 1.5 1.7 2.1 2.9 2.6z"/></g><g id="Layer_18"><path class="st10" d="M65.7 74.2c-.3-1.4-1.2-2.9-.7-4.3.4-1.1 1.6-1.8 2.4-2.7 1.4-1.5 1.9-3.7 1.9-5.7 0-1-.1-2 .1-3 .4-2 1.9-3.5 2.9-5.3.4-.6.7-1.2 1.2-1.7.6-.5 1.3-.8 2-1 1.6-.6 3.2-1.1 4.8-1.6.8-.2 1.6-.5 2.4-.2.6.2 1 .7 1.5 1.2.8.9 1.7 1.9 2.5 2.8.7.4 1.2 1.1 1.4 1.9.3 1.2 0 2.5-.2 3.7-.2 1.2-.4 2.5.1 3.7.5 1.1 1.7 1.9 2 3.1.3 1.2-.4 2.3-1.1 3.4-1.1 1.8-2.1 3.8-1.6 5.9.3 1.2 1 2.3 1.2 3.6.2 1.4-.5 2.8-1.6 3.6-.7.5-1.5.8-1.8 1.6-.2.6 0 1.2-.1 1.8-.2 1.3-1.7 2-2.9 2-1.3-.1-2.4-.8-3.5-1.5s-2.3-1.4-3.6-1.4c-2.5-.1-4.9 2.2-7.3 1.3-1.9-.7-2.5-3.1-2.4-5.1.2-2.1.8-4.1.4-6.1z"/><path transform="rotate(-180 76.136 77.142)" class="st30" d="M71 71.3h10.2V83H71z"/><path transform="rotate(-180 77.098 71.08)" class="st30" d="M74.5 65.2h5.2v11.7h-5.2z"/><path opacity=".4" fill="#191c3c" d="M74.5 68.1l5.2 2.6v-5.5h-5.2z"/><path class="st30" d="M82.2 69.5c1.8.9 5-1.9 4.9-6.5 0-.2 2.2-.4 2.1-.6-2.4-3.3-2.8-9.4-4.2-10.8-3.2-3.2-16.1 0-16.1 0v7.6c0 6.9 13.3 10.3 13.3 10.3zm2 99.1s-5.1 17.7-5.9 25.9l-5.7-2s1.8-8 .7-16l10.9-7.9z"/><path class="st10" d="M78.3 194.5l5.2 8.3 8.6 2.2v.8l-8.6 1.5s-2.7 0-3-.7l-6.5-6.2h-1v6.2h-1.3s.8-5.1 0-6.1c0 0-2-2.9-.5-7.4l1.5-.7 5.6 2.1z"/><path class="st11" d="M82.9 173.4l-9.3 8.6c0-1.8-.1-3.6-.4-5.5l10.9-7.9c.1 0-.4 1.9-1.2 4.8z"/><path class="st30" d="M90.1 164.7l-23.9 22.1-2.9-4.9 12.8-17.2z"/><path class="st10" d="M66.2 186.8l-5.1 11.4 2.4 5.6-1 2.9-5.4-7.6s-1.2-2.2 0-5.2l1.5-5.7s.7-1.2-.7-.8c-1.3.3-4.9 2.9-4.9 2.9V189l3.7-3.1 2-2.9s3.4-2 4.5-.8l3 4.6z"/><path class="st38" d="M70.4 122.6s-2.9 8.8 0 15.5c1.6 3.7 1.9 8.5 2.2 12.5.3 3.9.2 9.8-.5 13.6-.4 2.5-.6 2.9 2.2 3 2 .1 3.9-.2 5.7-1 .6-.2 1.1-.5 1.7-.5.7 0 1.4.3 2.1.5 1.7.6 3.7.6 5.4.1.6-.2 1.2-.4 1.8-.5 1.9-.3 3.6 1.4 5.4 1.1 1.6-.2 1.2-.7 1-2.1-.4-2.3-.9-6.6-1.4-8.9-.8-4.2-2.3-9-2.1-13.2v-19.5s.9-4.8 1.6-6.9l-25.1 6.3z"/><g class="st39"><path class="st40" d="M95.9 164.7c-.4-2.3-1.4-6.6-1.9-8.9-.7-3.8-1.6-8.2-1.6-12.2 0-1.2-.1-2.4-.3-3.5l-2.2-17s3.3-4.2 4-6.5l1.6-.4c-.7 2.2-1.6 6.9-1.6 6.9v19.5c-.3 4.3 1.3 9.1 2.1 13.2.4 2.3 1 6.6 1.4 8.9.2 1.4.6 1.9-1 2.1-.4 0-.7 0-1.1-.1 1.2-.1.9-.7.6-2z"/></g><path class="st11" d="M70.4 122.6l24.6-6.3.4.9c-.4 1.4-.8 3.5-1.2 5.2-3.8 2.4-11.9 5.9-24.7 4.5.3-2.5.9-4.3.9-4.3z"/><path class="st38" d="M81.3 71.3l4.2-.1c1 0 4.7.7 5.5 1.3l2.1 3.1c.5.3.1 10.3.1 10.3l.3 19.8c0 .6.1 1.2.4 1.8l3.8 9.1s-8.8 8.4-27.3 6.1V116l-7.9-36.4 7.1-6.7 10.1 3.5 1.6-5.1z"/><path class="st11" d="M71 80.6l-3.1 23.8-5.4-24.9z"/><g class="st41"><path class="st10" d="M70.5 124c-.6 2.6 0 5.5 1.7 7.6.7 1 1.6 1.8 2.4 2.7 1.2 1.5 2.1 3.3 2.9 5 .9 1.9 1.8 4 1.3 6.1-.3 1.2-1 2.2-1.5 3.3-1.2 2.6-1.3 5.6-.3 8.3.7 1.8 1.9 3.4 2.6 5.2.5 1.2.8 2.7.5 4-1.8.7-3.7 1-5.6.9-2.8-.1-2.6-.5-2.2-3 .7-3.8.7-9.8.5-13.6-.3-3.9-.6-8.8-2.2-12.5-2.3-5.5-.9-12.3-.2-14.6-.1.2 0 .4.1.6z"/><path class="st10" d="M70.6 125.1l-.1-1c.2.3.2.7.1 1zm-.1-1v-.2.2z"/></g><path class="st11" d="M70.4 115.8l-1.7-7.7 17-.5v5.3l-15.3 3.3z"/><path class="st42" d="M75.8 81.8s8.7 11.3 12.6 28.1c0 0-1.5-25.9-4-31.8l-1.7-3-3.1 1.1-4.6 1 .8 4.6z"/><path class="st43" d="M88.4 109.9S79 89.1 77 88.5l-.8 1.3-.6-4.9-1 2-4.9-14.2c-.1 0 14.6 17.9 18.7 37.2z"/><path class="st11" d="M81.3 72.9l3.1 2.9v3.8l-1.5-3.5-1.6 4.5-3.5-1.5-1.8 4.6-6.4-11 .8-2.2 9.3 7.3.8-4.4z"/><path class="st42" d="M89.2 110.3s1 10.7-1.9 11.4c0 0 6.7-2.6 7.2-2.9.5-.3-4-.7-5.3-8.5z"/><path class="st43" d="M94 118.8c.5-.3-3-.6-4.7-5.9 0-1.5-.1-2.5-.1-2.5 1.3 7.8 5.8 8.2 5.3 8.5-.5.1-.5-.1-.5-.1z"/><path transform="rotate(-83.921 72.85 105.634)" class="st30" d="M70.7 99.8h4.2v11.8h-4.2z"/><path class="st38" d="M69.6 101.9l20 .6-5.3-25.2c-.6-2.5 1.1-5 3.6-5.4 2.4-.4 4.7 1.2 5.2 3.7l4.9 29.9c.5 3.5-2.3 6.5-5.8 6.2l-22.6-3.5v-6.3z"/><g class="st39"><path class="st40" d="M89.3 102.5l-19.7-.6v.5s18.7 3.2 21.3 2.1c.6-.3-2-.7-2-.8 0-.2 2.3.2 2.2 0-.5-.6-1.8-1.2-1.8-1.2z"/></g><path class="st30" d="M68.1 103c0-.2-1-1.4-1.1-1.6-.2-.2-.4-.3-.5-.5-.5-.4-1.1-.7-1.8-.6-.6.1-1.1.2-1.7.1-.8-.1-1.5-.5-2.4-.4-.4.1-.8.4-.7.8 0 .5.6.8.5 1.3 0 .3-.4.6-.5.9-.1.4.4.8.3 1.3 0 .4-.4.7-.6 1-.2.4-.1.8.1 1.1.2.3.5.6.9.8.9.5 1.8.5 2.7.5.9 0 1.9-.4 2.8-.3.7 0 1.3-.5 1.4-1.2.1-.5.1-.2.2-.8.3-.9.3-1.4.4-2.4z"/><path class="st43" d="M87.2 102.4h1.3c-.9-6.4-1.7-13.7-.9-14.6l1.4.6-2.2-4.4 2 1.1-6.3-12.8c0 .1-.8 12.4 4.7 30.1z"/><path fill="#f5f7f9" d="M81.3 71.3l3.1 3v3.8l-1.5-2-1.6 3h-3.5l-2 2.7-6.2-9.1.8-3.7 9.3 7.3.8-4.4z"/><path transform="rotate(-96.079 82.463 109.885)" class="st30" d="M80.3 104h4.2v11.8h-4.2z"/><path class="st38" d="M85.7 106.2l-20 .6L71 81.6c.6-2.5-1.1-5-3.6-5.4-2.4-.4-4.7 1.2-5.2 3.7l-4.9 29.9c-.5 3.5 2.3 6.5 5.8 6.2l22.6-3.5v-6.3z"/><g class="st39"><path class="st40" d="M66 106.7l19.7-.6v.5s-18.7 3.2-21.3 2.1c-.6-.3 2-.7 2-.8 0-.2-2.3.2-2.2 0 .6-.6 1.8-1.2 1.8-1.2z"/></g><path class="st30" d="M87.2 107.3c0-.2 1-1.4 1.1-1.6.2-.2.4-.3.5-.5.5-.4 1.1-.7 1.8-.6.6.1 1.1.2 1.7.1.8-.1 1.5-.5 2.4-.4.4.1.8.4.7.8 0 .5-.6.8-.5 1.3 0 .3.4.6.5.9.1.4-.4.8-.3 1.3 0 .4.4.7.6 1 .2.4.1.8-.1 1.1s-.5.6-.9.8c-.9.5-1.8.5-2.7.5-.9 0-1.9-.4-2.8-.3-.7 0-1.3-.5-1.4-1.2-.1-.5-.1-.2-.2-.8-.3-.9-.3-1.5-.4-2.4z"/><path class="st10" d="M57.3 109.7l3.4-20.6c.1.7.3 1.4.5 2.1.3.9.8 1.7.9 2.6.1.9-.1 1.8-.3 2.7-.5 2.2-1 4.3-2 6.3-.2.5-.5 1-.5 1.6 0 .5.3 1 .5 1.5 1.1 2.4.7 5.4-1 7.4-.1.2-.3.3-.4.5-.9-1.2-1.3-2.6-1.1-4.1z" opacity=".2"/><path class="st10" d="M59.8 81.3c1.7-2.1 2.8-4.7 3-7.3.2-2.7-1.5-5.6-.8-8.3.6-2 2.6-3.2 3.4-5.1.8-1.8.3-3.9.6-5.9.9-6.8 9.5-7.7 15-6.8 1.7.3 5.7.9 6.4 2.9.9 2.6-3.2 3.9-5 3-.5-.3-1-.7-1.6-.9-.8-.3-1.7-.1-2.3.5-.6.6-.9 1.5-.7 2.3.1.5.4.9.4 1.4.1 1.3-1.5 1.9-2.7 2-.4 0-.8 0-1 .2-.2.2-.3.4-.4.6-1.1 3.5 1.4 5.7-1.5 8.5-2 2-6.6 5.5-4.6 8.8.4.6 1 1.1 1.1 1.8.2 1-.7 1.9-1.6 2.4-.9.5-1.9 1-2.3 1.9-.4 1-.1 2.1 0 3.2.2 3.2-1.9 3.5-3.8 5.2-1.4 1.2-1.9 3.8-1.7 5.6 0 .3 0 .7-.3.7-.1 0-.2 0-.4-.1-.7-.4-1.3-.8-1.8-1.3-.5-.6-.9-1.3-.7-2.1.1-.5.3-.9.5-1.4.4-1.6-.8-3-1-4.6-.5-3.4 2.1-5.1 3.8-7.2z"/></g><g id="Layer_10"><path d="M151 95.9l1.8 3.7c.2.5.4.8.6 1.1l.2.4c.1.2.2.3.2.4l.1.3c.2.3.3.6.5.8 1.4 2.1 3.3 2.4 4.6 2.3.6 0 1.3-.3 1.8-.7 1.7-1.8 4.1-5.1 6.3-8.3H151zm-8 110c.2-.4.4-.8.5-1.3.1-.5.1-.9.1-1.4l-.3-5.1c-.1.2-.1.3-.2.5l-.6-7.3c3.8-17.5 4.6-28.6 4.7-33.4v-2h2c.8-6.7 4.8-19.3 4.8-19.3 2.4-10.4 1.4-16 .2-18.9v-.1c1.3-.4 2.1-.6 2.1-.6l-3.2-7.8v-.1c-.1-.2-.2-.5-.3-.6 0-.1-.1-.1-.1-.2-.1-.2-.2-.5-.3-.6 0-.1-.1-.1-.1-.2-.1-.3-.2-.6-.3-.7v-.1c-.1-.2-.2-.5-.3-.6 0-.1-.1-.2-.1-.2-.1-.2-.2-.4-.2-.6 0-.1-.1-.2-.1-.2-.1-.2-.1-.4-.2-.5 0-.1-.1-.1-.1-.2-.1-.2-.1-.4-.2-.5 0-.1-.1-.1-.1-.2l-.3-.6s0-.1-.1-.1c-.1-.2-.1-.3-.2-.4 0-.1 0-.1-.1-.2s-.1-.2-.1-.3c0-.1 0-.1-.1-.2 0-.1-.1-.2-.1-.3 0-.1 0-.1-.1-.1 0-.1-.1-.2-.1-.2v-.1c0-.1-.1-.2-.1-.2-.1-.2-.2-.5-.3-.7-.1-.5-.2-1-.2-1.7v-2.5h-23.4l.9 5.9v.3c0 .1 0 .2-.1.4 0 .2-.1.3-.1.5v.2c0 .2-.1.4-.1.6 0 .2-.1.5-.1.7v.2c-.1.3-.1.6-.2.8-.1.3-.1.6-.2 1v.1c-.1.4-.2.6-.2 1-.1.6-.3 1.2-.4 1.9-.2.8-.4 1.8-.6 2.6l-.3-12 .1-4.3h-7.9l1.4 29h.9v.6c-.5.3-1.2.8-1.3 1l-.6.6c-.5.5-.6 1.1-.6 1.8.1.6.2 1.1.1 1.7-.1.8-.6 1.5-.4 2.4.1.4.5.7.8.7.5 0 .8-.6 1.3-.6.4.1.6.4.9.5.5.1.8-.4 1.3-.4.4 0 .6.4 1 .6.1 0 .2.1.3.1v1.4c.8 4.9 0 20.8 0 20.8h1.4c-.1.4-.3 1.1-.5 2-.9 4.6-2.8 15.9-3.2 35.2l-1 5.7-.6 3.4v2.5c0 .4.1.7.4 1 .4.5.9.8 1.6.8h.8c2.4 0 4.4.7 4.5-1.7l.6-7-.3-2.2-.8-6c.2-.6 2.9-12.7 6.9-27.9l1.7-5.9h3.5l.4 2 .6 3.4c-.6 3.8.5 27.3.5 27.3l-1.9 7.6.7 9c0 .5.3.9.6 1.2.4.3.7.5 1.2.5h2.3c.5 0 .9-.2 1.3-.6.7-.3.9-.5.9-.6z" opacity=".3" fill="#233449"/><linearGradient id="SVGID_1_" gradientUnits="userSpaceOnUse" x1="134.745" y1="925.487" x2="141.063" y2="889.655" gradientTransform="translate(0 -842)"><stop offset="0" stop-color="#de4437"/><stop offset="1" stop-color="#ffc107"/></linearGradient><path d="M150.7 72.7c-.2-.3-.5-.6-.6-.8-.8-1.4 1.1-3.2.6-4.7-.4-1-1.8-1.5-2.1-2.5-.5-1.2.6-2.9-.2-3.9-.2-.3-.6-.5-.7-.7-.6-.7-.4-1.8-.4-2.7-.1-1.9-1.6-3.4-1.9-5.3-.1-.4-.1-.7-.2-1.1-.2-.3-.4-.5-.6-.6-.8-.6-1.9-1.1-3-1.3-.5-.1-.9-.2-1.2-.5s-.3-.7-.6-1c-.2-.1-.4-.2-.6-.2-1-.1-2-.2-3.1-.2h-.5c-.9-.3-1.9.3-2.8.8-1.3.7-2.6 1.6-3.4 2.8-.8 1.1-1.1 2.6-2 3.7-.7 1-1.9 1.4-1.7 3 0 .5.2.8.1 1.3-.1.4-.3.6-.3 1 0 .5.3.9.3 1.4 0 .6-.5 1.3-.8 1.9-.5.7-.6 1.7-.5 2.6.1.5.3 1 .3 1.5s-.1.9-.3 1.3c-.5 1.4-1.4 2.4-2 3.7-.6 1.2.6 2.2.8 3.4.3 1.1-.3 2.2-.2 3.2 0 .8.4 1.6.7 2.3.1.2.2.5.5.6.5.2.8-.4 1.1-.7.8-.8 2.2-.5 3.3-.7.9-.3 1.8-.9 2.7-.9s1.8.7 2.7.8c1.5.3 2.8-.9 4.2-1.5 3.2-1.4 7.1.3 10.1-1.6.6-.4 1.1-.9 1.7-1.5.6-.9 1.1-2 .6-2.9z" fill="url(#SVGID_1_)"/><path class="st7" d="M132.4 65h7.6v10.2h-7.6z"/><path class="st7" d="M141.9 75.2h-10.5v-5.3l10.5.9zm38.2 7c-.5-.2-1-.2-1.6-.1-2.6.4-6.1 1.4-8.7.9-.3-.1-.6-.2-.9-.4-.6-.4-.7-.9-1-1.5s-.6-1.2-1-1.5c-2.2-1.4-1.2 2.3-1.1 3.1.3 1.8-.6 2.5-.9 3.9-.4.2-.6.7-.5 1.1.1.6.5.9.9 1.3 2.4 2.2 3.5-.9 5-2.4 2.1-2.1 6.2-3 9.1-2.9.5 0 .9 0 1.2-.3.2-.3-.1-.9-.5-1.2z"/><path class="st1" d="M143.5 102.7h-17.8v-33l5.6 1.2 1.8 1.9c2.2 2.6 6.4 2.1 8.2-.7l.7-1.2 4.6 15.3-3.1 16.5z"/><path class="st7" d="M121.4 155.4s-3.2 11.3-3.9 37.7l-1.7 9v2.5c0 1 .8 1.9 1.9 1.9h.8c2.4 0 4.4-1.8 4.5-4.2l.6-4.4-1.1-8.2c-.2.8 2.6-11.8 6.9-27.9l1.9-6.4h-9.9z"/><path class="st7" d="M121.4 155.4s-3.2 11.3-3.9 37.7l-1.7 9v2.5c0 1 .8 1.9 1.9 1.9h.8c2.4 0 4.4-1.8 4.5-4.2l.6-4.4-1.1-8.2c-.2.8 2.6-11.8 6.9-27.9l1.9-6.4h-9.9z"/><path class="st12" d="M123.1 197.9c-.2 2.3-2.2 3.2-4.5 3.2h-.8c-.7 0-.9-1.7-1.3-2.2l-.6 3.4v2.5c0 1 .8 1.9 1.9 1.9h.8c2.4 0 4.4.7 4.5-1.7l.6-7-.3-2.2-.3 2.1z"/><path class="st7" d="M145 155.4s.4 12.1-4.8 35.9l1.1 12c.1.9-.1 1.9-.6 2.6-.3.6-.9.9-1.6.9h-2.3c-.9 0-1.8-.7-1.9-1.7l-.7-9 1.9-7.6s-1.1-23.5-.5-27.3l-1-5.8H145z"/><path class="st12" d="M141 198.2c-.1.3-.2.5-.3.7-.3.6-.9 1.5-1.6 1.5h-2.3c-.9 0-1.8-1.2-1.9-2.1l-.5-3.2-.3 1.2.7 9c.1.9.8 1.7 1.9 1.7h2.3c.6 0 1.3-.4 1.6-.9.5-.8.6-1.8.6-2.6l-.2-5.3z"/><path class="st25" d="M120.8 157.9h9.7l.7-2.5h-9.9c.1 0-.1.9-.5 2.5zm13.8-2.4l.4 2.5h9.9c.1-1.7 0-2.5 0-2.5h-10.3z"/><path class="st48" d="M150.4 115.1s5.6 4.2 1.5 21.6c0 0-4 12.6-4.8 19.3h-27.2s.8-15.9 0-20.8c0 0-.4-20.2 6.7-21.8l23.8 1.7z"/><path class="st25" d="M150.4 115.1l-23.8-1.7c-1.9.5-3.4 2.3-4.4 4.9 2.3 1.5 5.3 3.7 8.4 3.9 2.2.1 4.4-.9 5.6-2.8l1.6-2.4.3.5c1.2 2.6 4 4 6.9 3.4 3-.6 5.6-2.4 7.2-3.2-.9-2-1.8-2.6-1.8-2.6z"/><path class="st48" d="M141.9 70.8s8 1.2 9 4.3l-3.5 18.2s-.6 6 .2 7.6c.8 1.6 6.7 16.1 6.7 16.1s-4 1.3-9.4 2.3c-2.8.6-5.6-.9-6.9-3.4l-.3-.5-1.6 2.4c-1.2 1.9-3.3 3-5.6 2.8-3.5-.2-6.8-.8-9.3-2.3 0 0 3.3-15.3 3.3-16.5L122 86.5l3.4-16.5c0-.2-.1-.4.1-.3l5.6.2 7.2 28.6 4.8-10.2-1.2-17.5z"/><path class="st48" d="M141.9 70.8s8 1.2 9 4.3l5.2 20.2 8.3-9.5 5.1 2.5s-7.6 12.1-11.3 15.9c-.5.5-1.1.7-1.8.7-1.4.1-3.7-.3-5.1-3.2l-4-8.5-5.4-22.4z"/><path class="st25" d="M123.8 124.7c.3-.2.5-.5.6-.9.4-1.5-.7-3.4-.8-4.9-.2-1.7-.1-3.7-.1-5.4 0-1.2-.4-2.8-.1-4-.9 4.7-1.9 15.4-1.9 15.4.8-.1 1.7.1 2.3-.2zm.2-46.3l-1.7 8.1c-.1.5.2 1.3.3 1.8.2 1.3.5 2.6.6 3.8.1.6.2 1.2.3 1.9 0 .2.1 1.3.3 1.4.5.4.2-2.2.1-2.4-.1-1-.2-2 0-3.1.1-.5.2-.8.2-1.3s-.2-.8-.3-1.2c-.5-1.7-.1-3.7 0-5.4.1-1.3.1-2.5.2-3.6z"/><path d="M141.9 70.8l4 12.2-1.9 1.7 1.7 3.2-7.2 10.6 4.9-10.3zm-10.6-.9l-3.1 8.9 3.1 1.1-1.5 1.9 8.7 16.7zm7.1 33.4c-.1 3.9.4 8.3-.9 12.1-.1.2.3.3.4.1 1.2-3.7.8-8.3.5-12.2.1 0 0 0 0 0z" fill="#41359b"/><path class="st25" d="M120.6 133.6c.4.2.7.1 1.1-.1.4-.2.6-.6.7-.8.6-.8.6-1.8.6-2.7 0-.8-.3-1.8-.3-2.6v-5.1H121c-.8 4.1-1.1 8.4-1.1 10.8.3.3.5.4.7.5z"/><path class="st7" d="M117.3 125.3c-.3 0-1.4.9-1.6 1.1l-.6.6c-.5.5-.6 1.1-.6 1.8.1.6.2 1.1.1 1.7-.1.8-.6 1.5-.4 2.4.1.4.5.7.8.7.5 0 .8-.6 1.3-.6.4.1.6.4.9.5.5.1.8-.4 1.3-.4.4 0 .6.4 1 .6.4.2.7.1 1.1-.1.4-.2.6-.6.7-.8.6-.8.6-1.8.6-2.7s-.4-1.9-.3-2.8c0-.6-.6-1.3-1.2-1.4-.6-.1-.2-.1-.7-.2-.9-.2-1.5-.3-2.4-.4z"/><path class="st7" d="M117 122.3h4.7v5H117z"/><path class="st48" d="M125.7 69.7l-4.7 2.7c-1.9 1-3.2 2.7-4.1 4.6l-1.8 4.2c-1 3.2-.9 8.8-.8 9.9l1.7 33.8h7l-.6-24.8.5-13.8 2.8-16.6"/><path d="M131.3 72.5s0-.1 0 0c0-.1 0 0 0 0z" fill="#575a8f"/><path class="st51" d="M147.5 100.9c-.8-1.6-.2-7.6-.2-7.6l.3-1.5v.2c-.6.5-.9 1-1.2 1.6-.7 1.7.3 4.8-1.1 5.9-.5.4-1 .6-1.6.8-.3.1-.6.3-.7.5-.2.3-.2.6.1.8.2.1.4.1.6.1 1.6.1 3.2 1.2 3.6 2.8.6 1.7 1.3 2.8 2 4.4.2.3.2.6.4.9.5.8 1.7 1.2 2.4 1.8-1.8-4.3-4-9.8-4.6-10.7z"/><path class="st51" d="M147.3 93.3c.1.2 4 8.5 4 8.5.3.6.6 1.2 1 1.6-.2-1.3-.8-2.5-1.3-3.8-.5-1.1-.6-2.3-1.1-3.4-.6-1.4-.9-2.8-1.9-4-.1-.1-.2-.2-.3-.2s-.2.1-.3.3c0 .3-.1.6-.1 1z"/><path class="st21" d="M164.7 86.1c-.1 0-.1 0 0 0z"/><path d="M140 65h-7.6v2.1l1.4 1.2c.5.4 1 .6 1.7.6h1.2c.6 0 1.2-.3 1.7-.6l1.8-1.6-.2-1.7c.1 0 0 0 0 0z" opacity=".3" fill="#7a5f23"/><path class="st28" d="M130.5 55.9V63c0 .9.4 1.8 1.1 2.3l2.2 1.9c.5.4 1 .6 1.7.6h1.2c.6 0 1.2-.3 1.7-.6l3-2.7c.6-.6 1-1.4 1-2.3v-6.5s.6-3.5-2-5c0 0-3.7-1.5-7.2 0-.3.1-2.7.8-2.7 5.2z"/><path class="st53" d="M128.6 68c-.1-.3-.5-.1-.5.2.1.5-2 .8-2.3 1.2-.7.9.3 2.5-.6 3.3-.2-.2-.4-.3-.6-.4-.5-.2-.8.3-.8.6v.9c0 .3.1.5.3.6l-.6.8c-.3.4-.5.6-.6 1-.4.7-.5 1.5-.5 2.3.1.7 1.3 1 1.4.2.2-1.2.5-2.1 1.2-3.2.4-.5.7-.9.8-1.6.8-.6 1-1.5 1.2-2.7.1-.6.3-1.1.4-1.7.2-.1.5-.1.6-.2.2-.2.5-.2.6-.5.4-.1.3-.2 0-.8zm21.2 8.6c-.7-1.2-.5-2.2-.6-3.5-.1-.5-.3-.7-.5-1.1-.5-.8-.6-1.4-.6-2.3-.1-1.9-3.1-2.3-3.5-.4-.2.6.7.8.9.3.6-.6 1.2-.6 1.6.3-.1.3-.2.6-.4.9-.1.4-.2.7-.1 1.1.1.3.3.5.4.8.4.7.5 1.1.5 1.9-.1 1.8.7 4.4 2.8 4.4.3 0 .5-.2.5-.5-.1-.9-.6-1-1-1.9z"/><path class="st53" d="M149.1 79.5c-2.3-1.2-1-3.2-2-4.8.2-.4.2-.8.1-1.3-.1-.6-.3-1-.6-1.5-.4-.4-1.1-.5-1.4-.7-.7-.7 0-1.5-.7-2.2-.5-.6-1.1-.6-1.7-.2-.6.5-.3 1.8.6 1.4-.7.3-1 1.3-.6 2 .1.2.5.5.6.6 1.1.6.9-.3 1.9.8-.1 0-.2 0-.3.1-1.5.6-.7 2.5.6 2.3-.1 1.1.2 2.5.6 3.3.5.9 1.2 1.6 2.2 1.9 1 .3 1.6-1.1.7-1.7zm-19.2-13.6c.1-.2.1-.4-.2-.4-4.1.1-.5 3.3-1.4 5.4-.6 1.3-1.4 1.7-1.7 3.2.1.9-.2 1.9-.6 2.7-.4.4-.8.6-1.2 1-.3.4-.3.6-.3 1.1-.1.8 1.2 1.1 1.6.5.6-.9 1.8-1.3 2.2-2.5.2-.4.2-.8.3-1.2.3-1.5.3-2.2 1.2-3.4.6-.8 1.1-1.6 1-2.7 0-1.4-1.7-2.7-.9-3.7zm2.6-15.5c.2-.1.2-.4-.1-.5-4-.9-1.3 3.2-2.7 4.8-.9 1.1-1.9 1.3-2.5 2.7-.2.9-.6 1.8-1.3 2.4-.5.2-.9.5-1.4.7-.4.4-.5.6-.6 1-.3.8.8 1.4 1.5.8.8-.8 2-.8 2.8-1.9.3-.4.4-.7.6-1.1.6-1.3.8-2 2-3.1.8-.6 1.5-1.3 1.7-2.4.2-.9-1-2.7 0-3.4zm6.7-.9c0-.2-.2-.4-.4-.2-3.1 2.6 1.8 2.9 2.3 5.1.4 1.4-.1 2.2.6 3.6.6.7 1 1.6 1.2 2.5-.1.5-.2 1-.3 1.6.1.5.2.6.5 1 .5.7 1.7.1 1.5-.6-.2-1.1.6-2.1.2-3.3-.1-.4-.3-.7-.5-1.1-.6-1.3-1.2-1.9-1.2-3.4-.1-1.1-.2-1.9-.9-2.8-.9-1.1-3-1.1-3-2.4z"/><path class="st53" d="M138.9 47.9c-.7 0-1.6-.1-2.2.5-.6.6-.6 1.6-1.6 1.9-1.9.5-3.1-2.2-5.1-1.1-1.3.7-.1 2.8 1.2 2 0 0 1.7 1 2 1.2.8.3 1.7.4 2.5.2.7-.2 1.5-.6 1.9-1.2.2-.3.4-.6.6-.8.2-.2.2-.3.2-.4 0 0 0 .2.6.2 1.4-.2 1.4-2.6-.1-2.5z"/><path class="st1" d="M133 63.5h6.3s-3 3.7-6.3 0z"/><path class="st51" d="M126.5 101.7c-.3-.4-.1-.9-.1-1.4 0-.6-.4-1.2-.7-1.8-.6-.7-1.1-1.5-1.8-2.2l.9 5.6c0 .5-.5 2.9-1.1 5.8.3-.3.6-.6.7-.9.5-.8 1-1.7 1.5-2.4.3-.4.5-.7.9-1 .7-.4 1.7.1 2.4-.3 0-.1-.1-.2-.1-.3-.8-.7-2.1-.3-2.6-1.1z"/><path class="st31" d="M139.2 100.9c0 .4-.3.6-.6.6s-.6-.3-.6-.6c0-.4.3-.6.6-.6.3-.1.6.2.6.6z"/></g><g id="Layer_21"><path class="st21" d="M327.2 119.5l-6.4 45.4-.2 37h9.8l2-32.3 9-32.7 8.3 33.4 5.1 31.6H365l-9.9-82.4z"/><path id="XMLID_16_" class="st10" d="M320.1 201.5l-1.5 1.6-7.9.9c-1.8.6-2.1 1-2.7 2.8l-.1.5h16.3l1.2-1.4v1.4h5.4v-5.8h-10.7z"/><path id="XMLID_15_" class="st10" d="M365.2 201.5l1.5 1.6 7.9.9c1.8.6 2.1 1 2.7 2.8l.1.5h-16.3l-1.2-1.4v1.4h-5.4v-5.8h10.7z"/><path class="st1" d="M337.5 67.3l-11 6.1 1 25.9-.8 17c-.1 1.7 1.3 3.2 3.1 3.2h22.7c1.8 0 3.2-1.5 3.1-3.3L354 98.6l5.5-24.5-12.3-6.8h-9.7z"/><path class="st30" d="M347.3 67.6l-4.9 9-4.9-9v-6.4h9.8z"/><path class="st21" d="M351.5 48c-.1-.4-.3-.8-.5-1.2-.4-.8-.8-1.6-1.2-2.3-.7-1.4-1.4-1.2-2.8-1.6-1.2-.4-2.2-1.2-3.5-1.2-.8 0-1.6.2-2.3.6-.3.2-.6.3-.9.4-.5.1-1.1 0-1.7 0-1.3 0-2.5 1-2.8 2.3-.1.2-.1.4-.2.6-.1.2-.2.3-.4.4-1.7 1.6-.7 4.3-.4 6.3.1 1.1 0 2.3.9 3.1l-.4-.1c1.1 1.1 2.6 1.7 4.1 2 1.5.3 3.1.3 4.6.3 1.9 0 3.7 0 5.6-.1.4 0 .7 0 1-.2.3-.3.4-.7.5-1.1.3-2.1.1-4.3.3-6.4.2-.7.2-1.2.1-1.8z"/><path class="st11" d="M337.5 64.9l1.4 2.4c.9 1.6 2.6 2.5 4.4 2.5 1.6 0 3.1-.8 4-2v-6.5h-9.8v3.6z"/><path class="st30" d="M336.7 51.4v7.5c0 1.7.4 3.3 1.3 4.8l1.4 2.5c.9 1.6 2.6 2.5 4.4 2.5 1.8 0 3.4-.9 4.3-2.4l.3-.5c.9-1.5 1.4-3.2 1.4-5V47h-12.9l-.2 4.4z"/><path class="st30" d="M336.8 60l-1.5-.8s-1.6-2.3-.9-3.9c0 0 .5-1.3 1.6-.7l1.5 1.5-.7 3.9zm12.6 0l1.5-.8s1.6-2.3.9-3.9c0 0-.5-1.3-1.6-.7l-1.5 1.5.7 3.9z"/><path class="st21" d="M336.3 52.6c.1 1.1.3 2.4.3 3.5 0 .5-.2 1.8.8 1.5.3-.1.4-.5.4-.8.1-1.1-.9-2.1-.3-3.1.4-.8 1.3-1.2 1.5-2.1.1-.6-.2-1.2-.3-1.9-.1-.5 0-1 .4-1.4.3-.4.9-.6 1.3-.4.5.2.7.6 1.1.9.8.8 2 1 3.1.6.6-.2 1.1-.7 1.7-1.1.6-.4 1.3-.6 1.9-.4.9.3 1.3 1.3 1.5 2.3.2 1 .4 2.2.3 3.2-.1.8-.6 1.6-.8 2.4 0 .2-.1.4-.1.6 0 .4.2.7.4 1l.1.1c.1 0 .2 0 .2-.1.6-.5.7-1.3.8-2 .2-1 .5-1.6.3-2.6-.4-2 .1-4-.2-6 0-.2-.1-.4-.2-.6-.1-.2-.4-.3-.6-.4-2.8-1-5.9-.9-8.9-.7-1.1 0-2.2.1-3.1.6-1.1.6-1.6 1.9-1.8 3.1-.2 1.4 0 2.6.2 3.8z"/><path class="st1" d="M341.8 63l4.8-.2c.1 0-1.9 5.1-4.8.2z"/><path class="st30" d="M310.5 89.4l-.4-1.2-13.2-8.4c.8-.8 1.9-.9 2.9-.3l2.6 1.6.9-.2c.8-.2 1.6 0 2.2.4l1.3.8 4.4 1.3c1.2.4 2.1 1.2 2.6 2.4l.9 2.4-4.2 1.2zm63.7 0l.4-1.2 13.2-8.4c-.8-.8-1.9-.9-2.9-.3l-2.6 1.6-.9-.2c-.8-.2-1.6 0-2.2.4l-1.3.8-4.4 1.3c-1.2.4-2.1 1.2-2.6 2.4l-.9 2.4 4.2 1.2z"/><path class="st1" d="M337.5 67.3l-13 7.2c-2.3 1.3-3.8 3.6-4 6.2l-1.1 14.1-4.2-6.9-5.6 1.7 7.9 17.5c.7 1.6 2.6 2.3 4.2 1.6 1-.5 2-1.3 2.5-2.5l4.2-20.8 9-13.3v-4.8zm9.8 0l13 7.2c2.3 1.3 3.8 3.6 4 6.2l1.1 14.1 4.2-6.9 5.6 1.7-7.9 17.5c-.7 1.6-2.6 2.3-4.2 1.6-1-.5-2-1.3-2.5-2.5l-4.2-20.8-9-13.3v-4.8z"/><path class="st10" d="M327 118h28.3v4.3H327z"/><path class="st30" d="M338.5 118h4.9v4.3h-4.9z"/><path d="M354 98.6l2.6-11.4c-.8 1.3-1.6 2.7-2.3 4.1-.3.6 0 1.2.4 1.4-.5 1.2-2.7 3.5-3.6 4.3-.7.7 1.3.8 2.1.6h.1c-.6 1-1.2 1.9-1.9 2.9-.4.6-1.5 1.4-.9 1.3.5-.1 2.5.2 3 .1-.2.7-.5 1.4-.8 2-.3.7.1 1.5.7 1.5-.4 0 .2 4 .2 4.4.3 1.2.6 2.1 1.1 3l-.6-9.9v-.1l-.1-4.2zm-24.1 2.5c-2.2-1.1-2.9-2.2-2-3.4.9.3 2.1 0 3 .3.6.2.2-.6-1.5-.7.3 0-2-2.8-1.2-2.9.5 0 .8-.5.5-.9-1-1.7-1.1-4.2-1.8-6.2l.3 8.6c.2.2.4.3.6.5-.2-.1-.4-.1-.6-.2l.1 3-.1 1c.1.1.2.3.2.4h-.3l-.6 13.1c.1-.1.2-.3.2-.5 0-2.6.8-5 1.2-7.5.1-.8-.6-4 1.3-3.5.9.3 1.2-.7.7-1.1z" opacity=".5" fill="#dfe2ec"/><path d="M337.5 67.3l-2.9 1.6L338 81l4.4-4.4zm9.8 0l2.8 1.6-3.4 12.1-4.3-4.4z" fill="#e0e4f0"/><circle class="st10" cx="342.4" cy="80.8" r=".5"/><circle class="st10" cx="342.1" cy="87.3" r=".5"/><circle class="st10" cx="341.9" cy="93.8" r=".5"/><circle class="st10" cx="341.6" cy="100.3" r=".5"/><circle class="st10" cx="341.4" cy="106.9" r=".5"/><circle class="st10" cx="341.2" cy="113.4" r=".5"/><g class="st41"><path class="st10" d="M332.4 169.6l-1 16.6c-.1.1-.3.2-.4.2-.2-5.1-1-10.3-2.4-15.2.9-.2 1.7-.8 2.2-1.5-.6-.1-1.2-.1-1.8-.2.5-.2.8-.6 1.1-1.1h-3.8c3.5-.8 6.2-4.3 6.1-7.9-.5.1-1 0-1.4-.3 1.3-2 2.6-4.1 3.9-6.1.2-.4.5-.8.3-1.2-.7.6-1.5.9-2.3 1.1 1-1.2 2-2.4 2.4-3.8.6-1.7.4-3.6.7-5.3.5-3.2 2.6-6.1 5.4-7.7l-9 32.4zm9.3-31.7v-.7l-.1-.1.1.8z"/></g><g class="st41"><path class="st10" d="M364.7 199.4l-9.4-78.3c-.1 0-.2 0-.3-.1l-.2.4c-.5 5.1-.4 10.3.4 15.3.4 3 1.1 6 .5 9-.2 1-.6 1.8-1 2.7-.5 1.1-.5 2.6-.8 3.8-.2 1.2-.4 2.5-.5 3.7-.1 1.3-.5 2.6-.5 4 0 .2 5-1 5.6-1.5-.5 2.4-1.2 4.7-2.2 6.9.6-1.2 1.3-2.2 2.3-3.1-.8 1.6-1.3 3.3-1.6 5.1 1-.1 2.1-.2 3.1-.3-.9 1.9-1.8 3.9-2.7 5.8 1.1-.6 2.2-1.1 3.3-1.7-.3 4.8-.5 9.6-.8 14.5-.1 1.8-.2 3.8.5 5.5.5 1.3 1.4 2.3 2.1 3.5 1.2 2 1.7 4.4 1.5 6.7.3-.7.5-1.3.7-1.9z"/></g></g></svg>