<svg version="1.1" id="Graphics" xmlns="http://www.w3.org/2000/svg" x="0" y="0" viewBox="0 0 880.3 159.4" xml:space="preserve"><style>.st0{fill:#e7eaf3;stroke:#aab4ce;stroke-miterlimit:10}.st2{fill:#fff}.st3{fill:#fec55e}.st4{opacity:.2;fill:#231f20;enable-background:new}.st8{fill:#9e9e9e}.st9{fill:#c5c5c5}.st10{fill:#8184c4}.st11{fill:#377dff}.st12{opacity:.3;fill:#414042;enable-background:new}.st13{fill:#212121}.st14{fill:#fed17e}.st15{fill:#f1f2f2}.st17{fill:#414042}.st18{fill:#191c3c}.st22{opacity:.3}.st26{fill:#dfe2ec}.st27{fill:#fcd991}.st28{opacity:.3;fill:#231f20;enable-background:new}.st30{fill:#575a8f}.st32{fill:#13d7b6}.st37{fill:#1e2022}.st38{fill:#7c98d6}.st40{fill:#00c671}.st41{opacity:.2}.st43{opacity:8.000000e-02;fill:#f5f7f9;enable-background:new}.st45{fill:#ddb758}.st47{opacity:.3;fill:#191c3c;enable-background:new}.st48{fill:#093a66}.st50{fill:#f5f7f9}.st55{fill:#e7eaf3}.st57{opacity:.3;fill:#191c3c}.st60,.st63{opacity:.3;fill:#30334f}.st63{opacity:.1}.st65{fill:#9fb9cc}</style><path class="st0" d="M795.2 151.9H2.8l63.4-23.5 811.2-6.6z"/><path class="st0" d="M795.2 152.9H2.8l63.4-23.5 811.2-6.6z"/><path class="st0" d="M795.2 153.9H2.8l63.4-23.5 811.2-6.6z"/><path class="st0" d="M795.2 154.9H2.8l63.4-23.5 811.2-6.6z"/><path class="st0" d="M795.2 155.9H2.8l63.4-23.5 811.2-6.6z"/><path class="st0" d="M795.2 156.9H2.8l63.4-23.5 811.2-6.6z"/><path class="st0" d="M795.2 157.9H2.8l63.4-23.5 811.2-6.6z"/><path class="st0" d="M795.2 158.9H2.8l63.4-23.5 811.2-6.6z"/><path fill="#f7f8f9" d="M63.8 0h816.5v121.8l-816.5 6.6z"/><path class="st2" d="M880.3 0H534.1l346.2 127.8z"/><g id="Layer_12"><g id="XMLID_334_"><g id="XMLID_404_"><path id="XMLID_408_" class="st3" d="M81.9 119.5h2l2.8-8.4c.2-.5.1-1-.1-1.5l-3.7-6.5h-.8l-.1 7c.1.1.7.3.8.4.5.5.5 1.4 0 1.9s-1.4.5-1.9 0-.5-1.4 0-1.9c.1-.1.5-.4.6-.4l.2-6.9h-.6l-3.8 6.5c-.3.5-.3 1-.2 1.5l2.7 8.4 2.1-.1z"/><path id="XMLID_407_" class="st4" d="M79.9 119.5h4l.9-2.8H79z"/><path id="XMLID_406_" fill="#717386" d="M77.5 118h8.8v15.9h-8.8z"/><path id="XMLID_405_" fill="#4d5068" d="M81.9 118h4.4v15.9h-4.4z"/></g><g id="XMLID_392_"><path id="XMLID_401_" d="M98 113.8v3.8c0 .7.6 1.3 1.3 1.3 1.4 0 2.5 1.1 2.5 2.5v10.3c0 1.3 1.1 2.4 2.5 2.3 1.2-.1 2-1.2 2-2.4v-10.1c0-1.4 1.1-2.5 2.5-2.5.7 0 1.3-.6 1.3-1.3v-3.9H98zm5.2 17.7c0-.4.4-.8.8-.8s.8.4.8.8-.4.8-.8.8-.8-.4-.8-.8z" fill="#9a9dd0"/><path id="XMLID_400_" class="st3" d="M98 102.1h12v8.7H98z"/><path id="XMLID_399_" class="st3" d="M98 102.1h4.8v8.7H98z"/><path id="XMLID_398_" class="st8" d="M98 110.3h12v3.5H98z"/><path id="XMLID_397_" class="st9" d="M98 110.5h12v.5H98z"/><path id="XMLID_396_" class="st9" d="M98 111.8h12v.5H98z"/><path id="XMLID_395_" class="st9" d="M98 113h12v.5H98z"/><path id="XMLID_394_" class="st10" d="M104 113.8v16.9c-.4 0-.8.4-.8.8s.4.8.8.8v1.6c-1.3 0-2.3-1-2.3-2.3v-10.3c0-1.4-1.1-2.5-2.5-2.5-.7 0-1.3-.6-1.3-1.3v-3.7h6.1z"/><path id="XMLID_393_" class="st11" d="M102.1 102.1v3.4c0 .5.4 1 1 1 .5 0 1-.4 1-1v-1c0-.4.4-.8.8-.8s.8.4.8.8v3.6c0 .4.4.8.8.8s.8-.4.8-.8v-1.7c.9 0 1.6-.7 1.6-1.6V102h-6.8v.1z"/></g><path id="XMLID_391_" class="st12" d="M98 102.1v15.3c0 .7.6 1.3 1.3 1.3h.4v-12.9l-1.4-3.6-.3-.1z"/><g id="XMLID_384_"><path id="XMLID_390_" class="st3" d="M93.6 105.8h4.9v24.4h-4.9z"/><path id="XMLID_389_" class="st3" d="M98.6 131.4h-4.9v1.4c0 .6.5 1.2 1.2 1.2h2.6c.6 0 1.2-.5 1.2-1.2l-.1-1.4z"/><path id="XMLID_388_" class="st13" d="M93.6 130.2h4.9v1.2h-4.9z"/><path id="XMLID_387_" class="st14" d="M93.6 105.8h2.5v24.4h-2.5z"/><path id="XMLID_386_" class="st15" d="M95.9 100.1l-2.3 5.7h4.9l-2.3-5.7c0-.2-.2-.2-.3 0z"/><path id="XMLID_385_" class="st13" d="M96 99.7l-.6 1.5h1.3l-.6-1.5H96z"/></g><path id="XMLID_383_" class="st12" d="M84.4 118l2.3-6.8c.2-.5.1-1-.1-1.5l-3.2-5.7v29.6c0 .6.5 1.1 1.1 1.1h1.9v-15.9h-2v-.8z"/><g id="XMLID_359_"><path id="XMLID_382_" class="st11" d="M85.4 99h3.9c.6 0 1 .5 1 1v32.9c0 .6-.5 1-1 1h-3.9c-.6 0-1-.5-1-1V100c0-.5.4-1 1-1z"/><path id="XMLID_381_" d="M85.5 99h2.1v34.9h-2.1c-.6 0-1.1-.5-1.1-1.1v-32.7c0-.6.5-1.1 1.1-1.1z" fill="#b7d2f9"/><path id="XMLID_380_" class="st17" d="M84.4 131.5h.7v.4h-.7z"/><path id="XMLID_379_" class="st17" d="M84.4 130h.7v.4h-.7z"/><path id="XMLID_378_" class="st17" d="M84.4 128.4h.7v.4h-.7z"/><path id="XMLID_377_" class="st17" d="M84.4 126.9h.7v.4h-.7z"/><path id="XMLID_376_" class="st17" d="M84.3 125.3h1.5v.4h-1.5z"/><path id="XMLID_375_" class="st17" d="M84.4 123.8h.7v.4h-.7z"/><path id="XMLID_374_" class="st17" d="M84.4 122.2h.7v.4h-.7z"/><path id="XMLID_373_" class="st17" d="M84.4 120.7h.7v.4h-.7z"/><path id="XMLID_372_" class="st17" d="M84.4 119.1h.7v.4h-.7z"/><path id="XMLID_371_" class="st17" d="M84.3 117.6h1.5v.4h-1.5z"/><path id="XMLID_370_" class="st17" d="M84.4 116h.7v.4h-.7z"/><path id="XMLID_369_" class="st17" d="M84.4 114.5h.7v.4h-.7z"/><path id="XMLID_368_" class="st17" d="M84.4 112.9h.7v.4h-.7z"/><path id="XMLID_367_" class="st17" d="M84.4 111.4h.7v.4h-.7z"/><path id="XMLID_366_" class="st17" d="M84.3 109.8h1.5v.4h-1.5z"/><path id="XMLID_365_" class="st17" d="M84.4 108.3h.7v.4h-.7z"/><path id="XMLID_364_" class="st17" d="M84.4 106.7h.7v.4h-.7z"/><path id="XMLID_363_" class="st17" d="M84.4 105.2h.7v.4h-.7z"/><path id="XMLID_362_" class="st17" d="M84.4 103.6h.7v.4h-.7z"/><path id="XMLID_361_" class="st17" d="M84.3 102.1h1.5v.4h-1.5z"/><path id="XMLID_360_" class="st17" d="M84.4 100.5h.7v.4h-.7z"/></g><path id="XMLID_358_" class="st12" d="M89.3 99v6.9h-.6v7.6h.6v20.4c.6 0 1-.5 1-1.1v-32.7c0-.6-.4-1-1-1.1z"/><g id="XMLID_349_"><path id="XMLID_357_" class="st18" d="M90.4 113.2H93v20.7h-2.6z"/><path id="XMLID_356_" fill="#474963" d="M91.7 113.2H93v20.7h-1.3z"/><path id="XMLID_355_" class="st18" d="M89.8 108.6h3.5v4.9h-3.5z"/><path id="XMLID_354_" class="st2" d="M89.8 108.6h3.5v.3h-3.5z"/><path id="XMLID_353_" class="st18" d="M89.8 105.9h3.5v2.7h-3.5z"/><path id="XMLID_352_" class="st8" d="M93.2 100.3l-2.8-2.4v8h2.8z"/><path id="XMLID_351_" fill="#ececec" d="M90.4 98.8v7.1h2.8v-4.7z"/><path id="XMLID_350_" fill="#b1b1b1" d="M91.8 105.9h1.4v-4.7l-1.4-1.2z"/></g><g id="XMLID_342_" class="st22"><path id="XMLID_6_" class="st12" d="M84.4 133.9h4.9c.3 0 .5-.1.7-.3v-.1c.1-.1.1-.2.2-.3s.1-.3.1-.4v-9.1H77.5v10.2h6.9z"/><path id="XMLID_347_" class="st12" d="M93.6 132.6c0 .7.6 1.3 1.3 1.3h2.4c.7 0 1.3-.6 1.3-1.3v-9h-4.9v9h-.1z"/><path id="XMLID_346_" class="st12" d="M93 133.9v-10.2h-2.6v10.2h1.3z"/><path id="XMLID_343_" class="st12" d="M101.7 123.7v8c0 .2 0 .3.1.5 0 .1 0 .1.1.2 0 .1 0 .2.1.2 0 .1.1.2.1.2l.1.1c.1.1.1.2.2.3l.1.1c.1.1.2.2.3.2.4.3.9.4 1.5.4 1.2-.1 2-1.2 2-2.4v-7.8h-4.6zm2.3 8.6c-.4 0-.8-.4-.8-.8s.4-.8.8-.8.8.4.8.8-.3.8-.8.8z"/></g><g id="XMLID_335_"><path id="XMLID_341_" class="st3" d="M111.2 146.2H77v-21.4h36.3v19.3c0 1.1-.9 2.1-2.1 2.1z"/><path id="XMLID_340_" d="M75.4 146.2H77v-21.4h-3.7v19.3c0 1.1.9 2.1 2.1 2.1z" fill="#bf9447"/><path id="XMLID_339_" class="st4" d="M73.3 129.3h2.4l1.3-4.5-3.7.9z"/><path id="XMLID_338_" class="st3" d="M72.7 127.5h2.6c.2 0 .4-.1.4-.3l1.2-2.4h-3.7l-1 2c-.1.3.2.7.5.7z"/><path id="XMLID_337_" class="st4" d="M113.3 129.3v-3.6l-36.3-.9 2 4.5z"/><path id="XMLID_336_" class="st3" d="M114.3 127.5H79.2c-.2 0-.3-.1-.4-.2l-1.8-2.5h36.3l1.4 1.9c.3.3.1.8-.4.8z"/></g></g><path d="M356.2 55.4H264c-1.2 0-2.1 1-2.1 2.2v75h96.4V57.7c0-1.3-.9-2.3-2.1-2.3z" opacity=".3" fill="#8c98a4"/><path id="XMLID_333_" class="st2" d="M365.4 131.6H265.1V58.9c0-2.4 2-4.4 4.4-4.4h91.4c2.4 0 4.4 2 4.4 4.4v72.7h.1z"/><path id="XMLID_332_" class="st11" d="M365.4 63.8v-7.4c0-1.2-1-2.2-2.2-2.2h-95.8c-1.2 0-2.2 1-2.2 2.2v7.4h100.2z"/><path id="XMLID_331_" class="st2" d="M272.6 59.3c0 .7-.6 1.3-1.3 1.3-.7 0-1.3-.6-1.3-1.3s.6-1.3 1.3-1.3c.8 0 1.3.6 1.3 1.3z"/><path id="XMLID_330_" class="st2" d="M276.9 59.3c0 .7-.6 1.3-1.3 1.3-.7 0-1.3-.6-1.3-1.3s.6-1.3 1.3-1.3c.7 0 1.3.6 1.3 1.3z"/><path id="XMLID_329_" class="st2" d="M281.2 59.3c0 .7-.6 1.3-1.3 1.3-.7 0-1.3-.6-1.3-1.3s.6-1.3 1.3-1.3 1.3.6 1.3 1.3z"/><path id="XMLID_328_" d="M363.2 54.5h-2.8c1.2 0 2.2 1 2.2 2.2v74.9h2.8V56.7c0-1.2-1-2.2-2.2-2.2z" opacity=".2" fill="#191c3c"/><path class="st26" d="M275.1 73.4h-1.6c-1 0-1.8-.8-1.8-1.8s.8-1.8 1.8-1.8h1.6c1 0 1.8.8 1.8 1.8s-.8 1.8-1.8 1.8zm0 9.1h-1.6c-1 0-1.8-.8-1.8-1.8s.8-1.8 1.8-1.8h1.6c1 0 1.8.8 1.8 1.8s-.8 1.8-1.8 1.8zm0 9h-1.6c-1 0-1.8-.8-1.8-1.8s.8-1.8 1.8-1.8h1.6c1 0 1.8.8 1.8 1.8s-.8 1.8-1.8 1.8zm0 9h-1.6c-1 0-1.8-.8-1.8-1.8s.8-1.8 1.8-1.8h1.6c1 0 1.8.8 1.8 1.8s-.8 1.8-1.8 1.8zm0 9.1h-1.6c-1 0-1.8-.8-1.8-1.8s.8-1.8 1.8-1.8h1.6c1 0 1.8.8 1.8 1.8s-.8 1.8-1.8 1.8zm0 9h-1.6c-1 0-1.8-.8-1.8-1.8s.8-1.8 1.8-1.8h1.6c1 0 1.8.8 1.8 1.8s-.8 1.8-1.8 1.8zm0 9.1h-1.6c-1 0-1.8-.8-1.8-1.8s.8-1.8 1.8-1.8h1.6c1 0 1.8.8 1.8 1.8s-.8 1.8-1.8 1.8zm78.3-54.3h-1.6c-1 0-1.8-.8-1.8-1.8s.8-1.8 1.8-1.8h1.6c1 0 1.8.8 1.8 1.8s-.8 1.8-1.8 1.8z"/><path class="st10" d="M353.4 82.5h-1.6c-1 0-1.8-.8-1.8-1.8s.8-1.8 1.8-1.8h1.6c1 0 1.8.8 1.8 1.8s-.8 1.8-1.8 1.8z"/><path class="st27" d="M353.4 91.5h-1.6c-1 0-1.8-.8-1.8-1.8s.8-1.8 1.8-1.8h1.6c1 0 1.8.8 1.8 1.8s-.8 1.8-1.8 1.8z"/><path class="st10" d="M353.4 100.5h-1.6c-1 0-1.8-.8-1.8-1.8s.8-1.8 1.8-1.8h1.6c1 0 1.8.8 1.8 1.8s-.8 1.8-1.8 1.8z"/><path class="st27" d="M353.4 109.6h-1.6c-1 0-1.8-.8-1.8-1.8s.8-1.8 1.8-1.8h1.6c1 0 1.8.8 1.8 1.8s-.8 1.8-1.8 1.8z"/><path class="st10" d="M353.4 118.6h-1.6c-1 0-1.8-.8-1.8-1.8s.8-1.8 1.8-1.8h1.6c1 0 1.8.8 1.8 1.8s-.8 1.8-1.8 1.8z"/><path class="st26" d="M353.4 127.7h-1.6c-1 0-1.8-.8-1.8-1.8s.8-1.8 1.8-1.8h1.6c1 0 1.8.8 1.8 1.8s-.8 1.8-1.8 1.8zm-48.5-54.3h-23.1c-1 0-1.8-.8-1.8-1.8s.8-1.8 1.8-1.8h23.1c1 0 1.8.8 1.8 1.8s-.8 1.8-1.8 1.8z"/><path class="st3" d="M310.6 73.4h4.7c1 0 1.8-.8 1.8-1.8s-.8-1.8-1.8-1.8h-4.7c-1 0-1.8.8-1.8 1.8s.8 1.8 1.8 1.8zm-18.3 9.1h-10.4c-1 0-1.8-.8-1.8-1.8s.8-1.8 1.8-1.8h10.4c1 0 1.8.8 1.8 1.8s-.8 1.8-1.8 1.8z"/><path class="st11" d="M301.6 82.5h31.2c1 0 1.8-.8 1.8-1.8s-.8-1.8-1.8-1.8h-31.2c-1 0-1.8.8-1.8 1.8s.8 1.8 1.8 1.8z"/><path class="st26" d="M325.8 91.5h-43.9c-1 0-1.8-.8-1.8-1.8s.8-1.8 1.8-1.8h43.9c1 0 1.8.8 1.8 1.8s-.8 1.8-1.8 1.8zm9.7 9h-53.6c-1 0-1.8-.8-1.8-1.8s.8-1.8 1.8-1.8h53.6c1 0 1.8.8 1.8 1.8s-.8 1.8-1.8 1.8z"/><path class="st11" d="M325.8 109.6h-16.2c-1 0-1.8-.8-1.8-1.8s.8-1.8 1.8-1.8h16.2c1 0 1.8.8 1.8 1.8s-.8 1.8-1.8 1.8z"/><path class="st26" d="M303 109.6h-21.1c-1 0-1.8-.8-1.8-1.8s.8-1.8 1.8-1.8H303c1 0 1.8.8 1.8 1.8s-.8 1.8-1.8 1.8zm12.3 9h-33.4c-1 0-1.8-.8-1.8-1.8s.8-1.8 1.8-1.8h33.4c1 0 1.8.8 1.8 1.8s-.8 1.8-1.8 1.8z"/><path class="st3" d="M321.3 118.6H332c1 0 1.8-.8 1.8-1.8s-.8-1.8-1.8-1.8h-10.7c-1 0-1.8.8-1.8 1.8s.8 1.8 1.8 1.8z"/><path class="st26" d="M325.8 127.7h-43.9c-1 0-1.8-.8-1.8-1.8s.8-1.8 1.8-1.8h43.9c1 0 1.8.8 1.8 1.8s-.8 1.8-1.8 1.8z"/><g id="XMLID_33_"><g id="XMLID_117_"><path id="XMLID_120_" class="st11" d="M209.5 137.1c0 5.1-4.1 9.3-9.3 9.3-5.1 0-9.3-4.1-9.3-9.3s4.1-9.3 9.3-9.3c5.1 0 9.3 4.2 9.3 9.3z"/><g id="XMLID_118_"><path id="XMLID_119_" class="st2" d="M199.4 140l-3-3 1-1 2 1.9 3.6-3.7 1.1 1.1z"/></g></g><path id="XMLID_116_" class="st28" d="M191 137.1c0 2.9 1.4 5.6 3.5 7.2 1-.8 1.9-1.9 2.5-3.1 1.9-4 .8-8.6-2.4-11.4-2.3 1.8-3.6 4.4-3.6 7.3z"/><g id="XMLID_107_"><path id="XMLID_115_" class="st3" d="M195.2 141.2c-2.3 4.7-7.9 6.7-12.6 4.4-4.7-2.3-6.7-7.9-4.4-12.6 2.3-4.7 7.9-6.7 12.6-4.4 4.7 2.3 6.7 7.9 4.4 12.6z"/><g id="XMLID_108_"><path id="XMLID_110_" class="st2" d="M186.2 135.9l1-2.1 1.7.8-1 2.1 2.1 1-.7 1.5-2.1-1-1 2.1-1.7-.8 1-2.1-2-1 .7-1.5 2 1z"/></g></g><path id="XMLID_105_" class="st28" d="M182 128.9c-1.6.9-3 2.3-3.9 4.1-2.1 4.4-.5 9.7 3.6 12.2 2.8-1.7 4.7-4.7 4.7-8.2 0-3.4-1.8-6.4-4.4-8.1z"/><g id="XMLID_34_"><circle id="XMLID_103_" class="st18" cx="175.4" cy="136.9" r="9.6"/><path class="st2" d="M178.9 137.1c.2.3.3.7.3 1.2-.1.6-.3 1.1-.8 1.3-.4.2-1 .4-1.7.4v1.2h-.9V140h-.7v1.2h-.9V140h-1.7l.2-1h.7c.1 0 .2-.1.2-.3v-3.8c0-.2-.1-.3-.3-.3h-.8v-.9h1.7v-1.4h.9v1.4h.7v-1.3h.9v1.4c.6.1 1 .2 1.4.4s.6.6.6 1c.1.7-.2 1.1-.7 1.4.3 0 .7.2.9.5zm-3.8-.8h.1c.5 0 .9 0 1.1-.1.5-.1.7-.4.7-.7 0-.4-.2-.6-.7-.8-.3-.1-.6-.1-1.1-.1h-.2l.1 1.7zm.2 2.7c.6 0 1 0 1.3-.1.5-.1.8-.4.8-.8s-.3-.7-.8-.8c-.3-.1-.7-.1-1.3-.1h-.2v1.8h.2z"/></g></g><g id="XMLID_29_"><path id="XMLID_30_" class="st3" d="M151.9 138.2h2.3c.5 0 .9-.4.9-.9v-3c0-.5-.4-.9-.9-.9h-1.8c-.3 0-.6-.2-.7-.5-.1-.2-.1-.3-.2-.5-.1-.3-.1-.6.1-.8l1.3-1.3c.3-.3.3-.9 0-1.2l-2.1-2.1c-.3-.3-.9-.3-1.2 0l-1.3 1.3c-.2.2-.5.3-.8.1-.2-.1-.4-.2-.6-.2-.3-.1-.4-.4-.4-.7v-1.8c0-.5-.4-.9-.9-.9h-3c-.5 0-.9.4-.9.9v1.8c0 .3-.2.6-.5.7-.2.1-.4.1-.5.2-.3.1-.6.1-.8-.1l-1.3-1.3c-.3-.3-.9-.3-1.2 0l-2.1 2.1c-.3.3-.3.9 0 1.2l1.3 1.3c.2.2.3.5.2.8-.1.2-.2.4-.2.6-.1.3-.4.4-.7.4h-1.8c-.5 0-.9.4-.8.9v3c0 .5.4.9.9.8h1.8c.3 0 .6.2.7.5.1.2.1.3.2.5.1.3.1.6-.1.8l-1.3 1.3c-.3.3-.3.9 0 1.2l2.1 2.1c.3.3.9.3 1.2 0l1.3-1.3c.2-.2.5-.3.8-.1.2.1.4.2.6.2.3.1.4.4.4.7v1.8c0 .5.4.9.9.8h3c.5 0 .9-.4.8-.9v-1.8c0-.3.2-.6.5-.7.2-.1.3-.1.5-.2.3-.1.6-.1.8.1l1.3 1.3c.3.3.9.3 1.2 0l2.1-2.1c.3-.3.3-.9 0-1.2l-1.3-1.3c-.2-.2-.3-.5-.1-.8.1-.2.3-.8.3-.8zm-11.8-3.1c.5-2.6 3.2-4.1 5.6-3.2 1.9.7 3 2.7 2.6 4.7-.5 2.6-3.2 4.1-5.6 3.2-1.8-.7-2.9-2.7-2.6-4.7z"/></g><g id="XMLID_857_"><g id="XMLID_868_"><path id="XMLID_901_" d="M65.5 146.2H40.6c-1.2 0-2.2-1-2.2-2.2v-20.6h27.1c.4 0 .8.3.8.8v21.3c-.1.3-.4.7-.8.7z" fill="#fdfdfe"/><path id="XMLID_900_" class="st30" d="M41.3 142.3c-1 0-3 .2-3 2.3v-22.4c0-1.3 1-2.3 2.3-2.3h.7v22.4z"/></g><path id="XMLID_834_" class="st11" d="M57.4 136.8h1.5c.3 0 .5-.2.5-.5v-1.9c0-.3-.2-.5-.5-.5h-1.2c-.2 0-.4-.1-.4-.3 0-.1-.1-.2-.1-.3-.1-.2-.1-.4.1-.5l.8-.8c.2-.2.2-.6 0-.8l-1.3-1.3c-.2-.2-.6-.2-.8 0l-.8.8c-.1.1-.3.2-.5.1-.1-.1-.2-.1-.4-.1-.2-.1-.3-.2-.3-.4v-1.2c0-.3-.2-.5-.5-.5h-1.9c-.3 0-.5.2-.5.5v1.2c0 .2-.1.4-.3.4-.1 0-.2.1-.3.1-.2.1-.4.1-.5-.1l-.9-.9c-.2-.2-.6-.2-.8 0l-1.3 1.3c-.2.2-.2.6 0 .8l.8.8c.1.1.2.3.1.5-.1.1-.1.2-.1.4-.1.2-.2.3-.4.3h-1.2c-.3 0-.5.2-.5.5v1.9c0 .3.2.5.5.5h1.2c.2 0 .4.1.4.3 0 .1.1.2.1.3.1.2.1.4-.1.5l-.8.8c-.2.2-.2.6 0 .8l1.3 1.3c.2.2.6.2.8 0l.8-.8c.1-.1.3-.2.5-.1.1.1.2.1.4.1.2.1.3.2.3.4v1.2c0 .3.2.5.5.5h1.9c.3 0 .5-.2.5-.5v-1.2c0-.2.1-.4.3-.4.1 0 .2-.1.3-.1.2-.1.4-.1.5.1l.8.8c.2.2.6.2.8 0l1.3-1.3c.2-.2.2-.6 0-.8l-.8-.8c-.1-.1-.2-.3-.1-.5.2-.2.3-.6.3-.6zm-7.5-2c.3-1.7 2-2.6 3.6-2 1.2.5 1.9 1.7 1.7 3-.3 1.7-2 2.6-3.6 2-1.2-.4-1.9-1.7-1.7-3z"/><path id="XMLID_858_" class="st12" d="M66.2 145.6v-21.7c0-.3-.3-.6-.6-.6h-1.8v22.2c0 .3.3.6.6.6h1.2c.4.1.6-.2.6-.5z"/><g id="XMLID_838_"><path id="XMLID_856_" class="st3" d="M64.6 121.5h2.5v21.6h-2.5z"/><path id="XMLID_855_" class="st30" d="M67.1 143h-2.5v2.3c0 .5.4.8.8.8h.9c.5 0 .8-.4.8-.8V143z"/><path id="XMLID_852_" fill="#fde1a7" d="M64.6 121.5h1.3v21.6h-1.3z"/><path id="XMLID_851_" class="st15" d="M65.7 118.5l-1.2 2.9h2.6l-1.2-2.9c0-.1-.1-.1-.2 0z"/><path id="XMLID_850_" class="st13" d="M65.8 118.4l-.3.8h.7l-.4-.8c0-.1 0-.1 0 0z"/><path id="XMLID_854_" class="st13" d="M64.6 142.4h2.5v.6h-2.5z"/></g></g><g id="XMLID_615_"><g id="XMLID_873_"><path id="XMLID_883_" class="st32" d="M147.5 75.3h-5.2c-.4 0-.7-.3-.7-.7V40.5c0-.4.3-.7.7-.7h5.2c.4 0 .7.3.7.7v34.1c0 .4-.3.7-.7.7z"/><path id="XMLID_882_" class="st2" d="M143.8 42.6h1.8v1.8h-1.8z"/><path id="XMLID_881_" class="st2" d="M143.8 46.1h1.8v1.8h-1.8z"/><path id="XMLID_880_" class="st2" d="M143.8 49.6h1.8v1.8h-1.8z"/><path id="XMLID_879_" class="st2" d="M143.8 53.1h1.8v1.8h-1.8z"/><path id="XMLID_878_" class="st2" d="M143.8 56.7h1.8v1.8h-1.8z"/><path id="XMLID_877_" class="st2" d="M143.8 60.2h1.8V62h-1.8z"/><path id="XMLID_876_" class="st2" d="M143.8 63.7h1.8v1.8h-1.8z"/><path id="XMLID_875_" class="st2" d="M143.8 67.2h1.8V69h-1.8z"/><path id="XMLID_874_" class="st2" d="M143.8 70.8h1.8v1.8h-1.8z"/></g><g id="XMLID_610_"><path id="XMLID_861_" class="st32" d="M172.2 73.6l-4.9 1.8c-.4.1-.8-.1-.9-.4l-11.5-32c-.1-.4.1-.8.4-.9l4.9-1.8c.4-.1.8.1.9.4l11.5 32c.1.3-.1.7-.4.9z"/><path id="XMLID_844_" class="st2" d="M162.3 46.1c.5 1.3-.2 2.8-1.5 3.3s-2.8-.2-3.3-1.5.2-2.8 1.5-3.3 2.8.2 3.3 1.5z"/><path id="XMLID_847_" class="st2" d="M169.9 67.3c.5 1.3-.2 2.8-1.5 3.3s-2.8-.2-3.3-1.5.2-2.8 1.5-3.3c1.3-.6 2.8.1 3.3 1.5z"/></g><g id="XMLID_652_"><path id="XMLID_841_" d="M154.3 37.3h-5.7c-.3 0-.5.2-.5.5v37c0 .3.2.5.5.5h5.7c.3 0 .5-.2.5-.5v-37c0-.3-.2-.5-.5-.5z" fill="#4d40ad"/><path id="XMLID_9_" d="M148.9 75.3h2.6v-38h-2.6c-.4 0-.8.3-.8.8v36.5c0 .4.4.7.8.7z" fill="#2d1582"/><path id="XMLID_835_" class="st2" d="M148.1 41.9h6.7v5.3h-6.7z"/><path id="XMLID_8_" class="st2" d="M148.1 65.4h6.7v5.3h-6.7z"/></g><g id="XMLID_648_"><path id="XMLID_651_" d="M140.9 75.3h-8.3c-.3 0-.6-.3-.6-.6v-39c0-.3.3-.6.6-.6h8.3c.3 0 .6.3.6.6v39c0 .4-.3.6-.6.6z" fill="#efa02e"/><path id="XMLID_650_" d="M132.9 75.3h3.8V35.2h-3.8c-.5 0-.9.4-.9.9v38.4c0 .4.4.8.9.8z" fill="#fdd14e"/><path id="XMLID_649_" class="st37" d="M137.9 72.5h-2.2c-.2 0-.3-.1-.3-.3V40.1c0-.2.1-.3.3-.3h2.2c.2 0 .3.1.3.3v32.1c0 .2-.2.3-.3.3z"/></g></g><path class="st38" d="M105.8 75.6h90.3v5.6h-90.3z"/><path opacity=".2" fill="#7c98d6" d="M105.8 80.8l3.1 2.9h91.3l-.1-5.7-4-2.4v5.2z"/></g><g id="Layer_18"><path class="st40" d="M612 146.3s0 .1 0 0c.7.4 0 0 0 0zm-9.1-4.5c-1.4 1.5-3.1 3.3-2.5 3.6 2 1.2 9.2 1.1 11.7.9 17 .8 34.2-6 45.8-18.4-8-5.5-18.7-6.4-28.1-3.7-9.4 2.7-17.6 8.6-24.3 15.6-.5.6-2.2 1.6-2.6 2z"/><path d="M602.9 141.8c.5-.5 2.1-1.4 2.6-1.9 6.8-7 15-12.9 24.3-15.6 4.5-1.3 9.3-1.8 14-1.3-5.4.2-10.8 1.6-15.5 4-8.5 4.3-15.3 11.4-20.5 19.4-2.9 0-6.1-.3-7.3-1-.7-.3 1-2.1 2.4-3.6z" fill="#05331e"/><path class="st40" d="M604.2 113.6c3.2-2.9 7.5-4.4 11.6-5.6 6.4-1.8 13-3.1 19.6-3.7-3.6 8-6.2 16-12.7 21.9-2.6 2.3-6.8 4.6-9.5 6.8-3.2 2.6-8.3 9.3-10.9 12.6-3 .6-5.3-3.7-6.6-6.7-1.7-3.8.2-9.6 1.5-13.5 1.6-4.5 3.6-8.8 7-11.8z"/><path class="st43" d="M611.5 133.1c2.3-2.6 6-5.6 8.2-8.3 4.5-5.8 6-12.5 7.6-19.4 2.7-.5 5.4-.8 8.1-1.1-3.6 8-6.2 16-12.7 21.9-2.6 2.3-6.8 4.6-9.5 6.8-1.6 1.2-3.5 3.4-5.5 5.7 1.4-2.3 2.7-4.3 3.8-5.6z"/><path class="st40" d="M603.3 92c1.5 7.4 2.9 15 1.6 22.4-.5 3-1.5 5.9-2.4 8.8-1.1 3.8-1.7 6.1-2.7 9.9.8-.5-.8 1.8-1.6 3.1-.9 1.4-2.2 3.2-3.2 1.7-1.2-1.7-2.5-3.6-3-5.6-.6-2.4 0-6.4 0-8.9-.1-6.5-.1-13.1 2.1-19.2 1.8-4.7 5-9.1 9.2-12.2z"/><path class="st37" d="M653.1 129.3c-8.4-.3-16.7 0-24.9 2.3-7.7 2.2-14.7 5.8-21.1 10.7-.3.3-.7-.3-.3-.6 6.4-4.8 13.6-8.5 21.3-10.6 8.3-2.3 16.5-2.5 25-2 .1 0 .1.2 0 .2zm-20.4-22.6c-6.8 3.2-13 7.4-18.4 12.7-5.8 5.7-9.7 12.5-14 19.2-.1.2-.4 0-.3-.2 7.4-13.9 17.9-25.7 32.7-31.9 0 0 .1.2 0 .2zm-29.8-11.8c-4.4 13.2-9.6 25.8-6.6 40 .1.3-.4.4-.5.1-2.8-13.5 1.3-27.9 6.9-40.2.1 0 .2.1.2.1z"/><path class="st37" d="M647 134c-.9-.9-1.8-1.9-2.8-2.7s-2.2-1.3-3.3-2c-.1 0 0-.2.1-.2 2.3.9 4.7 2.8 6 4.9.1 0 0 .1 0 0zm-6.8 3.4c-2.4-4.3-5.8-5.5-10.4-6.1-.4 0-.3-.5.1-.5 4.3.6 8.7 1.9 10.3 6.6.1 0 0 0 0 0zm-8.4.5c-2.7-2.1-5.5-5.3-9.3-4.3-.2.1-.3-.2-.1-.3 3.8-1 6.9 2.1 9.5 4.5 0 .1-.1.2-.1.1zm-8.3 4.5c-2.5-3.2-6.2-6.1-10.4-3.9-.2.1-.5-.2-.2-.4 4.2-2.2 8.5.6 10.6 4.3.1 0 0 0 0 0zm19.3-18.4c-.6 2.7-2.9 4.3-5.1 5.8-.2.1-.3-.2-.1-.3 2.2-1.4 4.3-2.9 5-5.6.1-.1.2-.1.2.1z"/><path class="st37" d="M633.9 124.5c-1 2.6-2.7 4.9-4.7 6.8-.2.2-.4-.1-.2-.2 2-1.9 3.5-4.1 4.9-6.6-.1 0 0 0 0 0zm-7.6 3c-.5 1.3-1.1 2.4-1.9 3.5-.6.8-1.6 2.3-2.5 2.6-.1 0-.2 0-.2-.1l-.1-.1c-.1-.1-.1-.3 0-.4 0 0 .1 0 .1-.1h.3l.1.1c.1.1.1.2-.1.2-.3 0 1-1.4 1-1.4.4-.4.8-.8 1.1-1.3.8-1 1.5-2.1 2.1-3.2.1.1.2.2.1.2zm-6.3 3.2c-1.7 2.8-4.2 5.3-6.8 7.3-.3.2-.7-.2-.4-.4 2.7-2.1 4.8-4.5 7-7.1.1 0 .3.1.2.2zm8.8-15.1c-4.7-.3-8.7-.1-12.9 2.5-.3.2-.5-.3-.3-.4 3.7-2.4 8.9-3.8 13.2-2.3.1 0 .1.2 0 .2zm-7.4 7.9c-2.3 0-4.4-.1-6.7.5-2 .5-3.9 1.2-5.9 1.9-.3.1-.4-.3-.1-.4 3.9-1.5 8.4-3.2 12.7-2.1.1 0 .1.1 0 .1zm-8.7 6.8c-1.6.1-3.2.2-4.7.5-1.8.3-3 1.2-4.2 2.6-.2.2-.5-.1-.3-.3 1.1-1.3 2.2-2.2 3.9-2.6 1.7-.4 3.5-.5 5.3-.4.1 0 .1.2 0 .2z"/><path class="st37" d="M619.1 110.2c-.1 1.7-1 3.4-1.7 4.9-.4 1-.8 2.7-2.1 2.9-.1 0-.2-.1-.1-.2 2.2-1.8 2.3-5.3 3.7-7.7.1 0 .2 0 .2.1zm-7 2.1c-.4 4.7-1.9 9.3-3.5 13.7-.1.2-.4.1-.3-.1 1.7-4.5 2.7-9 3.8-13.6-.2-.1 0-.1 0 0zm-7.6 9.8c0 4-1 8-1.6 11.9 0 .3-.5.2-.5-.1.7-3.9 1.3-7.9 1.9-11.8 0-.1.2-.1.2 0zm-.2-19.7c-2.8 3.2-5.1 6.6-6.9 10.4-.1.3-.6 0-.5-.3 1.8-3.9 4.1-7.4 7.2-10.4.1-.1.3.1.2.3z"/><path class="st37" d="M595.2 103.1c1.3 3 1.6 6.9 1.8 10.1 0 .3-.4.3-.5 0-.1-1.9-.3-3.7-.6-5.6-.3-1.5-.7-3-.9-4.5 0-.1.1-.1.2 0zm5.1 11.4c-2.1 3.3-3.4 6.5-4.9 10.1 0 .1-.2 0-.2-.1.5-3.6 2.6-7.4 4.9-10.2.2 0 .3.1.2.2zm-5.2 10.3c-.9-2.3-1.7-4.6-3-6.7-.1-.2.2-.3.3-.2 1.2 2.1 2.4 4.5 2.7 6.9.1 0 0 0 0 0z"/><g id="XMLID_121_"><g id="XMLID_307_"><path id="XMLID_319_" class="st27" d="M828.3 130.5c-3.7 3.1-9.2 2.6-12.2-1.1-3.1-3.7-2.6-9.2 1.1-12.2 3.7-3.1 9.2-2.6 12.2 1.1 3.1 3.7 2.6 9.2-1.1 12.2z"/><path class="st2" d="M825.1 122.2l-2.8 5.9c0 .1-.1.1-.2.1h-.1c-.1 0-.2-.1-.2-.3l1-4.1-2.1.5h-.1c-.1 0-.1 0-.2-.1s-.1-.1-.1-.2l1-4.2c0-.1.1-.2.2-.2h1.7c.1 0 .2.1.2.2v.1l-.9 2.4 2-.5h.1c.1 0 .1 0 .2.1.3.1.3.2.3.3z"/></g><path id="XMLID_306_" class="st28" d="M821.6 124.1c0-2.9-1.3-5.4-3.3-7.2-.4.2-.8.5-1.2.8-2 1.7-3 4-3.1 6.4.1 1.9.7 3.7 2 5.3.6.8 1.4 1.4 2.2 1.9 2.1-1.7 3.4-4.3 3.4-7.2z"/><g id="XMLID_1_"><path id="XMLID_305_" class="st11" d="M820.1 123c0 5.3-4.3 9.5-9.5 9.5-5.3 0-9.5-4.3-9.5-9.5 0-5.3 4.3-9.5 9.5-9.5s9.5 4.3 9.5 9.5z"/><path class="st2" d="M813.1 126.3c0 .1 0 .2-.1.2 0 0-.5.2-1.1.2-1.6 0-3-1-3.4-2.5h-.5c-.1 0-.2-.1-.2-.2v-.6c0-.1.1-.2.2-.2h.3v-.6h-.4c-.1 0-.2-.1-.2-.2v-.6c0-.1.1-.2.2-.2h.5c.5-1.5 1.8-2.4 3.4-2.4.5 0 1 .1 1 .1s.1 0 .1.1v.1l-.2.8c0 .1-.1.1-.2.1 0 0-.4-.1-.7-.1-.9 0-1.6.5-2 1.3h2.5c.1 0 .1 0 .1.1v.1l-.1.6c0 .1-.1.1-.2.1h-2.6v.6h2.4c.1 0 .1 0 .1.1v.1l-.1.6c0 .1-.1.1-.2.1h-2c.3.8 1.1 1.3 2 1.3.5 0 .8-.1.8-.1h.1l.1.1.4 1z"/></g><path id="XMLID_149_" class="st28" d="M806.9 115.3c-3.3 1.4-5.7 4.6-5.9 8.4.2 3.2 2.1 6 4.7 7.6 4-2.9 5.4-8.3 3.3-12.9-.5-1.2-1.2-2.2-2.1-3.1z"/><g id="XMLID_134_"><ellipse id="XMLID_148_" class="st3" cx="797.9" cy="122.1" rx="10.5" ry="10.5"/><path class="st2" d="M804 118.2v6.9c0 .5-.4.9-.9.9H794c-.5 0-.9-.4-.9-.9v-6.9c0-.5.4-.9.9-.9h9.1c.4 0 .9.4.9.9zm-10.3 0v1.3h9.5v-1.3c0-.1-.1-.2-.2-.2h-9.1c-.1 0-.2.1-.2.2zm9.5 7v-3.5h-9.5v3.5c0 .1.1.2.2.2h9.1c.1 0 .2-.1.2-.2zm-8.7-1.3h1.5v.7h-1.5v-.7zm2.2 0h2.2v.7h-2.2v-.7z"/></g><path id="XMLID_133_" class="st28" d="M788.4 126.5c.7 1.5 1.7 2.7 2.8 3.6.6-.8 1.2-1.8 1.5-2.8 1.4-4.1.2-8.5-2.9-11.2-1.5 1.8-2.4 4.1-2.4 6.5.1 1.3.4 2.6 1 3.9z"/><g id="XMLID_122_"><path id="XMLID_132_" d="M790.7 125.6c-1.9 5.4-7.9 8.3-13.3 6.4-5.4-1.9-8.3-7.9-6.4-13.3 1.9-5.4 7.8-8.3 13.3-6.4 5.5 2 8.3 7.9 6.4 13.3z" fill="#00c9a7"/><path class="st2" d="M781.2 125.8v.9c0 .1-.1.2-.2.2h-.7c-.1 0-.2-.1-.2-.2v-.9c-1.2-.2-1.9-.9-2-1-.1-.1-.1-.2 0-.2l.6-.7.1-.1h.1s.8.7 1.7.7c.5 0 1.1-.3 1.1-.9 0-.5-.6-.8-1.4-1.1-1-.4-2.2-.9-2.2-2.2 0-1 .8-1.8 1.9-2v-1c0-.1.1-.2.2-.2h.7c.1 0 .2.1.2.2v.9c1.1.1 1.7.7 1.7.7.1.1.1.1 0 .2l-.4.8-.1.1h-.1s-.7-.6-1.5-.6c-.7 0-1.1.3-1.1.8 0 .6.7.8 1.4 1.1 1 .4 2.1.8 2.1 2.1s-.8 2.2-1.9 2.4z"/></g></g><g id="XMLID_320_"><path id="XMLID_327_" class="st3" d="M639.2 134.3l-6.4-.5 5.1-5.9z"/><path id="XMLID_326_" class="st3" d="M634.1 140.1l-6.4-.5 5.1-5.8z"/><path id="XMLID_5_" class="st3" d="M646.6 145.9h-17.7l15.4-17.5z"/><path id="XMLID_324_" class="st14" d="M646.6 145.9l-12.5-5.8 5.1-5.9z"/><path id="XMLID_323_" class="st14" d="M627.7 139.6l1.2 6.3 5.1-5.8z"/><path id="XMLID_4_" class="st14" d="M632.8 133.8l1.3 6.3 5.1-5.8z"/><path id="XMLID_321_" class="st14" d="M637.9 127.9l1.3 6.3 5.1-5.8z"/></g><g id="Layer_13_1_"><path class="st40" d="M694.5 132.1s-.7.3 0 0zm6.3-6.2c-6.5-6.7-14.4-12.5-23.4-15-9-2.6-19.3-1.7-27.1 3.6 11.2 11.9 27.8 18.5 44.2 17.6 2.4.2 9.3.3 11.2-.9.5-.3-1-2.1-2.4-3.5-.4-.4-2-1.4-2.5-1.8z"/><g class="st41"><path class="st18" d="M703.4 127.7c-.4-.4-2-1.4-2.4-1.8-6.5-6.7-14.4-12.5-23.4-15-4.4-1.2-9-1.7-13.4-1.2 5.1.2 10.4 1.6 15 3.9 8.2 4.2 14.7 11 19.8 18.7 2.7 0 5.8-.3 7-1 .3-.5-1.4-2.1-2.6-3.6z"/></g><path class="st40" d="M708.6 111.7c1.3 3.7 3.1 9.3 1.5 13-1.2 2.9-3.5 7.1-6.4 6.5-2.4-3.1-7.3-9.6-10.5-12.1-2.6-2.1-6.6-4.3-9.2-6.5-6.3-5.7-8.7-13.3-12.2-21 6.4.6 12.6 1.8 18.9 3.6 4 1.1 8.1 2.6 11.2 5.4 3.4 2.8 5.3 7 6.7 11.1z"/><path class="st43" d="M695 119.3c-2.2-2.5-5.8-5.4-7.9-8-4.3-5.6-5.8-11.9-7.3-18.7-2.6-.4-5.2-.8-7.9-1 3.5 7.8 5.9 15.4 12.2 21 2.4 2.3 6.5 4.4 9.2 6.5 1.5 1.2 3.4 3.3 5.2 5.5-1.2-2.1-2.4-4.1-3.5-5.3z"/><path class="st40" d="M711.8 91.5c2.2 5.8 2.1 12.2 2.1 18.4 0 2.4.6 6.3 0 8.6-.4 1.9-1.7 3.7-2.9 5.3-1 1.4-2.2-.3-3.1-1.7-.8-1.3-2.3-3.6-1.6-3.1-1-3.6-1.7-5.8-2.6-9.5-1-2.8-1.8-5.6-2.4-8.5-1.2-7.2.2-14.4 1.6-21.5 4 3.3 7.1 7.5 8.9 12z"/><path class="st37" d="M655 115.6c8.1-.3 16.1 0 23.9 2.2 7.4 2.1 14.2 5.7 20.3 10.3.3.3.6-.3.3-.5-6.1-4.6-13.1-8.1-20.5-10.2-7.9-2.3-15.9-2.4-24.1-1.9-.1 0-.1.1.1.1zM674.6 94c6.5 3.1 12.6 7.2 17.7 12.2 5.6 5.5 9.3 12 13.5 18.5.1.2.4 0 .3-.2-7.2-13.4-17.3-24.7-31.5-30.7 0 0-.2 0 0 .2zm28.8-11.4c4.3 12.6 9.3 24.8 6.4 38.5-.1.3.3.4.4.1 2.7-13.1-1.2-26.9-6.8-38.6 0-.2-.2-.1 0 0z"/><path class="st37" d="M660.8 120.2c.9-.9 1.7-1.8 2.7-2.5 1-.8 2.1-1.3 3.2-1.9.1-.1 0-.2-.1-.2-2.2.7-4.5 2.6-5.8 4.6zm6.6 3.2c2.3-4.1 5.6-5.3 10-5.8.3 0 .3-.5-.1-.4-4.1.5-8.4 1.8-9.9 6.2-.1 0 0 0 0 0zm8.1.5c2.6-2 5.2-5.1 8.9-4.2.2.1.3-.3.1-.3-3.7-1-6.6 2.1-9.1 4.4-.1.1 0 .2.1.1zm8 4.3c2.4-3.1 5.9-5.8 10-3.7.3.1.4-.3.2-.3-4-2.1-8.1.5-10.3 4-.1 0 .1.1.1 0zm-18.6-17.7c.5 2.6 2.8 4.2 4.9 5.6.2.1.3-.2.2-.3-2.1-1.4-4.2-2.8-4.9-5.3-.1-.2-.2-.1-.2 0zm8.6.5c1 2.5 2.6 4.7 4.5 6.5.2.2.4-.1.3-.3-2.1-1.7-3.5-3.8-4.8-6.2 0 0-.1 0 0 0z"/><path class="st37" d="M680.7 113.9c.4 1.2 1 2.3 1.8 3.3.6.8 1.5 2.2 2.4 2.5.1 0 .2 0 .3-.1l.1-.1c.1-.1.1-.3-.1-.3l-.1-.1c-.1-.1-.2 0-.3 0l-.1.1c-.1.1-.1.2.1.3.3.1-1-1.4-1-1.4-.3-.4-.7-.8-1-1.2-.8-1-1.5-2-2-3.1 0 0-.1 0-.1.1zm6.1 3.1c1.6 2.7 4.1 5.1 6.5 7.1.3.3.7-.2.4-.4-2.6-2-4.6-4.4-6.8-6.8-.1-.1-.3 0-.1.1zm-8.4-14.5c4.5-.3 8.5-.1 12.4 2.4.3.2.5-.3.3-.4-3.5-2.3-8.6-3.7-12.7-2.3-.2.1-.2.3 0 .3zm7 7.5c2.2 0 4.3-.1 6.4.4 1.9.4 3.7 1.1 5.7 1.8.3.1.3-.3.1-.4-3.8-1.4-8.1-3.1-12.2-2v.2zm8.4 6.6c1.5.1 3.1.3 4.5.5 1.7.3 2.9 1.2 4 2.5.2.2.5-.1.3-.3-1-1.2-2.1-2.1-3.7-2.5-1.7-.3-3.4-.4-5.1-.3v.1z"/><path class="st37" d="M687.7 97.3c.1 1.7 1 3.3 1.6 4.8.4 1 .8 2.6 2 2.8.1 0 .2-.1.1-.2-2.1-1.7-2.2-5.1-3.6-7.4 0-.2-.1-.2-.1 0zm6.8 1.9c.4 4.5 1.8 9 3.4 13.2.1.2.4.1.3-.1-1.7-4.3-2.5-8.6-3.6-13.1h-.1zm7.3 9.6c0 3.8 1 7.8 1.6 11.5.1.3.5.2.4-.1-.7-3.8-1.2-7.6-1.8-11.4 0-.2-.2-.2-.2 0zm.2-19c2.7 3.1 4.9 6.4 6.6 10 .2.3.6.1.4-.3-1.7-3.7-4-7.1-6.9-10-.1-.1-.3.1-.1.3z"/><path class="st37" d="M710.7 90.5c-1.3 2.9-1.6 6.6-1.7 9.8 0 .3.4.3.4 0 .1-1.8.3-3.6.6-5.4.3-1.5.7-2.9.9-4.4 0-.2-.2-.2-.2 0zm-4.9 10.8c2 3.1 3.3 6.3 4.7 9.8 0 .1.2 0 .2-.1-.5-3.5-2.4-7.2-4.7-9.8-.2 0-.3.1-.2.1zm5.1 10c.9-2.3 1.6-4.4 2.9-6.5.1-.2-.2-.3-.3-.2-1.2 2.1-2.5 4.3-2.6 6.7-.2.1-.2.1 0 0z"/></g><g id="Layer_8"><g class="st22"><path class="st18" d="M764.7 121.4c0-.1-.1-.3-.2-.3 0 0 0-.1-.1-.1-.3-.5-.8-1-1.3-1.2-1.6-1-3.9-1.7-5.1-1.9l3.1-.8v-.4l1.6.5c.4.2 1-.1 1.1-.5v-.3c.3 0 .7-.3.8-.6.1-.3 0-.5-.1-.7.3 0 .6-.3.7-.6.1-.3 0-.6-.2-.9.3-.1.4-.3.5-.5.2-.4-.1-1-.5-1.1l-.7-.3 6.6-10c.1-.2-.1-.3-.3-.3l-15.3 4.1-6.4-7v8.3l.4.3-.4.1v25.1h7.9c11.6-2.7 7.9-10.9 7.9-10.9z"/></g><g class="st22"><path class="st18" d="M711 123.9c1.1-1.6 2.4-3.5 2.9-5.3.5-2.3 0-6.2 0-8.6.1-6.2.1-12.6-2-18.3l1.1 4.9-.3 4.4-.3-.1-1.1-10.4c-1.7-3.9-4.3-7.4-7.7-10.1-.3 6.6-.4 21.2 2.5 25.7.5.9 1.5 1.6 2.6 2.2-2.7-1.2-5-2-6.5-2.5-.1 0-.3-.1-.3-.1h.1c-.1 0-.2-.1-.3-.1h-.1c-.1 0-.2-.1-.3-.1h-.1c-.1 0-.2-.1-.3-.1h-.1c-.1 0-.1 0-.2-.1h-.4c-.2 0-.3 0-.5.1-.1 0-.2 0-.2.1-.1 0-.2.1-.2.1-.4.2-.9.5-1.2.9-.8.8-1.4 1.8-1.7 2.9v.2c-.3 1-.3 2.1-.1 3.1.3 1.8 1.2 3.6 2.5 5 .1.1.1.2.2.2.3.3.5.5.9.8 1.6 1.3 3.3 2.7 4.8 3.8.2.2.4.3.6.4.3.2.5.3.7.5.3.2.5.3.7.5.2.2.3.3.5.3.1.1.3.2.3.3.2.2.3.3.4.3l-5.1.6c-1.2 0-2.3.8-2.8 1.8-.2.3-.3.8-.3 1.1v.1c0 .2 0 .3.1.5.1.4.3.8.4 1.1.5.8 1.5 1.3 2.5 1.3h1.7c.1 0 .2 0 .2-.1.1 0 .1 0 .2-.1.2-.1.3-.2.5-.3.1 0 .1-.1.1-.2v-.2c1.9-1 3.3-3.9 4.3-6.1 0-.1.1-.2.1-.3.7.5.9.3 1.2-.1zm1.1-14.2v.3c-.4-.3-1-.5-1.4-.7 0 0-.1 0-.1-.1h-.1c.6.2 1.1.3 1.6.5z"/></g><path class="st18" d="M736.4 51.7c.4-1.4-.6-2.8-1.7-3.8-2.1-2-4.6-3.6-7.5-3.7-2.6-.2-5.8 1.6-7.6 3.5-1 1.1-1.8 2.5-2.6 3.8-.7 1.1-1 2.4-1.1 3.8-.1 1.6.6 3.2 0 4.8-.2.4-.5.9-.7 1.4-.4 1-.1 2.3.2 3.4.1.4.3.9.3 1.2 0 .7-.3 1.4-.5 2-.4 1.6.2 3.6 1.7 4.3.5.3 1.1.3 1.7.3.2 0 .4 0 .6-.1.5-.3.5-1 .9-1.7.3-.7 1.3-.9 2.1-.9s1.7.1 2.4-.3c1.9-1 1.5-4.2 3.2-5.3.8-.5 1.8-.5 2.5-1.1.9-.7 1-1.9 1.4-2.9.4-.9 1-1.6 1.7-2.3 1.5-1.8 2.5-4.1 3-6.4"/><path class="st45" d="M731.9 84.5l-11.7-1.2-4.4-12.7 3.6-1.4 8.2.1 5.3 1.3z"/><path fill="#09324c" d="M714.7 108.7h26.9v16.2h-26.9z"/><path class="st11" d="M728.6 69.6s5 1.1 6.7 1.7c0 0 5.4.5 7.1 7.8l4.2 18.9 8.8 9.6-3.4 2.6-11.2-7.7c-.6-.4-1.1-1.1-1.3-1.8l-3.2-12.1.2 10s7.1 10.3 5 13.8l-27.1-1.5.8-14-3.2-13.7 1.8-11.7 5.6-2.1s-1.3 7.5 5.6 8.5c0-.2 6.1-1.9 3.6-8.3z"/><g class="st22"><path class="st18" d="M736.3 94l-.1-5.6c-1.4 2.3-2.2 7-3.7 9.1-.3.3-.5.7-.6 1-.3.9.2 1.8.8 2.5.6.7 1.5 1.1 2.3 1.7 1.6 1.1 3 2.6 3.9 4.3.7 1.2 2.2 3.7 1.5 5.1h1c2.2-3.5-5-13.8-5-13.8l-.1-4.3z"/></g><path class="st47" d="M743.4 102.5c-.6-.4-1.1-1.1-1.3-1.8l-5.8-12.2 1.7 6.8 1.4 5.4c.2.8.7 1.4 1.3 1.8l11.2 7.7.6-.5-9.1-7.2z"/><path class="st48" d="M710.4 124.9s-4.6-3.3-8.2-6.4c-2.7-2.4-3.8-5.7-3.4-9.3v-.1s1.6-4 3.8-4c0 0 13.9 3.6 24 13.4l17.1 5.6-31.6 4-1.7-3.2z"/><path d="M712.8 125.4c-.3-.6-.7-1.2-1.3-1.6-.3-.3-.8-.3-1.1-.5-1.1-.7-1.6-2.2-2.4-3.1-.8-.9-1.8-1.3-2.5-2.2-.6-.8-1-1.7-1.4-2.6-.3-.9-.7-1.7-1-2.6-.3-.9-.7-1.8-.7-2.8 0-.6 1-4.5 2-4.2-1.2-.3-1.8-.5-1.8-.5-.8 0-1.5.5-2.2 1.1-1.6 1.7-2.3 4-1.7 6.2.4 2.4 1.7 4.4 3.5 6 3.6 3.1 8.2 6.4 8.2 6.4l1.7 3.4 3.1-.4c-.5-1-1.6-1.2-2.2-2.3 0-.1 0-.2-.2-.3z" opacity=".07" fill="#f7f9fa"/><path class="st47" d="M716.9 126.6v1l26.7-3.4-8-2.6-5.3-1.5z"/><path class="st48" d="M755.3 117.6s6.6 1.4 7.2 3.8c0 0 3.7 8.2-7.7 10.8h-34.3v-5.7l16.3-4.4 18.5-4.5z"/><path class="st47" d="M762.5 121.4c-.2-.7-1.1-1.7-1.7-1.7 0 .8.4 1.5.4 2.3 0 1-.5 2.1-1.2 2.9-1 1.1-2.5 1.8-3.9 2.5-.9.4-1.7.8-2.6 1.2-.8.3-1.6.7-2.4 1-2.8.7-5.8-.2-8.6.3-1.7.3-3.5.4-5.2.6-1.4.1-16.6 1-16.6.8v1H755c11.1-2.7 7.5-10.9 7.5-10.9z"/><path class="st45" d="M720.6 126.6l-2.2-1.7c-.7-.5-1.6-.8-2.4-.7l-10.7 1.2c-1.7 0-3 1.3-3 3v.1c0 1.7 1.3 3 3 3h15.4c-.1-.1-.1-4.9-.1-4.9z"/><path class="st18" d="M718.4 124.9c-.7-.5-1.6-.8-2.4-.7l-10.7 1.2c-1.7 0-3 1.3-3 3v.1c0 .3.1.7.2 1 .4-1.1 1.5-2 2.8-2l10.7-1.2c.9-.1 1.7.2 2.4.7l2.2 1.7v-2l-2.2-1.8z"/><path class="st18" d="M708.3 127.5c0-1 .3-1.8.8-2.5l-3.9.4c-1.7 0-3 1.3-3 3v.1c0 1.7 1.3 3 3 3h7.1c-2.1 0-4-1.8-4-4z"/><path class="st50" d="M721.7 117.3l21.8-5.6 7.6 6.9-14.2 3.6z"/><path class="st26" d="M725.2 117.3l20-5.1 5.9 6.1-11.5 2.9z"/><path d="M737.3 121.5l-15.6-4.1v.3c0 .4.3.8.7 1l13.3 4.1c.3.1.8 0 1-.3l.6-1z" fill="#d8d7d6"/><path fill="#bebcba" d="M736.1 122.7l23-5.7v-1l-21.8 5.5z"/><path class="st45" d="M730.3 108.7l5.5 1.3.6.3 2.7 2c.4.3.8.8 1 1.2l.9 1.5.4 2.9c-.5.4-1.2.1-1.3-.5l-.1-1.6c-.3-.5-1.4-1.7-1.9-1.7l-1.6-.3 1.2 2.1c.3.5-.1 1.2-.7 1.2l-3.1-3.7-5.4-2.2 1.8-2.5z"/><path class="st50" d="M736.9 121.8l7.9-13.9c0-.1.1-.1.1-.1l23.6-6.4c.2-.1.3.2.3.3l-9.8 14.7c0 .1-.1.1-.2.1L737 122c0 .1-.2-.1-.1-.2z"/><path class="st26" d="M754.6 112.2c-.4 1-1.3 1.7-2.1 1.7-.7 0-1-.8-.6-1.7.4-1 1.3-1.7 2.1-1.7.8-.1 1.1.7.6 1.7z"/><path class="st47" d="M714.7 110.1c-2.4-1.2-4.6-2.3-6.5-3 .1.1.1.3.2.3 3.6 5.4 21.2 5.1 21.2 5.1l1.1-2.4-1.5-1.5h-14.6c.1.1.1 1.5.1 1.5z"/><path class="st11" d="M716.7 70.2s-6.7 2.5-7.6 3c-.3.2-3.1 1.1-3.1 4.3-.1 3.1-1.1 23.2 2.4 28.6 3.6 5.4 21.3 6.1 21.3 6.1l1.9-3.8-16.9-7.4-1.9-17.5 3.9-13.3z"/><path class="st47" d="M714.6 100.9l-1.8-17.6-.3 1.1.8 17.2 17.7 7.9.5-1.2z"/><path class="st45" d="M762.4 113.5l-2.7-.9c-.4-.2-.7-.6-.5-1.1.2-.4.6-.7 1.1-.5l2.7.9c.4.2.7.6.5 1.1-.2.4-.5.7-1.1.5z"/><path class="st45" d="M762.1 114.9l-3.1-1c-.4-.2-.7-.6-.5-1.1.2-.4.6-.7 1.1-.5l3.1 1c.4.2.7.6.5 1.1-.1.4-.6.6-1.1.5z"/><path class="st45" d="M761.6 116.2l-2.5-.9c-.4-.2-.7-.6-.5-1.1.2-.4.6-.7 1.1-.5l2.5.9c.4.2.7.6.5 1.1-.2.4-.8.6-1.1.5z"/><path class="st45" d="M760.7 117l-1.6-.5c-.4-.2-.7-.6-.5-1.1.2-.4.6-.7 1.1-.5l1.6.5c.4.2.7.6.5 1.1-.2.5-.7.7-1.1.5zm-22.5-1.4l-.3-2.3 1.1-.1.3 3.4c-.4.1-1-.4-1.1-1zM721 65.8h6.7v8.7H721z"/><path class="st47" d="M727.8 69l-6.8 1.6v-4.8h6.8z"/><path d="M737.1 54.8l-.8-4.3c-1.7.7-3.7 1.1-5.5 1.3-.6.1-1.2.1-1.8.3-1.3.4-2.2 1.5-2.6 2.7-.3 1 .1 3.1-1.2 3.2-.6.1-1.1-.3-1.5-.8-.3-.4-.7-1-1-1.4-1-1-2.4-.3-2.4 1-.1.8.3 1.7.9 2.2.6.6 1.6.9 1.8 1.7.2.3.2.6.2 1 .1 1.1.4 2.3 1 3.3 1 1.5 2.5 2.4 4 3.1 1.7 1 3.5 1.5 4.3-.7.6-1.7 2.7-2.5 3.4-4.3.3-.9 0-1.7 0-2.7-.1-2 1.3-3.4 1.2-5.6z" fill="#efdcb4"/><path class="st18" d="M735.7 60.6c.1-2.1 1.5-3.6 1.4-5.8l-.8-4.3c-.3.1-.6.3-1 .3l.7 3.9c.1 2.2-1.3 3.7-1.4 5.8-.1 1 .3 1.7 0 2.7-.6 1.7-2.7 2.5-3.4 4.3-.3.9-.8 1.3-1.4 1.5 1 .2 1.9-.1 2.4-1.5.6-1.7 2.7-2.5 3.4-4.3.4-.9 0-1.7.1-2.6z" opacity=".1"/><path class="st18" d="M716.3 59.8c.8.1 1.3 1 1.3 1.7 0 .8-.3 1.6-.4 2.4s-.3 1.7.2 2.3c.3.5 1 .9 1.3 1.5.5 1.1-.8 2.4-1 3.6-.2 1.9 2.5 3.3 2.3 5.2-.1.5-.3 1-.3 1.6.1 1 1.2 1.7 1 2.8-.1.3-.2.5-.1.8.1.2.3.3.5.3.5.2 1.2.3 1.5-.2.3-.6-.5-1.3-.3-2 1 .2 1.9.4 2.9.6.2.1.4.1.6-.1.1-.1.2-.2.2-.3.3-1.1-.8-2.1-1.4-3.1-.1-.2-.2-.3-.2-.4 0-.3.3-.6.7-.7.6-.3 1.2-.7 1.4-1.3.2-.8-.3-1.5-.8-2.2-.7-1-1.3-2.2-1-3.4.2-.8.8-1.6.7-2.4-.1-1.6-2.1-2.4-2.3-4-.1-.3 0-.8 0-1.1-.1-.8-.7-1.6-1.4-1.9-.7-.4-1.6-.6-2.4-.8-.6-.2-1.3-.3-1.9-.2-.6.2-1.2.6-1.2 1.3"/></g><g id="XMLID_210_"><path id="XMLID_221_" class="st2" d="M588.1 142.4H507V61.9c0-2.2 1.7-3.9 3.9-3.9h73.3c2.2 0 3.9 1.7 3.9 3.9v80.5z"/><path id="XMLID_220_" class="st38" d="M588.1 70.2v-9.4c0-1.6-1.3-2.8-2.8-2.8h-75.5c-1.6 0-2.8 1.3-2.8 2.8v9.4h81.1z"/><path id="XMLID_219_" class="st38" d="M518.7 72.4h58.2v24.7h-58.2z"/><path id="XMLID_218_" class="st55" d="M574.4 102h-53.3c-1.3 0-2.4 1.1-2.4 2.4 0 1.3 1.1 2.4 2.4 2.4h53.3c1.3 0 2.4-1.1 2.4-2.4.1-1.4-1-2.4-2.4-2.4z"/><path id="XMLID_217_" class="st55" d="M574.6 112.3h-53.3c-1.3 0-2.4 1.1-2.4 2.4 0 1.3 1.1 2.4 2.4 2.4h53.3c1.3 0 2.4-1.1 2.4-2.4 0-1.3-1-2.4-2.4-2.4z"/><path id="XMLID_216_" class="st55" d="M574.8 122.7h-53.3c-1.3 0-2.4 1.1-2.4 2.4 0 1.3 1.1 2.4 2.4 2.4h53.3c1.3 0 2.4-1.1 2.4-2.4 0-1.3-1.1-2.4-2.4-2.4z"/><path id="XMLID_215_" class="st55" d="M575 133.1h-53.3c-1.3 0-2.4 1.1-2.4 2.4 0 1.3 1.1 2.4 2.4 2.4H575c1.3 0 2.4-1.1 2.4-2.4 0-1.3-1.1-2.4-2.4-2.4z"/><path id="XMLID_214_" class="st2" d="M516.5 64.1c0 .9-.7 1.6-1.6 1.6-.9 0-1.6-.7-1.6-1.6 0-.9.7-1.6 1.6-1.6.9-.1 1.6.7 1.6 1.6z"/><path id="XMLID_213_" class="st2" d="M521.9 64.1c0 .9-.7 1.6-1.6 1.6-.9 0-1.6-.7-1.6-1.6 0-.9.7-1.6 1.6-1.6.9-.1 1.6.7 1.6 1.6z"/><path id="XMLID_212_" class="st2" d="M527.3 64.1c0 .9-.7 1.6-1.6 1.6-.9 0-1.6-.7-1.6-1.6 0-.9.7-1.6 1.6-1.6.9-.1 1.6.7 1.6 1.6z"/><path id="XMLID_211_" d="M585.3 58h-3.6c1.6 0 2.8 1.3 2.8 2.8v81.6h3.6V60.8c0-1.6-1.3-2.8-2.8-2.8z" opacity=".2" fill="#97a4af"/></g></g><path class="st57" d="M370.2 139.9v-67l-13.6-13.3h-2.7v77.5c0 3.7 2.1 6.8 5.2 8.4h5.5c3 .1 5.6-2.4 5.6-5.6zm165.9-2.8V62h-26.3c-1.6 0-2.8 1.3-2.8 2.8v81.6h20.6c4.7-.4 8.5-4.4 8.5-9.3z"/><g id="Layer_9"><path class="st57" d="M315.5 99.8l-9.9-9.9v33.6l10.4-20.4c.5-1.1.3-2.4-.5-3.3zm-2.6 42.4l-7.1-.6c.7 2.3 2.9 4 5.4 4h.5l1.2-1v-2.4z"/><path transform="rotate(-138.694 310.235 46.65)" class="st3" d="M306.5 40.5h7.5v12.3h-7.5z"/><path class="st57" d="M307.5 44.1l3.7 7.1 5.9-6.7-5.6-5z"/><path class="st3" d="M308 43.5l7.2 6.3c2.2 1.9 5.6 1.7 7.5-.5l2.4-2.8 1.7.9.5-5.5c1.8-.1 3.4-1.1 4.3-2.7l-1.3-1.5-5.8-5.1c-2.2-1.9-5.5-1.7-7.4.5L308 43.5zm-10.9 88l-1.8 4.3 3.1 5h-10.7v-3.9l3.2-6.1zm-60.5-.3l-3.2 2.9.5 5.3-8.8-4.4 1.6-3.1 5.1-3.7z"/><path class="st11" d="M293.6 80.4L313 99.8c.9.9 1.1 2.2.5 3.3l-16.1 31.5-7.8-1.9s7.2-23.5 11.1-29.3l-23.8-15.3 16.7-7.7z"/><path class="st57" d="M293.6 80.4l3.1 3.2 2 18.6-21.8-14.1z"/><path class="st11" d="M278.4 69.6s-7.2 2-10.2 6.9l-4 9.5-15.5 19.1s-9.6 4.8-19.9 23.3l6.4 5.7 20.5-20.5L282.1 91l10.7-6.2-14.4-15.2z"/><path class="st3" d="M309.2 50.3l14 7 25.7 1 3.8-5 3-10.2c.6 1 .9 2.1.8 3.3l-.7 5.5-1 6.3-2.5 4.1-30.5 2-13.6-5 1-9z"/><path class="st57" d="M292.4 84.4c-1 .9-1.6 1.4-1.6 1.5-10.2-.9-14.3-10.4-15.7-15 1.9-.9 3.4-1.3 3.4-1.3l13.9 14.8z"/><path class="st11" d="M306.6 44.9s-6.7-2.7-12.3 1.3c0 0-9.8 20.5-17.3 22.2 0 0 2.8 16.3 16.3 17.5 0 0 1.7-.6 3.3-2.9 5.9-8.6 12.9-17.7 15.7-29.3 0-.2.1-.3.1-.5l-5.8-8.3zm-18.1 93.2l1.6 1.7 4.7.1 2.5-3 5.4 4.6 7.7.7v2.4l-1.8 1.5h-21.9V138zm-54.8-2.9l1.7 4.5 2.1 2.4 4.3 1.6v2.1l-2.4.8h-9l-8-8.8 4-6.3 1.3 1v1.8l2.7 2.3z"/><path class="st57" d="M322 64.4l-10.3-3.8 2.4-6.1 7.7 2.1 1.4.7 25.7 1 .8-1h2.2l3.8-5 .3-.8-.1.4-1 6.4-2.1 3.4-12.9 1.5z"/><path class="st11" d="M299.6 58.7l11.5 4.5 3.5-8.8-11.6-4.5c-2.4-1-5.2.2-6.1 2.7-1 2.4.2 5.1 2.7 6.1z"/><path class="st3" d="M314.1 55.5l10.3 2.8h27.5l3.8-5 3-10.2c.6 1 .9 2.1.8 3.3l-.7 5.5-.9 5.9c0 .3-.2.6-.3.9l-2.3 3.7-31.7 3.8-12.3-3.8 2.8-6.9z"/><path d="M286.8 144.8l10.9-4h-10.9zm-63.9-7.8l2.8 3 8.3-.2-6.3-2.8-2.9-3z" fill="#296ad3"/><path class="st18" d="M308.4 35.5c.2-.2.4-.5.5-.7.7-1 1.2-1.8 1.6-2.9.2-.6.4-1.2.8-1.6 1.3-1.4 3.9-2 5.7-2.4 2.4-.4 4.8-1.9 7.1-1.1.7.3 1.3.7 2 1.2 1.4 1 2.9 1.9 3.8 3.4.4.6.5 1.2 1.1 1.6.5.4 1.2.6 1.5 1.2.8 1.2.3 2.7-.1 4-.4 1.2-.9 2.5-1.3 3.7-.9-.5-1.2-1.5-1.7-2.3-.8-1.2-3.7-3.3-5.2-2.7-1 .4-1.3 1.6-2 2.3-.8.8-2.1 1.1-2.7 2.1-.4.6-.5 1.6-1.2 1.8.3-.1.4-2.1.4-2.4 0-.8.2-1.4.3-2.2.1-.5 0-1-.3-1.3-.2-.2-.5-.2-.7-.4-.1-.1-.2-.2-.3-.2-.2-.1-.5 0-.7.1-1.3.6-1.3 1.7-1.4 3-.2.1-.4-.1-.6-.2-.2-.1-.3-.1-.5-.1-.9-.1-1.8-.2-2.6.4-.9.7-1.3 1.5-1.7 2.5-.2.4-.5.9-1 1.1-.2.1-.4.1-.6.1h-1.2c-.2 0-.4-.1-.5-.2-1.2-.9.2-2.6 0-3.7-.1-.4-.3-.7-.6-.9.4-.3 1.2-.4 1.5-.8.2-.2 0-1.8-.3-1.6.2-.1.5-.3.7-.4 0-.1.1-.2.2-.4z"/><path d="M304.2 69.2c-1.4 1.4-2.3 4.9-3.2 6.7 1.3-1.1 2.6-3.8 4-5.3.6-.9 1.1-1.8 1.7-2.7-.9.2-1.7.5-2.5 1.3zm-.2-3.1c.4.2 2.1 1.1 2.8 1.5.8-1.4 1.5-2.7 2.1-4.2-.2.1-.5.3-.6.3-.3.2-.2.5-.1.8-.2 0-.3.1-.5.1-.4.1-.6.5-.5.8-.4.1-.8.3-1.3.4-.4.2-2.5 0-1.9.3zm-3.5-6.7c-.4-.4-.8-.9-1.3-1.5-.5-.7-.7-.6-.2.1.8 1.1 2.1 3.3 3.1 4.2.4.4-.8-1.2-.7-1.8 2.1 1.3 5.2 2.3 7.5 2.8.1-.1.1-.3.2-.4-2.8-.6-5.3-2-7.7-3.7-.2-.3-.7-.1-.9.3z" opacity=".15" fill="#191c3c"/><g class="st41"><path class="st18" d="M266.6 88.4c.5.1.8-.7.4-1.1-.3-.3-.5-.4-.7-.6.1-.1.3-.1.4-.2.2-.1.2-.2.3-.4.3-.2.3-.7-.1-1-1-.7-1.5-1.2-1.8-1.5l-.4 1c0 .1.1.1.1.2-.3.3-.4.8 0 1-.1.1-.2.2-.4.3-.4.2-.4.6-.2.9-.5 0-.9.1-1.2.2l-4.4 5.4c-2.6 4.2-6.6 6.8-7.8 11.4l-.3-.3c-.4-.4-1-.1-1.1.4 0 .4-.3.6-.7.7l-.1.1s-1.4.7-3.8 2.7c1.2 0 2.3.1 3.5.2.5.1.8-.6.5-.9-.1-.2-.2-.3-.3-.4.3.1.7.1 1 .2.4.2.9 0 .9-.5v-.4c.4.5 1.1.3 1.2-.3.5-4.6 4.7-7.7 7.2-11.2 2.3-2.8 3.3-6.4 7.8-5.9zm1.6-12l-2.9 6.8c.3 0 .8.1 1.3.2.4.1.7-.4.6-.8-.4-1.9.4-4.3 1.2-6.4 0 .1-.1.1-.2.2z"/></g><path class="st57" d="M303.1 103.7c.5 0 .9-.3 1.4-.3.5 0 1.4.1 1-.2-.8-.6-1.5-.8-2.4-.8.7-.2 1.4-.4 2-.5.7-.1.5-.4-.2-.3-1.1.1-2.6-.4-3.8.2-.6.2-1.1.4-1.7.7l1.3.8c-.1.2-.2.3-.3.5.1 0-.4 1.5-1.1 2-.4.7-.7 1.5-1.1 2.4 1.5-1.3 3.2-2.3 5-3.2.4-.1 0-1-.1-1.3z"/></g><g id="Layer_17"><path class="st57" d="M588.1 88.7V64.8c0-1.6-1.3-2.8-2.8-2.8h-9.1v.3l1.2 8.4 1.6-.5-.6 1.1-12.6 25-.5 39.9h.2l-3.9 2.5-6.2 2.3c-1.5.8-2.7 2-3.3 3.6l-.3.8h-.6v1.1h23.9v-1.1H574V137h-.3v-.9h.8l.8-30v-3.5L587 86.1l1.1 2.6zm-21.8 49.5h-.4v-2.1h.4v2.1z"/><path class="st3" d="M568.8 132.4h7.5v8.1h-7.5z"/><path transform="rotate(-15.85 613.438 134.678)" class="st3" d="M609.8 130.6h7.5v8.1h-7.5z"/><path class="st11" d="M582.1 69.1l-13.7 27.1-.5 39.9h9.2l.8-33.5 14-20z"/><path class="st60" d="M581 71.3l3.4 6.4.7 14.7 6.8-9.8-9.8-13.5z"/><path class="st11" d="M582.1 69.1l-.4.7 4.2 7.9 10.6 25c.7 1.6 1.7 3.2 2.9 4.5l10.2 28.3 8.1-.9-5.2-22c-.9-4-2.4-8-4.6-11.5-.6-.9-1-1.8-1-2.6l-3.8-23.2.6-2.5c.6-2.2.4-4.6-.5-6.7l-1-2.3-20.1 5.3z"/><path d="M567.1 32.7l-9.2 13.6c-.3.4-.8.7-1.3.8l-16.1 2.1c-.8.1-1.5-.3-1.8-1l-2.8-5.8v-3.8c0-1.1-.9-2-1.9-2v11.3l2.7 3.9c.3.4.7.7 1.2.7l19.8 1.6c.9.1 1.9-.3 2.5-1L577.1 34l-10-1.3z" fill="#e5ac53"/><path transform="rotate(-32.01 567.86 25.576)" class="st3" d="M564.3 21.8h7.3v7.6h-7.3z"/><path class="st57" d="M570.7 21.9l-5.6 6-2.3-3.6 6.2-3.9z"/><path class="st3" d="M559.4 10.4v2.9l.4.8s-.4 2-2.4 2.9c0 0-.4 1.6 1.6 1.5v3.7c0 1.3 1 2.4 2.3 2.4h5.9c1.6 0 3-1 3.5-2.5l2.7-8-1.1-4.6c.1-.2-9.3-3.4-12.9.9z"/><path class="st11" d="M565.4 37.3l2.2-5.4-.8-1.2 7.8-5.1 6.3 2.3c1 .4 1.8 1.1 2.3 2l8.7 17.4c.1.2.2.3.3.4l11 15.9-23.3 7-1.7-12c-.1-.6-.4-1.1-.8-1.6l-11-13.1-1-6.6zm-11 108l.3-.8c.6-1.5 1.8-2.8 3.3-3.6l6.2-2.3 4.2-2.6v2.2l4.8-.1 2-1.1h1.4v8.3h-22.2z"/><path class="st18" d="M553.8 145.3h23.9v1.3h-23.9z"/><path class="st11" d="M599.9 145.7l.3-1.2c.7-1.5.7-1.5 1.8-2.5l5-3.3 3.2-3.2.5 2 4.3-1.1 1.5-1.4 1.2-.3 1.8 7.4-17.3 4.2-2.3-.6z"/><path class="st18" d="M620.8 142.9l-14.8 3.6-1.8-.8 16.3-3.9z"/><path class="st18" d="M599.4 146.5l6.6.1v-1.3h-6.6z"/><path d="M569.5 4.1c-1.1-.2-2.3-.1-3.4.2-.7.2-1.2.7-1.9.9-.8.2-1.7 0-2.5 0-.5 0-1.1 0-1.6.1s-1 .5-1.3 1c-.2.5-.2 1-.1 1.5.1.8 0 1.8.5 2.6.4.7 1.1.8 1.8 1 .3.1.7.2.9.4.9.7.9 2.2 1.9 2.8.6.4 1.6.4 2.1 1 .4.5.3 1.2.4 1.8.1.8.7 1.5 1.5 1.8.2.1.4.1.6.3.1.1.2.3.3.5.3 1.1-.2 2.3.5 3.2.5.6 1.2.6 1.8 1 .8.5.6 1 .6 1.9 0 .7 0 1.4-.2 2-.3.8-1 1.3-1.7 1.9.6-.3 1.3-.5 1.9-.7-.1 1.5-.2 3.1-.5 4.6.9-.5 1.4-1.4 1.9-2.3.3-.6.9-1.2 1.5-1.2.2.5.5 1 .9 1.4.3-.9.8-1.9 1.5-2.6.4.6.8 1.2 1.3 1.7.5.6.9 1.3.7 2 .1-.7.4-1.5.8-2.1 1.7 1.6 3.5 3.2 5.7 3.8.2-1.5-.8-2.8-1.4-4.2-.4-.7-.9-1.7-1-2.5 0-.7.4-1.3.2-2.1-.4-1.4-2.2-2-2.5-3.5-.1-.6.1-1.3-.1-1.9-.2-.7-.8-1.1-1.2-1.6-.6-.8-.7-1.7-.8-2.6-.1-.8-.5-1.1-.8-1.8-.6-1.4 1.1-3.1-.7-4.2-.3-.2-.6-.3-.9-.5-.3-.3-.5-.7-.6-1.1-.4-.9-.9-1.8-1.5-2.7-.2-.3-.4-.6-.7-.8-.3-.2-.7-.2-1-.3-.5-.1-1-.5-1.5-.7-.5.3-.9.1-1.4 0z" fill="#dd931d"/><path class="st63" d="M576.9 36.5c-1.3.6-2.7 1.7-2.3 3.1-1.6.4-1.9 2-3.6 2.9-.3.2-.4.6-.2.8-.3.1-.7.3-1 .4-.3.1-.3.4-.3.6-.6.4-1.1.8-1.5 1.4l.8 1c.5-.7 1-1.9 1.9-2.3.2-.1 1-1 1-1.2.6-.2.7.8.7.2 0-.2 0-.4-.1-.5 1-.9 1.5-1.8 2.6-1.8.4 0 .5-.4.2-.8-.9-1.3 1.2-3.5 1.9-3.8.8-.1.6-.4-.1 0z"/><path class="st3" d="M565.4 37.3l-7.6 10.9c-.3.4-.8.7-1.3.8l-16.1 2.1c-.8.1-1.5-.3-1.8-1l-2.8-5.8v-3.8c0-1.1-.9-2-1.9-2v11.3l2.7 3.9c.3.4.7.7 1.2.7l19.8 1.6c.9.1 1.9-.3 2.5-1L573 41.2l-7.6-3.9z"/><path class="st63" d="M573.7 52.7c.1-.3.2-.7.3-1 .2-.4 0-.7-.3-.9 0-.6-1-.3-.9-.9 0-.3.9-1.6.6-1.7.2-.6-.3-.8-.1-1.3.2-.4.4-1.4.5-1.9.1-.8-.4-.9-.5-.1 0 .3-.1.5-.2.8 0 .1-.1.2-.1.2-.4 1.3-1.3 2.2-2.4 3l.8.9c.1-.1.2-.1.3-.2 0 .1-.1.3-.1.4l2.1 2.7zm8.1 4.1c.3-.4-.2-.1-.7.1-.2.1-.7.2-1.2.2-.7.1-1.5-.2-1.8-.8.4-.1 1.8-1.2 2.2-1.3.8-.2.8-.4 0-.2-1.4.3-2.7.6-4.1 1l1.1 1.4c.3.4.5.8.7 1.3 0 0 .1 0 .1-.1 0 .1-.1.1-.1.2s.1.1.1.2l.5 3.6c.1-.1.2-.2.3-.4.2-.6.4-1.3.6-1.9.1-.4-.1-.6-.4-.7.7-1.1 2-1.5 2.7-2.6z"/><path class="st60" d="M601.7 78.4c1.4.3 2 1.6 2.4 3l-.8-4.8h-.1c-.1 0 .1-.5 0-.8h.1l-.1-.3.4-1.6c-.8.8-2.2 1.2-3.2 1.9-.2.1-.3.3-.3.5-.5.2-1 .3-1.5.5-.6.2.8.7 1.6.6.8 0 .3.5 1.1.5 0 .2.2.4.4.5zm7 24.2c-.1 0-.2-.2-.2-.3-.2-.4-.4-.7-.6-1.1-.3-.1-.5-.5-.4-.6-.2-.4-.4-.8-.5-1.2h-.2s.1 0 .1-.1l.1-.1c0-.2-.1-.4-.1-.6l-.3-1.8c-.2.6-.6 1.1-1.2 1.6-.2.1-.3.2-.3.4-.8.5-1.6.9-2.3 1.4-.7.4.8.4 1.5.1.5-.2 0 .6.5.5 0 .2.2.5.4.5.4.2.9.3 1.3.5-.4.2-.3 1-.8 1.3-.5.3-.9.6-.2.6 1 0 2.3-.2 3.2.2l.9.3c-.3-.6-.6-1.1-.9-1.6zm-32.5-1.9c-.6.2-.6 1.2.1 1.2-1.1.5-2.1 1-3.1 1.6-.6.3.7.3 1.4 0 1-.3 1.6.1 2.5.7-.4 0-.8 0-1.3.1-.8.1-.8 1.2 0 1.2.4 0 .9 0 1.4.1 1 .3.2.1.7.4l.1-2.9c-.1-.2-.3-.3-.5-.4l.6-.3 2.3-3.3c-.1 0-.2.1-.3.2-1 1.1-2.6.9-3.9 1.4z"/><path class="st63" d="M588.8 48.7c1.8-1.4 1.2.1 1.8-.3-.1.2-1 1.2-1.1 1.3-.3.5 1 .2 1.5.1h.1c-.1.1 0 .6-.1.6-.5.4-.1.7.5.6 1.2-.2 2.1-.2 3.2.4l-2.1-3.1c-.2 0-.4-.3-.3-.4l-.1-.2c-.1-.1-.2-.3-.3-.4l-.4-.7c-.2.1-.3-.2-.2-.5l-1.8-3.7c-.1.2-.2.4-.1.7.6 1.1 1 1.9.4 3.1-.5.9-1.3 1.7-2 2.5-.4.4.4.4 1 0z"/><path d="M573.3 141.8c0 .9-.7 1.6-1.6 1.6-.9 0-1.6-.7-1.6-1.6 0-.9.7-1.6 1.6-1.6.9 0 1.6.7 1.6 1.6zm43.7-1.6c0 .9-.7 1.6-1.6 1.6-.9 0-1.6-.7-1.6-1.6 0-.9.7-1.6 1.6-1.6.9 0 1.6.7 1.6 1.6z" fill="#6371c5"/></g><g id="Layer_14"><g id="XMLID_2_"><path id="XMLID_7_" class="st65" d="M365.7 28.3H428c3 0 5.4 2.4 5.4 5.4v48.5s-1.5-1.9-2.5-3c-1.1-1.1-2.4-1.9-3.8-2.5-1.4-.6-3-.9-4.6-.9-1.6 0-3.2.3-4.6.9-1.4.6-2.7 1.5-3.8 2.5-1.1 1.1-1.9 2.4-2.5 3.8-.6 1.4-.9 3-.9 4.6 0 1.6.3 3.2.9 4.6.6 1.4 1.5 2.7 2.5 3.8 1.1 1.1 2.4 1.9 3.8 2.5 1.4.6 3 .9 4.6.9 1.6 0 3.2-.3 4.6-.9 1.4-.6 2.7-1.5 3.8-2.5 1.1-1.1 2.5-3 2.5-3v48.2c0 3-2.4 5.4-5.4 5.4h-62.3c-5.2 0-9.3-4.2-9.3-9.3V37.7c-.1-5.2 4.1-9.4 9.3-9.4z"/><path id="XMLID_3_" class="st65" d="M524.7 146.5h-61.8c-3 0-5.4-2.4-5.4-5.4v-49c-.6 1.4-1.5 2.7-2.5 3.8-1.1 1.1-2.4 1.9-3.8 2.5-1.4.6-3 .9-4.6.9-1.6 0-3.2-.3-4.6-.9-1.4-.6-2.7-1.5-3.8-2.5-1.1-1.1-1.9-2.4-2.5-3.8-.6-1.4-.9-3-.9-4.6 0-1.6.3-3.2.9-4.6.6-1.4 1.5-2.7 2.5-3.8 1.1-1.1 2.4-1.9 3.8-2.5 1.4-.6 3-.9 4.6-.9 1.6 0 3.2.3 4.6.9 1.4.6 2.7 1.5 3.8 2.5 1.1 1.1 1.9 2.4 2.5 3.8V33.6c0-3 2.4-5.4 5.4-5.4h61.8c5.2 0 9.3 4.2 9.3 9.3v99.6c.1 5.2-4.1 9.4-9.3 9.4z"/><path d="M433.3 33.7c0-3-2.4-5.4-5.4-5.4h-3l-68.6 68.6v13.9l77-77v-.1zm-77 24.5v27.4l57.4-57.3h-27.4z" opacity=".1" fill="#fff"/><path d="M534.1 82.6l-63.9 63.9h-7.3c-1.8 0-3.4-.9-4.4-2.3L534 68.7v13.9zm0-25.2V37.5c0-2.1-.7-4.1-1.9-5.6l-74.7 74.7V134l76.6-76.6z" opacity=".19" fill="#fff"/></g></g></svg>