<svg version="1.1" id="Graphics" xmlns="http://www.w3.org/2000/svg" x="0" y="0" viewBox="0 0 383.2 193.4" xml:space="preserve"><style>.st0{fill:#00c9a7}.st2{fill:none;stroke-miterlimit:10;stroke:#1e2022}.st3{fill:#fcd991}.st4{fill:#00c671}.st8{fill:#191c3c}.st10{fill:#377dff}.st11{fill:#dfe2ec}.st13{fill:#de4437}.st14{fill:#eceef4}.st15{fill:#fff}.st18{fill:#ffc107}.st23{fill:#fec55e}.st24{fill:#bf9447}.st25,.st26{opacity:.5;fill:#fff;enable-background:new}.st26{opacity:.3;fill:#191c3c}.st28{fill:#4d5068}.st29{fill:#272834}.st31{opacity:.3}.st32{fill:#231f20}.st37{fill:#575a8f}.st40{fill:#ddb758}.st41{fill:#efdcb4}.st42{fill:#093a66}.st45{fill:#336dc1}.st46{fill:#c6e8f7}.st48{fill:#1e2022}</style><g id="Layer_13_1_"><path class="st0" d="M326.4 174.2c-.1 0-.1.1-.2.1-2.2 1-3.4.9-5.5-.1-2-.9-3.9-2-5.5-3.4-2.1-1.8-3.7-4.3-4-7-.1-.6-.1-1.3.3-1.8.5-.7 1.5-.8 2.3-.5s1.4.9 2 1.5c.3.2.6.5.9.6.3.1.8 0 1-.3.3-.5-.2-1.1-.6-1.4-1-.9-2-1.3-3.1-2.1-1.4-1-2.6-2.1-3.3-3.6-.7-1.5-.9-3.3-.1-4.8.2-.4.6-.9 1-1.1.8-.5 1.7-.5 2.6-.3.9.2 1.7.5 2.6.6 2.1.2 2.9-1.3 2.9-3.2 0-1.3-.4-2.6-.5-3.8-.1-2.3 1-4.7 3.1-5.7s4.9 0 5.7 2.1c.8 2.3-1 5 .2 7.2.4.7 1.3 1.7 2 2.2 1.1.7 2.8-.1 4.1-.1.3 0 .6.1.8.3.2.2.2.4.3.6.3 1.6-.3 3.4-1.5 4.5-1.4 1.3-3.8 1.9-4.4 3.9-.4 1.2-.2 4.3 1.7 4 .7-.1 1.2-.8 1.9-1.1.9-.3 1.9.3 2.3 1.1s.3 1.8-.1 2.7c-.5 1.3-1.6 2.4-2.6 3.5-2.2 2-3.6 4-6.3 5.4z"/><path d="M323.5 145.7v47.6m5.5-39.4l-5.5 5.5-5.5-5.5m11 11.1l-5.5 5.5-5.5-5.5" fill="none" stroke="#191c3c" stroke-miterlimit="10"/><path class="st0" d="M25.9 169.2c-.1 0-.1.1-.2.1-1.9.9-2.9.7-4.7-.1-1.7-.8-3.3-1.7-4.7-2.9-1.8-1.6-3.1-3.7-3.4-6-.1-.5-.1-1.1.3-1.5.4-.6 1.3-.7 2-.4s1.2.8 1.7 1.3c.2.2.5.4.8.5.3.1.7 0 .8-.3.2-.4-.2-.9-.6-1.2-.9-.7-1.7-1.1-2.6-1.8-1.2-.8-2.2-1.8-2.8-3.1-.6-1.3-.8-2.8-.1-4.1.2-.4.5-.7.8-1 .6-.4 1.5-.4 2.2-.2.7.2 1.5.4 2.2.5 1.8.2 2.5-1.1 2.5-2.7 0-1.1-.4-2.2-.4-3.3-.1-1.9.8-4 2.6-4.8 1.8-.8 4.2 0 4.8 1.8.7 2-.9 4.2.2 6.1.3.6 1.1 1.5 1.7 1.8 1 .6 2.4-.1 3.5-.1.3 0 .5 0 .7.2.1.1.2.3.2.5.3 1.4-.2 2.9-1.3 3.8-1.2 1.1-3.2 1.6-3.7 3.3-.3 1-.2 3.7 1.5 3.4.6-.1 1-.7 1.6-.9.7-.3 1.6.2 1.9.9.3.7.2 1.6-.1 2.3-.5 1.1-1.3 2.1-2.2 3-1.8 2-2.9 3.7-5.2 4.9z"/><path class="st2" d="M23.4 144.9v48.2m4.7-41.2l-4.7 4.7-4.7-4.7m9.4 9.5l-4.7 4.7-4.7-4.7"/><path class="st3" d="M41.9 136.6c-.1 0-.2.1-.3.1-3.1 1.5-4.7 1.2-7.7-.2-2.7-1.3-5.4-2.8-7.7-4.8-2.9-2.5-5.1-6-5.6-9.8-.1-.9-.1-1.8.4-2.5.7-1 2.1-1.1 3.2-.7s2 1.3 2.9 2.1c.4.3.8.7 1.3.8.5.1 1.1 0 1.3-.4.4-.7-.3-1.5-.9-2-1.4-1.2-2.8-1.9-4.3-2.9-1.9-1.3-3.6-2.9-4.7-5-1-2.1-1.3-4.6-.2-6.6.3-.6.8-1.2 1.4-1.6 1-.7 2.4-.6 3.6-.4 1.2.3 2.4.7 3.6.9 2.9.3 4.1-1.8 4-4.4 0-1.8-.6-3.6-.7-5.4-.2-3.2 1.4-6.5 4.2-7.9 2.9-1.4 6.9-.1 7.9 2.9 1.1 3.3-1.4 6.9.3 10 .5 1 1.8 2.4 2.8 3 1.6 1 3.9-.2 5.8-.1.4 0 .9.1 1.2.4.2.2.3.5.4.8.4 2.3-.4 4.7-2.1 6.3-1.9 1.8-5.3 2.7-6.1 5.4-.5 1.7-.3 6 2.4 5.5 1-.2 1.7-1.2 2.7-1.5 1.2-.4 2.6.4 3.1 1.6s.4 2.5-.1 3.7c-.7 1.9-2.2 3.4-3.6 4.8-2.8 3.2-4.7 6.1-8.5 7.9z"/><path class="st2" d="M37.8 96.9v95.3m7.7-83.8l-7.7 7.7-7.7-7.7m15.4 15.5l-7.7 7.7-7.7-7.7"/><path class="st3" d="M352.7 148.2c-.1.1-.3.1-.4.2-4.2 2-6.4 1.7-10.4-.2-3.7-1.7-7.3-3.8-10.4-6.5-3.9-3.5-6.9-8.1-7.6-13.3-.1-1.2-.1-2.4.6-3.4.9-1.3 2.9-1.5 4.4-.9s2.7 1.7 3.9 2.8c.5.5 1 .9 1.7 1.1.7.2 1.5 0 1.8-.6.5-.9-.4-2-1.2-2.7-1.9-1.6-3.8-2.6-5.8-4-2.6-1.8-4.9-4-6.3-6.8s-1.7-6.3-.3-9c.4-.8 1.1-1.6 1.9-2.1 1.4-.9 3.3-.9 4.9-.5s3.2 1 4.9 1.2c4 .4 5.5-2.4 5.4-6-.1-2.4-.8-4.8-1-7.3-.2-4.3 1.9-8.9 5.8-10.7 3.9-1.8 9.3-.1 10.7 4 1.5 4.4-1.9 9.4.3 13.6.7 1.4 2.4 3.3 3.8 4.1 2.2 1.3 5.3-.2 7.8-.1.6 0 1.2.1 1.6.5.3.3.4.7.5 1.1.6 3.1-.5 6.4-2.8 8.5-2.6 2.4-7.2 3.6-8.3 7.3-.7 2.3-.4 8.1 3.3 7.5 1.4-.2 2.3-1.6 3.6-2 1.6-.6 3.5.5 4.3 2.1.7 1.6.5 3.4-.1 5.1-1 2.5-3 4.6-4.9 6.6-4 3.9-6.6 7.8-11.7 10.4z"/><path class="st2" d="M347.2 94.2v99.1m10.4-83.4l-10.4 10.4-10.5-10.4m20.9 21l-10.4 10.4-10.5-10.4"/><path class="st4" d="M254.8 193.1c.8.4 0 0 0 0zm-9.1-4.5c-1.4 1.5-3.1 3.3-2.5 3.6 2 1.2 9.2 1.1 11.7.9 17 .8 34.2-6 45.8-18.4-8-5.5-18.7-6.4-28.1-3.7-9.4 2.7-17.6 8.6-24.3 15.6-.5.6-2.1 1.5-2.6 2z"/><path d="M245.7 188.6c.5-.5 2.1-1.4 2.6-1.9 6.8-7 15-12.9 24.3-15.6 4.5-1.3 9.3-1.8 14-1.3-5.4.2-10.8 1.6-15.5 4-8.5 4.3-15.3 11.4-20.5 19.4-2.9 0-6.1-.3-7.3-1-.7-.3 1-2.1 2.4-3.6z" fill="#08492c" opacity=".2"/><path class="st4" d="M247.1 160.3c3.2-2.9 7.5-4.4 11.6-5.6 6.4-1.8 13-3.1 19.6-3.7-3.6 8-6.2 16-12.7 21.9-2.6 2.3-6.8 4.6-9.5 6.8-3.2 2.6-8.3 9.3-10.9 12.6-3 .6-5.3-3.7-6.6-6.7-1.7-3.8.2-9.6 1.5-13.5 1.6-4.4 3.6-8.7 7-11.8z"/><path d="M254.4 179.9c2.3-2.6 6-5.6 8.2-8.3 4.5-5.8 6-12.5 7.6-19.4 2.7-.5 5.4-.8 8.1-1.1-3.6 8-6.2 16-12.7 21.9-2.6 2.3-6.8 4.6-9.5 6.8-1.6 1.2-3.5 3.4-5.5 5.7 1.3-2.3 2.7-4.3 3.8-5.6z" opacity=".08" fill="#f5f7f9"/><path class="st4" d="M246.1 138.8c1.5 7.4 2.9 15 1.6 22.4-.5 3-1.5 5.9-2.4 8.8-1.1 3.8-1.7 6.1-2.7 9.9.8-.5-.8 1.8-1.6 3.1-.9 1.4-2.2 3.2-3.2 1.7-1.2-1.7-2.5-3.6-3-5.6-.6-2.4 0-6.4 0-8.9-.1-6.5-.1-13.1 2.1-19.2 1.8-4.8 5-9.1 9.2-12.2z"/><path class="st8" d="M295.9 176.1c-8.4-.3-16.7 0-24.9 2.3-7.7 2.2-14.7 5.8-21.1 10.7-.3.3-.7-.3-.3-.6 6.4-4.8 13.6-8.5 21.3-10.6 8.3-2.3 16.5-2.5 25-2 .1 0 .1.2 0 .2zm-20.3-22.6c-6.8 3.2-13 7.4-18.4 12.7-5.8 5.7-9.7 12.5-14 19.2-.1.2-.4 0-.3-.2 7.4-13.9 17.9-25.7 32.7-31.9 0 0 .1.1 0 .2zm-29.9-11.8c-4.4 13.2-9.6 25.8-6.6 40 .1.3-.4.4-.5.1-2.8-13.5 1.3-27.9 6.9-40.2.1 0 .2 0 .2.1z"/><path class="st8" d="M289.8 180.8c-.9-.9-1.8-1.9-2.8-2.7s-2.2-1.3-3.3-2c-.1 0 0-.2.1-.2 2.3.9 4.7 2.8 6 4.9.1 0 .1.1 0 0zm-6.8 3.3c-2.4-4.3-5.8-5.5-10.4-6.1-.4 0-.3-.5.1-.5 4.4.7 8.8 2 10.3 6.6.1.1.1.1 0 0zm-8.4.6c-2.7-2.1-5.5-5.3-9.3-4.3-.2.1-.3-.2-.1-.3 3.8-1 6.9 2.1 9.5 4.5.1.1 0 .2-.1.1zm-8.3 4.4c-2.5-3.2-6.2-6.1-10.4-3.9-.2.1-.5-.2-.2-.4 4.2-2.1 8.5.6 10.6 4.3.1 0 0 .1 0 0zm19.3-18.4c-.6 2.7-2.9 4.3-5.1 5.8-.2.1-.3-.2-.1-.3 2.2-1.4 4.3-2.9 5-5.6.1 0 .3 0 .2.1z"/><path class="st8" d="M276.7 171.3c-1 2.6-2.7 4.9-4.7 6.8-.2.2-.4-.1-.2-.2 2.1-1.9 3.5-4.1 4.9-6.6 0-.1 0 0 0 0zm-7.5 3c-.5 1.3-1.1 2.4-1.9 3.5-.6.8-1.6 2.3-2.5 2.6-.1 0-.2 0-.2-.1l-.1-.1c-.1-.1-.1-.3 0-.4 0 0 .1 0 .1-.1h.3l.1.1c.1.1.1.2-.1.2-.3 0 1-1.4 1-1.4.4-.4.8-.8 1.1-1.3.8-1 1.5-2.1 2.1-3.2 0 .1.1.1.1.2zm-6.3 3.2c-1.7 2.8-4.2 5.3-6.8 7.3-.3.2-.7-.2-.4-.4 2.7-2.1 4.8-4.5 7-7.1.1-.1.3.1.2.2zm8.7-15.1c-4.7-.3-8.7-.1-12.9 2.5-.3.2-.5-.3-.3-.4 3.7-2.4 8.9-3.8 13.2-2.3.2 0 .2.2 0 .2zm-7.3 7.8c-2.3 0-4.4-.1-6.7.5-2 .5-3.9 1.2-5.9 1.9-.3.1-.4-.3-.1-.4 3.9-1.5 8.4-3.2 12.7-2.1v.1zm-8.8 6.9c-1.6.1-3.2.2-4.7.5-1.8.3-3 1.2-4.2 2.6-.2.2-.5-.1-.3-.3 1.1-1.3 2.2-2.2 3.9-2.6 1.7-.4 3.5-.5 5.3-.4.1 0 .1.2 0 .2z"/><path class="st8" d="M262 156.9c-.1 1.7-1 3.4-1.7 4.9-.4 1-.8 2.7-2.1 2.9-.1 0-.2-.1-.1-.2 2.2-1.8 2.3-5.3 3.7-7.7.1 0 .2.1.2.1zm-7.1 2.2c-.4 4.7-1.9 9.3-3.5 13.7-.1.2-.4.1-.3-.1 1.7-4.5 2.7-9 3.8-13.6-.2-.1 0-.1 0 0zm-7.6 9.8c0 4-1 8-1.6 11.9 0 .3-.5.2-.5-.1.7-3.9 1.3-7.9 1.9-11.8 0-.1.2-.1.2 0zm-.2-19.7c-2.8 3.2-5.1 6.6-6.9 10.4-.1.3-.6 0-.5-.3 1.8-3.9 4.1-7.4 7.2-10.4.2-.1.4.1.2.3z"/><path class="st8" d="M238 149.9c1.3 3 1.6 6.9 1.8 10.1 0 .3-.4.3-.5 0-.1-1.9-.3-3.7-.6-5.6-.3-1.5-.7-3-.9-4.5 0-.1.2-.1.2 0zm5.2 11.4c-2.1 3.3-3.4 6.5-4.9 10.1 0 .1-.2 0-.2-.1.5-3.6 2.6-7.4 4.9-10.2.1 0 .2.1.2.2zm-5.3 10.3c-.9-2.3-1.7-4.6-3-6.7-.1-.2.2-.3.3-.2 1.3 2 2.5 4.5 2.7 6.9.1 0 0 0 0 0z"/></g><g id="Layer_7_1_"><g id="XMLID_168_"><path id="XMLID_183_" d="M186 193.3H84.7V72.5c0-.6.5-1.2 1.2-1.2h98.9c.6 0 1.2.5 1.2 1.2v120.8z" fill="#f7f7f9"/><path id="XMLID_182_" class="st10" d="M186 86.6V74.9c0-1.9-1.6-3.5-3.5-3.5H88.2c-1.9 0-3.5 1.6-3.5 3.5v11.7H186z"/><path id="XMLID_181_" class="st11" d="M99.3 92.9H172v39.4H99.3z"/><path id="XMLID_180_" opacity=".1" fill="#de4437" d="M103.3 124.4h63.3v2.4h-63.3z"/><path id="XMLID_179_" class="st13" d="M103.3 124.4h35.6v2.4h-35.6z"/><path id="XMLID_178_" class="st14" d="M168.9 140.4h-66.6c-1.7 0-3 1.4-3 3 0 1.7 1.4 3 3 3h66.6c1.7 0 3-1.4 3-3 .1-1.6-1.3-3-3-3z"/><path id="XMLID_177_" class="st14" d="M169.2 153.4h-66.6c-1.7 0-3 1.4-3 3 0 1.7 1.4 3 3 3h66.6c1.7 0 3-1.4 3-3 0-1.7-1.4-3-3-3z"/><path id="XMLID_176_" class="st14" d="M169.4 166.4h-66.6c-1.7 0-3 1.4-3 3 0 1.7 1.4 3 3 3h66.6c1.7 0 3-1.4 3-3 0-1.7-1.3-3-3-3z"/><path id="XMLID_175_" class="st14" d="M169.6 179.4H103c-1.7 0-3 1.4-3 3 0 1.7 1.4 3 3 3h66.6c1.7 0 3-1.4 3-3 .1-1.7-1.3-3-3-3z"/><path id="XMLID_174_" class="st15" d="M96.6 78.9c0 1.1-.9 2-2 2s-2-.9-2-2 .9-2 2-2 2 .9 2 2z"/><path id="XMLID_173_" class="st15" d="M103.3 78.9c0 1.1-.9 2-2 2s-2-.9-2-2 .9-2 2-2 2 .9 2 2z"/><path id="XMLID_172_" class="st15" d="M110.1 78.9c0 1.1-.9 2-2 2s-2-.9-2-2 .9-2 2-2 2 .9 2 2z"/><path id="XMLID_171_" d="M182.5 71.3H178c1.9 0 3.5 1.6 3.5 3.5v118.5h4.5V74.8c0-1.9-1.6-3.5-3.5-3.5z" opacity=".2" fill="#414042"/><circle id="XMLID_170_" class="st10" cx="138.9" cy="125.6" r="2.7"/><path id="XMLID_169_" class="st13" d="M140.4 125.6c0 .8-.7 1.5-1.5 1.5s-1.5-.7-1.5-1.5.7-1.5 1.5-1.5c.9 0 1.5.7 1.5 1.5z"/></g><path d="M186 74.8v-2.3c0-.6-.5-1.2-1.2-1.2H165v12.9c0 2.6 2.1 4.6 4.6 4.6h7.8v27.7c0 19.1-6.2 37.6-17.7 52.9v14.9h-8.3c-1.2 0-2.2 1-2.2 2.2v4.6c0 1.2 1 2.2 2.2 2.2H186V74.8z" opacity=".3" fill="#ffc107"/><g id="XMLID_159_"><path id="XMLID_167_" class="st13" d="M162.6 169.4H245v20.8h-82.4z"/><path id="XMLID_166_" class="st18" d="M245 169.4h-82.4c11.5-15.2 17.7-33.8 17.7-52.9V84.3h46.9v32.2c.1 19.1 6.3 37.7 17.8 52.9z"/><path id="XMLID_165_" fill="#9496a4" d="M171.5 169.4h11.8v20.8h-11.8z"/><path id="XMLID_164_" d="M195.1 84.4h-5.9v32.2c0 19.1-6.2 37.6-17.7 52.9h11.8c11.5-15.2 11.8-33.8 11.8-52.9V84.4z" fill="#f7c66f"/><path id="XMLID_163_" opacity=".3" fill="#231f20" d="M180.3 84.4h46.9v8.8h-46.9z"/><path id="XMLID_162_" class="st18" d="M224.4 43.3v10.8h-13.5V43.3c0-1-.8-1.9-1.9-1.9h-12c-1 0-1.9.8-1.9 1.9v10.8h-13.5V43.3c0-1-.8-1.9-1.9-1.9h-9.9c-1 0-1.9.8-1.9 1.9v40.8c0 2.6 2.1 4.6 4.6 4.6h60.8c2.6 0 4.6-2.1 4.6-4.6V43.3c0-1-.8-1.9-1.9-1.9h-9.9c-.9.1-1.7.9-1.7 1.9z"/><path id="XMLID_161_" d="M253.2 193.3h-98.7c-1.2 0-2.2-1-2.2-2.2v-4.5c0-1.2 1-2.2 2.2-2.2h98.7c1.2 0 2.2 1 2.2 2.2v4.5c0 1.2-1 2.2-2.2 2.2z" fill="#d69d0f"/><path id="XMLID_160_" class="st18" d="M253.2 184.3h-98.8c-1.2 0-2.2 1-2.2 2.2v2.5h103.2v-2.5c0-1.2-1-2.2-2.2-2.2z"/></g><g id="XMLID_155_"><path id="XMLID_158_" class="st23" d="M143.6 171.4h-44c-.3 0-.5-.2-.5-.5v-10.7c0-.3.2-.5.5-.5h44c.3 0 .5.2.5.5v10.7c0 .3-.3.5-.5.5z"/><path class="st24" d="M143.4 169.7H99.8c-.2 0-.5 0-.7-.1v1.4c0 .2.2.4.4.4h44.1c.2 0 .4-.2.4-.4v-1.4c-.1 0-.4.1-.6.1z"/><path id="XMLID_157_" class="st25" d="M122.6 159.7h10.7v11.7h-10.7z"/><path id="XMLID_156_" class="st25" d="M135.3 159.7h2.8v11.7h-2.8z"/></g><g id="XMLID_151_"><path id="XMLID_154_" class="st23" d="M141 182.3H97c-.3 0-.5-.2-.5-.5v-10.7c0-.3.2-.5.5-.5h44c.3 0 .5.2.5.5v10.7c0 .3-.3.5-.5.5z"/><path class="st24" d="M140.8 180.6H97.2c-.2 0-.5 0-.7-.1v1.4c0 .2.2.4.4.4H141c.2 0 .4-.2.4-.4v-1.4c-.1.1-.4.1-.6.1z"/><path id="XMLID_153_" class="st25" d="M120 170.7h10.7v11.7H120z"/><path id="XMLID_152_" class="st25" d="M132.7 170.6h2.8v11.7h-2.8z"/></g><g id="XMLID_810_"><path id="XMLID_814_" class="st23" d="M138.8 193.3h-44c-.3 0-.5-.2-.5-.5v-10.7c0-.3.2-.5.5-.5h44c.3 0 .5.2.5.5v10.7c0 .3-.2.5-.5.5z"/><path class="st24" d="M138.6 191.6H95c-.2 0-.5 0-.7-.1v1.4c0 .2.2.4.4.4h44.1c.2 0 .4-.2.4-.4v-1.4c-.1 0-.3.1-.6.1z"/><path id="XMLID_812_" class="st25" d="M117.9 181.6h10.7v11.7h-10.7z"/><path id="XMLID_811_" class="st25" d="M130.5 181.6h2.8v11.7h-2.8z"/></g><path id="XMLID_147_" class="st10" d="M147 110.2l-12 6.9c-.8.5-1.8-.1-1.8-1.1v-13.9c0-.9 1-1.5 1.8-1.1l12 6.9c.9.7.9 1.8 0 2.3z"/><path class="st26" d="M83.7 67.6c-11.6 0-21 9.4-21 21s9.4 21 21 21 21-9.4 21-21-9.4-21-21-21z"/><g id="XMLID_138_"><path id="XMLID_146_" class="st23" d="M101.7 88.6c0 11.6-9.4 21-21 21s-21-9.4-21-21 9.4-21 21-21 21 9.4 21 21z"/><path id="XMLID_145_" class="st3" d="M99.4 88.6c0 10.3-8.4 18.7-18.7 18.7S62 98.9 62 88.6s8.4-18.7 18.7-18.7 18.7 8.4 18.7 18.7z"/><path id="XMLID_144_" class="st23" d="M97.2 88.6c0 9.1-7.4 16.5-16.5 16.5s-16.5-7.4-16.5-16.5 7.4-16.5 16.5-16.5 16.5 7.4 16.5 16.5z"/><g id="XMLID_139_"><g id="XMLID_142_"><path id="XMLID_143_" class="st8" d="M82.8 97.1h-6.1c-1.4 0-2.6-1.1-2.6-2.6v-1.3h3.6v.2h5c1 0 1.8-.8 1.8-1.8 0-.6-.5-1.1-1.1-1.1h-4.5c-2.6 0-4.8-2.1-4.8-4.8V85c0-3 2.4-5.4 5.4-5.4h6.1c1.4 0 2.6 1.1 2.6 2.6v1.5h-3.6v-.4h-5c-1 0-1.8.8-1.8 1.8v.7c0 .6.5 1.1 1.1 1.1h4.5c2.6 0 4.8 2.1 4.8 4.8 0 2.9-2.4 5.4-5.4 5.4z"/></g><g id="XMLID_140_"><path id="XMLID_141_" class="st8" d="M79.4 77.9H83v21.4h-3.6z"/></g></g></g><path class="st26" d="M139.3 192.8v-10.5h1.6c.2 0 .4-.2.4-.4v-10.5h2.1c.2 0 .4-.2.4-.4v-7.3h-9.1c-.2 0-.4.2-.4.4v2.1c0 .3.2.5.5.5h.4v7.2c0 .1 0 .2.1.4.1.3.3.6.5.8l.2.2 3 2.3c.4.3.4.8 0 1.1l-3 2.3c-.4.3-.7.9-.7 1.4v7.7h-.4c-.3 0-.5.2-.5.5v2.1c0 .2.2.4.4.4h3.8c.5.2.7 0 .7-.3z"/><g id="XMLID_12_"><g id="XMLID_95_"><path id="XMLID_137_" d="M178.4 193.3h-25.9c-3.1 0-5.6-2.5-5.6-5.6v-25.9c0-3.1 2.5-5.6 5.6-5.6h25.9c3.1 0 5.6 2.5 5.6 5.6v25.9c0 3.1-2.5 5.6-5.6 5.6z" fill="#fdfdfe"/><path id="XMLID_136_" class="st10" d="M178.6 156.1h-26.3c-3 0-5.5 2.4-5.5 5.5v5.7H184v-5.7c0-3.1-2.4-5.5-5.4-5.5z"/><g id="XMLID_130_"><path id="XMLID_135_" class="st28" d="M172.4 161.3c0 1.6-1.3 2.8-2.8 2.8-1.6 0-2.8-1.3-2.8-2.8 0-1.6 1.3-2.8 2.8-2.8 1.6 0 2.8 1.3 2.8 2.8z"/><path id="XMLID_131_" class="st29" d="M171.5 161.3c0 1.1-.9 1.9-1.9 1.9-1.1 0-1.9-.9-1.9-1.9 0-1.1.9-1.9 1.9-1.9 1.1 0 1.9.9 1.9 1.9z"/></g><g id="XMLID_127_"><path id="XMLID_129_" class="st28" d="M155.3 161.3c0 1.6-1.3 2.8-2.8 2.8-1.6 0-2.8-1.3-2.8-2.8 0-1.6 1.3-2.8 2.8-2.8s2.8 1.3 2.8 2.8z"/><path id="XMLID_128_" class="st29" d="M154.4 161.3c0 1.1-.9 1.9-1.9 1.9-1.1 0-1.9-.9-1.9-1.9 0-1.1.9-1.9 1.9-1.9s1.9.9 1.9 1.9z"/></g><g id="XMLID_125_"><path id="XMLID_126_" class="st8" d="M169.5 162c-.8 0-1.5-.7-1.5-1.5v-5.1c0-2.7 2-5.1 4.6-5.3 3.1-.3 5.6 2.1 5.6 5.1v.9h-3v-.8c0-1.1-.8-2.1-1.9-2.2-1.3-.1-2.3.9-2.3 2.1v5.4c0 .7-.6 1.4-1.5 1.4z"/></g><g id="XMLID_123_"><path id="XMLID_124_" class="st8" d="M152.4 162c-.8 0-1.5-.7-1.5-1.5v-5.1c0-2.7 2-5.1 4.6-5.3 3.1-.3 5.6 2.1 5.6 5.1v.9h-3v-.8c0-1.1-.8-2.1-1.9-2.2-1.3-.1-2.3.9-2.3 2.1v5.4c0 .7-.7 1.4-1.5 1.4z"/></g><path id="XMLID_114_" d="M178.6 156.1h-2.8c3 0 5.5 2.4 5.5 5.5v26.3c0 3-2.4 5.5-5.5 5.5h2.7c3 0 5.5-2.4 5.5-5.5v-26.3c0-3.1-2.4-5.5-5.4-5.5z" opacity=".3" fill="#8c98a4"/><path id="XMLID_113_" class="st11" d="M165.7 173.7h-2.8c-.3 0-.5-.2-.5-.5v-2.8c0-.3.2-.5.5-.5h2.8c.3 0 .5.2.5.5v2.8c0 .3-.2.5-.5.5z"/><path id="XMLID_112_" class="st11" d="M171.8 173.7H169c-.3 0-.5-.2-.5-.5v-2.8c0-.3.2-.5.5-.5h2.8c.3 0 .5.2.5.5v2.8c0 .3-.2.5-.5.5z"/><path id="XMLID_111_" class="st11" d="M177.9 173.7h-2.8c-.3 0-.5-.2-.5-.5v-2.8c0-.3.2-.5.5-.5h2.8c.3 0 .5.2.5.5v2.8c0 .3-.2.5-.5.5z"/><path id="XMLID_109_" class="st11" d="M153.5 179.2h-2.8c-.3 0-.5-.2-.5-.5v-2.8c0-.3.2-.5.5-.5h2.8c.3 0 .5.2.5.5v2.8c0 .3-.2.5-.5.5z"/><path id="XMLID_78_" class="st11" d="M159.6 179.2h-2.8c-.3 0-.5-.2-.5-.5v-2.8c0-.3.2-.5.5-.5h2.8c.3 0 .5.2.5.5v2.8c0 .3-.2.5-.5.5z"/><path id="XMLID_106_" class="st11" d="M165.7 179.2h-2.8c-.3 0-.5-.2-.5-.5v-2.8c0-.3.2-.5.5-.5h2.8c.3 0 .5.2.5.5v2.8c0 .3-.2.5-.5.5z"/><path id="XMLID_74_" class="st11" d="M171.8 179.2H169c-.3 0-.5-.2-.5-.5v-2.8c0-.3.2-.5.5-.5h2.8c.3 0 .5.2.5.5v2.8c0 .3-.2.5-.5.5z"/><path id="XMLID_104_" class="st11" d="M177.9 179.2h-2.8c-.3 0-.5-.2-.5-.5v-2.8c0-.3.2-.5.5-.5h2.8c.3 0 .5.2.5.5v2.8c0 .3-.2.5-.5.5z"/><path id="XMLID_73_" class="st11" d="M153.5 184.7h-2.8c-.3 0-.5-.2-.5-.5v-2.8c0-.3.2-.5.5-.5h2.8c.3 0 .5.2.5.5v2.8c0 .3-.2.5-.5.5z"/><path id="XMLID_102_" class="st11" d="M159.6 184.7h-2.8c-.3 0-.5-.2-.5-.5v-2.8c0-.3.2-.5.5-.5h2.8c.3 0 .5.2.5.5v2.8c0 .3-.2.5-.5.5z"/><path id="XMLID_101_" class="st11" d="M165.7 184.7h-2.8c-.3 0-.5-.2-.5-.5v-2.8c0-.3.2-.5.5-.5h2.8c.3 0 .5.2.5.5v2.8c0 .3-.2.5-.5.5z"/><path id="XMLID_100_" class="st11" d="M171.8 184.7H169c-.3 0-.5-.2-.5-.5v-2.8c0-.3.2-.5.5-.5h2.8c.3 0 .5.2.5.5v2.8c0 .3-.2.5-.5.5z"/><path id="XMLID_99_" class="st11" d="M177.9 184.7h-2.8c-.3 0-.5-.2-.5-.5v-2.8c0-.3.2-.5.5-.5h2.8c.3 0 .5.2.5.5v2.8c0 .3-.2.5-.5.5z"/><path id="XMLID_98_" class="st11" d="M153.5 190.2h-2.8c-.3 0-.5-.2-.5-.5v-2.8c0-.3.2-.5.5-.5h2.8c.3 0 .5.2.5.5v2.8c0 .3-.2.5-.5.5z"/><path id="XMLID_97_" class="st11" d="M159.6 190.2h-2.8c-.3 0-.5-.2-.5-.5v-2.8c0-.3.2-.5.5-.5h2.8c.3 0 .5.2.5.5v2.8c0 .3-.2.5-.5.5z"/><path id="XMLID_96_" class="st11" d="M165.7 190.2h-2.8c-.3 0-.5-.2-.5-.5v-2.8c0-.3.2-.5.5-.5h2.8c.3 0 .5.2.5.5v2.8c0 .3-.2.5-.5.5z"/></g><g id="XMLID_93_" class="st31"><path id="XMLID_94_" class="st32" d="M153.6 192.9v-2c0-.3-.3-.6-.6-.6h-.2v-7.7c0-.4-.2-.8-.4-1.1l-.3-.3-3-2.3c-.1-.1-.2-.2-.2-.3s-.1-.2-.1-.3c0-.2.1-.4.3-.5l3-2.3.3-.3c.1-.1.2-.2.2-.4.1-.3.2-.5.2-.8v-7.2h.2c.3 0 .6-.3.6-.6v-2c0-.2-.2-.4-.4-.4h-6.4v24.5c0 2.8 2.3 5.1 5.1 5.1h1.3c.2-.1.4-.3.4-.5z"/></g><g id="XMLID_13_"><g id="XMLID_3_"><g id="XMLID_72_"><path id="XMLID_92_" d="M138 191.4v-8.9c0-.5.3-1.1.7-1.4l3-2.3c.4-.3.4-.8 0-1.1l-3-2.3c-.4-.3-.7-.9-.7-1.4v-8.5h13.5v8.5c0 .5-.3 1.1-.7 1.4l-3 2.3c-.4.3-.4.8 0 1.1l3 2.3c.4.3.7.9.7 1.4v8.9H138z" fill="#fbfcfd"/></g><g id="XMLID_70_"><path id="XMLID_71_" d="M140.2 181.1l3-2.3c.4-.3.4-.8 0-1.1l-3-2.3c-.4-.3-.7-.9-.7-1.4v-8.5H138v8.5c0 .5.3 1.1.7 1.4l3 2.3c.4.3.4.8 0 1.1l-3 2.3c-.4.3-.7.9-.7 1.4v8.9h1.5v-8.9c0-.4.3-1.1.7-1.4z" fill="#eceff6"/></g><g id="XMLID_68_" opacity=".39"><path id="XMLID_69_" d="M150.8 175.4c.4-.3.7-.9.7-1.4v-8.5h-1.8v8.5c0 .5-.3 1.1-.7 1.4l-3 2.3c-.4.3-.4.8 0 1.1l3 2.3c.4.3.7.9.7 1.4v8.9h1.8v-8.9c0-.5-.3-1.1-.7-1.4l-3-2.3c-.4-.3-.4-.8 0-1.1l3-2.3z" fill="#f9fafc"/></g><g id="XMLID_62_"><path id="XMLID_63_" class="st23" d="M139.5 190.5h10.3v-4c0-.8-.5-1.6-1.2-2l-3-1.5c-.7-.4-1.5-.3-2.2 0l-2.7 1.5c-.7.4-1.2 1.2-1.2 2v4z"/></g><g id="XMLID_60_" class="st31"><path id="XMLID_61_" class="st32" d="M138 165.5h13.5v2.2H138z"/></g><g id="XMLID_81_"><path id="XMLID_82_" class="st37" d="M151.8 166.7h-14.2c-.3 0-.5-.2-.5-.5v-2c0-.3.2-.5.5-.5h14.2c.3 0 .5.2.5.5v2c0 .3-.2.5-.5.5z"/></g><g id="XMLID_54_"><path id="XMLID_59_" d="M151.9 163.6h-14.5c-.2 0-.4.2-.4.4v.6h15.2v-.6c.1-.2-.1-.4-.3-.4z" fill="#797ba5"/></g><g id="XMLID_50_" class="st31"><path id="XMLID_51_" class="st32" d="M138 189.3h13.5v2H138z"/></g><g id="XMLID_10_"><path id="XMLID_11_" class="st37" d="M151.9 193.3h-14.2c-.3 0-.5-.2-.5-.5v-2c0-.3.2-.5.5-.5h14.2c.3 0 .5.2.5.5v2c0 .3-.3.5-.5.5z"/></g><g id="XMLID_8_"><path id="XMLID_9_" d="M137.1 192.3v.6c0 .2.2.4.4.4H152c.2 0 .4-.2.4-.4v-.6h-15.3z" fill="#41446b"/></g><g id="XMLID_6_"><path id="XMLID_7_" class="st23" d="M144.6 180.8h-.3c-.3 0-.5-.2-.5-.5v-1c0-.3.2-.5.5-.5h.3c.3 0 .5.2.5.5v1c0 .3-.2.5-.5.5z"/></g><g id="XMLID_4_"><path id="XMLID_5_" class="st23" d="M144.6 173.1c-2 0-3.8-.8-5.1-2.2v2c0 .9.5 1.7 1.2 2.1l2.5 1.4c.3.2.5.5.5.9v.6c0 .3.3.6.6.6s.6-.3.6-.6v-.6c0-.4.2-.8.6-.9l2.8-1.4c.8-.4 1.3-1.3 1.3-2.2v-2.1c-1.1 1.5-2.9 2.4-5 2.4z"/></g></g><g id="XMLID_14_"><g id="XMLID_31_"><path id="XMLID_32_" class="st28" d="M158.4 178h-.8c-.2 0-.4-.2-.4-.4s.2-.4.4-.4h.8c.2 0 .4.2.4.4s-.1.4-.4.4z"/></g><g id="XMLID_1_"><path id="XMLID_2_" class="st28" d="M158.9 180.7h-.1l-1.6-.4c-.2-.1-.3-.3-.3-.5.1-.2.3-.3.5-.3l1.6.4c.2.1.3.3.3.5-.1.2-.2.3-.4.3z"/></g><g id="XMLID_27_"><path id="XMLID_28_" class="st28" d="M157.1 182.9c-.1 0-.1 0-.2-.1l-.7-.4c-.2-.1-.3-.3-.1-.5.1-.2.3-.3.5-.1l.7.4c.2.1.3.3.1.5 0 .1-.2.2-.3.2z"/></g><g id="XMLID_25_"><path id="XMLID_26_" class="st28" d="M156.1 185.6c-.1 0-.2 0-.3-.1l-1.2-1.2c-.2-.2-.2-.4 0-.6.2-.2.4-.2.6 0l1.2 1.2c.2.2.2.4 0 .6-.1 0-.2.1-.3.1z"/></g><g id="XMLID_23_"><path id="XMLID_24_" class="st28" d="M153.5 186.5c-.1 0-.3-.1-.3-.2l-.4-.7c-.1-.2 0-.4.1-.5.2-.1.4 0 .5.1l.4.7c.1.2 0 .4-.1.5s-.1.1-.2.1z"/></g><g id="XMLID_21_"><path id="XMLID_22_" class="st28" d="M153.1 170.1c-.1 0-.1 0-.2-.1-.2-.1-.3-.3-.1-.5l.4-.7c.1-.2.3-.3.5-.1.2.1.3.3.1.5l-.4.7c-.1.2-.2.2-.3.2z"/></g><g id="XMLID_19_"><path id="XMLID_20_" class="st28" d="M155 171.6c-.1 0-.2 0-.3-.1-.2-.2-.2-.4 0-.6l1.2-1.2c.2-.2.4-.2.6 0 .2.2.2.4 0 .6l-1.2 1.2c-.1 0-.2.1-.3.1z"/></g><g id="XMLID_17_"><path id="XMLID_18_" class="st28" d="M156.4 173.4c-.1 0-.3-.1-.3-.2-.1-.2 0-.4.1-.5l.7-.4c.2-.1.4 0 .5.1.1.2 0 .4-.1.5l-.7.4c-.1.1-.1.1-.2.1z"/></g><g id="XMLID_15_"><path id="XMLID_16_" class="st28" d="M157.3 175.6c-.2 0-.3-.1-.4-.3-.1-.2.1-.4.3-.5l1.6-.4c.2-.1.4.1.5.3s-.1.4-.3.5l-1.6.4h-.1z"/></g></g></g></g></g><g id="Layer_8_1_"><path transform="rotate(-41.306 272.423 93.37)" class="st40" d="M268.7 87.2h7.5v12.3h-7.5z"/><path class="st26" d="M275.3 90.8l-3.7 7.1-6-6.7 5.6-5z"/><path class="st41" d="M274.8 90.2l-7.2 6.3c-2.2 1.9-5.6 1.7-7.5-.5l-2.4-2.8-1.7.9-.5-5.5c-1.8-.1-3.4-1.1-4.3-2.7l1.3-1.5 5.8-5.1c2.2-1.9 5.5-1.7 7.4.5l9.1 10.4z"/><path class="st40" d="M297.6 178.2l1.8 4.3-3.1 5H307v-3.9l-3.2-6.1zm60.5-.3l3.2 2.9-.5 5.3 8.8-4.4-1.5-3.1-5.1-3.8z"/><path class="st42" d="M301.1 127.1l-19.3 19.4c-.9.9-1.1 2.2-.5 3.3l16.1 31.5 7.8-1.9s-7.2-23.5-11.1-29.3l23.8-15.3-16.8-7.7z"/><path class="st26" d="M301.1 127.1l-3.1 3.2-2 18.6 21.8-14.1z"/><path class="st42" d="M316.3 116.3s7.2 2 10.2 6.9l4 9.5 15.5 19.1s9.6 4.8 19.9 23.3l-6.4 5.7-20.5-20.5-26.4-22.6-10.7-6.2 14.4-15.2z"/><path class="st40" d="M273.5 97l-14 7-25.7 1-3.8-5-3-10.2c-.6 1-.9 2.1-.8 3.3l.7 5.5 1 6.3 2.5 4.1 30.5 2 13.6-5-1-9z"/><path class="st26" d="M302.3 131.1c1 .9 1.6 1.4 1.6 1.5 10.2-.9 14.3-10.4 15.7-15-1.9-.9-3.4-1.3-3.4-1.3l-13.9 14.8z"/><path class="st13" d="M276.1 91.6s6.7-2.7 12.3 1.3c0 0 21.8 20.5 29.3 22.2 0 0-2.8 16.3-16.3 17.5 0 0-5-5-14.5-10.3 0 0-12.8-6.2-16.7-22.3l5.9-8.4z"/><path class="st23" d="M306.2 184.8l-1.6 1.7-4.7.1-2.5-3-4.4 4.6-9.7.7v2.4l1.8 1.5H308v-8.1zm54.8-2.9l-1.7 4.5-2.1 2.4-4.3 1.6v2.1l2.4.8h9l8-8.8-4-6.3-1.2 1v1.8l-2.8 2.3z"/><path class="st26" d="M260.8 111.1l10.2-3.8-2.4-6.1-7.7 2.1-1.4.7-25.7 1-.8-1h-2.2l-3.8-5-.2-.9v.5l1 6.4 2.1 3.4 12.9 1.5zm18.9-13.5l-9.1 3.6c1.3 4.8 3.4 8.6 5.6 11.7l6.9-7.9c2.4-1 2.6-2.2 1.7-4.6h1c-.9-2.6-3.7-3.8-6.1-2.8z"/><path class="st13" d="M283.2 105.4l-11.5 4.5-3.5-8.8 11.5-4.5c2.4-1 5.2.2 6.1 2.7 1 2.4-.2 5.1-2.6 6.1z"/><path class="st40" d="M268.6 102.2l-10.3 2.8h-27.5l-3.8-5-3-10.2c-.6 1-.9 2.1-.8 3.3l.7 5.5.9 5.9c0 .3.2.6.3.9l2.3 3.7 31.7 3.8 12.3-3.8-2.8-6.9z"/><path d="M307.9 191.5l-10.8-4h10.8zm63.9-7.8l-2.8 3-8.2-.2 6.2-2.8 2.9-3z" fill="#424559"/><linearGradient id="SVGID_1_" gradientUnits="userSpaceOnUse" x1="249.79" y1="946.934" x2="276.416" y2="946.934" gradientTransform="translate(0 -865.2)"><stop offset="0" stop-color="#ffc107"/><stop offset="1" stop-color="#dc735c"/></linearGradient><path d="M274.3 82.2c-.2-.2-.4-.5-.5-.7-.7-1-1.2-1.8-1.6-2.9-.2-.6-.4-1.2-.8-1.6-1.3-1.4-3.9-2-5.7-2.4-2.4-.4-4.8-1.9-7.1-1.1-.7.3-1.3.7-2 1.2-1.4 1-2.9 1.9-3.8 3.4-.4.6-.5 1.2-1.1 1.6-.5.4-1.2.6-1.5 1.2-.8 1.2-.3 2.7.1 4 .4 1.2.9 2.5 1.3 3.7.9-.5 1.2-1.5 1.7-2.3.8-1.2 3.7-3.3 5.2-2.7 1 .4 1.3 1.6 2 2.3.8.8 2.1 1.1 2.7 2.1.4.6.5 1.6 1.2 1.8-.3-.1-.4-2.1-.4-2.4 0-.8-.2-1.4-.3-2.2-.1-.5 0-1 .3-1.3.2-.2.5-.2.7-.4.1-.1.2-.2.3-.2.2-.1.5 0 .7.1 1.3.6 1.3 1.7 1.4 3 .2.1.4-.1.6-.2.2-.1.3-.1.5-.1.9-.1 1.8-.2 2.6.4.9.7 1.3 1.5 1.7 2.5.2.4.5.9 1 1.1.2.1.4.1.6.1h1.2c.2 0 .4-.1.5-.2 1.2-.9-.2-2.6 0-3.7.1-.4.3-.7.6-.9-.4-.3-1.2-.4-1.5-.8-.2-.2 0-1.8.3-1.6-.2-.1-.5-.3-.7-.4 0-.1-.1-.2-.2-.4z" fill="url(#SVGID_1_)"/></g><g id="Layer_9"><path class="st26" d="M65.4 103l14 6.6c.4 0 .9.1 1.3.1 1.8 0 3.6-.3 5.2-.7h-.7l-1.5-.1 1.4-1.4c.4-.2.5-.7.3-1.1s-.7-.5-1.1-.3l-2.7 1.4-15.7-9.8-4.1-4.6c-.1-.4-.2-.7-.3-.9 0 0-.6-2.8-1.7-6-.1.8-.2 1.6-.2 2.5.1 5.5 2.3 10.6 5.8 14.3.1.1.1 0 0 0z"/><path class="st40" d="M73.7 180.6h3.5v3.9h-3.5z"/><path transform="rotate(-63.807 40.12 180.522)" class="st40" d="M38.2 178.8h3.9v3.5h-3.9z"/><path class="st45" d="M48 114.8l5.9 12.8 12.3 18.6 5.6 35.7H79l-2.4-33.7-7.4-24.1-1.8-9.3z"/><g class="st31"><path class="st8" d="M51.6 122.6l16.8-2.6.8 4 .9 2.8c-1.9 4.9-3.8 11.7-4 19.2l-12.3-18.5-2.2-4.9z"/></g><path class="st40" d="M40.9 67.1h7.4v8.6h-7.4z"/><path class="st26" d="M40.8 71.9l7.5-2.7v-2.1h-7.5z"/><path class="st46" d="M49.6 71.4l-10 2.5v1.9s-3.9 5.2-3.7 7.9c.2 2.7 10.5 30 12 31h19.4S59.5 94.3 59 92.1c0 0-2.4-11-6.6-14.3 0 0-1.3-2.1-2.5-2.8.1.1-1.1-1.2-.3-3.6z"/><path d="M48.5 95l5.8-7.5-5.3-4.6c-1.8-1.9-4.8-1.9-6.7-.1-1.9 1.8-1.9 4.8-.1 6.7l6.3 5.5z" opacity=".3" fill="#272834"/><path class="st46" d="M49.3 94.1l5.7-7.5-7-5.4c-1.5-1.2-3.7-.9-4.9.7l-1.5 1.9c-1.2 1.5-.9 3.7.7 4.9l7 5.4z"/><path class="st26" d="M61.4 98.8c.8 2.3 1.8 4.8 2.7 7.2l-4.4-2.1-11.2-9 4.3-5.7 8.6 9.6z"/><path class="st40" d="M79.5 110.8l-18.3-8.6-11.2-9 4.3-5.7 9.1 10.2L80 108.1l-.6.8 3.3.1c1.4.1 5.3-.5 6.8 1.1l-6.7.7h-3.3z"/><path class="st45" d="M48 114.8s-1.2 5.7 0 9.4 2.9 5.9 2.9 5.9l-1.7 18.1-12.8 30.9 6.9 2.1 15-27 10.8-31-1.7-8.5-19.4.1z"/><path class="st41" d="M37.9 69h10.7c1.7 0 3-1.4 3-3v-3.5h2.2c.5-3.6-2.9-6.2-3.4-8-.9-2.8 1.2-3.7 1.2-3.7H37.9V69z"/><path class="st48" d="M46.9 113.7h21.4v3H46.9z"/><path class="st40" d="M80.4 109.7l2.2-2.1c.4-.2.5-.7.3-1.1-.2-.4-.7-.5-1.1-.3l-2.9 1.5c-.4.2-.5.7-.3 1.1.3.2 1.4 1.1 1.8.9z"/><path class="st28" d="M72.4 183.3h6.5l2.7 3h5.5c3.5 0 6.7 2 8.3 5.1H72.5l-.1-8.1z"/><path class="st15" d="M73.7 187.3c0 1.1.9 2 2 2s2-.9 2-2-.9-2-2-2-2 .9-2 2z"/><path class="st23" d="M71.6 191.4h24.7v1.9H71.6z"/><path class="st28" d="M36.5 180.2l6 2.5 1.3 3.8 6.5.1c3.2 1.3 4.1 1.4 4.3 4.9H42.5l-9.2-3.9 3.2-7.4z"/><path class="st15" d="M36 184.4c-.4 1 .1 2.2 1.1 2.7 1 .4 2.2-.1 2.7-1.1.4-1-.1-2.2-1.1-2.7-1-.4-2.2.1-2.7 1.1z"/><path class="st23" d="M41.5 191.2H55v1.9H41.5z"/><path transform="rotate(-66.814 37.253 190.234)" class="st23" d="M36.3 185.2h1.9v10.1h-1.9z"/><path class="st48" d="M51.7 62.4c-2.2 0-3.4 1.4-4.9 2.1-.7.3-2.2.7-2.6 0-.6-.9-.1-3.1 0-4.1s.3-3.5.7-4.3c.4-.9 1.3-1.9 2.2-2.3.5-.2 1-.3 1.5-.2.8.1 1.1.4 1.9.1s1.5-1 2-1.7c.3-.4.5-1 .4-1.5-.1-.7-.6-1.2-1.2-1.5-1.4-.8-2.6-.5-4.1 0-.7.2-1.5.3-2-.2-.2-.2-.3-.4-.5-.6-.9-1.1-2.7-1.2-3.7-.3-1 1-1.3 1.7-2.7 2.2-.9.3-2 .7-2.6 1.5-.9 1.4.2 2.1.4 3.4.1.6-.3 1.1-.7 1.6-.6 1-.9 3.7-.7 4.9.1.5.3 1.1.8 1.4 1 .8.9 1.9.9 3.2 0 1-.9 1.5-.9 2.4-.1 1.9 2.8 1.9 3.4.3.8-1.9.1-4.2.2-6.3 0-1.2 1.2-2.6 2.5-1.8.7.5.7 1.3.6 2-.1 1.1-.1 2.2-.1 3.4-.1 1.7-.7 3.9 1.1 5 1.6.9 3 .4 4.7.3.8 0 1.7 0 2.4-.5.9-.6 1.2-1.6 1.6-2.6.2-.7.4-1.4.6-2 .2-.6.4-1.3.4-2-.2-.8-.9-1.9-1.6-1.9z"/></g></svg>