<svg version="1.1" id="Graphics" xmlns="http://www.w3.org/2000/svg" x="0" y="0" viewBox="0 0 439.8 228.5" xml:space="preserve"><style>.st1,.st2{opacity:.5;fill:#377dff;enable-background:new}.st2{opacity:.47}.st3{fill:#00c9a7}.st4{fill:none;stroke:#1e2022;stroke-miterlimit:10}.st5{opacity:.3;fill:#191c3c;enable-background:new}.st6{fill:#00c671}.st8{fill:#191c3c}.st10{fill:#1e2022}.st11{fill:#fff}.st12{fill:#19a0ff}.st13{fill:#e7eaf3}.st14{fill:#fffffe}.st15{fill:#ffc107}.st16{fill:#377dff}.st17{fill:#f5f7f9}.st18{fill:#2d1582}.st19{fill:#f2b0ad}.st20{fill:#196eff}.st21{fill:#4d5068}.st25{fill:#fcd991}.st27{opacity:.3}.st28{fill:#ddb758}.st30{fill:#de4437}.st31{fill:#093a66}.st33{fill:#dfe2ec}.st36{fill:#efdcb4}.st39{fill:#c6e8f7}</style><g id="Layer_6" opacity=".15"><ellipse class="st1" cx="426.6" cy="146.7" rx="10.4" ry="10.4"/><path class="st1" d="M287.7 17.2c0 7.5-6.1 13.5-13.5 13.5-7.5 0-13.5-6.1-13.5-13.5 0-7.5 6.1-13.5 13.5-13.5 7.4-.1 13.5 6 13.5 13.5zM101.8 34.4c0 3.8-3.1 6.9-6.9 6.9S88 38.2 88 34.4s3.1-6.9 6.9-6.9 6.9 3.1 6.9 6.9zm242.3 13.1c0 3.8-3.1 6.9-6.9 6.9s-6.9-3.1-6.9-6.9c0-3.8 3.1-6.9 6.9-6.9s6.9 3.1 6.9 6.9z"/><circle class="st1" cx="179.8" cy="6.9" r="6.9"/><path class="st1" d="M439.8 176.9c0 1.6-1.3 2.8-2.8 2.8-1.6 0-2.8-1.3-2.8-2.8 0-1.6 1.3-2.8 2.8-2.8 1.6-.1 2.8 1.2 2.8 2.8zM329.9 22.7c0 1.2-1 2.1-2.1 2.1-1.2 0-2.1-1-2.1-2.1 0-1.2 1-2.1 2.1-2.1s2.1.9 2.1 2.1z"/><circle class="st1" cx="122.1" cy="6.9" r="2.8"/><path class="st1" d="M25.9 67c0 2-1.6 3.7-3.7 3.7-2 0-3.7-1.6-3.7-3.7 0-2 1.6-3.7 3.7-3.7 2 .1 3.7 1.7 3.7 3.7zm408 34.9c0 2-1.6 3.7-3.7 3.7-2 0-3.7-1.6-3.7-3.7 0-2 1.6-3.7 3.7-3.7s3.7 1.7 3.7 3.7z"/><ellipse class="st1" cx="58.8" cy="55.5" rx="15.6" ry="15.6"/><path class="st1" d="M12 183.3c0 2-1.6 3.7-3.7 3.7-2 0-3.7-1.6-3.7-3.7s1.6-3.7 3.7-3.7c2 0 3.7 1.7 3.7 3.7z"/><circle class="st1" cx="406.7" cy="47.5" r="15.1"/><ellipse class="st1" cx="12" cy="115.2" rx="12" ry="12"/><path class="st2" d="M424.6 227.4c0-28.2-6-55.1-16.8-79.3 3.9-8.1 6.1-17.1 6.1-26.7 0-34-27.5-61.5-61.5-61.5-6.4 0-12.5 1-18.3 2.8-30.2-19.2-66.1-30.4-104.6-30.4-4.8 0-9.6.2-14.3.5-8.4-6.3-18.9-10.1-30.2-10.1-21.4 0-39.7 13.4-46.9 32.3-14.8 7.9-28.5 17.6-40.7 28.8-4-.9-8.1-1.4-12.4-1.4-30.8 0-55.7 24.9-55.7 55.7 0 13.4 4.7 25.7 12.6 35.3-4.9 17.1-7.6 35.2-7.6 53.9l390.3.1z"/><path class="st2" d="M370.1 227c0-78.3-63.4-141.7-141.7-141.7S86.7 148.7 86.7 227h283.4z"/></g><g id="Layer_13"><path class="st3" d="M368.8 202.1c-.1 0-.2.1-.3.1-3 1.4-4.5 1.2-7.4-.2-2.7-1.2-5.2-2.7-7.5-4.6-2.8-2.5-5-5.8-5.4-9.5-.1-.8-.1-1.7.4-2.4.7-.9 2.1-1.1 3.1-.7 1.1.4 1.9 1.2 2.8 2 .4.3.7.7 1.2.8s1 0 1.3-.4c.4-.7-.3-1.5-.9-2-1.4-1.2-2.7-1.8-4.1-2.9-1.8-1.3-3.5-2.9-4.5-4.9s-1.2-4.5-.2-6.5c.3-.6.8-1.2 1.3-1.5 1-.6 2.3-.6 3.5-.4 1.2.3 2.3.7 3.5.8 2.8.3 3.9-1.7 3.9-4.3 0-1.7-.6-3.4-.7-5.2-.2-3.1 1.3-6.4 4.1-7.7 2.8-1.3 6.7-.1 7.7 2.9 1.1 3.2-1.4 6.7.2 9.8.5 1 1.7 2.3 2.7 2.9 1.6 1 3.8-.2 5.6-.1.4 0 .8.1 1.1.4.2.2.3.5.3.8.4 2.2-.4 4.6-2 6.1-1.9 1.7-5.1 2.6-5.9 5.2-.5 1.7-.3 5.8 2.4 5.4 1-.2 1.7-1.1 2.6-1.5 1.2-.4 2.5.4 3 1.5s.4 2.5-.1 3.6c-.7 1.8-2.1 3.3-3.5 4.7-2.7 3.2-4.5 6-8.2 7.8z"/><path class="st4" d="M364.9 163.5V228m7.5-53.3l-7.5 7.5-7.5-7.5m15 15l-7.5 7.5-7.5-7.5"/><path class="st5" d="M380.3 168.7c-.3-.3-.7-.3-1.1-.4-1.8-.1-4 1-5.6.1-.9-.6-2.1-1.9-2.7-2.9-1.2-2.2-.2-4.7 0-7.1-1 0-1.9.4-2.5 1.2-.7.9-.7 2.2-.6 3.4.6 5.2 3.7 9.8 7.6 13.3.3.3.7.6 1 .8.8-.5 1.6-1 2.2-1.5 1.7-1.5 2.5-3.9 2-6.1 0-.3-.1-.6-.3-.8z"/><path class="st3" d="M399.6 182.8c-.1.1-.3.1-.4.2-4.2 2-6.4 1.7-10.4-.2-3.7-1.7-7.3-3.8-10.4-6.5-3.9-3.5-6.9-8.1-7.6-13.3-.1-1.2-.1-2.4.6-3.4.9-1.3 2.9-1.5 4.4-.9s2.7 1.7 3.9 2.8c.5.5 1 .9 1.7 1.1.7.2 1.5 0 1.8-.6.5-.9-.4-2-1.2-2.7-1.9-1.6-3.8-2.6-5.8-4-2.6-1.8-4.9-4-6.3-6.8s-1.7-6.3-.3-9c.4-.8 1.1-1.6 1.9-2.1 1.4-.9 3.3-.9 4.9-.5s3.2 1 4.9 1.2c4 .4 5.5-2.4 5.4-6-.1-2.4-.8-4.8-1-7.3-.2-4.3 1.9-8.9 5.8-10.7 3.9-1.8 9.3-.1 10.7 4 1.5 4.4-1.9 9.4.3 13.6.7 1.4 2.4 3.3 3.8 4.1 2.2 1.3 5.3-.2 7.8-.1.6 0 1.2.1 1.6.5.3.3.4.7.5 1.1.6 3.1-.5 6.4-2.8 8.5-2.6 2.4-7.2 3.6-8.3 7.3-.7 2.3-.4 8.1 3.3 7.5 1.4-.2 2.3-1.6 3.6-2 1.6-.6 3.5.5 4.3 2.1.7 1.6.5 3.4-.1 5.1-1 2.5-3 4.6-4.9 6.6-3.9 4-6.5 7.9-11.7 10.4z"/><path class="st4" d="M394.1 128.9V228m10.5-83.5L394.1 155l-10.4-10.5m20.9 21L394.1 176l-10.4-10.5M21 228h25c0-2.1 1.7-3.8 3.8-3.8s3.8 1.7 3.8 3.8m-1.8-3.4c0-2.1 1.7-3.8 3.8-3.8m383.5 7.2h-25c0-2.1-1.7-3.8-3.8-3.8-2.1 0-3.8 1.7-3.8 3.8m1.7-3.4c0-2.1-1.7-3.8-3.8-3.8-2.1 0-3.8 1.7-3.8 3.8"/><path class="st6" d="M89.5 227.8s-.8.4 0 0zm7.2-7.1c-7.5-7.7-16.5-14.3-26.8-17.2-10.3-3-22.1-2-31 4.1 12.9 13.6 31.9 21.2 50.6 20.2 2.7.2 10.6.3 12.9-1 .6-.4-1.2-2.4-2.8-4-.5-.5-2.4-1.6-2.9-2.1z"/><path class="st8" d="M99.6 222.8c-.5-.5-2.3-1.6-2.8-2.1-7.5-7.7-16.5-14.3-26.8-17.2-5-1.4-10.3-1.9-15.4-1.4 5.9.2 11.9 1.8 17.2 4.5 9.4 4.8 16.8 12.6 22.7 21.4 3.1 0 6.7-.3 8-1.1.5-.5-1.4-2.4-2.9-4.1z" opacity=".2"/><path class="st6" d="M105.6 204.5c1.5 4.3 3.5 10.7 1.7 14.9-1.4 3.3-4 8.1-7.3 7.4-2.8-3.6-8.4-11-12-13.9-3-2.4-7.6-4.9-10.5-7.5-7.2-6.5-10-15.3-14-24.1 7.3.7 14.5 2.1 21.6 4.1 4.6 1.3 9.3 3 12.8 6.2 3.9 3.4 6.1 8.1 7.7 12.9z"/><path d="M90 213.2c-2.5-2.9-6.7-6.2-9-9.2-4.9-6.4-6.6-13.7-8.4-21.5-3-.5-6-.9-9-1.2 4 8.9 6.8 17.6 14 24.1 2.8 2.6 7.5 5.1 10.5 7.5 1.7 1.4 3.9 3.8 6 6.3-1.4-2.3-2.8-4.6-4.1-6z" opacity=".08" fill="#f5f7f9"/><path class="st6" d="M109.3 181.4c2.5 6.7 2.4 14 2.4 21.1 0 2.7.7 7.2 0 9.8-.5 2.2-2 4.3-3.3 6.1-1.2 1.6-2.5-.3-3.6-1.9-.9-1.5-2.6-4.1-1.8-3.5-1.2-4.1-1.9-6.7-3-10.9-1.1-3.2-2.1-6.4-2.7-9.7-1.4-8.2.2-16.5 1.8-24.7 4.6 3.6 8.2 8.4 10.2 13.7z"/><path class="st10" d="M44.2 209c9.3-.3 18.4 0 27.4 2.5 8.5 2.4 16.3 6.5 23.3 11.8.4.3.7-.3.4-.6-7-5.3-15-9.3-23.5-11.7-9.1-2.6-18.2-2.7-27.6-2.2-.2 0-.2.2 0 .2zm22.4-24.9c7.5 3.6 14.4 8.2 20.3 14 6.4 6.3 10.7 13.8 15.5 21.2.1.2.5 0 .3-.2-8.2-15.4-19.8-28.3-36.1-35.2 0 0-.1.1 0 .2zm33-13c4.9 14.5 10.6 28.5 7.3 44.1-.1.3.4.5.5.1 3.1-14.9-1.4-30.8-7.7-44.3-.1-.1-.2 0-.1.1z"/><path class="st10" d="M50.9 214.2c1-1 2-2.1 3.1-2.9 1.2-.9 2.4-1.5 3.7-2.2.1-.1 0-.2-.1-.2-2.6.8-5.3 3-6.7 5.3-.1 0-.1 0 0 0zm7.5 3.7c2.6-4.7 6.4-6.1 11.5-6.7.4 0 .3-.6-.1-.5-4.8.6-9.7 2.1-11.4 7.2-.1 0 0 0 0 0zm9.3.6c3-2.3 6-5.9 10.2-4.8.2.1.3-.3.1-.3-4.2-1.1-7.6 2.4-10.4 5-.1.1 0 .2.1.1zm9.2 4.9c2.8-3.5 6.8-6.7 11.4-4.3.3.1.5-.3.2-.4-4.6-2.4-9.3.6-11.8 4.6 0 .1.1.2.2.1zm-21.4-20.3c.6 3 3.2 4.8 5.6 6.4.2.1.3-.2.2-.3-2.4-1.6-4.8-3.2-5.6-6.1 0-.2-.2-.1-.2 0zm9.9.6c1.1 2.9 3 5.4 5.2 7.5.2.2.5-.1.3-.3-2.4-2.1-4-4.5-5.5-7.2 0 0-.1 0 0 0z"/><path class="st10" d="M73.7 207c.5 1.4 1.2 2.6 2.1 3.8.7.9 1.7 2.5 2.7 2.9.1 0 .2 0 .3-.1l.1-.1c.1-.1.1-.3-.1-.4l-.1-.1c-.1-.1-.2 0-.3 0l-.1.1c-.1.1-.1.2.1.3.4.1-1.1-1.6-1.1-1.6-.4-.5-.8-.9-1.2-1.4-.9-1.1-1.7-2.3-2.3-3.6 0 .1-.1.1-.1.2zm6.9 3.5c1.8 3.1 4.7 5.9 7.5 8.1.3.3.8-.2.5-.5-3-2.3-5.3-5-7.8-7.8-.1 0-.3.1-.2.2zM71 193.9c5.2-.3 9.7-.1 14.2 2.8.3.2.6-.3.3-.5-4-2.6-9.8-4.2-14.6-2.6-.1.1-.1.3.1.3zm8.1 8.6c2.5 0 4.9-.1 7.3.5 2.2.5 4.3 1.3 6.5 2.1.3.1.4-.3.1-.5-4.4-1.6-9.3-3.5-14-2.3 0 .1 0 .2.1.2zm9.6 7.6c1.7.1 3.5.3 5.2.6 2 .4 3.3 1.4 4.6 2.9.2.2.6-.1.4-.4-1.2-1.4-2.4-2.4-4.3-2.9-1.9-.4-3.9-.5-5.9-.4-.1 0-.1.2 0 .2z"/><path class="st10" d="M81.6 187.9c.1 1.9 1.1 3.8 1.8 5.5.5 1.1.9 3 2.3 3.2.1 0 .2-.1.1-.2-2.4-2-2.5-5.9-4.1-8.5.1-.1-.1-.1-.1 0zm7.8 2.3c.5 5.2 2.1 10.3 3.9 15.1.1.2.5.1.4-.1-1.9-4.9-2.9-9.9-4.1-15 0-.1-.2-.1-.2 0zm8.4 10.9c0 4.4 1.1 8.9 1.8 13.2.1.3.6.2.5-.1-.8-4.4-1.4-8.7-2.1-13.1 0-.2-.2-.2-.2 0zm.2-21.8c3.1 3.5 5.6 7.3 7.6 11.5.2.3.7.1.5-.3-2-4.3-4.6-8.1-7.9-11.5-.1-.1-.4.1-.2.3z"/><path class="st10" d="M108 180.1c-1.5 3.3-1.8 7.6-2 11.2 0 .3.5.3.5 0 .1-2.1.3-4.1.7-6.2.3-1.7.8-3.3 1-5 .1-.1-.1-.1-.2 0zm-5.6 12.5c2.3 3.6 3.8 7.2 5.4 11.2 0 .1.2 0 .2-.1-.6-4-2.8-8.2-5.4-11.2-.2-.1-.3 0-.2.1zm5.8 11.4c1-2.6 1.8-5.1 3.3-7.4.1-.2-.2-.4-.3-.2-1.4 2.3-2.8 4.9-3 7.6-.1.1-.1.1 0 0z"/></g><g id="Layer_9"><path class="st11" d="M293 228H152.2V39c0-2.2 1.7-3.9 3.9-3.9h133c2.2 0 3.9 1.7 3.9 3.9v189z"/><path class="st12" d="M293 44H152.2v-5.6c0-2.2 1.7-3.9 3.9-3.9h133c2.2 0 3.9 1.7 3.9 3.9V44z"/><path class="st11" d="M166 39.9c0 .7-.6 1.2-1.2 1.2-.7 0-1.2-.6-1.2-1.2 0-.7.6-1.2 1.2-1.2.6-.1 1.2.5 1.2 1.2zm4.6 0c0 .7-.6 1.2-1.2 1.2-.7 0-1.2-.6-1.2-1.2 0-.7.6-1.2 1.2-1.2.6-.1 1.2.5 1.2 1.2zm4.6 0c0 .7-.6 1.2-1.2 1.2-.7 0-1.2-.6-1.2-1.2 0-.7.6-1.2 1.2-1.2.7-.1 1.2.5 1.2 1.2z"/><path class="st13" d="M217.5 107.6h51.3v13.5h-51.3zm0 79.8h51.3v37.1h-51.3zm-38.3 27.7h31.6v9.4h-31.6zm38.3-71.7h51.3v6.7h-51.3z"/><path class="st14" d="M228.7 145.7h34.5v2.2h-34.5z"/><path class="st15" d="M177.6 60.3h91.2v34.9h-91.2z"/><path class="st16" d="M152.2 44H293v16.3H152.2z"/><path class="st14" d="M192.9 56.9h-12c-.5 0-.9-.4-.9-.9s.4-.9.9-.9h12c.5 0 .9.4.9.9s-.4.9-.9.9zm20 0h-14.5c-.5 0-.9-.4-.9-.9s.4-.9.9-.9h14.5c.5 0 .9.4.9.9s-.4.9-.9.9zm20.1 0h-14.5c-.5 0-.9-.4-.9-.9s.4-.9.9-.9H233c.5 0 .9.4.9.9-.1.5-.5.9-.9.9zm20 0h-14.5c-.5 0-.9-.4-.9-.9s.4-.9.9-.9H253c.5 0 .9.4.9.9s-.4.9-.9.9zm14.9 0h-9.5c-.5 0-.9-.4-.9-.9s.4-.9.9-.9h9.5c.5 0 .9.4.9.9s-.4.9-.9.9z"/><path class="st13" d="M184.7 83.7h23v23h-23z"/><path class="st17" d="M186.8 85.8h18.8v18.8h-18.8z"/><path class="st18" d="M221 111.1h7.8v7.8H221z"/><path class="st19" d="M179.2 146.2h10.4v10.4h-10.4z"/><path class="st13" d="M190.9 146.2h10.4v10.4h-10.4z"/><path class="st16" d="M202.6 146.2H213v10.4h-10.4zm-23.4 11.2h10.4v10.4h-10.4z"/><path class="st18" d="M190.9 157.4h10.4v10.4h-10.4z"/><path class="st15" d="M202.6 157.4H213v10.4h-10.4zm-23.4 11.2h10.4V179h-10.4z"/><path class="st13" d="M190.9 168.6h10.4V179h-10.4z"/><path class="st19" d="M202.6 168.6H213V179h-10.4z"/><path class="st13" d="M210.1 112.5h-30.2c-.4 0-.7-.3-.7-.7 0-.4.3-.7.7-.7h30.2c.4 0 .7.3.7.7 0 .4-.3.7-.7.7z"/><path class="st18" d="M238.4 113.2h-5.2c-.4 0-.7-.3-.7-.7 0-.4.3-.7.7-.7h5.2c.4 0 .7.3.7.7 0 .4-.3.7-.7.7zm9.1 3.5h-14.4c-.4 0-.7-.3-.7-.7 0-.4.3-.7.7-.7h14.4c.4 0 .7.3.7.7 0 .4-.3.7-.7.7z"/><path class="st13" d="M268.1 125.5h-46.6c-.4 0-.7-.3-.7-.7 0-.4.3-.7.7-.7h46.6c.4 0 .7.3.7.7 0 .4-.3.7-.7.7zm-33 3.4h-13.5c-.4 0-.7-.3-.7-.7 0-.4.3-.7.7-.7h13.5c.4 0 .7.3.7.7-.1.4-.4.7-.7.7z"/><path class="st20" d="M226.6 132.8h-5c-.4 0-.7-.3-.7-.7 0-.4.3-.7.7-.7h5c.4 0 .7.3.7.7 0 .4-.4.7-.7.7z"/><path class="st13" d="M217.5 156.1h51.3v13.5h-51.3z"/><path class="st18" d="M221 159.7h7.8v7.8H221zm17.4 2.1h-5.2c-.4 0-.7-.3-.7-.7 0-.4.3-.7.7-.7h5.2c.4 0 .7.3.7.7 0 .3-.3.7-.7.7zm9.1 3.5h-14.4c-.4 0-.7-.3-.7-.7 0-.4.3-.7.7-.7h14.4c.4 0 .7.3.7.7 0 .4-.3.7-.7.7z"/><path class="st13" d="M268.1 174.1h-46.6c-.4 0-.7-.3-.7-.7 0-.4.3-.7.7-.7h46.6c.4 0 .7.3.7.7 0 .4-.3.7-.7.7zm-33 3.4h-13.5c-.4 0-.7-.3-.7-.7 0-.4.3-.7.7-.7h13.5c.4 0 .7.3.7.7-.1.4-.4.7-.7.7z"/><path class="st20" d="M226.6 181.3h-5c-.4 0-.7-.3-.7-.7 0-.4.3-.7.7-.7h5c.4 0 .7.3.7.7 0 .4-.4.7-.7.7z"/><path class="st13" d="M210.1 117.4h-30.2c-.4 0-.7-.3-.7-.7 0-.4.3-.7.7-.7h30.2c.4 0 .7.3.7.7 0 .4-.3.7-.7.7zm0 70.7h-30.2c-.4 0-.7-.3-.7-.7 0-.4.3-.7.7-.7h30.2c.4 0 .7.3.7.7 0 .4-.3.7-.7.7zm0 6.5h-30.2c-.4 0-.7-.3-.7-.7 0-.4.3-.7.7-.7h30.2c.4 0 .7.3.7.7 0 .4-.3.7-.7.7zm0 6.5h-30.2c-.4 0-.7-.3-.7-.7 0-.4.3-.7.7-.7h30.2c.4 0 .7.3.7.7 0 .4-.3.7-.7.7zm-11 6.5h-19.2c-.4 0-.7-.3-.7-.7 0-.4.3-.7.7-.7h19.2c.4 0 .7.3.7.7 0 .4-.3.7-.7.7zm0-85.2h-19.2c-.4 0-.7-.3-.7-.7 0-.4.3-.7.7-.7h19.2c.4 0 .7.3.7.7 0 .4-.3.7-.7.7zm-.5 18h-18.2c-.7 0-1.2-.5-1.2-1.2s.5-1.2 1.2-1.2h18.2c.7 0 1.2.5 1.2 1.2 0 .6-.5 1.2-1.2 1.2z"/><path class="st20" d="M225.8 146.8c0 .9-.7 1.6-1.6 1.6-.9 0-1.6-.7-1.6-1.6 0-.9.7-1.6 1.6-1.6s1.6.7 1.6 1.6z"/><g id="XMLID_2_"><path id="XMLID_45_" class="st21" d="M200.4 99h-9c0-1.2 1-2.2 2.2-2.2h4.5c1.3 0 2.3 1 2.3 2.2z"/><path id="XMLID_44_" d="M198.2 96.8h-4.5c-.6 0-1.2.3-1.6.7.4.4 1 .7 1.6.7h4.5c.6 0 1.2-.3 1.6-.7-.4-.5-1-.7-1.6-.7z" fill="#272834"/><path id="XMLID_43_" class="st17" d="M202.1 104.6h-12.3v-1.4c0-3.4 2.8-6.2 6.2-6.2 3.4 0 6.2 2.8 6.2 6.2l-.1 1.4z"/><path id="XMLID_42_" class="st21" d="M197.5 97.2v7.4h4.6v-1.4c0-2.9-2-5.3-4.6-6z"/><path id="XMLID_41_" class="st21" d="M194.4 97.2v7.4h-4.6v-1.4c0-2.9 2-5.3 4.6-6z"/><path id="XMLID_40_" d="M196 101.1c-.8 0-1.5-.7-1.5-1.5v-3.2h3v3.2c0 .8-.7 1.5-1.5 1.5z" fill="#fedfaa"/><path id="XMLID_39_" d="M195.9 96.4h-1.4v3.2c0 .8.6 1.5 1.4 1.5v-4.7z" fill="#feca71"/><path id="XMLID_38_" class="st25" d="M195.8 87.3c-2 0-3.7 1.6-3.7 3.7v3.4c0 1.2.6 2.3 1.5 2.9.3.9 1.1 1.6 2.1 1.6s1.8-.6 2.1-1.5c1-.7 1.6-1.8 1.6-3.1v-3.4c.1-2-1.5-3.6-3.6-3.6z"/><path id="XMLID_23_" class="st25" d="M192.7 92.4c0 .3-.2.5-.5.5s-.5-.2-.5-.5.2-.5.5-.5.5.2.5.5z"/><path id="XMLID_22_" class="st25" d="M200 92.4c0 .3-.2.5-.5.5s-.5-.2-.5-.5.2-.5.5-.5.5.2.5.5z"/><path id="XMLID_21_" class="st8" d="M196.7 89.9h-4.3c0-2 1.7-3.7 3.7-3.7h4.3c0 2-1.7 3.7-3.7 3.7z"/><path id="XMLID_20_" d="M197.1 86.2v.3c0 1.9-1.5 3.4-3.4 3.4h2c1.9 0 3.4-1.5 3.4-3.4v-.3h-2z" fill="#474963"/><path id="XMLID_4_" class="st11" d="M193.7 103.6c-.1 0-.2-.1-.2-.2v-5.3c0-.1.1-.2.2-.2s.2.1.2.2v5.3c0 .1-.1.2-.2.2z"/><path id="XMLID_3_" class="st11" d="M198.1 103.6c-.1 0-.2-.1-.2-.2v-5.3c0-.1.1-.2.2-.2s.2.1.2.2v5.3c0 .1-.1.2-.2.2z"/></g><path class="st11" d="M277.8 37.6h4.2v.7h-4.2zm0 1.5h4.2v.7h-4.2zm0 1.4h4.2v.7h-4.2zM187 46.8h80.2v2.8H187z"/><path class="st16" d="M334.9 71.7l5.8-3.3v-6.7c0-.5.4-.9.9-.9h67.6c.5 0 .9.4.9.9v21.2c0 .5-.4.9-.9.9h-67.6c-.5 0-.9-.4-.9-.9v-6.7l-5.8-3.3c-.4-.3-.4-.9 0-1.2z"/><path class="st11" d="M358.7 79.5h-12.1c-.7 0-1.2-.5-1.2-1.2V66.2c0-.7.5-1.2 1.2-1.2h12.1c.7 0 1.2.5 1.2 1.2v12.1c0 .7-.5 1.2-1.2 1.2zm43.5-10.6h-35.7c-.8 0-1.4-.6-1.4-1.4 0-.8.6-1.4 1.4-1.4h35.7c.8 0 1.4.6 1.4 1.4 0 .8-.6 1.4-1.4 1.4zm0 5.4h-35.7c-.8 0-1.4-.6-1.4-1.4 0-.8.6-1.4 1.4-1.4h35.7c.8 0 1.4.6 1.4 1.4 0 .8-.6 1.4-1.4 1.4zm-11.9 5.4h-23.8c-.8 0-1.4-.6-1.4-1.4 0-.8.6-1.4 1.4-1.4h23.8c.8 0 1.4.6 1.4 1.4 0 .8-.7 1.4-1.4 1.4z"/><path class="st15" d="M108.4 133.2l-5.8-3.3v-6.7c0-.5-.4-.9-.9-.9H34.1c-.5 0-.9.4-.9.9v21.2c0 .5.4.9.9.9h67.6c.5 0 .9-.4.9-.9v-6.7l5.8-3.3c.5-.4.5-1 0-1.2z"/><path class="st11" d="M84.6 140.9h12.1c.7 0 1.2-.5 1.2-1.2v-12.1c0-.7-.5-1.2-1.2-1.2H84.6c-.7 0-1.2.5-1.2 1.2v12.1c0 .7.6 1.2 1.2 1.2zm-43.5-10.6h35.7c.8 0 1.4-.6 1.4-1.4 0-.8-.6-1.4-1.4-1.4H41.1c-.8 0-1.4.6-1.4 1.4.1.8.7 1.4 1.4 1.4zm0 5.4h35.7c.8 0 1.4-.6 1.4-1.4 0-.8-.6-1.4-1.4-1.4H41.1c-.8 0-1.4.6-1.4 1.4.1.8.7 1.4 1.4 1.4zm12 5.4h23.8c.8 0 1.4-.6 1.4-1.4 0-.8-.6-1.4-1.4-1.4H53.1c-.8 0-1.4.6-1.4 1.4 0 .8.6 1.4 1.4 1.4z"/></g><g id="Layer_8"><g class="st27"><path class="st8" d="M169.9 215.6c0-.1-.1-.3-.2-.4 0 0 0-.1-.1-.1-.3-.6-.9-1.2-1.5-1.4-1.8-1.1-4.5-1.9-5.8-2.2l3.6-.9v-.5l1.8.6c.5.2 1.1-.1 1.3-.6v-.3c.4 0 .8-.3.9-.7.1-.3 0-.6-.1-.8.4 0 .7-.3.8-.7s0-.7-.2-1c.3-.1.5-.3.6-.6.2-.5-.1-1.1-.6-1.3l-.8-.3 7.6-11.4c.1-.2-.1-.4-.3-.4l-17.5 4.7-7.3-8v9.5l.5.3-.5.1V228h9c13-3 8.8-12.4 8.8-12.4z"/></g><g class="st27"><path class="st8" d="M108.4 218.5c1.3-1.8 2.8-4 3.3-6.1.6-2.6 0-7.1 0-9.8.1-7.1.1-14.4-2.3-21l1.3 5.6-.3 5-.3-.1-1.3-11.9c-1.9-4.5-4.9-8.5-8.8-11.6-.3 7.6-.5 24.3 2.9 29.5.6 1 1.7 1.8 3 2.5-3.1-1.4-5.7-2.3-7.4-2.9-.1 0-.3-.1-.4-.1H98c-.1 0-.2-.1-.4-.1h-.1c-.1 0-.2-.1-.3-.1h-.1c-.1 0-.2-.1-.3-.1h-.1c-.1 0-.1 0-.2-.1h-.4c-.2 0-.4 0-.6.1-.1 0-.2 0-.2.1-.1 0-.2.1-.2.1-.5.2-1 .6-1.4 1-.9.9-1.6 2.1-1.9 3.3v.2c-.3 1.2-.3 2.4-.1 3.6.4 2.1 1.4 4.1 2.9 5.7.1.1.1.2.2.2.3.3.6.6 1 .9 1.8 1.5 3.8 3.1 5.5 4.4.2.2.5.4.7.5.3.2.6.4.8.6.3.2.6.4.8.6.2.2.4.3.6.4.1.1.3.2.4.3.2.2.4.3.5.3l-5.8.7c-1.4 0-2.6.9-3.2 2.1-.2.4-.3.9-.3 1.3v.1c0 .2 0 .4.1.6.1.5.3.9.5 1.3.6.9 1.7 1.5 2.9 1.5h2c.1 0 .2 0 .2-.1.1 0 .1 0 .2-.1l.6-.3c.1 0 .1-.1.1-.2v-.2c2.2-1.2 3.8-4.5 4.9-7 0-.1.1-.2.1-.3.4.2.7 0 1-.4zm1.3-16.3v.3c-.5-.3-1.1-.6-1.6-.8 0 0-.1 0-.1-.1h-.1l1.8.6z"/></g><path class="st8" d="M137.5 135.7c.5-1.6-.7-3.2-1.9-4.4-2.4-2.3-5.3-4.1-8.6-4.3-3-.2-6.7 1.8-8.7 4-1.2 1.3-2.1 2.9-3 4.4-.8 1.3-1.2 2.8-1.3 4.4-.1 1.8.7 3.7 0 5.5-.2.5-.6 1-.8 1.6-.5 1.2-.1 2.6.2 3.9.1.5.3 1 .3 1.4 0 .8-.4 1.6-.6 2.3-.5 1.8.2 4.1 1.9 4.9.6.3 1.3.3 2 .3.2 0 .5 0 .7-.1.6-.3.6-1.2 1-1.9.4-.8 1.5-1 2.4-1s1.9.1 2.7-.3c2.2-1.1 1.7-4.8 3.7-6.1.9-.6 2.1-.6 2.9-1.3 1-.8 1.1-2.2 1.6-3.3.5-1 1.2-1.8 1.9-2.6 1.7-2.1 2.9-4.7 3.4-7.3"/><path class="st28" d="M132.3 173.3l-13.4-1.4-5-14.6 4.1-1.6 9.4.2 6.1 1.4z"/><path fill="#09324c" d="M112.6 201h30.9v18.6h-30.9z"/><path class="st30" d="M128.5 156.2s5.7 1.3 7.7 2c0 0 6.2.6 8.1 8.9l4.8 21.6 10.1 11-3.9 3-12.9-8.8c-.7-.5-1.3-1.3-1.5-2.1l-3.6-14 .2 11.5s8.1 11.8 5.7 15.8l-31-1.7.9-16.1-3.5-15.6 2.1-13.4 6.4-2.4s-1.5 8.6 6.4 9.7c-.1-.1 6.9-2 4-9.4z"/><g class="st27"><path class="st8" d="M137.4 184.2l-.1-6.4c-1.6 2.6-2.5 8-4.2 10.4-.3.4-.6.8-.7 1.2-.3 1 .2 2.1.9 2.9.7.8 1.7 1.3 2.6 1.9 1.8 1.3 3.4 3 4.5 4.9.8 1.4 2.5 4.2 1.7 5.8h1.1c2.5-4-5.7-15.8-5.7-15.8l-.1-4.9z"/></g><path class="st5" d="M145.5 193.9c-.7-.5-1.3-1.3-1.5-2.1l-6.7-14 2 7.8 1.6 6.2c.2.9.8 1.6 1.5 2.1l12.9 8.8.7-.6-10.5-8.2z"/><path class="st31" d="M107.6 219.6s-5.3-3.8-9.4-7.3c-3.1-2.7-4.4-6.5-3.9-10.6v-.1s1.8-4.6 4.4-4.6c0 0 15.9 4.1 27.5 15.4l19.6 6.4-36.2 4.6-2-3.8z"/><path d="M110.5 220.2c-.4-.7-.8-1.4-1.5-1.8-.4-.3-.9-.4-1.3-.6-1.3-.8-1.8-2.5-2.8-3.6-.9-1-2.1-1.5-2.9-2.5-.7-.9-1.1-2-1.6-3l-1.2-3c-.4-1-.8-2.1-.8-3.2 0-.7 1.1-5.2 2.3-4.8l-2.1-.6c-.9 0-1.7.6-2.5 1.3-1.8 1.9-2.6 4.6-2 7.1.5 2.7 1.9 5.1 4 6.9 4.1 3.5 9.4 7.3 9.4 7.3l1.9 3.9 3.6-.5c-.6-1.2-1.8-1.4-2.5-2.6.1-.1.1-.2 0-.3z" opacity=".07" fill="#f7f9fa"/><path class="st5" d="M115.1 221.5v1.2l30.7-3.9-9.2-3-6.1-1.7z"/><path class="st31" d="M159.2 211.2s7.6 1.6 8.3 4.4c0 0 4.2 9.4-8.8 12.4h-39.3v-6.5l18.7-5 21.1-5.3z"/><path class="st5" d="M167.4 215.6c-.2-.8-1.3-2-2-2 0 .9.5 1.7.5 2.6 0 1.2-.6 2.4-1.4 3.3-1.2 1.3-2.9 2.1-4.5 2.9-1 .5-2 .9-3 1.4-.9.4-1.8.8-2.8 1.1-3.2.8-6.6-.2-9.8.4-2 .4-4 .5-6 .7-1.6.1-19.1 1.2-19.1.9v1.2h39.3c13-3.1 8.8-12.5 8.8-12.5z"/><path class="st28" d="M119.4 221.5l-2.5-1.9c-.8-.6-1.8-.9-2.8-.8l-12.3 1.4c-1.9 0-3.4 1.5-3.4 3.4v.1c0 1.9 1.5 3.4 3.4 3.4h17.6v-5.6z"/><path class="st8" d="M116.9 219.6c-.8-.6-1.8-.9-2.8-.8l-12.3 1.4c-1.9 0-3.4 1.5-3.4 3.4v.1c0 .4.1.8.2 1.1.5-1.3 1.7-2.3 3.2-2.3l12.3-1.4c1-.1 2 .2 2.8.8l2.5 1.9v-2.3l-2.5-1.9z"/><path class="st8" d="M105.3 222.6v-.1c0-1 .4-2 .9-2.8l-4.5.5c-1.9 0-3.4 1.5-3.4 3.4v.1c0 1.9 1.5 3.4 3.4 3.4h8.1c-2.4.1-4.5-2-4.5-4.5z"/><path class="st17" d="M120.7 210.9l24.9-6.4 8.8 7.9-16.3 4.1z"/><path class="st33" d="M124.7 210.9l22.9-5.9 6.8 7-13.3 3.3z"/><path d="M138.5 215.7l-17.9-4.7v.3c0 .5.3.9.8 1.1l15.3 4.7c.4.1.9 0 1.2-.4l.6-1z" fill="#d8d7d6"/><path fill="#bebcba" d="M137.1 217.1l26.4-6.6v-1.1l-25 6.3z"/><path class="st28" d="M130.5 201l6.3 1.5c.2.1.5.2.7.3l3.1 2.3c.5.4.9.9 1.1 1.4l1 1.7.5 3.3c-.6.5-1.4.1-1.5-.6l-.1-1.8c-.3-.6-1.6-1.9-2.2-2l-1.8-.4 1.4 2.4c.4.6-.1 1.4-.8 1.4l-3.5-4.2-6.2-2.5 2-2.8z"/><path class="st17" d="M138.1 216l9.1-15.9c0-.1.1-.1.1-.1l27.1-7.3c.2-.1.4.2.3.4L163.4 210c0 .1-.1.1-.2.1l-24.9 6.2c-.1.1-.3-.1-.2-.3z"/><path class="st33" d="M158.4 205c-.5 1.1-1.5 2-2.4 2-.8 0-1.1-.9-.7-2 .5-1.1 1.5-2 2.4-2 .9 0 1.2.9.7 2z"/><path class="st5" d="M112.6 202.6c-2.7-1.4-5.3-2.6-7.4-3.4.1.1.1.3.2.4 4.1 6.2 24.3 5.9 24.3 5.9l1.3-2.8-1.7-1.7h-16.7v1.6z"/><path class="st30" d="M114.9 156.9s-7.7 2.9-8.7 3.4c-.4.2-3.5 1.3-3.6 4.9-.1 3.6-1.3 26.6 2.8 32.8 4.1 6.2 24.4 7 24.4 7l2.2-4.4-19.4-8.5-2.2-20.1 4.5-15.1z"/><path class="st5" d="M112.5 192.1l-2.1-20.2-.3 1.2.9 19.8 20.3 9 .6-1.3z"/><path class="st28" d="M167.3 206.5l-3.1-1c-.5-.2-.8-.7-.6-1.3.2-.5.7-.8 1.3-.6l3.1 1c.5.2.8.7.6 1.3-.2.5-.7.8-1.3.6z"/><path class="st28" d="M167 208.2l-3.6-1.2c-.5-.2-.8-.7-.6-1.3.2-.5.7-.8 1.3-.6l3.6 1.2c.5.2.8.7.6 1.3-.2.4-.8.7-1.3.6z"/><path class="st28" d="M166.3 209.6l-2.9-1c-.5-.2-.8-.7-.6-1.3.2-.5.7-.8 1.3-.6l2.9 1c.5.2.8.7.6 1.3-.2.5-.8.8-1.3.6z"/><path class="st28" d="M165.3 210.6l-1.8-.6c-.5-.2-.8-.7-.6-1.3.2-.5.7-.8 1.3-.6l1.8.6c.5.2.8.7.6 1.3-.2.5-.8.8-1.3.6zm-25.7-1.7l-.3-2.6 1.3-.1.4 3.9c-.7.1-1.3-.5-1.4-1.2zm-19.7-57h7.7v10h-7.7z"/><path class="st5" d="M127.6 155.5l-7.7 1.9v-5.5h7.7z"/><path class="st36" d="M138.3 139.3l-.9-4.9c-2 .8-4.2 1.3-6.3 1.5-.7.1-1.4.1-2.1.3-1.5.5-2.5 1.7-3 3.1-.4 1.1.1 3.5-1.4 3.7-.7.1-1.3-.3-1.7-.9-.4-.5-.8-1.1-1.2-1.6-1.2-1.1-2.7-.4-2.8 1.2-.1.9.3 1.9 1 2.5.7.7 1.8 1 2.1 1.9.2.4.2.7.2 1.1.1 1.3.5 2.6 1.2 3.8 1.1 1.7 2.9 2.7 4.6 3.6 2 1.1 4 1.7 4.9-.8.7-2 3.1-2.9 3.9-4.9.4-1 0-2 0-3.1 0-2.4 1.6-4 1.5-6.5z"/><path class="st8" d="M136.7 145.9c.1-2.4 1.7-4.1 1.6-6.6l-.9-4.9c-.4.1-.7.3-1.1.4l.8 4.5c.1 2.5-1.5 4.2-1.6 6.6-.1 1.1.4 2 0 3.1-.7 2-3.1 2.9-3.9 4.9-.4 1-.9 1.5-1.6 1.7 1.2.2 2.2-.1 2.7-1.7.7-2 3.1-2.9 3.9-4.9.4-1.1 0-2 .1-3.1z" opacity=".1"/><path class="st8" d="M114.5 145c.9.1 1.5 1.1 1.5 2s-.3 1.8-.5 2.7-.3 1.9.2 2.6c.4.6 1.2 1 1.5 1.7.6 1.3-.9 2.7-1.1 4.1-.2 2.2 2.9 3.8 2.6 6-.1.6-.4 1.2-.4 1.8.1 1.1 1.4 2 1.2 3.2-.1.3-.2.6-.1.9.1.2.3.3.6.4.6.2 1.4.4 1.7-.2.4-.7-.6-1.5-.3-2.3 1.1.2 2.2.5 3.3.7.2.1.5.1.7-.1.1-.1.2-.2.2-.4.3-1.3-.9-2.4-1.6-3.6-.1-.2-.2-.3-.2-.5 0-.4.4-.7.8-.8.7-.3 1.4-.8 1.6-1.5.2-.9-.4-1.7-.9-2.5-.8-1.1-1.5-2.5-1.2-3.9.2-.9.9-1.8.8-2.8-.1-1.8-2.4-2.8-2.6-4.6-.1-.4 0-.9 0-1.3-.1-.9-.8-1.8-1.6-2.2-.8-.5-1.8-.7-2.7-.9-.7-.2-1.5-.3-2.2-.2-.7.2-1.4.7-1.4 1.5"/></g><g id="Layer_10"><path class="st5" d="M289.6 220.5l-7.8 2.5c-1.1.4-2 1.2-2.5 2.3v.1c0 1.4 1.2 2.6 2.6 2.6H293v-9.8l-3.4 2.3zm-9.7-107.3v.6c0 .6.2 1.3.6 1.8l.3.3c.2.3.4.6.4 1 .1.6.4 1.1.9 1.4l1.9 1.1c.2.1.4.2.7.2h2.9l2.1-.6 3.3.5v-6l-3.9.3-.6-1.3c-.5-1-1.5-1.7-2.7-1.8l-6-.3-7.2-7.2c-.2-.2-.6-.2-.8 0-.2.2-.2.6 0 .8l6.5 6.5c-.2.2-.4.4-.4.7 0 .4.3.8.8.8l1.2.1.9.9v.1l-.9.1z"/><path class="st8" d="M289 117.8c-.3.3-.6.3-.8 0l-13.9-13.9c-.2-.2-.2-.6 0-.8.2-.2.6-.2.8 0L289 117c.3.2.3.6 0 .8z"/><path transform="rotate(-23.695 323.947 79.96)" class="st28" d="M319.6 75.5h8.7v9h-8.7z"/><path class="st5" d="M326.4 74.9l-5.8 8.4-2.5-5.7 8-3.5z"/><path class="st36" d="M326.5 75.1l-9.9 8.1c-2.2 1-4.8.2-6-1.9l-1.1-1.9-1.3.5c-.6.2-1.2-.1-1.2-.7l-.5-4.3c-.1-.4 0-.9.2-1.3l.9-1.6-1.7-3.8c-.2-.4 0-2.6.3-2.8l14.1-4.4 6.2 14.1z"/><path class="st28" d="M308.2 222.9h-12.9l4.6-3.3 1.1-3h7.2zm40-6l-11.2 5.6 2.2-5.2-.7-3.1 6.1-3.9z"/><path class="st12" d="M325 143.1s.9 29.5 0 31.2c0 0 14 17.1 20.8 37.2l-7.2 4-25.8-37.6 5-34.7 7.2-.1z"/><path class="st5" d="M317.2 179.9s6.3-28.3 6.4-30.4c0-.6.7-1.2 1.5-2-.1-2.7-.1-4.4-.1-4.4h-7.1l-5 34.7 9.3 13.5c-.1-1.7-4.9-10.2-5-11.4z"/><path class="st12" d="M304.5 139.6l-1.5 39.8-2.9 38.9h8.7s7.8-28.2 6.3-38.4c0 0 6.3-28.3 6.4-30.4.2-2.1 7.8-5 6.9-10.5l-5.6-4.9-17.1 1.8-1.2 3.7z"/><path d="M307.1 139.6l1.2-3.7 14.8-1.6-.3-.2-17.1 1.8-1.2 3.7-1.5 39.8-2.9 38.9h2.6c.2-3.1.4-6.1.4-9.2 0-2.5.5-4.9.4-7.4 0-1.6-.3-3.3-.2-4.9.2-1.8 1-3.8 1.4-5.6.5-2 1-4 1.2-6 .2-2.5-.3-5.1-.6-7.6-.3-3.1-.4-6.3-.4-9.4 0-2.1.5-3.8.8-5.7.4-2.3.1-4.8.2-7.1.2-3.4.8-6.7 1-10 .1-1.7-.3-4.1.2-5.8z" opacity=".09" fill="#f7f9fa"/><path class="st28" d="M333 100.9l5.4 9.1c.9 1.5.6 3.5-.7 4.7l-8.9 8.2-4.5-5.7 8.7-16.3z"/><path class="st5" d="M328.4 138.9l-5.6-4.9-17.1 1.8-1.2 3.7-.1.5c9.5-2 19.5 3.2 23.4 2.3.5-.9.8-2.1.6-3.4zm4.6-38l-8.7 16.2 4.5 5.7 2.9-2.6c1.4-6.9 3.4-15.1 3.4-15.1.1-.2.1-.3.2-.5l-2.3-3.7z"/><path class="st39" d="M328.8 79.7s.7 1.6 1.7 2.4c1 .9 6.4 6.3 6.1 10.4 0 0 .9 2.4-3.1 12.5 0 0-5.2 21.4-4.7 24 .5 2.6 2.8 12.5 2.8 12.5s-14.9-6.3-30.3-1.7c0 0 3.4-19.2 3.7-22.8 0 0 7.8-26.2 12.8-30.3l11-7z"/><path class="st11" d="M329.3 80.3l-.7-3.1s-9 4.2-10.4 7.3l-.9 5.4c0-.1 7.2-8.4 12-9.6z"/><path class="st8" d="M348 214.4l2.6 4.9c.5 1 0 2.2-1 2.5l-16.2 5.5h-7.3s-.8-.7-1-1.7l8.4-3.9 3.8-5.2 3.5 2.5 5-1.7 2.2-2.9z"/><path class="st11" d="M350.8 218.7l.8 1.4c.3.5.1 1.2-.5 1.5l-15.9 6.3h-7.8c-1.3 0-2.3-1.1-2.3-2.3h11l14.7-6.9z"/><path class="st8" d="M309.3 218.9v5.7c0 1.1-.9 1.9-1.9 1.9h-18l-7.6-1.3c.4-1.1 1.3-1.9 2.5-2.3l7.8-2.5 5.9-3.8 2.2 4.7h6.5l2.6-2.4z"/><path class="st11" d="M307.7 228h-23.3c-1.4 0-2.6-1.2-2.6-2.6v-.1h28v.7c0 1-.9 2-2.1 2z"/><path d="M292.7 220.1l.7 1.3m1-2.4l.7 1.3m-.7-1.3l.7 1.3m1-2.4l.7 1.3M334 221l1.2.7m.2-2.6l1.1.8m.2-2.6l1.2.8" fill="none" stroke="#fff" stroke-miterlimit="10"/><path d="M305.3 59.9c.1 0 .1-.1 0 0 .4-.2.9-.3 1.2-.6.3-.2.5-.6.7-.8.4-.5 1.1-.8 1.5-1.2.7-.5 1.2-.9 2.1-1.1.9-.1 1.9 0 2.8-.1 1.6-.2 3.3-1.1 4.8-.6 1.1.4 1.8 1.4 2.5 2.4 1.3 2 2.7 4 3.6 6.2.8 2 .7 4.4.9 6.6.1.5.1 1.1-.1 1.6-.2.6-.7 1.1-.6 1.8-.1-.7-1.2-1.9-1.5-2.6-.4-.8-.6-1.4-1.5-1.7-.4-.1-1-.1-1.3-.5-.2-.2-.3-.5-.4-.7-.2-.5-.3-.9-.7-1.3-.3-.4-.8-.6-1.3-.6-.2 0-.4.1-.5.2s-.1.2-.2.2c-.2.2-.5.2-.7.3-1.1.5-.1 2.2-.1 3 0 .9-.5 2-1.4 2.2-.2-.7-.4-1.4-.8-2.1-.7-1.3-2-2.2-3.2-3-.6-.4-1.2-.8-1.8-1.3-.4-.3-.7-.5-1.2-.5-.6 0-1 .5-1.3.9-.9 1.5-2.8 3.2-4.6 1.7-.7-.6-1-1.6-1-2.5 0-1.4.7-2 1.4-3 .9-1.3 1.3-2.3 2.7-2.9z" fill="#fec55e"/><path class="st5" d="M317.5 123.6l8.2-14.5-7.5-3.2-3.6 6.4-8.2.6c-.8 2.5-1.3 4.1-1.3 4.1-.1.8-.3 2.6-.6 4.7l13 1.9z"/><path d="M336.6 92.6c.3-4.2-5-9.6-6.1-10.4-1-.9-1.7-2.4-1.7-2.4l-1.1.7c0 .7.2 1.5.4 2.2.3.9.6 2 .1 2.9-.7 1.5-2.8 1.6-3.8 2.9s-.5 3.3.1 4.8c1.1 2.9 2.4 6.1 1.3 9-.3.7-.7 1.4-.8 2.1-.3 2.2 1.9 4 1.9 6.2s-2.2 3.8-2.9 5.9c-.8 2.5.6 5.1.7 7.7 0 2.1-.8 4.2-.7 6.3.1 1.4.6 2.7 1 4 .6 1.8 1.2 3.7 1.7 5.6.9.3 1.7.5 2.4.7 0-.2.1-.3.1-.5.3-1.6.5-3.2.8-4.8-.6-2.6-1.2-5.2-1.4-6.4-.5-2.6 4.7-24 4.7-24 4.2-10.1 3.3-12.5 3.3-12.5z" opacity=".04" fill="#f7f9fa"/><path class="st28" d="M317.9 105.5l-3.4 6.6-22.9 1.6-.6-1.3c-.5-1-1.5-1.7-2.7-1.8l-7.1-.3c-.5 0-.9.4-.9.8s.3.8.8.8l2.2.2-.1.9-.9.2v.6c0 .6.2 1.3.6 1.8l.3.3c.2.3.4.6.4 1 .1.6.4 1.1.9 1.4l1.9 1.1c.2.1.4.2.7.2h2.9l2.1-.6 24.6 3.5 8.9-13.2-7.7-3.8z"/><path class="st5" d="M327.8 111.2l-10.6-6.3 5.7-13.7c1.5-3.4 5.5-4.9 8.9-3.4 3.4 1.5 3.9 5.5 2.3 8.9l-6.3 14.5z"/><path class="st39" d="M326.7 109.6l-10-4.7 5.1-14.2c1.5-3.4 5.5-4.9 8.9-3.4 3.4 1.5 4.9 5.5 3.4 8.9l-7.4 13.4z"/></g><path class="st4" d="M59 228h341.6" id="Layer_12"/></svg>