<svg version="1.1" id="Graphics" xmlns="http://www.w3.org/2000/svg" x="0" y="0" viewBox="0 0 439.8 228.5" xml:space="preserve" enable-background="new 0 0 439.8 228.5"><style>.st1,.st2{enable-background:new}.st1{fill:#377dff;opacity:.5}.st2{opacity:.47}.st2,.st4{fill:#377dff}.st5{fill:#dfe2ec}.st7{fill:#de4437}.st8{fill:#eceef4}.st9{fill:#fff}.st11{fill:#fdfdfe}.st12{fill:#4d5068}.st13{fill:#272834}.st14{fill:#191c3c}.st15{fill:#8c98a4;enable-background:new}.st15,.st16{opacity:.3}.st17{fill:#231f20}.st22{fill:#fec55e}.st23{fill:#575a8f}.st26{opacity:.2;fill:#231f20;enable-background:new}.st29{fill:#9e9e9e}.st30{fill:#c5c5c5}.st31{fill:#8184c4}.st32{opacity:.3;fill:#414042;enable-background:new}.st33{fill:#212121}.st34{fill:#fed17e}.st35{fill:#f1f2f2}.st37{fill:#414042}.st42{fill:#f5f7f9}.st44{fill:#fcd991}.st45{opacity:.3;fill:#231f20;enable-background:new}.st61{fill:none;stroke:#1e2022;stroke-miterlimit:10}.st62{fill:#00c671}.st65{fill:#1e2022}.st67{fill:#ddb758}.st69{opacity:.3;fill:#191c3c;enable-background:new}.st70{fill:#093a66}.st74{fill:#efdcb4}.st76{fill:#27333d}.st78{fill:#efe68f}</style><g id="Layer_6" opacity=".15"><ellipse class="st1" cx="426.6" cy="146.7" rx="10.4" ry="10.4"/><path class="st1" d="M287.7 17.2c0 7.5-6.1 13.5-13.5 13.5-7.5 0-13.5-6.1-13.5-13.5 0-7.5 6.1-13.5 13.5-13.5 7.4-.1 13.5 6 13.5 13.5zM101.8 34.4c0 3.8-3.1 6.9-6.9 6.9S88 38.2 88 34.4s3.1-6.9 6.9-6.9 6.9 3.1 6.9 6.9zm242.3 13.1c0 3.8-3.1 6.9-6.9 6.9s-6.9-3.1-6.9-6.9c0-3.8 3.1-6.9 6.9-6.9s6.9 3.1 6.9 6.9z"/><circle class="st1" cx="179.8" cy="6.9" r="6.9"/><path class="st1" d="M439.8 176.9c0 1.6-1.3 2.8-2.8 2.8-1.6 0-2.8-1.3-2.8-2.8 0-1.6 1.3-2.8 2.8-2.8 1.6-.1 2.8 1.2 2.8 2.8zM329.9 22.7c0 1.2-1 2.1-2.1 2.1-1.2 0-2.1-1-2.1-2.1 0-1.2 1-2.1 2.1-2.1s2.1.9 2.1 2.1z"/><circle class="st1" cx="122.1" cy="6.9" r="2.8"/><path class="st1" d="M25.9 67c0 2-1.6 3.7-3.7 3.7-2 0-3.7-1.6-3.7-3.7 0-2 1.6-3.7 3.7-3.7 2 .1 3.7 1.7 3.7 3.7zm408 34.9c0 2-1.6 3.7-3.7 3.7-2 0-3.7-1.6-3.7-3.7 0-2 1.6-3.7 3.7-3.7s3.7 1.7 3.7 3.7z"/><ellipse class="st1" cx="58.8" cy="55.5" rx="15.6" ry="15.6"/><path class="st1" d="M12 183.3c0 2-1.6 3.7-3.7 3.7-2 0-3.7-1.6-3.7-3.7s1.6-3.7 3.7-3.7c2 0 3.7 1.7 3.7 3.7z"/><circle class="st1" cx="406.7" cy="47.5" r="15.1"/><ellipse class="st1" cx="12" cy="115.2" rx="12" ry="12"/><path class="st2" d="M424.6 227.4c0-28.2-6-55.1-16.8-79.3 3.9-8.1 6.1-17.1 6.1-26.7 0-34-27.5-61.5-61.5-61.5-6.4 0-12.5 1-18.3 2.8-30.2-19.2-66.1-30.4-104.6-30.4-4.8 0-9.6.2-14.3.5-8.4-6.3-18.9-10.1-30.2-10.1-21.4 0-39.7 13.4-46.9 32.3-14.8 7.9-28.5 17.6-40.7 28.8-4-.9-8.1-1.4-12.4-1.4-30.8 0-55.7 24.9-55.7 55.7 0 13.4 4.7 25.7 12.6 35.3-4.9 17.1-7.6 35.2-7.6 53.9l390.3.1z"/><path class="st2" d="M370.1 227c0-78.3-63.4-141.7-141.7-141.7S86.7 148.7 86.7 227h283.4z"/></g><g id="Layer_7"><g id="XMLID_145_"><path d="M252.9 227.4H151.6V109.7c0-2 1.6-3.7 3.7-3.7h94.1c1.9 0 3.5 1.6 3.5 3.5v117.9z" fill="#f7f7f9"/><path id="XMLID_159_" class="st4" d="M252.9 121.3v-11.7c0-1.9-1.6-3.5-3.5-3.5h-94.3c-1.9 0-3.5 1.6-3.5 3.5v11.7h101.3z"/><path id="XMLID_158_" class="st5" d="M166.2 127.6h72.7V167h-72.7z"/><path id="XMLID_157_" opacity=".1" fill="#de4437" enable-background="new" d="M170.2 159.1h63.3v2.4h-63.3z"/><path id="XMLID_156_" class="st7" d="M170.2 159.1h35.6v2.4h-35.6z"/><path id="XMLID_155_" class="st8" d="M235.8 175.1h-66.6c-1.7 0-3 1.4-3 3 0 1.7 1.4 3 3 3h66.6c1.7 0 3-1.4 3-3 .1-1.6-1.3-3-3-3z"/><path id="XMLID_154_" class="st8" d="M236.1 188.1h-66.6c-1.7 0-3 1.4-3 3 0 1.7 1.4 3 3 3h66.6c1.7 0 3-1.4 3-3 0-1.7-1.4-3-3-3z"/><path id="XMLID_153_" class="st8" d="M236.3 201.1h-66.6c-1.7 0-3 1.4-3 3 0 1.7 1.4 3 3 3h66.6c1.7 0 3-1.4 3-3 0-1.7-1.3-3-3-3z"/><path id="XMLID_152_" class="st8" d="M236.5 214.1h-66.6c-1.7 0-3 1.4-3 3 0 1.7 1.4 3 3 3h66.6c1.7 0 3-1.4 3-3 .1-1.7-1.3-3-3-3z"/><path id="XMLID_151_" class="st9" d="M163.5 113.6c0 1.1-.9 2-2 2s-2-.9-2-2 .9-2 2-2 2 .9 2 2z"/><path id="XMLID_62_" class="st9" d="M170.2 113.6c0 1.1-.9 2-2 2s-2-.9-2-2 .9-2 2-2 2 .9 2 2z"/><path id="XMLID_61_" class="st9" d="M177 113.6c0 1.1-.9 2-2 2s-2-.9-2-2 .9-2 2-2 2 .9 2 2z"/><path id="XMLID_60_" d="M249.4 106h-4.5c1.9 0 3.5 1.6 3.5 3.5V228h4.5V109.5c0-1.9-1.6-3.5-3.5-3.5z" opacity=".2" fill="#414042" enable-background="new"/><circle id="XMLID_147_" class="st4" cx="205.8" cy="160.3" r="2.7"/><path id="XMLID_146_" class="st7" d="M207.3 160.3c0 .8-.7 1.5-1.5 1.5s-1.5-.7-1.5-1.5.7-1.5 1.5-1.5c.9 0 1.5.7 1.5 1.5z"/></g><path id="XMLID_135_" class="st4" d="M193.9 144.9l-12 6.9c-.8.5-1.8-.1-1.8-1.1v-13.9c0-.9 1-1.5 1.8-1.1l12 6.9c.9.7.9 1.8 0 2.3z"/><g id="XMLID_12_"><g id="XMLID_95_"><path id="XMLID_125_" class="st11" d="M412.3 228h-25.9c-3.1 0-5.6-2.5-5.6-5.6v-25.9c0-3.1 2.5-5.6 5.6-5.6h25.9c3.1 0 5.6 2.5 5.6 5.6v25.9c0 3.1-2.5 5.6-5.6 5.6z"/><path id="XMLID_124_" class="st4" d="M412.5 190.8h-26.3c-3 0-5.5 2.4-5.5 5.5v5.7h37.2v-5.7c0-3.1-2.4-5.5-5.4-5.5z"/><g id="XMLID_47_"><path id="XMLID_123_" class="st12" d="M406.3 196c0 1.6-1.3 2.8-2.8 2.8-1.6 0-2.8-1.3-2.8-2.8 0-1.6 1.3-2.8 2.8-2.8 1.6 0 2.8 1.3 2.8 2.8z"/><path id="XMLID_48_" class="st13" d="M405.4 196c0 1.1-.9 1.9-1.9 1.9-1.1 0-1.9-.9-1.9-1.9 0-1.1.9-1.9 1.9-1.9 1.1 0 1.9.9 1.9 1.9z"/></g><g id="XMLID_44_"><path id="XMLID_46_" class="st12" d="M389.3 196c0 1.6-1.3 2.8-2.8 2.8-1.6 0-2.8-1.3-2.8-2.8 0-1.6 1.3-2.8 2.8-2.8s2.8 1.3 2.8 2.8z"/><path id="XMLID_45_" class="st13" d="M388.3 196c0 1.1-.9 1.9-1.9 1.9-1.1 0-1.9-.9-1.9-1.9 0-1.1.9-1.9 1.9-1.9s1.9.9 1.9 1.9z"/></g><g id="XMLID_10_"><path id="XMLID_11_" class="st14" d="M403.4 196.7c-.8 0-1.5-.7-1.5-1.5v-5.1c0-2.7 2-5.1 4.6-5.3 3.1-.3 5.6 2.1 5.6 5.1v.9h-3v-.8c0-1.1-.8-2.1-1.9-2.2-1.3-.1-2.3.9-2.3 2.1v5.4c0 .7-.6 1.4-1.5 1.4z"/></g><g id="XMLID_114_"><path id="XMLID_9_" class="st14" d="M386.3 196.7c-.8 0-1.5-.7-1.5-1.5v-5.1c0-2.7 2-5.1 4.6-5.3 3.1-.3 5.6 2.1 5.6 5.1v.9h-3v-.8c0-1.1-.8-2.1-1.9-2.2-1.3-.1-2.3.9-2.3 2.1v5.4c0 .7-.7 1.4-1.5 1.4z"/></g><path id="XMLID_113_" class="st15" d="M412.5 190.8h-2.8c3 0 5.5 2.4 5.5 5.5v26.3c0 3-2.4 5.5-5.5 5.5h2.7c3 0 5.5-2.4 5.5-5.5v-26.3c0-3.1-2.4-5.5-5.4-5.5z"/><path id="XMLID_112_" class="st5" d="M399.6 208.4h-2.8c-.3 0-.5-.2-.5-.5v-2.8c0-.3.2-.5.5-.5h2.8c.3 0 .5.2.5.5v2.8c0 .3-.2.5-.5.5z"/><path id="XMLID_111_" class="st5" d="M405.8 208.4H403c-.3 0-.5-.2-.5-.5v-2.8c0-.3.2-.5.5-.5h2.8c.3 0 .5.2.5.5v2.8c0 .3-.3.5-.5.5z"/><path id="XMLID_8_" class="st5" d="M411.8 208.4H409c-.3 0-.5-.2-.5-.5v-2.8c0-.3.2-.5.5-.5h2.8c.3 0 .5.2.5.5v2.8c0 .3-.2.5-.5.5z"/><path id="XMLID_109_" class="st5" d="M387.4 213.9h-2.8c-.3 0-.5-.2-.5-.5v-2.8c0-.3.2-.5.5-.5h2.8c.3 0 .5.2.5.5v2.8c0 .3-.1.5-.5.5z"/><path id="XMLID_7_" class="st5" d="M393.5 213.9h-2.8c-.3 0-.5-.2-.5-.5v-2.8c0-.3.2-.5.5-.5h2.8c.3 0 .5.2.5.5v2.8c0 .3-.2.5-.5.5z"/><path id="XMLID_106_" class="st5" d="M399.6 213.9h-2.8c-.3 0-.5-.2-.5-.5v-2.8c0-.3.2-.5.5-.5h2.8c.3 0 .5.2.5.5v2.8c0 .3-.2.5-.5.5z"/><path id="XMLID_6_" class="st5" d="M405.8 213.9H403c-.3 0-.5-.2-.5-.5v-2.8c0-.3.2-.5.5-.5h2.8c.3 0 .5.2.5.5v2.8c0 .3-.3.5-.5.5z"/><path id="XMLID_104_" class="st5" d="M411.8 213.9H409c-.3 0-.5-.2-.5-.5v-2.8c0-.3.2-.5.5-.5h2.8c.3 0 .5.2.5.5v2.8c0 .3-.2.5-.5.5z"/><path id="XMLID_5_" class="st5" d="M387.4 219.4h-2.8c-.3 0-.5-.2-.5-.5v-2.8c0-.3.2-.5.5-.5h2.8c.3 0 .5.2.5.5v2.8c0 .3-.1.5-.5.5z"/><path id="XMLID_102_" class="st5" d="M393.5 219.4h-2.8c-.3 0-.5-.2-.5-.5v-2.8c0-.3.2-.5.5-.5h2.8c.3 0 .5.2.5.5v2.8c0 .3-.2.5-.5.5z"/><path id="XMLID_101_" class="st5" d="M399.6 219.4h-2.8c-.3 0-.5-.2-.5-.5v-2.8c0-.3.2-.5.5-.5h2.8c.3 0 .5.2.5.5v2.8c0 .3-.2.5-.5.5z"/><path id="XMLID_100_" class="st5" d="M405.8 219.4H403c-.3 0-.5-.2-.5-.5v-2.8c0-.3.2-.5.5-.5h2.8c.3 0 .5.2.5.5v2.8c0 .3-.3.5-.5.5z"/><path id="XMLID_99_" class="st5" d="M411.8 219.4H409c-.3 0-.5-.2-.5-.5v-2.8c0-.3.2-.5.5-.5h2.8c.3 0 .5.2.5.5v2.8c0 .3-.2.5-.5.5z"/><path id="XMLID_98_" class="st5" d="M387.4 224.9h-2.8c-.3 0-.5-.2-.5-.5v-2.8c0-.3.2-.5.5-.5h2.8c.3 0 .5.2.5.5v2.8c0 .3-.1.5-.5.5z"/><path id="XMLID_97_" class="st5" d="M393.5 224.9h-2.8c-.3 0-.5-.2-.5-.5v-2.8c0-.3.2-.5.5-.5h2.8c.3 0 .5.2.5.5v2.8c0 .3-.2.5-.5.5z"/><path id="XMLID_96_" class="st5" d="M399.6 224.9h-2.8c-.3 0-.5-.2-.5-.5v-2.8c0-.3.2-.5.5-.5h2.8c.3 0 .5.2.5.5v2.8c0 .3-.2.5-.5.5z"/></g><g id="XMLID_93_" class="st16"><path id="XMLID_94_" class="st17" d="M387.5 227.6v-2c0-.3-.3-.6-.6-.6h-.2v-7.7c0-.4-.2-.8-.4-1.1l-.3-.3-3-2.3c-.1-.1-.2-.2-.2-.3s-.1-.2-.1-.3c0-.2.1-.4.3-.5l3-2.3.3-.3c.1-.1.2-.2.2-.4.1-.3.2-.5.2-.8v-7.2h.2c.3 0 .6-.3.6-.6v-2c0-.2-.2-.4-.4-.4h-6.4V223c0 2.8 2.3 5.1 5.1 5.1h1.3c.2-.1.4-.3.4-.5z"/></g><g id="XMLID_13_"><g id="XMLID_3_"><g id="XMLID_91_"><path id="XMLID_92_" d="M371.9 226.1v-8.9c0-.5.3-1.1.7-1.4l3-2.3c.4-.3.4-.8 0-1.1l-3-2.3c-.4-.3-.7-.9-.7-1.4v-8.5h13.5v8.5c0 .5-.3 1.1-.7 1.4l-3 2.3c-.4.3-.4.8 0 1.1l3 2.3c.4.3.7.9.7 1.4v8.9h-13.5z" fill="#fbfcfd"/></g><g id="XMLID_89_"><path id="XMLID_90_" d="M374.1 215.8l3-2.3c.4-.3.4-.8 0-1.1l-3-2.3c-.4-.3-.7-.9-.7-1.4v-8.5h-1.5v8.5c0 .5.3 1.1.7 1.4l3 2.3c.4.3.4.8 0 1.1l-3 2.3c-.4.3-.7.9-.7 1.4v8.9h1.5v-8.9c0-.4.4-1.1.7-1.4z" fill="#eceff6"/></g><g id="XMLID_87_" opacity=".39"><path id="XMLID_88_" d="M384.8 210.1c.4-.3.7-.9.7-1.4v-8.5h-1.8v8.5c0 .5-.3 1.1-.7 1.4l-3 2.3c-.4.3-.4.8 0 1.1l3 2.3c.4.3.7.9.7 1.4v8.9h1.8v-8.9c0-.5-.3-1.1-.7-1.4l-3-2.3c-.4-.3-.4-.8 0-1.1l3-2.3z" fill="#f9fafc"/></g><g id="XMLID_85_"><path id="XMLID_86_" class="st22" d="M373.4 225.2h10.3v-4c0-.8-.5-1.6-1.2-2l-3-1.5c-.7-.4-1.5-.3-2.2 0l-2.7 1.5c-.7.4-1.2 1.2-1.2 2v4z"/></g><g id="XMLID_83_" class="st16"><path id="XMLID_84_" class="st17" d="M371.9 200.2h13.5v2.2h-13.5z"/></g><g id="XMLID_81_"><path id="XMLID_82_" class="st23" d="M385.8 201.4h-14.2c-.3 0-.5-.2-.5-.5v-2c0-.3.2-.5.5-.5h14.2c.3 0 .5.2.5.5v2c0 .3-.3.5-.5.5z"/></g><g id="XMLID_79_"><path id="XMLID_80_" d="M385.8 198.3h-14.5c-.2 0-.4.2-.4.4v.6h15.2v-.6c.2-.2-.1-.4-.3-.4z" fill="#797ba5"/></g><g id="XMLID_42_" class="st16"><path id="XMLID_43_" class="st17" d="M371.9 224h13.5v2h-13.5z"/></g><g id="XMLID_40_"><path id="XMLID_41_" class="st23" d="M385.8 228h-14.2c-.3 0-.5-.2-.5-.5v-2c0-.3.2-.5.5-.5h14.2c.3 0 .5.2.5.5v2c0 .3-.3.5-.5.5z"/></g><g id="XMLID_38_"><path id="XMLID_39_" d="M371 227v.6c0 .2.2.4.4.4h14.5c.2 0 .4-.2.4-.4v-.6H371z" fill="#41446b"/></g><g id="XMLID_36_"><path id="XMLID_37_" class="st22" d="M378.5 215.5h-.3c-.3 0-.5-.2-.5-.5v-1c0-.3.2-.5.5-.5h.3c.3 0 .5.2.5.5v1c0 .3-.2.5-.5.5z"/></g><g id="XMLID_4_"><path id="XMLID_35_" class="st22" d="M378.5 207.8c-2 0-3.8-.8-5.1-2.2v2c0 .9.5 1.7 1.2 2.1l2.5 1.4c.3.2.5.5.5.9v.6c0 .3.3.6.6.6s.6-.3.6-.6v-.6c0-.4.2-.8.6-.9l2.8-1.4c.8-.4 1.3-1.3 1.3-2.2v-2.1c-1.1 1.5-2.9 2.4-5 2.4z"/></g></g><g id="XMLID_14_"><g id="XMLID_31_"><path id="XMLID_32_" class="st12" d="M392.3 212.7h-.8c-.2 0-.4-.2-.4-.4s.2-.4.4-.4h.8c.2 0 .4.2.4.4.1.2-.1.4-.4.4z"/></g><g id="XMLID_1_"><path id="XMLID_2_" class="st12" d="M392.8 215.4h-.1l-1.6-.4c-.2-.1-.3-.3-.3-.5.1-.2.3-.3.5-.3l1.6.4c.2.1.3.3.3.5-.1.2-.2.3-.4.3z"/></g><g id="XMLID_27_"><path id="XMLID_28_" class="st12" d="M391 217.6c-.1 0-.1 0-.2-.1l-.7-.4c-.2-.1-.3-.3-.1-.5.1-.2.3-.3.5-.1l.7.4c.2.1.3.3.1.5 0 .1-.2.2-.3.2z"/></g><g id="XMLID_25_"><path id="XMLID_26_" class="st12" d="M390 220.3c-.1 0-.2 0-.3-.1l-1.2-1.2c-.2-.2-.2-.4 0-.6.2-.2.4-.2.6 0l1.2 1.2c.2.2.2.4 0 .6 0 0-.2.1-.3.1z"/></g><g id="XMLID_23_"><path id="XMLID_24_" class="st12" d="M387.4 221.2c-.1 0-.3-.1-.3-.2l-.4-.7c-.1-.2 0-.4.1-.5.2-.1.4 0 .5.1l.4.7c.1.2 0 .4-.1.5-.1.1-.1.1-.2.1z"/></g><g id="XMLID_21_"><path id="XMLID_22_" class="st12" d="M387 204.8c-.1 0-.1 0-.2-.1-.2-.1-.3-.3-.1-.5l.4-.7c.1-.2.3-.3.5-.1.2.1.3.3.1.5l-.4.7c0 .2-.2.2-.3.2z"/></g><g id="XMLID_19_"><path id="XMLID_20_" class="st12" d="M388.9 206.3c-.1 0-.2 0-.3-.1-.2-.2-.2-.4 0-.6l1.2-1.2c.2-.2.4-.2.6 0s.2.4 0 .6l-1.2 1.2c-.1 0-.2.1-.3.1z"/></g><g id="XMLID_17_"><path id="XMLID_18_" class="st12" d="M390.3 208.1c-.1 0-.3-.1-.3-.2-.1-.2 0-.4.1-.5l.7-.4c.2-.1.4 0 .5.1.1.2 0 .4-.1.5l-.7.4c-.1.1-.1.1-.2.1z"/></g><g id="XMLID_15_"><path id="XMLID_16_" class="st12" d="M391.3 210.3c-.2 0-.3-.1-.4-.3-.1-.2.1-.4.3-.5l1.6-.4c.2-.1.4.1.5.3s-.1.4-.3.5l-1.7.4z"/></g></g></g></g></g><g id="Layer_12_1_"><g id="XMLID_334_"><g id="XMLID_404_"><path id="XMLID_408_" class="st22" d="M26.2 201.4h2L31 193c.2-.5.1-1-.1-1.5l-3.7-6.5h-.8l-.1 7c.1.1.7.3.8.4.5.5.5 1.4 0 1.9s-1.4.5-1.9 0-.5-1.4 0-1.9c.1-.1.5-.4.6-.4l.2-6.9h-.6l-3.8 6.5c-.3.5-.3 1-.2 1.5l2.7 8.4 2.1-.1z"/><path id="XMLID_407_" class="st26" d="M24.2 201.4h4l.9-2.8h-5.8z"/><path id="XMLID_406_" fill="#717386" d="M21.8 199.9h8.8v15.9h-8.8z"/><path id="XMLID_405_" class="st12" d="M26.2 199.9h4.4v15.9h-4.4z"/></g><g id="XMLID_392_"><path id="XMLID_401_" d="M42.3 195.7v3.8c0 .7.6 1.3 1.3 1.3 1.4 0 2.5 1.1 2.5 2.5v10.3c0 1.3 1.1 2.4 2.5 2.3 1.2-.1 2-1.2 2-2.4v-10.1c0-1.4 1.1-2.5 2.5-2.5.7 0 1.3-.6 1.3-1.3v-3.9H42.3zm5.2 17.7c0-.4.4-.8.8-.8s.8.4.8.8-.4.8-.8.8-.8-.4-.8-.8z" fill="#9a9dd0"/><path id="XMLID_400_" class="st22" d="M42.3 184h12v8.7h-12z"/><path id="XMLID_399_" class="st22" d="M42.3 184h4.8v8.7h-4.8z"/><path id="XMLID_398_" class="st29" d="M42.3 192.2h12v3.5h-12z"/><path id="XMLID_397_" class="st30" d="M42.3 192.4h12v.5h-12z"/><path id="XMLID_396_" class="st30" d="M42.3 193.7h12v.5h-12z"/><path id="XMLID_395_" class="st30" d="M42.3 194.9h12v.5h-12z"/><path id="XMLID_394_" class="st31" d="M48.3 195.7v16.9c-.4 0-.8.4-.8.8s.4.8.8.8v1.6c-1.3 0-2.3-1-2.3-2.3v-10.3c0-1.4-1.1-2.5-2.5-2.5-.7 0-1.3-.6-1.3-1.3v-3.7h6.1z"/><path id="XMLID_393_" class="st4" d="M46.4 184v3.4c0 .5.4 1 1 1 .5 0 1-.4 1-1v-1c0-.4.4-.8.8-.8s.8.4.8.8v3.6c0 .4.4.8.8.8s.8-.4.8-.8v-1.7c.9 0 1.6-.7 1.6-1.6v-2.8h-6.8v.1z"/></g><path id="XMLID_391_" class="st32" d="M42.3 184v15.3c0 .7.6 1.3 1.3 1.3h.4v-12.9l-1.4-3.6-.3-.1z"/><g id="XMLID_384_"><path id="XMLID_390_" class="st22" d="M37.9 187.7h4.9v24.4h-4.9z"/><path id="XMLID_389_" class="st22" d="M42.9 213.3H38v1.4c0 .6.5 1.2 1.2 1.2h2.6c.6 0 1.2-.5 1.2-1.2l-.1-1.4z"/><path id="XMLID_388_" class="st33" d="M37.9 212.1h4.9v1.2h-4.9z"/><path id="XMLID_387_" class="st34" d="M37.9 187.7h2.5v24.4h-2.5z"/><path id="XMLID_386_" class="st35" d="M40.2 182l-2.3 5.7h4.9l-2.3-5.7c0-.2-.2-.2-.3 0z"/><path id="XMLID_385_" class="st33" d="M40.3 181.6l-.6 1.5H41l-.6-1.5h-.1z"/></g><path id="XMLID_383_" class="st32" d="M28.7 199.9l2.3-6.8c.2-.5.1-1-.1-1.5l-3.2-5.7v29.6c0 .6.5 1.1 1.1 1.1h1.9v-15.9h-2v-.8z"/><g id="XMLID_359_"><path id="XMLID_382_" class="st4" d="M29.7 180.9h3.9c.6 0 1 .5 1 1v32.9c0 .6-.5 1-1 1h-3.9c-.6 0-1-.5-1-1v-32.9c0-.5.4-1 1-1z"/><path id="XMLID_381_" d="M29.8 180.9h2.1v34.9h-2.1c-.6 0-1.1-.5-1.1-1.1V182c0-.6.5-1.1 1.1-1.1z" fill="#b7d2f9"/><path id="XMLID_380_" class="st37" d="M28.7 213.4h.7v.4h-.7z"/><path id="XMLID_379_" class="st37" d="M28.7 211.9h.7v.4h-.7z"/><path id="XMLID_378_" class="st37" d="M28.7 210.3h.7v.4h-.7z"/><path id="XMLID_377_" class="st37" d="M28.7 208.8h.7v.4h-.7z"/><path id="XMLID_376_" class="st37" d="M28.6 207.2h1.5v.4h-1.5z"/><path id="XMLID_375_" class="st37" d="M28.7 205.7h.7v.4h-.7z"/><path id="XMLID_374_" class="st37" d="M28.7 204.1h.7v.4h-.7z"/><path id="XMLID_373_" class="st37" d="M28.7 202.6h.7v.4h-.7z"/><path id="XMLID_372_" class="st37" d="M28.7 201h.7v.4h-.7z"/><path id="XMLID_371_" class="st37" d="M28.6 199.5h1.5v.4h-1.5z"/><path id="XMLID_370_" class="st37" d="M28.7 197.9h.7v.4h-.7z"/><path id="XMLID_369_" class="st37" d="M28.7 196.4h.7v.4h-.7z"/><path id="XMLID_368_" class="st37" d="M28.7 194.8h.7v.4h-.7z"/><path id="XMLID_367_" class="st37" d="M28.7 193.3h.7v.4h-.7z"/><path id="XMLID_366_" class="st37" d="M28.6 191.7h1.5v.4h-1.5z"/><path id="XMLID_365_" class="st37" d="M28.7 190.2h.7v.4h-.7z"/><path id="XMLID_364_" class="st37" d="M28.7 188.6h.7v.4h-.7z"/><path id="XMLID_363_" class="st37" d="M28.7 187.1h.7v.4h-.7z"/><path id="XMLID_362_" class="st37" d="M28.7 185.5h.7v.4h-.7z"/><path id="XMLID_361_" class="st37" d="M28.6 184h1.5v.4h-1.5z"/><path id="XMLID_360_" class="st37" d="M28.7 182.4h.7v.4h-.7z"/></g><path id="XMLID_358_" class="st32" d="M33.6 180.9v6.9H33v7.6h.6v20.4c.6 0 1-.5 1-1.1V182c0-.6-.4-1-1-1.1z"/><g id="XMLID_349_"><path id="XMLID_357_" class="st14" d="M34.7 195.1h2.6v20.7h-2.6z"/><path id="XMLID_356_" fill="#474963" d="M36 195.1h1.3v20.7H36z"/><path id="XMLID_355_" class="st14" d="M34.1 190.5h3.5v4.9h-3.5z"/><path id="XMLID_354_" class="st9" d="M34.1 190.5h3.5v.3h-3.5z"/><path id="XMLID_353_" class="st14" d="M34.1 187.8h3.5v2.7h-3.5z"/><path id="XMLID_352_" class="st29" d="M37.5 182.2l-2.8-2.4v8h2.8z"/><path id="XMLID_351_" fill="#ececec" d="M34.7 180.7v7.1h2.8v-4.7z"/><path id="XMLID_350_" fill="#b1b1b1" d="M36.1 187.8h1.4v-4.7l-1.4-1.2z"/></g><g id="XMLID_342_" class="st16"><path id="XMLID_348_" class="st32" d="M28.7 215.8h4.9c.3 0 .5-.1.7-.3v-.1c.1-.1.1-.2.2-.3s.1-.3.1-.4v-9.1H21.8v10.2h6.9z"/><path id="XMLID_347_" class="st32" d="M37.9 214.5c0 .7.6 1.3 1.3 1.3h2.4c.7 0 1.3-.6 1.3-1.3v-9H38v9h-.1z"/><path id="XMLID_346_" class="st32" d="M37.3 215.8v-10.2h-2.6v10.2H36z"/><path id="XMLID_343_" class="st32" d="M46 205.6v8c0 .2 0 .3.1.5 0 .1 0 .1.1.2 0 .1 0 .2.1.2 0 .1.1.2.1.2l.1.1c.1.1.1.2.2.3l.1.1c.1.1.2.2.3.2.4.3.9.4 1.5.4 1.2-.1 2-1.2 2-2.4v-7.8H46zm2.3 8.6c-.4 0-.8-.4-.8-.8s.4-.8.8-.8.8.4.8.8-.3.8-.8.8z"/></g><g id="XMLID_335_"><path id="XMLID_341_" class="st22" d="M55.5 228.1H21.3v-21.4h36.3V226c0 1.1-.9 2.1-2.1 2.1z"/><path id="XMLID_340_" d="M19.7 228.1h1.6v-21.4h-3.7V226c0 1.1.9 2.1 2.1 2.1z" fill="#bf9447"/><path id="XMLID_339_" class="st26" d="M17.6 211.2H20l1.3-4.5-3.7.9z"/><path id="XMLID_338_" class="st22" d="M17 209.4h2.6c.2 0 .4-.1.4-.3l1.2-2.4h-3.7l-1 2c-.1.3.2.7.5.7z"/><path id="XMLID_337_" class="st26" d="M57.6 211.2v-3.6l-36.3-.9 2 4.5z"/><path id="XMLID_336_" class="st22" d="M58.6 209.4H23.5c-.2 0-.3-.1-.4-.2l-1.8-2.5h36.3l1.4 1.9c.3.3.1.8-.4.8z"/></g></g><path class="st15" d="M350.5 151.3h-92.2c-1.2 0-2.1 1-2.1 2.2v75h96.4v-74.9c0-1.3-.9-2.3-2.1-2.3z"/><path id="XMLID_333_" class="st42" d="M359.7 228.5H259.4v-72.7c0-2.4 2-4.4 4.4-4.4h91.4c2.4 0 4.4 2 4.4 4.4v72.7h.1z"/><path id="XMLID_332_" class="st4" d="M359.7 160.7v-7.4c0-1.2-1-2.2-2.2-2.2h-95.8c-1.2 0-2.2 1-2.2 2.2v7.4h100.2z"/><path id="XMLID_331_" class="st9" d="M266.9 156.2c0 .7-.6 1.3-1.3 1.3-.7 0-1.3-.6-1.3-1.3s.6-1.3 1.3-1.3c.8 0 1.3.6 1.3 1.3z"/><path id="XMLID_330_" class="st9" d="M271.2 156.2c0 .7-.6 1.3-1.3 1.3-.7 0-1.3-.6-1.3-1.3s.6-1.3 1.3-1.3c.7 0 1.3.6 1.3 1.3z"/><path id="XMLID_329_" class="st9" d="M275.5 156.2c0 .7-.6 1.3-1.3 1.3-.7 0-1.3-.6-1.3-1.3s.6-1.3 1.3-1.3 1.3.6 1.3 1.3z"/><path id="XMLID_328_" d="M357.5 151.4h-2.8c1.2 0 2.2 1 2.2 2.2v74.9h2.8v-74.9c0-1.2-1-2.2-2.2-2.2z" opacity=".2" fill="#191c3c" enable-background="new"/><path class="st5" d="M269.4 170.3h-1.6c-1 0-1.8-.8-1.8-1.8s.8-1.8 1.8-1.8h1.6c1 0 1.8.8 1.8 1.8s-.8 1.8-1.8 1.8zm0 9.1h-1.6c-1 0-1.8-.8-1.8-1.8s.8-1.8 1.8-1.8h1.6c1 0 1.8.8 1.8 1.8s-.8 1.8-1.8 1.8zm0 9h-1.6c-1 0-1.8-.8-1.8-1.8s.8-1.8 1.8-1.8h1.6c1 0 1.8.8 1.8 1.8s-.8 1.8-1.8 1.8zm0 9h-1.6c-1 0-1.8-.8-1.8-1.8s.8-1.8 1.8-1.8h1.6c1 0 1.8.8 1.8 1.8s-.8 1.8-1.8 1.8zm0 9.1h-1.6c-1 0-1.8-.8-1.8-1.8s.8-1.8 1.8-1.8h1.6c1 0 1.8.8 1.8 1.8s-.8 1.8-1.8 1.8zm0 9h-1.6c-1 0-1.8-.8-1.8-1.8s.8-1.8 1.8-1.8h1.6c1 0 1.8.8 1.8 1.8s-.8 1.8-1.8 1.8zm0 9.1h-1.6c-1 0-1.8-.8-1.8-1.8s.8-1.8 1.8-1.8h1.6c1 0 1.8.8 1.8 1.8s-.8 1.8-1.8 1.8zm78.3-54.3h-1.6c-1 0-1.8-.8-1.8-1.8s.8-1.8 1.8-1.8h1.6c1 0 1.8.8 1.8 1.8s-.8 1.8-1.8 1.8z"/><path class="st31" d="M347.7 179.4h-1.6c-1 0-1.8-.8-1.8-1.8s.8-1.8 1.8-1.8h1.6c1 0 1.8.8 1.8 1.8s-.8 1.8-1.8 1.8z"/><path class="st44" d="M347.7 188.4h-1.6c-1 0-1.8-.8-1.8-1.8s.8-1.8 1.8-1.8h1.6c1 0 1.8.8 1.8 1.8s-.8 1.8-1.8 1.8z"/><path class="st31" d="M347.7 197.4h-1.6c-1 0-1.8-.8-1.8-1.8s.8-1.8 1.8-1.8h1.6c1 0 1.8.8 1.8 1.8s-.8 1.8-1.8 1.8z"/><path class="st44" d="M347.7 206.5h-1.6c-1 0-1.8-.8-1.8-1.8s.8-1.8 1.8-1.8h1.6c1 0 1.8.8 1.8 1.8s-.8 1.8-1.8 1.8z"/><path class="st31" d="M347.7 215.5h-1.6c-1 0-1.8-.8-1.8-1.8s.8-1.8 1.8-1.8h1.6c1 0 1.8.8 1.8 1.8s-.8 1.8-1.8 1.8z"/><path class="st5" d="M347.7 224.6h-1.6c-1 0-1.8-.8-1.8-1.8s.8-1.8 1.8-1.8h1.6c1 0 1.8.8 1.8 1.8s-.8 1.8-1.8 1.8zm-48.5-54.3h-23.1c-1 0-1.8-.8-1.8-1.8s.8-1.8 1.8-1.8h23.1c1 0 1.8.8 1.8 1.8s-.8 1.8-1.8 1.8z"/><path class="st22" d="M304.9 170.3h4.7c1 0 1.8-.8 1.8-1.8s-.8-1.8-1.8-1.8h-4.7c-1 0-1.8.8-1.8 1.8s.8 1.8 1.8 1.8zm-18.3 9.1h-10.4c-1 0-1.8-.8-1.8-1.8s.8-1.8 1.8-1.8h10.4c1 0 1.8.8 1.8 1.8s-.8 1.8-1.8 1.8z"/><path class="st4" d="M295.9 179.4h31.2c1 0 1.8-.8 1.8-1.8s-.8-1.8-1.8-1.8h-31.2c-1 0-1.8.8-1.8 1.8s.8 1.8 1.8 1.8z"/><path class="st5" d="M320.1 188.4h-43.9c-1 0-1.8-.8-1.8-1.8s.8-1.8 1.8-1.8h43.9c1 0 1.8.8 1.8 1.8s-.8 1.8-1.8 1.8zm9.7 9h-53.6c-1 0-1.8-.8-1.8-1.8s.8-1.8 1.8-1.8h53.6c1 0 1.8.8 1.8 1.8s-.8 1.8-1.8 1.8z"/><path class="st4" d="M320.1 206.5h-16.2c-1 0-1.8-.8-1.8-1.8s.8-1.8 1.8-1.8h16.2c1 0 1.8.8 1.8 1.8s-.8 1.8-1.8 1.8z"/><path class="st5" d="M297.3 206.5h-21.1c-1 0-1.8-.8-1.8-1.8s.8-1.8 1.8-1.8h21.1c1 0 1.8.8 1.8 1.8s-.8 1.8-1.8 1.8zm12.3 9h-33.4c-1 0-1.8-.8-1.8-1.8s.8-1.8 1.8-1.8h33.4c1 0 1.8.8 1.8 1.8s-.8 1.8-1.8 1.8z"/><path class="st22" d="M315.6 215.5h10.7c1 0 1.8-.8 1.8-1.8s-.8-1.8-1.8-1.8h-10.7c-1 0-1.8.8-1.8 1.8s.8 1.8 1.8 1.8z"/><path class="st5" d="M320.1 224.6h-43.9c-1 0-1.8-.8-1.8-1.8s.8-1.8 1.8-1.8h43.9c1 0 1.8.8 1.8 1.8s-.8 1.8-1.8 1.8z"/><g id="XMLID_320_"><path id="XMLID_327_" class="st22" d="M290.5 216.2l-6.4-.5 5.1-5.9z"/><path id="XMLID_326_" class="st22" d="M285.4 222l-6.4-.5 5.1-5.8z"/><path id="XMLID_325_" class="st22" d="M297.9 227.8h-17.7l15.4-17.5z"/><path id="XMLID_324_" class="st34" d="M297.9 227.8l-12.5-5.8 5.1-5.9z"/><path id="XMLID_323_" class="st34" d="M279 221.5l1.2 6.3 5.1-5.8z"/><path id="XMLID_322_" class="st34" d="M284.1 215.7l1.3 6.3 5.1-5.8z"/><path id="XMLID_321_" class="st34" d="M289.2 209.8l1.3 6.3 5.1-5.8z"/></g><g id="XMLID_121_"><g id="XMLID_307_"><path id="XMLID_319_" class="st44" d="M269.6 226.4c-3.7 3.1-9.2 2.6-12.2-1.1-3.1-3.7-2.6-9.2 1.1-12.2 3.7-3.1 9.2-2.6 12.2 1.1 3.1 3.7 2.6 9.2-1.1 12.2z"/><path class="st9" d="M266.4 218.1l-2.8 5.9c0 .1-.1.1-.2.1h-.1c-.1 0-.2-.1-.2-.3l1-4.1-2.1.5h-.1c-.1 0-.1 0-.2-.1s-.1-.1-.1-.2l1-4.2c0-.1.1-.2.2-.2h1.7c.1 0 .2.1.2.2v.1l-.9 2.4 2-.5h.1c.1 0 .1 0 .2.1.3.1.3.2.3.3z"/></g><path id="XMLID_306_" class="st45" d="M262.9 220c0-2.9-1.3-5.4-3.3-7.2-.4.2-.8.5-1.2.8-2 1.7-3 4-3.1 6.4.1 1.9.7 3.7 2 5.3.6.8 1.4 1.4 2.2 1.9 2.1-1.7 3.4-4.3 3.4-7.2z"/><g id="XMLID_150_"><path id="XMLID_305_" class="st4" d="M261.4 218.9c0 5.3-4.3 9.5-9.5 9.5-5.3 0-9.5-4.3-9.5-9.5 0-5.3 4.3-9.5 9.5-9.5s9.5 4.3 9.5 9.5z"/><path class="st9" d="M254.4 222.2c0 .1 0 .2-.1.2 0 0-.5.2-1.1.2-1.6 0-3-1-3.4-2.5h-.5c-.1 0-.2-.1-.2-.2v-.6c0-.1.1-.2.2-.2h.3v-.6h-.4c-.1 0-.2-.1-.2-.2v-.6c0-.1.1-.2.2-.2h.5c.5-1.5 1.8-2.4 3.4-2.4.5 0 1 .1 1 .1s.1 0 .1.1v.1l-.2.8c0 .1-.1.1-.2.1 0 0-.4-.1-.7-.1-.9 0-1.6.5-2 1.3h2.5c.1 0 .1 0 .1.1v.1l-.1.6c0 .1-.1.1-.2.1h-2.6v.6h2.4c.1 0 .1 0 .1.1v.1l-.1.6c0 .1-.1.1-.2.1h-2c.3.8 1.1 1.3 2 1.3.5 0 .8-.1.8-.1h.1l.1.1.4 1z"/></g><path id="XMLID_149_" class="st45" d="M248.2 211.2c-3.3 1.4-5.7 4.6-5.9 8.4.2 3.2 2.1 6 4.7 7.6 4-2.9 5.4-8.3 3.3-12.9-.5-1.2-1.2-2.2-2.1-3.1z"/><g id="XMLID_134_"><ellipse id="XMLID_148_" class="st22" cx="239.2" cy="218" rx="10.5" ry="10.5"/><path class="st9" d="M245.3 214.1v6.9c0 .5-.4.9-.9.9h-9.1c-.5 0-.9-.4-.9-.9v-6.9c0-.5.4-.9.9-.9h9.1c.4 0 .9.4.9.9zm-10.3 0v1.3h9.5v-1.3c0-.1-.1-.2-.2-.2h-9.1c-.1 0-.2.1-.2.2zm9.5 7v-3.5H235v3.5c0 .1.1.2.2.2h9.1c.1 0 .2-.1.2-.2zm-8.7-1.3h1.5v.7h-1.5v-.7zm2.2 0h2.2v.7H238v-.7z"/></g><path id="XMLID_133_" class="st45" d="M229.7 222.4c.7 1.5 1.7 2.7 2.8 3.6.6-.8 1.2-1.8 1.5-2.8 1.4-4.1.2-8.5-2.9-11.2-1.5 1.8-2.4 4.1-2.4 6.5.1 1.3.4 2.6 1 3.9z"/><g id="XMLID_122_"><path id="XMLID_132_" d="M232 221.5c-1.9 5.4-7.9 8.3-13.3 6.4-5.4-1.9-8.3-7.9-6.4-13.3 1.9-5.4 7.8-8.3 13.3-6.4 5.5 2 8.3 7.9 6.4 13.3z" fill="#24292e"/><path class="st9" d="M224.9 213.3c.8.5 1.5 1.1 2 1.9.5.8.7 1.7.7 2.7 0 1.2-.3 2.3-1 3.2s-1.6 1.6-2.6 2h-.3c-.1 0-.1-.1-.1-.2V221c0-.5-.1-.8-.4-1 .5-.1.9-.1 1.2-.2.4-.1.7-.4.9-.7.2-.4.4-.9.4-1.5 0-.3-.1-.5-.2-.7-.1-.1-.2-.3-.4-.5.1-.1.1-.3.1-.5 0-.3 0-.6-.2-1-.1 0-.3 0-.6.1l-.6.3-.3.2c-.5-.1-.9-.2-1.4-.2s-.9.1-1.4.2l-.3-.2-.6-.3c-.3-.1-.5-.1-.6-.1-.1.3-.2.6-.2 1 0 .2 0 .4.1.5-.2.2-.3.4-.4.6-.1.2-.1.4-.1.7 0 .7.1 1.2.3 1.5.2.3.5.5.9.7.3.1.7.2 1.2.2-.2.2-.3.4-.3.7-.2.1-.5.2-.7.1-.4 0-.7-.2-.9-.6-.1-.2-.2-.3-.3-.4-.1-.1-.2-.1-.3-.2h-.2c-.2 0-.2 0-.3.1 0 .1 0 .1.1.2l.1.1.3.3c.1.1.2.2.2.3l.1.2c.1.2.2.4.4.5.2.1.4.2.6.2h.7v1.3c0 .1 0 .2-.1.2-.1.1-.2.1-.3 0-1.1-.4-2-1-2.7-2s-1-2-1-3.2c0-1 .2-1.9.7-2.7.5-.8 1.1-1.5 1.9-1.9.8-.5 1.7-.7 2.7-.7 1.4 0 2.3.2 3.2.7zm-6.1 6.6c0 .1 0 .1 0 0 0 .2 0 .2 0 0-.1.1-.1 0-.1 0h.1zm.2.2s.1.1 0 .1v-.1h-.1.1zm.2.3c.1.1.1.2.1.2h-.2c0-.1 0-.2.1-.2-.1 0 0 0 0 0zm.2.3c.1 0 .1 0 0 0l.1.1v.1h-.2c.1-.1.1-.1.1-.2zm.5.2c0 .1.1.1 0 0 .1.1.1.1 0 .2h-.1s-.1 0-.1-.1v-.1h.2zm.5.1c-.1 0-.1 0 0 0-.2 0-.2 0-.2.1s0 .1.1.1.1-.1.1-.2c0 .1 0 .1 0 0zm.4 0s0 .1-.1.1h-.1v-.1s0-.1.1-.1l.1.1z"/></g></g><g id="XMLID_33_"><g id="XMLID_117_"><path id="XMLID_120_" d="M203.8 219c0 5.1-4.1 9.3-9.3 9.3-5.1 0-9.3-4.1-9.3-9.3s4.1-9.3 9.3-9.3c5.1 0 9.3 4.2 9.3 9.3z" fill="#3b5998"/><path class="st9" d="M193.1 223.7v-4.4h-1.5v-1.7h1.5v-1.4c0-.7.2-1.3.6-1.7.4-.4.9-.6 1.6-.6.5 0 1 0 1.3.1v1.5h-.9c-.3 0-.6.1-.7.2-.1.1-.2.3-.2.6v1.2h1.6l-.2 1.7h-1.4v4.4h-1.7z"/></g><path id="XMLID_116_" class="st45" d="M185.3 219c0 2.9 1.4 5.6 3.5 7.2 1-.8 1.9-1.9 2.5-3.1 1.9-4 .8-8.6-2.4-11.4-2.3 1.8-3.6 4.4-3.6 7.3z"/><g id="XMLID_107_"><path id="XMLID_115_" class="st9" d="M189.5 223.1c-2.3 4.7-7.9 6.7-12.6 4.4-4.7-2.3-6.7-7.9-4.4-12.6 2.3-4.7 7.9-6.7 12.6-4.4 4.7 2.3 6.7 7.9 4.4 12.6z"/><g id="Group-4" transform="translate(14 4)"><defs><filter id="Adobe_OpacityMaskFilter" filterUnits="userSpaceOnUse" x="166.6" y="209.9" width="4.2" height="9.1"><feColorMatrix values="1 0 0 0 0 0 1 0 0 0 0 0 1 0 0 0 0 0 1 0"/></filter></defs><mask maskUnits="userSpaceOnUse" x="166.6" y="209.9" width="4.2" height="9.1" id="mask-2_4_"><g filter="url(#Adobe_OpacityMaskFilter)"><path id="path-1_4_" class="st9" d="M162.9 220.2h7.9v-10.3h-7.9z"/></g></mask><path id="Fill-1" d="M168.4 210.5c-.2-.5-.7-.7-1.2-.6-.5.2-.7.7-.6 1.2l2.4 7.3c.2.5.7.7 1.1.6.5-.1.8-.7.6-1.1.1-.1-2.3-7.4-2.3-7.4" mask="url(#mask-2_4_)" fill="#dfa22f"/><defs><filter id="Adobe_OpacityMaskFilter_1_" filterUnits="userSpaceOnUse" x="162.9" y="211.1" width="4.2" height="9.1"><feColorMatrix values="1 0 0 0 0 0 1 0 0 0 0 0 1 0 0 0 0 0 1 0"/></filter></defs><mask maskUnits="userSpaceOnUse" x="162.9" y="211.1" width="4.2" height="9.1" id="mask-2_3_"><g filter="url(#Adobe_OpacityMaskFilter_1_)"><path id="path-1_3_" class="st9" d="M162.9 220.2h7.9v-10.3h-7.9z"/></g></mask><path id="Fill-3" d="M164.7 211.7c-.2-.5-.7-.7-1.2-.6-.5.2-.7.7-.6 1.2l2.4 7.3c.2.5.7.7 1.1.6.5-.1.8-.7.6-1.1.1-.1-2.3-7.4-2.3-7.4" mask="url(#mask-2_3_)" fill="#3cb187"/></g><path id="Fill-5" d="M185.4 220.6c.5-.2.7-.7.6-1.2-.2-.5-.7-.7-1.2-.6l-7.3 2.4c-.5.2-.7.7-.6 1.1.1.5.7.8 1.1.6.1.1 7.4-2.3 7.4-2.3" fill="#ce1e5b"/><path id="Fill-6" d="M179 222.7c.5-.2 1.1-.4 1.8-.6-.2-.5-.4-1.1-.6-1.8l-1.8.6.6 1.8" fill="#392538"/><g id="Group-10" transform="translate(0 18)"><path id="Fill-7" d="M182.7 203.5c.7-.2 1.3-.4 1.8-.6-.2-.5-.4-1.1-.6-1.8l-1.8.6.6 1.8" fill="#bb242a"/><path id="Fill-9" d="M184.2 198.9c.5-.2.7-.7.6-1.2-.2-.5-.7-.7-1.2-.6l-7.3 2.4c-.5.2-.7.7-.6 1.1.1.5.7.8 1.1.6.1.1 7.4-2.3 7.4-2.3" fill="#72c5cd"/></g><path id="Fill-11" d="M177.8 219c.5-.2 1.1-.4 1.8-.6-.2-.7-.4-1.3-.6-1.8l-1.8.6.6 1.8" fill="#238c73"/><path id="Fill-12" d="M181.5 217.8c.7-.2 1.3-.4 1.8-.6-.2-.7-.4-1.3-.6-1.8l-1.7.6.5 1.8" fill="#62803a"/></g><path id="XMLID_105_" class="st45" d="M176.3 210.8c-1.6.9-3 2.3-3.9 4.1-2.1 4.4-.5 9.7 3.6 12.2 2.8-1.7 4.7-4.7 4.7-8.2 0-3.4-1.8-6.4-4.4-8.1z"/><g id="XMLID_34_"><circle id="XMLID_103_" cx="169.7" cy="218.8" r="9.6" fill="#1da1f2"/><path class="st9" d="M173.1 208.8c.1.1.2.1.2.2.1.1.1.2 0 .2-.7.7-1.6 1.2-2.5 1.4-.9.2-1.8.1-2.6-.2-.9-.3-1.6-.8-2.2-1.4-.6-.7-1-1.5-1.1-2.5 0-.1 0-.1.1-.2s.2-.1.3 0c.1 0 .2.1.2.1.2.9.5 1.6 1.1 2.3.5.6 1.2 1 1.9 1.2.7.2 1.5.2 2.2.1.8-.2 1.5-.6 2.1-1.2h.3zm-5 .3c.7.3 1.5.4 2.3.3s1.5-.5 2-1.1c.6-.6.9-1.4.9-2.4 0-.8-.2-1.4-.6-2.1-.4-.6-.9-1-1.6-1.2-.7-.3-1.3-.3-2-.2-.8.1-1.4.5-1.9 1.1v-2.9h4.9c.1 0 .2-.1.2-.3s-.1-.3-.2-.3h-5.3c-.1 0-.1 0-.2.1s-.1.1-.1.2v4.1c0 .1.1.2.3.3h.3c.1 0 .1-.1.2-.1.1-.1.2-.3.5-.5.3-.3.6-.5.9-.6.4-.1.7-.2 1.1-.2.4 0 .8.1 1.1.2.4.1.7.4.9.6.3.3.5.6.6.9.1.4.2.7.2 1.1 0 .4-.1.8-.2 1.1s-.4.7-.6.9c-.5.5-1 .8-1.7.8-.7.1-1.3 0-1.8-.4v-2.7c0-.3.2-.5.4-.8.3-.3.6-.5 1-.5s.8.1 1.1.4c.3.3.5.6.5 1 0 .6-.2.9-.6 1.2-.3.2-.8.3-1.4.3-.1 0-.1 0-.2.1s-.1.2-.1.3c0 .1 0 .2.1.2.5.1.9.1 1.4 0s.8-.4 1.1-.8c.3-.4.4-.8.4-1.2 0-.6-.2-1.1-.6-1.5-.4-.4-.9-.6-1.5-.6s-1.1.2-1.5.6c-.4.4-.6.9-.7 1.4v2.1c-.2-.3-.4-.6-.5-.9-.1-.1-.1-.2-.2-.2h-.3c-.1.1-.2.1-.2.2s0 .2.1.3c.2.7.8 1.3 1.5 1.7zm.3-7.9c.4-.1.8-.2 1.3-.2.6 0 1.2.1 1.7.3.6.2 1.2.6 1.7 1 .1 0 .1.1 0 .2 0 .1-.1.2-.2.2-.1.1-.1.1-.2.1 0 0-.1 0-.2-.1-.5-.4-1-.7-1.5-.9-.9-.3-1.9-.3-2.9.1-.1 0-.2 0-.2-.1-.1-.1-.1-.2-.1-.3.1-.1.3-.2.6-.3zm.5 5.1l.4-.4-.4-.4c-.1-.1 0-.1 0-.2l.2-.2h.1l.4.4.4-.4h.2c.1 0 .1.1.2.2v.2l-.4.4.4.4c.1.1.1.2 0 .3-.1.1-.2.1-.2.1h-.1l-.4-.4-.4.4h-.1c-.1 0-.1-.1-.2-.1-.1-.1-.1-.1-.1-.2v-.1zm5.4 10.3v.3c0 1.1-.3 2.1-.8 3.1s-1.3 1.9-2.2 2.5c-1 .7-2.2 1-3.6 1-1.3 0-2.5-.3-3.6-1h.6c1.1 0 2-.3 2.9-1-.5 0-1-.2-1.4-.5-.4-.3-.7-.7-.8-1.1h.4c.2 0 .4 0 .6-.1-.5-.1-1-.4-1.3-.8-.4-.4-.5-.9-.5-1.5.3.2.7.3 1 .3-.3-.2-.6-.5-.8-.8-.2-.3-.3-.7-.3-1.1 0-.4.1-.8.3-1.2.6.7 1.3 1.3 2.1 1.7.8.4 1.7.7 2.7.7v-.5c0-.4.1-.8.3-1.2s.5-.6.8-.8c.4-.2.7-.3 1.1-.3.3 0 .7.1.9.2.3.1.5.3.8.5.5-.1 1-.3 1.5-.6-.2.5-.5 1-1 1.3.4-.1.9-.2 1.3-.4-.1.5-.5.9-1 1.3z"/></g></g><g id="XMLID_29_"><path id="XMLID_30_" class="st22" d="M146.2 220.1h2.3c.5 0 .9-.4.9-.9v-3c0-.5-.4-.9-.9-.9h-1.8c-.3 0-.6-.2-.7-.5-.1-.2-.1-.3-.2-.5-.1-.3-.1-.6.1-.8l1.3-1.3c.3-.3.3-.9 0-1.2l-2.1-2.1c-.3-.3-.9-.3-1.2 0l-1.3 1.3c-.2.2-.5.3-.8.1-.2-.1-.4-.2-.6-.2-.3-.1-.4-.4-.4-.7v-1.8c0-.5-.4-.9-.9-.9h-3c-.5 0-.9.4-.9.9v1.8c0 .3-.2.6-.5.7-.2.1-.4.1-.5.2-.3.1-.6.1-.8-.1l-1.3-1.3c-.3-.3-.9-.3-1.2 0l-2.1 2.1c-.3.3-.3.9 0 1.2l1.3 1.3c.2.2.3.5.2.8-.1.2-.2.4-.2.6-.1.3-.4.4-.7.4h-1.8c-.5 0-.9.4-.8.9v3c0 .5.4.9.9.8h1.8c.3 0 .6.2.7.5.1.2.1.3.2.5.1.3.1.6-.1.8l-1.3 1.3c-.3.3-.3.9 0 1.2l2.1 2.1c.3.3.9.3 1.2 0l1.3-1.3c.2-.2.5-.3.8-.1.2.1.4.2.6.2.3.1.4.4.4.7v1.8c0 .5.4.9.9.8h3c.5 0 .9-.4.8-.9v-1.8c0-.3.2-.6.5-.7.2-.1.3-.1.5-.2.3-.1.6-.1.8.1l1.3 1.3c.3.3.9.3 1.2 0l2.1-2.1c.3-.3.3-.9 0-1.2l-1.3-1.3c-.2-.2-.3-.5-.1-.8.1-.2.3-.8.3-.8zm-11.8-3.1c.5-2.6 3.2-4.1 5.6-3.2 1.9.7 3 2.7 2.6 4.7-.5 2.6-3.2 4.1-5.6 3.2-1.8-.7-2.9-2.7-2.6-4.7z"/></g><g id="XMLID_857_"><g id="XMLID_868_"><path id="XMLID_901_" class="st11" d="M59.8 228.1H34.9c-1.2 0-2.2-1-2.2-2.2v-20.6h27.1c.4 0 .8.3.8.8v21.3c-.1.3-.4.7-.8.7z"/><path id="XMLID_900_" class="st23" d="M35.6 224.2c-1 0-3 .2-3 2.3v-22.4c0-1.3 1-2.3 2.3-2.3h.7v22.4z"/></g><path id="XMLID_834_" class="st4" d="M51.7 218.7h1.5c.3 0 .5-.2.5-.5v-1.9c0-.3-.2-.5-.5-.5H52c-.2 0-.4-.1-.4-.3 0-.1-.1-.2-.1-.3-.1-.2-.1-.4.1-.5l.8-.8c.2-.2.2-.6 0-.8l-1.3-1.3c-.2-.2-.6-.2-.8 0l-.8.8c-.1.1-.3.2-.5.1-.1-.1-.2-.1-.4-.1-.2-.1-.3-.2-.3-.4V211c0-.3-.2-.5-.5-.5h-1.9c-.3 0-.5.2-.5.5v1.2c0 .2-.1.4-.3.4-.1 0-.2.1-.3.1-.2.1-.4.1-.5-.1l-.9-.9c-.2-.2-.6-.2-.8 0l-1.3 1.3c-.2.2-.2.6 0 .8l.8.8c.1.1.2.3.1.5-.1.1-.1.2-.1.4-.1.2-.2.3-.4.3h-1.2c-.3 0-.5.2-.5.5v1.9c0 .3.2.5.5.5h1.2c.2 0 .4.1.4.3 0 .1.1.2.1.3.1.2.1.4-.1.5l-.8.8c-.2.2-.2.6 0 .8l1.3 1.3c.2.2.6.2.8 0l.8-.8c.1-.1.3-.2.5-.1.1.1.2.1.4.1.2.1.3.2.3.4v1.2c0 .3.2.5.5.5h1.9c.3 0 .5-.2.5-.5v-1.2c0-.2.1-.4.3-.4.1 0 .2-.1.3-.1.2-.1.4-.1.5.1l.8.8c.2.2.6.2.8 0l1.3-1.3c.2-.2.2-.6 0-.8l-.8-.8c-.1-.1-.2-.3-.1-.5.2-.2.3-.6.3-.6zm-7.5-2c.3-1.7 2-2.6 3.6-2 1.2.5 1.9 1.7 1.7 3-.3 1.7-2 2.6-3.6 2-1.2-.4-1.9-1.7-1.7-3z"/><path id="XMLID_858_" class="st32" d="M60.5 227.5v-21.7c0-.3-.3-.6-.6-.6h-1.8v22.2c0 .3.3.6.6.6h1.2c.4.1.6-.2.6-.5z"/><g id="XMLID_838_"><path id="XMLID_856_" class="st22" d="M58.9 203.4h2.5V225h-2.5z"/><path id="XMLID_855_" class="st23" d="M61.4 224.9h-2.5v2.3c0 .5.4.8.8.8h.9c.5 0 .8-.4.8-.8v-2.3z"/><path id="XMLID_852_" fill="#fde1a7" d="M58.9 203.4h1.3V225h-1.3z"/><path id="XMLID_851_" class="st35" d="M60 200.4l-1.2 2.9h2.6l-1.2-2.9c0-.1-.1-.1-.2 0z"/><path id="XMLID_850_" class="st33" d="M60.1 200.3l-.3.8h.7l-.4-.8c0-.1 0-.1 0 0z"/><path id="XMLID_854_" class="st33" d="M58.9 224.3h2.5v.6h-2.5z"/></g></g></g><g id="Layer_13"><path d="M399.6 182.8c-.1.1-.3.1-.4.2-4.2 2-6.4 1.7-10.4-.2-3.7-1.7-7.3-3.8-10.4-6.5-3.9-3.5-6.9-8.1-7.6-13.3-.1-1.2-.1-2.4.6-3.4.9-1.3 2.9-1.5 4.4-.9s2.7 1.7 3.9 2.8c.5.5 1 .9 1.7 1.1.7.2 1.5 0 1.8-.6.5-.9-.4-2-1.2-2.7-1.9-1.6-3.8-2.6-5.8-4-2.6-1.8-4.9-4-6.3-6.8s-1.7-6.3-.3-9c.4-.8 1.1-1.6 1.9-2.1 1.4-.9 3.3-.9 4.9-.5s3.2 1 4.9 1.2c4 .4 5.5-2.4 5.4-6-.1-2.4-.8-4.8-1-7.3-.2-4.3 1.9-8.9 5.8-10.7 3.9-1.8 9.3-.1 10.7 4 1.5 4.4-1.9 9.4.3 13.6.7 1.4 2.4 3.3 3.8 4.1 2.2 1.3 5.3-.2 7.8-.1.6 0 1.2.1 1.6.5.3.3.4.7.5 1.1.6 3.1-.5 6.4-2.8 8.5-2.6 2.4-7.2 3.6-8.3 7.3-.7 2.3-.4 8.1 3.3 7.5 1.4-.2 2.3-1.6 3.6-2 1.6-.6 3.5.5 4.3 2.1.7 1.6.5 3.4-.1 5.1-1 2.5-3 4.6-4.9 6.6-3.9 4-6.5 7.9-11.7 10.4z" fill="#00c9a7"/><path class="st61" d="M394.1 128.9V228m10.5-83.5L394.1 155l-10.4-10.5m20.9 21L394.1 176l-10.4-10.5M21 228h25c0-2.1 1.7-3.8 3.8-3.8s3.8 1.7 3.8 3.8m-1.8-3.4c0-2.1 1.7-3.8 3.8-3.8m383.5 7.2h-25c0-2.1-1.7-3.8-3.8-3.8-2.1 0-3.8 1.7-3.8 3.8m1.7-3.4c0-2.1-1.7-3.8-3.8-3.8-2.1 0-3.8 1.7-3.8 3.8"/><path class="st62" d="M89.5 227.8s-.8.4 0 0zm7.2-7.1c-7.5-7.7-16.5-14.3-26.8-17.2-10.3-3-22.1-2-31 4.1 12.9 13.6 31.9 21.2 50.6 20.2 2.7.2 10.6.3 12.9-1 .6-.4-1.2-2.4-2.8-4-.5-.5-2.4-1.6-2.9-2.1z"/><path class="st14" d="M99.6 222.8c-.5-.5-2.3-1.6-2.8-2.1-7.5-7.7-16.5-14.3-26.8-17.2-5-1.4-10.3-1.9-15.4-1.4 5.9.2 11.9 1.8 17.2 4.5 9.4 4.8 16.8 12.6 22.7 21.4 3.1 0 6.7-.3 8-1.1.5-.5-1.4-2.4-2.9-4.1z" opacity=".2"/><path class="st62" d="M105.6 204.5c1.5 4.3 3.5 10.7 1.7 14.9-1.4 3.3-4 8.1-7.3 7.4-2.8-3.6-8.4-11-12-13.9-3-2.4-7.6-4.9-10.5-7.5-7.2-6.5-10-15.3-14-24.1 7.3.7 14.5 2.1 21.6 4.1 4.6 1.3 9.3 3 12.8 6.2 3.9 3.4 6.1 8.1 7.7 12.9z"/><path d="M90 213.2c-2.5-2.9-6.7-6.2-9-9.2-4.9-6.4-6.6-13.7-8.4-21.5-3-.5-6-.9-9-1.2 4 8.9 6.8 17.6 14 24.1 2.8 2.6 7.5 5.1 10.5 7.5 1.7 1.4 3.9 3.8 6 6.3-1.4-2.3-2.8-4.6-4.1-6z" opacity=".08" fill="#f5f7f9" enable-background="new"/><path class="st62" d="M109.3 181.4c2.5 6.7 2.4 14 2.4 21.1 0 2.7.7 7.2 0 9.8-.5 2.2-2 4.3-3.3 6.1-1.2 1.6-2.5-.3-3.6-1.9-.9-1.5-2.6-4.1-1.8-3.5-1.2-4.1-1.9-6.7-3-10.9-1.1-3.2-2.1-6.4-2.7-9.7-1.4-8.2.2-16.5 1.8-24.7 4.6 3.6 8.2 8.4 10.2 13.7z"/><path class="st65" d="M44.2 209c9.3-.3 18.4 0 27.4 2.5 8.5 2.4 16.3 6.5 23.3 11.8.4.3.7-.3.4-.6-7-5.3-15-9.3-23.5-11.7-9.1-2.6-18.2-2.7-27.6-2.2-.2 0-.2.2 0 .2zm22.4-24.9c7.5 3.6 14.4 8.2 20.3 14 6.4 6.3 10.7 13.8 15.5 21.2.1.2.5 0 .3-.2-8.2-15.4-19.8-28.3-36.1-35.2 0 0-.1.1 0 .2zm33-13c4.9 14.5 10.6 28.5 7.3 44.1-.1.3.4.5.5.1 3.1-14.9-1.4-30.8-7.7-44.3-.1-.1-.2 0-.1.1z"/><path class="st65" d="M50.9 214.2c1-1 2-2.1 3.1-2.9 1.2-.9 2.4-1.5 3.7-2.2.1-.1 0-.2-.1-.2-2.6.8-5.3 3-6.7 5.3-.1 0-.1 0 0 0zm7.5 3.7c2.6-4.7 6.4-6.1 11.5-6.7.4 0 .3-.6-.1-.5-4.8.6-9.7 2.1-11.4 7.2-.1 0 0 0 0 0zm9.3.6c3-2.3 6-5.9 10.2-4.8.2.1.3-.3.1-.3-4.2-1.1-7.6 2.4-10.4 5-.1.1 0 .2.1.1zm9.2 4.9c2.8-3.5 6.8-6.7 11.4-4.3.3.1.5-.3.2-.4-4.6-2.4-9.3.6-11.8 4.6 0 .1.1.2.2.1zm-21.4-20.3c.6 3 3.2 4.8 5.6 6.4.2.1.3-.2.2-.3-2.4-1.6-4.8-3.2-5.6-6.1 0-.2-.2-.1-.2 0zm9.9.6c1.1 2.9 3 5.4 5.2 7.5.2.2.5-.1.3-.3-2.4-2.1-4-4.5-5.5-7.2 0 0-.1 0 0 0z"/><path class="st65" d="M73.7 207c.5 1.4 1.2 2.6 2.1 3.8.7.9 1.7 2.5 2.7 2.9.1 0 .2 0 .3-.1l.1-.1c.1-.1.1-.3-.1-.4l-.1-.1c-.1-.1-.2 0-.3 0l-.1.1c-.1.1-.1.2.1.3.4.1-1.1-1.6-1.1-1.6-.4-.5-.8-.9-1.2-1.4-.9-1.1-1.7-2.3-2.3-3.6 0 .1-.1.1-.1.2zm6.9 3.5c1.8 3.1 4.7 5.9 7.5 8.1.3.3.8-.2.5-.5-3-2.3-5.3-5-7.8-7.8-.1 0-.3.1-.2.2zM71 193.9c5.2-.3 9.7-.1 14.2 2.8.3.2.6-.3.3-.5-4-2.6-9.8-4.2-14.6-2.6-.1.1-.1.3.1.3zm8.1 8.6c2.5 0 4.9-.1 7.3.5 2.2.5 4.3 1.3 6.5 2.1.3.1.4-.3.1-.5-4.4-1.6-9.3-3.5-14-2.3 0 .1 0 .2.1.2zm9.6 7.6c1.7.1 3.5.3 5.2.6 2 .4 3.3 1.4 4.6 2.9.2.2.6-.1.4-.4-1.2-1.4-2.4-2.4-4.3-2.9-1.9-.4-3.9-.5-5.9-.4-.1 0-.1.2 0 .2z"/><path class="st65" d="M81.6 187.9c.1 1.9 1.1 3.8 1.8 5.5.5 1.1.9 3 2.3 3.2.1 0 .2-.1.1-.2-2.4-2-2.5-5.9-4.1-8.5.1-.1-.1-.1-.1 0zm7.8 2.3c.5 5.2 2.1 10.3 3.9 15.1.1.2.5.1.4-.1-1.9-4.9-2.9-9.9-4.1-15 0-.1-.2-.1-.2 0zm8.4 10.9c0 4.4 1.1 8.9 1.8 13.2.1.3.6.2.5-.1-.8-4.4-1.4-8.7-2.1-13.1 0-.2-.2-.2-.2 0zm.2-21.8c3.1 3.5 5.6 7.3 7.6 11.5.2.3.7.1.5-.3-2-4.3-4.6-8.1-7.9-11.5-.1-.1-.4.1-.2.3z"/><path class="st65" d="M108 180.1c-1.5 3.3-1.8 7.6-2 11.2 0 .3.5.3.5 0 .1-2.1.3-4.1.7-6.2.3-1.7.8-3.3 1-5 .1-.1-.1-.1-.2 0zm-5.6 12.5c2.3 3.6 3.8 7.2 5.4 11.2 0 .1.2 0 .2-.1-.6-4-2.8-8.2-5.4-11.2-.2-.1-.3 0-.2.1zm5.8 11.4c1-2.6 1.8-5.1 3.3-7.4.1-.2-.2-.4-.3-.2-1.4 2.3-2.8 4.9-3 7.6-.1.1-.1.1 0 0z"/></g><g id="Layer_8"><path d="M108.4 133.2l-5.8-3.3v-6.7c0-.5-.4-.9-.9-.9H34.1c-.5 0-.9.4-.9.9v21.2c0 .5.4.9.9.9h67.6c.5 0 .9-.4.9-.9v-6.7l5.8-3.3c.5-.4.5-1 0-1.2z" fill="#ffc107"/><path class="st9" d="M84.6 140.9h12.1c.7 0 1.2-.5 1.2-1.2v-12.1c0-.7-.5-1.2-1.2-1.2H84.6c-.7 0-1.2.5-1.2 1.2v12.1c0 .7.6 1.2 1.2 1.2zm-43.5-10.6h35.7c.8 0 1.4-.6 1.4-1.4 0-.8-.6-1.4-1.4-1.4H41.1c-.8 0-1.4.6-1.4 1.4.1.8.7 1.4 1.4 1.4zm0 5.4h35.7c.8 0 1.4-.6 1.4-1.4 0-.8-.6-1.4-1.4-1.4H41.1c-.8 0-1.4.6-1.4 1.4.1.8.7 1.4 1.4 1.4zm12 5.4h23.8c.8 0 1.4-.6 1.4-1.4 0-.8-.6-1.4-1.4-1.4H53.1c-.8 0-1.4.6-1.4 1.4 0 .8.6 1.4 1.4 1.4z"/><g class="st16"><path class="st14" d="M169.9 215.6c0-.1-.1-.3-.2-.4 0 0 0-.1-.1-.1-.3-.6-.9-1.2-1.5-1.4-1.8-1.1-4.5-1.9-5.8-2.2l3.6-.9v-.5l1.8.6c.5.2 1.1-.1 1.3-.6v-.3c.4 0 .8-.3.9-.7.1-.3 0-.6-.1-.8.4 0 .7-.3.8-.7s0-.7-.2-1c.3-.1.5-.3.6-.6.2-.5-.1-1.1-.6-1.3l-.8-.3 7.6-11.4c.1-.2-.1-.4-.3-.4l-17.5 4.7-7.3-8v9.5l.5.3-.5.1V228h9c13-3 8.8-12.4 8.8-12.4z"/></g><g class="st16"><path class="st14" d="M108.4 218.5c1.3-1.8 2.8-4 3.3-6.1.6-2.6 0-7.1 0-9.8.1-7.1.1-14.4-2.3-21l1.3 5.6-.3 5-.3-.1-1.3-11.9c-1.9-4.5-4.9-8.5-8.8-11.6-.3 7.6-.5 24.3 2.9 29.5.6 1 1.7 1.8 3 2.5-3.1-1.4-5.7-2.3-7.4-2.9-.1 0-.3-.1-.4-.1H98c-.1 0-.2-.1-.4-.1h-.1c-.1 0-.2-.1-.3-.1h-.1c-.1 0-.2-.1-.3-.1h-.1c-.1 0-.1 0-.2-.1h-.4c-.2 0-.4 0-.6.1-.1 0-.2 0-.2.1-.1 0-.2.1-.2.1-.5.2-1 .6-1.4 1-.9.9-1.6 2.1-1.9 3.3v.2c-.3 1.2-.3 2.4-.1 3.6.4 2.1 1.4 4.1 2.9 5.7.1.1.1.2.2.2.3.3.6.6 1 .9 1.8 1.5 3.8 3.1 5.5 4.4.2.2.5.4.7.5.3.2.6.4.8.6.3.2.6.4.8.6.2.2.4.3.6.4.1.1.3.2.4.3.2.2.4.3.5.3l-5.8.7c-1.4 0-2.6.9-3.2 2.1-.2.4-.3.9-.3 1.3v.1c0 .2 0 .4.1.6.1.5.3.9.5 1.3.6.9 1.7 1.5 2.9 1.5h2c.1 0 .2 0 .2-.1.1 0 .1 0 .2-.1l.6-.3c.1 0 .1-.1.1-.2v-.2c2.2-1.2 3.8-4.5 4.9-7 0-.1.1-.2.1-.3.4.2.7 0 1-.4zm1.3-16.3v.3c-.5-.3-1.1-.6-1.6-.8 0 0-.1 0-.1-.1h-.1l1.8.6z"/></g><path class="st14" d="M137.5 135.7c.5-1.6-.7-3.2-1.9-4.4-2.4-2.3-5.3-4.1-8.6-4.3-3-.2-6.7 1.8-8.7 4-1.2 1.3-2.1 2.9-3 4.4-.8 1.3-1.2 2.8-1.3 4.4-.1 1.8.7 3.7 0 5.5-.2.5-.6 1-.8 1.6-.5 1.2-.1 2.6.2 3.9.1.5.3 1 .3 1.4 0 .8-.4 1.6-.6 2.3-.5 1.8.2 4.1 1.9 4.9.6.3 1.3.3 2 .3.2 0 .5 0 .7-.1.6-.3.6-1.2 1-1.9.4-.8 1.5-1 2.4-1s1.9.1 2.7-.3c2.2-1.1 1.7-4.8 3.7-6.1.9-.6 2.1-.6 2.9-1.3 1-.8 1.1-2.2 1.6-3.3.5-1 1.2-1.8 1.9-2.6 1.7-2.1 2.9-4.7 3.4-7.3"/><path class="st67" d="M132.3 173.3l-13.4-1.4-5-14.6 4.1-1.6 9.4.2 6.1 1.4z"/><path fill="#09324c" d="M112.6 201h30.9v18.6h-30.9z"/><path class="st7" d="M128.5 156.2s5.7 1.3 7.7 2c0 0 6.2.6 8.1 8.9l4.8 21.6 10.1 11-3.9 3-12.9-8.8c-.7-.5-1.3-1.3-1.5-2.1l-3.6-14 .2 11.5s8.1 11.8 5.7 15.8l-31-1.7.9-16.1-3.5-15.6 2.1-13.4 6.4-2.4s-1.5 8.6 6.4 9.7c-.1-.1 6.9-2 4-9.4z"/><g class="st16"><path class="st14" d="M137.4 184.2l-.1-6.4c-1.6 2.6-2.5 8-4.2 10.4-.3.4-.6.8-.7 1.2-.3 1 .2 2.1.9 2.9.7.8 1.7 1.3 2.6 1.9 1.8 1.3 3.4 3 4.5 4.9.8 1.4 2.5 4.2 1.7 5.8h1.1c2.5-4-5.7-15.8-5.7-15.8l-.1-4.9z"/></g><path class="st69" d="M145.5 193.9c-.7-.5-1.3-1.3-1.5-2.1l-6.7-14 2 7.8 1.6 6.2c.2.9.8 1.6 1.5 2.1l12.9 8.8.7-.6-10.5-8.2z"/><path class="st70" d="M107.6 219.6s-5.3-3.8-9.4-7.3c-3.1-2.7-4.4-6.5-3.9-10.6v-.1s1.8-4.6 4.4-4.6c0 0 15.9 4.1 27.5 15.4l19.6 6.4-36.2 4.6-2-3.8z"/><path d="M110.5 220.2c-.4-.7-.8-1.4-1.5-1.8-.4-.3-.9-.4-1.3-.6-1.3-.8-1.8-2.5-2.8-3.6-.9-1-2.1-1.5-2.9-2.5-.7-.9-1.1-2-1.6-3l-1.2-3c-.4-1-.8-2.1-.8-3.2 0-.7 1.1-5.2 2.3-4.8l-2.1-.6c-.9 0-1.7.6-2.5 1.3-1.8 1.9-2.6 4.6-2 7.1.5 2.7 1.9 5.1 4 6.9 4.1 3.5 9.4 7.3 9.4 7.3l1.9 3.9 3.6-.5c-.6-1.2-1.8-1.4-2.5-2.6.1-.1.1-.2 0-.3z" opacity=".07" fill="#f7f9fa" enable-background="new"/><path class="st69" d="M115.1 221.5v1.2l30.7-3.9-9.2-3-6.1-1.7z"/><path class="st70" d="M159.2 211.2s7.6 1.6 8.3 4.4c0 0 4.2 9.4-8.8 12.4h-39.3v-6.5l18.7-5 21.1-5.3z"/><path class="st69" d="M167.4 215.6c-.2-.8-1.3-2-2-2 0 .9.5 1.7.5 2.6 0 1.2-.6 2.4-1.4 3.3-1.2 1.3-2.9 2.1-4.5 2.9-1 .5-2 .9-3 1.4-.9.4-1.8.8-2.8 1.1-3.2.8-6.6-.2-9.8.4-2 .4-4 .5-6 .7-1.6.1-19.1 1.2-19.1.9v1.2h39.3c13-3.1 8.8-12.5 8.8-12.5z"/><path class="st67" d="M119.4 221.5l-2.5-1.9c-.8-.6-1.8-.9-2.8-.8l-12.3 1.4c-1.9 0-3.4 1.5-3.4 3.4v.1c0 1.9 1.5 3.4 3.4 3.4h17.6v-5.6z"/><path class="st14" d="M116.9 219.6c-.8-.6-1.8-.9-2.8-.8l-12.3 1.4c-1.9 0-3.4 1.5-3.4 3.4v.1c0 .4.1.8.2 1.1.5-1.3 1.7-2.3 3.2-2.3l12.3-1.4c1-.1 2 .2 2.8.8l2.5 1.9v-2.3l-2.5-1.9z"/><path class="st14" d="M105.3 222.6v-.1c0-1 .4-2 .9-2.8l-4.5.5c-1.9 0-3.4 1.5-3.4 3.4v.1c0 1.9 1.5 3.4 3.4 3.4h8.1c-2.4.1-4.5-2-4.5-4.5z"/><path class="st42" d="M120.7 210.9l24.9-6.4 8.8 7.9-16.3 4.1z"/><path class="st5" d="M124.7 210.9l22.9-5.9 6.8 7-13.3 3.3z"/><path d="M138.5 215.7l-17.9-4.7v.3c0 .5.3.9.8 1.1l15.3 4.7c.4.1.9 0 1.2-.4l.6-1z" fill="#d8d7d6"/><path fill="#bebcba" d="M137.1 217.1l26.4-6.6v-1.1l-25 6.3z"/><path class="st67" d="M130.5 201l6.3 1.5c.2.1.5.2.7.3l3.1 2.3c.5.4.9.9 1.1 1.4l1 1.7.5 3.3c-.6.5-1.4.1-1.5-.6l-.1-1.8c-.3-.6-1.6-1.9-2.2-2l-1.8-.4 1.4 2.4c.4.6-.1 1.4-.8 1.4l-3.5-4.2-6.2-2.5 2-2.8z"/><path class="st42" d="M138.1 216l9.1-15.9c0-.1.1-.1.1-.1l27.1-7.3c.2-.1.4.2.3.4L163.4 210c0 .1-.1.1-.2.1l-24.9 6.2c-.1.1-.3-.1-.2-.3z"/><path class="st5" d="M158.4 205c-.5 1.1-1.5 2-2.4 2-.8 0-1.1-.9-.7-2 .5-1.1 1.5-2 2.4-2 .9 0 1.2.9.7 2z"/><path class="st69" d="M112.6 202.6c-2.7-1.4-5.3-2.6-7.4-3.4.1.1.1.3.2.4 4.1 6.2 24.3 5.9 24.3 5.9l1.3-2.8-1.7-1.7h-16.7v1.6z"/><path class="st7" d="M114.9 156.9s-7.7 2.9-8.7 3.4c-.4.2-3.5 1.3-3.6 4.9-.1 3.6-1.3 26.6 2.8 32.8 4.1 6.2 24.4 7 24.4 7l2.2-4.4-19.4-8.5-2.2-20.1 4.5-15.1z"/><path class="st69" d="M112.5 192.1l-2.1-20.2-.3 1.2.9 19.8 20.3 9 .6-1.3z"/><path class="st67" d="M167.3 206.5l-3.1-1c-.5-.2-.8-.7-.6-1.3.2-.5.7-.8 1.3-.6l3.1 1c.5.2.8.7.6 1.3-.2.5-.7.8-1.3.6z"/><path class="st67" d="M167 208.2l-3.6-1.2c-.5-.2-.8-.7-.6-1.3.2-.5.7-.8 1.3-.6l3.6 1.2c.5.2.8.7.6 1.3-.2.4-.8.7-1.3.6z"/><path class="st67" d="M166.3 209.6l-2.9-1c-.5-.2-.8-.7-.6-1.3.2-.5.7-.8 1.3-.6l2.9 1c.5.2.8.7.6 1.3-.2.5-.8.8-1.3.6z"/><path class="st67" d="M165.3 210.6l-1.8-.6c-.5-.2-.8-.7-.6-1.3.2-.5.7-.8 1.3-.6l1.8.6c.5.2.8.7.6 1.3-.2.5-.8.8-1.3.6zm-25.7-1.7l-.3-2.6 1.3-.1.4 3.9c-.7.1-1.3-.5-1.4-1.2zm-19.7-57h7.7v10h-7.7z"/><path class="st69" d="M127.6 155.5l-7.7 1.9v-5.5h7.7z"/><path class="st74" d="M138.3 139.3l-.9-4.9c-2 .8-4.2 1.3-6.3 1.5-.7.1-1.4.1-2.1.3-1.5.5-2.5 1.7-3 3.1-.4 1.1.1 3.5-1.4 3.7-.7.1-1.3-.3-1.7-.9-.4-.5-.8-1.1-1.2-1.6-1.2-1.1-2.7-.4-2.8 1.2-.1.9.3 1.9 1 2.5.7.7 1.8 1 2.1 1.9.2.4.2.7.2 1.1.1 1.3.5 2.6 1.2 3.8 1.1 1.7 2.9 2.7 4.6 3.6 2 1.1 4 1.7 4.9-.8.7-2 3.1-2.9 3.9-4.9.4-1 0-2 0-3.1 0-2.4 1.6-4 1.5-6.5z"/><path class="st14" d="M136.7 145.9c.1-2.4 1.7-4.1 1.6-6.6l-.9-4.9c-.4.1-.7.3-1.1.4l.8 4.5c.1 2.5-1.5 4.2-1.6 6.6-.1 1.1.4 2 0 3.1-.7 2-3.1 2.9-3.9 4.9-.4 1-.9 1.5-1.6 1.7 1.2.2 2.2-.1 2.7-1.7.7-2 3.1-2.9 3.9-4.9.4-1.1 0-2 .1-3.1z" opacity=".1"/><path class="st14" d="M114.5 145c.9.1 1.5 1.1 1.5 2s-.3 1.8-.5 2.7-.3 1.9.2 2.6c.4.6 1.2 1 1.5 1.7.6 1.3-.9 2.7-1.1 4.1-.2 2.2 2.9 3.8 2.6 6-.1.6-.4 1.2-.4 1.8.1 1.1 1.4 2 1.2 3.2-.1.3-.2.6-.1.9.1.2.3.3.6.4.6.2 1.4.4 1.7-.2.4-.7-.6-1.5-.3-2.3 1.1.2 2.2.5 3.3.7.2.1.5.1.7-.1.1-.1.2-.2.2-.4.3-1.3-.9-2.4-1.6-3.6-.1-.2-.2-.3-.2-.5 0-.4.4-.7.8-.8.7-.3 1.4-.8 1.6-1.5.2-.9-.4-1.7-.9-2.5-.8-1.1-1.5-2.5-1.2-3.9.2-.9.9-1.8.8-2.8-.1-1.8-2.4-2.8-2.6-4.6-.1-.4 0-.9 0-1.3-.1-.9-.8-1.8-1.6-2.2-.8-.5-1.8-.7-2.7-.9-.7-.2-1.5-.3-2.2-.2-.7.2-1.4.7-1.4 1.5"/></g><g id="Layer_10"><path class="st4" d="M334.9 71.7l5.8-3.3v-6.7c0-.5.4-.9.9-.9h67.6c.5 0 .9.4.9.9v21.2c0 .5-.4.9-.9.9h-67.6c-.5 0-.9-.4-.9-.9v-6.7l-5.8-3.3c-.4-.3-.4-.9 0-1.2z"/><path class="st9" d="M358.7 79.5h-12.1c-.7 0-1.2-.5-1.2-1.2V66.2c0-.7.5-1.2 1.2-1.2h12.1c.7 0 1.2.5 1.2 1.2v12.1c0 .7-.5 1.2-1.2 1.2zm43.5-10.6h-35.7c-.8 0-1.4-.6-1.4-1.4 0-.8.6-1.4 1.4-1.4h35.7c.8 0 1.4.6 1.4 1.4 0 .8-.6 1.4-1.4 1.4zm0 5.4h-35.7c-.8 0-1.4-.6-1.4-1.4 0-.8.6-1.4 1.4-1.4h35.7c.8 0 1.4.6 1.4 1.4 0 .8-.6 1.4-1.4 1.4zm-11.9 5.4h-23.8c-.8 0-1.4-.6-1.4-1.4 0-.8.6-1.4 1.4-1.4h23.8c.8 0 1.4.6 1.4 1.4 0 .8-.7 1.4-1.4 1.4z"/><path class="st69" d="M289.6 220.5l-7.8 2.5c-1.1.4-2 1.2-2.5 2.3v.1c0 1.4 1.2 2.6 2.6 2.6H293v-9.8l-3.4 2.3zm-9.7-107.3v.6c0 .6.2 1.3.6 1.8l.3.3c.2.3.4.6.4 1 .1.6.4 1.1.9 1.4l1.9 1.1c.2.1.4.2.7.2h2.9l2.1-.6 3.3.5v-6l-3.9.3-.6-1.3c-.5-1-1.5-1.7-2.7-1.8l-6-.3-7.2-7.2c-.2-.2-.6-.2-.8 0-.2.2-.2.6 0 .8l6.5 6.5c-.2.2-.4.4-.4.7 0 .4.3.8.8.8l1.2.1.9.9v.1l-.9.1z"/><path class="st14" d="M289 117.8c-.3.3-.6.3-.8 0l-13.9-13.9c-.2-.2-.2-.6 0-.8.2-.2.6-.2.8 0L289 117c.3.2.3.6 0 .8z"/><path transform="rotate(-23.695 323.947 79.96)" class="st67" d="M319.6 75.5h8.7v9h-8.7z"/><path class="st69" d="M326.4 74.9l-5.8 8.4-2.5-5.7 8-3.5z"/><path class="st74" d="M326.5 75.1l-9.9 8.1c-2.2 1-4.8.2-6-1.9l-1.1-1.9-1.3.5c-.6.2-1.2-.1-1.2-.7l-.5-4.3c-.1-.4 0-.9.2-1.3l.9-1.6-1.7-3.8c-.2-.4 0-2.6.3-2.8l14.1-4.4 6.2 14.1z"/><path class="st67" d="M308.2 222.9h-12.9l4.6-3.3 1.1-3h7.2zm40-6l-11.2 5.6 2.2-5.2-.7-3.1 6.1-3.9z"/><path class="st76" d="M325 143.1s.9 29.5 0 31.2c0 0 14 17.1 20.8 37.2l-7.2 4-25.8-37.6 5-34.7 7.2-.1z"/><path class="st69" d="M317.2 179.9s6.3-28.3 6.4-30.4c0-.6.7-1.2 1.5-2-.1-2.7-.1-4.4-.1-4.4h-7.1l-5 34.7 9.3 13.5c-.1-1.7-4.9-10.2-5-11.4z"/><path class="st76" d="M304.5 139.6l-1.5 39.8-2.9 38.9h8.7s7.8-28.2 6.3-38.4c0 0 6.3-28.3 6.4-30.4.2-2.1 7.8-5 6.9-10.5l-5.6-4.9-17.1 1.8-1.2 3.7z"/><path d="M307.1 139.6l1.2-3.7 14.8-1.6-.3-.2-17.1 1.8-1.2 3.7-1.5 39.8-2.9 38.9h2.6c.2-3.1.4-6.1.4-9.2 0-2.5.5-4.9.4-7.4 0-1.6-.3-3.3-.2-4.9.2-1.8 1-3.8 1.4-5.6.5-2 1-4 1.2-6 .2-2.5-.3-5.1-.6-7.6-.3-3.1-.4-6.3-.4-9.4 0-2.1.5-3.8.8-5.7.4-2.3.1-4.8.2-7.1.2-3.4.8-6.7 1-10 .1-1.7-.3-4.1.2-5.8z" opacity=".09" fill="#f7f9fa" enable-background="new"/><path class="st67" d="M333 100.9l5.4 9.1c.9 1.5.6 3.5-.7 4.7l-8.9 8.2-4.5-5.7 8.7-16.3z"/><path class="st69" d="M328.4 138.9l-5.6-4.9-17.1 1.8-1.2 3.7-.1.5c9.5-2 19.5 3.2 23.4 2.3.5-.9.8-2.1.6-3.4zm4.6-38l-8.7 16.2 4.5 5.7 2.9-2.6c1.4-6.9 3.4-15.1 3.4-15.1.1-.2.1-.3.2-.5l-2.3-3.7z"/><path class="st78" d="M328.8 79.7s.7 1.6 1.7 2.4c1 .9 6.4 6.3 6.1 10.4 0 0 .9 2.4-3.1 12.5 0 0-5.2 21.4-4.7 24 .5 2.6 2.8 12.5 2.8 12.5s-14.9-6.3-30.3-1.7c0 0 3.4-19.2 3.7-22.8 0 0 7.8-26.2 12.8-30.3l11-7z"/><path class="st9" d="M329.3 80.3l-.7-3.1s-9 4.2-10.4 7.3l-.9 5.4c0-.1 7.2-8.4 12-9.6z"/><path class="st14" d="M348 214.4l2.6 4.9c.5 1 0 2.2-1 2.5l-16.2 5.5h-7.3s-.8-.7-1-1.7l8.4-3.9 3.8-5.2 3.5 2.5 5-1.7 2.2-2.9z"/><path class="st9" d="M350.8 218.7l.8 1.4c.3.5.1 1.2-.5 1.5l-15.9 6.3h-7.8c-1.3 0-2.3-1.1-2.3-2.3h11l14.7-6.9z"/><path class="st14" d="M309.3 218.9v5.7c0 1.1-.9 1.9-1.9 1.9h-18l-7.6-1.3c.4-1.1 1.3-1.9 2.5-2.3l7.8-2.5 5.9-3.8 2.2 4.7h6.5l2.6-2.4z"/><path class="st9" d="M307.7 228h-23.3c-1.4 0-2.6-1.2-2.6-2.6v-.1h28v.7c0 1-.9 2-2.1 2z"/><path d="M292.7 220.1l.7 1.3m1-2.4l.7 1.3m-.7-1.3l.7 1.3m1-2.4l.7 1.3M334 221l1.2.7m.2-2.6l1.1.8m.2-2.6l1.2.8" fill="none" stroke="#fff" stroke-miterlimit="10"/><path class="st22" d="M305.3 59.9c.1 0 .1-.1 0 0 .4-.2.9-.3 1.2-.6.3-.2.5-.6.7-.8.4-.5 1.1-.8 1.5-1.2.7-.5 1.2-.9 2.1-1.1.9-.1 1.9 0 2.8-.1 1.6-.2 3.3-1.1 4.8-.6 1.1.4 1.8 1.4 2.5 2.4 1.3 2 2.7 4 3.6 6.2.8 2 .7 4.4.9 6.6.1.5.1 1.1-.1 1.6-.2.6-.7 1.1-.6 1.8-.1-.7-1.2-1.9-1.5-2.6-.4-.8-.6-1.4-1.5-1.7-.4-.1-1-.1-1.3-.5-.2-.2-.3-.5-.4-.7-.2-.5-.3-.9-.7-1.3-.3-.4-.8-.6-1.3-.6-.2 0-.4.1-.5.2s-.1.2-.2.2c-.2.2-.5.2-.7.3-1.1.5-.1 2.2-.1 3 0 .9-.5 2-1.4 2.2-.2-.7-.4-1.4-.8-2.1-.7-1.3-2-2.2-3.2-3-.6-.4-1.2-.8-1.8-1.3-.4-.3-.7-.5-1.2-.5-.6 0-1 .5-1.3.9-.9 1.5-2.8 3.2-4.6 1.7-.7-.6-1-1.6-1-2.5 0-1.4.7-2 1.4-3 .9-1.3 1.3-2.3 2.7-2.9z"/><path class="st69" d="M317.5 123.6l8.2-14.5-7.5-3.2-3.6 6.4-8.2.6c-.8 2.5-1.3 4.1-1.3 4.1-.1.8-.3 2.6-.6 4.7l13 1.9z"/><path d="M336.6 92.6c.3-4.2-5-9.6-6.1-10.4-1-.9-1.7-2.4-1.7-2.4l-1.1.7c0 .7.2 1.5.4 2.2.3.9.6 2 .1 2.9-.7 1.5-2.8 1.6-3.8 2.9s-.5 3.3.1 4.8c1.1 2.9 2.4 6.1 1.3 9-.3.7-.7 1.4-.8 2.1-.3 2.2 1.9 4 1.9 6.2s-2.2 3.8-2.9 5.9c-.8 2.5.6 5.1.7 7.7 0 2.1-.8 4.2-.7 6.3.1 1.4.6 2.7 1 4 .6 1.8 1.2 3.7 1.7 5.6.9.3 1.7.5 2.4.7 0-.2.1-.3.1-.5.3-1.6.5-3.2.8-4.8-.6-2.6-1.2-5.2-1.4-6.4-.5-2.6 4.7-24 4.7-24 4.2-10.1 3.3-12.5 3.3-12.5z" opacity=".04" fill="#f7f9fa" enable-background="new"/><path class="st67" d="M317.9 105.5l-3.4 6.6-22.9 1.6-.6-1.3c-.5-1-1.5-1.7-2.7-1.8l-7.1-.3c-.5 0-.9.4-.9.8s.3.8.8.8l2.2.2-.1.9-.9.2v.6c0 .6.2 1.3.6 1.8l.3.3c.2.3.4.6.4 1 .1.6.4 1.1.9 1.4l1.9 1.1c.2.1.4.2.7.2h2.9l2.1-.6 24.6 3.5 8.9-13.2-7.7-3.8z"/><path class="st69" d="M327.8 111.2l-10.6-6.3 5.7-13.7c1.5-3.4 5.5-4.9 8.9-3.4 3.4 1.5 3.9 5.5 2.3 8.9l-6.3 14.5z"/><path class="st78" d="M326.7 109.6l-10-4.7 5.1-14.2c1.5-3.4 5.5-4.9 8.9-3.4 3.4 1.5 4.9 5.5 3.4 8.9l-7.4 13.4z"/></g><path class="st61" d="M59 228h341.6" id="Layer_12"/></svg>